<?xml version="1.0" encoding="UTF-8" standalone="no"?>
<!-- Created with Inkscape (http://www.inkscape.org/) -->

<svg
   xmlns:dc="http://purl.org/dc/elements/1.1/"
   xmlns:cc="http://creativecommons.org/ns#"
   xmlns:rdf="http://www.w3.org/1999/02/22-rdf-syntax-ns#"
   xmlns:svg="http://www.w3.org/2000/svg"
   xmlns="http://www.w3.org/2000/svg"
   xmlns:sodipodi="http://sodipodi.sourceforge.net/DTD/sodipodi-0.dtd"
   xmlns:inkscape="http://www.inkscape.org/namespaces/inkscape"
   width="61.400002mm"
   height="91.400002mm"
   viewBox="0 0 61.400002 91.400002"
   version="1.1"
   id="svg825"
   inkscape:version="0.92.2 (5c3e80d, 2017-08-06)"
   sodipodi:docname="22.svg">
  <defs
     id="defs819" />
  <sodipodi:namedview
     id="base"
     pagecolor="#ffffff"
     bordercolor="#666666"
     borderopacity="1.0"
     inkscape:pageopacity="0.0"
     inkscape:pageshadow="2"
     inkscape:zoom="2.2892582"
     inkscape:cx="151.22198"
     inkscape:cy="152.53604"
     inkscape:document-units="mm"
     inkscape:current-layer="layer1"
     showgrid="false"
     fit-margin-top="0"
     fit-margin-left="0"
     fit-margin-right="0"
     fit-margin-bottom="0"
     showborder="true"
     inkscape:window-width="1920"
     inkscape:window-height="1057"
     inkscape:window-x="-8"
     inkscape:window-y="-8"
     inkscape:window-maximized="1"
     inkscape:snap-global="false" />
  <metadata
     id="metadata822">
    <rdf:RDF>
      <cc:Work
         rdf:about="">
        <dc:format>image/svg+xml</dc:format>
        <dc:type
           rdf:resource="http://purl.org/dc/dcmitype/StillImage" />
        <dc:title></dc:title>
      </cc:Work>
    </rdf:RDF>
  </metadata>
  <g
     inkscape:label="Layer 1"
     inkscape:groupmode="layer"
     id="layer1"
     transform="translate(207.83315,-289.33649)">
    <rect
       style="opacity:1;fill:#000000;fill-opacity:1;fill-rule:nonzero;stroke:none;stroke-width:0.61239845;stroke-linecap:square;stroke-linejoin:round;stroke-miterlimit:4;stroke-dasharray:none;stroke-opacity:1;paint-order:stroke fill markers"
       id="rect1373"
       width="60.400002"
       height="90.400002"
       x="-207.33315"
       y="289.83649"
       rx="3.8"
       ry="3.8" />
    <rect
       style="opacity:1;fill:#006e3c;fill-opacity:1;fill-rule:nonzero;stroke:none;stroke-width:0.60055453;stroke-linecap:square;stroke-linejoin:round;stroke-miterlimit:4;stroke-dasharray:none;stroke-opacity:1;paint-order:stroke fill markers"
       id="rect1385"
       width="59"
       height="89"
       x="-206.63316"
       y="290.5365"
       rx="3.0999999"
       ry="3.0999999" />
    <path
       inkscape:connector-curvature="0"
       id="path4319"
       style="fill:#ffffff;fill-opacity:1;fill-rule:nonzero;stroke:none;stroke-width:0.11407174"
       d="m -195.53314,375.03644 15.4,-1e-5 1.40001,-80 h -2.80001 z"
       sodipodi:nodetypes="ccccc" />
    <path
       sodipodi:nodetypes="ccccc"
       d="m -158.73313,375.03644 -15.4,-1e-5 -1.40001,-79.99999 2.8,-1e-5 z"
       style="fill:#ffffff;fill-opacity:1;fill-rule:nonzero;stroke:none;stroke-width:0.11407174"
       id="path865"
       inkscape:connector-curvature="0" />
    <rect
       style="opacity:1;fill:#006e3c;fill-opacity:1;fill-rule:nonzero;stroke:none;stroke-width:0.21030718;stroke-linecap:square;stroke-linejoin:round;stroke-miterlimit:4;stroke-dasharray:none;stroke-opacity:1;paint-order:stroke fill markers"
       id="rect897"
       width="26"
       height="8"
       x="-190.13316"
       y="320.83646" />
    <path
       sodipodi:nodetypes="ccccccccccccc"
       inkscape:connector-curvature="0"
       id="path899"
       style="fill:#ffffff;fill-opacity:1;fill-rule:nonzero;stroke:none;stroke-width:0.11469018"
       d="m -201.13314,323.23643 v 1.9 l 7,10e-6 1e-5,3.69999 3.59999,10e-6 v -3.70001 l 26.8,10e-6 1e-5,3.7 h 3.59999 v -3.70001 l 7,10e-6 v -1.90001 z" />
    <path
       style="opacity:1;fill:#dc0a14;fill-opacity:1;fill-rule:nonzero;stroke:none;stroke-width:0.18026449;stroke-linecap:square;stroke-linejoin:round;stroke-miterlimit:4;stroke-dasharray:none;stroke-opacity:1;paint-order:stroke fill markers"
       d="m -153.28406,290.24918 4.77042,1.85824 0.33283,8.51464 -52.80113,79.2019 -4.77042,-1.85824 -0.33283,-8.51465 z"
       id="rect885"
       inkscape:connector-curvature="0"
       sodipodi:nodetypes="ccccccc" />
    <path
       inkscape:connector-curvature="0"
       style="opacity:1;fill:#ffffff;fill-opacity:1;fill-rule:nonzero;stroke:none;stroke-width:0.60901546;stroke-linecap:square;stroke-linejoin:round;stroke-miterlimit:4;stroke-dasharray:none;stroke-opacity:1;paint-order:stroke fill markers"
       d="m -203.53337,290.0364 c -1.99441,0 -3.59976,1.6059 -3.59977,3.60029 l -1e-5,82.79961 c 0,1.99439 1.60539,3.60029 3.59978,3.60029 h 52.80039 c 1.99441,0 3.59979,-1.6059 3.59979,-3.6003 V 293.6367 c -10e-6,-1.9944 -1.60538,-3.6003 -3.59978,-3.6003 z m 1e-5,1.50016 52.80039,10e-6 c 1.16339,-10e-6 2.09961,0.93672 2.09962,2.10013 l -1e-5,82.79959 c 0,1.1634 -0.93621,2.10013 -2.09961,2.10013 l -52.8004,10e-6 c -1.1634,-10e-6 -2.09961,-0.93674 -2.09961,-2.10013 v -82.79961 c 0,-1.16339 0.93621,-2.10012 2.09962,-2.10013 z"
       id="path887" />
  </g>
</svg>
