<?xml version="1.0" encoding="UTF-8" standalone="no"?>
<!-- Created with Inkscape (http://www.inkscape.org/) -->

<svg
   xmlns:dc="http://purl.org/dc/elements/1.1/"
   xmlns:cc="http://creativecommons.org/ns#"
   xmlns:rdf="http://www.w3.org/1999/02/22-rdf-syntax-ns#"
   xmlns:svg="http://www.w3.org/2000/svg"
   xmlns="http://www.w3.org/2000/svg"
   xmlns:sodipodi="http://sodipodi.sourceforge.net/DTD/sodipodi-0.dtd"
   xmlns:inkscape="http://www.inkscape.org/namespaces/inkscape"
   width="61mm"
   height="61mm"
   viewBox="0 0 61 61"
   version="1.1"
   id="svg2000"
   inkscape:version="0.92.2 (5c3e80d, 2017-08-06)"
   sodipodi:docname="88.svg">
  <defs
     id="defs1994" />
  <sodipodi:namedview
     id="base"
     pagecolor="#ffffff"
     bordercolor="#666666"
     borderopacity="1.0"
     inkscape:pageopacity="0.0"
     inkscape:pageshadow="2"
     inkscape:zoom="2.8"
     inkscape:cx="106.55753"
     inkscape:cy="119.92381"
     inkscape:document-units="mm"
     inkscape:current-layer="layer1"
     showgrid="false"
     inkscape:window-width="1920"
     inkscape:window-height="1057"
     inkscape:window-x="-8"
     inkscape:window-y="-8"
     inkscape:window-maximized="1"
     fit-margin-top="0"
     fit-margin-left="0"
     fit-margin-right="0"
     fit-margin-bottom="0" />
  <metadata
     id="metadata1997">
    <rdf:RDF>
      <cc:Work
         rdf:about="">
        <dc:format>image/svg+xml</dc:format>
        <dc:type
           rdf:resource="http://purl.org/dc/dcmitype/StillImage" />
        <dc:title></dc:title>
      </cc:Work>
    </rdf:RDF>
  </metadata>
  <g
     inkscape:label="Layer 1"
     inkscape:groupmode="layer"
     id="layer1"
     transform="translate(-24.5,-236)">
    <circle
       r="29.5"
       cy="266.5"
       cx="54.999985"
       id="circle1748"
       style="opacity:1;fill:#fad20a;fill-opacity:1;fill-rule:nonzero;stroke:none;stroke-width:0.18104073;stroke-linecap:square;stroke-linejoin:round;stroke-miterlimit:4;stroke-dasharray:none;stroke-opacity:1;paint-order:stroke fill markers" />
    <path
       inkscape:connector-curvature="0"
       id="path955"
       style="font-style:normal;font-variant:normal;font-weight:normal;font-stretch:normal;font-size:34.54790878px;line-height:1.25;font-family:'DIN 1451 Mittelschrift';-inkscape-font-specification:'DIN 1451 Mittelschrift';letter-spacing:0px;word-spacing:0px;fill:#969696;fill-opacity:1;stroke:none;stroke-width:0.86369771;stroke-opacity:1"
       d="m 40.45547,267.51213 v -13.29284 h 13.09041 v 3.52564 h -9.7672 v 5.54993 q 1.68691,-1.34953 3.9305,-1.34953 1.40013,0 2.54723,0.53981 1.16397,0.53981 1.83873,1.26519 1.01215,1.09649 1.46761,2.39541 0.47234,1.28205 0.47234,4.33536 0,2.47975 -0.37112,3.69432 -0.35425,1.1977 -1.1471,2.20986 -0.75911,0.96154 -2.12551,1.78812 -1.36639,0.82659 -3.20513,0.82659 -2.37854,0 -4.58839,-1.46761 Q 40.38799,276.06477 40,272.62347 h 3.52564 q 0.62416,2.86775 3.52564,2.86775 2.58097,0 3.01957,-1.77126 0.4386,-1.77125 0.4386,-3.50877 0,-2.04116 -0.69164,-3.39069 -0.69163,-1.34953 -2.86774,-1.34953 -2.04116,0 -3.17139,2.04116 z" />
    <path
       inkscape:connector-curvature="0"
       id="path957"
       d="m 63.61607,253.99996 c -3.86914,0 -6.98407,2.89938 -6.98407,6.50038 v 11.99979 c 0,3.601 3.11493,6.49986 6.98407,6.49986 3.86914,0 6.984069,-2.89886 6.984069,-6.49986 v -11.99979 c 0,-3.601 -3.114929,-6.50038 -6.984069,-6.50038 z m 0,3.50005 c 1.93014,0 3.484021,1.33833 3.484021,3.00033 v 11.99979 c 0,1.66199 -1.553881,2.99981 -3.484021,2.99981 -1.93014,0 -3.48403,-1.33781 -3.48403,-2.99981 v -11.99979 c 0,-1.662 1.55389,-3.00033 3.48403,-3.00033 z"
       style="font-style:normal;font-variant:normal;font-weight:normal;font-stretch:normal;font-size:34.54790878px;line-height:1.25;font-family:'DIN 1451 Mittelschrift';-inkscape-font-specification:'DIN 1451 Mittelschrift';letter-spacing:0px;word-spacing:0px;opacity:1;fill:#969696;fill-opacity:1;fill-rule:nonzero;stroke:none;stroke-width:1.8268044;stroke-linecap:square;stroke-linejoin:round;stroke-miterlimit:4;stroke-dasharray:none;stroke-opacity:1;paint-order:stroke fill markers" />
    <path
       sodipodi:nodetypes="ccccc"
       inkscape:connector-curvature="0"
       id="path868"
       d="m 71.758384,241.96345 0.989949,0.98994 -41.295029,41.29503 -0.989956,-0.98994 z"
       style="opacity:1;fill:#969696;fill-opacity:1;fill-rule:nonzero;stroke:none;stroke-width:0.03775745;stroke-linecap:square;stroke-linejoin:round;stroke-miterlimit:4;stroke-dasharray:none;stroke-opacity:1;paint-order:stroke fill markers" />
    <path
       style="opacity:1;fill:#969696;fill-opacity:1;fill-rule:nonzero;stroke:none;stroke-width:0.03775745;stroke-linecap:square;stroke-linejoin:round;stroke-miterlimit:4;stroke-dasharray:none;stroke-opacity:1;paint-order:stroke fill markers"
       d="m 73.45544,243.6605 0.989952,0.98995 -41.295032,41.29503 -0.989956,-0.98994 z"
       id="path870"
       inkscape:connector-curvature="0"
       sodipodi:nodetypes="ccccc" />
    <path
       sodipodi:nodetypes="ccccc"
       inkscape:connector-curvature="0"
       id="path872"
       d="m 75.152496,245.35756 0.989946,0.98995 -41.295026,41.29503 -0.989956,-0.98995 z"
       style="opacity:1;fill:#969696;fill-opacity:1;fill-rule:nonzero;stroke:none;stroke-width:0.03775745;stroke-linecap:square;stroke-linejoin:round;stroke-miterlimit:4;stroke-dasharray:none;stroke-opacity:1;paint-order:stroke fill markers" />
    <path
       style="opacity:1;fill:#969696;fill-opacity:1;fill-rule:nonzero;stroke:none;stroke-width:0.03775745;stroke-linecap:square;stroke-linejoin:round;stroke-miterlimit:4;stroke-dasharray:none;stroke-opacity:1;paint-order:stroke fill markers"
       d="m 76.849554,247.05461 0.98995,0.98995 -41.295032,41.29503 -0.989955,-0.98994 z"
       id="path874"
       inkscape:connector-curvature="0"
       sodipodi:nodetypes="ccccc" />
    <path
       sodipodi:nodetypes="ccccc"
       inkscape:connector-curvature="0"
       id="path876"
       d="m 78.546613,248.75167 0.989952,0.98995 -41.295036,41.29503 -0.989956,-0.98994 z"
       style="opacity:1;fill:#969696;fill-opacity:1;fill-rule:nonzero;stroke:none;stroke-width:0.03775745;stroke-linecap:square;stroke-linejoin:round;stroke-miterlimit:4;stroke-dasharray:none;stroke-opacity:1;paint-order:stroke fill markers" />
    <path
       inkscape:connector-curvature="0"
       style="opacity:1;fill:#000000;fill-opacity:1;fill-rule:nonzero;stroke:none;stroke-width:0.1841092;stroke-linecap:square;stroke-linejoin:round;stroke-miterlimit:4;stroke-dasharray:none;stroke-opacity:1;paint-order:stroke fill markers"
       d="M 55.000236,236.50005 A 30.000001,30.000001 0 0 0 25,266.50029 30.000001,30.000001 0 0 0 55.000236,296.5 30.000001,30.000001 0 0 0 84.999954,266.50029 30.000001,30.000001 0 0 0 55.000236,236.50005 Z m 0,0.99994 a 29,29 0 0 1 28.999778,29.0003 29,29 0 0 1 -28.999778,28.99978 29,29 0 0 1 -29.000297,-28.99978 29,29 0 0 1 29.000297,-29.0003 z"
       id="path900" />
  </g>
</svg>
