<?xml version="1.0" encoding="UTF-8" standalone="no"?>
<!-- Created with Inkscape (http://www.inkscape.org/) -->

<svg
   xmlns:dc="http://purl.org/dc/elements/1.1/"
   xmlns:cc="http://creativecommons.org/ns#"
   xmlns:rdf="http://www.w3.org/1999/02/22-rdf-syntax-ns#"
   xmlns:svg="http://www.w3.org/2000/svg"
   xmlns="http://www.w3.org/2000/svg"
   xmlns:sodipodi="http://sodipodi.sourceforge.net/DTD/sodipodi-0.dtd"
   xmlns:inkscape="http://www.inkscape.org/namespaces/inkscape"
   width="61.400002mm"
   height="81.400002mm"
   viewBox="0 0 61.400002 81.400002"
   version="1.1"
   id="svg825"
   inkscape:version="0.92.2 (5c3e80d, 2017-08-06)"
   sodipodi:docname="33.svg">
  <defs
     id="defs819" />
  <sodipodi:namedview
     id="base"
     pagecolor="#ffffff"
     bordercolor="#666666"
     borderopacity="1.0"
     inkscape:pageopacity="0.0"
     inkscape:pageshadow="2"
     inkscape:zoom="1.8377736"
     inkscape:cx="176.95509"
     inkscape:cy="151.22833"
     inkscape:document-units="mm"
     inkscape:current-layer="layer1"
     showgrid="false"
     fit-margin-top="0"
     fit-margin-left="0"
     fit-margin-right="0"
     fit-margin-bottom="0"
     showborder="true"
     inkscape:window-width="1920"
     inkscape:window-height="1057"
     inkscape:window-x="-8"
     inkscape:window-y="-8"
     inkscape:window-maximized="1" />
  <metadata
     id="metadata822">
    <rdf:RDF>
      <cc:Work
         rdf:about="">
        <dc:format>image/svg+xml</dc:format>
        <dc:type
           rdf:resource="http://purl.org/dc/dcmitype/StillImage" />
        <dc:title></dc:title>
      </cc:Work>
    </rdf:RDF>
  </metadata>
  <g
     inkscape:label="Layer 1"
     inkscape:groupmode="layer"
     id="layer1"
     transform="translate(74.465299,-309.30534)">
    <rect
       style="opacity:1;fill:#000000;fill-opacity:1;fill-rule:nonzero;stroke:none;stroke-width:0.57753444;stroke-linecap:square;stroke-linejoin:round;stroke-miterlimit:4;stroke-dasharray:none;stroke-opacity:1;paint-order:stroke fill markers"
       id="rect1373"
       width="60.400002"
       height="80.400002"
       x="-73.965302"
       y="309.80533"
       rx="3.8"
       ry="3.8" />
    <rect
       style="opacity:1;fill:#003c82;fill-opacity:1;fill-rule:nonzero;stroke:none;stroke-width:0.55743307;stroke-linecap:square;stroke-linejoin:round;stroke-miterlimit:4;stroke-dasharray:none;stroke-opacity:1;paint-order:stroke fill markers"
       id="rect1385"
       width="58"
       height="78"
       x="-72.76532"
       y="311.00534"
       rx="2.5999999"
       ry="2.5999999" />
    <rect
       style="opacity:1;fill:#ffffff;fill-opacity:1;fill-rule:nonzero;stroke:none;stroke-width:1.61157942;stroke-linecap:square;stroke-linejoin:round;stroke-miterlimit:4;stroke-dasharray:none;stroke-opacity:1;paint-order:stroke fill markers"
       id="rect860"
       width="44"
       height="44"
       x="-65.765289"
       y="320.00534" />
    <path
       style="fill:#000000;fill-rule:nonzero;stroke:none;stroke-width:0.24282052"
       d="m -40.517791,326.40543 -0.101248,0.639 h 8.865 l 5.988755,10.16458 2e-6,20.39642 h -18.000005 -17.999992 l -6e-6,-20.39642 5.988748,-10.16458 h 8.864998 l -0.101235,-0.639 z"
       id="path12"
       inkscape:connector-curvature="0"
       sodipodi:nodetypes="cccccccccccc" />
    <path
       style="fill:#ffffff;fill-opacity:1;fill-rule:nonzero;stroke:none;stroke-width:0.24282052"
       d="m -41.159143,330.47799 c 5.485325,1.19984 9.57834,6.04543 9.573689,11.848 l 10e-7,14.63951 h -1.893732 l -10e-7,-14.63951 c -0.0028,-5.63991 -4.608707,-10.20707 -10.286184,-10.19813 -5.677474,-0.009 -10.283756,4.55822 -10.286186,10.19813 l 4e-6,14.63951 -1.893717,-1e-5 -10e-7,-14.6395 c -0.005,-5.80257 4.088369,-10.64815 9.573669,-11.848 l 0.135005,0.64089 c 0.796736,-0.19185 1.593797,-0.28775 2.471223,-0.27094 0.877427,-0.017 1.674488,0.079 2.47123,0.27094 z"
       id="path32"
       inkscape:connector-curvature="0"
       sodipodi:nodetypes="ccccccccccccccc" />
    <path
       style="fill:#ffffff;fill-opacity:1;fill-rule:nonzero;stroke:none;stroke-width:0.24282052"
       d="m -41.359659,327.04437 -0.50625,3.33342 c -0.61394,-0.10894 -1.244539,-0.16033 -1.899377,-0.16632 -0.654843,0.007 -1.285439,0.0573 -1.899373,0.16631 l -0.506238,-3.3334 z"
       id="path3923"
       inkscape:connector-curvature="0"
       sodipodi:nodetypes="cccccc" />
    <path
       style="fill:#ffffff;fill-opacity:1;fill-rule:nonzero;stroke:none;stroke-width:0.24282052"
       id="path3980"
       d="m -56.251049,339.4651 c -0.210612,0.91013 -0.365409,1.869 -0.372169,2.86085 h -4.533856 l -5e-6,-4.27439 4.906028,1.41357"
       inkscape:connector-curvature="0"
       sodipodi:nodetypes="ccccc" />
    <path
       style="fill:#ffffff;fill-opacity:1;fill-rule:nonzero;stroke:none;stroke-width:0.24282052"
       id="path3982-1"
       d="m -56.081592,338.82469 c 0.287886,-1.01586 0.697274,-1.96856 1.218041,-2.86085 l -4.026302,-2.356 -2.233094,3.76953 5.041415,1.44724"
       inkscape:connector-curvature="0"
       sodipodi:nodetypes="ccccc" />
    <path
       style="fill:#ffffff;fill-opacity:1;fill-rule:nonzero;stroke:none;stroke-width:0.24282052"
       id="path3984"
       d="m -54.524538,335.39163 c 0.669614,-1.01032 1.475746,-1.92715 2.402279,-2.72623 l -3.586522,-4.47637 -2.875941,4.81283 4.06019,2.38961"
       inkscape:connector-curvature="0"
       sodipodi:nodetypes="ccccc" />
    <path
       style="fill:#ffffff;fill-opacity:1;fill-rule:nonzero;stroke:none;stroke-width:0.24282052"
       id="path3986"
       d="m -51.61502,332.26282 c 0.599135,-0.46781 1.254115,-0.88655 1.96246,-1.24529 l -1.759448,-3.36568 h -3.82327 l 3.620254,4.61099"
       inkscape:connector-curvature="0"
       sodipodi:nodetypes="ccccc" />
    <path
       style="fill:#ffffff;fill-opacity:1;fill-rule:nonzero;stroke:none;stroke-width:0.24282052"
       id="path3988"
       d="m -49.078026,330.74782 c 0.825569,-0.39043 1.701576,-0.68098 2.605282,-0.87509 l -0.338342,-2.22137 h -3.857156 l 1.590216,3.09646"
       inkscape:connector-curvature="0"
       sodipodi:nodetypes="ccccc" />
    <path
       style="fill:#ffffff;fill-opacity:1;fill-rule:nonzero;stroke:none;stroke-width:0.24282052"
       id="path3990-7"
       d="m -61.157207,345.99352 h 4.533845 l 7e-6,-3.02907 h -4.533856 z"
       inkscape:connector-curvature="0"
       sodipodi:nodetypes="ccccc" />
    <path
       style="fill:#ffffff;fill-opacity:1;fill-rule:nonzero;stroke:none;stroke-width:0.24282052"
       id="path3992"
       d="m -61.157213,349.66237 h 4.533855 l -3e-6,-3.02906 -4.533849,-10e-6 z"
       inkscape:connector-curvature="0"
       sodipodi:nodetypes="ccccc" />
    <path
       style="fill:#ffffff;fill-opacity:1;fill-rule:nonzero;stroke:none;stroke-width:0.24282052"
       id="path3994"
       d="m -61.157208,353.29728 h 4.533846 v -3.02908 l -4.533848,-10e-6 z"
       inkscape:connector-curvature="0"
       sodipodi:nodetypes="ccccc" />
    <path
       style="fill:#ffffff;fill-opacity:1;fill-rule:nonzero;stroke:none;stroke-width:0.24282052"
       id="path3996"
       d="m -61.157209,356.96597 4.533853,-1e-5 -4e-6,-3.02905 h -4.533852 z"
       inkscape:connector-curvature="0"
       sodipodi:nodetypes="ccccc" />
    <path
       sodipodi:nodetypes="ccccc"
       inkscape:connector-curvature="0"
       d="m -31.279519,339.4651 c 0.210619,0.91013 0.365409,1.869 0.372172,2.86085 h 4.533859 l 10e-7,-4.27438 -4.90602,1.41357"
       id="path3085"
       style="fill:#ffffff;fill-opacity:1;fill-rule:nonzero;stroke:none;stroke-width:0.24282052" />
    <path
       sodipodi:nodetypes="ccccc"
       inkscape:connector-curvature="0"
       d="m -31.448972,338.82469 c -0.287878,-1.01586 -0.697274,-1.96856 -1.218036,-2.86085 l 4.026301,-2.35599 2.233103,3.76953 -5.041425,1.44723"
       id="path3087"
       style="fill:#ffffff;fill-opacity:1;fill-rule:nonzero;stroke:none;stroke-width:0.24282052" />
    <path
       sodipodi:nodetypes="ccccc"
       inkscape:connector-curvature="0"
       d="m -33.006028,335.39162 c -0.66965,-1.01027 -1.475762,-1.92713 -2.402274,-2.72622 l 3.58652,-4.47637 2.875938,4.81282 -4.060189,2.38962"
       id="path3089"
       style="fill:#ffffff;fill-opacity:1;fill-rule:nonzero;stroke:none;stroke-width:0.24282052" />
    <path
       sodipodi:nodetypes="ccccc"
       inkscape:connector-curvature="0"
       d="m -35.915535,332.26282 c -0.599127,-0.46784 -1.25411,-0.88658 -1.962465,-1.24529 l 1.759445,-3.36568 h 3.823276 l -3.620252,4.61099"
       id="path3091"
       style="fill:#ffffff;fill-opacity:1;fill-rule:nonzero;stroke:none;stroke-width:0.24282052" />
    <path
       sodipodi:nodetypes="ccccc"
       inkscape:connector-curvature="0"
       d="m -38.452549,330.74782 c -0.825561,-0.39042 -1.70158,-0.68098 -2.605281,-0.87509 l 0.338344,-2.22137 h 3.857161 l -1.590211,3.09646"
       id="path3093"
       style="fill:#ffffff;fill-opacity:1;fill-rule:nonzero;stroke:none;stroke-width:0.24282052" />
    <path
       sodipodi:nodetypes="ccccc"
       inkscape:connector-curvature="0"
       d="m -26.373352,345.99352 h -4.533854 l 5e-6,-3.02907 4.533853,-10e-6 z"
       id="path3095"
       style="fill:#ffffff;fill-opacity:1;fill-rule:nonzero;stroke:none;stroke-width:0.24282052" />
    <path
       sodipodi:nodetypes="ccccc"
       inkscape:connector-curvature="0"
       d="m -26.373348,349.66237 h -4.533855 l -2e-6,-3.02906 h 4.533854 z"
       id="path3097"
       style="fill:#ffffff;fill-opacity:1;fill-rule:nonzero;stroke:none;stroke-width:0.24282052" />
    <path
       sodipodi:nodetypes="ccccc"
       inkscape:connector-curvature="0"
       d="m -26.373352,353.29728 h -4.533853 l -10e-7,-3.02908 h 4.533854 z"
       id="path3099"
       style="fill:#ffffff;fill-opacity:1;fill-rule:nonzero;stroke:none;stroke-width:0.24282052" />
    <path
       sodipodi:nodetypes="ccccc"
       inkscape:connector-curvature="0"
       d="m -26.373353,356.96597 -4.533848,-1e-5 -3e-6,-3.02905 h 4.533854 z"
       id="path3102"
       style="fill:#ffffff;fill-opacity:1;fill-rule:nonzero;stroke:none;stroke-width:0.24282052" />
    <path
       style="opacity:1;fill:#dc0a14;fill-opacity:1;fill-rule:nonzero;stroke:none;stroke-width:1.24047875;stroke-linecap:square;stroke-linejoin:round;stroke-miterlimit:4;stroke-dasharray:none;stroke-opacity:1;paint-order:stroke fill markers"
       d="m -19.317164,310.74148 4.279998,0.96 0.199982,6.40002 -53.376094,71.16786 -4.280024,-0.95998 -0.199961,-6.40003 z"
       id="rect2113"
       inkscape:connector-curvature="0"
       sodipodi:nodetypes="ccccccc" />
    <path
       style="opacity:1;fill:#ffffff;fill-opacity:1;fill-rule:nonzero;stroke:none;stroke-width:0.57418531;stroke-linecap:square;stroke-linejoin:round;stroke-miterlimit:4;stroke-dasharray:none;stroke-opacity:1;paint-order:stroke fill markers"
       d="m -70.165495,310.00531 c -1.994406,10e-6 -3.599777,1.6059 -3.599787,3.6003 v 72.79969 c 0,1.9944 1.605382,3.6003 3.59978,3.6003 h 52.8004 c 1.994398,0 3.599778,-1.6059 3.599775,-3.6003 l 2e-6,-72.79969 c 2e-6,-1.9944 -1.60538,-3.6003 -3.599779,-3.6003 z m -7e-6,1.50017 h 52.8004 c 1.163398,0 2.099607,0.93673 2.099613,2.10013 l -3e-6,72.79969 c -10e-7,1.1634 -0.936212,2.10013 -2.099611,2.10013 h -52.800394 c -1.163405,0 -2.099614,-0.93673 -2.099614,-2.10013 l 3e-6,-72.79968 c 2e-6,-1.1634 0.936214,-2.10013 2.099606,-2.10014 z"
       id="path2116"
       inkscape:connector-curvature="0" />
  </g>
</svg>
