<?xml version="1.0" encoding="UTF-8" standalone="no"?>
<!-- Created with Inkscape (http://www.inkscape.org/) -->

<svg
   xmlns:dc="http://purl.org/dc/elements/1.1/"
   xmlns:cc="http://creativecommons.org/ns#"
   xmlns:rdf="http://www.w3.org/1999/02/22-rdf-syntax-ns#"
   xmlns:svg="http://www.w3.org/2000/svg"
   xmlns="http://www.w3.org/2000/svg"
   xmlns:sodipodi="http://sodipodi.sourceforge.net/DTD/sodipodi-0.dtd"
   xmlns:inkscape="http://www.inkscape.org/namespaces/inkscape"
   width="61mm"
   height="61mm"
   viewBox="0 0 61 61"
   version="1.1"
   id="svg825"
   inkscape:version="0.92.2 (5c3e80d, 2017-08-06)"
   sodipodi:docname="33.svg">
  <defs
     id="defs819" />
  <sodipodi:namedview
     id="base"
     pagecolor="#ffffff"
     bordercolor="#666666"
     borderopacity="1.0"
     inkscape:pageopacity="0.0"
     inkscape:pageshadow="2"
     inkscape:zoom="2.2892582"
     inkscape:cx="91.832958"
     inkscape:cy="86.06635"
     inkscape:document-units="mm"
     inkscape:current-layer="layer1"
     showgrid="false"
     fit-margin-top="0"
     fit-margin-left="0"
     fit-margin-right="0"
     fit-margin-bottom="0"
     showborder="true"
     inkscape:window-width="1920"
     inkscape:window-height="1057"
     inkscape:window-x="-8"
     inkscape:window-y="-8"
     inkscape:window-maximized="1" />
  <metadata
     id="metadata822">
    <rdf:RDF>
      <cc:Work
         rdf:about="">
        <dc:format>image/svg+xml</dc:format>
        <dc:type
           rdf:resource="http://purl.org/dc/dcmitype/StillImage" />
        <dc:title></dc:title>
      </cc:Work>
    </rdf:RDF>
  </metadata>
  <g
     inkscape:label="Layer 1"
     inkscape:groupmode="layer"
     id="layer1"
     transform="translate(232.83333,-324.44641)">
    <rect
       y="324.94641"
       x="-232.33333"
       height="60"
       width="60"
       id="rect1375"
       style="opacity:1;fill:#e6f5aa;fill-opacity:1;fill-rule:nonzero;stroke:none;stroke-width:0.49725902;stroke-linecap:square;stroke-linejoin:round;stroke-miterlimit:4;stroke-dasharray:none;stroke-opacity:1;paint-order:stroke fill markers"
       rx="3.5999999"
       ry="3.5999999" />
    <rect
       style="opacity:1;fill:#006e3c;fill-opacity:1;fill-rule:nonzero;stroke:none;stroke-width:0.47239608;stroke-linecap:square;stroke-linejoin:round;stroke-miterlimit:4;stroke-dasharray:none;stroke-opacity:1;paint-order:stroke fill markers"
       id="rect1385"
       width="57"
       height="57"
       x="-230.83333"
       y="326.44641"
       rx="2.0999999"
       ry="2.0999999" />
    <path
       d="m -228.3333,379.94641 h 16 v -50 h -16 z"
       style="fill:#e6f5aa;fill-opacity:1;fill-rule:nonzero;stroke:none;stroke-width:0.07513914"
       id="path934"
       inkscape:connector-curvature="0" />
    <path
       id="path3833"
       d="m -188.1046,368.86006 c -1.14773,-0.10658 -2.11067,-0.9104 -2.42111,-2.02092 l -1.74758,-6.49273 -3.92,6.84 -2.16391,10.12015 c -0.48051,1.27846 -1.88847,1.94406 -3.18099,1.50466 -1.29255,-0.43966 -2.00276,-1.82609 -1.60519,-3.13256 l 2.56037,-10.68225 4.88972,-9.6 -3.07,-5.73 -4.10655,4.4235 c -0.44443,0.47878 -1.07696,0.73777 -1.72976,0.70749 l -4.03727,-0.18596 c -1.0558,-0.15569 -1.85151,-1.0414 -1.89457,-2.10806 -0.0433,-1.06668 0.67784,-2.01372 1.71767,-2.25471 l 3.27453,0.38754 c 0.2741,0.0325 0.54598,-0.075 0.7238,-0.28644 l 5.98134,-7.11141 c 0.15591,-0.18515 0.38535,-0.29195 0.62753,-0.29195 h 13.90996 c 0.14202,0 0.27297,0.0764 0.3429,0.20004 l 4.21997,7.47562 c -0.006,0.97728 -0.58759,1.8591 -1.48369,2.24824 -0.89552,0.3894 -1.93674,0.21316 -2.65472,-0.44937 l -2.51114,-5.12453 -4.11,0.10019 0.74,1.42981 2.15,5.19 0.62,3.27 0.87,7.42 7.69511,0.29334 c 1.19265,0.0804 2.11122,1.08552 2.08431,2.28126 -0.0269,1.19601 -0.98875,2.15861 -2.18392,2.18581 z"
       style="fill:#e6f5aa;fill-opacity:1;fill-rule:nonzero;stroke:none;stroke-width:0.12585589"
       inkscape:connector-curvature="0"
       sodipodi:nodetypes="ccccccccccccccccccsscccccccccccccc" />
    <circle
       style="opacity:1;fill:#e6f5aa;fill-opacity:1;fill-rule:nonzero;stroke:none;stroke-width:1.87452245;stroke-linecap:square;stroke-linejoin:round;stroke-miterlimit:4;stroke-dasharray:none;stroke-opacity:1;paint-order:stroke fill markers"
       id="path1700"
       cx="-198.63332"
       cy="338.64645"
       r="3.7" />
  </g>
</svg>
