<?xml version="1.0" encoding="UTF-8" standalone="no"?>
<!-- Created with Inkscape (http://www.inkscape.org/) -->

<svg
   xmlns:dc="http://purl.org/dc/elements/1.1/"
   xmlns:cc="http://creativecommons.org/ns#"
   xmlns:rdf="http://www.w3.org/1999/02/22-rdf-syntax-ns#"
   xmlns:svg="http://www.w3.org/2000/svg"
   xmlns="http://www.w3.org/2000/svg"
   xmlns:sodipodi="http://sodipodi.sourceforge.net/DTD/sodipodi-0.dtd"
   xmlns:inkscape="http://www.inkscape.org/namespaces/inkscape"
   width="91mm"
   height="80.537003mm"
   viewBox="0 0 91.000001 80.537006"
   version="1.1"
   id="svg863"
   inkscape:version="0.92.2 (5c3e80d, 2017-08-06)"
   sodipodi:docname="22.svg">
  <defs
     id="defs857" />
  <sodipodi:namedview
     id="base"
     pagecolor="#ffffff"
     bordercolor="#666666"
     borderopacity="1.0"
     inkscape:pageopacity="0.0"
     inkscape:pageshadow="2"
     inkscape:zoom="1.4"
     inkscape:cx="123.45677"
     inkscape:cy="139.17798"
     inkscape:document-units="mm"
     inkscape:current-layer="layer1"
     showgrid="false"
     inkscape:window-width="1920"
     inkscape:window-height="1057"
     inkscape:window-x="-8"
     inkscape:window-y="-8"
     inkscape:window-maximized="1"
     fit-margin-top="0"
     fit-margin-left="0"
     fit-margin-right="0"
     fit-margin-bottom="0" />
  <metadata
     id="metadata860">
    <rdf:RDF>
      <cc:Work
         rdf:about="">
        <dc:format>image/svg+xml</dc:format>
        <dc:type
           rdf:resource="http://purl.org/dc/dcmitype/StillImage" />
        <dc:title></dc:title>
      </cc:Work>
    </rdf:RDF>
  </metadata>
  <g
     inkscape:label="Layer 1"
     inkscape:groupmode="layer"
     id="layer1"
     transform="translate(-53.939998,-192.76299)">
    <path
       inkscape:connector-curvature="0"
       id="path814"
       d="M 138.49041,266.84995 99.439939,199.2126 60.389599,266.8499 Z"
       inkscape:transform-center-y="4.393997"
       inkscape:transform-center-x="27.135595"
       style="opacity:1;fill:none;fill-opacity:1;stroke:#dc0a14;stroke-width:11.9000721;stroke-linecap:butt;stroke-linejoin:round;stroke-miterlimit:4;stroke-dasharray:none;stroke-dashoffset:0;stroke-opacity:1"
       sodipodi:nodetypes="cccc" />
    <path
       sodipodi:nodetypes="cccc"
       inkscape:connector-curvature="0"
       id="path818"
       d="M 135.11302,264.89997 99.439987,203.11246 63.766949,264.89993 Z"
       style="opacity:1;fill:#ffffff;fill-opacity:1;stroke:none;stroke-width:11.93114281;stroke-linecap:butt;stroke-linejoin:round;stroke-miterlimit:4;stroke-dasharray:none;stroke-dashoffset:0;stroke-opacity:1" />
    <path
       sodipodi:nodetypes="ccccc"
       inkscape:connector-curvature="0"
       id="path888"
       d="M 126.84,261.79983 H 72.039998 v -1.2 H 126.84 Z"
       style="opacity:1;fill:#003c82;fill-opacity:1;fill-rule:nonzero;stroke:none;stroke-width:0.42573023;stroke-linecap:square;stroke-linejoin:round;stroke-miterlimit:22.9260006;stroke-dasharray:none;stroke-opacity:1;paint-order:stroke fill markers" />
    <path
       id="path962"
       d="m 93.507288,244.62043 c 0.10145,-0.26402 3.58109,-7.50757 3.66891,-8.12414 0.0878,-0.60307 -0.6418,-5.67139 -0.75668,-5.77981 -0.12159,-0.12193 -5.39809,3.90287 -5.6143,3.91641 -0.22308,0 -0.45252,-0.27092 -0.57424,-0.26405 -0.0946,0.006 -0.70265,0.60302 -1.00667,0.7453 -0.10145,0.054 -0.2162,0.088 -0.34465,0.0947 -0.47311,0.0196 -0.87827,-0.41352 -0.89856,-0.95538 -0.0147,-0.3186 0.12157,-0.64372 0.24315,-0.77924 0.12847,-0.13571 0.32408,-0.31173 0.47949,-0.35253 0.15541,-0.0493 0.3579,-0.054 0.47311,-0.12196 0.10147,-0.054 0.0946,-0.52852 0.0946,-0.52852 0,0 4.60087,-3.30659 4.81036,-3.51664 0.21621,-0.20996 1.94574,-4.85151 2.27004,-5.19029 0.31769,-0.3319 1.66196,-1.64652 1.66196,-1.64652 l 0.0197,-0.56919 c 0,0 -1.20259,-0.38649 -1.29039,-0.5827 -0.0809,-0.20307 -0.7702,-2.60192 -0.7702,-2.60192 l -1.35123,-0.41992 -0.054,-0.40665 1.66871,-0.75887 0.0344,-0.96891 c 0,0 1.31745,-0.68438 2.21602,-0.60306 0.891786,0.088 1.776812,0.51495 1.790362,0.7521 0.005,0.24389 0.0345,1.07736 0.0345,1.07736 l 1.84438,0.76568 -0.0198,0.39975 -1.73633,1.00962 0.18924,2.71029 c 0,0 3.34426,1.53812 3.54017,1.76849 0.18925,0.23701 4.20553,4.8583 4.33393,5.10218 0.11474,0.2306 1.22958,6.36928 1.10795,6.36928 -0.10149,0.006 -0.5337,0.39287 -0.5337,0.39287 0,0 0.16228,1.28065 -0.14854,1.73462 -0.0147,0.0245 -0.0344,0.0394 -0.049,0.054 -0.15543,0.28471 -0.43243,0.48087 -0.77021,0.49465 -0.51346,0.0196 -0.95936,-0.41991 -0.97965,-0.98931 0,-0.12881 0.0147,-0.25076 0.0489,-0.36584 l 0.0607,-0.49463 -0.37848,-0.34566 c 0,0 -0.68913,-4.93958 -0.84449,-5.05474 -0.15543,-0.10816 -3.05703,-2.7781 -3.05703,-2.7781 l 1.09447,8.93735 c 0.0197,0.48087 -0.27013,0.89436 -0.67558,1.02311 l 5.05619,16.30262 c 0.12845,0.33189 0.0147,0.71823 -0.28386,0.88083 l -4.33064,2.19541 c -0.24316,0.12882 -0.53375,0.006 -0.65534,-0.26406 -0.11472,-0.26405 0.34467,-0.87405 0.25004,-0.7521 0.0607,-0.088 0.26327,-0.35895 0.52023,-0.75211 0.3579,-0.54885 0.2363,-0.99603 -0.0745,-1.69395 0,0 -3.64419,-11.80346 -3.79959,-11.80346 -0.155424,0 -2.925772,5.07509 -3.081122,5.24446 l -0.0147,0.0146 -3.0538,8.55787 c -0.12844,0.33878 -0.37848,0.58948 -0.70259,0.53531 l -4.68871,-0.96219 c -0.27701,-0.054 -0.45252,-0.33189 -0.40544,-0.63017 0.0489,-0.29158 0.27012,-0.35253 0.5743,-0.44056 0.30396,-0.088 0.40544,-0.12193 1.12147,-0.29796 0.68235,-0.0948 1.03368,-0.54885 1.19587,-1.179 0,0 2.43217,-7.84636 2.54026,-8.10388"
       style="fill:#003c82;fill-opacity:1;fill-rule:nonzero;stroke:none;stroke-width:0.03122282"
       inkscape:connector-curvature="0"
       sodipodi:nodetypes="cccccccccccccccccccccccccccccccccccccccccccccccccccscccccccccc" />
    <path
       sodipodi:nodetypes="ccccc"
       inkscape:connector-curvature="0"
       id="path843"
       d="m 90.999998,249.59997 h -13.85 v -1.2 h 13.85 z"
       style="opacity:1;fill:#003c82;fill-opacity:1;fill-rule:nonzero;stroke:none;stroke-width:0.42573023;stroke-linecap:square;stroke-linejoin:round;stroke-miterlimit:22.9260006;stroke-dasharray:none;stroke-opacity:1;paint-order:stroke fill markers" />
    <path
       sodipodi:nodetypes="ccccc"
       inkscape:connector-curvature="0"
       id="path855"
       d="m 121.72,249.59997 h -13.84 v -1.2 h 13.84 z"
       style="opacity:1;fill:#003c82;fill-opacity:1;fill-rule:nonzero;stroke:none;stroke-width:0.42573023;stroke-linecap:square;stroke-linejoin:round;stroke-miterlimit:22.9260006;stroke-dasharray:none;stroke-opacity:1;paint-order:stroke fill markers" />
    <path
       sodipodi:nodetypes="ccccc"
       inkscape:connector-curvature="0"
       id="path847"
       d="m 101.24,249.59998 h -3.600002 v -1.2 H 101.24 Z"
       style="opacity:1;fill:#003c82;fill-opacity:1;fill-rule:nonzero;stroke:none;stroke-width:0.42573023;stroke-linecap:square;stroke-linejoin:round;stroke-miterlimit:22.9260006;stroke-dasharray:none;stroke-opacity:1;paint-order:stroke fill markers" />
  </g>
</svg>
