<?xml version="1.0" encoding="UTF-8" standalone="no"?>
<!-- Created with Inkscape (http://www.inkscape.org/) -->

<svg
   xmlns:dc="http://purl.org/dc/elements/1.1/"
   xmlns:cc="http://creativecommons.org/ns#"
   xmlns:rdf="http://www.w3.org/1999/02/22-rdf-syntax-ns#"
   xmlns:svg="http://www.w3.org/2000/svg"
   xmlns="http://www.w3.org/2000/svg"
   xmlns:sodipodi="http://sodipodi.sourceforge.net/DTD/sodipodi-0.dtd"
   xmlns:inkscape="http://www.inkscape.org/namespaces/inkscape"
   width="91mm"
   height="80.537003mm"
   viewBox="0 0 91 80.537003"
   version="1.1"
   id="svg863"
   inkscape:version="0.92.2 (5c3e80d, 2017-08-06)"
   sodipodi:docname="97.svg">
  <defs
     id="defs857" />
  <sodipodi:namedview
     id="base"
     pagecolor="#ffffff"
     bordercolor="#666666"
     borderopacity="1.0"
     inkscape:pageopacity="0.0"
     inkscape:pageshadow="2"
     inkscape:zoom="1.4142136"
     inkscape:cx="202.6275"
     inkscape:cy="89.032309"
     inkscape:document-units="mm"
     inkscape:current-layer="layer1"
     showgrid="false"
     inkscape:window-width="1920"
     inkscape:window-height="1057"
     inkscape:window-x="-8"
     inkscape:window-y="-8"
     inkscape:window-maximized="1"
     inkscape:snap-global="true" />
  <metadata
     id="metadata860">
    <rdf:RDF>
      <cc:Work
         rdf:about="">
        <dc:format>image/svg+xml</dc:format>
        <dc:type
           rdf:resource="http://purl.org/dc/dcmitype/StillImage" />
        <dc:title></dc:title>
      </cc:Work>
    </rdf:RDF>
  </metadata>
  <g
     inkscape:label="Layer 1"
     inkscape:groupmode="layer"
     id="layer1"
     transform="translate(0,-216.463)">
    <path
       inkscape:connector-curvature="0"
       id="path814"
       d="M 84.550415,290.54997 45.499942,222.91262 6.4496006,290.54992 Z"
       inkscape:transform-center-y="4.393997"
       inkscape:transform-center-x="27.135595"
       style="opacity:1;fill:none;fill-opacity:1;stroke:#dc0a14;stroke-width:11.9000721;stroke-linecap:butt;stroke-linejoin:round;stroke-miterlimit:4;stroke-dasharray:none;stroke-dashoffset:0;stroke-opacity:1"
       sodipodi:nodetypes="cccc" />
    <path
       sodipodi:nodetypes="cccc"
       inkscape:connector-curvature="0"
       id="path818"
       d="M 81.173023,288.59999 45.49999,226.81248 9.8269506,288.59995 Z"
       style="opacity:1;fill:#ffffff;fill-opacity:1;stroke:none;stroke-width:11.93114281;stroke-linecap:butt;stroke-linejoin:round;stroke-miterlimit:4;stroke-dasharray:none;stroke-dashoffset:0;stroke-opacity:1" />
    <path
       style="clip-rule:evenodd;fill:#003c82;fill-opacity:1;fill-rule:nonzero;stroke:none;stroke-width:0.13457936"
       d="M 22.890246,272.69974 15.5,285.5 h 14.200167 v -1.3007 c 1.672133,0.0738 1.747693,1.30071 3.950146,1.3007 2.20244,0 2.277497,-1.22565 3.94963,-1.29967 1.672133,0.0738 1.747696,1.29968 3.950146,1.29967 2.202235,10e-6 2.278472,-1.22669 3.950147,-1.3007 1.671674,0.074 1.747912,1.30071 3.950147,1.3007 2.20245,10e-6 2.278012,-1.22587 3.950145,-1.29967 1.672134,0.074 1.747191,1.29967 3.949631,1.29967 2.202452,10e-6 2.278012,-1.2269 3.950147,-1.3007 V 285.5 h 14.200166 l -7.390246,-12.80026 h -6.80992 v 2.39986 c -2.202442,-1e-5 -2.202405,1.30018 -3.950147,1.30018 -1.747745,0 -1.74719,-1.30018 -3.949631,-1.30018 -2.20244,0 -2.202403,1.30018 -3.950145,1.30018 -1.747618,0 -1.748187,-1.3 -3.950147,-1.30018 -2.201963,1.8e-4 -2.202529,1.30018 -3.950147,1.30018 -1.747743,0 -1.747705,-1.30018 -3.950146,-1.30018 -2.202441,0 -2.201885,1.30018 -3.94963,1.30018 -1.747743,0 -1.747706,-1.30019 -3.950146,-1.30018 v -2.39986 z m 6.809921,3.69952 c 1.672134,0.0738 1.747694,1.30018 3.950146,1.30018 2.20244,0 2.277496,-1.22564 3.94963,-1.29966 1.672133,0.0738 1.747704,1.29966 3.950146,1.29966 2.202243,0 2.278472,-1.22616 3.950147,-1.30018 1.671672,0.074 1.747901,1.30018 3.950147,1.30018 2.202442,0 2.278012,-1.22586 3.950145,-1.29966 1.672134,0.074 1.747191,1.29966 3.949631,1.29966 2.202452,0 2.278012,-1.22638 3.950147,-1.30018 v 1.30069 c -2.202442,0 -2.202405,1.30018 -3.950147,1.30018 -1.747743,0 -1.74719,-1.30018 -3.949631,-1.30018 -2.20244,0 -2.202403,1.30018 -3.950145,1.30018 -1.747615,0 -1.748187,-1.3 -3.950147,-1.30018 -2.201963,1.8e-4 -2.202532,1.30018 -3.950147,1.30018 -1.747742,0 -1.747706,-1.30018 -3.950146,-1.30018 -2.202441,0 -2.201889,1.30018 -3.94963,1.30018 -1.747742,0 -1.747705,-1.30018 -3.950146,-1.30018 z m 0,2.59984 c 1.672132,0.0738 1.747694,1.3007 3.950146,1.3007 2.202441,0 2.277496,-1.22565 3.94963,-1.29967 1.672133,0.0738 1.747695,1.29968 3.950146,1.29967 2.202235,10e-6 2.278472,-1.22669 3.950147,-1.3007 1.671674,0.074 1.747909,1.30071 3.950147,1.3007 2.20245,10e-6 2.278012,-1.22587 3.950145,-1.29967 1.672134,0.074 1.747189,1.29967 3.949631,1.29967 2.202452,0 2.278015,-1.2269 3.950147,-1.3007 v 1.3007 c -2.202442,0 -2.202405,1.30017 -3.950147,1.30017 -1.747743,0 -1.74719,-1.30017 -3.949631,-1.30017 -2.20244,0 -2.202403,1.30017 -3.950145,1.30017 -1.747615,0 -1.748184,-1.29999 -3.950147,-1.30017 -2.201963,1.8e-4 -2.202532,1.30017 -3.950147,1.30017 -1.747743,0 -1.747705,-1.30017 -3.950146,-1.30017 -2.202441,0 -2.201889,1.30017 -3.94963,1.30017 -1.747743,0 -1.747705,-1.30017 -3.950146,-1.30017 z m 0,2.60036 c 1.672133,0.0738 1.747694,1.30018 3.950146,1.30018 2.202441,0 2.277496,-1.22565 3.94963,-1.29967 1.672132,0.0738 1.747696,1.29968 3.950146,1.29967 2.202235,1e-5 2.278472,-1.22617 3.950147,-1.30018 1.671672,0.074 1.747909,1.30019 3.950147,1.30018 2.20245,1e-5 2.278012,-1.22587 3.950145,-1.29967 1.672134,0.074 1.747189,1.29967 3.949631,1.29967 2.202452,0 2.278012,-1.22638 3.950147,-1.30018 v 1.3007 c -2.202442,0 -2.202405,1.30017 -3.950147,1.30017 -1.747748,10e-6 -1.74719,-1.30017 -3.949631,-1.30017 -2.20244,0 -2.202403,1.30017 -3.950145,1.30017 -1.747615,0 -1.748184,-1.3 -3.950147,-1.30017 -2.201963,1.7e-4 -2.202532,1.30017 -3.950147,1.30017 -1.747742,0 -1.747706,-1.30017 -3.950146,-1.30017 -2.202442,0 -2.201884,1.30018 -3.94963,1.30017 -1.747742,0 -1.747705,-1.30017 -3.950146,-1.30017 z"
       id="path1979"
       inkscape:connector-curvature="0" />
    <path
       style="opacity:1;fill:#003c82;fill-opacity:1;fill-rule:nonzero;stroke:none;stroke-width:14.5347538;stroke-linecap:square;stroke-linejoin:round;stroke-miterlimit:4;stroke-dasharray:none;stroke-opacity:1;paint-order:stroke fill markers"
       d="m 27.623415,270.13517 24.868671,-20.13826 2.076751,2.56459 -24.86867,20.13824 z"
       id="rect2110"
       inkscape:connector-curvature="0" />
  </g>
</svg>
