<?xml version="1.0" encoding="UTF-8" standalone="no"?>
<!-- Created with Inkscape (http://www.inkscape.org/) -->

<svg
   xmlns:dc="http://purl.org/dc/elements/1.1/"
   xmlns:cc="http://creativecommons.org/ns#"
   xmlns:rdf="http://www.w3.org/1999/02/22-rdf-syntax-ns#"
   xmlns:svg="http://www.w3.org/2000/svg"
   xmlns="http://www.w3.org/2000/svg"
   xmlns:sodipodi="http://sodipodi.sourceforge.net/DTD/sodipodi-0.dtd"
   xmlns:inkscape="http://www.inkscape.org/namespaces/inkscape"
   width="91mm"
   height="80.537003mm"
   viewBox="0 0 91 80.537003"
   version="1.1"
   id="svg863"
   inkscape:version="0.92.2 (5c3e80d, 2017-08-06)"
   sodipodi:docname="99.svg">
  <defs
     id="defs857" />
  <sodipodi:namedview
     id="base"
     pagecolor="#ffffff"
     bordercolor="#666666"
     borderopacity="1.0"
     inkscape:pageopacity="0.0"
     inkscape:pageshadow="2"
     inkscape:zoom="1.7338912"
     inkscape:cx="128.13028"
     inkscape:cy="89.530019"
     inkscape:document-units="mm"
     inkscape:current-layer="layer1"
     showgrid="false"
     inkscape:window-width="1920"
     inkscape:window-height="1057"
     inkscape:window-x="-8"
     inkscape:window-y="-8"
     inkscape:window-maximized="1" />
  <metadata
     id="metadata860">
    <rdf:RDF>
      <cc:Work
         rdf:about="">
        <dc:format>image/svg+xml</dc:format>
        <dc:type
           rdf:resource="http://purl.org/dc/dcmitype/StillImage" />
        <dc:title></dc:title>
      </cc:Work>
    </rdf:RDF>
  </metadata>
  <g
     inkscape:label="Layer 1"
     inkscape:groupmode="layer"
     id="layer1"
     transform="translate(0,-216.463)">
    <path
       inkscape:connector-curvature="0"
       id="path814"
       d="M 84.55041,290.54997 45.499937,222.91262 6.4496006,290.54992 Z"
       inkscape:transform-center-y="4.393997"
       inkscape:transform-center-x="27.135595"
       style="opacity:1;fill:none;fill-opacity:1;stroke:#dc0a14;stroke-width:11.9000721;stroke-linecap:butt;stroke-linejoin:round;stroke-miterlimit:4;stroke-dasharray:none;stroke-dashoffset:0;stroke-opacity:1"
       sodipodi:nodetypes="cccc" />
    <path
       sodipodi:nodetypes="cccc"
       inkscape:connector-curvature="0"
       id="path818"
       d="M 81.173018,288.59999 45.499985,226.81248 9.8269506,288.59995 Z"
       style="opacity:1;fill:#fad20a;fill-opacity:1;stroke:none;stroke-width:11.93114281;stroke-linecap:butt;stroke-linejoin:round;stroke-miterlimit:4;stroke-dasharray:none;stroke-dashoffset:0;stroke-opacity:1" />
    <path
       inkscape:connector-curvature="0"
       d="m 67.600011,285.5 h -46.20006 l 0.118584,-0.45372 c 0.164,-0.62604 0.349011,-1.24669 0.554688,-1.86033 0.174586,-0.5203 0.406407,-1.01981 0.691377,-1.48907 0.177839,-0.29328 0.360121,-0.58341 0.546844,-0.87109 0.03191,-0.049 0.07536,-0.0898 0.126412,-0.1185 l 0.11087,-0.19838 0.42044,-0.90953 c 0.107271,-0.23191 0.234214,-0.45458 0.379252,-0.66485 0.126413,-0.18332 0.261494,-0.36038 0.405103,-0.53078 0.284633,-0.33784 0.541436,-0.69806 0.768665,-1.07697 0.229179,-0.3824 0.500159,-0.7386 0.807344,-1.0616 0.129966,-0.13631 0.276396,-0.25586 0.436106,-0.3555 0.184214,-0.11517 0.334659,-0.277 0.435938,-0.4689 0.231625,-0.43974 0.512757,-0.85099 0.838301,-1.22658 0.442232,-0.51037 1.136561,-0.72534 1.790285,-0.55388 0.331858,0.0868 0.653565,0.20852 0.959705,0.36321 0.554023,0.27981 1.070778,0.62865 1.537336,1.03832 l 0.325032,-0.15694 c 1.377798,-0.66642 2.714839,-1.41411 4.003572,-2.2394 l 0.603538,0.21409 0.696403,-0.58759 0.381893,-0.41737 0.727335,-0.53079 c 0.887611,-0.64755 1.841554,-1.19967 2.845336,-1.64639 l 0.585683,-0.5231 0.92856,-0.88122 c 0.100064,-0.0953 0.173194,-0.21533 0.211492,-0.34797 0.102157,-0.35376 0.166023,-0.71748 0.191032,-1.08484 0.03306,-0.49252 0.05984,-0.98538 0.07996,-1.47896 0.01587,-0.39185 0.04778,-0.78299 0.09533,-1.17239 0.0735,-0.59895 0.102697,-1.20263 0.08785,-1.80614 -0.0053,-0.20011 -0.01037,-0.40023 -0.01552,-0.60035 -0.0035,-0.12741 -0.04184,-0.25133 -0.110906,-0.35828 l -0.619106,-1.32934 -0.838461,-1.43283 c -0.187884,-0.32123 -0.296529,-0.68231 -0.317168,-1.05372 -0.02048,-0.36651 0.009,-0.73407 0.08768,-1.09251 0.03147,-0.14385 0.07642,-0.28455 0.134168,-0.42001 0.05426,-0.12725 0.03865,-0.27352 -0.04131,-0.38661 -0.0602,-0.0849 -0.16776,-0.12319 -0.26817,-0.0952 -0.247539,0.0688 -0.513252,0.009 -0.706926,-0.15973 -0.429456,-0.37439 -0.738398,-0.86744 -0.887443,-1.41729 -0.05842,-0.21512 -0.121935,-0.42925 -0.190854,-0.64141 -0.04725,-0.14574 -0.134869,-0.27544 -0.252769,-0.37368 -0.238462,-0.19871 -0.408145,-0.46734 -0.484937,-0.76778 -0.08103,-0.31669 -0.08378,-0.6484 -0.008,-0.96635 0.08821,-0.36946 0.290208,-0.70205 0.57782,-0.95077 0.290386,-0.25132 0.628015,-0.44219 0.992923,-0.56155 0.390636,-0.12794 0.790899,-0.22284 1.197094,-0.28348 0.218841,-0.0329 0.44224,0.003 0.639734,0.10293 0.244401,0.12357 0.473731,0.2751 0.683654,0.45093 0.214649,0.18019 0.376106,0.41527 0.466727,0.68022 0.08662,0.25221 0.160588,0.50842 0.221998,0.76798 0.03918,0.16551 0.07367,0.33207 0.103211,0.49968 0.06472,0.36649 0.196626,0.71762 0.389412,1.03606 0.09289,0.15293 0.185606,0.30587 0.278665,0.45862 0.114241,0.18736 0.294589,0.32525 0.505745,0.38642 0.213939,0.0618 0.439607,0.0708 0.657748,0.0257 0.364236,-0.0751 0.732991,-0.12602 1.103857,-0.15189 0.301937,-0.0211 0.599858,-0.0794 0.887442,-0.17268 0.556126,-0.1807 1.11609,-0.35006 1.679387,-0.50772 0.343225,-0.0957 0.702885,-0.11779 1.055036,-0.0645 1.783476,0.27126 3.499779,0.87599 5.058624,1.78307 0.160419,0.0935 0.318914,0.1905 0.474609,0.29134 0.225827,0.14578 0.40286,0.35567 0.508172,0.60299 0.11721,0.27476 0.192078,0.56575 0.221999,0.86305 0.07607,0.75903 0.165304,1.5167 0.268177,2.2726 0.07696,0.56627 0.329578,1.09429 0.722315,1.51005 0.104957,0.11101 0.224782,0.2073 0.355981,0.28578 0.272725,0.16358 0.503305,0.38853 0.673344,0.65716 0.194346,0.30726 0.130312,0.71098 -0.149746,0.94307 -0.157635,0.13074 -0.32504,0.24958 -0.500327,0.3555 -0.133131,0.0804 -0.281644,0.13145 -0.435938,0.14945 -0.07562,0.009 -0.134522,0.0691 -0.14204,0.14453 l 0.14204,3.25922 0.02332,2.68245 -0.04654,1.29071 0.02323,1.10792 -0.06977,1.01283 -0.126305,1.21085 c -0.09637,0.92334 -0.07465,1.8549 0.06454,2.77246 0.07172,0.474 0.09779,0.95375 0.07713,1.43263 l 0.02323,1.45609 -0.03094,1.67973 -0.04902,1.55115 0.02606,0.73702 c 0.009,0.26935 0.22777,0.48433 0.497685,0.48937 l 0.11861,-0.008 0.66564,-0.54634 c 0.121571,-0.0998 0.178947,-0.25778 0.149567,-0.41228 -0.02783,-0.1463 -0.04601,-0.29433 -0.05408,-0.44323 -0.0071,-0.13057 0.03794,-0.25867 0.126119,-0.35533 0.07119,-0.0781 0.153939,-0.14507 0.245252,-0.19856 l 0.420379,-0.18297 0.44381,-0.23702 c 0.396753,-0.212 0.769365,-0.46594 1.111888,-0.75746 0.07403,-0.0633 0.147989,-0.12688 0.221643,-0.19085 0.153611,-0.13318 0.351451,-0.2038 0.554725,-0.19839 0.262584,0.007 0.518155,0.0873 0.737875,0.23194 0.184914,0.12181 0.330972,0.29449 0.420193,0.49724 0.586746,1.33197 1.477159,2.57022 2.600429,3.49653 h 1.217064 z"
       id="path6"
       style="fill:#003c82;stroke:none;stroke-width:0.13988341;fill-opacity:1"
       sodipodi:nodetypes="ccccccccccccccccccccccccccccccccccccccccccccccccccccccccccccccccccccccccccccccccccccccccccccccccccccccccc" />
    <path
       inkscape:connector-curvature="0"
       style="fill:#fad20a;fill-opacity:1;stroke:none;stroke-width:0.13988341;stroke-opacity:1"
       d="m 32.750365,275.63129 0.286192,-0.0487 0.78425,-0.17007 c 0.520255,-0.11306 1.02896,-0.27422 1.519304,-0.48205 0.343924,-0.14558 0.688726,-0.28907 1.034396,-0.43028 0.436638,-0.17827 0.836555,-0.43606 1.178892,-0.75992 l 0.559787,-0.46632 0.471994,-0.47695 0.299312,-0.255 0.358622,-0.26023 0.317142,-0.23194 0.412853,-0.2473 0.294083,-0.15451 0.317326,-0.16255 0.3224,-0.15974 0.348303,-0.17511 0.255403,-0.13651 0.244924,-0.14174 0.219365,-0.12899 0.487552,-0.19837 0.949207,2.60504 0.03626,0.10573 0.01286,0.098 0.374003,1.23392 0.312089,1.27287 0.237211,0.81691 0.165304,0.5953 0.3352,1.54064 0.103203,0.48203 c 0.05248,0.2454 0.170029,0.47241 0.340598,0.65697 0.06419,0.0698 0.141518,0.1264 0.226883,0.16745 0.226369,0.10819 0.477569,0.15346 0.727556,0.13127 0.144515,-0.0126 0.28621,0.0462 0.379092,0.15731 0.195757,0.234 0.322576,0.51767 0.366309,0.81931 0.01011,0.0696 -0.0018,0.14071 -0.0336,0.20345 l -0.407594,0.6624 -0.09008,0.12375 -0.926122,0.5231 c -0.08235,0.0463 -0.128398,0.13805 -0.115986,0.23175 l 0.08501,0.30656 -0.317497,-0.0747 c -0.666517,-0.15677 -1.356634,-0.18911 -2.035031,-0.0952 -0.497694,0.0691 -0.991709,0.16096 -1.480661,0.2758 -0.52726,0.12356 -1.065877,0.19278 -1.607312,0.20623 -0.365795,0.009 -0.730702,-0.0362 -1.083368,-0.13422 -0.159196,-0.0439 -0.320129,-0.0819 -0.482472,-0.11325 -0.316299,-0.0611 -0.60617,-0.21988 -0.827805,-0.45356 -0.193824,-0.20396 -0.389936,-0.40584 -0.588476,-0.60543 l -0.464119,-0.67778 -0.288818,-0.4483 -0.296866,-0.43537 -0.275864,-0.39689 -0.425619,-0.65193 -0.193496,-0.32473 -0.294056,-0.59248 -0.21675,-0.48169 -0.147112,-0.28875 -0.126305,-0.23191 c -0.430334,-0.78946 -0.983331,-1.5064 -1.637932,-2.12317 z m 14.254652,7.82803 1.390562,-0.93296 0.07208,-0.0488 0.255403,-0.0776 0.5185,-0.12863 1.003439,-0.59528 -0.0516,-0.19559 c -0.09341,-0.35513 -0.251734,-0.68966 -0.466719,-0.98694 -0.18823,-0.26009 -0.352869,-0.53588 -0.492818,-0.82478 -0.104771,-0.21601 -0.165136,-0.45075 -0.177901,-0.69053 -0.04237,-0.78721 -0.171084,-1.56739 -0.384501,-2.32664 -0.245092,-0.87212 -0.522189,-1.73497 -0.830607,-2.58684 -0.133645,-0.36913 -0.221111,-0.75347 -0.260483,-1.14408 -0.0089,-0.0865 -0.01206,-0.1732 -0.01037,-0.26025 0.0018,-0.0591 0.02208,-0.1162 0.05931,-0.16219 l 0.309651,-0.27579 0.355811,-0.28611 0.343224,-0.29885 0.412665,-0.37107 0.263099,-0.273 1.127298,-1.24212 0.152191,-0.19051 0.06454,-0.0955 c 0.07137,-0.10521 0.147113,-0.20763 0.22706,-0.30654 0.04078,-0.0505 0.09061,-0.0933 0.146945,-0.12638 l 0.466904,-0.27825 0.332727,-0.13912 c 0.115462,-0.0482 0.248408,-0.0273 0.343223,0.0542 0.143627,0.12322 0.244037,0.28944 0.286192,0.47419 l 0.05683,0.61818 0.07465,0.58513 0.157458,1.20056 c 0.07137,0.54475 0.07403,1.096 0.008,1.64129 -0.04761,0.39029 -0.0018,0.786 0.136624,1.15441 0.07314,0.19661 0.160242,0.38782 0.260474,0.57204 0.259951,0.47802 0.457631,0.98695 0.588129,1.51494 0.09079,0.36738 0.143628,0.74281 0.157441,1.12101 0.0227,0.62344 0.102164,1.24355 0.237211,1.85264 0.06942,0.31267 0.1347,0.62604 0.19612,0.94048 0.01312,0.0668 0.05408,0.12479 0.11283,0.15921 0.05878,0.0345 0.129452,0.042 0.19401,0.021 l 0.258018,0.005 c 0.06383,0.002 0.119656,0.0444 0.136802,0.10592 0.144674,0.51419 0.148344,1.0581 0.01037,1.57438 -0.0649,0.24257 -0.24683,0.43694 -0.485087,0.51767 -0.20276,0.0691 -0.411815,0.11815 -0.624185,0.14682 -0.201519,0.0275 -0.365608,0.17582 -0.412675,0.37387 -0.01995,0.0835 -0.02935,0.16918 -0.02855,0.25498 0.0018,0.18002 -0.117385,0.33889 -0.29144,0.38643 -0.17057,0.0466 -0.344969,0.0787 -0.520966,0.0955 -0.263984,0.025 -0.52725,0.0567 -0.789489,0.0955 l -0.822902,0.0232 -0.943942,-0.0388 -0.773932,-0.12112 -0.477384,-0.11604 -0.745401,-0.15189 -0.51327,-0.10069 -0.61157,-0.11571 z m 5.897087,-26.82058 0.557162,0.0105 0.482303,0.0513 0.753444,0.14699 c 0.04131,0.008 0.07607,0.036 0.09272,0.0747 l 0.203806,0.44303 0.139417,0.32981 0.10041,0.27302 0.165322,0.37123 0.250154,0.52046 0.159886,0.28594 0.178097,0.43555 0.172654,0.51017 0.08767,0.3761 0.03883,0.14699 c 0.02359,0.0897 0.0035,0.18508 -0.05355,0.25797 -0.057,0.0726 -0.145189,0.11465 -0.237911,0.11308 -0.06312,-0.002 -0.124914,-0.02 -0.178097,-0.0544 l -0.366141,-0.35794 -0.381876,-0.40199 -0.219366,-0.2576 -0.180365,-0.27318 -0.136802,-0.25764 c -0.110906,-0.20902 -0.208336,-0.42521 -0.291449,-0.64684 l -0.498031,-0.57709 -0.629415,-0.68793 -0.510824,-0.50249 c -0.01436,-0.014 -0.02155,-0.0341 -0.01942,-0.0542 0.0018,-0.0199 0.01286,-0.038 0.02987,-0.0489 l 0.14713,-0.17004 c 0.0359,-0.0416 0.08974,-0.0627 0.144328,-0.0567 z m -6.995872,10.11621 c 0.06215,0.0199 0.130331,0 0.17284,-0.049 0.213247,-0.24854 0.419501,-0.50282 0.619105,-0.76272 0.139771,-0.18195 0.272371,-0.3693 0.397107,-0.56174 0.106172,-0.1629 0.214472,-0.32439 0.325191,-0.48447 0.10986,-0.15852 0.211502,-0.32281 0.304385,-0.49199 0.136287,-0.24873 0.268895,-0.49952 0.397302,-0.75244 0.106357,-0.20989 0.182982,-0.43359 0.226883,-0.66464 0.02501,-0.13162 0.05443,-0.26216 0.08767,-0.39169 0.01835,-0.0707 0.02802,-0.14332 0.02855,-0.21637 0.0018,-0.11797 -0.04237,-0.2321 -0.121225,-0.31966 l -0.281122,-0.31179 -0.337992,-0.27074 c -0.07492,-0.0716 -0.178603,-0.10486 -0.28129,-0.0904 -0.102688,0.0147 -0.193132,0.0755 -0.245075,0.16533 l -0.213957,0.37087 c -0.04876,0.10993 -0.08086,0.22633 -0.09551,0.34552 -0.0035,0.219 -0.02783,0.43729 -0.07226,0.65175 -0.06091,0.29399 -0.122635,0.58777 -0.185783,0.88121 -0.124195,0.57992 -0.281821,1.15194 -0.471984,1.71351 l -0.121235,0.35812 -0.165135,0.45878 c -0.03954,0.10244 -0.0555,0.21254 -0.04636,0.32194 0.0035,0.0465 0.03546,0.0864 0.07996,0.10069 z"
       id="path8" />
  </g>
</svg>
