<?xml version="1.0" encoding="UTF-8" standalone="no"?>
<!-- Created with Inkscape (http://www.inkscape.org/) -->

<svg
   xmlns:dc="http://purl.org/dc/elements/1.1/"
   xmlns:cc="http://creativecommons.org/ns#"
   xmlns:rdf="http://www.w3.org/1999/02/22-rdf-syntax-ns#"
   xmlns:svg="http://www.w3.org/2000/svg"
   xmlns="http://www.w3.org/2000/svg"
   xmlns:sodipodi="http://sodipodi.sourceforge.net/DTD/sodipodi-0.dtd"
   xmlns:inkscape="http://www.inkscape.org/namespaces/inkscape"
   width="182mm"
   height="92mm"
   viewBox="0 0 182 92"
   version="1.1"
   id="svg835"
   inkscape:version="0.92.2 (5c3e80d, 2017-08-06)"
   sodipodi:docname="22.svg">
  <defs
     id="defs829">
    <pattern
       y="0"
       x="0"
       height="6"
       width="6"
       patternUnits="userSpaceOnUse"
       id="EMFhbasepattern" />
  </defs>
  <sodipodi:namedview
     id="base"
     pagecolor="#ffffff"
     bordercolor="#666666"
     borderopacity="1.0"
     inkscape:pageopacity="0.0"
     inkscape:pageshadow="2"
     inkscape:zoom="1.2682451"
     inkscape:cx="407.92709"
     inkscape:cy="144.0071"
     inkscape:document-units="mm"
     inkscape:current-layer="layer1"
     showgrid="false"
     showborder="true"
     inkscape:pagecheckerboard="false"
     inkscape:window-width="1920"
     inkscape:window-height="1057"
     inkscape:window-x="-8"
     inkscape:window-y="-8"
     inkscape:window-maximized="1" />
  <metadata
     id="metadata832">
    <rdf:RDF>
      <cc:Work
         rdf:about="">
        <dc:format>image/svg+xml</dc:format>
        <dc:type
           rdf:resource="http://purl.org/dc/dcmitype/StillImage" />
        <dc:title></dc:title>
      </cc:Work>
    </rdf:RDF>
  </metadata>
  <g
     inkscape:label="Layer 1"
     inkscape:groupmode="layer"
     id="layer1"
     transform="translate(0,-205)">
    <rect
       style="opacity:1;fill:#000000;fill-opacity:1;fill-rule:nonzero;stroke:none;stroke-width:2.48707628;stroke-linecap:square;stroke-linejoin:round;stroke-miterlimit:4;stroke-dasharray:none;stroke-opacity:1;paint-order:stroke fill markers"
       id="rect825"
       width="181"
       height="91"
       x="0.5"
       y="205.5"
       rx="8"
       ry="8" />
    <rect
       ry="6.5"
       rx="6.5"
       y="206.99985"
       x="1.9999923"
       height="88"
       width="178"
       id="rect1432"
       style="opacity:1;fill:#006e3c;fill-opacity:1;fill-rule:nonzero;stroke:none;stroke-width:1.41428483;stroke-linecap:square;stroke-linejoin:round;stroke-miterlimit:4;stroke-dasharray:none;stroke-opacity:1;paint-order:stroke fill markers" />
    <path
       sodipodi:nodetypes="ccccccc"
       inkscape:connector-curvature="0"
       id="path845"
       d="M 174.14295,206.31972 4.5379631,281.83273 2.819,290.26052 l 5.0378379,5.41946 169.6052221,-75.5131 1.71874,-8.42768 z"
       style="opacity:1;fill:#dc0a14;fill-opacity:1;fill-rule:nonzero;stroke:none;stroke-width:0.84497571;stroke-linecap:square;stroke-linejoin:round;stroke-miterlimit:4;stroke-dasharray:none;stroke-opacity:1;paint-order:stroke fill markers" />
    <path
       inkscape:connector-curvature="0"
       id="path847"
       d="m 8.4998001,205.99981 c -4.155,0 -7.4997801,3.34536 -7.49980011,7.50032 v 74.99955 c 0,4.155 3.34483001,7.50031 7.49981011,7.50032 H 173.50007 c 4.155,0 7.49966,-3.34563 7.4998,-7.50032 v -74.99955 c 0,-4.15501 -3.34482,-7.50031 -7.4998,-7.50032 z m 10e-6,4.00027 H 173.50007 c 1.939,0 3.50004,1.56105 3.50004,3.50005 v 74.99956 c 0,1.939 -1.56104,3.50004 -3.50004,3.50004 H 8.4998101 c -1.9390101,0 -3.5000501,-1.56105 -3.5000501,-3.50005 v -74.99955 c 0,-1.939 1.56104,-3.50005 3.5000501,-3.50005 z"
       style="opacity:1;fill:#ffffff;fill-opacity:1;fill-rule:nonzero;stroke:none;stroke-width:1.43827868;stroke-linecap:square;stroke-linejoin:round;stroke-miterlimit:4;stroke-dasharray:none;stroke-opacity:1;paint-order:stroke fill markers" />
    <g
       transform="translate(3.8065219,-6.3366214)"
       id="g843"
       style="font-style:normal;font-variant:normal;font-weight:normal;font-stretch:normal;font-size:44.22132111px;line-height:1.25;font-family:'DIN 1451 Mittelschrift';-inkscape-font-specification:'DIN 1451 Mittelschrift';letter-spacing:0px;word-spacing:0px;fill:#ffffff;fill-opacity:1;stroke:none;stroke-width:0.23031938"
       aria-label="OXFORD">
      <path
         inkscape:connector-curvature="0"
         id="path831"
         style="font-style:normal;font-variant:normal;font-weight:normal;font-stretch:normal;font-family:'DIN 1451 Mittelschrift';-inkscape-font-specification:'DIN 1451 Mittelschrift';fill:#ffffff;fill-opacity:1;stroke:none;stroke-width:0.23031938"
         d="m 11.393477,257.35821 q 0,-5.67881 0.302294,-7.31984 0.302295,-1.64102 1.079623,-3.02294 1.101214,-2.05128 3.605937,-3.86504 2.526316,-1.81377 6.240216,-1.81377 3.692308,0 6.197031,1.81377 2.526316,1.81376 3.670715,3.86504 0.755736,1.38192 1.05803,3.02294 0.302294,1.64103 0.302294,7.31984 0,5.67881 -0.302294,7.31984 -0.302294,1.64103 -1.05803,3.02294 -1.144399,2.07288 -3.670715,3.86505 -2.504723,1.77058 -6.197031,1.77058 -3.7139,0 -6.240216,-1.77058 -2.504723,-1.79217 -3.605937,-3.86505 -0.777328,-1.38191 -1.079623,-3.02294 -0.302294,-1.64103 -0.302294,-7.31984 z m 4.77193,0 q 0,4.8583 0.323887,6.305 0.345479,1.44669 1.273954,2.61268 0.71255,0.95007 1.943319,1.64103 1.23077,0.66936 2.91498,0.66936 1.684211,0 2.91498,-0.66936 1.230769,-0.69096 1.94332,-1.64103 0.928475,-1.16599 1.252361,-2.61268 0.345479,-1.4467 0.345479,-6.305 0,-4.8367 -0.345479,-6.2834 -0.323886,-1.44669 -1.252361,-2.65587 -0.712551,-0.90688 -1.94332,-1.59784 -1.230769,-0.69096 -2.91498,-0.69096 -1.68421,0 -2.91498,0.69096 -1.230769,0.69096 -1.943319,1.59784 -0.928475,1.20918 -1.273954,2.65587 -0.323887,1.4467 -0.323887,6.2834 z" />
      <path
         inkscape:connector-curvature="0"
         id="path833"
         style="font-style:normal;font-variant:normal;font-weight:normal;font-stretch:normal;font-family:'DIN 1451 Mittelschrift';-inkscape-font-specification:'DIN 1451 Mittelschrift';fill:#ffffff;fill-opacity:1;stroke:none;stroke-width:0.23031938"
         d="m 54.83747,273.07751 -6.887989,-11.7031 -6.909582,11.7031 h -5.376518 l 9.630229,-16.12955 -9.02564,-15.33064 h 5.39811 l 6.283401,10.90419 6.261808,-10.90419 h 5.39811 l -9.02564,15.33064 9.651821,16.12955 z" />
      <path
         inkscape:connector-curvature="0"
         id="path835"
         style="font-style:normal;font-variant:normal;font-weight:normal;font-stretch:normal;font-family:'DIN 1451 Mittelschrift';-inkscape-font-specification:'DIN 1451 Mittelschrift';fill:#ffffff;fill-opacity:1;stroke:none;stroke-width:0.23031938"
         d="m 63.064189,273.07751 v -31.46019 h 20.124156 v 4.51282 H 67.836119 v 9.26316 h 13.08502 v 4.25371 h -13.08502 v 13.4305 z" />
      <path
         inkscape:connector-curvature="0"
         id="path837"
         style="font-style:normal;font-variant:normal;font-weight:normal;font-stretch:normal;font-family:'DIN 1451 Mittelschrift';-inkscape-font-specification:'DIN 1451 Mittelschrift';fill:#ffffff;fill-opacity:1;stroke:none;stroke-width:0.23031938"
         d="m 85.757842,257.35821 q 0,-5.67881 0.302294,-7.31984 0.302294,-1.64102 1.079622,-3.02294 1.101215,-2.05128 3.605938,-3.86504 2.526316,-1.81377 6.240216,-1.81377 3.692308,0 6.197028,1.81377 2.52632,1.81376 3.67071,3.86504 0.75574,1.38192 1.05803,3.02294 0.3023,1.64103 0.3023,7.31984 0,5.67881 -0.3023,7.31984 -0.30229,1.64103 -1.05803,3.02294 -1.14439,2.07288 -3.67071,3.86505 -2.50472,1.77058 -6.197028,1.77058 -3.7139,0 -6.240216,-1.77058 -2.504723,-1.79217 -3.605938,-3.86505 -0.777328,-1.38191 -1.079622,-3.02294 -0.302294,-1.64103 -0.302294,-7.31984 z m 4.77193,0 q 0,4.8583 0.323886,6.305 0.345479,1.44669 1.273954,2.61268 0.712551,0.95007 1.94332,1.64103 1.230769,0.66936 2.91498,0.66936 1.68421,0 2.914979,-0.66936 1.230769,-0.69096 1.943319,-1.64103 0.92847,-1.16599 1.25236,-2.61268 0.34548,-1.4467 0.34548,-6.305 0,-4.8367 -0.34548,-6.2834 -0.32389,-1.44669 -1.25236,-2.65587 -0.71255,-0.90688 -1.943319,-1.59784 -1.230769,-0.69096 -2.914979,-0.69096 -1.684211,0 -2.91498,0.69096 -1.230769,0.69096 -1.94332,1.59784 -0.928475,1.20918 -1.273954,2.65587 -0.323886,1.4467 -0.323886,6.2834 z" />
      <path
         inkscape:connector-curvature="0"
         id="path839"
         style="font-style:normal;font-variant:normal;font-weight:normal;font-stretch:normal;font-family:'DIN 1451 Mittelschrift';-inkscape-font-specification:'DIN 1451 Mittelschrift';fill:#ffffff;fill-opacity:1;stroke:none;stroke-width:0.23031938"
         d="m 118.53518,245.84944 v 9.54386 h 7.21188 q 2.67746,0 4.01619,-1.48988 1.33873,-1.48988 1.33873,-3.49797 0,-2.39677 -1.59784,-3.58435 -1.33873,-0.97166 -3.47638,-0.97166 z m -4.77193,27.22807 v -31.46019 h 12.30769 q 4.03779,0 6.39137,2.07288 1.31713,1.1444 2.22402,2.87179 0.92847,1.7274 0.92847,3.84346 0,3.04453 -1.64102,5.39811 -1.61944,2.33198 -4.46964,3.30364 l 7.29825,13.97031 h -5.65722 l -6.49933,-13.4305 h -6.11066 v 13.4305 z" />
      <path
         inkscape:connector-curvature="0"
         id="path841"
         style="font-style:normal;font-variant:normal;font-weight:normal;font-stretch:normal;font-family:'DIN 1451 Mittelschrift';-inkscape-font-specification:'DIN 1451 Mittelschrift';fill:#ffffff;fill-opacity:1;stroke:none;stroke-width:0.23031938"
         d="m 140.71,273.07751 v -31.46019 h 11.01214 q 6.45614,0 9.58705,5.29015 1.16599,2.0081 1.4251,3.75709 0.25911,1.74898 0.25911,6.69365 0,5.31174 -0.36707,7.10392 -0.34548,1.77058 -1.40351,3.4116 -1.40351,2.20243 -3.86505,3.7139 -2.43995,1.48988 -5.93792,1.48988 z m 4.77193,-26.94737 v 22.45614 h 5.72199 q 3.92983,0 5.82996,-2.74224 0.77733,-1.18758 0.97166,-2.54791 0.21593,-1.38191 0.21593,-5.76518 0,-4.23212 -0.23752,-5.85155 -0.21592,-1.61943 -1.16599,-2.91498 -1.96491,-2.63428 -5.61404,-2.63428 z" />
    </g>
  </g>
</svg>
