<?xml version="1.0" encoding="UTF-8" standalone="no"?>
<!-- Created with Inkscape (http://www.inkscape.org/) -->

<svg
   xmlns:dc="http://purl.org/dc/elements/1.1/"
   xmlns:cc="http://creativecommons.org/ns#"
   xmlns:rdf="http://www.w3.org/1999/02/22-rdf-syntax-ns#"
   xmlns:svg="http://www.w3.org/2000/svg"
   xmlns="http://www.w3.org/2000/svg"
   xmlns:sodipodi="http://sodipodi.sourceforge.net/DTD/sodipodi-0.dtd"
   xmlns:inkscape="http://www.inkscape.org/namespaces/inkscape"
   width="61.599998mm"
   height="61.599998mm"
   viewBox="0 0 61.599998 61.599998"
   version="1.1"
   id="svg8"
   inkscape:version="0.92.2 (5c3e80d, 2017-08-06)"
   sodipodi:docname="11.svg">
  <defs
     id="defs2" />
  <sodipodi:namedview
     id="base"
     pagecolor="#ffffff"
     bordercolor="#666666"
     borderopacity="1.0"
     inkscape:pageopacity="0.0"
     inkscape:pageshadow="2"
     inkscape:zoom="1.979899"
     inkscape:cx="78.112636"
     inkscape:cy="101.08704"
     inkscape:document-units="mm"
     inkscape:current-layer="layer1"
     showgrid="false"
     inkscape:window-width="1920"
     inkscape:window-height="1057"
     inkscape:window-x="-8"
     inkscape:window-y="-8"
     inkscape:window-maximized="1"
     inkscape:snap-global="false" />
  <metadata
     id="metadata5">
    <rdf:RDF>
      <cc:Work
         rdf:about="">
        <dc:format>image/svg+xml</dc:format>
        <dc:type
           rdf:resource="http://purl.org/dc/dcmitype/StillImage" />
        <dc:title></dc:title>
      </cc:Work>
    </rdf:RDF>
  </metadata>
  <g
     inkscape:label="Layer 1"
     inkscape:groupmode="layer"
     id="layer1"
     transform="translate(0,-235.4)">
    <circle
       style="opacity:1;fill:#000000;fill-opacity:1;fill-rule:nonzero;stroke:none;stroke-width:0.20635015;stroke-linecap:square;stroke-linejoin:round;stroke-miterlimit:4;stroke-dasharray:none;stroke-opacity:1;paint-order:stroke fill markers"
       id="path815"
       cx="30.799999"
       cy="266.20001"
       r="30.299999" />
    <circle
       r="30"
       cy="266.20001"
       cx="30.799999"
       id="circle819"
       style="opacity:1;fill:#ffffff;fill-opacity:1;fill-rule:nonzero;stroke:none;stroke-width:0.20430708;stroke-linecap:square;stroke-linejoin:round;stroke-miterlimit:4;stroke-dasharray:none;stroke-opacity:1;paint-order:stroke fill markers" />
    <circle
       style="opacity:1;fill:#003c82;fill-opacity:1;fill-rule:nonzero;stroke:none;stroke-width:0.19068664;stroke-linecap:square;stroke-linejoin:round;stroke-miterlimit:4;stroke-dasharray:none;stroke-opacity:1;paint-order:stroke fill markers"
       id="circle821"
       cx="30.799999"
       cy="266.20001"
       r="28" />
    <path
       inkscape:connector-curvature="0"
       id="path819"
       d="m 27.440246,270.06007 c -0.503319,0.0153 -0.987899,0.23295 -1.332579,0.62034 -0.459933,0.51622 -0.594769,1.24565 -0.350278,1.89254 l -1.971858,4.88539 c -0.88632,-0.53948 -1.901034,-0.83171 -2.938449,-0.84608 v 0.24468 c -2.6361,-0.0377 -4.937395,1.78032 -5.512508,4.35575 -0.574989,2.57559 0.733951,5.20172 3.13555,6.29057 2.401617,1.08875 5.237149,0.3418 6.791883,-1.78972 l 0.197506,0.14352 c 1.859217,-2.54891 1.347847,-6.11699 -1.151999,-8.04035 l 0.337781,-0.8368 6.103828,5.31147 c -0.274619,0.56762 -0.21925,1.24005 0.144268,1.75504 0.363785,0.51507 0.978019,0.79144 1.604252,0.7219 l 0.36237,1.18632 h -0.380104 v 0.61878 h 1.57604 v -0.61878 h -0.549394 l -0.416385,-1.36327 c 0.522535,-0.26554 0.875312,-0.77757 0.937563,-1.36078 h 3.78e-4 l 1.04398,-0.0689 c 0.37749,2.84153 2.847205,4.93288 5.709214,4.83427 2.862019,-0.0982 5.182063,-2.35479 5.363368,-5.21554 l 0.243458,0.0182 c 0.102491,-1.60359 -0.462261,-3.17831 -1.560721,-4.35053 -1.098336,-1.17194 -2.632165,-1.83689 -4.237572,-1.83689 -0.902033,0 -1.792221,0.21085 -2.599053,0.61474 l -1.588538,-2.75471 0.589305,-1.32453 1.612723,-0.73608 c 0.231144,-0.10569 0.358109,-0.35755 0.304725,-0.60623 -0.05345,-0.24857 -0.272769,-0.42655 -0.526837,-0.42763 -1.334087,-0.0442 -2.668988,-0.0654 -4.003782,-0.0593 -0.183675,-0.008 -0.348108,0.11218 -0.395826,0.29065 -0.04764,0.17779 0.03457,0.36486 0.197513,0.45025 0.700059,0.3846 1.417093,0.73742 2.148809,1.05763 l -0.57801,1.29957 H 25.680772 l 0.751746,-1.86222 c -0.257959,-0.42971 -0.231476,-0.97252 0.06685,-1.37496 0.29856,-0.40245 0.810163,-0.5851 1.295493,-0.46235 l 0.0039,0.001 1.089519,0.27732 0.299491,0.0757 0.152363,-0.59978 -0.299486,-0.0757 -1.09396,-0.27853 h -0.0017 c -0.167439,-0.0415 -0.337299,-0.0598 -0.505072,-0.0558 z m -2.009346,4.9741 h 10.044724 l -2.809862,6.31758 c -0.187914,-0.0393 -0.381337,-0.0485 -0.57197,-0.0234 l -0.344227,-1.12705 h 0.483292 v -0.61915 h -1.576042 v 0.61915 h 0.446208 l 0.400668,1.31166 c -0.141613,0.0741 -0.272182,0.16795 -0.388171,0.27813 l -6.225155,-5.41716 z m 10.660634,0.13695 1.362005,2.36128 c -1.364921,0.87615 -2.301663,2.28358 -2.584548,3.88175 -0.06704,0.37881 -0.09676,0.76299 -0.08787,1.14759 l -0.798097,0.0525 c -0.109577,-0.42462 -0.375786,-0.79191 -0.744888,-1.02788 l 2.784876,-6.26118 z m -15.292017,2.59507 c 0.878041,0.005 1.763861,0.2589 2.547459,0.78077 l -1.102822,2.73175 c -0.274986,0.55689 -0.856166,0.89428 -1.475673,0.85818 -0.110162,-4.8e-4 -0.211877,0.0576 -0.267242,0.15354 -0.05543,0.0945 -0.05578,0.21268 -7.9e-4,0.30837 0.05491,0.0948 0.156684,0.15479 0.266837,0.15479 0.908461,0.0369 1.743331,-0.49859 2.089163,-1.34026 v 7.3e-4 l 0.998832,-2.47537 c 1.878835,1.66582 2.101078,4.52219 0.50264,6.45906 -1.598532,1.93688 -4.442719,2.25755 -6.431508,0.72508 -1.98889,-1.53222 -2.406932,-4.36662 -0.945622,-6.40906 0.913321,-1.27656 2.355371,-1.95671 3.81877,-1.94769 z m 19.900418,0.001 c 1.20114,0.0296 2.375632,0.52175 3.247611,1.42975 1.39527,1.45283 1.699923,3.6385 0.755369,5.4183 -0.944671,1.77955 -2.92458,2.75065 -4.908295,2.40644 -1.983607,-0.3439 -3.521984,-1.92519 -3.813129,-3.91927 l 4.082786,-0.26763 c 0.188981,0.24467 0.521535,0.32677 0.80253,0.19792 0.280848,-0.12831 0.435867,-0.43461 0.374063,-0.73766 -0.06175,-0.30324 -0.323975,-0.52357 -0.632838,-0.53209 l -2.039177,-3.5351 c 0.680106,-0.32793 1.410393,-0.47794 2.13108,-0.46072 z m -2.669192,0.76545 2.021445,3.50443 -0.09384,0.18461 -4.025556,0.26403 c -0.01962,-1.58954 0.771376,-3.07954 2.098031,-3.95307 z"
       style="fill:#ffffff;fill-opacity:1;fill-rule:nonzero;stroke:none;stroke-width:0.40196916" />
    <path
       inkscape:connector-curvature="0"
       id="path20"
       style="fill:#ffffff;fill-opacity:1;fill-rule:nonzero;stroke:none;stroke-width:0.04461263"
       d="m 27.795914,242.8192 c 0,0 -0.496142,-0.49822 0.08693,-0.58347 0.58275,-0.0835 0.523171,0 0.646835,-0.42242 0.12528,-0.42258 0.258532,-0.62982 0.459039,-0.61225 0.202427,0.0211 0.716362,0.058 0.859208,0.0677 0.144224,0.008 0.564957,-0.0562 0.659725,0 0.09475,0.0546 0.287425,0.13004 0.287425,0.33731 0,0.20728 -0.06899,0.84498 0.07716,0.91262 0.141153,0.0675 0.436608,0.18951 0.397897,0.38542 -0.03847,0.19771 -0.141283,0.1895 -0.341792,0.1895 -0.202247,0 -0.325916,0.0469 -0.314589,0.1689 0.0093,0.12208 0.09474,0.32933 0.08654,0.55265 -0.01273,0.22821 -0.184673,0.68931 -0.335502,0.90461 -0.152611,0.21528 -0.08524,0.30018 -0.07702,0.37586 0.0095,0.0755 0.104182,0.13964 0.181332,0.20725 0.07702,0.0658 1.43219,0.92848 1.642287,1.0814 0.210408,0.15095 0.574858,0.34844 0.639165,1.02486 0.06899,0.67658 0.0095,1.08136 0.171746,1.41067 0.162375,0.32931 0.277707,1.2128 0.382241,1.91012 0.105921,0.69258 0.192479,1.27905 0.200819,1.48612 0.0095,0.20729 0.171611,0.54482 0.20992,0.63786 0.03871,0.0935 0.859208,1.81723 1.042144,2.07905 0,0 0.09457,0.16058 0.01744,0.20731 -0.07664,0.0466 -0.115335,0.15098 0.02093,0.19753 0.133255,0.0467 0.26656,0.27141 0.322797,0.37597 0.05957,0.10114 0.144579,0.34695 0.07702,0.47874 -0.06882,0.13336 -0.248584,0.28119 -0.104003,0.44173 0.142843,0.16075 0.245639,0.24582 0.343533,0.39384 0.09457,0.15253 0.42037,0.66978 0.459036,0.78083 0.03535,0.11385 0.120184,0.21821 0.236053,0.2362 0.115507,0.0174 0.536189,0.0673 0.736878,0.13983 0.199125,0.0767 0.494403,0.24576 0.64077,0.24576 0.141105,0 0.389689,0 0.629219,0.0756 0.237437,0.0753 0.248764,0.008 0.248764,-0.0679 0,-0.0725 0.01775,-0.15721 -0.08502,-0.19435 -0.107479,-0.0387 -0.326136,-0.11423 -0.394952,-0.27459 -0.06445,-0.16071 -0.208669,-0.40515 -0.114078,-0.70548 0,0 -0.09457,-0.45137 0.06736,-0.68425 0.162023,-0.23621 0.459039,-0.40496 0.561834,-0.40496 0.107659,0 0.249122,0.0756 0.364628,0.0367 0.115332,-0.0367 0.16202,-0.0835 0.287427,-0.0367 0.123712,0.0467 0.274405,0.13005 0.381884,0.13962 0.102751,0.0113 0.236054,0.029 0.313209,0.0836 0.07702,0.0592 0.249115,0.14297 0.31619,0.26502 0.0662,0.12371 0.0662,0.17833 0.05612,0.43215 -0.0077,0.25381 -0.0077,0.52717 0.03886,0.61205 0.04792,0.0852 0.04792,0.28259 -0.02878,0.35493 -0.07405,0.0761 -0.297018,0.19924 -0.409892,0.19924 -0.115329,0 -0.134504,0.0368 -0.134504,0.10464 0,0.0643 -0.03712,0.26184 -0.01913,0.31817 0.01913,0.058 0.01913,0.13335 0.13326,0.17987 0.115329,0.0469 0.55345,0.31817 0.698034,0.47875 0.142841,0.15896 0.39981,0.38383 0.420727,0.44173 0.01794,0.0563 -0.03834,0.0931 -0.03834,0.0931 0,0 0,0.0677 0.07668,0.18967 0.07405,0.12385 0.276635,0.48671 0.34353,0.74385 0.06589,0.25368 0.284488,0.95933 0.284488,1.0988 0,0.13999 0.144581,0.65058 0.144581,0.72293 0,0.0756 -0.08536,0.058 -0.08536,0.058 0,0 0.05627,0.22488 0.05627,0.3295 0,0.10282 -0.0096,0.17813 -0.09456,0.22486 -0.08654,0.0467 -0.08654,0.12205 -0.181509,0.12205 -0.09633,0 -0.0676,-0.0468 -0.162021,-0.0931 -0.09496,-0.0468 -0.182935,-0.0678 -0.16202,-0.15081 0.01746,-0.0853 0.0077,-0.31817 0.0077,-0.36836 0,-0.0467 -0.01799,-0.0927 -0.05627,-0.0927 -0.03866,0 -0.133255,-0.0469 -0.133255,-0.18656 0,-0.14294 -0.04964,-0.44364 -0.07702,-0.54477 -0.02874,-0.10577 0.01781,-0.28294 -0.02874,-0.36782 -0.04843,-0.0851 -0.42907,-0.519 -0.49788,-0.6412 -0.06447,-0.12206 -0.123711,-0.008 -0.123711,0.0579 0,0.0639 0.01135,0.67645 0.06759,0.7906 0.05612,0.11069 0,0.26154 0.107479,0.48673 0.102804,0.22628 0.341971,1.21418 0.380635,1.35418 0.03535,0.14157 0.142846,0.36002 0.150693,0.56571 0.0095,0.20694 0.11551,0.50765 -0.16202,0.49945 -0.2761,-0.0128 -0.428887,0.10102 -0.677653,0.018 -0.248584,-0.0852 -0.266557,0 -0.258173,0.10425 0.0095,0.10142 0.04792,0.4771 0.115329,0.65546 0.06585,0.1799 -0.08488,0.73426 0.0095,0.92394 0.09493,0.18654 0.210407,0.22173 0.239173,0.27982 0.03867,0.0754 0.0662,0.26495 -0.105924,0.56518 -0.171608,0.30068 -0.695092,0.44364 -0.790037,0.13159 -0.09791,-0.30802 0.01794,-0.36781 0.08536,-0.46895 0.06589,-0.10575 0.06589,-0.24578 -0.05002,-0.34688 -0.112334,-0.10462 -0.34317,-0.66978 -0.391604,-0.80195 -0.04648,-0.13161 -0.266557,-0.80797 -0.313071,-0.94918 -0.04791,-0.14157 -0.123674,-0.25403 -0.200866,-0.0933 -0.07699,0.15917 -0.258173,0.53483 -0.227669,0.70519 0.02561,0.16873 0.07349,0.33728 0.07349,0.49821 0,0.16071 -0.08654,0.78101 -0.142846,0.94955 -0.05612,0.16875 0,0.21528 0.03049,0.32128 0.0258,0.10103 0.172098,0.30856 0.03887,0.4013 -0.136422,0.097 -0.870177,0.38754 -0.985999,0.42586 -0.112381,0.035 -0.276143,-0.16031 -0.202112,-0.35819 0.07702,-0.19929 0.325781,-0.34692 0.364445,-0.42242 0.03834,-0.0754 0.03834,-0.10641 -0.01775,-0.30069 -0.05922,-0.19736 -0.105912,-1.06342 -0.0676,-1.19502 0.03887,-0.132 0.0676,-0.37602 -0.05612,-0.46114 -0.125052,-0.0836 -0.154167,-0.34863 -0.125052,-0.48848 0.02698,-0.13998 0.09457,-0.60401 0.07716,-0.67637 -0.02093,-0.0756 0.01744,-0.16092 -0.106278,-0.19926 -0.125052,-0.0368 -0.725548,-0.33735 -0.772244,-0.53519 -0.04792,-0.19907 0,-0.37567 0.151183,-0.56518 0.15422,-0.18653 0.727334,-1.06217 0.849264,-1.46696 0.123712,-0.40497 0.239041,-0.90304 0.239041,-1.18544 0,-0.27978 0.02093,-0.47888 -0.07702,-0.52561 -0.09457,-0.0467 -1.115775,-0.5366 -1.295723,-0.52701 -0.182938,0.008 -0.852249,-0.36781 -0.956786,-0.50764 -0.102751,-0.14294 -0.256924,-0.24402 -0.467379,-0.96719 -0.209918,-0.72622 -0.16202,-0.76301 -0.333587,-0.77278 -0.171965,-0.008 -0.58275,-0.15115 -0.698613,-0.37604 -0.112334,-0.22626 0.136424,-0.50763 -0.08654,-0.43356 -0.21826,0.0756 -0.236054,0.143 -0.390226,-0.12043 -0.150694,-0.26513 -0.974535,-2.15296 -1.221693,-2.97228 -0.248986,-0.81939 -0.237659,-0.37585 -0.237659,-0.23622 0,0.14294 0.08676,1.00882 0.151051,1.18559 0.069,0.17852 0.05939,0.44017 0.07702,0.71493 0.0176,0.27318 0.115506,1.23234 0.192479,1.6082 0.07405,0.37617 -0.06725,0.26199 -0.192479,0.3101 -0.123711,0.0469 -0.154173,0.14141 -0.141285,0.21861 0.0078,0.0725 -0.154173,1.39797 -0.184676,1.67234 -0.0258,0.2716 -0.26651,1.79491 -0.295453,1.92633 -0.02733,0.13161 -0.02733,0.19753 0,0.32128 0.02895,0.12208 0.449625,2.4633 0.449625,2.68939 0,0.22487 0.20225,1.14586 0.210278,1.2888 0.0095,0.13946 -0.02892,0.13163 -0.05612,0.21531 -0.02892,0.0848 0.01765,0.11359 0.06569,0.2362 0.04668,0.12207 0.2472,0.16858 0.21844,0.40301 -0.02733,0.23624 -0.141288,0.29084 -0.266515,0.45159 -0.123711,0.16035 -0.382244,0.88206 -0.820542,1.08918 -0.439864,0.20745 -0.783394,0.0882 -0.860591,-0.11901 -0.07699,-0.20696 -0.03847,-0.5108 0.218482,-0.61192 0,0 0.136557,-0.0755 0.154173,-0.15116 0.02093,-0.0772 0,-0.17832 -0.102802,-0.18794 -0.107658,-0.0111 -0.125229,-0.34028 -0.240913,-1.10991 -0.113766,-0.77142 -0.303308,-1.62615 -0.418994,-2.03095 -0.115504,-0.40496 -0.544394,-2.16256 -0.592471,-2.29416 -0.04649,-0.1316 -0.08519,-0.50785 -0.05612,-0.74405 0.02721,-0.23621 -0.02908,-1.81512 -0.192837,-1.10995 -0.162023,0.70518 -0.497527,1.86185 -0.561834,2.07886 -0.06737,0.2153 -0.08654,0.33735 -0.08654,0.43375 0,0.0934 0.09475,3.55407 0.03848,5.16223 0,0 0.0095,0.0933 -0.07558,0.10104 -0.08654,0.0131 0.04668,0.18167 0.06427,0.26674 0.02093,0.0836 0.171783,0.40477 -0.08519,0.5155 -0.258352,0.11246 -0.648401,0.15913 -0.91491,0.31169 -0.26986,0.14815 -0.964949,0.30068 -1.393661,0.13982 -0.431875,-0.16041 0.0078,-0.83679 0.639167,-0.79845 0,0 0.256611,-0.0286 0.04631,-0.0848 0,0 -0.08505,-0.009 -0.07685,-0.20742 0.0095,-0.19753 0.0095,-3.0365 -0.09322,-4.18533 -0.107656,-1.1488 -0.2794,-2.42436 -0.02093,-3.58104 0.256966,-1.1584 0.345133,-2.45472 0.183113,-2.48364 -0.162197,-0.029 -0.364625,-0.0469 -0.325959,-0.32966 0.03852,-0.28259 0.227889,-1.90056 0.314632,-2.40801 0.08519,-0.50628 0.372296,-0.94975 0.354682,-1.24211 -0.02093,-0.29078 -0.03045,-1.70126 -0.279402,-1.22096 -0.247066,0.47866 -0.407662,0.69397 -0.418992,1.29804 -0.0095,0.59932 -0.219861,1.63398 -0.297013,1.87979 -0.07371,0.2442 -0.218125,1.2145 -0.227891,1.47811 -0.0081,0.26185 -0.141417,0.12223 -0.239176,0.1126 -0.09475,-0.0111 -0.218437,-0.0968 -0.248941,0.0638 -0.02561,0.16088 0.03869,0.16088 0.06918,0.31187 0.02892,0.14921 0.102804,0.44017 -0.171963,0.65705 -0.279223,0.21841 -0.364403,0.45149 -0.754494,0.40478 -0.391787,-0.0467 -0.507293,-0.37584 -0.468762,-0.73252 0.03848,-0.35824 0.142846,-0.60265 0.276103,-0.73409 0.136602,-0.13024 0.08834,-0.18967 0.01135,-0.21547 -0.07716,-0.029 -0.248941,0.008 -0.231325,-0.21845 0.0209,-0.2249 0.308345,-2.1803 0.343709,-2.6414 0.03847,-0.45937 -0.0078,-1.51497 0.223166,-2.16223 0.226282,-0.64921 0.685498,-2.38115 0.80114,-3.20714 0.112384,-0.82737 0.561834,-1.31725 0.841279,-1.4762 0.27454,-0.16075 2.080543,-0.8291 2.175314,-0.9222 0.09322,-0.0949 0.23935,-0.27335 0.123669,-0.50626 -0.115644,-0.23603 -0.333938,-0.51078 -0.333938,-0.84812 0,-0.33903 0.03847,-0.63787 -0.07716,-0.68616 -0.112384,-0.0485 -0.297016,-0.13335 -0.314632,-0.17971 v 0"
       sodipodi:nodetypes="ccccccsccscccccccccccccccccccccscsccccsccccccccsscccccccsscscsccssscccsccccccccccccccccccscccccccccccccccscccccccccsccccccccsccccccccccccccccsccccccccccccccccccccccccccccccccccsccc" />
  </g>
</svg>
