<?xml version="1.0" encoding="UTF-8" standalone="no"?>
<!-- Created with Inkscape (http://www.inkscape.org/) -->

<svg
   xmlns:dc="http://purl.org/dc/elements/1.1/"
   xmlns:cc="http://creativecommons.org/ns#"
   xmlns:rdf="http://www.w3.org/1999/02/22-rdf-syntax-ns#"
   xmlns:svg="http://www.w3.org/2000/svg"
   xmlns="http://www.w3.org/2000/svg"
   xmlns:sodipodi="http://sodipodi.sourceforge.net/DTD/sodipodi-0.dtd"
   xmlns:inkscape="http://www.inkscape.org/namespaces/inkscape"
   width="61mm"
   height="61mm"
   viewBox="0 0 61 61"
   version="1.1"
   id="svg8"
   inkscape:version="0.92.2 (5c3e80d, 2017-08-06)"
   sodipodi:docname="22.svg">
  <defs
     id="defs2" />
  <sodipodi:namedview
     id="base"
     pagecolor="#ffffff"
     bordercolor="#666666"
     borderopacity="1.0"
     inkscape:pageopacity="0.0"
     inkscape:pageshadow="2"
     inkscape:zoom="1.979899"
     inkscape:cx="78.112636"
     inkscape:cy="101.08704"
     inkscape:document-units="mm"
     inkscape:current-layer="layer1"
     showgrid="false"
     inkscape:window-width="1920"
     inkscape:window-height="1057"
     inkscape:window-x="-8"
     inkscape:window-y="-8"
     inkscape:window-maximized="1" />
  <metadata
     id="metadata5">
    <rdf:RDF>
      <cc:Work
         rdf:about="">
        <dc:format>image/svg+xml</dc:format>
        <dc:type
           rdf:resource="http://purl.org/dc/dcmitype/StillImage" />
        <dc:title></dc:title>
      </cc:Work>
    </rdf:RDF>
  </metadata>
  <g
     inkscape:label="Layer 1"
     inkscape:groupmode="layer"
     id="layer1"
     transform="translate(0,-236)">
    <circle
       style="opacity:1;fill:#dc0a14;fill-opacity:1;fill-rule:nonzero;stroke:none;stroke-width:0.20430708;stroke-linecap:square;stroke-linejoin:round;stroke-miterlimit:4;stroke-dasharray:none;stroke-opacity:1;paint-order:stroke fill markers"
       id="path815"
       cx="30.5"
       cy="266.5"
       r="30" />
    <circle
       r="24"
       cy="266.5"
       cx="30.5"
       id="circle817"
       style="opacity:1;fill:#ffffff;fill-opacity:1;fill-rule:nonzero;stroke:none;stroke-width:0.16344567;stroke-linecap:square;stroke-linejoin:round;stroke-miterlimit:4;stroke-dasharray:none;stroke-opacity:1;paint-order:stroke fill markers" />
    <path
       inkscape:connector-curvature="0"
       id="path819"
       d="m 27.592524,269.97508 c -0.435562,0.0143 -0.854914,0.20148 -1.153187,0.53677 -0.398024,0.44688 -0.514714,1.07806 -0.303144,1.63791 l -1.706414,4.22775 c -0.76701,-0.46683 -1.645127,-0.71994 -2.542889,-0.73223 v 0.21162 c -2.281243,-0.0335 -4.272761,1.5408 -4.770431,3.76933 -0.497584,2.22907 0.63513,4.50156 2.713453,5.44383 2.078315,0.94219 4.532139,0.296 5.877588,-1.54864 l 0.17092,0.1242 c 1.60894,-2.20577 1.166407,-5.29377 -0.996927,-6.95801 l 0.292326,-0.72424 5.282151,4.59661 c -0.237649,0.49118 -0.18973,1.07291 0.124856,1.5186 0.314813,0.44577 0.846357,0.68495 1.388291,0.62488 l 0.313594,1.02668 h -0.328937 v 0.53525 h 1.363881 v -0.53525 h -0.47544 l -0.360331,-1.17991 c 0.452191,-0.22964 0.757479,-0.67279 0.811353,-1.17746 h 3.23e-4 l 0.903443,-0.0604 c 0.326677,2.45891 2.463927,4.26886 4.94067,4.18341 2.476747,-0.0856 4.484479,-2.03783 4.641378,-4.51344 l 0.210686,0.0152 c 0.08865,-1.38775 -0.40003,-2.75052 -1.350626,-3.76483 -0.95048,-1.01422 -2.277834,-1.58965 -3.66713,-1.58965 -0.780609,0 -1.550963,0.18243 -2.249183,0.53198 l -1.374699,-2.38389 0.509977,-1.14625 1.395627,-0.63696 c 0.200027,-0.0924 0.309906,-0.30942 0.263704,-0.52475 -0.04631,-0.21497 -0.236052,-0.36901 -0.455918,-0.37008 -1.154501,-0.0385 -2.309702,-0.057 -3.464817,-0.0509 -0.158941,-0.008 -0.30124,0.0967 -0.342533,0.25158 -0.04132,0.15385 0.02995,0.31572 0.17092,0.38974 0.60582,0.33276 1.226331,0.63796 1.859548,0.91526 l -0.500203,1.12446 h -8.714503 l 0.650547,-1.61149 c -0.223241,-0.37175 -0.200319,-0.84148 0.05791,-1.18975 0.258367,-0.34829 0.701102,-0.50652 1.121107,-0.40018 l 0.0039,9.2e-4 0.942855,0.23999 0.259174,0.0661 0.131852,-0.51884 -0.259171,-0.0668 -0.946696,-0.24106 h -0.0017 c -0.1449,-0.0371 -0.291895,-0.0514 -0.437081,-0.0474 z m -1.738856,4.3046 h 8.692551 l -2.431615,5.46711 c -0.162615,-0.0349 -0.330004,-0.0423 -0.494976,-0.0193 l -0.297878,-0.97537 h 0.41823 v -0.53567 h -1.363892 v 0.53567 h 0.386148 l 0.346737,1.13516 c -0.122553,0.0655 -0.235553,0.14528 -0.335922,0.24075 l -5.387171,-4.688 z m 9.22555,0.11849 1.178665,2.04335 c -1.181186,0.75813 -1.991829,1.97614 -2.236632,3.35927 -0.05804,0.32759 -0.08374,0.66011 -0.07611,0.99303 l -0.690661,0.0443 c -0.09484,-0.3674 -0.3252,-0.6853 -0.644614,-0.88936 l 2.40999,-5.41832 z m -13.233484,2.24564 c 0.75985,0.005 1.526419,0.22404 2.20453,0.67577 l -0.954354,2.36385 c -0.237982,0.48211 -0.740919,0.77411 -1.277045,0.74266 -0.09537,-5.1e-4 -0.18335,0.0492 -0.231257,0.13296 -0.04789,0.0819 -0.04822,0.18412 -6.93e-4,0.26679 0.04746,0.0822 0.135584,0.13408 0.230911,0.13408 0.786179,0.0327 1.508674,-0.43166 1.807931,-1.15995 v 7.9e-4 l 0.864388,-2.14229 c 1.625914,1.44154 1.818244,3.91359 0.434978,5.58964 -1.383364,1.67608 -3.84468,1.95353 -5.565724,0.62762 -1.721175,-1.32606 -2.082937,-3.77908 -0.818351,-5.54642 0.790384,-1.10478 2.038311,-1.69337 3.304727,-1.68561 z m 17.221528,9.7e-4 c 1.03945,0.0254 2.055838,0.45142 2.810435,1.23712 1.207447,1.25741 1.47109,3.14868 0.653683,4.68906 -0.817503,1.53988 -2.530886,2.38023 -4.247565,2.08258 -1.716583,-0.29766 -3.047874,-1.66603 -3.299825,-3.39173 l 3.533186,-0.23169 c 0.163537,0.21169 0.451326,0.28287 0.694497,0.17124 0.24304,-0.11109 0.377193,-0.37621 0.323707,-0.63834 -0.05335,-0.2623 -0.280364,-0.45319 -0.547649,-0.46047 l -1.764673,-3.05924 c 0.588553,-0.28383 1.220534,-0.41366 1.844204,-0.39857 z m -2.309874,0.66218 1.749327,3.03275 -0.08124,0.15983 -3.48366,0.22835 c -0.01708,-1.37536 0.667541,-2.665 1.815609,-3.42093 z"
       style="fill:#000000;fill-opacity:1;fill-rule:nonzero;stroke:none;stroke-width:0.34785837" />
    <path
       inkscape:connector-curvature="0"
       id="path20"
       style="fill:#000000;fill-opacity:1;fill-rule:nonzero;stroke:none;stroke-width:0.04028592"
       d="m 27.370112,245.76198 c 0,0 -0.448025,-0.44984 0.07843,-0.5269 0.526243,-0.0744 0.472434,0 0.584109,-0.3816 0.113128,-0.38138 0.23346,-0.56867 0.414524,-0.55264 0.182793,0.0178 0.646884,0.0516 0.775885,0.0619 0.130231,0.008 0.510155,-0.0497 0.595737,0 0.08572,0.0483 0.259548,0.11735 0.259548,0.30455 0,0.18708 -0.06234,0.76308 0.06961,0.824 0.127464,0.062 0.394267,0.17117 0.359303,0.34813 -0.03488,0.17847 -0.127578,0.17115 -0.308642,0.17115 -0.182634,0 -0.294311,0.0427 -0.284078,0.15262 0.0098,0.11016 0.0857,0.2972 0.07806,0.49902 -0.01152,0.20596 -0.166764,0.62245 -0.302967,0.81691 -0.13781,0.19438 -0.07707,0.27092 -0.06948,0.33921 0.01036,0.0692 0.09415,0.12612 0.163749,0.18731 0.06943,0.06 1.293297,0.8383 1.483016,0.97638 0.19,0.13644 0.519103,0.31468 0.57718,0.92566 0.06234,0.61091 0.01036,0.97629 0.155085,1.2737 0.146625,0.29738 0.250777,1.09527 0.345176,1.72481 0.09563,0.62547 0.17381,1.15506 0.181345,1.34208 0.01036,0.18725 0.154964,0.49196 0.189554,0.576 0.03507,0.084 0.775881,1.64096 0.941079,1.87735 0,0 0.08552,0.14515 0.01567,0.18737 -0.06915,0.0422 -0.104137,0.13622 0.01881,0.17819 0.120335,0.0423 0.24071,0.24514 0.291498,0.33961 0.05385,0.0923 0.130549,0.31341 0.06942,0.43225 -0.06217,0.12057 -0.224475,0.25394 -0.094,0.39899 0.128989,0.14509 0.221818,0.22189 0.310217,0.35568 0.0855,0.13771 0.379603,0.60473 0.414515,0.70496 0.03204,0.10269 0.108534,0.19708 0.21316,0.21344 0.104302,0.0141 0.484192,0.0613 0.66542,0.1262 0.179806,0.0689 0.446453,0.22188 0.578626,0.22188 0.127414,0 0.351897,0 0.568194,0.0689 0.214408,0.0683 0.224641,0.008 0.224641,-0.0619 0,-0.0665 0.01591,-0.14203 -0.07686,-0.17552 -0.09712,-0.0353 -0.294506,-0.10301 -0.35665,-0.24792 -0.05805,-0.14521 -0.18843,-0.36583 -0.103022,-0.63713 0,0 -0.08555,-0.40748 0.06072,-0.61787 0.146304,-0.21331 0.414516,-0.36574 0.507342,-0.36574 0.09722,0 0.224966,0.0692 0.329268,0.0338 0.104146,-0.0338 0.146303,-0.0744 0.259549,-0.0338 0.111721,0.0426 0.2478,0.11748 0.344844,0.1261 0.09275,0.012 0.213169,0.0262 0.282837,0.0745 0.06945,0.0528 0.224961,0.12896 0.285523,0.23926 0.05984,0.1116 0.05984,0.16109 0.05069,0.39006 -0.0088,0.22935 -0.0088,0.47605 0.03518,0.55274 0.0434,0.0761 0.0434,0.25537 -0.02606,0.32052 -0.06675,0.0699 -0.268215,0.18003 -0.370134,0.18003 -0.104144,0 -0.121464,0.034 -0.121464,0.0954 0,0.0584 -0.03348,0.23643 -0.01734,0.28729 0.01734,0.0515 0.01734,0.12031 0.120339,0.1623 0.104134,0.0419 0.499772,0.28732 0.630338,0.43249 0.128989,0.14353 0.361037,0.34661 0.379923,0.39873 0.0161,0.0499 -0.03475,0.0838 -0.03475,0.0838 0,0 0,0.0618 0.06912,0.17138 0.06679,0.11176 0.249808,0.43952 0.310214,0.67154 0.05954,0.22919 0.256899,0.86647 0.256899,0.99226 0,0.12644 0.130558,0.58755 0.130558,0.65282 0,0.0691 -0.07719,0.0516 -0.07719,0.0516 0,0 0.05084,0.20311 0.05084,0.2974 0,0.0938 -0.01036,0.1609 -0.08551,0.2031 -0.07804,0.042 -0.07804,0.11026 -0.163902,0.11026 -0.08693,0 -0.0609,-0.0421 -0.14631,-0.0839 -0.08586,-0.0423 -0.165196,-0.0617 -0.14631,-0.13625 0.01572,-0.0762 0.0087,-0.28733 0.0087,-0.33268 0,-0.0423 -0.01615,-0.0833 -0.05084,-0.0833 -0.03501,0 -0.120334,-0.0425 -0.120334,-0.16838 0,-0.12898 -0.04481,-0.40068 -0.06945,-0.49205 -0.02603,-0.0962 0.01598,-0.25548 -0.02603,-0.33219 -0.04365,-0.076 -0.387456,-0.46844 -0.449592,-0.57885 -0.05807,-0.11026 -0.11172,-0.008 -0.11172,0.0515 0,0.058 0.01046,0.6111 0.06089,0.71408 0.05069,0.0997 0,0.23607 0.09711,0.43952 0.0928,0.20425 0.308809,1.09648 0.343719,1.22281 0.03204,0.12798 0.128997,0.32519 0.136082,0.51099 0.01036,0.18664 0.104306,0.45834 -0.146308,0.45097 -0.249321,-0.0131 -0.38729,0.0922 -0.611928,0.015 -0.224478,-0.0761 -0.240708,0 -0.23314,0.095 0.01036,0.0925 0.0434,0.4309 0.104137,0.59174 0.0595,0.16269 -0.07672,0.66314 0.01036,0.83435 0.08581,0.1686 0.190007,0.20029 0.215975,0.25292 0.03508,0.0683 0.05983,0.23928 -0.09561,0.51022 -0.154966,0.27152 -0.627678,0.40051 -0.713419,0.11879 -0.08854,-0.27802 0.0161,-0.33215 0.07719,-0.42328 0.05953,-0.0965 0.05953,-0.22213 -0.04516,-0.31327 -0.101447,-0.0955 -0.309886,-0.60494 -0.353621,-0.72422 -0.04191,-0.11883 -0.240711,-0.72951 -0.282711,-0.85715 -0.04339,-0.12797 -0.111682,-0.22948 -0.181389,-0.0841 -0.06936,0.14376 -0.233126,0.483 -0.205584,0.63685 0.02323,0.15243 0.06636,0.30456 0.06636,0.44976 0,0.1453 -0.07805,0.70542 -0.128994,0.85757 -0.05069,0.15249 0,0.19447 0.02743,0.29018 0.02343,0.0921 0.155407,0.27851 0.03519,0.36225 -0.123191,0.0879 -0.785786,0.34999 -0.890372,0.38472 -0.101477,0.0322 -0.249369,-0.14495 -0.182514,-0.32346 0.06944,-0.18012 0.294186,-0.31324 0.329103,-0.3816 0.03475,-0.0689 0.03475,-0.0969 -0.01593,-0.27161 -0.05349,-0.17795 -0.09565,-0.9602 -0.0609,-1.07917 0.03517,-0.11889 0.0609,-0.33932 -0.05069,-0.41631 -0.112924,-0.0745 -0.139216,-0.3147 -0.112924,-0.44091 0.02422,-0.12646 0.08559,-0.54568 0.06963,-0.6108 -0.01881,-0.069 0.01567,-0.14543 -0.09598,-0.18015 -0.112918,-0.0341 -0.655178,-0.30446 -0.69735,-0.48311 -0.04339,-0.17975 0,-0.33943 0.136524,-0.51045 0.13926,-0.16837 0.6568,-0.95908 0.766903,-1.32475 0.111712,-0.36565 0.215856,-0.81528 0.215856,-1.07049 0,-0.25249 0.01881,-0.43221 -0.06941,-0.47448 -0.08557,-0.0424 -1.007562,-0.48453 -1.170068,-0.47587 -0.165193,0.008 -0.769591,-0.33227 -0.863989,-0.45862 -0.09275,-0.12899 -0.232006,-0.22023 -0.42205,-0.87337 -0.189564,-0.65569 -0.146306,-0.68886 -0.301239,-0.6977 -0.155288,-0.008 -0.526233,-0.13665 -0.630863,-0.33965 -0.101424,-0.20431 0.123195,-0.45849 -0.07806,-0.39157 -0.197094,0.069 -0.213162,0.12933 -0.35238,-0.10869 -0.136084,-0.23943 -0.880022,-1.94415 -1.103208,-2.68392 -0.224845,-0.74011 -0.214615,-0.33952 -0.214615,-0.21351 0,0.12924 0.07827,0.91106 0.1364,1.07062 0.06235,0.16123 0.05368,0.3975 0.06946,0.64557 0.01579,0.24695 0.104301,1.11282 0.173813,1.45246 0.06676,0.33944 -0.06065,0.23657 -0.173813,0.27986 -0.111712,0.0426 -0.13922,0.12775 -0.127582,0.19736 0.0074,0.0665 -0.139221,1.26239 -0.166769,1.51012 -0.02342,0.2453 -0.240662,1.62096 -0.266804,1.73971 -0.02456,0.11891 -0.02456,0.17841 0,0.29009 0.02621,0.11031 0.406023,2.22434 0.406023,2.42854 0,0.20311 0.182634,1.03489 0.189887,1.16384 0.01036,0.1258 -0.0262,0.11896 -0.05069,0.19443 -0.02617,0.0757 0.01579,0.10223 0.05928,0.21317 0.04212,0.11027 0.223225,0.15227 0.197251,0.36397 -0.02455,0.21327 -0.127587,0.26281 -0.240667,0.40771 -0.111712,0.14497 -0.345171,0.79671 -0.740962,0.98357 -0.397205,0.18758 -0.707416,0.0789 -0.777132,-0.10752 -0.06937,-0.1867 -0.03487,-0.46117 0.197295,-0.55249 0,0 0.123312,-0.0686 0.139221,-0.13644 0.01881,-0.0701 0,-0.16105 -0.0928,-0.16984 -0.09723,-0.0113 -0.11308,-0.30722 -0.217548,-1.00214 -0.10272,-0.69673 -0.273887,-1.46853 -0.378357,-1.83394 -0.104293,-0.36565 -0.491596,-1.95288 -0.535013,-2.07182 -0.04192,-0.11888 -0.07702,-0.45845 -0.05069,-0.67172 0.02445,-0.21351 -0.02648,-1.63929 -0.174135,-1.0025 -0.146309,0.63679 -0.449276,1.68147 -0.507348,1.87733 -0.06073,0.19438 -0.07806,0.30467 -0.07806,0.39167 0,0.0841 0.0857,3.20948 0.0349,4.66162 0,0 0.01036,0.084 -0.06836,0.0923 -0.07806,0.0127 0.04211,0.16415 0.05794,0.2408 0.01881,0.0745 0.155122,0.36568 -0.07702,0.46543 -0.233298,0.10116 -0.585515,0.14371 -0.826181,0.2815 -0.243682,0.13395 -0.871369,0.27164 -1.258504,0.1264 -0.389987,-0.14487 0.0072,-0.75549 0.577186,-0.72115 0,0 0.231722,-0.0258 0.04174,-0.0757 0,0 -0.07689,-0.009 -0.06925,-0.18732 0.01036,-0.17843 0.01036,-2.74204 -0.08414,-3.77943 -0.09721,-1.03737 -0.252303,-2.18926 -0.01881,-3.2338 0.23204,-1.04598 0.311659,-2.21654 0.165349,-2.24279 -0.146468,-0.0262 -0.329263,-0.0428 -0.294344,-0.29757 0.03493,-0.25519 0.20579,-1.71626 0.284115,-2.17447 0.07702,-0.45719 0.336192,-0.85773 0.320289,-1.12164 -0.01881,-0.26262 -0.02739,-1.53633 -0.252305,-1.10261 -0.223104,0.4323 -0.368126,0.62671 -0.37836,1.17217 -0.01036,0.54116 -0.198535,1.47552 -0.268205,1.69747 -0.06645,0.22047 -0.19697,1.09668 -0.205794,1.33488 -0.0073,0.23643 -0.127705,0.11031 -0.215984,0.10128 -0.08569,-0.0115 -0.197249,-0.088 -0.224793,0.0579 -0.02317,0.14536 0.03506,0.14536 0.06253,0.28165 0.02621,0.13486 0.0928,0.39748 -0.155286,0.59343 -0.252148,0.19719 -0.329065,0.40772 -0.681328,0.36555 -0.353788,-0.0421 -0.458088,-0.33944 -0.423294,-0.66146 0.03489,-0.32359 0.128988,-0.54422 0.249327,-0.66296 0.123346,-0.11759 0.07988,-0.17117 0.01047,-0.19462 -0.06963,-0.0262 -0.224795,0.008 -0.208891,-0.1972 0.01878,-0.20314 0.278439,-1.96882 0.310372,-2.3852 0.03488,-0.41486 -0.0072,-1.36818 0.201529,-1.95257 0.204334,-0.58619 0.619017,-2.15019 0.723446,-2.89612 0.101476,-0.74706 0.507348,-1.18942 0.759689,-1.33299 0.247912,-0.1452 1.878767,-0.74871 1.964345,-0.83281 0.08414,-0.0856 0.216134,-0.24682 0.111674,-0.45717 -0.104415,-0.2132 -0.301553,-0.46122 -0.301553,-0.76587 0,-0.30611 0.03487,-0.57593 -0.06962,-0.61958 -0.101457,-0.0435 -0.268208,-0.12048 -0.284127,-0.16229 v 0"
       sodipodi:nodetypes="ccccccsccscccccccccccccccccccccscsccccsccccccccsscccccccsscscsccssscccsccccccccccccccccccscccccccccccccccscccccccccsccccccccsccccccccccccccccsccccccccccccccccccccccccccccccccccsccc" />
  </g>
</svg>
