<?xml version="1.0" encoding="UTF-8" standalone="no"?>
<!-- Created with Inkscape (http://www.inkscape.org/) -->

<svg
   xmlns:dc="http://purl.org/dc/elements/1.1/"
   xmlns:cc="http://creativecommons.org/ns#"
   xmlns:rdf="http://www.w3.org/1999/02/22-rdf-syntax-ns#"
   xmlns:svg="http://www.w3.org/2000/svg"
   xmlns="http://www.w3.org/2000/svg"
   xmlns:sodipodi="http://sodipodi.sourceforge.net/DTD/sodipodi-0.dtd"
   xmlns:inkscape="http://www.inkscape.org/namespaces/inkscape"
   width="61mm"
   height="61mm"
   viewBox="0 0 61 61"
   version="1.1"
   id="svg8"
   inkscape:version="0.92.2 (5c3e80d, 2017-08-06)"
   sodipodi:docname="22.svg">
  <defs
     id="defs2" />
  <sodipodi:namedview
     id="base"
     pagecolor="#ffffff"
     bordercolor="#666666"
     borderopacity="1.0"
     inkscape:pageopacity="0.0"
     inkscape:pageshadow="2"
     inkscape:zoom="1.979899"
     inkscape:cx="133.49536"
     inkscape:cy="106.22708"
     inkscape:document-units="mm"
     inkscape:current-layer="layer1"
     showgrid="false"
     inkscape:window-width="1920"
     inkscape:window-height="1057"
     inkscape:window-x="-8"
     inkscape:window-y="-8"
     inkscape:window-maximized="1" />
  <metadata
     id="metadata5">
    <rdf:RDF>
      <cc:Work
         rdf:about="">
        <dc:format>image/svg+xml</dc:format>
        <dc:type
           rdf:resource="http://purl.org/dc/dcmitype/StillImage" />
        <dc:title></dc:title>
      </cc:Work>
    </rdf:RDF>
  </metadata>
  <g
     inkscape:label="Layer 1"
     inkscape:groupmode="layer"
     id="layer1"
     transform="translate(0,-236)">
    <circle
       style="opacity:1;fill:#dc0a14;fill-opacity:1;fill-rule:nonzero;stroke:none;stroke-width:0.20430708;stroke-linecap:square;stroke-linejoin:round;stroke-miterlimit:4;stroke-dasharray:none;stroke-opacity:1;paint-order:stroke fill markers"
       id="path815"
       cx="30.5"
       cy="266.5"
       r="30" />
    <circle
       r="24"
       cy="266.5"
       cx="30.5"
       id="circle817"
       style="opacity:1;fill:#ffffff;fill-opacity:1;fill-rule:nonzero;stroke:none;stroke-width:0.16344567;stroke-linecap:square;stroke-linejoin:round;stroke-miterlimit:4;stroke-dasharray:none;stroke-opacity:1;paint-order:stroke fill markers" />
    <rect
       style="opacity:1;fill:#000000;fill-opacity:1;fill-rule:nonzero;stroke:none;stroke-width:0.68147284;stroke-linecap:square;stroke-linejoin:round;stroke-miterlimit:4;stroke-dasharray:none;stroke-opacity:1;paint-order:stroke fill markers"
       id="rect815"
       width="2.5999999"
       height="46"
       x="29.200001"
       y="243.5" />
    <path
       inkscape:connector-curvature="0"
       id="path819"
       d="m 15.746293,260.00006 c -0.32264,0.01 -0.633267,0.14933 -0.854215,0.39765 -0.294828,0.33092 -0.381261,0.7985 -0.224537,1.21317 l -1.264007,3.13164 c -0.568153,-0.34582 -1.21861,-0.53313 -1.883617,-0.54235 v 0.15685 c -1.6898045,-0.0242 -3.164989,1.14123 -3.5336517,2.79212 -0.368581,1.65103 0.4704813,3.33444 2.0099635,4.03242 1.5394952,0.69792 3.3571392,0.21909 4.3537602,-1.14726 l 0.126607,0.092 c 1.191803,-1.63392 0.864002,-3.92114 -0.738459,-5.15404 l 0.216525,-0.53642 3.9127,3.40478 c -0.176036,0.36385 -0.140545,0.7949 0.09249,1.12502 0.233195,0.33018 0.626933,0.50733 1.028364,0.46276 l 0.232288,0.76046 h -0.243661 v 0.39665 h 1.01028 v -0.39665 h -0.352175 l -0.266911,-0.8739 c 0.334955,-0.17021 0.561095,-0.49843 0.600999,-0.87228 h 2.41e-4 l 0.669218,-0.0441 c 0.24198,1.82148 1.825126,3.16207 3.659742,3.09887 1.834623,-0.0629 3.321827,-1.50948 3.438047,-3.34328 l 0.156063,0.0117 c 0.06571,-1.02795 -0.296321,-2.03738 -1.000459,-2.78879 -0.70406,-0.75126 -1.687282,-1.1775 -2.716386,-1.1775 -0.578225,0 -1.148856,0.13515 -1.666054,0.39406 l -1.018292,-1.76584 0.377759,-0.84905 1.033793,-0.47184 c 0.14817,-0.0677 0.229559,-0.22921 0.195338,-0.38861 -0.03426,-0.15935 -0.174852,-0.27343 -0.337715,-0.27413 -0.855184,-0.0284 -1.710886,-0.0418 -2.566522,-0.0381 -0.117741,-0.005 -0.223145,0.072 -0.253733,0.18631 -0.03054,0.11397 0.02217,0.2339 0.12661,0.28863 0.448754,0.24654 0.90839,0.47271 1.377438,0.67796 l -0.370523,0.83308 h -6.455167 l 0.481887,-1.19374 c -0.165357,-0.27544 -0.148382,-0.62341 0.04285,-0.88137 0.191384,-0.25799 0.519334,-0.37506 0.830441,-0.29639 l 0.0026,8.3e-4 0.698408,0.17777 0.191981,0.0486 0.09767,-0.38448 -0.191978,-0.0486 -0.701254,-0.17856 h -0.0011 c -0.107333,-0.0266 -0.216218,-0.0384 -0.323763,-0.0358 z m -1.28804,3.18852 h 6.438909 l -1.801188,4.04971 c -0.120457,-0.0252 -0.244447,-0.031 -0.366647,-0.0151 l -0.220658,-0.72248 h 0.309802 v -0.39688 h -1.01028 v 0.39688 h 0.28603 l 0.256837,0.84082 c -0.09077,0.0475 -0.174475,0.10767 -0.248827,0.1783 l -3.990472,-3.47254 z m 6.833724,0.0877 0.873076,1.51363 c -0.874946,0.56165 -1.47542,1.46385 -1.656757,2.4883 -0.04298,0.24283 -0.06203,0.4891 -0.05632,0.73564 l -0.511599,0.0336 c -0.07025,-0.27219 -0.240888,-0.50763 -0.477492,-0.65888 l 1.785173,-4.01359 z m -9.802549,1.6635 c 0.562845,0.003 1.130676,0.16597 1.63298,0.5005 l -0.706935,1.75111 c -0.176271,0.35699 -0.548823,0.57327 -0.945942,0.55012 -0.07062,-2.3e-4 -0.135818,0.037 -0.171308,0.0984 -0.03553,0.0607 -0.03575,0.13634 -5.08e-4,0.19765 0.03519,0.0609 0.100438,0.0992 0.171051,0.0992 0.582345,0.0236 1.117516,-0.31962 1.339202,-0.85915 v 4.5e-4 l 0.640276,-1.58677 c 1.204379,1.06782 1.346842,2.89882 0.322205,4.14041 -1.024706,1.24159 -2.847898,1.44714 -4.122759,0.4648 -1.2749188,-0.98217 -1.5428937,-2.79908 -0.6061592,-4.10834 0.5854608,-0.81831 1.5098502,-1.2543 2.4479232,-1.24852 z m 12.756644,8.3e-4 c 0.769959,0.0189 1.522837,0.33446 2.081795,0.91651 0.894402,0.9313 1.089693,2.33237 0.48421,3.47325 -0.605556,1.14075 -1.874726,1.76324 -3.146335,1.54259 -1.271539,-0.22044 -2.257675,-1.23407 -2.444307,-2.51234 l 2.617164,-0.17155 c 0.121141,0.15682 0.334316,0.20946 0.514442,0.12686 0.180029,-0.0823 0.2794,-0.27858 0.239783,-0.47285 -0.0396,-0.1944 -0.207677,-0.33562 -0.405665,-0.34108 l -1.30716,-2.26609 c 0.435963,-0.21022 0.904094,-0.30636 1.366073,-0.29534 z m -1.711017,0.49067 1.295795,2.24643 -0.06016,0.11834 -2.580479,0.16925 c -0.01257,-1.01893 0.494471,-1.97407 1.344888,-2.53402 z"
       style="fill:#000000;fill-opacity:1;fill-rule:nonzero;stroke:none;stroke-width:0.25767183" />
    <path
       inkscape:connector-curvature="0"
       id="path20"
       style="fill:#000000;fill-opacity:1;fill-rule:nonzero;stroke:none;stroke-width:0.03629422"
       d="m 38.028076,256.61698 c 0,0 -0.403666,-0.40526 0.07076,-0.47461 0.474134,-0.0681 0.42566,0 0.526274,-0.34363 0.101933,-0.34376 0.210346,-0.51233 0.373483,-0.49805 0.164698,0.0169 0.582843,0.0474 0.699063,0.0552 0.117344,0.007 0.459657,-0.0459 0.536759,0 0.07713,0.0445 0.233858,0.10578 0.233858,0.27441 0,0.1686 -0.0561,0.68735 0.06275,0.74236 0.114843,0.0551 0.355228,0.15416 0.323734,0.31353 -0.03134,0.16085 -0.114951,0.15416 -0.278087,0.15416 -0.164555,0 -0.26517,0.0379 -0.255958,0.13739 0.008,0.0992 0.07712,0.2679 0.07044,0.44955 -0.01033,0.18564 -0.150251,0.56074 -0.272969,0.73588 -0.124166,0.17513 -0.06932,0.24419 -0.06264,0.30576 0.0081,0.0612 0.08475,0.1136 0.147534,0.16856 0.06264,0.0537 1.16525,0.75528 1.336191,0.8797 0.171189,0.12278 0.467712,0.28346 0.520035,0.83369 0.05611,0.55037 0.0081,0.87965 0.139735,1.14754 0.132107,0.26787 0.225945,0.98657 0.310995,1.55381 0.0862,0.56341 0.156606,1.04045 0.163392,1.20891 0.0081,0.16864 0.139624,0.44317 0.170792,0.51889 0.03152,0.0765 0.699066,1.47823 0.847905,1.69124 0,0 0.07697,0.13063 0.01418,0.16861 -0.06234,0.0376 -0.09384,0.12283 0.017,0.16071 0.108417,0.0377 0.216872,0.22078 0.262628,0.30584 0.04849,0.082 0.117636,0.28222 0.06264,0.38943 -0.05596,0.10849 -0.202249,0.22874 -0.08459,0.35934 0.116221,0.13077 0.199857,0.19996 0.279505,0.32038 0.07697,0.12405 0.342022,0.54482 0.37348,0.63519 0.02878,0.0929 0.09778,0.17746 0.192057,0.19213 0.09399,0.0138 0.436249,0.0548 0.599535,0.11375 0.162008,0.0622 0.402251,0.19991 0.52134,0.19991 0.114803,0 0.317056,0 0.511944,0.0613 0.19318,0.061 0.202395,0.007 0.202395,-0.0549 0,-0.0586 0.0144,-0.12786 -0.06913,-0.15811 -0.08746,-0.0315 -0.265347,-0.0932 -0.321337,-0.22336 -0.05244,-0.13072 -0.169775,-0.32957 -0.09282,-0.57388 0,0 -0.07697,-0.3672 0.05482,-0.55661 0.131825,-0.19216 0.373481,-0.32941 0.457116,-0.32941 0.08761,0 0.20269,0.0613 0.296669,0.0303 0.09384,-0.0303 0.13182,-0.0681 0.233853,-0.0303 0.100658,0.0377 0.223261,0.10577 0.310708,0.11355 0.08364,0.01 0.192059,0.0237 0.254831,0.0682 0.06264,0.0483 0.202684,0.11627 0.257256,0.21558 0.05382,0.10063 0.05382,0.14504 0.04565,0.35155 -0.0066,0.20643 -0.0066,0.4288 0.03163,0.49786 0.03897,0.0695 0.03897,0.22986 -0.02339,0.28871 -0.06019,0.0617 -0.241658,0.16209 -0.333492,0.16209 -0.09383,0 -0.109435,0.0303 -0.109435,0.085 0,0.0526 -0.03019,0.21299 -0.01558,0.25882 0.01558,0.0474 0.01558,0.10849 0.108417,0.14632 0.09384,0.0379 0.450296,0.25883 0.56793,0.38946 0.116217,0.1293 0.325293,0.3122 0.342312,0.35932 0.01456,0.0459 -0.03123,0.0756 -0.03123,0.0756 0,0 0,0.0552 0.06236,0.15429 0.06019,0.10076 0.225077,0.39594 0.279503,0.60511 0.05359,0.20636 0.231458,0.78038 0.231458,0.89382 0,0.11389 0.117636,0.52922 0.117636,0.58808 0,0.0613 -0.06943,0.0473 -0.06943,0.0473 0,0 0.04578,0.18295 0.04578,0.26806 0,0.0834 -0.0082,0.14489 -0.07696,0.18292 -0.07044,0.0377 -0.07044,0.0992 -0.147677,0.0992 -0.07836,0 -0.05502,-0.0378 -0.131822,-0.0759 -0.07731,-0.0378 -0.14884,-0.055 -0.131823,-0.12266 0.01417,-0.0696 0.0066,-0.25881 0.0066,-0.29965 0,-0.0377 -0.0146,-0.0756 -0.04578,-0.0756 -0.0315,0 -0.108419,-0.0379 -0.108419,-0.15172 0,-0.11632 -0.04041,-0.36092 -0.06264,-0.44315 -0.02334,-0.086 0.01445,-0.23018 -0.02334,-0.29924 -0.03941,-0.0694 -0.349095,-0.42217 -0.40508,-0.52159 -0.05246,-0.0991 -0.100654,-0.007 -0.100654,0.0472 0,0.0524 0.0097,0.55027 0.05501,0.64311 0.04565,0.0902 0,0.21275 0.08746,0.39594 0.08369,0.1841 0.278236,0.9877 0.309691,1.10159 0.02879,0.11517 0.116221,0.29287 0.122607,0.46018 0.0081,0.16833 0.09399,0.41297 -0.13182,0.40629 -0.224643,-0.011 -0.348952,0.0819 -0.551353,0.0143 -0.202249,-0.0695 -0.216872,0 -0.210052,0.0846 0.0081,0.0822 0.03897,0.38809 0.09383,0.53322 0.05357,0.14634 -0.06901,0.59727 0.0081,0.75156 0.07727,0.15174 0.171194,0.18036 0.194596,0.22766 0.03148,0.0611 0.05382,0.2155 -0.08618,0.45972 -0.139627,0.24462 -0.565539,0.36088 -0.642788,0.10706 -0.07966,-0.25056 0.01456,-0.29921 0.06943,-0.38147 0.05359,-0.0859 0.05359,-0.19996 -0.04066,-0.28219 -0.09139,-0.085 -0.279212,-0.54486 -0.318617,-0.65236 -0.03786,-0.10706 -0.216877,-0.65726 -0.254719,-0.77214 -0.03897,-0.11513 -0.100626,-0.20662 -0.16343,-0.0762 -0.06261,0.12948 -0.210052,0.43508 -0.185235,0.57363 0.02086,0.13724 0.05983,0.27438 0.05983,0.40529 0,0.13075 -0.07044,0.63532 -0.11622,0.77242 -0.04565,0.13728 0,0.17513 0.02484,0.26137 0.02095,0.0819 0.140021,0.251 0.03161,0.32642 -0.110993,0.0785 -0.70799,0.31528 -0.802225,0.34648 -0.09143,0.0288 -0.224672,-0.13048 -0.164442,-0.29144 0.06264,-0.1621 0.265064,-0.28218 0.296521,-0.34361 0.03123,-0.0611 0.03123,-0.0865 -0.0144,-0.24459 -0.04819,-0.16053 -0.08618,-0.86506 -0.05502,-0.97211 0.03165,-0.1074 0.05502,-0.30588 -0.04565,-0.37511 -0.101743,-0.0682 -0.125439,-0.28361 -0.101743,-0.39736 0.02196,-0.1139 0.07697,-0.49137 0.06276,-0.55025 -0.017,-0.0613 0.01418,-0.13089 -0.08646,-0.16207 -0.101742,-0.0303 -0.590314,-0.27444 -0.628306,-0.43536 -0.03897,-0.16193 0,-0.30558 0.123005,-0.45975 0.125476,-0.15173 0.591769,-0.86405 0.690973,-1.19331 0.100656,-0.32944 0.194488,-0.73459 0.194488,-0.96432 0,-0.22761 0.017,-0.38956 -0.06264,-0.42756 -0.07697,-0.0377 -0.907813,-0.43651 -1.054221,-0.42873 -0.148841,0.007 -0.693402,-0.29919 -0.778457,-0.41294 -0.08362,-0.11629 -0.209036,-0.1985 -0.380263,-0.78677 -0.170795,-0.59075 -0.131824,-0.62069 -0.271411,-0.62863 -0.139916,-0.007 -0.474135,-0.12297 -0.568404,-0.30591 -0.09139,-0.18406 0.110997,-0.41293 -0.07044,-0.35266 -0.177578,0.0613 -0.192056,0.11631 -0.317493,-0.0981 -0.122607,-0.21566 -0.792895,-1.75134 -0.993988,-2.41786 -0.202576,-0.66651 -0.193361,-0.30572 -0.193361,-0.19212 0,0.11626 0.07063,0.82063 0.122896,0.96442 0.05611,0.14523 0.04834,0.35806 0.06264,0.58157 0.01428,0.22222 0.09399,1.00248 0.156604,1.30822 0.06022,0.306 -0.05472,0.21311 -0.156604,0.25224 -0.100655,0.0379 -0.125437,0.11505 -0.114952,0.17784 0.0067,0.0587 -0.125435,1.13719 -0.150253,1.3604 -0.02094,0.22094 -0.216838,1.4601 -0.240385,1.56701 -0.02226,0.10706 -0.02226,0.16068 0,0.26134 0.02352,0.0992 0.365821,2.0038 0.365821,2.18773 0,0.18292 0.164552,0.93211 0.171084,1.04841 0.0081,0.11345 -0.0235,0.10707 -0.04565,0.17514 -0.0235,0.0692 0.01435,0.0927 0.05345,0.19217 0.03801,0.0991 0.201123,0.13711 0.177724,0.32778 -0.02226,0.19221 -0.114954,0.23661 -0.216839,0.36735 -0.100656,0.13044 -0.311,0.71755 -0.667606,0.88604 -0.357882,0.16876 -0.637384,0.0721 -0.700186,-0.097 -0.0626,-0.16838 -0.03134,-0.41554 0.177755,-0.49779 0,0 0.111105,-0.0612 0.125439,-0.12296 0.017,-0.0627 0,-0.14505 -0.08368,-0.15289 -0.08761,-0.01 -0.101889,-0.27679 -0.196011,-0.90286 -0.09259,-0.62754 -0.246774,-1.32284 -0.340901,-1.65211 -0.09398,-0.32942 -0.442926,-1.75917 -0.482038,-1.86623 -0.03787,-0.10706 -0.06928,-0.41312 -0.04565,-0.60527 0.02215,-0.19214 -0.02365,-1.47654 -0.156894,-0.90288 -0.131823,0.57363 -0.404797,1.51452 -0.457119,1.69104 -0.05483,0.17517 -0.07044,0.27446 -0.07044,0.35287 0,0.0759 0.07713,2.89111 0.03135,4.1993 0,0 0.0081,0.0757 -0.06151,0.0819 -0.07044,0.011 0.03803,0.14779 0.05229,0.217 0.01701,0.0682 0.139764,0.32924 -0.06928,0.41934 -0.210196,0.0917 -0.52755,0.12946 -0.744384,0.25356 -0.219562,0.12051 -0.7851,0.24458 -1.133904,0.11373 -0.351381,-0.13049 0.0067,-0.68072 0.520037,-0.64953 0,0 0.208781,-0.0233 0.03771,-0.0692 0,0 -0.06916,-0.008 -0.06249,-0.16875 0.0081,-0.16066 0.0081,-2.47005 -0.07581,-3.40463 -0.08761,-0.93449 -0.22733,-1.97212 -0.017,-2.91304 0.20907,-0.94231 0.280806,-1.99682 0.148984,-2.02034 -0.131966,-0.0237 -0.296666,-0.0379 -0.265205,-0.26819 0.03139,-0.22987 0.185409,-1.54602 0.255988,-1.95882 0.06928,-0.41184 0.302905,-0.7726 0.288574,-1.01039 -0.017,-0.23658 -0.02481,-1.38395 -0.227327,-0.99322 -0.201014,0.38935 -0.331681,0.5645 -0.340894,1.05591 -0.0081,0.48754 -0.178885,1.32917 -0.241658,1.52911 -0.05999,0.19867 -0.177471,0.98799 -0.185415,1.20242 -0.0069,0.21301 -0.115057,0.0994 -0.194598,0.0918 -0.07712,-0.01 -0.177724,-0.0783 -0.202541,0.0523 -0.02082,0.13087 0.03151,0.13087 0.05627,0.2537 0.02351,0.12136 0.08369,0.35805 -0.139912,0.53448 -0.227178,0.17765 -0.296485,0.36725 -0.613868,0.32928 -0.318765,-0.0377 -0.412743,-0.30573 -0.38139,-0.59588 0.03135,-0.29143 0.116219,-0.49027 0.224642,-0.59718 0.111137,-0.10592 0.07187,-0.15428 0.0097,-0.17526 -0.06276,-0.0236 -0.202542,0.007 -0.188208,-0.17771 0.01698,-0.18293 0.250873,-1.7736 0.279646,-2.14871 0.03134,-0.37366 -0.0067,-1.23235 0.181569,-1.75888 0.184106,-0.52812 0.557733,-1.93698 0.651824,-2.60889 0.09143,-0.67305 0.457113,-1.07156 0.684478,-1.20084 0.223364,-0.13079 1.692758,-0.67445 1.769865,-0.7502 0.07581,-0.077 0.194743,-0.22236 0.100622,-0.41182 -0.09411,-0.19201 -0.271699,-0.41547 -0.271699,-0.68991 0,-0.27581 0.03134,-0.51887 -0.06275,-0.55815 -0.09143,-0.0393 -0.241658,-0.10852 -0.255991,-0.14619 v 0"
       sodipodi:nodetypes="ccccccsccscccccccccccccccccccccscsccccsccccccccsscccccccsscscsccssscccsccccccccccccccccccscccccccccccccccscccccccccsccccccccsccccccccccccccccsccccccccccccccccccccccccccccccccccsccc" />
  </g>
</svg>
