<?xml version="1.0" encoding="UTF-8" standalone="no"?>
<!-- Created with Inkscape (http://www.inkscape.org/) -->

<svg
   xmlns:dc="http://purl.org/dc/elements/1.1/"
   xmlns:cc="http://creativecommons.org/ns#"
   xmlns:rdf="http://www.w3.org/1999/02/22-rdf-syntax-ns#"
   xmlns:svg="http://www.w3.org/2000/svg"
   xmlns="http://www.w3.org/2000/svg"
   xmlns:sodipodi="http://sodipodi.sourceforge.net/DTD/sodipodi-0.dtd"
   xmlns:inkscape="http://www.inkscape.org/namespaces/inkscape"
   width="61.599998mm"
   height="61.599998mm"
   viewBox="0 0 61.599998 61.599998"
   version="1.1"
   id="svg8"
   inkscape:version="0.92.2 (5c3e80d, 2017-08-06)"
   sodipodi:docname="11.svg">
  <defs
     id="defs2" />
  <sodipodi:namedview
     id="base"
     pagecolor="#ffffff"
     bordercolor="#666666"
     borderopacity="1.0"
     inkscape:pageopacity="0.0"
     inkscape:pageshadow="2"
     inkscape:zoom="1.979899"
     inkscape:cx="78.112636"
     inkscape:cy="101.08704"
     inkscape:document-units="mm"
     inkscape:current-layer="layer1"
     showgrid="false"
     inkscape:window-width="1920"
     inkscape:window-height="1057"
     inkscape:window-x="-8"
     inkscape:window-y="-8"
     inkscape:window-maximized="1" />
  <metadata
     id="metadata5">
    <rdf:RDF>
      <cc:Work
         rdf:about="">
        <dc:format>image/svg+xml</dc:format>
        <dc:type
           rdf:resource="http://purl.org/dc/dcmitype/StillImage" />
        <dc:title></dc:title>
      </cc:Work>
    </rdf:RDF>
  </metadata>
  <g
     inkscape:label="Layer 1"
     inkscape:groupmode="layer"
     id="layer1"
     transform="translate(0,-235.4)">
    <circle
       style="opacity:1;fill:#000000;fill-opacity:1;fill-rule:nonzero;stroke:none;stroke-width:0.20635015;stroke-linecap:square;stroke-linejoin:round;stroke-miterlimit:4;stroke-dasharray:none;stroke-opacity:1;paint-order:stroke fill markers"
       id="path815"
       cx="30.799999"
       cy="266.20001"
       r="30.299999" />
    <circle
       r="30"
       cy="266.20001"
       cx="30.799999"
       id="circle819"
       style="opacity:1;fill:#ffffff;fill-opacity:1;fill-rule:nonzero;stroke:none;stroke-width:0.20430708;stroke-linecap:square;stroke-linejoin:round;stroke-miterlimit:4;stroke-dasharray:none;stroke-opacity:1;paint-order:stroke fill markers" />
    <circle
       style="opacity:1;fill:#003c82;fill-opacity:1;fill-rule:nonzero;stroke:none;stroke-width:0.19068664;stroke-linecap:square;stroke-linejoin:round;stroke-miterlimit:4;stroke-dasharray:none;stroke-opacity:1;paint-order:stroke fill markers"
       id="circle821"
       cx="30.799999"
       cy="266.20001"
       r="28" />
    <rect
       style="opacity:1;fill:#ffffff;fill-opacity:1;fill-rule:nonzero;stroke:none;stroke-width:0.94913268;stroke-linecap:square;stroke-linejoin:round;stroke-miterlimit:4;stroke-dasharray:none;stroke-opacity:1;paint-order:stroke fill markers"
       id="rect815"
       width="4"
       height="58"
       x="28.799999"
       y="237.20001" />
    <path
       inkscape:connector-curvature="0"
       id="path819"
       d="m 13.215578,258.40006 c -0.387169,0.0118 -0.759923,0.17919 -1.025061,0.47718 -0.353795,0.3971 -0.457515,0.9582 -0.269445,1.4558 l -1.516814,3.75799 c -0.6817846,-0.41498 -1.4623342,-0.63977 -2.260346,-0.65082 v 0.18821 c -2.0277699,-0.029 -3.7979968,1.36948 -4.2403928,3.35057 -0.4422989,1.98123 0.5645788,4.00133 2.4119633,4.83891 1.8473979,0.8375 4.0285775,0.26292 5.2245265,-1.37671 l 0.151928,0.1104 c 1.430167,-1.9607 1.036805,-4.70538 -0.886154,-6.18488 l 0.259832,-0.6437 4.695253,4.08575 c -0.211245,0.43663 -0.168654,0.95388 0.110976,1.35003 0.279834,0.39621 0.752322,0.6088 1.23404,0.55531 l 0.278746,0.91255 h -0.292388 v 0.47599 h 1.212339 v -0.47599 H 17.88197 l -0.320296,-1.04867 c 0.40195,-0.20426 0.673317,-0.59813 0.721202,-1.04675 h 2.86e-4 l 0.803062,-0.053 c 0.290377,2.18579 2.190158,3.79452 4.391704,3.71867 2.201553,-0.0755 3.986203,-1.81138 4.125668,-4.01196 l 0.187275,0.014 c 0.07884,-1.23353 -0.355585,-2.44485 -1.200554,-3.34656 -0.844874,-0.90149 -2.024743,-1.41299 -3.259672,-1.41299 -0.693871,0 -1.378631,0.16219 -1.999272,0.47288 l -1.221952,-2.11901 0.453312,-1.01887 1.240556,-0.56622 c 0.177803,-0.0813 0.275469,-0.27504 0.234404,-0.46633 -0.04112,-0.19121 -0.209822,-0.32812 -0.405259,-0.32895 -1.026222,-0.034 -2.053068,-0.0503 -3.079833,-0.0456 -0.141289,-0.006 -0.267776,0.0863 -0.304482,0.22358 -0.03665,0.13676 0.02659,0.28066 0.151933,0.34635 0.538507,0.29584 1.090072,0.56725 1.652931,0.81356 l -0.444624,0.99967 h -7.746223 l 0.578266,-1.43248 c -0.19843,-0.33054 -0.178058,-0.74809 0.05142,-1.05766 0.229662,-0.30958 0.623202,-0.45007 0.996533,-0.35566 l 0.003,10e-4 0.838093,0.21333 0.230377,0.0582 0.117202,-0.46137 -0.230374,-0.0582 -0.841508,-0.21426 h -0.0013 c -0.128796,-0.0319 -0.259457,-0.046 -0.388513,-0.0429 z m -1.545652,3.82623 h 7.726713 l -2.161433,4.85968 c -0.144549,-0.0302 -0.293336,-0.0373 -0.439977,-0.018 l -0.26479,-0.86696 h 0.371763 v -0.47627 h -1.21234 v 0.47627 h 0.343237 l 0.308206,1.00897 c -0.108933,0.057 -0.209371,0.12919 -0.298593,0.21395 l -4.788581,-4.16705 z m 8.20049,0.10534 1.047696,1.81637 c -1.049939,0.67397 -1.77051,1.75661 -1.988114,2.98596 -0.05157,0.2914 -0.07443,0.58692 -0.06759,0.88277 l -0.613921,0.0404 c -0.08429,-0.32663 -0.289066,-0.60915 -0.572991,-0.79067 l 2.142213,-4.8163 z m -11.7630918,1.99621 c 0.6754158,0.004 1.3568162,0.19916 1.9595838,0.6006 l -0.8483251,2.10134 c -0.2115271,0.42838 -0.6585893,0.68791 -1.1351332,0.66014 -0.084738,-3.7e-4 -0.1629822,0.0443 -0.2055705,0.11811 -0.042641,0.0727 -0.042905,0.1636 -5.997e-4,0.2372 0.042236,0.0729 0.1205258,0.11908 0.2052604,0.11908 0.6988157,0.0284 1.3410235,-0.38354 1.6070475,-1.03098 v 5.6e-4 l 0.7683336,-1.90413 c 1.445258,1.2814 1.616214,3.47861 0.386646,4.96851 -1.2296486,1.48991 -3.4174859,1.73658 -4.9473238,0.55776 -1.5299163,-1.17863 -1.8514858,-3.35894 -0.7274022,-4.93005 0.702555,-0.98197 1.8118249,-1.50516 2.9375167,-1.49822 z m 15.3080168,0.001 c 0.923953,0.0228 1.827409,0.40135 2.498162,1.09981 1.073285,1.11756 1.307634,2.79885 0.581053,4.16792 -0.72667,1.36889 -2.249677,2.11589 -3.775612,1.85111 -1.525852,-0.26454 -2.709219,-1.48091 -2.933176,-3.01482 l 3.140604,-0.20587 c 0.145371,0.1882 0.401181,0.25136 0.617331,0.15225 0.216038,-0.0987 0.335283,-0.33432 0.287741,-0.56743 -0.0475,-0.23327 -0.249211,-0.40275 -0.486798,-0.4093 l -1.568598,-2.71931 c 0.523158,-0.25226 1.084918,-0.36765 1.639293,-0.3544 z m -2.053226,0.58881 1.554959,2.69572 -0.07218,0.14201 -3.096583,0.2031 c -0.01509,-1.22273 0.593367,-2.36889 1.61387,-3.04083 z"
       style="fill:#ffffff;fill-opacity:1;fill-rule:nonzero;stroke:none;stroke-width:0.30920711" />
    <path
       inkscape:connector-curvature="0"
       id="path20"
       style="fill:#ffffff;fill-opacity:1;fill-rule:nonzero;stroke:none;stroke-width:0.04461263"
       d="m 39.04594,253.8192 c 0,0 -0.496142,-0.49822 0.08693,-0.58347 0.582751,-0.0835 0.523171,0 0.646836,-0.42242 0.125281,-0.42258 0.258531,-0.62982 0.459038,-0.61225 0.202428,0.0211 0.716364,0.058 0.859209,0.0677 0.144224,0.008 0.564956,-0.0562 0.659725,0 0.09475,0.0546 0.287426,0.13004 0.287426,0.33731 0,0.20728 -0.06899,0.84498 0.07716,0.91262 0.141152,0.0675 0.436607,0.18951 0.397896,0.38542 -0.03847,0.19771 -0.141283,0.1895 -0.341791,0.1895 -0.202249,0 -0.325916,0.0469 -0.31459,0.1689 0.0093,0.12208 0.09474,0.32933 0.08654,0.55265 -0.01273,0.22821 -0.184675,0.68931 -0.335503,0.90461 -0.152612,0.21528 -0.08524,0.30018 -0.07702,0.37586 0.0095,0.0755 0.104181,0.13964 0.181331,0.20725 0.07702,0.0658 1.432191,0.92848 1.642288,1.0814 0.210408,0.15095 0.574858,0.34844 0.639166,1.02486 0.06899,0.67658 0.0095,1.08136 0.171745,1.41067 0.162374,0.32931 0.277706,1.2128 0.382241,1.91012 0.105922,0.69258 0.19248,1.27905 0.200819,1.48612 0.0095,0.20729 0.171611,0.54482 0.209919,0.63786 0.03871,0.0935 0.859208,1.81723 1.042145,2.07905 0,0 0.09457,0.16058 0.01744,0.20731 -0.07664,0.0466 -0.115333,0.15098 0.02092,0.19753 0.133255,0.0467 0.266558,0.27141 0.322795,0.37597 0.05957,0.10114 0.144581,0.34695 0.07702,0.47874 -0.06882,0.13336 -0.248584,0.28119 -0.104002,0.44173 0.142844,0.16075 0.24564,0.24582 0.343532,0.39384 0.09457,0.15253 0.420372,0.66978 0.459038,0.78083 0.03535,0.11385 0.120185,0.21821 0.236052,0.2362 0.115506,0.0174 0.53619,0.0673 0.736878,0.13983 0.199126,0.0767 0.494404,0.24576 0.640771,0.24576 0.141105,0 0.389689,0 0.62922,0.0756 0.237435,0.0753 0.248763,0.008 0.248763,-0.0679 0,-0.0725 0.01776,-0.15721 -0.08502,-0.19435 -0.107479,-0.0387 -0.326136,-0.11423 -0.39495,-0.27459 -0.06445,-0.16071 -0.20867,-0.40515 -0.114079,-0.70548 0,0 -0.09457,-0.45137 0.06736,-0.68425 0.162023,-0.23621 0.459039,-0.40496 0.561836,-0.40496 0.107658,0 0.249121,0.0756 0.364627,0.0367 0.115332,-0.0367 0.16202,-0.0835 0.287428,-0.0367 0.123711,0.0467 0.274404,0.13005 0.381884,0.13962 0.102752,0.0113 0.236054,0.029 0.313207,0.0836 0.07702,0.0592 0.249117,0.14297 0.316192,0.26502 0.0662,0.12371 0.0662,0.17833 0.05612,0.43215 -0.0077,0.25381 -0.0077,0.52717 0.03886,0.61205 0.04792,0.0852 0.04792,0.28259 -0.02878,0.35493 -0.07405,0.0761 -0.297017,0.19924 -0.409892,0.19924 -0.11533,0 -0.134504,0.0368 -0.134504,0.10464 0,0.0643 -0.03712,0.26184 -0.01913,0.31817 0.01913,0.058 0.01913,0.13335 0.133259,0.17987 0.115329,0.0469 0.55345,0.31817 0.698033,0.47875 0.142841,0.15896 0.399811,0.38383 0.420729,0.44173 0.01794,0.0563 -0.03834,0.0931 -0.03834,0.0931 0,0 0,0.0677 0.07668,0.18967 0.07405,0.12385 0.276634,0.48671 0.343531,0.74385 0.06589,0.25368 0.284486,0.95933 0.284486,1.0988 0,0.13999 0.144582,0.65058 0.144582,0.72293 0,0.0756 -0.08536,0.058 -0.08536,0.058 0,0 0.05627,0.22488 0.05627,0.3295 0,0.10282 -0.0096,0.17813 -0.09456,0.22486 -0.08654,0.0467 -0.08654,0.12205 -0.18151,0.12205 -0.09633,0 -0.0676,-0.0468 -0.162019,-0.0931 -0.09496,-0.0468 -0.182936,-0.0678 -0.162021,-0.15081 0.01745,-0.0853 0.0077,-0.31817 0.0077,-0.36836 0,-0.0467 -0.01799,-0.0927 -0.05627,-0.0927 -0.03866,0 -0.133254,-0.0469 -0.133254,-0.18656 0,-0.14294 -0.04964,-0.44364 -0.07702,-0.54477 -0.02874,-0.10577 0.01781,-0.28294 -0.02874,-0.36782 -0.04843,-0.0851 -0.429068,-0.519 -0.497879,-0.6412 -0.06447,-0.12206 -0.123712,-0.008 -0.123712,0.0579 0,0.0639 0.01136,0.67645 0.06759,0.7906 0.05612,0.11069 0,0.26154 0.10748,0.48673 0.102803,0.22628 0.341971,1.21418 0.380636,1.35418 0.03535,0.14157 0.142844,0.36002 0.150693,0.56571 0.0095,0.20694 0.115509,0.50765 -0.16202,0.49945 -0.276102,-0.0128 -0.428889,0.10102 -0.677655,0.018 -0.248583,-0.0852 -0.266556,0 -0.258171,0.10425 0.0095,0.10142 0.04792,0.4771 0.115329,0.65546 0.06585,0.1799 -0.08488,0.73426 0.0095,0.92394 0.09493,0.18654 0.210409,0.22173 0.239174,0.27982 0.03867,0.0754 0.0662,0.26495 -0.105925,0.56518 -0.171609,0.30068 -0.69509,0.44364 -0.790038,0.13159 -0.09791,-0.30802 0.01794,-0.36781 0.08536,-0.46895 0.06589,-0.10575 0.06589,-0.24578 -0.05002,-0.34688 -0.112335,-0.10462 -0.343172,-0.66978 -0.391605,-0.80195 -0.04648,-0.13161 -0.266558,-0.80797 -0.313071,-0.94918 -0.04791,-0.14157 -0.123675,-0.25403 -0.200867,-0.0933 -0.07699,0.15917 -0.258172,0.53483 -0.227668,0.70519 0.02562,0.16873 0.07349,0.33728 0.07349,0.49821 0,0.16071 -0.08654,0.78101 -0.142846,0.94955 -0.05612,0.16875 0,0.21528 0.03049,0.32128 0.02579,0.10103 0.1721,0.30856 0.03887,0.4013 -0.136421,0.097 -0.870178,0.38754 -0.985998,0.42586 -0.112382,0.035 -0.276144,-0.16031 -0.202113,-0.35819 0.07702,-0.19929 0.325783,-0.34692 0.364446,-0.42242 0.03834,-0.0754 0.03834,-0.10641 -0.01776,-0.30069 -0.05922,-0.19736 -0.105912,-1.06342 -0.0676,-1.19502 0.03887,-0.132 0.0676,-0.37602 -0.05612,-0.46114 -0.125053,-0.0836 -0.15417,-0.34863 -0.125053,-0.48848 0.02698,-0.13998 0.09457,-0.60401 0.07716,-0.67637 -0.02093,-0.0756 0.01745,-0.16092 -0.106278,-0.19926 -0.125054,-0.0368 -0.72555,-0.33735 -0.772245,-0.53519 -0.04792,-0.19907 0,-0.37567 0.151184,-0.56518 0.154218,-0.18653 0.727334,-1.06217 0.849263,-1.46696 0.123711,-0.40497 0.23904,-0.90304 0.23904,-1.18544 0,-0.27978 0.02093,-0.47888 -0.07702,-0.52561 -0.09457,-0.0467 -1.115773,-0.5366 -1.295722,-0.52701 -0.182939,0.008 -0.85225,-0.36781 -0.956786,-0.50764 -0.102752,-0.14294 -0.256923,-0.24402 -0.467378,-0.96719 -0.209919,-0.72622 -0.162021,-0.76301 -0.333586,-0.77278 -0.171967,-0.008 -0.582752,-0.15115 -0.698616,-0.37604 -0.112333,-0.22626 0.136426,-0.50763 -0.08654,-0.43356 -0.21826,0.0756 -0.236053,0.143 -0.390225,-0.12043 -0.150693,-0.26513 -0.974535,-2.15296 -1.221692,-2.97228 -0.248986,-0.81939 -0.23766,-0.37585 -0.23766,-0.23622 0,0.14294 0.08676,1.00882 0.151051,1.18559 0.069,0.17852 0.05939,0.44017 0.07702,0.71493 0.01759,0.27318 0.115508,1.23234 0.19248,1.6082 0.07405,0.37617 -0.06725,0.26199 -0.19248,0.3101 -0.123712,0.0469 -0.154172,0.14141 -0.141284,0.21861 0.0078,0.0725 -0.154172,1.39797 -0.184677,1.67234 -0.02579,0.2716 -0.26651,1.79491 -0.295453,1.92633 -0.02733,0.13161 -0.02733,0.19753 0,0.32128 0.02895,0.12208 0.449626,2.4633 0.449626,2.68939 0,0.22487 0.202249,1.14586 0.210277,1.2888 0.0095,0.13946 -0.02892,0.13163 -0.05612,0.21531 -0.02892,0.0848 0.01765,0.11359 0.06569,0.2362 0.04668,0.12207 0.247201,0.16858 0.218439,0.40301 -0.02733,0.23624 -0.141286,0.29084 -0.266514,0.45159 -0.123712,0.16035 -0.382243,0.88206 -0.820541,1.08918 -0.439864,0.20745 -0.783394,0.0882 -0.860591,-0.11901 -0.07699,-0.20696 -0.03847,-0.5108 0.218481,-0.61192 0,0 0.136556,-0.0755 0.154174,-0.15116 0.02093,-0.0772 0,-0.17832 -0.102803,-0.18794 -0.107658,-0.0111 -0.125229,-0.34028 -0.240914,-1.10991 -0.113764,-0.77142 -0.303306,-1.62615 -0.418993,-2.03095 -0.115504,-0.40496 -0.544394,-2.16256 -0.59247,-2.29416 -0.04649,-0.1316 -0.08519,-0.50785 -0.05612,-0.74405 0.02721,-0.23621 -0.02908,-1.81512 -0.192836,-1.10995 -0.162021,0.70518 -0.497528,1.86185 -0.561835,2.07886 -0.06737,0.2153 -0.08654,0.33735 -0.08654,0.43375 0,0.0934 0.09475,3.55407 0.03848,5.16223 0,0 0.0095,0.0933 -0.07558,0.10104 -0.08654,0.0131 0.04668,0.18167 0.06427,0.26674 0.02092,0.0836 0.171784,0.40477 -0.08519,0.5155 -0.258351,0.11246 -0.6484,0.15913 -0.91491,0.31169 -0.269858,0.14815 -0.964948,0.30068 -1.39366,0.13982 -0.431876,-0.16041 0.0078,-0.83679 0.639167,-0.79845 0,0 0.25661,-0.0286 0.04631,-0.0848 0,0 -0.08505,-0.009 -0.07685,-0.20742 0.0095,-0.19753 0.0095,-3.0365 -0.09322,-4.18533 -0.107657,-1.1488 -0.279401,-2.42436 -0.02094,-3.58104 0.256967,-1.1584 0.345134,-2.45472 0.183115,-2.48364 -0.162199,-0.029 -0.364627,-0.0469 -0.325961,-0.32966 0.03852,-0.28259 0.227889,-1.90056 0.314632,-2.40801 0.08519,-0.50628 0.372297,-0.94975 0.354682,-1.24211 -0.02094,-0.29078 -0.03045,-1.70126 -0.279401,-1.22096 -0.247067,0.47866 -0.407663,0.69397 -0.418991,1.29804 -0.0095,0.59932 -0.219862,1.63398 -0.297015,1.87979 -0.07371,0.2442 -0.218125,1.2145 -0.227891,1.47811 -0.0081,0.26185 -0.141416,0.12223 -0.239175,0.1126 -0.09475,-0.0111 -0.218438,-0.0968 -0.248942,0.0638 -0.02562,0.16088 0.03869,0.16088 0.06918,0.31187 0.02892,0.14921 0.102804,0.44017 -0.171965,0.65705 -0.279223,0.21841 -0.364403,0.45149 -0.754492,0.40478 -0.391788,-0.0467 -0.507295,-0.37584 -0.468762,-0.73252 0.03848,-0.35824 0.142844,-0.60265 0.276103,-0.73409 0.1366,-0.13024 0.08834,-0.18967 0.01136,-0.21547 -0.07716,-0.029 -0.248942,0.008 -0.231324,-0.21845 0.02089,-0.2249 0.308344,-2.1803 0.343709,-2.6414 0.03847,-0.45937 -0.0078,-1.51497 0.223165,-2.16223 0.226282,-0.64921 0.685498,-2.38115 0.801141,-3.20714 0.112383,-0.82737 0.561834,-1.31725 0.84128,-1.4762 0.274539,-0.16075 2.080541,-0.8291 2.175312,-0.9222 0.09322,-0.0949 0.239352,-0.27335 0.123671,-0.50626 -0.115646,-0.23603 -0.33394,-0.51078 -0.33394,-0.84812 0,-0.33903 0.03847,-0.63787 -0.07716,-0.68616 -0.112385,-0.0485 -0.297016,-0.13335 -0.314632,-0.17971 v 0"
       sodipodi:nodetypes="ccccccsccscccccccccccccccccccccscsccccsccccccccsscccccccsscscsccssscccsccccccccccccccccccscccccccccccccccscccccccccsccccccccsccccccccccccccccsccccccccccccccccccccccccccccccccccsccc" />
  </g>
</svg>
