<?xml version="1.0" encoding="UTF-8" standalone="no"?>
<!-- Created with Inkscape (http://www.inkscape.org/) -->

<svg
   xmlns:dc="http://purl.org/dc/elements/1.1/"
   xmlns:cc="http://creativecommons.org/ns#"
   xmlns:rdf="http://www.w3.org/1999/02/22-rdf-syntax-ns#"
   xmlns:svg="http://www.w3.org/2000/svg"
   xmlns="http://www.w3.org/2000/svg"
   xmlns:sodipodi="http://sodipodi.sourceforge.net/DTD/sodipodi-0.dtd"
   xmlns:inkscape="http://www.inkscape.org/namespaces/inkscape"
   width="61.400002mm"
   height="81.400002mm"
   viewBox="0 0 61.400002 81.400002"
   version="1.1"
   id="svg825"
   inkscape:version="0.91 r13725"
   sodipodi:docname="new.svg">
  <defs
     id="defs819" />
  <sodipodi:namedview
     id="base"
     pagecolor="#ffffff"
     bordercolor="#666666"
     borderopacity="1.0"
     inkscape:pageopacity="0.0"
     inkscape:pageshadow="2"
     inkscape:zoom="2.5990043"
     inkscape:cx="96.451341"
     inkscape:cy="161.51577"
     inkscape:document-units="mm"
     inkscape:current-layer="layer1"
     showgrid="false"
     fit-margin-top="0"
     fit-margin-left="0"
     fit-margin-right="0"
     fit-margin-bottom="0"
     showborder="true"
     inkscape:window-width="1600"
     inkscape:window-height="1135"
     inkscape:window-x="1600"
     inkscape:window-y="0"
     inkscape:window-maximized="1" />
  <metadata
     id="metadata822">
    <rdf:RDF>
      <cc:Work
         rdf:about="">
        <dc:format>image/svg+xml</dc:format>
        <dc:type
           rdf:resource="http://purl.org/dc/dcmitype/StillImage" />
        <dc:title />
      </cc:Work>
    </rdf:RDF>
  </metadata>
  <g
     inkscape:label="Layer 1"
     inkscape:groupmode="layer"
     id="layer1"
     transform="translate(222.83333,-284.04641)">
    <rect
       style="opacity:1;fill:#000000;fill-opacity:1;fill-rule:nonzero;stroke:none;stroke-width:0.57753444;stroke-linecap:square;stroke-linejoin:round;stroke-miterlimit:4;stroke-dasharray:none;stroke-opacity:1;paint-order:stroke fill markers"
       id="rect1373"
       width="60.400002"
       height="80.400002"
       x="-222.33333"
       y="284.54642"
       rx="3.8"
       ry="3.8" />
    <rect
       y="284.74643"
       x="-222.13333"
       height="80"
       width="60"
       id="rect1375"
       style="opacity:1;fill:#ffffff;fill-opacity:1;fill-rule:nonzero;stroke:none;stroke-width:0.57418531;stroke-linecap:square;stroke-linejoin:round;stroke-miterlimit:4;stroke-dasharray:none;stroke-opacity:1;paint-order:stroke fill markers"
       rx="3.5999999"
       ry="3.5999999" />
    <rect
       style="opacity:1;fill:#006e3c;fill-opacity:1;fill-rule:nonzero;stroke:none;stroke-width:0.54905295;stroke-linecap:square;stroke-linejoin:round;stroke-miterlimit:4;stroke-dasharray:none;stroke-opacity:1;paint-order:stroke fill markers"
       id="rect1385"
       width="57"
       height="77"
       x="-220.63333"
       y="286.2464"
       rx="2.0999999"
       ry="2.0999999" />
    <rect
       style="opacity:1;fill:#fad20a;fill-opacity:1;fill-rule:nonzero;stroke:none;stroke-width:1.46507215;stroke-linecap:square;stroke-linejoin:round;stroke-miterlimit:4;stroke-dasharray:none;stroke-opacity:1;paint-order:stroke fill markers"
       id="rect860"
       width="40"
       height="40"
       x="-212.13333"
       y="304.74643" />
    <path
       style="fill:#003c82;stroke:none;stroke-width:0.81662261;fill-opacity:1"
       d="m -202.25149,311.65872 c 0.066,-0.0928 0.13717,-0.18081 0.21463,-0.26183 0,0 2.20616,-2.53423 3.91136,-2.61719 2.84718,-0.13832 7.68269,-0.0953 15.03444,5.4803 6.43539,4.88062 8.71417,12.3016 8.54979,15.19638 -0.0616,1.0929 -0.34448,1.8902 -0.67039,2.46057 -0.20868,0.3794 -0.95616,1.11371 -1.19463,1.2614 l -2.50698,1.63091 c 0,0 -1.15701,-1.18426 -2.2697,-2.987 -1.11266,-1.80218 -1.70468,-3.75629 -1.70468,-3.75629 l 1.46616,-1.37546 c 0,0 0.86343,0.67717 1.5688,-0.0312 0.3809,-0.38291 0.63303,-1.94405 -0.004,-2.81906 -1.34797,-1.85017 -3.55404,-2.62241 -5.68576,-4.30625 -1.89533,-1.4975 -6.06496,-6.43515 -7.38229,-6.52448 -1.17037,-0.24995 -1.31346,-0.25487 -1.88062,0.65273 -0.66768,0.9729 -0.17093,1.3343 -0.17093,1.3343 -0.84957,1.05555 -0.86651,1.06034 -1.59676,2.03574 -1.57767,-1.82171 -4.27034,-2.93034 -6.35146,-3.15046 0.0263,-0.66764 0.21284,-1.57232 0.67317,-2.22307 z"
       id="path22"
       inkscape:connector-curvature="0"
       sodipodi:nodetypes="cccccccccccccccccccsc" />
    <g
       transform="translate(-8.4198845e-7,1.8563269e-6)"
       id="g4780"
       style="fill:#003c82;fill-opacity:1">
      <path
         sodipodi:nodetypes="ccsssssccssssccssssccssssc"
         inkscape:connector-curvature="0"
         id="path6616"
         style="fill:#003c82;fill-opacity:1;fill-rule:nonzero;stroke:none"
         d="m -209.13333,337.2741 1.68188,0 0,0.63107 c 0,0.63952 0.51831,1.15818 1.15591,1.15818 l 0.10544,0 c 0.63878,0 1.1561,-0.51866 1.1561,-1.15818 l 0,-1.26308 c 0,-0.47194 -0.28543,-0.89618 -0.72203,-1.07325 l -1.49922,-0.60808 c -1.07187,-0.43542 -1.77264,-1.47723 -1.77264,-2.63466 l 0,-0.73746 c 0,-1.56892 1.27079,-2.84223 2.83779,-2.84223 1.56818,0 2.83877,1.27331 2.83877,2.84223 l 0,0.63201 -1.68267,0 0,-0.63201 c 0,-0.63932 -0.51732,-1.15743 -1.1561,-1.15743 -0.63879,0 -1.15591,0.51811 -1.15591,1.15743 l 0,0.73746 c 0,0.4712 0.28523,0.89543 0.72183,1.07231 l 1.50016,0.60902 c 1.07192,0.43467 1.77269,1.47643 1.77269,2.63466 l 0,1.26308 c 0,1.56911 -1.27059,2.84124 -2.83877,2.84124 l -0.10544,0 c -1.567,0 -2.83779,-1.27213 -2.83779,-2.84124" />
      <path
         sodipodi:nodetypes="ccsssssccssssccssssccssssc"
         inkscape:connector-curvature="0"
         id="path6616-6"
         style="fill:#003c82;fill-opacity:1;fill-rule:nonzero;stroke:none"
         d="m -194.12933,337.2741 1.68188,0 0,0.63107 c 0,0.63952 0.51831,1.15818 1.15591,1.15818 l 0.10544,0 c 0.63878,0 1.1561,-0.51866 1.1561,-1.15818 l 0,-1.26308 c 0,-0.47194 -0.28543,-0.89618 -0.72203,-1.07325 l -1.49922,-0.60808 c -1.07187,-0.43542 -1.77264,-1.47723 -1.77264,-2.63466 l 0,-0.73746 c 0,-1.56892 1.27079,-2.84223 2.83779,-2.84223 1.56818,0 2.83877,1.27331 2.83877,2.84223 l 0,0.63201 -1.68267,0 0,-0.63201 c 0,-0.63932 -0.51732,-1.15743 -1.1561,-1.15743 -0.63879,0 -1.15591,0.51811 -1.15591,1.15743 l 0,0.73746 c 0,0.4712 0.28523,0.89543 0.72183,1.07231 l 1.50016,0.60902 c 1.07192,0.43467 1.77269,1.47643 1.77269,2.63466 l 0,1.26308 c 0,1.56911 -1.27059,2.84124 -2.83877,2.84124 l -0.10544,0 c -1.567,0 -2.83779,-1.27213 -2.83779,-2.84124" />
      <path
         sodipodi:nodetypes="ssssssssssssss"
         inkscape:connector-curvature="0"
         id="path6616-3"
         style="fill:#003c82;fill-opacity:1;fill-rule:nonzero;stroke:none"
         d="m -199.81867,337.90517 c 0,0.63952 0.51826,1.15818 1.15684,1.15818 0.63878,0 1.15611,-0.51866 1.15611,-1.15818 l 0,-6.31653 c 0,-0.63932 -0.51733,-1.15744 -1.15611,-1.15744 -0.63858,0 -1.15684,0.51812 -1.15684,1.15744 z m -1.68366,0 0,-6.31653 c 0,-1.56892 1.27178,-2.84223 2.8405,-2.84223 1.5672,0 2.83798,1.27331 2.83798,2.84223 l 0,6.31653 c 0,1.56912 -1.27078,2.84124 -2.83798,2.84124 -1.56872,0 -2.8405,-1.27212 -2.8405,-2.84124 z" />
    </g>
  </g>
</svg>
