<?xml version="1.0" encoding="UTF-8" standalone="no"?>
<!-- Created with Inkscape (http://www.inkscape.org/) -->

<svg
   xmlns:dc="http://purl.org/dc/elements/1.1/"
   xmlns:cc="http://creativecommons.org/ns#"
   xmlns:rdf="http://www.w3.org/1999/02/22-rdf-syntax-ns#"
   xmlns:svg="http://www.w3.org/2000/svg"
   xmlns="http://www.w3.org/2000/svg"
   xmlns:sodipodi="http://sodipodi.sourceforge.net/DTD/sodipodi-0.dtd"
   xmlns:inkscape="http://www.inkscape.org/namespaces/inkscape"
   width="83.372002mm"
   height="83.372002mm"
   viewBox="0 0 83.372002 83.372002"
   version="1.1"
   id="svg8"
   inkscape:version="0.92.2 (5c3e80d, 2017-08-06)"
   sodipodi:docname="55.svg">
  <defs
     id="defs2" />
  <sodipodi:namedview
     id="base"
     pagecolor="#ffffff"
     bordercolor="#666666"
     borderopacity="1.0"
     inkscape:pageopacity="0.0"
     inkscape:pageshadow="2"
     inkscape:zoom="1.4"
     inkscape:cx="75.628831"
     inkscape:cy="110.67047"
     inkscape:document-units="mm"
     inkscape:current-layer="layer1"
     showgrid="false"
     fit-margin-top="0"
     fit-margin-left="0"
     fit-margin-right="0"
     fit-margin-bottom="0"
     inkscape:window-width="1920"
     inkscape:window-height="1057"
     inkscape:window-x="-8"
     inkscape:window-y="-8"
     inkscape:window-maximized="1" />
  <metadata
     id="metadata5">
    <rdf:RDF>
      <cc:Work
         rdf:about="">
        <dc:format>image/svg+xml</dc:format>
        <dc:type
           rdf:resource="http://purl.org/dc/dcmitype/StillImage" />
        <dc:title></dc:title>
      </cc:Work>
    </rdf:RDF>
  </metadata>
  <g
     inkscape:label="Layer 1"
     inkscape:groupmode="layer"
     id="layer1"
     transform="translate(-4.1733084e-4,-213.62758)">
    <rect
       style="opacity:1;fill:#000000;fill-opacity:1;fill-rule:nonzero;stroke:none;stroke-width:21.49853706;stroke-linecap:square;stroke-linejoin:round;stroke-miterlimit:4;stroke-dasharray:none;stroke-opacity:1;paint-order:stroke fill markers"
       id="rect815"
       width="60"
       height="60"
       x="-181.05711"
       y="180.01071"
       rx="3.0009999"
       ry="3.0009999"
       transform="rotate(-45)" />
    <rect
       ry="1.5"
       rx="1.5"
       y="181.51071"
       x="-179.55711"
       height="57"
       width="57"
       id="rect817"
       style="opacity:1;fill:#fad20a;fill-opacity:1;fill-rule:nonzero;stroke:none;stroke-width:20.42361069;stroke-linecap:square;stroke-linejoin:round;stroke-miterlimit:4;stroke-dasharray:none;stroke-opacity:1;paint-order:stroke fill markers"
       transform="rotate(-45)" />
    <path
       id="path1085"
       style="fill:#000000;fill-opacity:1;fill-rule:evenodd;stroke:none;stroke-width:0.12151409px;stroke-linecap:butt;stroke-linejoin:miter;stroke-opacity:1"
       d="M 66.689548,268.49957 H 60.022065 L 55.721539,257.33154 H 60.88884 Z"
       inkscape:connector-curvature="0"
       sodipodi:nodetypes="ccccc" />
    <path
       id="path1089"
       style="fill:#000000;fill-opacity:1;fill-rule:evenodd;stroke:none;stroke-width:0.12120557px;stroke-linecap:butt;stroke-linejoin:miter;stroke-opacity:1"
       d="m 38.311082,268.49957 h 6.750822 l -0.966786,-11.16803 h -4.817249 z"
       inkscape:connector-curvature="0"
       sodipodi:nodetypes="ccccc" />
    <path
       sodipodi:nodetypes="ccccc"
       inkscape:connector-curvature="0"
       d="m 55.904898,268.49957 h -6.617477 l -1.933567,-11.16803 h 4.917263 z"
       style="fill:#000000;fill-opacity:1;fill-rule:evenodd;stroke:none;stroke-width:0.12151409px;stroke-linecap:butt;stroke-linejoin:miter;stroke-opacity:1"
       id="path1121" />
    <path
       sodipodi:nodetypes="ccccc"
       inkscape:connector-curvature="0"
       d="m 16.683437,268.49957 h 6.66748 l 4.300531,-11.16803 h -5.167301 z"
       style="fill:#000000;fill-opacity:1;fill-rule:evenodd;stroke:none;stroke-width:0.12151409px;stroke-linecap:butt;stroke-linejoin:miter;stroke-opacity:1"
       id="path846" />
    <path
       id="path848"
       style="fill:#000000;fill-opacity:1;fill-rule:evenodd;stroke:none;stroke-width:0.12151409px;stroke-linecap:butt;stroke-linejoin:miter;stroke-opacity:1"
       d="m 27.468087,268.49957 h 6.617477 l 1.933566,-11.16803 h -4.917263 z"
       inkscape:connector-curvature="0"
       sodipodi:nodetypes="ccccc" />
    <path
       id="path962"
       d="m 46.63103,254.18148 c -0.0846,-0.22006 -2.984615,-6.25707 -3.057808,-6.77094 -0.07317,-0.50263 0.534898,-4.72675 0.630641,-4.81708 0.101292,-0.10152 4.498965,3.25287 4.679161,3.26404 0.185916,0 0.377138,-0.22573 0.47859,-0.22007 0.07883,0.005 0.58561,0.50263 0.838988,0.62124 0.08459,0.0454 0.18019,0.0734 0.287252,0.0791 0.394301,0.0165 0.731979,-0.34461 0.748882,-0.79624 0.01225,-0.26548 -0.101288,-0.53647 -0.202639,-0.64949 -0.107035,-0.1131 -0.270099,-0.25984 -0.399623,-0.29376 -0.129523,-0.0416 -0.298287,-0.0454 -0.394318,-0.10152 -0.08462,-0.0454 -0.07888,-0.44047 -0.07888,-0.44047 0,0 -3.834543,-2.75578 -4.009144,-2.93085 -0.180186,-0.17498 -1.62164,-4.04342 -1.891919,-4.32578 -0.26478,-0.27669 -1.385139,-1.37231 -1.385139,-1.37231 l -0.01645,-0.47441 c 0,0 1.002281,-0.32214 1.075459,-0.48563 0.06744,-0.16922 0.64191,-2.16852 0.64191,-2.16852 l 1.12617,-0.34991 0.04501,-0.33898 -1.390763,-0.6325 -0.02867,-0.80751 c 0,0 -1.09802,-0.57036 -1.846899,-0.50264 -0.743264,0.0735 -1.480876,0.42923 -1.49216,0.62692 -0.0038,0.20318 -0.02876,0.89785 -0.02876,0.89785 l -1.537172,0.63815 0.01652,0.33317 1.44712,0.84149 -0.157711,2.2588 c 0,0 -2.787235,1.28195 -2.950515,1.47393 -0.157722,0.1976 -3.505034,4.04903 -3.61205,4.25241 -0.09559,0.19214 -1.024773,5.30834 -0.923396,5.30834 0.08462,0.005 0.444801,0.32746 0.444801,0.32746 0,0 -0.135241,1.06729 0.123806,1.44568 0.01219,0.0202 0.02869,0.0327 0.04077,0.0454 0.129539,0.23726 0.360409,0.40071 0.641925,0.41223 0.427943,0.0165 0.799561,-0.34999 0.816484,-0.82458 0,-0.10729 -0.01229,-0.20889 -0.04072,-0.30487 l -0.05055,-0.41226 0.315438,-0.28808 c 0,0 0.574344,-4.11676 0.703826,-4.21276 0.12954,-0.0906 2.547837,-2.31536 2.547837,-2.31536 l -0.912171,7.44866 c -0.0164,0.40085 0.225142,0.74542 0.563054,0.8527 l -4.214009,13.58722 c -0.107024,0.27654 -0.01223,0.59864 0.236583,0.73411 l 3.609308,1.82978 c 0.202656,0.10728 0.444846,0.005 0.546183,-0.22008 0.09556,-0.22005 -0.287257,-0.7285 -0.208385,-0.62691 -0.05055,-0.0729 -0.219425,-0.29908 -0.43358,-0.62678 -0.298289,-0.45741 -0.196943,-0.83014 0.06207,-1.41174 0,0 3.037186,-9.8375 3.166705,-9.8375 0.129539,0 2.438454,4.22972 2.567927,4.37096 l 0.01223,0.0115 2.545145,7.13245 c 0.107016,0.28238 0.315433,0.49129 0.585564,0.44618 l 3.907725,-0.80198 c 0.230875,-0.0454 0.377149,-0.27657 0.337912,-0.52525 -0.04069,-0.24293 -0.225125,-0.29379 -0.478641,-0.36711 -0.253333,-0.0736 -0.337902,-0.10146 -0.934666,-0.2484 -0.568704,-0.0792 -0.861516,-0.45738 -0.996684,-0.98256 0,0 -2.027061,-6.5394 -2.117143,-6.75405"
       style="fill:none;fill-opacity:1;fill-rule:nonzero;stroke:#fad20a;stroke-width:1.33349657;stroke-linecap:round;stroke-linejoin:round;stroke-miterlimit:4;stroke-dasharray:none;stroke-opacity:1"
       inkscape:connector-curvature="0"
       sodipodi:nodetypes="cccccccccccccccccccccccccccccccccccccccccccccccccccscccccccccc" />
    <path
       sodipodi:nodetypes="cccccccccccccccccccccccccccccccccccccccccccccccccccscccccccccc"
       inkscape:connector-curvature="0"
       style="fill:#000000;fill-opacity:1;fill-rule:nonzero;stroke:none;stroke-width:0.02602224"
       d="m 46.63103,254.18148 c -0.0846,-0.22006 -2.984615,-6.25707 -3.057808,-6.77094 -0.07317,-0.50263 0.534898,-4.72675 0.630641,-4.81708 0.101292,-0.10152 4.498965,3.25287 4.679161,3.26404 0.185916,0 0.377138,-0.22573 0.47859,-0.22007 0.07883,0.005 0.58561,0.50263 0.838988,0.62124 0.08459,0.0454 0.18019,0.0734 0.287252,0.0791 0.394301,0.0165 0.731979,-0.34461 0.748882,-0.79624 0.01225,-0.26548 -0.101288,-0.53647 -0.202639,-0.64949 -0.107035,-0.1131 -0.270099,-0.25984 -0.399623,-0.29376 -0.129523,-0.0416 -0.298287,-0.0454 -0.394318,-0.10152 -0.08462,-0.0454 -0.07888,-0.44047 -0.07888,-0.44047 0,0 -3.834543,-2.75578 -4.009144,-2.93085 -0.180186,-0.17498 -1.62164,-4.04342 -1.891919,-4.32578 -0.26478,-0.27669 -1.385139,-1.37231 -1.385139,-1.37231 l -0.01645,-0.47441 c 0,0 1.002281,-0.32214 1.075459,-0.48563 0.06744,-0.16922 0.64191,-2.16852 0.64191,-2.16852 l 1.12617,-0.34991 0.04501,-0.33898 -1.390763,-0.6325 -0.02867,-0.80751 c 0,0 -1.09802,-0.57036 -1.846899,-0.50264 -0.743264,0.0735 -1.480876,0.42923 -1.49216,0.62692 -0.0038,0.20318 -0.02876,0.89785 -0.02876,0.89785 l -1.537172,0.63815 0.01652,0.33317 1.44712,0.84149 -0.157711,2.2588 c 0,0 -2.787235,1.28195 -2.950515,1.47393 -0.157722,0.1976 -3.505034,4.04903 -3.61205,4.25241 -0.09559,0.19214 -1.024773,5.30834 -0.923396,5.30834 0.08462,0.005 0.444801,0.32746 0.444801,0.32746 0,0 -0.135241,1.06729 0.123806,1.44568 0.01219,0.0202 0.02869,0.0327 0.04077,0.0454 0.129539,0.23726 0.360409,0.40071 0.641925,0.41223 0.427943,0.0165 0.799561,-0.34999 0.816484,-0.82458 0,-0.10729 -0.01229,-0.20889 -0.04072,-0.30487 l -0.05055,-0.41226 0.315438,-0.28808 c 0,0 0.574344,-4.11676 0.703826,-4.21276 0.12954,-0.0906 2.547837,-2.31536 2.547837,-2.31536 l -0.912171,7.44866 c -0.0164,0.40085 0.225142,0.74542 0.563054,0.8527 l -4.214009,13.58722 c -0.107024,0.27654 -0.01223,0.59864 0.236583,0.73411 l 3.609308,1.82978 c 0.202656,0.10728 0.444846,0.005 0.546183,-0.22008 0.09556,-0.22005 -0.287257,-0.7285 -0.208385,-0.62691 -0.05055,-0.0729 -0.219425,-0.29908 -0.43358,-0.62678 -0.298289,-0.45741 -0.196943,-0.83014 0.06207,-1.41174 0,0 3.037186,-9.8375 3.166705,-9.8375 0.129539,0 2.438454,4.22972 2.567927,4.37096 l 0.01223,0.0115 2.545145,7.13245 c 0.107016,0.28238 0.315433,0.49129 0.585564,0.44618 l 3.907725,-0.80198 c 0.230875,-0.0454 0.377149,-0.27657 0.337912,-0.52525 -0.04069,-0.24293 -0.225125,-0.29379 -0.478641,-0.36711 -0.253333,-0.0736 -0.337902,-0.10146 -0.934666,-0.2484 -0.568704,-0.0792 -0.861516,-0.45738 -0.996684,-0.98256 0,0 -2.027061,-6.5394 -2.117143,-6.75405"
       id="path856" />
  </g>
</svg>
