<?xml version="1.0" encoding="UTF-8" standalone="no"?>
<!-- Created with Inkscape (http://www.inkscape.org/) -->

<svg
   xmlns:dc="http://purl.org/dc/elements/1.1/"
   xmlns:cc="http://creativecommons.org/ns#"
   xmlns:rdf="http://www.w3.org/1999/02/22-rdf-syntax-ns#"
   xmlns:svg="http://www.w3.org/2000/svg"
   xmlns="http://www.w3.org/2000/svg"
   xmlns:sodipodi="http://sodipodi.sourceforge.net/DTD/sodipodi-0.dtd"
   xmlns:inkscape="http://www.inkscape.org/namespaces/inkscape"
   width="91mm"
   height="80.537003mm"
   viewBox="0 0 91 80.537003"
   version="1.1"
   id="svg863"
   inkscape:version="0.92.2 (5c3e80d, 2017-08-06)"
   sodipodi:docname="33.svg">
  <defs
     id="defs857" />
  <sodipodi:namedview
     id="base"
     pagecolor="#ffffff"
     bordercolor="#666666"
     borderopacity="1.0"
     inkscape:pageopacity="0.0"
     inkscape:pageshadow="2"
     inkscape:zoom="1.4"
     inkscape:cx="126.99369"
     inkscape:cy="87.580626"
     inkscape:document-units="mm"
     inkscape:current-layer="layer1"
     showgrid="false"
     inkscape:window-width="1920"
     inkscape:window-height="1057"
     inkscape:window-x="-8"
     inkscape:window-y="-8"
     inkscape:window-maximized="1" />
  <metadata
     id="metadata860">
    <rdf:RDF>
      <cc:Work
         rdf:about="">
        <dc:format>image/svg+xml</dc:format>
        <dc:type
           rdf:resource="http://purl.org/dc/dcmitype/StillImage" />
        <dc:title></dc:title>
      </cc:Work>
    </rdf:RDF>
  </metadata>
  <g
     inkscape:label="Layer 1"
     inkscape:groupmode="layer"
     id="layer1"
     transform="translate(0,-216.463)">
    <path
       inkscape:connector-curvature="0"
       id="path814"
       d="M 84.550414,290.54997 45.499941,222.91262 6.4496006,290.54992 Z"
       inkscape:transform-center-y="4.393997"
       inkscape:transform-center-x="27.135595"
       style="opacity:1;fill:none;fill-opacity:1;stroke:#dc0a14;stroke-width:11.9000721;stroke-linecap:butt;stroke-linejoin:round;stroke-miterlimit:4;stroke-dasharray:none;stroke-dashoffset:0;stroke-opacity:1"
       sodipodi:nodetypes="cccc" />
    <path
       sodipodi:nodetypes="cccc"
       inkscape:connector-curvature="0"
       id="path818"
       d="M 81.173022,288.59999 45.499989,226.81248 9.8269506,288.59995 Z"
       style="opacity:1;fill:#fad20a;fill-opacity:1;stroke:none;stroke-width:11.93114281;stroke-linecap:butt;stroke-linejoin:round;stroke-miterlimit:4;stroke-dasharray:none;stroke-dashoffset:0;stroke-opacity:1" />
    <path
       id="path1085"
       style="fill:#000000;fill-opacity:1;fill-rule:evenodd;stroke:none;stroke-width:0.14579906px;stroke-linecap:butt;stroke-linejoin:miter;stroke-opacity:1"
       d="m 75.500002,285.49985 h -8 l -5.16,-13.4 h 6.2 z"
       inkscape:connector-curvature="0"
       sodipodi:nodetypes="ccccc" />
    <path
       id="path1089"
       style="fill:#000000;fill-opacity:1;fill-rule:evenodd;stroke:none;stroke-width:0.14542881px;stroke-linecap:butt;stroke-linejoin:miter;stroke-opacity:1"
       d="m 41.450003,285.49985 h 8.099999 l -1.159999,-13.4 h -5.780001 z"
       inkscape:connector-curvature="0"
       sodipodi:nodetypes="ccccc" />
    <path
       sodipodi:nodetypes="ccccc"
       inkscape:connector-curvature="0"
       d="m 62.560002,285.49985 h -7.94 l -2.32,-13.4 h 5.9 z"
       style="fill:#000000;fill-opacity:1;fill-rule:evenodd;stroke:none;stroke-width:0.14579906px;stroke-linecap:butt;stroke-linejoin:miter;stroke-opacity:1"
       id="path1121" />
    <path
       sodipodi:nodetypes="ccccc"
       inkscape:connector-curvature="0"
       d="m 15.5,285.49985 h 8 l 5.160002,-13.4 h -6.2 z"
       style="fill:#000000;fill-opacity:1;fill-rule:evenodd;stroke:none;stroke-width:0.14579906px;stroke-linecap:butt;stroke-linejoin:miter;stroke-opacity:1"
       id="path846" />
    <path
       id="path848"
       style="fill:#000000;fill-opacity:1;fill-rule:evenodd;stroke:none;stroke-width:0.14579906px;stroke-linecap:butt;stroke-linejoin:miter;stroke-opacity:1"
       d="m 28.440001,285.49985 h 7.940001 l 2.319998,-13.4 h -5.899999 z"
       inkscape:connector-curvature="0"
       sodipodi:nodetypes="ccccc" />
    <path
       id="path962"
       d="m 51.432712,268.3203 c -0.10145,-0.26402 -3.581092,-7.50757 -3.668909,-8.12414 -0.0878,-0.60307 0.641799,-5.67139 0.756679,-5.77981 0.121589,-0.12193 5.39809,3.90287 5.6143,3.91641 0.22308,0 0.45252,-0.27092 0.57424,-0.26405 0.0946,0.006 0.70265,0.60302 1.00667,0.7453 0.10145,0.054 0.2162,0.088 0.34465,0.0947 0.47311,0.0196 0.87827,-0.41352 0.89856,-0.95538 0.0147,-0.3186 -0.12157,-0.64372 -0.24315,-0.77924 -0.12847,-0.13571 -0.32408,-0.31173 -0.47949,-0.35253 -0.15541,-0.0493 -0.3579,-0.054 -0.47311,-0.12196 -0.10147,-0.054 -0.0946,-0.52852 -0.0946,-0.52852 0,0 -4.60087,-3.30659 -4.81036,-3.51664 -0.21621,-0.20996 -1.945741,-4.85151 -2.27004,-5.19029 -0.317691,-0.3319 -1.661962,-1.64652 -1.661962,-1.64652 l -0.01968,-0.56919 c 0,0 1.202589,-0.38649 1.290389,-0.5827 0.0809,-0.20307 0.770199,-2.60192 0.770199,-2.60192 l 1.351232,-0.41992 0.054,-0.40665 -1.668709,-0.75887 -0.0344,-0.96891 c 0,0 -1.317451,-0.68438 -2.216021,-0.60306 -0.891786,0.088 -1.776812,0.51495 -1.790361,0.7521 -0.005,0.24389 -0.0345,1.07736 -0.0345,1.07736 l -1.844378,0.76568 0.01979,0.39975 1.73633,1.00962 -0.18924,2.71029 c 0,0 -3.34426,1.53812 -3.54017,1.76849 -0.189249,0.23701 -4.205531,4.8583 -4.333931,5.10218 -0.114739,0.2306 -1.229579,6.36928 -1.107948,6.36928 0.101489,0.006 0.533699,0.39287 0.533699,0.39287 0,0 -0.162279,1.28065 0.14854,1.73462 0.01471,0.0245 0.0344,0.0394 0.049,0.054 0.155429,0.28471 0.432429,0.48087 0.77021,0.49465 0.513458,0.0196 0.959358,-0.41991 0.979649,-0.98931 0,-0.12881 -0.01471,-0.25076 -0.0489,-0.36584 l -0.0607,-0.49463 0.378481,-0.34566 c 0,0 0.689131,-4.93958 0.844489,-5.05474 0.155429,-0.10816 3.05703,-2.7781 3.05703,-2.7781 l -1.09447,8.93735 c -0.01971,0.48087 0.270129,0.89436 0.675579,1.02311 l -5.05619,16.30262 c -0.12845,0.33189 -0.01471,0.71823 0.283861,0.88083 l 4.330639,2.19541 c 0.24316,0.12882 0.533749,0.006 0.655341,-0.26406 0.114718,-0.26405 -0.34467,-0.87405 -0.250042,-0.7521 -0.0607,-0.088 -0.263268,-0.35895 -0.520229,-0.75211 -0.357899,-0.54885 -0.236299,-0.99603 0.0745,-1.69395 0,0 3.644191,-11.80346 3.799591,-11.80346 0.155425,0 2.925773,5.07509 3.081124,5.24446 l 0.01471,0.0146 3.0538,8.55787 c 0.12844,0.33878 0.37848,0.58948 0.70259,0.53531 l 4.688709,-0.9622 c 0.27701,-0.054 0.45252,-0.33189 0.40544,-0.63017 -0.0489,-0.29158 -0.27012,-0.35253 -0.5743,-0.44056 -0.30396,-0.088 -0.40544,-0.12193 -1.121469,-0.29796 -0.682351,-0.0948 -1.03368,-0.54885 -1.195871,-1.179 0,0 -2.432171,-7.84636 -2.54026,-8.10388"
       style="fill:none;fill-opacity:1;fill-rule:nonzero;stroke:#fad20a;stroke-width:1.60000002;stroke-linecap:round;stroke-linejoin:round;stroke-miterlimit:4;stroke-dasharray:none;stroke-opacity:1"
       inkscape:connector-curvature="0"
       sodipodi:nodetypes="cccccccccccccccccccccccccccccccccccccccccccccccccccscccccccccc" />
    <path
       sodipodi:nodetypes="cccccccccccccccccccccccccccccccccccccccccccccccccccscccccccccc"
       inkscape:connector-curvature="0"
       style="fill:#000000;fill-opacity:1;fill-rule:nonzero;stroke:none;stroke-width:0.03122282"
       d="m 51.432712,268.3203 c -0.10145,-0.26402 -3.581092,-7.50757 -3.668909,-8.12414 -0.0878,-0.60307 0.641799,-5.67139 0.756679,-5.77981 0.121589,-0.12193 5.39809,3.90287 5.6143,3.91641 0.22308,0 0.45252,-0.27092 0.57424,-0.26405 0.0946,0.006 0.70265,0.60302 1.00667,0.7453 0.10145,0.054 0.2162,0.088 0.34465,0.0947 0.47311,0.0196 0.87827,-0.41352 0.89856,-0.95538 0.0147,-0.3186 -0.12157,-0.64372 -0.24315,-0.77924 -0.12847,-0.13571 -0.32408,-0.31173 -0.47949,-0.35253 -0.15541,-0.0493 -0.3579,-0.054 -0.47311,-0.12196 -0.10147,-0.054 -0.0946,-0.52852 -0.0946,-0.52852 0,0 -4.60087,-3.30659 -4.81036,-3.51664 -0.21621,-0.20996 -1.945741,-4.85151 -2.27004,-5.19029 -0.317691,-0.3319 -1.661962,-1.64652 -1.661962,-1.64652 l -0.01968,-0.56919 c 0,0 1.202589,-0.38649 1.290389,-0.5827 0.0809,-0.20307 0.770199,-2.60192 0.770199,-2.60192 l 1.351232,-0.41992 0.054,-0.40665 -1.668709,-0.75887 -0.0344,-0.96891 c 0,0 -1.317451,-0.68438 -2.216021,-0.60306 -0.891786,0.088 -1.776812,0.51495 -1.790361,0.7521 -0.005,0.24389 -0.0345,1.07736 -0.0345,1.07736 l -1.844378,0.76568 0.01979,0.39975 1.73633,1.00962 -0.18924,2.71029 c 0,0 -3.34426,1.53812 -3.54017,1.76849 -0.189249,0.23701 -4.205531,4.8583 -4.333931,5.10218 -0.114739,0.2306 -1.229579,6.36928 -1.107948,6.36928 0.101489,0.006 0.533699,0.39287 0.533699,0.39287 0,0 -0.162279,1.28065 0.14854,1.73462 0.01471,0.0245 0.0344,0.0394 0.049,0.054 0.155429,0.28471 0.432429,0.48087 0.77021,0.49465 0.513458,0.0196 0.959358,-0.41991 0.979649,-0.98931 0,-0.12881 -0.01471,-0.25076 -0.0489,-0.36584 l -0.0607,-0.49463 0.378481,-0.34566 c 0,0 0.689131,-4.93958 0.844489,-5.05474 0.155429,-0.10816 3.05703,-2.7781 3.05703,-2.7781 l -1.09447,8.93735 c -0.01971,0.48087 0.270129,0.89436 0.675579,1.02311 l -5.05619,16.30262 c -0.12845,0.33189 -0.01471,0.71823 0.283861,0.88083 l 4.330639,2.19541 c 0.24316,0.12882 0.533749,0.006 0.655341,-0.26406 0.114718,-0.26405 -0.34467,-0.87405 -0.250042,-0.7521 -0.0607,-0.088 -0.263268,-0.35895 -0.520229,-0.75211 -0.357899,-0.54885 -0.236299,-0.99603 0.0745,-1.69395 0,0 3.644191,-11.80346 3.799591,-11.80346 0.155425,0 2.925773,5.07509 3.081124,5.24446 l 0.01471,0.0146 3.0538,8.55787 c 0.12844,0.33878 0.37848,0.58948 0.70259,0.53531 l 4.688709,-0.9622 c 0.27701,-0.054 0.45252,-0.33189 0.40544,-0.63017 -0.0489,-0.29158 -0.27012,-0.35253 -0.5743,-0.44056 -0.30396,-0.088 -0.40544,-0.12193 -1.121469,-0.29796 -0.682351,-0.0948 -1.03368,-0.54885 -1.195871,-1.179 0,0 -2.432171,-7.84636 -2.54026,-8.10388"
       id="path856" />
  </g>
</svg>
