<?xml version="1.0" encoding="UTF-8" standalone="no"?>
<!-- Created with Inkscape (http://www.inkscape.org/) -->

<svg
   xmlns:dc="http://purl.org/dc/elements/1.1/"
   xmlns:cc="http://creativecommons.org/ns#"
   xmlns:rdf="http://www.w3.org/1999/02/22-rdf-syntax-ns#"
   xmlns:svg="http://www.w3.org/2000/svg"
   xmlns="http://www.w3.org/2000/svg"
   xmlns:sodipodi="http://sodipodi.sourceforge.net/DTD/sodipodi-0.dtd"
   xmlns:inkscape="http://www.inkscape.org/namespaces/inkscape"
   width="83.372002mm"
   height="83.372002mm"
   viewBox="0 0 83.372002 83.372002"
   version="1.1"
   id="svg8"
   inkscape:version="0.92.2 (5c3e80d, 2017-08-06)"
   sodipodi:docname="55.svg">
  <defs
     id="defs2" />
  <sodipodi:namedview
     id="base"
     pagecolor="#ffffff"
     bordercolor="#666666"
     borderopacity="1.0"
     inkscape:pageopacity="0.0"
     inkscape:pageshadow="2"
     inkscape:zoom="1.4"
     inkscape:cx="223.06874"
     inkscape:cy="105.10931"
     inkscape:document-units="mm"
     inkscape:current-layer="layer1"
     showgrid="false"
     fit-margin-top="0"
     fit-margin-left="0"
     fit-margin-right="0"
     fit-margin-bottom="0"
     inkscape:window-width="1920"
     inkscape:window-height="1057"
     inkscape:window-x="-8"
     inkscape:window-y="-8"
     inkscape:window-maximized="1" />
  <metadata
     id="metadata5">
    <rdf:RDF>
      <cc:Work
         rdf:about="">
        <dc:format>image/svg+xml</dc:format>
        <dc:type
           rdf:resource="http://purl.org/dc/dcmitype/StillImage" />
        <dc:title></dc:title>
      </cc:Work>
    </rdf:RDF>
  </metadata>
  <g
     inkscape:label="Layer 1"
     inkscape:groupmode="layer"
     id="layer1"
     transform="translate(-4.1733084e-4,-213.62758)">
    <rect
       style="opacity:1;fill:#000000;fill-opacity:1;fill-rule:nonzero;stroke:none;stroke-width:21.49853706;stroke-linecap:square;stroke-linejoin:round;stroke-miterlimit:4;stroke-dasharray:none;stroke-opacity:1;paint-order:stroke fill markers"
       id="rect815"
       width="60"
       height="60"
       x="-181.05711"
       y="180.01071"
       rx="3.0009999"
       ry="3.0009999"
       transform="rotate(-45)" />
    <rect
       ry="1.5"
       rx="1.5"
       y="181.51071"
       x="-179.55711"
       height="57"
       width="57"
       id="rect817"
       style="opacity:1;fill:#fad20a;fill-opacity:1;fill-rule:nonzero;stroke:none;stroke-width:20.42361069;stroke-linecap:square;stroke-linejoin:round;stroke-miterlimit:4;stroke-dasharray:none;stroke-opacity:1;paint-order:stroke fill markers"
       transform="rotate(-45)" />
    <path
       style="opacity:1;fill:#000000;fill-opacity:1;fill-rule:nonzero;stroke:none;stroke-width:0.35481843;stroke-linecap:square;stroke-linejoin:round;stroke-miterlimit:22.9260006;stroke-dasharray:none;stroke-opacity:1;paint-order:stroke fill markers"
       d="m 21.850808,268.49957 h -3.000371 v -1.00015 h 3.000371 z"
       id="rect2031"
       inkscape:connector-curvature="0"
       sodipodi:nodetypes="ccccc" />
    <path
       sodipodi:nodetypes="ccccc"
       inkscape:connector-curvature="0"
       id="path888"
       d="m 64.522667,268.49957 h -3.000359 v -1.00015 h 3.000359 z"
       style="opacity:1;fill:#000000;fill-opacity:1;fill-rule:nonzero;stroke:none;stroke-width:0.35481843;stroke-linecap:square;stroke-linejoin:round;stroke-miterlimit:22.9260006;stroke-dasharray:none;stroke-opacity:1;paint-order:stroke fill markers" />
    <path
       sodipodi:nodetypes="ccccc"
       inkscape:connector-curvature="0"
       id="path890"
       d="m 26.117987,268.49957 h -3.000359 v -1.00015 h 3.000359 z"
       style="opacity:1;fill:#000000;fill-opacity:1;fill-rule:nonzero;stroke:none;stroke-width:0.35481843;stroke-linecap:square;stroke-linejoin:round;stroke-miterlimit:22.9260006;stroke-dasharray:none;stroke-opacity:1;paint-order:stroke fill markers" />
    <path
       style="opacity:1;fill:#000000;fill-opacity:1;fill-rule:nonzero;stroke:none;stroke-width:0.35481843;stroke-linecap:square;stroke-linejoin:round;stroke-miterlimit:22.9260006;stroke-dasharray:none;stroke-opacity:1;paint-order:stroke fill markers"
       d="m 30.385178,268.49957 h -3.000361 v -1.00015 h 3.000361 z"
       id="path892"
       inkscape:connector-curvature="0"
       sodipodi:nodetypes="ccccc" />
    <path
       sodipodi:nodetypes="ccccc"
       inkscape:connector-curvature="0"
       id="path894"
       d="m 34.652368,268.49957 h -3.00037 v -1.00015 h 3.00037 z"
       style="opacity:1;fill:#000000;fill-opacity:1;fill-rule:nonzero;stroke:none;stroke-width:0.35481843;stroke-linecap:square;stroke-linejoin:round;stroke-miterlimit:22.9260006;stroke-dasharray:none;stroke-opacity:1;paint-order:stroke fill markers" />
    <path
       style="opacity:1;fill:#000000;fill-opacity:1;fill-rule:nonzero;stroke:none;stroke-width:0.35481843;stroke-linecap:square;stroke-linejoin:round;stroke-miterlimit:22.9260006;stroke-dasharray:none;stroke-opacity:1;paint-order:stroke fill markers"
       d="m 38.919549,268.49957 h -3.000371 v -1.00015 h 3.000371 z"
       id="path896"
       inkscape:connector-curvature="0"
       sodipodi:nodetypes="ccccc" />
    <path
       sodipodi:nodetypes="ccccc"
       inkscape:connector-curvature="0"
       id="path898"
       d="m 43.186738,268.49957 h -3.000369 v -1.00015 h 3.000369 z"
       style="opacity:1;fill:#000000;fill-opacity:1;fill-rule:nonzero;stroke:none;stroke-width:0.35481843;stroke-linecap:square;stroke-linejoin:round;stroke-miterlimit:22.9260006;stroke-dasharray:none;stroke-opacity:1;paint-order:stroke fill markers" />
    <path
       style="opacity:1;fill:#000000;fill-opacity:1;fill-rule:nonzero;stroke:none;stroke-width:0.35481843;stroke-linecap:square;stroke-linejoin:round;stroke-miterlimit:22.9260006;stroke-dasharray:none;stroke-opacity:1;paint-order:stroke fill markers"
       d="m 47.453917,268.49957 h -3.000359 v -1.00015 h 3.000359 z"
       id="path900"
       inkscape:connector-curvature="0"
       sodipodi:nodetypes="ccccc" />
    <path
       sodipodi:nodetypes="ccccc"
       inkscape:connector-curvature="0"
       id="path902"
       d="m 51.721106,268.49957 h -3.000359 v -1.00015 h 3.000359 z"
       style="opacity:1;fill:#000000;fill-opacity:1;fill-rule:nonzero;stroke:none;stroke-width:0.35481843;stroke-linecap:square;stroke-linejoin:round;stroke-miterlimit:22.9260006;stroke-dasharray:none;stroke-opacity:1;paint-order:stroke fill markers" />
    <path
       style="opacity:1;fill:#000000;fill-opacity:1;fill-rule:nonzero;stroke:none;stroke-width:0.35481843;stroke-linecap:square;stroke-linejoin:round;stroke-miterlimit:22.9260006;stroke-dasharray:none;stroke-opacity:1;paint-order:stroke fill markers"
       d="m 55.988299,268.49957 h -3.00037 v -1.00015 h 3.00037 z"
       id="path904"
       inkscape:connector-curvature="0"
       sodipodi:nodetypes="ccccc" />
    <path
       sodipodi:nodetypes="ccccc"
       inkscape:connector-curvature="0"
       id="path906"
       d="m 60.255477,268.49957 h -3.000359 v -1.00015 h 3.000359 z"
       style="opacity:1;fill:#000000;fill-opacity:1;fill-rule:nonzero;stroke:none;stroke-width:0.35481843;stroke-linecap:square;stroke-linejoin:round;stroke-miterlimit:22.9260006;stroke-dasharray:none;stroke-opacity:1;paint-order:stroke fill markers" />
    <path
       id="path962"
       d="m 36.742018,254.18166 c 0.0846,-0.22004 2.984611,-6.25709 3.0578,-6.77095 0.0732,-0.50259 -0.534901,-4.72672 -0.630651,-4.81709 -0.101319,-0.1016 -4.498949,3.25277 -4.679149,3.26407 -0.18591,0 -0.37714,-0.22581 -0.47859,-0.22006 -0.0788,0.005 -0.585611,0.50259 -0.83899,0.62115 -0.0846,0.045 -0.18019,0.0734 -0.28724,0.079 -0.39431,0.0162 -0.73199,-0.34465 -0.74889,-0.79625 -0.0122,-0.26551 0.10132,-0.5365 0.20265,-0.64946 0.10707,-0.11309 0.270099,-0.2598 0.39962,-0.29381 0.129519,-0.0411 0.298279,-0.045 0.394309,-0.10162 0.0846,-0.045 0.0788,-0.4405 0.0788,-0.4405 0,0 3.834521,-2.75585 4.009119,-2.9309 0.1802,-0.17499 1.62165,-4.04341 1.89193,-4.32575 0.264771,-0.27665 1.385141,-1.37229 1.385141,-1.37229 l 0.01641,-0.4744 c 0,0 -1.002279,-0.32208 -1.07546,-0.48561 -0.0675,-0.16924 -0.641919,-2.16851 -0.641919,-2.16851 l -1.126162,-0.34999 -0.045,-0.33892 1.390771,-0.63248 0.0286,-0.80754 c 0,0 1.09801,-0.57038 1.846911,-0.50258 0.743241,0.0733 1.48086,0.42917 1.492149,0.62683 0.004,0.20325 0.0287,0.8979 0.0287,0.8979 l 1.537181,0.63814 -0.01651,0.33316 -1.44712,0.84143 0.15771,2.25886 c 0,0 2.78723,1.28192 2.950509,1.47394 0.157721,0.1975 3.505031,4.04906 3.612042,4.25232 0.0956,0.1922 1.024779,5.3084 0.923409,5.3084 -0.0846,0.005 -0.44481,0.3274 -0.44481,0.3274 0,0 0.13525,1.06736 -0.123801,1.44571 -0.0122,0.0204 -0.0286,0.0328 -0.0409,0.045 -0.12953,0.23729 -0.3604,0.40078 -0.641922,0.41225 -0.427929,0.0162 -0.799568,-0.34997 -0.81647,-0.82451 0,-0.10738 0.0122,-0.209 0.0408,-0.30495 l 0.0506,-0.4122 -0.315439,-0.28809 c 0,0 -0.574342,-4.11684 -0.703821,-4.2128 -0.12954,-0.0899 -2.54785,-2.31535 -2.54785,-2.31535 l 0.91218,7.44868 c 0.0164,0.40077 -0.225139,0.74541 -0.56306,0.85268 l 4.214011,13.58719 c 0.107051,0.27661 0.0122,0.59858 -0.23658,0.73411 l -3.609311,1.82973 c -0.202649,0.10736 -0.444838,0.005 -0.546179,-0.22005 -0.0956,-0.22008 0.287258,-0.72848 0.208388,-0.62684 0.0506,-0.0734 0.219422,-0.29916 0.433581,-0.62686 0.298291,-0.45741 0.19694,-0.8301 -0.0621,-1.41177 0,0 -3.0372,-9.83741 -3.166711,-9.83741 -0.12954,0 -2.43844,4.22973 -2.567919,4.3709 l -0.0122,0.0121 -2.545141,7.13243 c -0.10705,0.28235 -0.315439,0.49127 -0.585569,0.44613 l -3.90772,-0.80188 c -0.23087,-0.045 -0.37714,-0.2766 -0.33791,-0.52518 0.0407,-0.24304 0.22513,-0.29381 0.47865,-0.36721 0.25332,-0.0734 0.3379,-0.1016 0.93467,-0.24833 0.56869,-0.079 0.8615,-0.45743 0.99667,-0.9826 0,0 2.02705,-6.53944 2.11715,-6.75407"
       style="fill:#000000;fill-opacity:1;fill-rule:nonzero;stroke:none;stroke-width:0.02602216"
       inkscape:connector-curvature="0"
       sodipodi:nodetypes="cccccccccccccccccccccccccccccccccccccccccccccccccccscccccccccc" />
    <path
       sodipodi:nodetypes="ccccc"
       inkscape:connector-curvature="0"
       id="path839-3"
       d="m 26.117987,258.3318 h -3.000359 v -1.00014 h 3.000359 z"
       style="opacity:1;fill:#000000;fill-opacity:1;fill-rule:nonzero;stroke:none;stroke-width:0.35481843;stroke-linecap:square;stroke-linejoin:round;stroke-miterlimit:22.9260006;stroke-dasharray:none;stroke-opacity:1;paint-order:stroke fill markers" />
    <path
       style="opacity:1;fill:#000000;fill-opacity:1;fill-rule:nonzero;stroke:none;stroke-width:0.35481843;stroke-linecap:square;stroke-linejoin:round;stroke-miterlimit:22.9260006;stroke-dasharray:none;stroke-opacity:1;paint-order:stroke fill markers"
       d="m 30.385178,258.3318 h -3.000361 v -1.00014 h 3.000361 z"
       id="path841-5"
       inkscape:connector-curvature="0"
       sodipodi:nodetypes="ccccc" />
    <path
       sodipodi:nodetypes="ccccc"
       inkscape:connector-curvature="0"
       id="path843-0"
       d="m 34.652368,258.3318 h -3.00037 v -1.00014 h 3.00037 z"
       style="opacity:1;fill:#000000;fill-opacity:1;fill-rule:nonzero;stroke:none;stroke-width:0.35481843;stroke-linecap:square;stroke-linejoin:round;stroke-miterlimit:22.9260006;stroke-dasharray:none;stroke-opacity:1;paint-order:stroke fill markers" />
    <path
       sodipodi:nodetypes="ccccc"
       inkscape:connector-curvature="0"
       id="path847-5"
       d="m 43.186738,258.3318 h -3.000369 v -1.00014 h 3.000369 z"
       style="opacity:1;fill:#000000;fill-opacity:1;fill-rule:nonzero;stroke:none;stroke-width:0.35481843;stroke-linecap:square;stroke-linejoin:round;stroke-miterlimit:22.9260006;stroke-dasharray:none;stroke-opacity:1;paint-order:stroke fill markers" />
    <path
       sodipodi:nodetypes="ccccc"
       inkscape:connector-curvature="0"
       id="path851-8"
       d="m 51.721106,258.3318 h -3.000359 v -1.00014 h 3.000359 z"
       style="opacity:1;fill:#000000;fill-opacity:1;fill-rule:nonzero;stroke:none;stroke-width:0.35481843;stroke-linecap:square;stroke-linejoin:round;stroke-miterlimit:22.9260006;stroke-dasharray:none;stroke-opacity:1;paint-order:stroke fill markers" />
    <path
       style="opacity:1;fill:#000000;fill-opacity:1;fill-rule:nonzero;stroke:none;stroke-width:0.35481843;stroke-linecap:square;stroke-linejoin:round;stroke-miterlimit:22.9260006;stroke-dasharray:none;stroke-opacity:1;paint-order:stroke fill markers"
       d="m 55.988299,258.3318 h -3.00037 v -1.00014 h 3.00037 z"
       id="path853-8"
       inkscape:connector-curvature="0"
       sodipodi:nodetypes="ccccc" />
    <path
       sodipodi:nodetypes="ccccc"
       inkscape:connector-curvature="0"
       id="path855"
       d="m 60.255477,258.3318 h -3.000359 v -1.00014 h 3.000359 z"
       style="opacity:1;fill:#000000;fill-opacity:1;fill-rule:nonzero;stroke:none;stroke-width:0.35481843;stroke-linecap:square;stroke-linejoin:round;stroke-miterlimit:22.9260006;stroke-dasharray:none;stroke-opacity:1;paint-order:stroke fill markers" />
    <path
       style="opacity:1;fill:#000000;fill-opacity:1;fill-rule:nonzero;stroke:none;stroke-width:0.35481843;stroke-linecap:square;stroke-linejoin:round;stroke-miterlimit:22.9260006;stroke-dasharray:none;stroke-opacity:1;paint-order:stroke fill markers"
       d="m 21.850987,258.3318 h -3.000359 v -1.00014 h 3.000359 z"
       id="path860"
       inkscape:connector-curvature="0"
       sodipodi:nodetypes="ccccc" />
    <path
       sodipodi:nodetypes="ccccc"
       inkscape:connector-curvature="0"
       id="path862"
       d="m 17.583988,258.3318 h -3.000361 v -1.00014 h 3.000361 z"
       style="opacity:1;fill:#000000;fill-opacity:1;fill-rule:nonzero;stroke:none;stroke-width:0.35481843;stroke-linecap:square;stroke-linejoin:round;stroke-miterlimit:22.9260006;stroke-dasharray:none;stroke-opacity:1;paint-order:stroke fill markers" />
    <path
       style="opacity:1;fill:#000000;fill-opacity:1;fill-rule:nonzero;stroke:none;stroke-width:0.35481843;stroke-linecap:square;stroke-linejoin:round;stroke-miterlimit:22.9260006;stroke-dasharray:none;stroke-opacity:1;paint-order:stroke fill markers"
       d="m 13.316987,258.3318 h -3.00036 v -1.00014 h 3.00036 z"
       id="path864"
       inkscape:connector-curvature="0"
       sodipodi:nodetypes="ccccc" />
    <path
       style="opacity:1;fill:#000000;fill-opacity:1;fill-rule:nonzero;stroke:none;stroke-width:0.35481843;stroke-linecap:square;stroke-linejoin:round;stroke-miterlimit:22.9260006;stroke-dasharray:none;stroke-opacity:1;paint-order:stroke fill markers"
       d="m 64.522487,258.3318 h -3.00037 v -1.00014 h 3.00037 z"
       id="path868"
       inkscape:connector-curvature="0"
       sodipodi:nodetypes="ccccc" />
    <path
       sodipodi:nodetypes="ccccc"
       inkscape:connector-curvature="0"
       id="path870"
       d="m 68.789668,258.3318 h -3.000359 v -1.00014 h 3.000359 z"
       style="opacity:1;fill:#000000;fill-opacity:1;fill-rule:nonzero;stroke:none;stroke-width:0.35481843;stroke-linecap:square;stroke-linejoin:round;stroke-miterlimit:22.9260006;stroke-dasharray:none;stroke-opacity:1;paint-order:stroke fill markers" />
    <path
       style="opacity:1;fill:#000000;fill-opacity:1;fill-rule:nonzero;stroke:none;stroke-width:0.35481843;stroke-linecap:square;stroke-linejoin:round;stroke-miterlimit:22.9260006;stroke-dasharray:none;stroke-opacity:1;paint-order:stroke fill markers"
       d="m 73.056858,258.3318 h -3.000359 v -1.00014 h 3.000359 z"
       id="path872"
       inkscape:connector-curvature="0"
       sodipodi:nodetypes="ccccc" />
  </g>
</svg>
