<?xml version="1.0" encoding="UTF-8" standalone="no"?>
<!-- Created with Inkscape (http://www.inkscape.org/) -->

<svg
   xmlns:dc="http://purl.org/dc/elements/1.1/"
   xmlns:cc="http://creativecommons.org/ns#"
   xmlns:rdf="http://www.w3.org/1999/02/22-rdf-syntax-ns#"
   xmlns:svg="http://www.w3.org/2000/svg"
   xmlns="http://www.w3.org/2000/svg"
   xmlns:sodipodi="http://sodipodi.sourceforge.net/DTD/sodipodi-0.dtd"
   xmlns:inkscape="http://www.inkscape.org/namespaces/inkscape"
   width="181.39999mm"
   height="61.400002mm"
   viewBox="0 0 181.39999 61.400002"
   version="1.1"
   id="svg825"
   inkscape:version="0.92.2 (5c3e80d, 2017-08-06)"
   sodipodi:docname="11.svg">
  <defs
     id="defs819" />
  <sodipodi:namedview
     id="base"
     pagecolor="#ffffff"
     bordercolor="#666666"
     borderopacity="1.0"
     inkscape:pageopacity="0.0"
     inkscape:pageshadow="2"
     inkscape:zoom="1.4142136"
     inkscape:cx="350.87498"
     inkscape:cy="21.123813"
     inkscape:document-units="mm"
     inkscape:current-layer="layer1"
     showgrid="false"
     fit-margin-top="0"
     fit-margin-left="0"
     fit-margin-right="0"
     fit-margin-bottom="0"
     showborder="true"
     inkscape:window-width="1920"
     inkscape:window-height="1057"
     inkscape:window-x="-8"
     inkscape:window-y="-8"
     inkscape:window-maximized="1"
     showguides="false" />
  <metadata
     id="metadata822">
    <rdf:RDF>
      <cc:Work
         rdf:about="">
        <dc:format>image/svg+xml</dc:format>
        <dc:type
           rdf:resource="http://purl.org/dc/dcmitype/StillImage" />
        <dc:title></dc:title>
      </cc:Work>
    </rdf:RDF>
  </metadata>
  <g
     inkscape:label="Layer 1"
     inkscape:groupmode="layer"
     id="layer1"
     transform="translate(222.83333,-316.54641)">
    <rect
       style="opacity:1;fill:#000000;fill-opacity:1;fill-rule:nonzero;stroke:none;stroke-width:0.8651036;stroke-linecap:square;stroke-linejoin:round;stroke-miterlimit:4;stroke-dasharray:none;stroke-opacity:1;paint-order:stroke fill markers"
       id="rect1373"
       width="180.39999"
       height="60.400002"
       x="-222.33333"
       y="317.04642"
       rx="8.1999998"
       ry="8.1999998" />
    <rect
       y="317.2464"
       x="-222.13333"
       height="60"
       width="180"
       id="rect1375"
       style="opacity:1;fill:#ffffff;fill-opacity:1;fill-rule:nonzero;stroke:none;stroke-width:0.86127794;stroke-linecap:square;stroke-linejoin:round;stroke-miterlimit:4;stroke-dasharray:none;stroke-opacity:1;paint-order:stroke fill markers"
       rx="8"
       ry="8" />
    <rect
       style="opacity:1;fill:#003c82;fill-opacity:1;fill-rule:nonzero;stroke:none;stroke-width:0.80334657;stroke-linecap:square;stroke-linejoin:round;stroke-miterlimit:4;stroke-dasharray:none;stroke-opacity:1;paint-order:stroke fill markers"
       id="rect1385"
       width="174"
       height="54"
       x="-219.13333"
       y="320.24643"
       rx="5"
       ry="5" />
    <path
       sodipodi:nodetypes="cccccccc"
       id="path856"
       style="fill:#ffffff;fill-rule:nonzero;stroke:none;stroke-width:0.09558804"
       d="m -87.133331,324.74642 35,22.5 -35,22.5 v -10.5 H -212.13333 v -24.00001 h 124.999999 v -10.49999"
       inkscape:connector-curvature="0" />
    <path
       d="m -186.86458,340.07558 q 0.60972,-0.84831 1.53756,-1.32548 0.92783,-0.50368 1.9352,-0.50368 0.98085,0 1.82916,0.39764 0.87481,0.39765 1.43151,1.0869 0.58321,0.68924 0.79529,1.405 0.21208,0.71576 0.21208,1.56407 v 9.01325 q 0,0.79529 -0.15906,1.40501 -0.13255,0.58321 -0.60972,1.32548 -0.47717,0.74227 -1.40501,1.27246 -0.92783,0.53019 -2.01472,0.53019 -1.24595,0 -2.30634,-0.63623 -1.03387,-0.63623 -1.45802,-1.43152 -0.39765,-0.82179 -0.47718,-1.29897 -0.0795,-0.50368 -0.0795,-1.16642 v -9.01325 q 0,-0.79529 0.15906,-1.40501 0.18557,-0.60972 0.60972,-1.21944 z m 4.90427,1.3785 q -0.53019,-0.71576 -1.37849,-0.71576 -0.45067,0 -0.90133,0.2651 -0.42415,0.23858 -0.60972,0.5567 -0.15906,0.2916 -0.21208,0.60972 -0.053,0.31811 -0.053,0.53019 v 9.01325 q 0,0.2651 0.0265,0.58321 0.053,0.31812 0.42416,0.87482 0.39764,0.53019 1.32548,0.53019 0.47717,0 0.8483,-0.21208 0.39765,-0.23858 0.5567,-0.53019 0.18557,-0.2916 0.23859,-0.5567 0.053,-0.26509 0.053,-0.68925 v -9.01325 q 0,-0.53019 -0.053,-0.74227 -0.0265,-0.21208 -0.2651,-0.50368 z"
       style="font-style:normal;font-variant:normal;font-weight:normal;font-stretch:normal;font-size:26.50957298px;line-height:1.25;font-family:'DIN 1451 Engschrift';-inkscape-font-specification:'DIN 1451 Engschrift';letter-spacing:0px;word-spacing:6.46170664px;fill:#003c82;fill-opacity:1;stroke:none;stroke-width:0.27614141"
       id="path898"
       inkscape:connector-curvature="0" />
    <path
       d="m -170.10639,356.08736 -3.94992,-10.73637 v 10.73637 h -2.51841 v -17.68188 h 2.38586 l 3.92342,10.70986 v -10.70986 h 2.51841 v 17.68188 z"
       style="font-style:normal;font-variant:normal;font-weight:normal;font-stretch:normal;font-size:26.50957298px;line-height:1.25;font-family:'DIN 1451 Engschrift';-inkscape-font-specification:'DIN 1451 Engschrift';letter-spacing:0px;word-spacing:6.46170664px;fill:#003c82;fill-opacity:1;stroke:none;stroke-width:0.27614141"
       id="path900"
       inkscape:connector-curvature="0" />
    <path
       d="m -157.42155,353.54244 v 2.54492 h -7.55523 v -17.68188 h 7.55523 v 2.33284 h -5.06333 v 5.22239 h 4.45361 v 2.38586 h -4.45361 v 5.19587 z"
       style="font-style:normal;font-variant:normal;font-weight:normal;font-stretch:normal;font-size:26.50957298px;line-height:1.25;font-family:'DIN 1451 Engschrift';-inkscape-font-specification:'DIN 1451 Engschrift';letter-spacing:0px;word-spacing:6.46170664px;fill:#003c82;fill-opacity:1;stroke:none;stroke-width:0.27614141"
       id="path902"
       inkscape:connector-curvature="0" />
    <path
       d="m -136.0241,356.08736 -2.06775,-10.76288 -2.04123,10.76288 h -2.33285 l -2.57142,-17.68188 h 2.70397 l 1.24595,10.68336 2.04124,-10.68336 h 1.88218 l 2.06775,10.68336 1.27246,-10.68336 h 2.67746 l -2.4919,17.68188 z"
       style="font-style:normal;font-variant:normal;font-weight:normal;font-stretch:normal;font-size:26.50957298px;line-height:1.25;font-family:'DIN 1451 Engschrift';-inkscape-font-specification:'DIN 1451 Engschrift';letter-spacing:0px;word-spacing:6.46170664px;fill:#003c82;fill-opacity:1;stroke:none;stroke-width:0.27614141"
       id="path904"
       inkscape:connector-curvature="0" />
    <path
       d="m -130.98314,356.08736 3.94993,-17.68188 h 2.20029 l 3.94993,17.68188 h -2.70398 l -0.71576,-3.79087 h -3.28718 l -0.71576,3.79087 z m 3.84389,-6.15022 h 2.38586 l -1.19293,-6.44182 z"
       style="font-style:normal;font-variant:normal;font-weight:normal;font-stretch:normal;font-size:26.50957298px;line-height:1.25;font-family:'DIN 1451 Engschrift';-inkscape-font-specification:'DIN 1451 Engschrift';letter-spacing:0px;word-spacing:6.46170664px;fill:#003c82;fill-opacity:1;stroke:none;stroke-width:0.27614141"
       id="path906"
       inkscape:connector-curvature="0" />
    <path
       d="m -117.65131,356.08736 v -7.60825 l -3.41973,-10.07363 h 2.65095 l 2.04124,6.919 2.09426,-6.919 h 2.65096 l -3.49927,10.07363 v 7.60825 z"
       style="font-style:normal;font-variant:normal;font-weight:normal;font-stretch:normal;font-size:26.50957298px;line-height:1.25;font-family:'DIN 1451 Engschrift';-inkscape-font-specification:'DIN 1451 Engschrift';letter-spacing:0px;word-spacing:6.46170664px;fill:#003c82;fill-opacity:1;stroke:none;stroke-width:0.27614141"
       id="path908"
       inkscape:connector-curvature="0" />
  </g>
</svg>
