<?xml version="1.0" encoding="UTF-8" standalone="no"?>
<!-- Created with Inkscape (http://www.inkscape.org/) -->

<svg
   xmlns:dc="http://purl.org/dc/elements/1.1/"
   xmlns:cc="http://creativecommons.org/ns#"
   xmlns:rdf="http://www.w3.org/1999/02/22-rdf-syntax-ns#"
   xmlns:svg="http://www.w3.org/2000/svg"
   xmlns="http://www.w3.org/2000/svg"
   xmlns:sodipodi="http://sodipodi.sourceforge.net/DTD/sodipodi-0.dtd"
   xmlns:inkscape="http://www.inkscape.org/namespaces/inkscape"
   width="66.400002mm"
   height="151.39999mm"
   viewBox="0 0 66.400002 151.39999"
   version="1.1"
   id="svg845"
   inkscape:version="0.92.2 (5c3e80d, 2017-08-06)"
   sodipodi:docname="22.svg">
  <defs
     id="defs839" />
  <sodipodi:namedview
     id="base"
     pagecolor="#ffffff"
     bordercolor="#666666"
     borderopacity="1.0"
     inkscape:pageopacity="0.0"
     inkscape:pageshadow="2"
     inkscape:zoom="0.98994949"
     inkscape:cx="241.79078"
     inkscape:cy="286.10983"
     inkscape:document-units="mm"
     inkscape:current-layer="layer1"
     showgrid="false"
     inkscape:window-width="1920"
     inkscape:window-height="1057"
     inkscape:window-x="-8"
     inkscape:window-y="-8"
     inkscape:window-maximized="1" />
  <metadata
     id="metadata842">
    <rdf:RDF>
      <cc:Work
         rdf:about="">
        <dc:format>image/svg+xml</dc:format>
        <dc:type
           rdf:resource="http://purl.org/dc/dcmitype/StillImage" />
        <dc:title></dc:title>
      </cc:Work>
    </rdf:RDF>
  </metadata>
  <g
     inkscape:label="Layer 1"
     inkscape:groupmode="layer"
     id="layer1"
     transform="translate(0,-145.59992)">
    <rect
       style="opacity:1;fill:#000000;fill-opacity:1;fill-rule:nonzero;stroke:none;stroke-width:0.82194763;stroke-linecap:square;stroke-linejoin:round;stroke-miterlimit:4;stroke-dasharray:none;stroke-opacity:1;paint-order:stroke fill markers"
       id="rect1373"
       width="65.400002"
       height="150.39999"
       x="0.5"
       y="146.09998"
       rx="6.4499998"
       ry="6.4499998" />
    <rect
       y="146.29996"
       x="0.70002747"
       height="150"
       width="65"
       id="rect1375"
       style="opacity:1;fill:#ffffff;fill-opacity:1;fill-rule:nonzero;stroke:none;stroke-width:0.81833988;stroke-linecap:square;stroke-linejoin:round;stroke-miterlimit:4;stroke-dasharray:none;stroke-opacity:1;paint-order:stroke fill markers"
       rx="6.25"
       ry="6.25" />
    <rect
       style="opacity:1;fill:#006e3c;fill-opacity:1;fill-rule:nonzero;stroke:none;stroke-width:0.77302051;stroke-linecap:square;stroke-linejoin:round;stroke-miterlimit:4;stroke-dasharray:none;stroke-opacity:1;paint-order:stroke fill markers"
       id="rect1385"
       width="60"
       height="145"
       x="3.2000101"
       y="148.79997"
       rx="3.75"
       ry="3.75" />
    <g
       aria-label="m"
       style="font-style:normal;font-variant:normal;font-weight:normal;font-stretch:normal;font-size:19.50476265px;line-height:1.25;font-family:'DIN 1451 Mittelschrift';-inkscape-font-specification:'DIN 1451 Mittelschrift';letter-spacing:0px;word-spacing:0px;fill:#ffff00;fill-opacity:1;stroke:none;stroke-width:0.20317459"
       id="text1779"
       transform="translate(0.69999994,-0.70003924)">
      <path
         d="m 25.595001,192 v -9.88571 h 1.990476 v 1.05714 h 0.03809 Q 28.566429,182 30.195001,182 q 1.038095,0 1.647619,0.37143 0.609524,0.37143 1.142857,0.91429 Q 34.156906,182 36.109287,182 q 1.152381,0 2.219047,0.87619 1.076191,0.87619 1.076191,2.55238 V 192 h -1.990476 v -5.88571 q 0,-1 -0.561905,-1.56191 -0.561905,-0.5619 -1.390476,-0.5619 -0.857143,0 -1.419048,0.5619 -0.552381,0.56191 -0.552381,1.56191 V 192 h -1.980952 v -5.88571 q 0,-1 -0.561905,-1.56191 -0.561905,-0.5619 -1.390477,-0.5619 -0.857142,0 -1.419047,0.5619 -0.552381,0.56191 -0.552381,1.56191 V 192 Z"
         style="font-style:normal;font-variant:normal;font-weight:normal;font-stretch:normal;font-family:'DIN 1451 Mittelschrift';-inkscape-font-specification:'DIN 1451 Mittelschrift';fill:#ffffff;stroke:none;stroke-width:0.20317459;stroke-opacity:1"
         id="path1821"
         inkscape:connector-curvature="0" />
    </g>
    <path
       sodipodi:nodetypes="ccccc"
       inkscape:connector-curvature="0"
       id="path880"
       d="M 64.200358,200.39174 2.200003,236.18797 2.2,263.89996 64.200358,228.10373 Z"
       style="opacity:1;fill:#ffffff;fill-opacity:1;fill-rule:nonzero;stroke:none;stroke-width:0.77302051;stroke-linecap:square;stroke-linejoin:round;stroke-miterlimit:4;stroke-dasharray:none;stroke-opacity:1;paint-order:stroke fill markers" />
    <g
       aria-label="100"
       style="font-style:normal;font-variant:normal;font-weight:normal;font-stretch:normal;font-size:26.2564106px;line-height:1.25;font-family:'DIN 1451 Mittelschrift';-inkscape-font-specification:'DIN 1451 Mittelschrift';letter-spacing:0px;word-spacing:0px;fill:#ffffff;fill-opacity:1;stroke:none;stroke-width:0.27350429"
       id="text911"
       transform="translate(0.69999998,-0.69999637)">
      <path
         d="M 19.480666,174.88458 V 158.99996 L 16.814,160.94868 v -2.84615 l 2.666666,-1.9359 h 2.692308 v 18.71795 z"
         style="font-style:normal;font-variant:normal;font-weight:normal;font-stretch:normal;font-family:'DIN 1451 Mittelschrift';-inkscape-font-specification:'DIN 1451 Mittelschrift';fill:#ffffff;fill-opacity:1;stroke-width:0.27350429"
         id="path937"
         inkscape:connector-curvature="0" />
      <path
         d="m 32.890923,169.47432 v -7.93589 q 0,-1.34616 -0.73077,-2.10257 -0.717948,-0.75641 -1.897436,-0.75641 -1.192307,0 -1.910256,0.75641 -0.717949,0.75641 -0.717949,2.10257 v 7.93589 q 0,1.35898 0.717949,2.11539 0.717949,0.74359 1.910256,0.74359 1.179488,0 1.897436,-0.74359 0.73077,-0.75641 0.73077,-2.11539 z m -7.935898,0.15385 v -8.24359 q 0,-2.57692 1.615385,-3.97436 1.615384,-1.41026 3.692307,-1.41026 2.064103,0 3.679488,1.41026 1.628205,1.39744 1.628205,3.97436 v 8.24359 q 0,2.57692 -1.628205,3.97436 -1.615385,1.39743 -3.679488,1.39743 -2.076923,0 -3.692307,-1.39743 -1.615385,-1.39744 -1.615385,-3.97436 z"
         style="font-style:normal;font-variant:normal;font-weight:normal;font-stretch:normal;font-family:'DIN 1451 Mittelschrift';-inkscape-font-specification:'DIN 1451 Mittelschrift';fill:#ffffff;fill-opacity:1;stroke-width:0.27350429"
         id="path939"
         inkscape:connector-curvature="0" />
      <path
         d="m 45.506307,169.47432 v -7.93589 q 0,-1.34616 -0.73077,-2.10257 -0.717948,-0.75641 -1.897436,-0.75641 -1.192307,0 -1.910256,0.75641 -0.717949,0.75641 -0.717949,2.10257 v 7.93589 q 0,1.35898 0.717949,2.11539 0.717949,0.74359 1.910256,0.74359 1.179488,0 1.897436,-0.74359 0.73077,-0.75641 0.73077,-2.11539 z m -7.935898,0.15385 v -8.24359 q 0,-2.57692 1.615385,-3.97436 1.615384,-1.41026 3.692307,-1.41026 2.064103,0 3.679488,1.41026 1.628205,1.39744 1.628205,3.97436 v 8.24359 q 0,2.57692 -1.628205,3.97436 -1.615385,1.39743 -3.679488,1.39743 -2.076923,0 -3.692307,-1.39743 -1.615385,-1.39744 -1.615385,-3.97436 z"
         style="font-style:normal;font-variant:normal;font-weight:normal;font-stretch:normal;font-family:'DIN 1451 Mittelschrift';-inkscape-font-specification:'DIN 1451 Mittelschrift';fill:#ffffff;fill-opacity:1;stroke-width:0.27350429"
         id="path941"
         inkscape:connector-curvature="0" />
    </g>
  </g>
</svg>
