<?xml version="1.0" encoding="UTF-8" standalone="no"?>
<!-- Created with Inkscape (http://www.inkscape.org/) -->

<svg
   xmlns:dc="http://purl.org/dc/elements/1.1/"
   xmlns:cc="http://creativecommons.org/ns#"
   xmlns:rdf="http://www.w3.org/1999/02/22-rdf-syntax-ns#"
   xmlns:svg="http://www.w3.org/2000/svg"
   xmlns="http://www.w3.org/2000/svg"
   xmlns:sodipodi="http://sodipodi.sourceforge.net/DTD/sodipodi-0.dtd"
   xmlns:inkscape="http://www.inkscape.org/namespaces/inkscape"
   width="61mm"
   height="61mm"
   viewBox="0 0 61 61"
   version="1.1"
   id="svg2000"
   inkscape:version="0.92.2 (5c3e80d, 2017-08-06)"
   sodipodi:docname="11.svg">
  <defs
     id="defs1994">
    <pattern
       y="0"
       x="0"
       height="6"
       width="6"
       patternUnits="userSpaceOnUse"
       id="EMFhbasepattern" />
  </defs>
  <sodipodi:namedview
     id="base"
     pagecolor="#ffffff"
     bordercolor="#666666"
     borderopacity="1.0"
     inkscape:pageopacity="0.0"
     inkscape:pageshadow="2"
     inkscape:zoom="1.979899"
     inkscape:cx="178.47065"
     inkscape:cy="76.223589"
     inkscape:document-units="mm"
     inkscape:current-layer="layer1"
     showgrid="false"
     inkscape:window-width="1920"
     inkscape:window-height="1057"
     inkscape:window-x="-8"
     inkscape:window-y="-8"
     inkscape:window-maximized="1" />
  <metadata
     id="metadata1997">
    <rdf:RDF>
      <cc:Work
         rdf:about="">
        <dc:format>image/svg+xml</dc:format>
        <dc:type
           rdf:resource="http://purl.org/dc/dcmitype/StillImage" />
        <dc:title></dc:title>
      </cc:Work>
    </rdf:RDF>
  </metadata>
  <g
     inkscape:label="Layer 1"
     inkscape:groupmode="layer"
     id="layer1"
     transform="translate(0,-236)">
    <circle
       style="opacity:1;fill:#dc0a14;fill-opacity:1;fill-rule:nonzero;stroke:none;stroke-width:0.18410923;stroke-linecap:square;stroke-linejoin:round;stroke-miterlimit:4;stroke-dasharray:none;stroke-opacity:1;paint-order:stroke fill markers"
       id="path17"
       cx="30.500002"
       cy="266.5"
       r="30.000002" />
    <circle
       r="24"
       cy="266.5"
       cx="30.500002"
       id="circle1748"
       style="opacity:1;fill:#ffffff;fill-opacity:1;fill-rule:nonzero;stroke:none;stroke-width:0.14728737;stroke-linecap:square;stroke-linejoin:round;stroke-miterlimit:4;stroke-dasharray:none;stroke-opacity:1;paint-order:stroke fill markers" />
    <path
       d="m 33.65292,253.20411 v -1.61181 h 1.06942 v 1.61181 h 0.77776 v 0.81869 h -0.77776 v 3.09057 q 0,0.39911 0.37865,0.39911 h 0.39911 v 1.0029 h -0.55774 q -0.55773,0 -0.92614,-0.33771 -0.3633,-0.33771 -0.3633,-0.96708 v -3.18779 h -0.53215 v -0.81869 z"
       style="font-style:normal;font-variant:normal;font-weight:normal;font-stretch:normal;font-size:36.24778748px;line-height:1.25;font-family:'DIN 1451 Mittelschrift';-inkscape-font-specification:'DIN 1451 Mittelschrift';letter-spacing:0px;word-spacing:0px;fill:#000000;fill-opacity:1;fill-rule:nonzero;stroke:none;stroke-width:0.26198182"
       id="path830"
       inkscape:connector-curvature="0" />
    <path
       style="opacity:1;fill:#000000;fill-opacity:1;fill-rule:nonzero;stroke:none;stroke-width:0.65223306;stroke-linecap:square;stroke-linejoin:round;stroke-miterlimit:4;stroke-dasharray:none;stroke-opacity:1;paint-order:stroke fill markers"
       d="m 18.29996,267.50029 c -0.4432,0 -0.79996,0.35675 -0.79996,0.79995 v 11.7998 c 0,0.4432 0.35676,0.79995 0.79996,0.79995 h 1.79989 c 0.4432,0 0.79995,-0.35675 0.79995,-0.79995 v -4.89996 h 19.200375 v 4.89996 c 0,0.4432 0.35676,0.79995 0.79996,0.79995 h 1.79989 c 0.4432,0 0.79995,-0.35675 0.79995,-0.79995 v -11.7998 c 0,-0.4432 -0.35675,-0.79995 -0.79995,-0.79995 h -1.79989 c -0.4432,0 -0.79996,0.35675 -0.79996,0.79995 v 4.89996 H 20.8998 v -4.89996 c 0,-0.4432 -0.35675,-0.79995 -0.79995,-0.79995 z"
       id="rect1837"
       inkscape:connector-curvature="0" />
    <circle
       style="opacity:1;fill:#000000;fill-opacity:1;fill-rule:nonzero;stroke:none;stroke-width:1.04404807;stroke-linecap:square;stroke-linejoin:round;stroke-miterlimit:4;stroke-dasharray:none;stroke-opacity:1;paint-order:stroke fill markers"
       id="path1880"
       cx="30.500006"
       cy="274.20004"
       r="2.4000001" />
    <path
       inkscape:connector-curvature="0"
       id="path1891"
       style="fill:#000000;fill-opacity:1;fill-rule:evenodd;stroke:none;stroke-width:0.07768183"
       d="m 27.7,267.59999 2.80001,2.8 2.79999,-2.8 H 32 v -6.2 h -3 v 6.2"
       sodipodi:nodetypes="ccccccc" />
    <path
       d="m 25.5,258.89998 v -1.33333 l 3.87755,-4.85034 q 0.22449,-0.28571 0.29252,-0.52381 0.068,-0.23809 0.068,-0.46258 0,-0.51701 -0.36734,-0.95919 -0.36735,-0.44898 -1,-0.44898 -0.57824,0 -0.9932,0.38776 -0.40817,0.38095 -0.45578,1.04762 h -1.42178 q 0.007,-1.20408 0.82313,-2.02721 0.81633,-0.82994 1.93878,-0.82994 1.23809,0 2.06122,0.83674 0.82994,0.82993 0.82994,2.0068 0,1.0068 -0.59184,1.7415 l -3.19048,4 h 3.78232 v 1.41496 z"
       style="font-style:normal;font-variant:normal;font-weight:normal;font-stretch:normal;font-size:13.9319725px;line-height:1.25;font-family:'DIN 1451 Mittelschrift';-inkscape-font-specification:'DIN 1451 Mittelschrift';letter-spacing:0px;word-spacing:0px;fill:#000000;fill-opacity:1;stroke:none;stroke-width:0.34829935"
       id="path1906"
       inkscape:connector-curvature="0" />
  </g>
</svg>
