<?xml version="1.0" encoding="UTF-8" standalone="no"?>
<!-- Created with Inkscape (http://www.inkscape.org/) -->

<svg
   xmlns:dc="http://purl.org/dc/elements/1.1/"
   xmlns:cc="http://creativecommons.org/ns#"
   xmlns:rdf="http://www.w3.org/1999/02/22-rdf-syntax-ns#"
   xmlns:svg="http://www.w3.org/2000/svg"
   xmlns="http://www.w3.org/2000/svg"
   xmlns:sodipodi="http://sodipodi.sourceforge.net/DTD/sodipodi-0.dtd"
   xmlns:inkscape="http://www.inkscape.org/namespaces/inkscape"
   width="61mm"
   height="83mm"
   viewBox="0 0 61 83"
   version="1.1"
   id="svg842"
   inkscape:version="0.92.2 (5c3e80d, 2017-08-06)"
   sodipodi:docname="66.svg">
  <defs
     id="defs836" />
  <sodipodi:namedview
     id="base"
     pagecolor="#ffffff"
     bordercolor="#666666"
     borderopacity="1.0"
     inkscape:pageopacity="0.0"
     inkscape:pageshadow="2"
     inkscape:zoom="1.6041517"
     inkscape:cx="194.3012"
     inkscape:cy="110.44706"
     inkscape:document-units="mm"
     inkscape:current-layer="layer1"
     showgrid="false"
     inkscape:window-width="1920"
     inkscape:window-height="1057"
     inkscape:window-x="-8"
     inkscape:window-y="-8"
     inkscape:window-maximized="1" />
  <metadata
     id="metadata839">
    <rdf:RDF>
      <cc:Work
         rdf:about="">
        <dc:format>image/svg+xml</dc:format>
        <dc:type
           rdf:resource="http://purl.org/dc/dcmitype/StillImage" />
        <dc:title></dc:title>
      </cc:Work>
    </rdf:RDF>
  </metadata>
  <g
     inkscape:label="Layer 1"
     inkscape:groupmode="layer"
     id="layer1"
     transform="translate(0,-214)">
    <rect
       style="opacity:1;fill:#000000;fill-opacity:1;fill-rule:nonzero;stroke:none;stroke-width:1.04995227;stroke-linecap:square;stroke-linejoin:round;stroke-miterlimit:4;stroke-dasharray:none;stroke-opacity:1;paint-order:stroke fill markers"
       id="rect1489"
       width="60"
       height="82"
       x="0.5"
       y="214.5"
       rx="2.4000001"
       ry="2.4000001" />
    <rect
       ry="0.82083333"
       rx="0.80000007"
       y="216.09998"
       x="2.0999999"
       height="78.800003"
       width="56.800003"
       id="rect1491"
       style="opacity:1;fill:#ffffff;fill-opacity:1;fill-rule:nonzero;stroke:none;stroke-width:1.00143838;stroke-linecap:square;stroke-linejoin:round;stroke-miterlimit:4;stroke-dasharray:none;stroke-opacity:1;paint-order:stroke fill markers" />
    <g
       aria-label="ZONE"
       style="font-style:normal;font-variant:normal;font-weight:normal;font-stretch:normal;font-size:19.34682846px;line-height:1.25;font-family:'DIN 1451 Mittelschrift';-inkscape-font-specification:'DIN 1451 Mittelschrift';letter-spacing:0.10054167px;word-spacing:0px;fill:#ff0000;fill-opacity:1;stroke:none;stroke-width:0.20152949"
       id="text2520"
       transform="translate(-7.019395,125.49105)">
      <path
         d="m 15.019395,163.89559 v -1.73819 l 6.253711,-10.17409 h -5.99865 v -1.85155 h 8.549257 v 1.56815 l -6.272604,10.23077 h 6.272604 v 1.96491 z"
         style="font-style:normal;font-variant:normal;font-weight:normal;font-stretch:normal;font-family:'DIN 1451 Mittelschrift';-inkscape-font-specification:'DIN 1451 Mittelschrift';letter-spacing:0.10054167px;fill:#000000;fill-opacity:1;stroke:none;stroke-width:0.20152949"
         id="path2522"
         inkscape:connector-curvature="0" />
      <path
         d="m 25.53964,157.0184 q 0,-2.48448 0.132254,-3.20243 0.132253,-0.71795 0.472334,-1.32254 0.481782,-0.89743 1.577598,-1.69095 1.105263,-0.79353 2.730095,-0.79353 1.615384,0 2.711201,0.79353 1.105263,0.79352 1.605938,1.69095 0.330634,0.60459 0.462888,1.32254 0.132253,0.71795 0.132253,3.20243 0,2.48448 -0.132253,3.20243 -0.132254,0.71795 -0.462888,1.32254 -0.500675,0.90688 -1.605938,1.69095 -1.095817,0.77463 -2.711201,0.77463 -1.624832,0 -2.730095,-0.77463 -1.095816,-0.78407 -1.577598,-1.69095 -0.340081,-0.60459 -0.472334,-1.32254 -0.132254,-0.71795 -0.132254,-3.20243 z m 2.087719,0 q 0,2.12551 0.141701,2.75843 0.151147,0.63293 0.557355,1.14305 0.311741,0.41566 0.850202,0.71795 0.538462,0.29285 1.275304,0.29285 0.736842,0 1.275303,-0.29285 0.538462,-0.30229 0.850203,-0.71795 0.406208,-0.51012 0.547908,-1.14305 0.151147,-0.63292 0.151147,-2.75843 0,-2.11606 -0.151147,-2.74899 -0.1417,-0.63293 -0.547908,-1.16194 -0.311741,-0.39676 -0.850203,-0.69906 -0.538461,-0.30229 -1.275303,-0.30229 -0.736842,0 -1.275304,0.30229 -0.538461,0.3023 -0.850202,0.69906 -0.406208,0.52901 -0.557355,1.16194 -0.141701,0.63293 -0.141701,2.74899 z"
         style="font-style:normal;font-variant:normal;font-weight:normal;font-stretch:normal;font-family:'DIN 1451 Mittelschrift';-inkscape-font-specification:'DIN 1451 Mittelschrift';letter-spacing:0.10054167px;fill:#000000;fill-opacity:1;stroke:none;stroke-width:0.20152949"
         id="path2524"
         inkscape:connector-curvature="0" />
      <path
         d="m 37.892544,163.89559 v -13.76383 h 1.974359 l 6.225371,9.78678 h 0.03779 v -9.78678 h 2.097166 v 13.76383 H 46.252871 L 40.0275,154.10882 h -0.04723 v 9.78677 z"
         style="font-style:normal;font-variant:normal;font-weight:normal;font-stretch:normal;font-family:'DIN 1451 Mittelschrift';-inkscape-font-specification:'DIN 1451 Mittelschrift';letter-spacing:0.10054167px;fill:#000000;fill-opacity:1;stroke:none;stroke-width:0.20152949"
         id="path2526"
         inkscape:connector-curvature="0" />
      <path
         d="m 51.215196,163.89559 v -13.76383 h 8.804319 v 1.97436 h -6.7166 v 3.92038 h 5.724697 v 1.861 h -5.724697 v 4.04318 h 6.7166 v 1.96491 z"
         style="font-style:normal;font-variant:normal;font-weight:normal;font-stretch:normal;font-family:'DIN 1451 Mittelschrift';-inkscape-font-specification:'DIN 1451 Mittelschrift';letter-spacing:0.10054167px;fill:#000000;fill-opacity:1;stroke:none;stroke-width:0.20152949"
         id="path2528"
         inkscape:connector-curvature="0" />
    </g>
    <circle
       style="opacity:1;fill:#dc0a14;fill-opacity:1;fill-rule:nonzero;stroke:none;stroke-width:0.1411504;stroke-linecap:square;stroke-linejoin:round;stroke-miterlimit:4;stroke-dasharray:none;stroke-opacity:1;paint-order:stroke fill markers"
       id="path17-9"
       cx="30.5"
       cy="244.49998"
       r="23" />
    <circle
       r="18.4"
       cy="244.49998"
       cx="30.5"
       id="circle1748-2"
       style="opacity:1;fill:#ffffff;fill-opacity:1;fill-rule:nonzero;stroke:none;stroke-width:0.11292031;stroke-linecap:square;stroke-linejoin:round;stroke-miterlimit:4;stroke-dasharray:none;stroke-opacity:1;paint-order:stroke fill markers" />
    <g
       aria-label="P"
       transform="matrix(0.76309654,0,0,-0.76666662,-49.303373,80.134429)"
       style="font-style:normal;font-variant:normal;font-weight:normal;font-stretch:normal;font-size:53.97301483px;line-height:1.25;font-family:'DIN 1451 Engschrift';-inkscape-font-specification:'DIN 1451 Engschrift';letter-spacing:0px;word-spacing:0px;fill:#000000;fill-opacity:1;stroke:none;stroke-width:1.011994"
       id="text926">
      <path
         style="opacity:1;fill:#000000;fill-opacity:1;fill-rule:nonzero;stroke:none;stroke-width:0.11986813;stroke-linecap:square;stroke-linejoin:round;stroke-miterlimit:4;stroke-dasharray:none;stroke-opacity:1;paint-order:stroke fill markers"
         d="m 97.545591,-233.38986 v 35.99987 h 5.123789 4.32018 c 4.56405,0 8.23838,-3.65722 8.23838,-8.20002 v -5.39967 c 0,-4.5428 -3.67433,-8.20002 -8.23838,-8.20002 h -4.32018 v -14.20016 z m 5.123789,19.30011 h 4.32018 c 1.72544,0 3.11457,1.38267 3.11457,3.10007 v 5.39967 c 0,1.7174 -1.38913,3.10007 -3.11457,3.10007 h -4.32018 z"
         id="rect966"
         inkscape:connector-curvature="0"
         sodipodi:nodetypes="cccssssccccsssscc" />
    </g>
    <rect
       y="172.22099"
       x="-153.62082"
       height="44.466663"
       width="4.5999999"
       id="rect836"
       style="opacity:1;fill:#dc0a14;fill-opacity:1;fill-rule:nonzero;stroke:none;stroke-width:1.31293905;stroke-linecap:square;stroke-linejoin:round;stroke-miterlimit:4;stroke-dasharray:none;stroke-opacity:1;paint-order:stroke fill markers"
       transform="rotate(-45)" />
  </g>
</svg>
