<?xml version="1.0" encoding="UTF-8" standalone="no"?>
<!-- Created with Inkscape (http://www.inkscape.org/) -->

<svg
   xmlns:dc="http://purl.org/dc/elements/1.1/"
   xmlns:cc="http://creativecommons.org/ns#"
   xmlns:rdf="http://www.w3.org/1999/02/22-rdf-syntax-ns#"
   xmlns:svg="http://www.w3.org/2000/svg"
   xmlns="http://www.w3.org/2000/svg"
   xmlns:sodipodi="http://sodipodi.sourceforge.net/DTD/sodipodi-0.dtd"
   xmlns:inkscape="http://www.inkscape.org/namespaces/inkscape"
   width="61.400002mm"
   height="61.400002mm"
   viewBox="0 0 61.400002 61.400002"
   version="1.1"
   id="svg825"
   inkscape:version="0.92.2 (5c3e80d, 2017-08-06)"
   sodipodi:docname="22.svg">
  <defs
     id="defs819" />
  <sodipodi:namedview
     id="base"
     pagecolor="#ffffff"
     bordercolor="#666666"
     borderopacity="1.0"
     inkscape:pageopacity="0.0"
     inkscape:pageshadow="2"
     inkscape:zoom="2.2892582"
     inkscape:cx="86.251668"
     inkscape:cy="109.02475"
     inkscape:document-units="mm"
     inkscape:current-layer="layer1"
     showgrid="false"
     fit-margin-top="0"
     fit-margin-left="0"
     fit-margin-right="0"
     fit-margin-bottom="0"
     showborder="true"
     inkscape:window-width="1920"
     inkscape:window-height="1057"
     inkscape:window-x="-8"
     inkscape:window-y="-8"
     inkscape:window-maximized="1" />
  <metadata
     id="metadata822">
    <rdf:RDF>
      <cc:Work
         rdf:about="">
        <dc:format>image/svg+xml</dc:format>
        <dc:type
           rdf:resource="http://purl.org/dc/dcmitype/StillImage" />
        <dc:title></dc:title>
      </cc:Work>
    </rdf:RDF>
  </metadata>
  <g
     inkscape:label="Layer 1"
     inkscape:groupmode="layer"
     id="layer1"
     transform="translate(232.83333,-324.04641)">
    <rect
       style="opacity:1;fill:#000000;fill-opacity:1;fill-rule:nonzero;stroke:none;stroke-width:0.50057405;stroke-linecap:square;stroke-linejoin:round;stroke-miterlimit:4;stroke-dasharray:none;stroke-opacity:1;paint-order:stroke fill markers"
       id="rect1373"
       width="60.400002"
       height="60.400002"
       x="-232.33333"
       y="324.54642"
       rx="3.8"
       ry="3.8" />
    <rect
       y="324.7464"
       x="-232.13335"
       height="60"
       width="60"
       id="rect1375"
       style="opacity:1;fill:#ffffff;fill-opacity:1;fill-rule:nonzero;stroke:none;stroke-width:0.49725902;stroke-linecap:square;stroke-linejoin:round;stroke-miterlimit:4;stroke-dasharray:none;stroke-opacity:1;paint-order:stroke fill markers"
       rx="3.5999999"
       ry="3.5999999" />
    <rect
       style="opacity:1;fill:#003c82;fill-opacity:1;fill-rule:nonzero;stroke:none;stroke-width:0.47239608;stroke-linecap:square;stroke-linejoin:round;stroke-miterlimit:4;stroke-dasharray:none;stroke-opacity:1;paint-order:stroke fill markers"
       id="rect1385"
       width="57"
       height="57"
       x="-230.63335"
       y="326.2464"
       rx="2.0999999"
       ry="2.0999999" />
    <path
       inkscape:connector-curvature="0"
       style="fill:#ffffff;fill-opacity:1;fill-rule:evenodd;stroke:none;stroke-width:0.7149685;stroke-linecap:butt;stroke-linejoin:miter;stroke-miterlimit:4;stroke-opacity:1"
       d="m -222.81918,354.54912 11.58663,-3.36978 c 0.80715,-0.21706 1.51415,0.6778 1.51415,1.51971 v 9.97718 c 0,0 -14.61493,4.95557 -14.61493,4.95557 v -11.33172 c 0,-0.84191 0.71204,-1.53524 1.51415,-1.75096 z"
       id="rect3662" />
    <path
       inkscape:connector-curvature="0"
       style="fill:#ffffff;fill-opacity:1;fill-rule:evenodd;stroke:none;stroke-width:0.9003306;stroke-linecap:butt;stroke-linejoin:miter;stroke-miterlimit:4;stroke-opacity:1"
       d="m -209.60598,355.8352 18.13068,9.37626 -10.06066,4.35237 -0.19825,0.0829 -0.0578,0.20726 -1.48679,5.23112 -17.84157,-10.28816 v -5.55447 z"
       id="rect7228" />
    <path
       inkscape:connector-curvature="0"
       style="fill:#003c82;fill-opacity:1;fill-rule:evenodd;stroke:none;stroke-width:0.9003306;stroke-linecap:butt;stroke-linejoin:miter;stroke-miterlimit:4;stroke-opacity:1"
       d="m -209.74639,354.33466 -12.27435,3.61455 v 7.10473 0.26529 l 0.23128,0.12436 18.5602,10.70269 0.50385,0.29016 0.15695,-0.55545 1.58591,-5.57933 10.72973,-4.63425 0.87555,-0.38134 -0.84251,-0.43109 -13.1499,-6.80628 0.7434,-0.22384 -1.03251,-0.50571 z m 0.14041,1.50054 3.84089,1.98966 -10.41584,3.11713 -3.79133,-2.03941 z m 4.9973,2.58656 13.13338,6.7897 -10.06066,4.35237 -0.19825,0.0829 -0.0578,0.20726 -1.48679,5.23112 -17.84157,-10.28816 v -5.48814 l 4.83209,2.59483 z"
       id="path9940"
       sodipodi:nodetypes="ccccccccccccccccccccccccccccccc" />
    <path
       inkscape:connector-curvature="0"
       style="fill:#ffffff;fill-opacity:1;fill-rule:evenodd;stroke:none;stroke-width:0.9003306;stroke-linecap:butt;stroke-linejoin:miter;stroke-miterlimit:4;stroke-opacity:1"
       d="m -209.829,355.29634 4.74124,2.32127 -11.09317,3.32438 -4.53473,-2.43733 z"
       id="rect5437" />
    <path
       inkscape:connector-curvature="0"
       style="fill:#ffffff;fill-opacity:1;fill-rule:evenodd;stroke:#003c82;stroke-width:0.9003306;stroke-linecap:butt;stroke-linejoin:miter;stroke-miterlimit:4;stroke-opacity:1"
       d="m -201.29177,368.49075 10.86245,-3.17155 c 0.9526,-0.25618 1.64582,0.73672 1.64582,1.65185 v 8.52356 c 0,0 -1.90915,0.66074 -1.90915,0.66074 v -4.06926 l -10.00662,3.04038 v 3.47363 c 0,0 -2.23833,0.72681 -2.23833,0.72681 v -8.90397 c 0,-0.91512 0.69652,-1.67688 1.64583,-1.93219 z"
       id="rect7233" />
    <rect
       y="-346.74643"
       x="-202.13335"
       height="8"
       width="24"
       id="rect1934"
       style="fill:#dc0a14;fill-opacity:1;stroke:none;stroke-width:0.00795024;stroke-miterlimit:10;stroke-dasharray:none;stroke-opacity:1"
       transform="scale(1,-1)" />
    <rect
       style="fill:#dc0a14;fill-opacity:1;stroke:none;stroke-width:0.00795024;stroke-miterlimit:10;stroke-dasharray:none;stroke-opacity:1"
       id="rect1055"
       width="24"
       height="8"
       x="-354.7464"
       y="186.13332"
       transform="matrix(0,-1,-1,0,0,0)" />
  </g>
</svg>
