<?xml version="1.0" encoding="UTF-8" standalone="no"?>
<!-- Created with Inkscape (http://www.inkscape.org/) -->

<svg
   xmlns:dc="http://purl.org/dc/elements/1.1/"
   xmlns:cc="http://creativecommons.org/ns#"
   xmlns:rdf="http://www.w3.org/1999/02/22-rdf-syntax-ns#"
   xmlns:svg="http://www.w3.org/2000/svg"
   xmlns="http://www.w3.org/2000/svg"
   xmlns:sodipodi="http://sodipodi.sourceforge.net/DTD/sodipodi-0.dtd"
   xmlns:inkscape="http://www.inkscape.org/namespaces/inkscape"
   width="61mm"
   height="61mm"
   viewBox="0 0 61 61"
   version="1.1"
   id="svg833"
   inkscape:version="0.92.2 (5c3e80d, 2017-08-06)"
   sodipodi:docname="33.svg">
  <defs
     id="defs827" />
  <sodipodi:namedview
     id="base"
     pagecolor="#ffffff"
     bordercolor="#666666"
     borderopacity="1.0"
     inkscape:pageopacity="0.0"
     inkscape:pageshadow="2"
     inkscape:zoom="1.4"
     inkscape:cx="65.940581"
     inkscape:cy="72.270842"
     inkscape:document-units="mm"
     inkscape:current-layer="layer1"
     showgrid="false"
     inkscape:window-width="1920"
     inkscape:window-height="1057"
     inkscape:window-x="-8"
     inkscape:window-y="-8"
     inkscape:window-maximized="1"
     showborder="true"
     inkscape:pagecheckerboard="false" />
  <metadata
     id="metadata830">
    <rdf:RDF>
      <cc:Work
         rdf:about="">
        <dc:format>image/svg+xml</dc:format>
        <dc:type
           rdf:resource="http://purl.org/dc/dcmitype/StillImage" />
        <dc:title></dc:title>
      </cc:Work>
    </rdf:RDF>
  </metadata>
  <g
     inkscape:label="Layer 1"
     inkscape:groupmode="layer"
     id="layer1"
     transform="translate(0,-236)">
    <circle
       style="opacity:1;fill:#dc0a14;fill-opacity:1;fill-rule:nonzero;stroke:none;stroke-width:0.18410923;stroke-linecap:square;stroke-linejoin:round;stroke-miterlimit:4;stroke-dasharray:none;stroke-opacity:1;paint-order:stroke fill markers"
       id="path17"
       cx="30.500002"
       cy="266.5"
       r="30.000002" />
    <circle
       r="24"
       cy="266.5"
       cx="30.500002"
       id="circle1748"
       style="opacity:1;fill:#fad20a;fill-opacity:1;fill-rule:nonzero;stroke:none;stroke-width:0.14728737;stroke-linecap:square;stroke-linejoin:round;stroke-miterlimit:4;stroke-dasharray:none;stroke-opacity:1;paint-order:stroke fill markers" />
    <path
       inkscape:connector-curvature="0"
       style="clip-rule:evenodd;fill:#000000;fill-opacity:1;fill-rule:nonzero;stroke:none;stroke-width:0.1;image-rendering:optimizeQuality;shape-rendering:geometricPrecision;text-rendering:geometricPrecision"
       class="fil2"
       d="m 19.656603,253.63129 v 5.93636 c 1.04837,-0.49258 2.033526,-0.73887 2.961866,-0.73887 1.30094,0 2.4819,0.37888 3.53027,1.13043 1.52828,1.07989 2.29244,2.67766 2.29244,4.78696 v 4.61012 c 0,1.64831 -0.42948,3.01874 -1.29466,4.10498 -0.72625,0.90304 -1.62301,1.58509 -2.684,2.03981 -0.80202,0.33474 -1.62301,0.49891 -2.47557,0.49891 -1.490406,0 -2.841886,-0.47362 -4.054376,-1.42725 -1.6483,-1.28199 -2.47562,-3.02503 -2.47562,-5.21645 v -0.92834 h 3.60605 v 0.92834 c 0,0.84628 0.17051,1.55991 0.51782,2.12827 0.50525,0.83995 1.313556,1.25674 2.425086,1.25674 0.95992,0 1.72408,-0.35365 2.29244,-1.05465 0.35998,-0.45467 0.53678,-1.0357 0.53678,-1.74299 v -5.19749 c 0,-0.75154 -0.27787,-1.38305 -0.83361,-1.90093 -0.56835,-0.51782 -1.2504,-0.77673 -2.05248,-0.77673 -1.04832,0 -1.812476,0.37261 -2.292436,1.1241 h -3.606 v -12.82 h 11.891696 v 3.25869 h -8.285656 z m 12.895796,15.8008 v -12.8453 c 0,-1.34514 0.33468,-2.52611 0.99778,-3.54918 0.60627,-0.92834 1.42725,-1.66721 2.46295,-2.223 0.99783,-0.54312 2.03986,-0.81465 3.12609,-0.81465 1.61673,0 3.03765,0.53678 4.256469,1.61039 1.4336,1.26937 2.147221,2.93029 2.147221,4.97644 v 12.8453 c 0,1.52828 -0.42313,2.8608 -1.275699,3.99757 -1.28198,1.7114 -3.031301,2.5703 -5.235341,2.5703 -1.97671,0 -3.61234,-0.73258 -4.907,-2.20404 -1.04832,-1.19358 -1.57247,-2.65242 -1.57247,-4.36383 z m 9.384461,0 v -13.2305 c 0,-0.77679 -0.284151,-1.4778 -0.852561,-2.09035 -0.51782,-0.56841 -1.18091,-0.85256 -1.98299,-0.85256 -1.07356,0 -1.90722,0.44204 -2.50082,1.33252 -0.29682,0.44204 -0.44209,0.97887 -0.44209,1.61039 v 13.5968 c 0,0.64413 0.20842,1.2315 0.63151,1.77462 0.58103,0.77673 1.3452,1.16829 2.29249,1.16829 1.02936,0 1.81248,-0.43575 2.3556,-1.31356 0.33468,-0.51788 0.498861,-1.1873 0.498861,-1.99561 z"
       id="path11" />
    <path
       inkscape:connector-curvature="0"
       d="m 28.81335,285.99998 -2.01743,-3.90574 1.42301,-1.47403 h -1.5003 l -1.47329,1.55208 v -3.67231 l -1.19034,0.6 v 6.9 h 1.19034 v -2.32813 l 0.67172,-0.69799 1.5521,3.02612 z"
       style="fill:#000000;fill-opacity:1;fill-rule:evenodd;stroke:none;stroke-width:0.14354858"
       id="path6407"
       sodipodi:nodetypes="ccccccccccccc" />
    <path
       id="path864"
       style="fill:#000000;fill-opacity:1;fill-rule:evenodd;stroke:none;stroke-width:0.14351346"
       d="m 36.945,285.99998 v -3.64682 c 0,-1.91271 -2.56004,-2.42971 -3.46418,-1.23962 -0.646,-0.75038 -1.86076,-0.85467 -2.63657,-0.25962 V 280.6213 H 29.655 v 5.37868 h 1.21475 v -3.4915 c 0,-0.61981 0.36165,-0.9042 0.82761,-0.93047 0.64599,0 1.00841,0.23337 1.00841,0.93047 v 3.4915 h 1.24101 v -3.4915 c 0,-0.61981 0.38715,-0.93047 0.85308,-0.93047 0.61977,0 0.98216,0.23337 0.98216,0.93047 v 3.4915"
       inkscape:connector-curvature="0"
       sodipodi:nodetypes="csccccccscsccsssc" />
  </g>
</svg>
