<?xml version="1.0" encoding="UTF-8" standalone="no"?>
<!-- Created with Inkscape (http://www.inkscape.org/) -->

<svg
   xmlns:dc="http://purl.org/dc/elements/1.1/"
   xmlns:cc="http://creativecommons.org/ns#"
   xmlns:rdf="http://www.w3.org/1999/02/22-rdf-syntax-ns#"
   xmlns:svg="http://www.w3.org/2000/svg"
   xmlns="http://www.w3.org/2000/svg"
   xmlns:sodipodi="http://sodipodi.sourceforge.net/DTD/sodipodi-0.dtd"
   xmlns:inkscape="http://www.inkscape.org/namespaces/inkscape"
   width="83.372002mm"
   height="83.372002mm"
   viewBox="0 0 83.372002 83.372002"
   version="1.1"
   id="svg8"
   inkscape:version="0.92.2 (5c3e80d, 2017-08-06)"
   sodipodi:docname="55.svg">
  <defs
     id="defs2">
    <pattern
       y="0"
       x="0"
       height="6"
       width="6"
       patternUnits="userSpaceOnUse"
       id="EMFhbasepattern" />
  </defs>
  <sodipodi:namedview
     id="base"
     pagecolor="#ffffff"
     bordercolor="#666666"
     borderopacity="1.0"
     inkscape:pageopacity="0.0"
     inkscape:pageshadow="2"
     inkscape:zoom="1.4"
     inkscape:cx="232.67549"
     inkscape:cy="71.685477"
     inkscape:document-units="mm"
     inkscape:current-layer="layer1"
     showgrid="false"
     fit-margin-top="0"
     fit-margin-left="0"
     fit-margin-right="0"
     fit-margin-bottom="0"
     inkscape:window-width="1920"
     inkscape:window-height="1057"
     inkscape:window-x="-8"
     inkscape:window-y="-8"
     inkscape:window-maximized="1"
     showborder="true"
     inkscape:pagecheckerboard="false" />
  <metadata
     id="metadata5">
    <rdf:RDF>
      <cc:Work
         rdf:about="">
        <dc:format>image/svg+xml</dc:format>
        <dc:type
           rdf:resource="http://purl.org/dc/dcmitype/StillImage" />
        <dc:title></dc:title>
      </cc:Work>
    </rdf:RDF>
  </metadata>
  <g
     inkscape:label="Layer 1"
     inkscape:groupmode="layer"
     id="layer1"
     transform="translate(-4.1733084e-4,-213.62758)">
    <rect
       style="opacity:1;fill:#000000;fill-opacity:1;fill-rule:nonzero;stroke:none;stroke-width:21.49853706;stroke-linecap:square;stroke-linejoin:round;stroke-miterlimit:4;stroke-dasharray:none;stroke-opacity:1;paint-order:stroke fill markers"
       id="rect815"
       width="60"
       height="60"
       x="-181.05711"
       y="180.01071"
       rx="3.0009999"
       ry="3.0009999"
       transform="rotate(-45)" />
    <rect
       ry="1.5"
       rx="1.5"
       y="181.51071"
       x="-179.55711"
       height="57"
       width="57"
       id="rect817"
       style="opacity:1;fill:#fad20a;fill-opacity:1;fill-rule:nonzero;stroke:none;stroke-width:20.42361069;stroke-linecap:square;stroke-linejoin:round;stroke-miterlimit:4;stroke-dasharray:none;stroke-opacity:1;paint-order:stroke fill markers"
       transform="rotate(-45)" />
    <path
       style="clip-rule:evenodd;fill:#000000;fill-opacity:1;fill-rule:nonzero;stroke:none;stroke-width:0.13703889"
       d="m 39.952675,238.21361 -10.602453,2.84633 2.817398,10.63605 27.262935,11.20758 c 0.895136,0.37589 2.407563,-0.70843 3.437001,-2.4939 1.03149,-1.78548 1.218461,-3.63856 0.441312,-4.22248 z m -10.566347,2.19996 h -1.799891 v 30 h 1.800109 z m 10.352405,-1.13285 c -1.987337,1.49263 -3.399211,2.94263 -4.726843,5.04673 -1.159761,2.20372 -1.708126,4.15448 -2.006595,6.61871 l -2.43861,-9.18445 z m 3.159499,2.43345 3.477307,2.67839 c -1.757685,1.10056 -3.082886,2.31053 -4.166671,4.08915 -0.999835,1.82989 -1.38434,3.58221 -1.457793,5.65547 l -4.058667,-1.67431 c 0.588308,-4.61122 2.508514,-7.93269 6.205824,-10.7487 z m 6.586678,5.07359 3.541902,2.728 c -1.587685,0.82368 -2.631112,1.6154 -3.620451,3.12126 -0.810777,1.61115 -0.972805,2.91153 -0.892968,4.69893 l -4.132049,-1.70325 c 0.266917,-3.84181 1.911079,-6.68956 5.103566,-8.84494 z m 6.609932,5.09271 3.169832,2.43965 c -1.355039,0.47896 -2.291741,1.81506 -2.661338,2.47271 -0.63184,1.32052 -1.070991,2.13146 -0.811321,3.54191 l -3.696928,-1.52342 c -0.008,-3.23169 1.197786,-5.32195 3.999755,-6.93085 z m 6.461614,5.07514 c 0.0628,-0.009 0.118142,-4.2e-4 0.16433,0.0258 0.367681,0.21419 0.01691,1.51273 -0.77928,2.89285 -0.796052,1.37998 -1.745758,2.33397 -2.115627,2.12183 -0.365484,-0.21213 -0.01651,-1.51284 0.781863,-2.89077 0.696555,-1.2094 1.508884,-2.08942 1.948714,-2.14974 z"
       id="path8-5"
       inkscape:connector-curvature="0"
       sodipodi:nodetypes="cccccccccccccccccccccccccccccccccccccccccc" />
  </g>
</svg>
