<?xml version="1.0" encoding="UTF-8" standalone="no"?>
<!-- Created with Inkscape (http://www.inkscape.org/) -->

<svg
   xmlns:dc="http://purl.org/dc/elements/1.1/"
   xmlns:cc="http://creativecommons.org/ns#"
   xmlns:rdf="http://www.w3.org/1999/02/22-rdf-syntax-ns#"
   xmlns:svg="http://www.w3.org/2000/svg"
   xmlns="http://www.w3.org/2000/svg"
   xmlns:sodipodi="http://sodipodi.sourceforge.net/DTD/sodipodi-0.dtd"
   xmlns:inkscape="http://www.inkscape.org/namespaces/inkscape"
   width="91mm"
   height="80.537003mm"
   viewBox="0 0 90.999995 80.537004"
   version="1.1"
   id="svg863"
   inkscape:version="0.92.2 (5c3e80d, 2017-08-06)"
   sodipodi:docname="11.svg">
  <defs
     id="defs857" />
  <sodipodi:namedview
     id="base"
     pagecolor="#ffffff"
     bordercolor="#666666"
     borderopacity="1.0"
     inkscape:pageopacity="0.0"
     inkscape:pageshadow="2"
     inkscape:zoom="1.4142136"
     inkscape:cx="175.68983"
     inkscape:cy="119.32936"
     inkscape:document-units="mm"
     inkscape:current-layer="layer1"
     showgrid="false"
     inkscape:window-width="1920"
     inkscape:window-height="1057"
     inkscape:window-x="-8"
     inkscape:window-y="-8"
     inkscape:window-maximized="1"
     fit-margin-top="0"
     fit-margin-left="0"
     fit-margin-right="0"
     fit-margin-bottom="0"
     inkscape:snap-global="true" />
  <metadata
     id="metadata860">
    <rdf:RDF>
      <cc:Work
         rdf:about="">
        <dc:format>image/svg+xml</dc:format>
        <dc:type
           rdf:resource="http://purl.org/dc/dcmitype/StillImage" />
        <dc:title></dc:title>
      </cc:Work>
    </rdf:RDF>
  </metadata>
  <g
     inkscape:label="Layer 1"
     inkscape:groupmode="layer"
     id="layer1"
     transform="translate(-26.591236,-299.70124)">
    <path
       inkscape:connector-curvature="0"
       id="path814"
       d="M 111.14165,373.7882 72.091178,306.15085 33.040837,373.78815 Z"
       inkscape:transform-center-y="4.393997"
       inkscape:transform-center-x="27.135595"
       style="opacity:1;fill:none;fill-opacity:1;stroke:#dc0a14;stroke-width:11.9000721;stroke-linecap:butt;stroke-linejoin:round;stroke-miterlimit:4;stroke-dasharray:none;stroke-dashoffset:0;stroke-opacity:1"
       sodipodi:nodetypes="cccc" />
    <path
       sodipodi:nodetypes="cccc"
       inkscape:connector-curvature="0"
       id="path818"
       d="M 107.76426,371.83822 72.091226,310.05071 36.418187,371.83818 Z"
       style="opacity:1;fill:#ffffff;fill-opacity:1;stroke:none;stroke-width:11.93114281;stroke-linecap:butt;stroke-linejoin:round;stroke-miterlimit:4;stroke-dasharray:none;stroke-dashoffset:0;stroke-opacity:1" />
    <g
       id="g2673"
       transform="matrix(0.35277777,0,0,-0.35277777,41.703081,266.32437)" />
    <g
       id="g2681"
       transform="matrix(0.35277777,0,0,-0.35277777,44.400772,265.62304)" />
    <path
       style="clip-rule:evenodd;fill:#000000;fill-rule:nonzero;stroke:none;stroke-width:0.13703889;fill-opacity:1"
       d="m 71.257474,336.53828 -10.602453,2.84633 2.817399,10.63605 27.262932,11.20758 c 0.895138,0.37589 2.407563,-0.70843 3.437003,-2.4939 1.03149,-1.78548 1.21846,-3.63856 0.44131,-4.22248 z m -10.566347,2.19996 h -1.799891 v 30 h 1.800109 z m 10.352406,-1.13285 c -1.987337,1.49263 -3.399211,2.94263 -4.726843,5.04673 -1.159761,2.20372 -1.708126,4.15448 -2.006595,6.61871 l -2.438611,-9.18445 z m 3.159498,2.43345 3.477307,2.67839 c -1.757684,1.10056 -3.082886,2.31053 -4.166671,4.08915 -0.999835,1.82989 -1.384339,3.58221 -1.457792,5.65547 l -4.058667,-1.67431 c 0.588308,-4.61122 2.508513,-7.93269 6.205823,-10.7487 z m 6.586678,5.07359 3.541902,2.728 c -1.587685,0.82368 -2.631112,1.6154 -3.620451,3.12126 -0.810777,1.61115 -0.972805,2.91153 -0.892968,4.69893 l -4.132048,-1.70325 c 0.266917,-3.84181 1.911079,-6.68956 5.103565,-8.84494 z m 6.60993,5.09271 3.169833,2.43965 c -1.35504,0.47896 -2.291742,1.81506 -2.661336,2.47271 -0.631841,1.32052 -1.070991,2.13146 -0.811321,3.54191 l -3.69693,-1.52342 c -0.008,-3.23169 1.197786,-5.32195 3.999754,-6.93085 z m 6.461616,5.07514 c 0.0628,-0.009 0.11814,-4.2e-4 0.16433,0.0258 0.36768,0.21419 0.0169,1.51273 -0.77928,2.89285 -0.796053,1.37998 -1.745759,2.33397 -2.115628,2.12183 -0.365483,-0.21213 -0.01651,-1.51284 0.781864,-2.89077 0.696554,-1.2094 1.508884,-2.08942 1.948714,-2.14974 z"
       id="path8-5"
       inkscape:connector-curvature="0"
       sodipodi:nodetypes="cccccccccccccccccccccccccccccccccccccccccc" />
  </g>
</svg>
