<?xml version="1.0" encoding="UTF-8" standalone="no"?>
<!-- Created with Inkscape (http://www.inkscape.org/) -->

<svg
   xmlns:dc="http://purl.org/dc/elements/1.1/"
   xmlns:cc="http://creativecommons.org/ns#"
   xmlns:rdf="http://www.w3.org/1999/02/22-rdf-syntax-ns#"
   xmlns:svg="http://www.w3.org/2000/svg"
   xmlns="http://www.w3.org/2000/svg"
   xmlns:sodipodi="http://sodipodi.sourceforge.net/DTD/sodipodi-0.dtd"
   xmlns:inkscape="http://www.inkscape.org/namespaces/inkscape"
   width="83.372002mm"
   height="83.372002mm"
   viewBox="0 0 83.372002 83.372002"
   version="1.1"
   id="svg8"
   inkscape:version="0.92.2 (5c3e80d, 2017-08-06)"
   sodipodi:docname="94.svg">
  <defs
     id="defs2" />
  <sodipodi:namedview
     id="base"
     pagecolor="#ffffff"
     bordercolor="#666666"
     borderopacity="1.0"
     inkscape:pageopacity="0.0"
     inkscape:pageshadow="2"
     inkscape:zoom="1.4"
     inkscape:cx="89.761351"
     inkscape:cy="152.66998"
     inkscape:document-units="mm"
     inkscape:current-layer="layer1"
     showgrid="false"
     fit-margin-top="0"
     fit-margin-left="0"
     fit-margin-right="0"
     fit-margin-bottom="0"
     inkscape:window-width="1920"
     inkscape:window-height="1057"
     inkscape:window-x="-8"
     inkscape:window-y="-8"
     inkscape:window-maximized="1"
     showguides="false" />
  <metadata
     id="metadata5">
    <rdf:RDF>
      <cc:Work
         rdf:about="">
        <dc:format>image/svg+xml</dc:format>
        <dc:type
           rdf:resource="http://purl.org/dc/dcmitype/StillImage" />
        <dc:title></dc:title>
      </cc:Work>
    </rdf:RDF>
  </metadata>
  <g
     inkscape:label="Layer 1"
     inkscape:groupmode="layer"
     id="layer1"
     transform="translate(-4.1733084e-4,-213.62758)">
    <rect
       style="opacity:1;fill:#000000;fill-opacity:1;fill-rule:nonzero;stroke:none;stroke-width:21.49853706;stroke-linecap:square;stroke-linejoin:round;stroke-miterlimit:4;stroke-dasharray:none;stroke-opacity:1;paint-order:stroke fill markers"
       id="rect815"
       width="60"
       height="60"
       x="-181.05711"
       y="180.01071"
       rx="3.0009999"
       ry="3.0009999"
       transform="rotate(-45)" />
    <rect
       ry="1.5"
       rx="1.5"
       y="181.51071"
       x="-179.55711"
       height="57"
       width="57"
       id="rect817"
       style="opacity:1;fill:#fad20a;fill-opacity:1;fill-rule:nonzero;stroke:none;stroke-width:20.42361069;stroke-linecap:square;stroke-linejoin:round;stroke-miterlimit:4;stroke-dasharray:none;stroke-opacity:1;paint-order:stroke fill markers"
       transform="rotate(-45)" />
    <path
       sodipodi:nodetypes="cccc"
       inkscape:connector-curvature="0"
       style="fill:#000000;fill-opacity:1;fill-rule:nonzero;stroke:none;stroke-width:0.23424408"
       d="M 66.586415,266.49958 H 16.786417 l 49.800058,-22.39989 z"
       id="path846" />
    <path
       sodipodi:nodetypes="cccccccc"
       d="m 35.369007,256.40922 -4.110298,-9.13816 -1.031688,1.80178 -0.730001,-1.62297 1.031516,-1.80216 1.550386,-0.69735 4.840476,10.7615 z"
       style="font-style:normal;font-variant:normal;font-weight:normal;font-stretch:normal;font-size:16.58299637px;line-height:1.25;font-family:'DIN 1451 Mittelschrift';-inkscape-font-specification:'DIN 1451 Mittelschrift';letter-spacing:0px;word-spacing:0px;fill:#000000;fill-opacity:1;stroke:none;stroke-width:0.41380829"
       id="path848"
       inkscape:connector-curvature="0" />
    <path
       inkscape:connector-curvature="0"
       id="path850"
       d="m 36.954787,242.62531 c -1.692561,0.76131 -2.478915,2.65573 -1.763094,4.24722 l 2.338156,5.19827 c 0.715856,1.59151 2.654992,2.26001 4.347583,1.49868 1.692562,-0.76131 2.478457,-2.65553 1.762625,-4.24702 l -2.338164,-5.19827 c -0.715852,-1.59152 -2.654561,-2.26016 -4.347106,-1.49888 z m 0.689156,1.53214 c 0.843752,-0.37952 1.791736,-0.0868 2.125809,0.65589 l 2.338157,5.19827 c 0.334064,0.74271 -0.07588,1.64619 -0.919637,2.02571 -0.843752,0.37953 -1.79221,0.087 -2.126275,-0.65567 l -2.338164,-5.19828 c -0.334068,-0.74271 0.07636,-1.6464 0.92011,-2.02592 z"
       style="font-style:normal;font-variant:normal;font-weight:normal;font-stretch:normal;font-size:16.58299637px;line-height:1.25;font-family:'DIN 1451 Mittelschrift';-inkscape-font-specification:'DIN 1451 Mittelschrift';letter-spacing:0px;word-spacing:0px;opacity:1;fill:#000000;fill-opacity:1;fill-rule:nonzero;stroke:none;stroke-width:10.85961533;stroke-linecap:square;stroke-linejoin:round;stroke-miterlimit:4;stroke-dasharray:none;stroke-opacity:1;paint-order:stroke fill markers" />
    <path
       sodipodi:nodetypes="ccccc"
       d="m 46.04899,251.58361 0.266677,-13.05868 1.003185,-0.45122 -0.266673,13.05867 z"
       style="font-style:normal;font-variant:normal;font-weight:normal;font-stretch:normal;font-size:16.58299637px;line-height:1.25;font-family:'DIN 1451 Mittelschrift';-inkscape-font-specification:'DIN 1451 Mittelschrift';letter-spacing:0px;word-spacing:0px;fill:#000000;fill-opacity:1;stroke:none;stroke-width:0.41412556"
       id="path852"
       inkscape:connector-curvature="0" />
    <path
       sodipodi:nodetypes="ccsscccssccccccccc"
       inkscape:connector-curvature="0"
       id="path854"
       d="m 44.294958,244.14867 c 0.365263,-0.16517 0.639286,-0.42966 0.821476,-0.79394 0.182877,-0.36551 0.155508,-0.81199 -0.08073,-1.3372 l -0.459634,-1.02188 c -0.236244,-0.52522 -0.55214,-0.8419 -0.94698,-0.94756 -0.393427,-0.10532 -0.773086,-0.0757 -1.139044,0.0879 -0.365271,0.16516 -0.639286,0.42966 -0.82148,0.79393 -0.182865,0.36552 -0.155501,0.81199 0.08074,1.3372 l 0.459637,1.02189 c 0.236233,0.52521 0.552136,0.84188 0.946972,0.94756 0.393423,0.10531 0.773094,0.0757 1.139053,-0.0879 z m -0.385594,-0.85727 c -0.370193,0.16432 -0.670555,0.002 -0.888291,-0.48837 l -0.369341,-0.82112 c -0.222258,-0.48803 -0.144819,-0.82114 0.223739,-0.98911 0.370181,-0.16431 0.67075,-10e-4 0.888496,0.48885 l 0.369334,0.82111 c 0.222259,0.48804 0.144606,0.82066 -0.223937,0.98864 z"
       style="font-style:normal;font-variant:normal;font-weight:normal;font-stretch:normal;font-size:16.58299637px;line-height:1.25;font-family:'DIN 1451 Mittelschrift';-inkscape-font-specification:'DIN 1451 Mittelschrift';letter-spacing:0px;word-spacing:0px;fill:#000000;fill-opacity:1;stroke:none;stroke-width:0.41280812" />
    <path
       style="font-style:normal;font-variant:normal;font-weight:normal;font-stretch:normal;font-size:16.58299637px;line-height:1.25;font-family:'DIN 1451 Mittelschrift';-inkscape-font-specification:'DIN 1451 Mittelschrift';letter-spacing:0px;word-spacing:0px;fill:#000000;fill-opacity:1;stroke:none;stroke-width:0.41280812"
       d="m 50.878114,249.521 c 0.365263,-0.16516 0.639294,-0.42966 0.821472,-0.79393 0.182873,-0.36553 0.155509,-0.81199 -0.08074,-1.33722 l -0.459642,-1.02187 c -0.236241,-0.52522 -0.552128,-0.84189 -0.94698,-0.94757 -0.393419,-0.10532 -0.773087,-0.0757 -1.139045,0.0879 -0.365263,0.16517 -0.639286,0.42967 -0.821476,0.79394 -0.182877,0.36551 -0.155504,0.81198 0.08074,1.33721 l 0.459642,1.02187 c 0.236228,0.52522 0.552128,0.84189 0.946972,0.94756 0.393427,0.10533 0.773086,0.0757 1.139045,-0.0879 z m -0.385594,-0.85726 c -0.370193,0.16431 -0.670555,0.002 -0.888291,-0.48837 l -0.369332,-0.82112 c -0.222259,-0.48804 -0.14482,-0.82114 0.22373,-0.98911 0.37019,-0.16431 0.670754,-0.001 0.888497,0.48885 l 0.369333,0.82111 c 0.222259,0.48804 0.144614,0.82066 -0.223937,0.98864 z"
       id="path856"
       inkscape:connector-curvature="0"
       sodipodi:nodetypes="ccsscccssccccccccc" />
  </g>
</svg>
