<?xml version="1.0" encoding="UTF-8" standalone="no"?>
<!-- Created with Inkscape (http://www.inkscape.org/) -->

<svg
   xmlns:dc="http://purl.org/dc/elements/1.1/"
   xmlns:cc="http://creativecommons.org/ns#"
   xmlns:rdf="http://www.w3.org/1999/02/22-rdf-syntax-ns#"
   xmlns:svg="http://www.w3.org/2000/svg"
   xmlns="http://www.w3.org/2000/svg"
   xmlns:sodipodi="http://sodipodi.sourceforge.net/DTD/sodipodi-0.dtd"
   xmlns:inkscape="http://www.inkscape.org/namespaces/inkscape"
   width="61mm"
   height="83mm"
   viewBox="0 0 61 83.000001"
   version="1.1"
   id="svg842"
   inkscape:version="0.92.2 (5c3e80d, 2017-08-06)"
   sodipodi:docname="11.svg">
  <defs
     id="defs836" />
  <sodipodi:namedview
     id="base"
     pagecolor="#ffffff"
     bordercolor="#666666"
     borderopacity="1.0"
     inkscape:pageopacity="0.0"
     inkscape:pageshadow="2"
     inkscape:zoom="2.2686131"
     inkscape:cx="241.31986"
     inkscape:cy="146.06287"
     inkscape:document-units="mm"
     inkscape:current-layer="layer1"
     showgrid="false"
     inkscape:window-width="1920"
     inkscape:window-height="1057"
     inkscape:window-x="-8"
     inkscape:window-y="-8"
     inkscape:window-maximized="1"
     fit-margin-top="0"
     fit-margin-left="0"
     fit-margin-right="0"
     fit-margin-bottom="0" />
  <metadata
     id="metadata839">
    <rdf:RDF>
      <cc:Work
         rdf:about="">
        <dc:format>image/svg+xml</dc:format>
        <dc:type
           rdf:resource="http://purl.org/dc/dcmitype/StillImage" />
        <dc:title />
      </cc:Work>
    </rdf:RDF>
  </metadata>
  <g
     inkscape:label="Layer 1"
     inkscape:groupmode="layer"
     id="layer1"
     transform="translate(-22.500151,-211.08657)">
    <rect
       ry="1.4"
       rx="1.4"
       y="212.58646"
       x="24.000153"
       height="80"
       width="58"
       id="rect1491"
       style="opacity:1;fill:#ffffff;fill-opacity:1;fill-rule:nonzero;stroke:none;stroke-width:1.0196377;stroke-linecap:square;stroke-linejoin:round;stroke-miterlimit:4;stroke-dasharray:none;stroke-opacity:1;paint-order:stroke fill markers" />
    <path
       d="m 30.50015,232.47309 2e-6,-1.73819 6.25371,-10.17409 h -5.998653 v -1.85155 h 8.549259 l -10e-7,1.56815 -6.272604,10.23077 h 6.272606 l -2e-6,1.96491 z"
       style="font-style:normal;font-variant:normal;font-weight:normal;font-stretch:normal;font-size:19.34682846px;line-height:1.25;font-family:'DIN 1451 Mittelschrift';-inkscape-font-specification:'DIN 1451 Mittelschrift';letter-spacing:0.10054167px;word-spacing:0px;fill:#4d4d4d;fill-opacity:1;stroke:none;stroke-width:0.20152949"
       id="path2522"
       inkscape:connector-curvature="0" />
    <path
       d="m 41.020398,225.5959 q -4e-6,-2.48448 0.132253,-3.20243 0.13225,-0.71795 0.472334,-1.32254 0.481782,-0.89743 1.577596,-1.69095 1.105263,-0.79353 2.730098,-0.79353 1.61538,0 2.711201,0.79353 1.105281,0.79349 1.605935,1.69095 0.330635,0.60459 0.46289,1.32254 0.132249,0.71795 0.132252,3.20243 -2e-6,2.48448 -0.132252,3.20243 -0.132257,0.71795 -0.462887,1.32254 -0.500679,0.90688 -1.605939,1.69095 -1.095817,0.77463 -2.711203,0.77463 -1.624829,0 -2.730096,-0.77463 -1.095806,-0.78408 -1.577597,-1.69095 -0.340078,-0.60459 -0.472332,-1.32254 -0.132255,-0.71795 -0.132253,-3.20243 z m 2.087717,0 q -2e-6,2.12551 0.1417,2.75843 0.151148,0.63293 0.557358,1.14305 0.311739,0.41566 0.850178,0.71798 0.538446,0.29287 1.2753,0.29286 0.736842,0 1.275306,-0.29286 0.53846,-0.30229 0.850203,-0.71795 0.406204,-0.51012 0.547907,-1.14305 0.151147,-0.63292 0.151149,-2.75843 10e-7,-2.11606 -0.151147,-2.74899 -0.1417,-0.63293 -0.547908,-1.16194 -0.311743,-0.39676 -0.850211,-0.69905 -0.538457,-0.3023 -1.275304,-0.30229 -0.736842,0 -1.275302,0.30229 -0.53846,0.3023 -0.850205,0.69906 -0.406204,0.52901 -0.557352,1.16194 -0.141701,0.63293 -0.141701,2.74899 z"
       style="font-style:normal;font-variant:normal;font-weight:normal;font-stretch:normal;font-size:19.34682846px;line-height:1.25;font-family:'DIN 1451 Mittelschrift';-inkscape-font-specification:'DIN 1451 Mittelschrift';letter-spacing:0.10054167px;word-spacing:0px;fill:#4d4d4d;fill-opacity:1;stroke:none;stroke-width:0.20152949"
       id="path2524"
       inkscape:connector-curvature="0" />
    <path
       d="m 53.373301,232.47309 1e-6,-13.76383 h 1.974358 l 6.225366,9.78678 0.03778,2e-5 v -9.78678 h 2.097166 l -10e-7,13.76383 h -1.974359 l -6.225374,-9.78677 -0.04724,1e-5 -5e-6,9.78677 z"
       style="font-style:normal;font-variant:normal;font-weight:normal;font-stretch:normal;font-size:19.34682846px;line-height:1.25;font-family:'DIN 1451 Mittelschrift';-inkscape-font-specification:'DIN 1451 Mittelschrift';letter-spacing:0.10054167px;word-spacing:0px;fill:#4d4d4d;fill-opacity:1;stroke:none;stroke-width:0.20152949"
       id="path2526"
       inkscape:connector-curvature="0" />
    <path
       d="m 66.695954,232.47309 10e-7,-13.76383 h 8.804318 l 10e-7,1.97436 h -6.716601 l -4e-6,3.92038 h 5.724701 l -2e-6,1.861 h -5.7247 l 5e-6,4.04318 h 6.716601 l -2e-6,1.96491 z"
       style="font-style:normal;font-variant:normal;font-weight:normal;font-stretch:normal;font-size:19.34682846px;line-height:1.25;font-family:'DIN 1451 Mittelschrift';-inkscape-font-specification:'DIN 1451 Mittelschrift';letter-spacing:0.10054167px;word-spacing:0px;fill:#4d4d4d;fill-opacity:1;stroke:none;stroke-width:0.20152949"
       id="path2528"
       inkscape:connector-curvature="0" />
    <circle
       style="font-style:normal;font-variant:normal;font-weight:normal;font-stretch:normal;font-size:19.34682846px;line-height:1.25;font-family:'DIN 1451 Mittelschrift';-inkscape-font-specification:'DIN 1451 Mittelschrift';letter-spacing:0.10054167px;word-spacing:0px;opacity:1;fill:#808080;fill-opacity:1;fill-rule:nonzero;stroke:none;stroke-width:0.1411504;stroke-linecap:square;stroke-linejoin:round;stroke-miterlimit:4;stroke-dasharray:none;stroke-opacity:1;paint-order:stroke fill markers"
       id="path17"
       cx="53.000153"
       cy="263.58646"
       r="23.000002" />
    <circle
       r="18.4"
       cy="263.58646"
       cx="53.000153"
       id="circle1748"
       style="font-style:normal;font-variant:normal;font-weight:normal;font-stretch:normal;font-size:19.34682846px;line-height:1.25;font-family:'DIN 1451 Mittelschrift';-inkscape-font-specification:'DIN 1451 Mittelschrift';letter-spacing:0.10054167px;word-spacing:0px;opacity:1;fill:#4d4d4d;fill-opacity:1;fill-rule:nonzero;stroke:none;stroke-width:0.11292031;stroke-linecap:square;stroke-linejoin:round;stroke-miterlimit:4;stroke-dasharray:none;stroke-opacity:1;paint-order:stroke fill markers" />
    <rect
       transform="rotate(-45)"
       style="font-style:normal;font-variant:normal;font-weight:normal;font-stretch:normal;font-size:19.34682846px;line-height:1.25;font-family:'DIN 1451 Mittelschrift';-inkscape-font-specification:'DIN 1451 Mittelschrift';letter-spacing:0.10054167px;word-spacing:0px;opacity:1;fill:#808080;fill-opacity:1;fill-rule:nonzero;stroke:none;stroke-width:1.31293905;stroke-linecap:square;stroke-linejoin:round;stroke-miterlimit:4;stroke-dasharray:none;stroke-opacity:1;paint-order:stroke fill markers"
       id="rect1947"
       width="4.5999999"
       height="44.466667"
       x="-151.20697"
       y="201.62709" />
    <path
       style="font-style:normal;font-variant:normal;font-weight:normal;font-stretch:normal;font-size:19.34682846px;line-height:1.25;font-family:'DIN 1451 Mittelschrift';-inkscape-font-specification:'DIN 1451 Mittelschrift';letter-spacing:0.10054167px;word-spacing:0px;opacity:1;fill:#000000;fill-opacity:1;fill-rule:nonzero;stroke:none;stroke-width:0.19186293;stroke-linecap:square;stroke-linejoin:round;stroke-miterlimit:4;stroke-dasharray:none;stroke-opacity:1;paint-order:stroke fill markers"
       d="m 72.980944,212.57851 8.887177,0.55505 0.147673,12.49913 -48.996202,66.96198 -8.887178,-0.55504 -0.147673,-12.49913 z"
       id="rect1961"
       inkscape:connector-curvature="0"
       sodipodi:nodetypes="ccccccc" />
    <path
       style="opacity:1;fill:#000000;fill-opacity:1;fill-rule:nonzero;stroke:none;stroke-width:1.04995227;stroke-linecap:square;stroke-linejoin:round;stroke-miterlimit:4;stroke-dasharray:none;stroke-opacity:1;paint-order:stroke fill markers"
       d="m 25.400005,211.58641 c -1.329602,0 -2.399854,1.07025 -2.399854,2.39985 l 2e-6,77.20045 c -6e-6,1.32961 1.070252,2.39986 2.399853,2.39986 h 55.200243 c 1.329602,0 2.399854,-1.07025 2.399854,-2.39985 l 3e-6,-77.20046 c 0,-1.3296 -1.070257,-2.39985 -2.399858,-2.39985 z m 1e-6,1.5999 H 80.60025 c 0.443199,1e-5 0.79995,0.3664 0.799951,0.82114 l 3e-6,77.15808 c 10e-7,0.45474 -0.356751,0.82114 -0.799956,0.82114 H 25.400005 c -0.443199,0 -0.79995,-0.3664 -0.799951,-0.82114 l -3e-6,-77.15808 c -1e-6,-0.45474 0.356751,-0.82114 0.799955,-0.82114 z"
       id="path901"
       inkscape:connector-curvature="0" />
  </g>
</svg>
