<?xml version="1.0" encoding="UTF-8" standalone="no"?>
<!-- Created with Inkscape (http://www.inkscape.org/) -->

<svg
   xmlns:dc="http://purl.org/dc/elements/1.1/"
   xmlns:cc="http://creativecommons.org/ns#"
   xmlns:rdf="http://www.w3.org/1999/02/22-rdf-syntax-ns#"
   xmlns:svg="http://www.w3.org/2000/svg"
   xmlns="http://www.w3.org/2000/svg"
   xmlns:sodipodi="http://sodipodi.sourceforge.net/DTD/sodipodi-0.dtd"
   xmlns:inkscape="http://www.inkscape.org/namespaces/inkscape"
   width="61mm"
   height="83mm"
   viewBox="0 0 61.000001 83.000001"
   version="1.1"
   id="svg842"
   inkscape:version="0.92.2 (5c3e80d, 2017-08-06)"
   sodipodi:docname="22.svg">
  <defs
     id="defs836" />
  <sodipodi:namedview
     id="base"
     pagecolor="#ffffff"
     bordercolor="#666666"
     borderopacity="1.0"
     inkscape:pageopacity="0.0"
     inkscape:pageshadow="2"
     inkscape:zoom="1.6041517"
     inkscape:cx="91.279314"
     inkscape:cy="133.47947"
     inkscape:document-units="mm"
     inkscape:current-layer="layer1"
     showgrid="false"
     inkscape:window-width="1920"
     inkscape:window-height="1057"
     inkscape:window-x="-8"
     inkscape:window-y="-8"
     inkscape:window-maximized="1"
     fit-margin-top="0"
     fit-margin-left="0"
     fit-margin-right="0"
     fit-margin-bottom="0" />
  <metadata
     id="metadata839">
    <rdf:RDF>
      <cc:Work
         rdf:about="">
        <dc:format>image/svg+xml</dc:format>
        <dc:type
           rdf:resource="http://purl.org/dc/dcmitype/StillImage" />
        <dc:title />
      </cc:Work>
    </rdf:RDF>
  </metadata>
  <g
     inkscape:label="Layer 1"
     inkscape:groupmode="layer"
     id="layer1"
     transform="translate(-62.47029,-210.12135)">
    <rect
       ry="1.4"
       rx="1.4"
       y="211.62128"
       x="63.970287"
       height="80"
       width="58"
       id="rect1491"
       style="opacity:1;fill:#ffffff;fill-opacity:1;fill-rule:nonzero;stroke:none;stroke-width:1.0196377;stroke-linecap:square;stroke-linejoin:round;stroke-miterlimit:4;stroke-dasharray:none;stroke-opacity:1;paint-order:stroke fill markers" />
    <path
       d="m 70.470288,231.50787 4e-6,-1.73819 6.253709,-10.17409 h -5.998654 l -10e-7,-1.85155 h 8.549261 l -2e-6,1.56815 -6.272604,10.23077 h 6.272607 l -3e-6,1.96491 z"
       style="font-style:normal;font-variant:normal;font-weight:normal;font-stretch:normal;font-size:19.34682846px;line-height:1.25;font-family:'DIN 1451 Mittelschrift';-inkscape-font-specification:'DIN 1451 Mittelschrift';letter-spacing:0.10054167px;word-spacing:0px;fill:#4d4d4d;fill-opacity:1;stroke:none;stroke-width:0.20152949"
       id="path2522"
       inkscape:connector-curvature="0" />
    <path
       d="m 80.990539,224.63068 q -7e-6,-2.48448 0.132252,-3.20243 0.132248,-0.71795 0.472334,-1.32254 0.481782,-0.89743 1.577595,-1.69095 1.10526,-0.79353 2.7301,-0.79353 1.61538,0 2.7112,0.79353 1.10528,0.79349 1.60593,1.69095 0.33064,0.60459 0.46289,1.32254 0.13225,0.71795 0.13226,3.20243 -1e-5,2.48448 -0.13225,3.20243 -0.13226,0.71795 -0.46289,1.32254 -0.50068,0.90688 -1.60594,1.69095 -1.09582,0.77463 -2.71121,0.77463 -1.62482,0 -2.73009,-0.77463 -1.095807,-0.78408 -1.577599,-1.69095 -0.340075,-0.60459 -0.47233,-1.32254 -0.132256,-0.71795 -0.132252,-3.20243 z m 2.087711,0 q 0,2.12551 0.1417,2.75843 0.15115,0.63293 0.55736,1.14305 0.31174,0.41566 0.85018,0.71798 0.53845,0.29287 1.2753,0.29286 0.73684,0 1.27531,-0.29286 0.53845,-0.30229 0.8502,-0.71795 0.4062,-0.51012 0.5479,-1.14305 0.15115,-0.63292 0.15116,-2.75843 0,-2.11606 -0.15115,-2.74899 -0.1417,-0.63293 -0.54791,-1.16194 -0.31174,-0.39676 -0.85021,-0.69905 -0.53846,-0.3023 -1.27531,-0.30229 -0.73684,0 -1.2753,0.30229 -0.53846,0.3023 -0.8502,0.69906 -0.40621,0.52901 -0.55735,1.16194 -0.1417,0.63293 -0.14171,2.74899 z"
       style="font-style:normal;font-variant:normal;font-weight:normal;font-stretch:normal;font-size:19.34682846px;line-height:1.25;font-family:'DIN 1451 Mittelschrift';-inkscape-font-specification:'DIN 1451 Mittelschrift';letter-spacing:0.10054167px;word-spacing:0px;fill:#4d4d4d;fill-opacity:1;stroke:none;stroke-width:0.20152949"
       id="path2524"
       inkscape:connector-curvature="0" />
    <path
       d="m 93.34344,231.50787 v -13.76383 h 1.97436 l 6.22536,9.78678 0.0378,1e-5 v -9.78677 h 2.09717 v 13.76383 h -1.97436 l -6.22537,-9.78677 h -0.0472 l -1e-5,9.78678 z"
       style="font-style:normal;font-variant:normal;font-weight:normal;font-stretch:normal;font-size:19.34682846px;line-height:1.25;font-family:'DIN 1451 Mittelschrift';-inkscape-font-specification:'DIN 1451 Mittelschrift';letter-spacing:0.10054167px;word-spacing:0px;fill:#4d4d4d;fill-opacity:1;stroke:none;stroke-width:0.20152949"
       id="path2526"
       inkscape:connector-curvature="0" />
    <path
       d="m 106.66609,231.50787 1e-5,-13.76383 h 8.80431 l 1e-5,1.97436 h -6.71661 v 3.92038 h 5.7247 v 1.861 h -5.72471 l 1e-5,4.04318 h 6.71661 l -1e-5,1.96491 z"
       style="font-style:normal;font-variant:normal;font-weight:normal;font-stretch:normal;font-size:19.34682846px;line-height:1.25;font-family:'DIN 1451 Mittelschrift';-inkscape-font-specification:'DIN 1451 Mittelschrift';letter-spacing:0.10054167px;word-spacing:0px;fill:#4d4d4d;fill-opacity:1;stroke:none;stroke-width:0.20152949"
       id="path2528"
       inkscape:connector-curvature="0" />
    <circle
       style="font-style:normal;font-variant:normal;font-weight:normal;font-stretch:normal;font-size:19.34682846px;line-height:1.25;font-family:'DIN 1451 Mittelschrift';-inkscape-font-specification:'DIN 1451 Mittelschrift';letter-spacing:0.10054167px;word-spacing:0px;opacity:1;fill:#808080;fill-opacity:1;fill-rule:nonzero;stroke:none;stroke-width:0.1411504;stroke-linecap:square;stroke-linejoin:round;stroke-miterlimit:4;stroke-dasharray:none;stroke-opacity:1;paint-order:stroke fill markers"
       id="path17"
       cx="92.970276"
       cy="262.62119"
       r="23.000002" />
    <circle
       r="18.4"
       cy="262.62119"
       cx="92.970276"
       id="circle1748"
       style="font-style:normal;font-variant:normal;font-weight:normal;font-stretch:normal;font-size:19.34682846px;line-height:1.25;font-family:'DIN 1451 Mittelschrift';-inkscape-font-specification:'DIN 1451 Mittelschrift';letter-spacing:0.10054167px;word-spacing:0px;opacity:1;fill:#4d4d4d;fill-opacity:1;fill-rule:nonzero;stroke:none;stroke-width:0.11292031;stroke-linecap:square;stroke-linejoin:round;stroke-miterlimit:4;stroke-dasharray:none;stroke-opacity:1;paint-order:stroke fill markers" />
    <rect
       transform="rotate(-45)"
       style="font-style:normal;font-variant:normal;font-weight:normal;font-stretch:normal;font-size:19.34682846px;line-height:1.25;font-family:'DIN 1451 Mittelschrift';-inkscape-font-specification:'DIN 1451 Mittelschrift';letter-spacing:0.10054167px;word-spacing:0px;opacity:1;fill:#808080;fill-opacity:1;fill-rule:nonzero;stroke:none;stroke-width:1.31293905;stroke-linecap:square;stroke-linejoin:round;stroke-miterlimit:4;stroke-dasharray:none;stroke-opacity:1;paint-order:stroke fill markers"
       id="rect1947"
       width="4.5999999"
       height="44.466667"
       x="-122.26133"
       y="229.20773" />
    <path
       style="opacity:1;fill:#000000;fill-opacity:1;fill-rule:nonzero;stroke:none;stroke-width:0.17417251;stroke-linecap:square;stroke-linejoin:round;stroke-miterlimit:4;stroke-dasharray:none;stroke-opacity:1;paint-order:stroke fill markers"
       d="m 113.40294,210.99574 1.29126,0.94481 -50.313285,68.76201 -1.291252,-0.94481 z"
       id="rect941"
       inkscape:connector-curvature="0"
       sodipodi:nodetypes="ccccc" />
    <path
       style="opacity:1;fill:#000000;fill-opacity:1;fill-rule:nonzero;stroke:none;stroke-width:0.17417251;stroke-linecap:square;stroke-linejoin:round;stroke-miterlimit:4;stroke-dasharray:none;stroke-opacity:1;paint-order:stroke fill markers"
       d="m 117.64182,210.87566 1.29125,0.94481 -54.623979,74.65334 -1.291252,-0.94481 z"
       id="rect943"
       inkscape:connector-curvature="0"
       sodipodi:nodetypes="ccccc" />
    <path
       style="opacity:1;fill:#000000;fill-opacity:1;fill-rule:nonzero;stroke:none;stroke-width:0.17417251;stroke-linecap:square;stroke-linejoin:round;stroke-miterlimit:4;stroke-dasharray:none;stroke-opacity:1;paint-order:stroke fill markers"
       d="m 121.23114,211.64331 1.29125,0.94481 -57.812718,79.01132 -1.291252,-0.94481 z"
       id="rect945"
       inkscape:connector-curvature="0"
       sodipodi:nodetypes="ccccc" />
    <path
       style="opacity:1;fill:#000000;fill-opacity:1;fill-rule:nonzero;stroke:none;stroke-width:0.17417251;stroke-linecap:square;stroke-linejoin:round;stroke-miterlimit:4;stroke-dasharray:none;stroke-opacity:1;paint-order:stroke fill markers"
       d="m 121.63172,216.76893 1.29125,0.94481 -54.623979,74.65335 -1.291252,-0.94481 z"
       id="rect947"
       inkscape:connector-curvature="0"
       sodipodi:nodetypes="ccccc" />
    <path
       style="opacity:1;fill:#000000;fill-opacity:1;fill-rule:nonzero;stroke:none;stroke-width:0.17417251;stroke-linecap:square;stroke-linejoin:round;stroke-miterlimit:4;stroke-dasharray:none;stroke-opacity:1;paint-order:stroke fill markers"
       d="m 121.5599,222.54018 1.29125,0.94482 -50.313282,68.762 -1.291252,-0.94481 z"
       id="rect949"
       inkscape:connector-curvature="0"
       sodipodi:nodetypes="ccccc" />
    <path
       inkscape:connector-curvature="0"
       id="path965"
       d="m 65.370145,210.62119 c -1.329603,0 -2.399856,1.07025 -2.399855,2.39985 l 4e-6,77.20045 c -5e-6,1.32961 1.070252,2.39986 2.399852,2.39986 h 55.200244 c 1.3296,0 2.39985,-1.07025 2.39985,-2.39985 v -77.20046 c 10e-6,-1.3296 -1.07026,-2.39985 -2.39986,-2.39985 z m 1e-6,1.5999 h 55.200244 c 0.4432,1e-5 0.79995,0.3664 0.79995,0.82114 l 1e-5,77.15808 c -1e-5,0.45474 -0.35675,0.82114 -0.79996,0.82114 H 65.370148 c -0.443201,0 -0.799953,-0.3664 -0.799955,-0.82114 l -4e-6,-77.15808 c -10e-7,-0.45474 0.35675,-0.82114 0.799957,-0.82114 z"
       style="opacity:1;fill:#000000;fill-opacity:1;fill-rule:nonzero;stroke:none;stroke-width:1.04995227;stroke-linecap:square;stroke-linejoin:round;stroke-miterlimit:4;stroke-dasharray:none;stroke-opacity:1;paint-order:stroke fill markers" />
  </g>
</svg>
