<?xml version="1.0" encoding="UTF-8" standalone="no"?>
<!-- Created with Inkscape (http://www.inkscape.org/) -->

<svg
   xmlns:dc="http://purl.org/dc/elements/1.1/"
   xmlns:cc="http://creativecommons.org/ns#"
   xmlns:rdf="http://www.w3.org/1999/02/22-rdf-syntax-ns#"
   xmlns:svg="http://www.w3.org/2000/svg"
   xmlns="http://www.w3.org/2000/svg"
   xmlns:sodipodi="http://sodipodi.sourceforge.net/DTD/sodipodi-0.dtd"
   xmlns:inkscape="http://www.inkscape.org/namespaces/inkscape"
   width="91mm"
   height="80.537003mm"
   viewBox="0 0 91 80.537003"
   version="1.1"
   id="svg863"
   inkscape:version="0.92.2 (5c3e80d, 2017-08-06)"
   sodipodi:docname="97.svg">
  <defs
     id="defs857" />
  <sodipodi:namedview
     id="base"
     pagecolor="#ffffff"
     bordercolor="#666666"
     borderopacity="1.0"
     inkscape:pageopacity="0.0"
     inkscape:pageshadow="2"
     inkscape:zoom="1.4"
     inkscape:cx="202.41388"
     inkscape:cy="61.925736"
     inkscape:document-units="mm"
     inkscape:current-layer="layer1"
     showgrid="false"
     inkscape:window-width="1920"
     inkscape:window-height="1057"
     inkscape:window-x="-8"
     inkscape:window-y="-8"
     inkscape:window-maximized="1" />
  <metadata
     id="metadata860">
    <rdf:RDF>
      <cc:Work
         rdf:about="">
        <dc:format>image/svg+xml</dc:format>
        <dc:type
           rdf:resource="http://purl.org/dc/dcmitype/StillImage" />
        <dc:title></dc:title>
      </cc:Work>
    </rdf:RDF>
  </metadata>
  <g
     inkscape:label="Layer 1"
     inkscape:groupmode="layer"
     id="layer1"
     transform="translate(0,-216.463)">
    <path
       inkscape:connector-curvature="0"
       id="path814"
       d="M 84.550414,290.54997 45.499941,222.91262 6.4496006,290.54992 Z"
       inkscape:transform-center-y="4.393997"
       inkscape:transform-center-x="27.135595"
       style="opacity:1;fill:none;fill-opacity:1;stroke:#dc0a14;stroke-width:11.9000721;stroke-linecap:butt;stroke-linejoin:round;stroke-miterlimit:4;stroke-dasharray:none;stroke-dashoffset:0;stroke-opacity:1"
       sodipodi:nodetypes="cccc" />
    <path
       sodipodi:nodetypes="cccc"
       inkscape:connector-curvature="0"
       id="path818"
       d="M 81.173022,288.59999 45.499989,226.81248 9.8269506,288.59995 Z"
       style="opacity:1;fill:#ffffff;fill-opacity:1;stroke:none;stroke-width:11.93114281;stroke-linecap:butt;stroke-linejoin:round;stroke-miterlimit:4;stroke-dasharray:none;stroke-dashoffset:0;stroke-opacity:1" />
    <path
       d="m 30.548426,284.66238 c 19.319099,-3.64927 -15.755752,-6.34547 19.651708,-8.70973"
       style="fill:none;stroke:#003c82;stroke-width:1.10000002;stroke-linecap:round;stroke-linejoin:round;stroke-miterlimit:22.9260006;stroke-dasharray:none;stroke-opacity:1"
       id="path1026"
       inkscape:connector-curvature="0" />
    <path
       d="m 54.884438,284.74572 c 8.126769,-5.26772 -4.808939,-6.34544 -14.219596,-6.09762 -16.791122,0.45664 -19.030788,-7.04843 -3.855411,-7.29778"
       style="fill:none;stroke:#003c82;stroke-width:1.10000002;stroke-linecap:round;stroke-linejoin:round;stroke-miterlimit:22.9260006;stroke-dasharray:none;stroke-opacity:1"
       id="path1030"
       inkscape:connector-curvature="0" />
    <path
       sodipodi:nodetypes="cccccccccccccccccccccc"
       inkscape:connector-curvature="0"
       id="path2764"
       d="m 48.669751,251.78979 c -2.30347,-0.72647 -4.19554,-1.11648 -5.57311,-1.42177 -1.16143,-0.24658 -2.71713,0.15127 -3.59684,1.55463 l -2.750081,4.32159 c -0.69599,0.0691 -1.8145,0.74098 -2.34159,2.2885 l -1.0782,4.61271 c -0.18264,0.8702 -0.19884,1.95989 0.32631,2.55602 l -0.96724,2.97685 2.94835,0.95797 0.95797,-2.94834 c 1.85443,0.7541 7.453571,2.63826 8.212141,2.87857 0.754899,0.25159 6.39273,2.01834 8.33623,2.49832 l -0.95798,2.94834 2.94785,0.95782 0.96724,-2.97685 c 0.77525,-0.17361 1.40265,-1.06471 1.766379,-1.87607 l 1.839,-4.36551 c 0.48317,-1.56179 -0.0268,-2.7628 -0.54925,-3.22779 l 0.31532,-5.11269 c 0.11318,-1.65242 -0.91157,-2.8887 -1.99612,-3.37189 -1.29392,-0.56273 -3.05387,-1.35934 -5.344439,-2.12556 z"
       style="fill:#003c82;fill-opacity:1;fill-rule:nonzero;stroke:none;stroke-width:0.17403179" />
    <path
       inkscape:connector-curvature="0"
       id="path2766"
       d="m 38.599411,256.57175 2.2816,-3.94839 c 0.40981,-0.64992 1.15495,-0.87167 1.73662,-0.7811 l 2.48984,0.55635 c 1.07382,0.22294 3.5258,0.96282 4.82973,1.38018 1.30023,0.42878 3.71882,1.2714 4.71859,1.72226 l 2.34183,1.01356 c 0.52382,0.26861 0.99581,0.88584 0.94534,1.65251 l -0.47495,4.5354 c -3.59324,-1.52569 -7.07137,-2.73657 -9.29218,-3.5028 -2.24707,-0.68543 -5.77265,-1.75023 -9.57642,-2.62797 z"
       style="fill:#ffffff;fill-opacity:1;fill-rule:nonzero;stroke:none;stroke-width:0.17403181" />
  </g>
</svg>
