<?xml version="1.0" encoding="UTF-8" standalone="no"?>
<!-- Created with Inkscape (http://www.inkscape.org/) -->

<svg
   xmlns:dc="http://purl.org/dc/elements/1.1/"
   xmlns:cc="http://creativecommons.org/ns#"
   xmlns:rdf="http://www.w3.org/1999/02/22-rdf-syntax-ns#"
   xmlns:svg="http://www.w3.org/2000/svg"
   xmlns="http://www.w3.org/2000/svg"
   xmlns:sodipodi="http://sodipodi.sourceforge.net/DTD/sodipodi-0.dtd"
   xmlns:inkscape="http://www.inkscape.org/namespaces/inkscape"
   width="61.400002mm"
   height="61.400002mm"
   viewBox="0 0 61.400002 61.400002"
   version="1.1"
   id="svg825"
   inkscape:version="0.92.2 (5c3e80d, 2017-08-06)"
   sodipodi:docname="Vienna_Convention_road_sign_G17.svg">
  <defs
     id="defs819" />
  <sodipodi:namedview
     id="base"
     pagecolor="#ffffff"
     bordercolor="#666666"
     borderopacity="1.0"
     inkscape:pageopacity="0.0"
     inkscape:pageshadow="2"
     inkscape:zoom="2.2892582"
     inkscape:cx="159.99809"
     inkscape:cy="78.434616"
     inkscape:document-units="mm"
     inkscape:current-layer="layer1"
     showgrid="false"
     fit-margin-top="0"
     fit-margin-left="0"
     fit-margin-right="0"
     fit-margin-bottom="0"
     showborder="true"
     inkscape:window-width="1920"
     inkscape:window-height="1057"
     inkscape:window-x="-8"
     inkscape:window-y="-8"
     inkscape:window-maximized="1" />
  <metadata
     id="metadata822">
    <rdf:RDF>
      <cc:Work
         rdf:about="">
        <dc:format>image/svg+xml</dc:format>
        <dc:type
           rdf:resource="http://purl.org/dc/dcmitype/StillImage" />
        <dc:title></dc:title>
      </cc:Work>
    </rdf:RDF>
  </metadata>
  <g
     inkscape:label="Layer 1"
     inkscape:groupmode="layer"
     id="layer1"
     transform="translate(232.83333,-324.04641)">
    <rect
       style="opacity:1;fill:#000000;fill-opacity:1;fill-rule:nonzero;stroke:none;stroke-width:0.50057405;stroke-linecap:square;stroke-linejoin:round;stroke-miterlimit:4;stroke-dasharray:none;stroke-opacity:1;paint-order:stroke fill markers"
       id="rect1373"
       width="60.400002"
       height="60.400002"
       x="-232.33333"
       y="324.54642"
       rx="3.8"
       ry="3.8" />
    <rect
       y="324.7464"
       x="-232.13333"
       height="60"
       width="60"
       id="rect1375"
       style="opacity:1;fill:#ffffff;fill-opacity:1;fill-rule:nonzero;stroke:none;stroke-width:0.49725902;stroke-linecap:square;stroke-linejoin:round;stroke-miterlimit:4;stroke-dasharray:none;stroke-opacity:1;paint-order:stroke fill markers"
       rx="3.5999999"
       ry="3.5999999" />
    <rect
       style="opacity:1;fill:#003c82;fill-opacity:1;fill-rule:nonzero;stroke:none;stroke-width:0.47239608;stroke-linecap:square;stroke-linejoin:round;stroke-miterlimit:4;stroke-dasharray:none;stroke-opacity:1;paint-order:stroke fill markers"
       id="rect1385"
       width="57"
       height="57"
       x="-230.63333"
       y="326.2464"
       rx="2.0999999"
       ry="2.0999999" />
    <path
       inkscape:connector-curvature="0"
       style="clip-rule:evenodd;fill:#ffffff;fill-opacity:1;fill-rule:nonzero;stroke:none;stroke-width:0.13461667;image-rendering:optimizeQuality;shape-rendering:geometricPrecision;text-rendering:geometricPrecision"
       class="fil2"
       d="m -216.72987,342.1346 v 7.99134 c 1.41127,-0.66308 2.73744,-0.99465 3.98716,-0.99465 1.7513,0 3.34105,0.51004 4.75232,1.52175 2.05734,1.45372 3.08602,3.60458 3.08602,6.44404 v 6.20601 c 0,2.21888 -0.57816,4.0637 -1.74281,5.52598 -0.97767,1.21564 -2.18487,2.13379 -3.61312,2.74593 -1.07967,0.4506 -2.18484,0.6716 -3.33254,0.6716 -2.00634,0 -3.82565,-0.63756 -5.45788,-1.92131 -2.21887,-1.72577 -3.33016,-4.07219 -3.3326,-7.0222 v -1.24971 h 4.85436 v 1.24971 c 0,1.13922 0.22953,2.0999 0.69705,2.86498 0.68015,1.13071 1.76828,1.6918 3.26459,1.6918 1.29222,0 2.32088,-0.47608 3.08601,-1.41972 0.48458,-0.61208 0.72259,-1.39424 0.72259,-2.34639 v -6.99668 c 0,-1.01167 -0.37406,-1.86181 -1.12218,-2.55896 -0.76509,-0.69708 -1.68325,-1.04561 -2.76299,-1.04561 -1.41121,0 -2.43987,0.50161 -3.08599,1.51322 h -4.8543 v -17.25785 h 16.00823 v 4.38673 h -11.15387 z m 17.35885,21.27052 V 346.1132 c 0,-1.81078 0.45053,-3.40058 1.34318,-4.77779 0.81614,-1.24971 1.92131,-2.24434 3.31553,-2.99251 1.34325,-0.73114 2.74601,-1.09666 4.20824,-1.09666 2.17639,0 4.08919,0.72259 5.72991,2.16784 1.92986,1.70879 2.89052,3.94465 2.89052,6.69912 v 17.29192 c 0,2.05731 -0.56962,3.85112 -1.71731,5.38139 -1.72575,2.30384 -4.08062,3.46005 -7.04764,3.46005 -2.66097,0 -4.8628,-0.98618 -6.60563,-2.96699 -1.41122,-1.60676 -2.1168,-3.5706 -2.1168,-5.87445 z m 12.63304,0 v -17.81045 c 0,-1.04568 -0.38251,-1.98936 -1.14768,-2.81398 -0.69708,-0.76516 -1.5897,-1.14767 -2.66944,-1.14767 -1.4452,0 -2.56746,0.59503 -3.36652,1.79378 -0.39956,0.59507 -0.59514,1.31773 -0.59514,2.16787 v 18.30356 c 0,0.86709 0.28059,1.65779 0.85014,2.38893 0.78217,1.0456 1.81085,1.57271 3.08606,1.57271 1.3857,0 2.43991,-0.5866 3.17102,-1.76828 0.45053,-0.69715 0.67156,-1.59832 0.67156,-2.68643 z"
       id="path11"
       sodipodi:nodetypes="ccscssccscsccscscsscscccccccssccscsscscscscscsscscsc" />
  </g>
</svg>
