<?xml version="1.0" encoding="UTF-8" standalone="no"?>
<!-- Created with Inkscape (http://www.inkscape.org/) -->

<svg
   xmlns:dc="http://purl.org/dc/elements/1.1/"
   xmlns:cc="http://creativecommons.org/ns#"
   xmlns:rdf="http://www.w3.org/1999/02/22-rdf-syntax-ns#"
   xmlns:svg="http://www.w3.org/2000/svg"
   xmlns="http://www.w3.org/2000/svg"
   xmlns:sodipodi="http://sodipodi.sourceforge.net/DTD/sodipodi-0.dtd"
   xmlns:inkscape="http://www.inkscape.org/namespaces/inkscape"
   width="91mm"
   height="80.537003mm"
   viewBox="0 0 91 80.537003"
   version="1.1"
   id="svg863"
   inkscape:version="0.92.2 (5c3e80d, 2017-08-06)"
   sodipodi:docname="97.svg">
  <defs
     id="defs857" />
  <sodipodi:namedview
     id="base"
     pagecolor="#ffffff"
     bordercolor="#666666"
     borderopacity="1.0"
     inkscape:pageopacity="0.0"
     inkscape:pageshadow="2"
     inkscape:zoom="1.4"
     inkscape:cx="218.6616"
     inkscape:cy="220.58359"
     inkscape:document-units="mm"
     inkscape:current-layer="layer1"
     showgrid="false"
     inkscape:window-width="1920"
     inkscape:window-height="1057"
     inkscape:window-x="-8"
     inkscape:window-y="-8"
     inkscape:window-maximized="1"
     inkscape:snap-global="false" />
  <metadata
     id="metadata860">
    <rdf:RDF>
      <cc:Work
         rdf:about="">
        <dc:format>image/svg+xml</dc:format>
        <dc:type
           rdf:resource="http://purl.org/dc/dcmitype/StillImage" />
        <dc:title></dc:title>
      </cc:Work>
    </rdf:RDF>
  </metadata>
  <g
     inkscape:label="Layer 1"
     inkscape:groupmode="layer"
     id="layer1"
     transform="translate(0,-216.463)">
    <path
       inkscape:connector-curvature="0"
       id="path814"
       d="M 84.550418,290.54997 45.499941,222.91262 6.4496006,290.54992 Z"
       inkscape:transform-center-y="4.393997"
       inkscape:transform-center-x="27.135595"
       style="opacity:1;fill:none;fill-opacity:1;stroke:#dc0a14;stroke-width:11.9000721;stroke-linecap:butt;stroke-linejoin:round;stroke-miterlimit:4;stroke-dasharray:none;stroke-dashoffset:0;stroke-opacity:1"
       sodipodi:nodetypes="cccc" />
    <path
       sodipodi:nodetypes="cccc"
       inkscape:connector-curvature="0"
       id="path818"
       d="M 81.173026,288.59999 45.499991,226.81248 9.8269506,288.59995 Z"
       style="opacity:1;fill:#ffffff;fill-opacity:1;stroke:none;stroke-width:11.93114281;stroke-linecap:butt;stroke-linejoin:round;stroke-miterlimit:4;stroke-dasharray:none;stroke-dashoffset:0;stroke-opacity:1" />
    <path
       style="fill:#003c82;fill-opacity:1;fill-rule:nonzero;stroke:none;stroke-width:0.09869605"
       d="m 50.037496,247.70008 c -0.853411,0.01 -1.500785,0.34018 -1.583367,0.98444 v 1.96835 l -0.593762,1.18132 0.395843,0.59067 0.197919,1.37821 0.395843,0.39377 h 1.385443 l 0.197922,1.37821 -1.385446,0.39377 -0.593762,0.19638 -0.791681,0.59066 -0.395843,0.59066 -0.39584,0.59066 -0.989606,2.36265 -0.989602,1.77198 -0.791684,0.78703 -0.39584,0.19689 -1.187524,1.18132 -0.197922,0.59067 v 0.78755 l -0.39584,0.78754 h -0.395843 l -0.989603,-1.96887 -0.395843,-0.39377 -0.791681,-0.59066 -0.197921,-0.39378 0.197921,-0.19689 0.791681,-0.39377 1.187527,-0.19689 1.187524,-0.98392 -0.197922,-0.98443 0.197922,-0.78755 0.197919,-0.19689 -0.395841,-1.37821 -0.989602,-0.39377 H 40.33938 l -0.395841,0.19689 -0.197921,0.19688 -0.197922,0.19689 h -0.39584 c -0.182222,-0.97638 -1.07672,-1.97001 -1.780771,-2.36213 -0.711009,-0.42767 -1.68189,-0.70334 -2.770891,-0.19689 0,0 -1.041122,0.67225 -0.989602,1.77147 v 1.5751 l -0.593762,0.98443 0.39584,0.59067 0.197922,1.18132 0.39584,0.39377 0.989605,0.19637 h 0.395841 v 1.18133 l -0.197919,0.39377 -0.395843,0.19689 -0.989603,0.78755 -0.395843,0.59066 v 0.19689 l -0.39584,0.39377 -0.593762,0.39377 -4.156337,3.54346 0.197921,0.39377 -0.989603,0.78755 -0.989604,1.18132 0.791683,0.98444 0.395841,0.19689 0.989605,-0.19689 h 0.197921 l 0.593762,-0.78755 0.395841,-0.59066 v -0.19689 h 0.791683 l 1.583365,-0.98443 -0.197922,2.16576 -0.593762,4.13411 1.781289,0.19689 -0.989605,3.93722 -0.791684,0.59067 -2.375048,0.19688 -0.39584,0.98444 2.375048,0.46044 H 25.1 v 2.09961 h 37.999748 v -2.09961 h -4.59972 l 0.64182,-0.85318 h 0.593762 l 0.593765,-0.39378 0.593762,-0.59066 0.197919,-0.59066 -0.791681,-0.78703 -0.989605,-0.19689 -0.197922,-0.59066 v -0.1974 l -1.781286,-2.75642 -1.187524,-1.18081 -0.197921,-0.39378 v -0.78703 l 1.187524,-0.1974 0.791683,-0.19689 v -0.98444 l -0.791683,-1.96887 v -0.59066 l 0.791683,-0.19689 2.770892,-0.19688 c 0.682508,-0.10475 0.65166,-0.44994 0.593762,-0.98444 l -0.197922,-5.11855 c -0.01021,-0.26523 -7.1e-5,-0.50944 -0.39584,-0.59066 h -1.979208 l -0.197922,-1.57458 c -0.0775,-0.42095 -0.382971,-1.37771 -0.593762,-1.77199 -0.864269,-1.62948 -2.328592,-3.67738 -3.562572,-4.72477 -0.21322,-0.49793 -0.479962,-1.42974 -0.39584,-1.96887 l 0.989602,-1.18133 c 0.0873,-0.1482 0.19621,-0.35627 0.197922,-0.59066 l -0.197922,-1.77147 c -0.122161,-0.60854 -0.810008,-1.76175 -2.177129,-1.77198 z m -2.572969,16.73386 h 0.197921 l 0.593762,1.37821 v 0.39378 l -0.395843,0.59066 -1.979208,5.31544 v 0.39377 l 0.593763,0.78755 v 0.19689 l -0.395841,1.1808 -0.193786,0.38551 -0.425295,0.98655 -0.568443,3.35329 -0.395843,1.57458 -0.395841,0.59066 h -1.583364 l -1.187524,0.59066 -0.593765,-0.98444 -0.593762,-0.39377 v -0.59014 l -0.39584,-1.37822 -0.395841,-0.78754 -0.395843,-0.59067 v -0.19688 l 0.197922,-0.39378 h 0.197921 l 0.989603,0.59066 h 1.385445 l 2.177127,-0.98443 0.783934,-0.59066 0.951288,-0.755 -0.745617,-2.98534 -0.395843,-0.39378 h -1.385443 l -0.791684,-2.36264 0.791684,-0.39378 0.39584,-0.39326 v -0.1974 h 0.197922 l 0.39584,-0.59014 1.187524,-0.59067 0.197922,-0.19688 z m 3.760493,9.25318 0.989603,0.78704 0.395843,0.98443 0.593762,1.5751 0.989603,1.18132 1.385445,1.5751 0.395841,0.78703 v 0.98444 l -0.197919,0.39377 -0.395843,0.39378 -0.593762,0.19688 -0.387573,0.19689 v 0.65733 h -6.299874 l -0.239779,-0.0667 -0.197919,-0.39377 v -0.19689 l 0.197919,-0.39377 -0.197919,-0.39378 0.197919,-0.39377 0.593762,-1.96836 v -0.19688 l 0.395843,-3.1502 0.395841,-0.59066 0.791683,-1.37769 0.395841,-0.39378 z m -15.437299,5.31544 0.197919,0.19689 0.989605,1.57458 v 0.78755 l -0.197922,0.78755 -1.177189,1.0511 -0.604097,-0.65733 v -0.19689 l 0.593762,-1.77198 v -0.59014 l 0.197922,-0.98444 z"
       id="path1136"
       inkscape:connector-curvature="0"
       sodipodi:nodetypes="cccccccccccccccccccccccccccccccccccccccccccccccccccccccccccccccccccccccccccccccccccccccccccccccccccccccccccccccccccccccccccccccccccccccccccccccccccccccccccccccccccccccccccccccccccccccccccccccccccccccc" />
  </g>
</svg>
