<?xml version="1.0" encoding="UTF-8" standalone="no"?>
<!-- Created with Inkscape (http://www.inkscape.org/) -->

<svg
   xmlns:dc="http://purl.org/dc/elements/1.1/"
   xmlns:cc="http://creativecommons.org/ns#"
   xmlns:rdf="http://www.w3.org/1999/02/22-rdf-syntax-ns#"
   xmlns:svg="http://www.w3.org/2000/svg"
   xmlns="http://www.w3.org/2000/svg"
   xmlns:sodipodi="http://sodipodi.sourceforge.net/DTD/sodipodi-0.dtd"
   xmlns:inkscape="http://www.inkscape.org/namespaces/inkscape"
   width="61.400002mm"
   height="81.400002mm"
   viewBox="0 0 61.400002 81.400002"
   version="1.1"
   id="svg825"
   inkscape:version="0.92.2 (5c3e80d, 2017-08-06)"
   sodipodi:docname="55.svg">
  <defs
     id="defs819" />
  <sodipodi:namedview
     id="base"
     pagecolor="#ffffff"
     bordercolor="#666666"
     borderopacity="1.0"
     inkscape:pageopacity="0.0"
     inkscape:pageshadow="2"
     inkscape:zoom="1.8377736"
     inkscape:cx="88.955532"
     inkscape:cy="161.6856"
     inkscape:document-units="mm"
     inkscape:current-layer="layer1"
     showgrid="false"
     fit-margin-top="0"
     fit-margin-left="0"
     fit-margin-right="0"
     fit-margin-bottom="0"
     showborder="true"
     inkscape:window-width="1920"
     inkscape:window-height="1057"
     inkscape:window-x="-8"
     inkscape:window-y="-8"
     inkscape:window-maximized="1" />
  <metadata
     id="metadata822">
    <rdf:RDF>
      <cc:Work
         rdf:about="">
        <dc:format>image/svg+xml</dc:format>
        <dc:type
           rdf:resource="http://purl.org/dc/dcmitype/StillImage" />
        <dc:title></dc:title>
      </cc:Work>
    </rdf:RDF>
  </metadata>
  <g
     inkscape:label="Layer 1"
     inkscape:groupmode="layer"
     id="layer1"
     transform="translate(232.83333,-304.04641)">
    <rect
       style="opacity:1;fill:#000000;fill-opacity:1;fill-rule:nonzero;stroke:none;stroke-width:0.57753444;stroke-linecap:square;stroke-linejoin:round;stroke-miterlimit:4;stroke-dasharray:none;stroke-opacity:1;paint-order:stroke fill markers"
       id="rect1373"
       width="60.400002"
       height="80.400002"
       x="-232.33333"
       y="304.54642"
       rx="3.8"
       ry="3.8" />
    <rect
       y="304.74643"
       x="-232.13335"
       height="80"
       width="60"
       id="rect1375"
       style="opacity:1;fill:#ffffff;fill-opacity:1;fill-rule:nonzero;stroke:none;stroke-width:0.57418531;stroke-linecap:square;stroke-linejoin:round;stroke-miterlimit:4;stroke-dasharray:none;stroke-opacity:1;paint-order:stroke fill markers"
       rx="3.5999999"
       ry="3.5999999" />
    <rect
       style="opacity:1;fill:#003c82;fill-opacity:1;fill-rule:nonzero;stroke:none;stroke-width:0.54905295;stroke-linecap:square;stroke-linejoin:round;stroke-miterlimit:4;stroke-dasharray:none;stroke-opacity:1;paint-order:stroke fill markers"
       id="rect1385"
       width="57"
       height="77"
       x="-230.63335"
       y="306.2464"
       rx="2.0999999"
       ry="2.0999999" />
    <rect
       style="opacity:1;fill:#ffffff;fill-opacity:1;fill-rule:nonzero;stroke:none;stroke-width:1.46507215;stroke-linecap:square;stroke-linejoin:round;stroke-miterlimit:4;stroke-dasharray:none;stroke-opacity:1;paint-order:stroke fill markers"
       id="rect860"
       width="40"
       height="40"
       x="-222.13335"
       y="324.74643" />
    <g
       aria-label="Radio "
       style="font-style:normal;font-variant:normal;font-weight:normal;font-stretch:normal;font-size:20.8023777px;line-height:1.25;font-family:'DIN 1451 Engschrift';-inkscape-font-specification:'DIN 1451 Engschrift';letter-spacing:0.00264583px;word-spacing:0px;fill:#000000;fill-opacity:1;stroke:none;stroke-width:0.21669143"
       id="text821"
       transform="translate(-0.16645615,-0.50283881)">
      <path
         d="m -218.49287,343.12445 v -13.87519 h 3.474 q 1.37296,0 2.30907,0.95691 0.9361,0.95691 0.9361,2.32987 v 1.28975 q 0,1.91382 -1.62258,2.93313 l 2.10104,6.36553 h -2.10104 l -1.87222,-5.94948 h -1.24814 v 5.94948 z m 4.41011,-8.13373 q 0.18722,-0.22883 0.24963,-0.52006 0.0832,-0.29123 0.0832,-0.64487 v -1.28975 q 0,-0.64487 -0.35364,-1.04012 -0.35364,-0.39524 -0.99852,-0.39524 h -1.41456 v 4.32689 h 1.39376 q 0.62407,0 1.04012,-0.43685 z"
         style="letter-spacing:0.00264583px;fill:#003c82;stroke:none;stroke-width:0.21669143;fill-opacity:1"
         id="path855"
         inkscape:connector-curvature="0" />
      <path
         d="m -210.04218,342.08433 q -0.14562,-0.24963 -0.18722,-0.54086 -0.0416,-0.31204 -0.0416,-0.68648 v -1.12333 q 0,-1.10252 0.54087,-1.64338 0.56166,-0.54087 0.99851,-0.72809 0.45765,-0.20802 1.08172,-0.20802 h 1.33136 v -0.8529 q 0,-0.29123 -0.0416,-0.47845 -0.0208,-0.18723 -0.24963,-0.47846 -0.22882,-0.29123 -0.62407,-0.29123 -0.41605,0 -0.70728,0.27043 -0.29123,0.27043 -0.35364,0.70728 h -1.97623 q 0,-1.20654 0.8529,-2.05944 0.8737,-0.8737 2.10104,-0.8737 1.20654,0 2.10104,0.8529 0.8945,0.8529 0.8945,2.08024 v 7.09361 h -1.99702 v -0.99851 q -0.31204,0.52006 -0.79049,0.83209 -0.45766,0.29123 -1.04012,0.29123 -1.31055,0 -1.89302,-1.16493 z m 1.7682,-2.37147 v 0.49926 q 0,0.39524 0.27043,0.72808 0.29124,0.31204 0.74889,0.31204 0.24963,0 0.45765,-0.12482 0.22883,-0.12481 0.33284,-0.33284 0.12481,-0.22882 0.12481,-0.56166 0.0208,-0.35364 0.0208,-0.49926 v -0.95691 h -0.74889 q -0.54086,0 -0.8737,0.20803 -0.33284,0.20802 -0.33284,0.72808 z"
         style="letter-spacing:0.00264583px;fill:#003c82;stroke:none;stroke-width:0.21669143;fill-opacity:1"
         id="path857"
         inkscape:connector-curvature="0" />
      <path
         d="m -198.69541,343.12445 v -1.01932 q -0.29123,0.49926 -0.76969,0.8321 -0.47845,0.31203 -1.06092,0.31203 -1.35216,0 -1.7058,-0.72808 -0.35364,-0.74888 -0.39524,-1.06092 -0.0208,-0.33284 -0.0208,-0.8737 v -5.34621 q 0,-0.8945 0.60327,-1.51857 0.60326,-0.62408 1.51857,-0.62408 0.56166,0 1.04012,0.29124 0.49926,0.29123 0.79049,0.76969 v -4.90937 h 1.99703 v 13.87519 z m -0.14562,-7.59287 q -0.29123,-0.49925 -0.8529,-0.49925 -0.29123,0 -0.54086,0.16641 -0.22882,0.14562 -0.31203,0.37445 -0.0832,0.20802 -0.10402,0.45765 0,0.22883 0,0.35364 v 3.55721 q 0,0.20802 0,0.41604 0.0208,0.20803 0.20803,0.54087 0.18722,0.33283 0.76969,0.33283 0.60327,0 0.79049,-0.33283 0.18722,-0.33284 0.18722,-0.66568 v -0.29123 -3.55721 q 0,-0.20802 -0.0208,-0.41605 0,-0.22882 -0.12482,-0.43685 z"
         style="letter-spacing:0.00264583px;fill:#003c82;stroke:none;stroke-width:0.21669143;fill-opacity:1"
         id="path859"
         inkscape:connector-curvature="0" />
      <path
         d="m -194.98507,343.12445 v -9.90193 h 1.99703 v 9.90193 z m 0,-11.91976 v -1.95543 h 1.99703 v 1.95543 z"
         style="letter-spacing:0.00264583px;fill:#003c82;stroke:none;stroke-width:0.21669143;fill-opacity:1"
         id="path861"
         inkscape:connector-curvature="0" />
      <path
         d="m -190.74524,334.24184 q 0.43685,-0.54087 1.01932,-0.8321 0.60327,-0.31204 1.28975,-0.31204 0.76968,0 1.35215,0.29124 0.60327,0.27043 1.12333,0.95691 0.52006,0.68648 0.52006,1.789 v 3.95245 q 0,1.12333 -0.49926,1.80981 -0.49926,0.66568 -1.12333,1.01932 -0.62407,0.33283 -1.26894,0.33283 -0.8945,0 -1.64339,-0.43684 -0.72808,-0.45766 -1.01932,-0.99852 -0.27043,-0.56166 -0.33283,-0.9153 -0.0624,-0.37445 -0.0624,-0.8113 v -3.95245 q 0,-1.12333 0.64487,-1.89301 z m 2.35067,0.79049 q -0.45765,0 -0.72808,0.31203 -0.27043,0.31204 -0.27043,0.79049 v 3.95245 q 0,0.47846 0.24963,0.8321 0.27043,0.33284 0.74888,0.33284 0.64487,0 0.79049,-0.37445 0.16642,-0.37444 0.16642,-0.83209 v -3.91085 q 0,-0.45765 -0.27043,-0.76969 -0.24963,-0.33283 -0.68648,-0.33283 z"
         style="letter-spacing:0.00264583px;fill:#003c82;stroke:none;stroke-width:0.21669143;fill-opacity:1"
         id="path863"
         inkscape:connector-curvature="0" />
    </g>
    <g
       aria-label="info"
       style="font-style:normal;font-variant:normal;font-weight:normal;font-stretch:normal;font-size:20.8023777px;line-height:1.25;font-family:'DIN 1451 Engschrift';-inkscape-font-specification:'DIN 1451 Engschrift';letter-spacing:0px;word-spacing:0px;fill:#000000;fill-opacity:1;stroke:none;stroke-width:0.21669142"
       id="text833"
       transform="translate(0.36268385,-0.52176881)">
      <path
         d="m -213.54401,361.14337 v -9.90193 h 1.99703 v 9.90193 z m 0,-11.91976 v -1.95542 h 1.99703 v 1.95542 z"
         style="fill:#003c82;stroke:none;stroke-width:0.21669142;fill-opacity:1"
         id="path866"
         inkscape:connector-curvature="0" />
      <path
         d="m -204.16864,352.13594 q 0.16642,0.24963 0.22883,0.60327 0.0624,0.35364 0.0624,0.70728 v 7.69688 h -1.99703 v -6.96879 q 0,-1.10253 -0.97771,-1.10253 -0.43685,0 -0.70729,0.33284 -0.27043,0.33284 -0.27043,0.76969 v 6.96879 h -1.99702 v -9.90193 h 1.99702 v 0.95691 q 0.66568,-1.08172 1.85142,-1.08172 1.20653,0 1.8098,1.01931 z"
         style="fill:#003c82;stroke:none;stroke-width:0.21669142;fill-opacity:1"
         id="path868"
         inkscape:connector-curvature="0" />
      <path
         d="m -201.69023,361.14337 v -8.32095 h -0.97771 v -1.58098 h 0.97771 v -1.37296 q 0,-1.16493 0.58247,-1.72659 0.58246,-0.56167 1.08172,-0.70729 0.49926,-0.16641 1.10253,-0.16641 h 0.68648 v 1.8306 h -0.72809 q -0.72808,0 -0.72808,0.76969 v 1.37296 h 1.45617 v 1.58098 h -1.45617 v 8.32095 z"
         style="fill:#003c82;stroke:none;stroke-width:0.21669142;fill-opacity:1"
         id="path870"
         inkscape:connector-curvature="0" />
      <path
         d="m -196.75226,352.26076 q 0.43685,-0.54087 1.01931,-0.8321 0.60327,-0.31203 1.28975,-0.31203 0.76969,0 1.35215,0.29123 0.60327,0.27043 1.12333,0.95691 0.52006,0.68648 0.52006,1.789 v 3.95245 q 0,1.12333 -0.49926,1.80981 -0.49925,0.66568 -1.12332,1.01932 -0.62407,0.33284 -1.26895,0.33284 -0.8945,0 -1.64339,-0.43685 -0.72808,-0.45766 -1.01931,-0.99852 -0.27043,-0.56166 -0.33284,-0.9153 -0.0624,-0.37445 -0.0624,-0.8113 v -3.95245 q 0,-1.12333 0.64488,-1.89301 z m 2.35066,0.79049 q -0.45765,0 -0.72808,0.31203 -0.27043,0.31204 -0.27043,0.79049 v 3.95245 q 0,0.47846 0.24963,0.8321 0.27043,0.33284 0.74888,0.33284 0.64488,0 0.79049,-0.37445 0.16642,-0.37444 0.16642,-0.83209 v -3.91085 q 0,-0.45765 -0.27043,-0.76969 -0.24963,-0.33283 -0.68648,-0.33283 z"
         style="fill:#003c82;stroke:none;stroke-width:0.21669142;fill-opacity:1"
         id="path872"
         inkscape:connector-curvature="0" />
    </g>
    <g
       aria-label="94,9 fm"
       style="font-style:normal;font-variant:normal;font-weight:normal;font-stretch:normal;font-size:16.12903214px;line-height:1.25;font-family:'DIN 1451 Engschrift';-inkscape-font-specification:'DIN 1451 Engschrift';letter-spacing:0.00264583px;word-spacing:0px;fill:#ffffff;fill-opacity:1;stroke:none;stroke-width:0.16801074"
       id="text877"
       transform="translate(-2.199414e-6,-0.85247798)">
      <path
         d="m -219.27206,374.26823 q -0.1129,-0.2258 -0.14516,-0.41935 -0.0161,-0.20968 -0.0161,-0.6129 v -2.19355 q 0,-0.32258 0.11291,-0.62904 0.12903,-0.30645 0.56451,-0.93548 0.45162,-0.62903 1.59678,-0.62903 1.08064,0 1.69355,0.74193 0.62903,0.72581 0.62903,1.66129 v 1.75807 q 0,0.6129 -0.25807,1.25806 l -2.03225,5.43549 h -1.74194 l 1.79032,-4.53226 q -0.41935,0.0968 -0.64516,0.0968 -0.5,0 -0.93548,-0.27419 -0.41936,-0.29032 -0.61291,-0.72581 z m 2.1613,-3.90322 q -0.3871,0 -0.58065,0.25806 -0.19355,0.25807 -0.19355,0.62903 v 1.75807 q 0,0.40322 0.20968,0.66129 0.20968,0.25806 0.6129,0.25806 0.35484,0 0.51613,-0.24193 0.17742,-0.25807 0.17742,-0.67742 v -1.75807 q 0,-0.40322 -0.17742,-0.64516 -0.16129,-0.24193 -0.56451,-0.24193 z"
         style="letter-spacing:0.00264583px;fill:#ffffff;stroke:none;stroke-width:0.16801074"
         id="path879"
         inkscape:connector-curvature="0" />
      <path
         d="m -210.88937,379.70372 v -1.64516 h -3.06451 v -1.43549 l 2.2258,-7.67742 h 1.62903 l -2.30645,7.67742 h 1.51613 v -3.06451 h 1.54839 v 3.06451 h 0.74193 v 1.43549 h -0.74193 v 1.64516 z"
         style="letter-spacing:0.00264583px;fill:#ffffff;stroke:none;stroke-width:0.16801074"
         id="path881"
         inkscape:connector-curvature="0" />
      <path
         d="m -207.797,380.84888 v -2.67742 h 1.53225 v 1.53226 z"
         style="letter-spacing:0.00264583px;fill:#ffffff;stroke:none;stroke-width:0.16801074"
         id="path883"
         inkscape:connector-curvature="0" />
      <path
         d="m -204.83619,374.26823 q -0.11291,-0.2258 -0.14517,-0.41935 -0.0161,-0.20968 -0.0161,-0.6129 v -2.19355 q 0,-0.32258 0.1129,-0.62904 0.12903,-0.30645 0.56451,-0.93548 0.45162,-0.62903 1.59678,-0.62903 1.08064,0 1.69355,0.74193 0.62903,0.72581 0.62903,1.66129 v 1.75807 q 0,0.6129 -0.25807,1.25806 l -2.03225,5.43549 h -1.74194 l 1.79032,-4.53226 q -0.41935,0.0968 -0.64516,0.0968 -0.5,0 -0.93548,-0.27419 -0.41936,-0.29032 -0.6129,-0.72581 z m 2.16129,-3.90322 q -0.3871,0 -0.58065,0.25806 -0.19355,0.25807 -0.19355,0.62903 v 1.75807 q 0,0.40322 0.20968,0.66129 0.20968,0.25806 0.6129,0.25806 0.35484,0 0.51613,-0.24193 0.17742,-0.25807 0.17742,-0.67742 v -1.75807 q 0,-0.40322 -0.17742,-0.64516 -0.16129,-0.24193 -0.56451,-0.24193 z"
         style="letter-spacing:0.00264583px;fill:#ffffff;stroke:none;stroke-width:0.16801074"
         id="path885"
         inkscape:connector-curvature="0" />
      <path
         d="m -195.97074,379.70372 v -6.45162 h -0.75806 v -1.2258 h 0.75806 v -1.06452 q 0,-0.90322 0.45161,-1.33871 0.45162,-0.43548 0.83871,-0.54839 0.3871,-0.12903 0.85484,-0.12903 h 0.53226 v 1.41936 h -0.56452 q -0.56451,0 -0.56451,0.59677 v 1.06452 h 1.12903 v 1.2258 h -1.12903 v 6.45162 z"
         style="letter-spacing:0.00264583px;fill:#ffffff;stroke:none;stroke-width:0.16801074"
         id="path887"
         inkscape:connector-curvature="0" />
      <path
         d="m -188.15559,372.71985 q 0.30645,-0.3871 0.67742,-0.58065 0.37096,-0.20968 0.83871,-0.20968 0.79032,0 1.29032,0.56452 0.51613,0.54839 0.51613,1.33871 v 5.87097 h -1.54839 v -5.43549 q 0,-0.37096 -0.19355,-0.59677 -0.17742,-0.24194 -0.56451,-0.24194 -0.32258,0 -0.54839,0.25807 -0.20968,0.24193 -0.20968,0.58064 v 5.43549 h -1.54839 v -5.43549 q 0,-0.35484 -0.20967,-0.59677 -0.20968,-0.24194 -0.56452,-0.24194 -0.32258,0 -0.54839,0.25807 -0.20967,0.24193 -0.20967,0.58064 v 5.43549 h -1.54839 v -7.67742 h 1.54839 v 0.69355 q 0.53225,-0.79033 1.45161,-0.79033 0.43548,0 0.77419,0.20968 0.35484,0.19355 0.59678,0.58065 z"
         style="letter-spacing:0.00264583px;fill:#ffffff;stroke:none;stroke-width:0.16801074"
         id="path889"
         inkscape:connector-curvature="0" />
    </g>
  </g>
</svg>
