<?xml version="1.0" encoding="UTF-8" standalone="no"?>
<!-- Created with Inkscape (http://www.inkscape.org/) -->

<svg
   xmlns:dc="http://purl.org/dc/elements/1.1/"
   xmlns:cc="http://creativecommons.org/ns#"
   xmlns:rdf="http://www.w3.org/1999/02/22-rdf-syntax-ns#"
   xmlns:svg="http://www.w3.org/2000/svg"
   xmlns="http://www.w3.org/2000/svg"
   xmlns:sodipodi="http://sodipodi.sourceforge.net/DTD/sodipodi-0.dtd"
   xmlns:inkscape="http://www.inkscape.org/namespaces/inkscape"
   width="156.39999mm"
   height="61.400002mm"
   viewBox="0 0 156.39999 61.400002"
   version="1.1"
   id="svg825"
   inkscape:version="0.92.2 (5c3e80d, 2017-08-06)"
   sodipodi:docname="33.svg">
  <defs
     id="defs819" />
  <sodipodi:namedview
     id="base"
     pagecolor="#ffffff"
     bordercolor="#666666"
     borderopacity="1.0"
     inkscape:pageopacity="0.0"
     inkscape:pageshadow="2"
     inkscape:zoom="1.9530571"
     inkscape:cx="305.87037"
     inkscape:cy="80.676731"
     inkscape:document-units="mm"
     inkscape:current-layer="layer1"
     showgrid="false"
     fit-margin-top="0"
     fit-margin-left="0"
     fit-margin-right="0"
     fit-margin-bottom="0"
     showborder="true"
     inkscape:window-width="1920"
     inkscape:window-height="1057"
     inkscape:window-x="-8"
     inkscape:window-y="-8"
     inkscape:window-maximized="1" />
  <metadata
     id="metadata822">
    <rdf:RDF>
      <cc:Work
         rdf:about="">
        <dc:format>image/svg+xml</dc:format>
        <dc:type
           rdf:resource="http://purl.org/dc/dcmitype/StillImage" />
        <dc:title></dc:title>
      </cc:Work>
    </rdf:RDF>
  </metadata>
  <g
     inkscape:label="Layer 1"
     inkscape:groupmode="layer"
     id="layer1"
     transform="translate(185.33333,-310.04638)">
    <rect
       style="opacity:1;fill:#000000;fill-opacity:1;fill-rule:nonzero;stroke:none;stroke-width:0.80292571;stroke-linecap:square;stroke-linejoin:round;stroke-miterlimit:4;stroke-dasharray:none;stroke-opacity:1;paint-order:stroke fill markers"
       id="rect1373"
       width="155.39999"
       height="60.400002"
       x="-184.83333"
       y="310.54639"
       rx="3.8"
       ry="3.8" />
    <rect
       y="310.74637"
       x="-184.63335"
       height="60"
       width="155"
       id="rect1375"
       style="opacity:1;fill:#ffffff;fill-opacity:1;fill-rule:nonzero;stroke:none;stroke-width:0.79923207;stroke-linecap:square;stroke-linejoin:round;stroke-miterlimit:4;stroke-dasharray:none;stroke-opacity:1;paint-order:stroke fill markers"
       rx="3.5999999"
       ry="3.5999999" />
    <path
       style="opacity:1;fill:#006e3c;fill-opacity:1;fill-rule:nonzero;stroke:none;stroke-width:0.47239608;stroke-linecap:square;stroke-linejoin:round;stroke-miterlimit:4;stroke-dasharray:none;stroke-opacity:1;paint-order:stroke fill markers"
       d="m -181.03333,312.24638 h 111.399994 l 38.5,28.50003 -38.5,28.49997 H -181.03333 c -1.1634,0 -2.1,-0.9366 -2.1,-2.1 v -52.8 c 0,-1.1634 0.9366,-2.1 2.1,-2.1 z"
       id="rect1385"
       inkscape:connector-curvature="0"
       sodipodi:nodetypes="scccssss" />
    <path
       d="m -75.633336,358.2464 h -18 v -35 h 18 z"
       style="fill:#ffffff;fill-opacity:1;fill-rule:nonzero;stroke:none;stroke-width:0.11506893"
       id="path869"
       inkscape:connector-curvature="0" />
    <path
       id="path3833"
       d="m -161.27136,350.22316 c 0.91282,-0.0848 1.67866,-0.72418 1.92557,-1.60755 l 1.38989,-5.16468 3.11765,5.44092 1.72102,8.05012 c 0.38215,1.01696 1.50193,1.54642 2.5299,1.19689 1.028,-0.34973 1.59284,-1.45257 1.27665,-2.49181 l -2.03632,-8.49725 -3.88891,-7.63637 2.44164,-4.55796 3.26603,3.5187 c 0.35346,0.38085 0.85653,0.58686 1.37572,0.56277 l 3.21092,-0.14792 c 0.8397,-0.12384 1.47256,-0.82839 1.5068,-1.67687 0.0344,-0.84849 -0.5391,-1.60182 -1.3661,-1.79352 l -2.6043,0.30827 c -0.21801,0.0259 -0.43424,-0.0596 -0.57566,-0.22785 l -4.75709,-5.6568 c -0.124,-0.14728 -0.30648,-0.23224 -0.49908,-0.23224 h -11.0629 c -0.11296,0 -0.2171,0.0608 -0.27272,0.15913 l -3.35623,5.94652 c 0.005,0.77738 0.46732,1.47883 1.18001,1.78837 0.71222,0.30975 1.54034,0.16956 2.11136,-0.35745 l 1.99716,-4.07634 3.26878,0.0797 -0.58855,1.13735 -1.70994,4.12841 -0.4931,2.60114 -0.69193,5.90228 -6.12008,0.23334 c -0.94854,0.0639 -1.6791,0.86348 -1.6577,1.81464 0.0214,0.95137 0.78637,1.71708 1.73691,1.73871 z"
       style="fill:#ffffff;fill-rule:nonzero;stroke:none;stroke-width:0.10010432"
       inkscape:connector-curvature="0"
       sodipodi:nodetypes="ccccccccccccccccccsscccccccccccccc" />
    <circle
       style="opacity:1;fill:#ffffff;fill-opacity:1;fill-rule:nonzero;stroke:none;stroke-width:1.49109864;stroke-linecap:square;stroke-linejoin:round;stroke-miterlimit:4;stroke-dasharray:none;stroke-opacity:1;paint-order:stroke fill markers"
       id="path1700"
       cx="152.89653"
       cy="326.18921"
       r="2.9431844"
       transform="scale(-1,1)" />
    <g
       aria-label="100m"
       style="font-style:normal;font-variant:normal;font-weight:normal;font-stretch:normal;font-size:12.43724728px;line-height:1.25;font-family:'DIN 1451 Mittelschrift';-inkscape-font-specification:'DIN 1451 Mittelschrift';letter-spacing:0px;word-spacing:0px;fill:#000000;fill-opacity:1;stroke:none;stroke-width:0.12955464"
       id="text1700"
       transform="translate(99.70031,-26.69997)">
      <path
         d="m -230.07017,383.89169 v -7.52429 l -1.26316,0.92308 v -1.34818 l 1.26316,-0.917 h 1.2753 v 8.86639 z"
         style="font-style:normal;font-variant:normal;font-weight:normal;font-stretch:normal;font-family:'DIN 1451 Mittelschrift';-inkscape-font-specification:'DIN 1451 Mittelschrift';word-spacing:0px;fill:#ffffff;stroke:none;stroke-width:0.12955464"
         id="path1702"
         inkscape:connector-curvature="0" />
      <path
         d="m -223.71794,381.32894 v -3.75911 q 0,-0.63765 -0.34616,-0.99595 -0.34008,-0.3583 -0.89878,-0.3583 -0.56478,0 -0.90486,0.3583 -0.34008,0.3583 -0.34008,0.99595 v 3.75911 q 0,0.64372 0.34008,1.00202 0.34008,0.35223 0.90486,0.35223 0.5587,0 0.89878,-0.35223 0.34616,-0.3583 0.34616,-1.00202 z m -3.75911,0.0729 v -3.90485 q 0,-1.22065 0.76518,-1.8826 0.76518,-0.66801 1.74899,-0.66801 0.97773,0 1.74291,0.66801 0.77126,0.66195 0.77126,1.8826 v 3.90485 q 0,1.22065 -0.77126,1.8826 -0.76518,0.66194 -1.74291,0.66194 -0.98381,0 -1.74899,-0.66194 -0.76518,-0.66195 -0.76518,-1.8826 z"
         style="font-style:normal;font-variant:normal;font-weight:normal;font-stretch:normal;font-family:'DIN 1451 Mittelschrift';-inkscape-font-specification:'DIN 1451 Mittelschrift';word-spacing:0px;fill:#ffffff;stroke:none;stroke-width:0.12955464"
         id="path1704"
         inkscape:connector-curvature="0" />
      <path
         d="m -217.74224,381.32894 v -3.75911 q 0,-0.63765 -0.34615,-0.99595 -0.34008,-0.3583 -0.89879,-0.3583 -0.56477,0 -0.90485,0.3583 -0.34009,0.3583 -0.34009,0.99595 v 3.75911 q 0,0.64372 0.34009,1.00202 0.34008,0.35223 0.90485,0.35223 0.55871,0 0.89879,-0.35223 0.34615,-0.3583 0.34615,-1.00202 z m -3.75911,0.0729 v -3.90485 q 0,-1.22065 0.76519,-1.8826 0.76518,-0.66801 1.74898,-0.66801 0.97774,0 1.74292,0.66801 0.77125,0.66195 0.77125,1.8826 v 3.90485 q 0,1.22065 -0.77125,1.8826 -0.76518,0.66194 -1.74292,0.66194 -0.9838,0 -1.74898,-0.66194 -0.76519,-0.66195 -0.76519,-1.8826 z"
         style="font-style:normal;font-variant:normal;font-weight:normal;font-stretch:normal;font-family:'DIN 1451 Mittelschrift';-inkscape-font-specification:'DIN 1451 Mittelschrift';word-spacing:0px;fill:#ffffff;stroke:none;stroke-width:0.12955464"
         id="path1706"
         inkscape:connector-curvature="0" />
      <path
         d="m -212.13933,383.94635 v -6.30364 h 1.26924 v 0.67409 h 0.0243 q 0.60121,-0.74696 1.63967,-0.74696 0.66195,0 1.05061,0.23684 0.38866,0.23684 0.72875,0.58299 0.74696,-0.81983 1.9919,-0.81983 0.73482,0 1.41498,0.5587 0.68623,0.55871 0.68623,1.62753 v 4.19028 h -1.26923 v -3.75303 q 0,-0.63765 -0.3583,-0.99595 -0.3583,-0.3583 -0.88664,-0.3583 -0.54656,0 -0.90486,0.3583 -0.35222,0.3583 -0.35222,0.99595 v 3.75303 h -1.26316 v -3.75303 q 0,-0.63765 -0.3583,-0.99595 -0.3583,-0.3583 -0.88664,-0.3583 -0.54656,0 -0.90486,0.3583 -0.35222,0.3583 -0.35222,0.99595 v 3.75303 z"
         style="font-style:normal;font-variant:normal;font-weight:normal;font-stretch:normal;font-family:'DIN 1451 Mittelschrift';-inkscape-font-specification:'DIN 1451 Mittelschrift';word-spacing:0px;fill:#ffffff;stroke:none;stroke-width:0.12955464"
         id="path1708"
         inkscape:connector-curvature="0" />
    </g>
    <path
       inkscape:connector-curvature="0"
       id="path1711"
       style="fill:#ffffff;fill-opacity:1;fill-rule:nonzero;stroke:none;stroke-width:0.12621416"
       d="m -133.43333,337.6464 h 26.29999 v -2.4 l 6.5,4 -6.5,4 v -2.4 h -26.29999"
       sodipodi:nodetypes="ccccccc" />
  </g>
</svg>
