<?xml version="1.0" encoding="UTF-8" standalone="no"?>
<!-- Created with Inkscape (http://www.inkscape.org/) -->

<svg
   xmlns:dc="http://purl.org/dc/elements/1.1/"
   xmlns:cc="http://creativecommons.org/ns#"
   xmlns:rdf="http://www.w3.org/1999/02/22-rdf-syntax-ns#"
   xmlns:svg="http://www.w3.org/2000/svg"
   xmlns="http://www.w3.org/2000/svg"
   xmlns:sodipodi="http://sodipodi.sourceforge.net/DTD/sodipodi-0.dtd"
   xmlns:inkscape="http://www.inkscape.org/namespaces/inkscape"
   width="66.400002mm"
   height="151.39999mm"
   viewBox="0 0 66.400002 151.39999"
   version="1.1"
   id="svg845"
   inkscape:version="0.92.2 (5c3e80d, 2017-08-06)"
   sodipodi:docname="11.svg">
  <defs
     id="defs839" />
  <sodipodi:namedview
     id="base"
     pagecolor="#ffffff"
     bordercolor="#666666"
     borderopacity="1.0"
     inkscape:pageopacity="0.0"
     inkscape:pageshadow="2"
     inkscape:zoom="1.4"
     inkscape:cx="217.15251"
     inkscape:cy="313.4175"
     inkscape:document-units="mm"
     inkscape:current-layer="layer1"
     showgrid="false"
     inkscape:window-width="1920"
     inkscape:window-height="1057"
     inkscape:window-x="-8"
     inkscape:window-y="-8"
     inkscape:window-maximized="1" />
  <metadata
     id="metadata842">
    <rdf:RDF>
      <cc:Work
         rdf:about="">
        <dc:format>image/svg+xml</dc:format>
        <dc:type
           rdf:resource="http://purl.org/dc/dcmitype/StillImage" />
        <dc:title></dc:title>
      </cc:Work>
    </rdf:RDF>
  </metadata>
  <g
     inkscape:label="Layer 1"
     inkscape:groupmode="layer"
     id="layer1"
     transform="translate(0,-145.59997)">
    <rect
       style="opacity:1;fill:#000000;fill-opacity:1;fill-rule:nonzero;stroke:none;stroke-width:0.82194763;stroke-linecap:square;stroke-linejoin:round;stroke-miterlimit:4;stroke-dasharray:none;stroke-opacity:1;paint-order:stroke fill markers"
       id="rect1373"
       width="65.400002"
       height="150.39999"
       x="0.5"
       y="146.09999"
       rx="6.4499998"
       ry="6.4499998" />
    <rect
       y="146.29997"
       x="0.70002747"
       height="150"
       width="65"
       id="rect1375"
       style="opacity:1;fill:#ffffff;fill-opacity:1;fill-rule:nonzero;stroke:none;stroke-width:0.81833988;stroke-linecap:square;stroke-linejoin:round;stroke-miterlimit:4;stroke-dasharray:none;stroke-opacity:1;paint-order:stroke fill markers"
       rx="6.25"
       ry="6.25" />
    <rect
       style="opacity:1;fill:#003c82;fill-opacity:1;fill-rule:nonzero;stroke:none;stroke-width:0.77302051;stroke-linecap:square;stroke-linejoin:round;stroke-miterlimit:4;stroke-dasharray:none;stroke-opacity:1;paint-order:stroke fill markers"
       id="rect1385"
       width="60"
       height="145"
       x="3.2000108"
       y="148.79999"
       rx="3.75"
       ry="3.75" />
    <g
       aria-label="m"
       style="font-style:normal;font-variant:normal;font-weight:normal;font-stretch:normal;font-size:19.50476265px;line-height:1.25;font-family:'DIN 1451 Mittelschrift';-inkscape-font-specification:'DIN 1451 Mittelschrift';letter-spacing:0px;word-spacing:0px;fill:#ffff00;fill-opacity:1;stroke:none;stroke-width:0.20317459"
       id="text1779"
       transform="translate(0.69999996,-0.70002202)">
      <path
         d="m 25.595001,192 v -9.88571 h 1.990476 v 1.05714 h 0.03809 Q 28.566429,182 30.195001,182 q 1.038095,0 1.647619,0.37143 0.609524,0.37143 1.142857,0.91429 Q 34.156906,182 36.109287,182 q 1.152381,0 2.219047,0.87619 1.076191,0.87619 1.076191,2.55238 V 192 h -1.990476 v -5.88571 q 0,-1 -0.561905,-1.56191 -0.561905,-0.5619 -1.390476,-0.5619 -0.857143,0 -1.419048,0.5619 -0.552381,0.56191 -0.552381,1.56191 V 192 h -1.980952 v -5.88571 q 0,-1 -0.561905,-1.56191 -0.561905,-0.5619 -1.390477,-0.5619 -0.857142,0 -1.419047,0.5619 -0.552381,0.56191 -0.552381,1.56191 V 192 Z"
         style="font-style:normal;font-variant:normal;font-weight:normal;font-stretch:normal;font-family:'DIN 1451 Mittelschrift';-inkscape-font-specification:'DIN 1451 Mittelschrift';fill:#ffffff;stroke:none;stroke-width:0.20317459;stroke-opacity:1"
         id="path1821"
         inkscape:connector-curvature="0" />
    </g>
    <path
       d="m 2.200005,244.43115 62.00031,-35.796 -5e-6,-20.78464 L 2.2,223.64651 Z"
       style="fill:#ffffff;fill-opacity:1;fill-rule:nonzero;stroke:none;stroke-width:0.12499999"
       id="path869"
       inkscape:connector-curvature="0"
       sodipodi:nodetypes="ccccc" />
    <path
       sodipodi:nodetypes="ccccc"
       inkscape:connector-curvature="0"
       id="path880"
       style="fill:#ffffff;fill-opacity:1;fill-rule:nonzero;stroke:none;stroke-width:0.12499999"
       d="m 2.200008,285.99997 62.00031,-35.796 -7e-6,-20.78464 -62.000309,35.796 z" />
    <g
       aria-label="200"
       style="font-style:normal;font-variant:normal;font-weight:normal;font-stretch:normal;font-size:26.2564106px;line-height:1.25;font-family:'DIN 1451 Mittelschrift';-inkscape-font-specification:'DIN 1451 Mittelschrift';letter-spacing:0px;word-spacing:0px;fill:#000000;fill-opacity:1;stroke:none;stroke-width:0.27350426"
       id="text914"
       transform="translate(0.69999998,-0.70000896)">
      <path
         d="m 14.5,174.84613 v -2.51282 l 7.307692,-9.14102 q 0.423077,-0.53846 0.551282,-0.98718 0.128206,-0.44872 0.128206,-0.8718 0,-0.97436 -0.692308,-1.80769 -0.692308,-0.84615 -1.884616,-0.84615 -1.089743,0 -1.871795,0.73077 -0.76923,0.71794 -0.858974,1.97435 H 14.5 q 0.01282,-2.26923 1.551282,-3.82051 1.538462,-1.5641 3.653846,-1.5641 2.333334,0 3.884616,1.57692 1.564102,1.56411 1.564102,3.78205 0,1.89744 -1.115384,3.28206 l -6.012821,7.53846 h 7.128205 v 2.66666 z"
         style="font-style:normal;font-variant:normal;font-weight:normal;font-stretch:normal;font-family:'DIN 1451 Mittelschrift';-inkscape-font-specification:'DIN 1451 Mittelschrift';fill:#ffffff;stroke:none;stroke-width:0.27350426"
         id="path928"
         inkscape:connector-curvature="0" />
      <path
         d="m 35.205129,169.47434 v -7.9359 q 0,-1.34615 -0.73077,-2.10256 -0.717948,-0.75641 -1.897435,-0.75641 -1.192308,0 -1.910257,0.75641 -0.717949,0.75641 -0.717949,2.10256 v 7.9359 q 0,1.35897 0.717949,2.11538 0.717949,0.74359 1.910257,0.74359 1.179487,0 1.897435,-0.74359 0.73077,-0.75641 0.73077,-2.11538 z m -7.935898,0.15384 v -8.24359 q 0,-2.57692 1.615385,-3.97435 1.615384,-1.41026 3.692308,-1.41026 2.064102,0 3.679487,1.41026 1.628205,1.39743 1.628205,3.97435 v 8.24359 q 0,2.57693 -1.628205,3.97436 -1.615385,1.39744 -3.679487,1.39744 -2.076924,0 -3.692308,-1.39744 -1.615385,-1.39743 -1.615385,-3.97436 z"
         style="font-style:normal;font-variant:normal;font-weight:normal;font-stretch:normal;font-family:'DIN 1451 Mittelschrift';-inkscape-font-specification:'DIN 1451 Mittelschrift';fill:#ffffff;stroke:none;stroke-width:0.27350426"
         id="path930"
         inkscape:connector-curvature="0" />
      <path
         d="m 47.820514,169.47434 v -7.9359 q 0,-1.34615 -0.73077,-2.10256 -0.717948,-0.75641 -1.897435,-0.75641 -1.192308,0 -1.910257,0.75641 -0.717949,0.75641 -0.717949,2.10256 v 7.9359 q 0,1.35897 0.717949,2.11538 0.717949,0.74359 1.910257,0.74359 1.179487,0 1.897435,-0.74359 0.73077,-0.75641 0.73077,-2.11538 z m -7.935898,0.15384 v -8.24359 q 0,-2.57692 1.615385,-3.97435 1.615384,-1.41026 3.692308,-1.41026 2.064102,0 3.679487,1.41026 1.628205,1.39743 1.628205,3.97435 v 8.24359 q 0,2.57693 -1.628205,3.97436 -1.615385,1.39744 -3.679487,1.39744 -2.076924,0 -3.692308,-1.39744 -1.615385,-1.39743 -1.615385,-3.97436 z"
         style="font-style:normal;font-variant:normal;font-weight:normal;font-stretch:normal;font-family:'DIN 1451 Mittelschrift';-inkscape-font-specification:'DIN 1451 Mittelschrift';fill:#ffffff;stroke:none;stroke-width:0.27350426"
         id="path932"
         inkscape:connector-curvature="0" />
    </g>
  </g>
</svg>
