<?xml version="1.0" encoding="UTF-8" standalone="no"?>
<!-- Created with Inkscape (http://www.inkscape.org/) -->

<svg
   xmlns:dc="http://purl.org/dc/elements/1.1/"
   xmlns:cc="http://creativecommons.org/ns#"
   xmlns:rdf="http://www.w3.org/1999/02/22-rdf-syntax-ns#"
   xmlns:svg="http://www.w3.org/2000/svg"
   xmlns="http://www.w3.org/2000/svg"
   xmlns:sodipodi="http://sodipodi.sourceforge.net/DTD/sodipodi-0.dtd"
   xmlns:inkscape="http://www.inkscape.org/namespaces/inkscape"
   width="61.400002mm"
   height="81.400002mm"
   viewBox="0 0 61.400002 81.400002"
   version="1.1"
   id="svg825"
   inkscape:version="0.92.2 (5c3e80d, 2017-08-06)"
   sodipodi:docname="99.svg">
  <defs
     id="defs819" />
  <sodipodi:namedview
     id="base"
     pagecolor="#ffffff"
     bordercolor="#666666"
     borderopacity="1.0"
     inkscape:pageopacity="0.0"
     inkscape:pageshadow="2"
     inkscape:zoom="1.8377736"
     inkscape:cx="199.51323"
     inkscape:cy="105.52205"
     inkscape:document-units="mm"
     inkscape:current-layer="layer1"
     showgrid="false"
     fit-margin-top="0"
     fit-margin-left="0"
     fit-margin-right="0"
     fit-margin-bottom="0"
     showborder="true"
     inkscape:window-width="1920"
     inkscape:window-height="1057"
     inkscape:window-x="-8"
     inkscape:window-y="-8"
     inkscape:window-maximized="1"
     inkscape:snap-global="false" />
  <metadata
     id="metadata822">
    <rdf:RDF>
      <cc:Work
         rdf:about="">
        <dc:format>image/svg+xml</dc:format>
        <dc:type
           rdf:resource="http://purl.org/dc/dcmitype/StillImage" />
        <dc:title></dc:title>
      </cc:Work>
    </rdf:RDF>
  </metadata>
  <g
     inkscape:label="Layer 1"
     inkscape:groupmode="layer"
     id="layer1"
     transform="translate(232.83333,-304.04641)">
    <rect
       style="opacity:1;fill:#000000;fill-opacity:1;fill-rule:nonzero;stroke:none;stroke-width:0.57753444;stroke-linecap:square;stroke-linejoin:round;stroke-miterlimit:4;stroke-dasharray:none;stroke-opacity:1;paint-order:stroke fill markers"
       id="rect1373"
       width="60.400002"
       height="80.400002"
       x="-232.33333"
       y="304.54642"
       rx="3.8"
       ry="3.8" />
    <rect
       y="304.74643"
       x="-232.13333"
       height="80"
       width="60"
       id="rect1375"
       style="opacity:1;fill:#ffffff;fill-opacity:1;fill-rule:nonzero;stroke:none;stroke-width:0.57418531;stroke-linecap:square;stroke-linejoin:round;stroke-miterlimit:4;stroke-dasharray:none;stroke-opacity:1;paint-order:stroke fill markers"
       rx="3.5999999"
       ry="3.5999999" />
    <rect
       style="opacity:1;fill:#006e3c;fill-opacity:1;fill-rule:nonzero;stroke:none;stroke-width:0.54905295;stroke-linecap:square;stroke-linejoin:round;stroke-miterlimit:4;stroke-dasharray:none;stroke-opacity:1;paint-order:stroke fill markers"
       id="rect1385"
       width="57"
       height="77"
       x="-230.63333"
       y="306.2464"
       rx="2.0999999"
       ry="2.0999999" />
    <rect
       style="opacity:1;fill:#fad20a;fill-opacity:1;fill-rule:nonzero;stroke:none;stroke-width:1.46507215;stroke-linecap:square;stroke-linejoin:round;stroke-miterlimit:4;stroke-dasharray:none;stroke-opacity:1;paint-order:stroke fill markers"
       id="rect860"
       width="40"
       height="40"
       x="-222.13333"
       y="324.74643" />
    <path
       style="opacity:1;fill:#003c82;fill-opacity:1;fill-rule:nonzero;stroke:none;stroke-width:1.44068301;stroke-linecap:square;stroke-linejoin:round;stroke-miterlimit:4;stroke-dasharray:none;stroke-opacity:1;paint-order:stroke fill markers"
       d="m -198.53336,329.74668 c 0.6648,0 1.19993,0.53513 1.19993,1.19993 v 1.70015 h 1.10019 c 0.7756,0 1.39991,0.62432 1.39991,1.39992 v 23.29987 h 6.69985 v 2.39985 h -27.99984 v -2.39985 h 6.69985 v -18.56011 l -0.0899,-0.23978 -0.54002,-0.19999 -0.59996,0.25322 -0.68988,-0.65319 0.38964,-0.4899 c 0.42303,-0.43055 -0.57112,-1.04821 -0.99012,0.74569 l -0.19999,0.74415 -1.33997,-0.39998 0.4501,-1.53996 c 0.0791,-0.2926 0.31276,-0.35177 0.50023,-0.49041 l 3.10989,-1.82986 v -0.63975 c 0,-0.7756 0.62431,-1.39992 1.39991,-1.39992 h 1.10019 v -1.70015 c 0,-0.6648 0.53513,-1.19993 1.19993,-1.19993 z"
       id="rect1732"
       inkscape:connector-curvature="0" />
    <path
       inkscape:connector-curvature="0"
       style="fill:none;stroke:#003c82;stroke-width:0.77999997;stroke-miterlimit:4;stroke-dasharray:none;stroke-opacity:1"
       id="slang_zwart"
       d="m -212.67646,338.1591 c -0.86286,3.00764 -2.21425,7.80721 -2.34931,11.01512 -0.0855,2.03087 0.0772,6.31972 1.92955,6.33263 1.93814,0.0139 2.83045,-3.25077 2.77018,-6.61461 -0.0697,-3.88938 -0.23604,-5.56092 -0.52046,-7.40538 -0.29072,-1.8854 -0.66387,-2.77413 -0.16352,-3.20225 l 0.44742,-0.39676" />
    <path
       d="m -205.33348,336.34653 h 6.4 v -2.2 h -6.4 z"
       style="fill:#fad20a;fill-opacity:1;fill-rule:nonzero;stroke:none;stroke-width:0.05039516"
       id="path1806"
       inkscape:connector-curvature="0" />
    <path
       d="m -205.33348,341.14653 h 6.4 v -3.9 h -6.4 z"
       style="fill:#fad20a;fill-opacity:1;fill-rule:nonzero;stroke:none;stroke-width:0.05072146"
       id="path1808"
       inkscape:connector-curvature="0" />
  </g>
</svg>
