<?xml version="1.0" encoding="UTF-8" standalone="no"?>
<!-- Created with Inkscape (http://www.inkscape.org/) -->

<svg
   xmlns:dc="http://purl.org/dc/elements/1.1/"
   xmlns:cc="http://creativecommons.org/ns#"
   xmlns:rdf="http://www.w3.org/1999/02/22-rdf-syntax-ns#"
   xmlns:svg="http://www.w3.org/2000/svg"
   xmlns="http://www.w3.org/2000/svg"
   xmlns:sodipodi="http://sodipodi.sourceforge.net/DTD/sodipodi-0.dtd"
   xmlns:inkscape="http://www.inkscape.org/namespaces/inkscape"
   width="902mm"
   height="902mm"
   viewBox="0 0 902 902"
   version="1.1"
   id="svg8"
   inkscape:version="0.92.2 (5c3e80d, 2017-08-06)"
   sodipodi:docname="20180311143759!Vienna_Convention_road_sign_B2b-V2.svg">
  <defs
     id="defs2" />
  <sodipodi:namedview
     id="base"
     pagecolor="#ffffff"
     bordercolor="#666666"
     borderopacity="1.0"
     inkscape:pageopacity="0.0"
     inkscape:pageshadow="2"
     inkscape:zoom="0.11313708"
     inkscape:cx="2403.8253"
     inkscape:cy="1236.2638"
     inkscape:document-units="mm"
     inkscape:current-layer="layer1"
     showgrid="false"
     inkscape:measure-start="0,0"
     inkscape:measure-end="0,0"
     inkscape:snap-global="false"
     showborder="true"
     inkscape:window-width="1920"
     inkscape:window-height="1057"
     inkscape:window-x="-8"
     inkscape:window-y="-8"
     inkscape:window-maximized="1" />
  <metadata
     id="metadata5">
    <rdf:RDF>
      <cc:Work
         rdf:about="">
        <dc:format>image/svg+xml</dc:format>
        <dc:type
           rdf:resource="http://purl.org/dc/dcmitype/StillImage" />
        <dc:title></dc:title>
      </cc:Work>
    </rdf:RDF>
  </metadata>
  <g
     inkscape:label="Layer 1"
     inkscape:groupmode="layer"
     id="layer1"
     transform="translate(0,605)">
    <circle
       r="450"
       cy="-154"
       cx="451"
       id="circle2013"
       style="opacity:1;fill:#dc0a14;fill-opacity:1;stroke:none;stroke-width:0.12003501;stroke-linecap:square;stroke-linejoin:round;stroke-miterlimit:10;stroke-dasharray:none;stroke-opacity:1;paint-order:stroke fill markers" />
    <circle
       r="370"
       style="opacity:1;fill:#ffffff;fill-opacity:1;stroke:none;stroke-width:0.09869549;stroke-linecap:square;stroke-linejoin:round;stroke-miterlimit:10;stroke-dasharray:none;stroke-opacity:1;paint-order:stroke fill markers"
       id="circle2015"
       cx="451"
       cy="-154" />
    <path
       style="fill:#dc0a14;fill-opacity:1;stroke:none;stroke-width:60.87346649;stroke-linejoin:round;stroke-miterlimit:4;stroke-dasharray:none;stroke-opacity:1"
       d="m 451.0001,296 389.7111,-675.00017 -779.4222,5e-5 z m 1e-4,-160.00006 -251.147,-434.99979 h 502.2939 z"
       id="path2043"
       inkscape:connector-curvature="0"
       sodipodi:nodetypes="cccccccc" />
    <path
       id="path829"
       style="font-style:normal;font-variant:normal;font-weight:normal;font-stretch:normal;font-size:441.82620239px;line-height:0;font-family:'DIN 1451 Engschrift';-inkscape-font-specification:'DIN 1451 Engschrift';letter-spacing:-0.0079375px;word-spacing:0px;fill:#000000;fill-opacity:1;fill-rule:nonzero;stroke:none;stroke-width:0.54376882"
       d="m 303,-182.19544 h 18.50066 v 6.94179 c 0,7.03462 5.70143,12.73983 12.71502,12.73983 h 1.1598 c 7.02662,0 12.71717,-5.70521 12.71717,-12.73983 v -13.89392 c 0,-5.19124 -3.13983,-9.858 -7.94238,-11.80566 l -16.49132,-6.68891 c -11.79058,-4.78957 -19.49902,-16.24945 -19.49902,-28.98128 v -8.11192 c 0,-17.25815 13.97861,-31.26457 31.21555,-31.26457 17.24996,0 31.22655,14.00642 31.22655,31.26457 v 6.95195 h -18.50938 v -6.95195 c 0,-7.03251 -5.69055,-12.73183 -12.71717,-12.73183 -7.02662,0 -12.71489,5.69932 -12.71489,12.73183 v 8.11192 c 0,5.18319 3.13755,9.84979 7.9401,11.79546 l 16.5017,6.69926 c 11.7912,4.78135 19.49964,16.24061 19.49964,28.98113 v 13.89392 c 0,17.26026 -13.97659,31.25365 -31.22655,31.25365 h -1.1598 C 316.97874,-144 303,-157.99339 303,-175.25365"
       inkscape:connector-curvature="0"
       sodipodi:nodetypes="ccsssssccssssccssssccssssc" />
    <path
       id="path831"
       style="font-style:normal;font-variant:normal;font-weight:normal;font-stretch:normal;font-size:441.82620239px;line-height:0;font-family:'DIN 1451 Engschrift';-inkscape-font-specification:'DIN 1451 Engschrift';letter-spacing:-0.0079375px;word-spacing:0px;fill:#000000;fill-opacity:1;fill-rule:nonzero;stroke:none;stroke-width:0.54350889"
       d="m 423.20789,-145.16599 v -111.18794 h 21.95598 v -18.47998 h -62.39194 v 18.47998 h 21.95598 v 111.18794 z"
       inkscape:connector-curvature="0"
       sodipodi:nodetypes="ccccccccc" />
    <path
       inkscape:connector-curvature="0"
       id="path841"
       d="m 494.48778,-276 c -17.28253,0 -31.19597,13.91345 -31.19597,31.19602 v 69.60797 c 0,17.28257 13.91344,31.19601 31.19597,31.19601 17.28257,0 31.19601,-13.91344 31.19601,-31.19601 v -69.60797 C 525.68379,-262.08655 511.77035,-276 494.48778,-276 Z m 0,18.47999 c 7.04465,0 12.71603,5.67137 12.71603,12.71603 v 69.60797 c 0,7.04465 -5.67138,12.71603 -12.71603,12.71603 -7.04462,0 -12.71599,-5.67138 -12.71599,-12.71603 v -69.60797 c 0,-7.04466 5.67137,-12.71603 12.71599,-12.71603 z"
       style="font-style:normal;font-variant:normal;font-weight:normal;font-stretch:normal;font-size:441.82620239px;line-height:0;font-family:'DIN 1451 Engschrift';-inkscape-font-specification:'DIN 1451 Engschrift';letter-spacing:-0.0079375px;word-spacing:0px;opacity:1;fill:#000000;fill-opacity:1;stroke:none;stroke-width:0.02551337;stroke-linecap:square;stroke-linejoin:round;stroke-miterlimit:10;stroke-dasharray:none;stroke-opacity:1;paint-order:stroke fill markers" />
    <path
       style="font-style:normal;font-variant:normal;font-weight:normal;font-stretch:normal;font-size:441.82620239px;line-height:0;font-family:'DIN 1451 Engschrift';-inkscape-font-specification:'DIN 1451 Engschrift';letter-spacing:-0.0079375px;word-spacing:0px;fill:#000000;fill-opacity:1;fill-rule:nonzero;stroke:none;stroke-width:0.54368967"
       d="m 580.93745,-196.10484 c 30.2215,0 30.06231,-30.0982 30.06231,-30.0982 v -18.53252 c 0,0 0.15919,-30.09822 -30.06231,-30.09822 h -30.06368 v 129.66779 h 18.50638 v -50.93885 z m 0,-18.55112 h -11.5573 v -41.62664 h 11.5573 c 11.61436,0 11.67032,11.54704 11.67032,11.54704 v 18.53252 c 0,0 -0.056,11.54708 -11.67032,11.54708 z"
       id="path852"
       inkscape:connector-curvature="0"
       sodipodi:nodetypes="sccsccccssccsccs" />
  </g>
</svg>
