<?xml version="1.0" encoding="UTF-8" standalone="no"?>
<!-- Created with Inkscape (http://www.inkscape.org/) -->

<svg
   xmlns:dc="http://purl.org/dc/elements/1.1/"
   xmlns:cc="http://creativecommons.org/ns#"
   xmlns:rdf="http://www.w3.org/1999/02/22-rdf-syntax-ns#"
   xmlns:svg="http://www.w3.org/2000/svg"
   xmlns="http://www.w3.org/2000/svg"
   xmlns:sodipodi="http://sodipodi.sourceforge.net/DTD/sodipodi-0.dtd"
   xmlns:inkscape="http://www.inkscape.org/namespaces/inkscape"
   width="902mm"
   height="902mm"
   viewBox="0 0 902 902"
   version="1.1"
   id="svg8"
   inkscape:version="0.92.2 (5c3e80d, 2017-08-06)"
   sodipodi:docname="20180311144607!Vienna_Convention_road_sign_B2b-V4.svg">
  <defs
     id="defs2" />
  <sodipodi:namedview
     id="base"
     pagecolor="#ffffff"
     bordercolor="#666666"
     borderopacity="1.0"
     inkscape:pageopacity="0.0"
     inkscape:pageshadow="2"
     inkscape:zoom="0.16"
     inkscape:cx="1125.1067"
     inkscape:cy="1820.305"
     inkscape:document-units="mm"
     inkscape:current-layer="layer1"
     showgrid="false"
     inkscape:measure-start="0,0"
     inkscape:measure-end="0,0"
     inkscape:snap-global="false"
     showborder="true"
     inkscape:window-width="1920"
     inkscape:window-height="1057"
     inkscape:window-x="-8"
     inkscape:window-y="-8"
     inkscape:window-maximized="1" />
  <metadata
     id="metadata5">
    <rdf:RDF>
      <cc:Work
         rdf:about="">
        <dc:format>image/svg+xml</dc:format>
        <dc:type
           rdf:resource="http://purl.org/dc/dcmitype/StillImage" />
        <dc:title></dc:title>
      </cc:Work>
    </rdf:RDF>
  </metadata>
  <g
     inkscape:label="Layer 1"
     inkscape:groupmode="layer"
     id="layer1"
     transform="translate(0,605)">
    <circle
       r="450"
       cy="-154"
       cx="451"
       id="circle2013"
       style="opacity:1;fill:#dc0a14;fill-opacity:1;stroke:none;stroke-width:0.12003501;stroke-linecap:square;stroke-linejoin:round;stroke-miterlimit:10;stroke-dasharray:none;stroke-opacity:1;paint-order:stroke fill markers" />
    <circle
       r="370"
       style="opacity:1;fill:#fad20a;fill-opacity:1;stroke:none;stroke-width:0.09869549;stroke-linecap:square;stroke-linejoin:round;stroke-miterlimit:10;stroke-dasharray:none;stroke-opacity:1;paint-order:stroke fill markers"
       id="circle2015"
       cx="451"
       cy="-154" />
    <path
       style="fill:#dc0a14;fill-opacity:1;stroke:none;stroke-width:60.87346649;stroke-linejoin:round;stroke-miterlimit:4;stroke-dasharray:none;stroke-opacity:1"
       d="m 451.0001,296 389.7111,-675.00017 -779.4222,5e-5 z m 1e-4,-160.00006 -251.147,-434.99979 h 502.2939 z"
       id="path2043"
       inkscape:connector-curvature="0"
       sodipodi:nodetypes="cccccccc" />
    <path
       id="path829"
       style="font-style:normal;font-variant:normal;font-weight:normal;font-stretch:normal;font-size:441.82620239px;line-height:0;font-family:'DIN 1451 Engschrift';-inkscape-font-specification:'DIN 1451 Engschrift';letter-spacing:-0.0079375px;word-spacing:0px;fill:#000000;fill-opacity:1;fill-rule:nonzero;stroke:none;stroke-width:0.54376882"
       d="m 303,-182.19544 h 18.5007 v 6.94178 c 0,7.03463 5.7014,12.73984 12.715,12.73984 h 1.1598 c 7.0266,0 12.7172,-5.70521 12.7172,-12.73984 v -13.89391 c 0,-5.19124 -3.1399,-9.858 -7.9424,-11.80566 l -16.4914,-6.68892 c -11.7905,-4.78957 -19.499,-16.24944 -19.499,-28.98127 v -8.11192 c 0,-17.25815 13.9786,-31.26457 31.2156,-31.26457 17.2499,0 31.2265,14.00642 31.2265,31.26457 v 6.95195 h -18.5093 v -6.95195 c 0,-7.03252 -5.6906,-12.73183 -12.7172,-12.73183 -7.0266,0 -12.7149,5.69931 -12.7149,12.73183 v 8.11192 c 0,5.18319 3.1375,9.84978 7.9401,11.79546 l 16.5017,6.69926 c 11.7912,4.78134 19.4996,16.24061 19.4996,28.98113 v 13.89391 C 366.602,-157.9934 352.6254,-144 335.3755,-144 h -1.1598 C 316.9787,-144 303,-157.9934 303,-175.25366"
       inkscape:connector-curvature="0"
       sodipodi:nodetypes="ccsssssccssssccssssccssssc" />
    <path
       id="path831"
       style="font-style:normal;font-variant:normal;font-weight:normal;font-stretch:normal;font-size:441.82620239px;line-height:0;font-family:'DIN 1451 Engschrift';-inkscape-font-specification:'DIN 1451 Engschrift';letter-spacing:-0.0079375px;word-spacing:0px;fill:#000000;fill-opacity:1;fill-rule:nonzero;stroke:none;stroke-width:0.54350895"
       d="m 423.2079,-145.16599 v -111.18794 h 21.956 v -18.47998 h -62.392 v 18.47998 h 21.956 v 111.18794 z"
       inkscape:connector-curvature="0"
       sodipodi:nodetypes="ccccccccc" />
    <path
       inkscape:connector-curvature="0"
       id="path841"
       d="m 494.4878,-276 c -17.2826,0 -31.196,13.91345 -31.196,31.19602 v 69.60796 c 0,17.28258 13.9134,31.19602 31.196,31.19602 17.2825,0 31.196,-13.91344 31.196,-31.19602 v -69.60796 C 525.6838,-262.08655 511.7703,-276 494.4878,-276 Z m 0,18.47998 c 7.0446,0 12.716,5.67138 12.716,12.71604 v 69.60796 c 0,7.04466 -5.6714,12.71604 -12.716,12.71604 -7.0447,0 -12.716,-5.67138 -12.716,-12.71604 v -69.60796 c 0,-7.04466 5.6713,-12.71604 12.716,-12.71604 z"
       style="font-style:normal;font-variant:normal;font-weight:normal;font-stretch:normal;font-size:441.82620239px;line-height:0;font-family:'DIN 1451 Engschrift';-inkscape-font-specification:'DIN 1451 Engschrift';letter-spacing:-0.0079375px;word-spacing:0px;opacity:1;fill:#000000;fill-opacity:1;stroke:none;stroke-width:0.02551337;stroke-linecap:square;stroke-linejoin:round;stroke-miterlimit:10;stroke-dasharray:none;stroke-opacity:1;paint-order:stroke fill markers" />
    <path
       style="font-style:normal;font-variant:normal;font-weight:normal;font-stretch:normal;font-size:441.82620239px;line-height:0;font-family:'DIN 1451 Engschrift';-inkscape-font-specification:'DIN 1451 Engschrift';letter-spacing:-0.0079375px;word-spacing:0px;fill:#000000;fill-opacity:1;fill-rule:nonzero;stroke:none;stroke-width:0.54368967"
       d="m 580.93743,-196.10484 c 30.22148,0 30.0623,-30.0982 30.0623,-30.0982 v -18.53252 c 0,0 0.15918,-30.09822 -30.0623,-30.09822 h -30.06367 v 129.66779 h 18.50638 v -50.93885 z m 0,-18.55112 h -11.55729 v -41.62665 h 11.55729 c 11.61435,0 11.67032,11.54705 11.67032,11.54705 v 18.53252 c 0,0 -0.056,11.54708 -11.67032,11.54708 z"
       id="path852"
       inkscape:connector-curvature="0"
       sodipodi:nodetypes="sccsccccssccsccs" />
  </g>
</svg>
