<?xml version="1.0" encoding="UTF-8" standalone="no"?>
<!-- Created with Inkscape (http://www.inkscape.org/) -->

<svg
   xmlns:dc="http://purl.org/dc/elements/1.1/"
   xmlns:cc="http://creativecommons.org/ns#"
   xmlns:rdf="http://www.w3.org/1999/02/22-rdf-syntax-ns#"
   xmlns:svg="http://www.w3.org/2000/svg"
   xmlns="http://www.w3.org/2000/svg"
   xmlns:sodipodi="http://sodipodi.sourceforge.net/DTD/sodipodi-0.dtd"
   xmlns:inkscape="http://www.inkscape.org/namespaces/inkscape"
   width="61.400002mm"
   height="81.400002mm"
   viewBox="0 0 61.400002 81.400002"
   version="1.1"
   id="svg825"
   inkscape:version="0.92.2 (5c3e80d, 2017-08-06)"
   sodipodi:docname="22.svg">
  <defs
     id="defs819" />
  <sodipodi:namedview
     id="base"
     pagecolor="#ffffff"
     bordercolor="#666666"
     borderopacity="1.0"
     inkscape:pageopacity="0.0"
     inkscape:pageshadow="2"
     inkscape:zoom="1.8377736"
     inkscape:cx="134.82687"
     inkscape:cy="107.24787"
     inkscape:document-units="mm"
     inkscape:current-layer="layer1"
     showgrid="false"
     fit-margin-top="0"
     fit-margin-left="0"
     fit-margin-right="0"
     fit-margin-bottom="0"
     showborder="true"
     inkscape:window-width="1920"
     inkscape:window-height="1057"
     inkscape:window-x="-8"
     inkscape:window-y="-8"
     inkscape:window-maximized="1" />
  <metadata
     id="metadata822">
    <rdf:RDF>
      <cc:Work
         rdf:about="">
        <dc:format>image/svg+xml</dc:format>
        <dc:type
           rdf:resource="http://purl.org/dc/dcmitype/StillImage" />
        <dc:title></dc:title>
      </cc:Work>
    </rdf:RDF>
  </metadata>
  <g
     inkscape:label="Layer 1"
     inkscape:groupmode="layer"
     id="layer1"
     transform="translate(117.22882,-319.98876)">
    <rect
       style="opacity:1;fill:#000000;fill-opacity:1;fill-rule:nonzero;stroke:none;stroke-width:0.57753444;stroke-linecap:square;stroke-linejoin:round;stroke-miterlimit:4;stroke-dasharray:none;stroke-opacity:1;paint-order:stroke fill markers"
       id="rect1373"
       width="60.400002"
       height="80.400002"
       x="-116.72882"
       y="320.48877"
       rx="3.8"
       ry="3.8" />
    <rect
       y="320.68878"
       x="-116.52881"
       height="80"
       width="60"
       id="rect1375"
       style="opacity:1;fill:#ffffff;fill-opacity:1;fill-rule:nonzero;stroke:none;stroke-width:0.57418531;stroke-linecap:square;stroke-linejoin:round;stroke-miterlimit:4;stroke-dasharray:none;stroke-opacity:1;paint-order:stroke fill markers"
       rx="3.5999999"
       ry="3.5999999" />
    <rect
       style="opacity:1;fill:#003c82;fill-opacity:1;fill-rule:nonzero;stroke:none;stroke-width:0.54905295;stroke-linecap:square;stroke-linejoin:round;stroke-miterlimit:4;stroke-dasharray:none;stroke-opacity:1;paint-order:stroke fill markers"
       id="rect1385"
       width="57"
       height="77"
       x="-115.02881"
       y="322.18875"
       rx="2.0999999"
       ry="2.0999999" />
    <rect
       style="opacity:1;fill:#ffffff;fill-opacity:1;fill-rule:nonzero;stroke:none;stroke-width:1.61157942;stroke-linecap:square;stroke-linejoin:round;stroke-miterlimit:4;stroke-dasharray:none;stroke-opacity:1;paint-order:stroke fill markers"
       id="rect860"
       width="44"
       height="44"
       x="-108.52881"
       y="330.68878" />
    <path
       style="fill:#000000;fill-rule:nonzero;stroke:none;stroke-width:0.24282052"
       d="m -83.281335,337.0888 -0.101245,0.639 h 8.865001 l 5.988752,10.16458 v 20.39642 h -18.000002 -17.999991 v -20.39642 l 5.988741,-10.16458 h 8.865 l -0.10124,-0.639 z"
       id="path12"
       inkscape:connector-curvature="0"
       sodipodi:nodetypes="cccccccccccc" />
    <path
       style="fill:#ffffff;fill-opacity:1;fill-rule:nonzero;stroke:none;stroke-width:0.24282052"
       d="m -83.922684,341.16136 c 5.48532,1.19985 9.578341,6.04543 9.573689,11.848 v 14.63951 h -1.893733 v -14.63951 c -0.0028,-5.63991 -4.608711,-10.20706 -10.286186,-10.19813 -5.677475,-0.009 -10.283765,4.55822 -10.286185,10.19813 v 14.63951 h -1.89372 v -14.63951 c -0.005,-5.80257 4.08837,-10.64815 9.57368,-11.848 l 0.135,0.64089 c 0.79674,-0.19184 1.5938,-0.28775 2.471225,-0.27094 0.877424,-0.017 1.674483,0.079 2.47123,0.27094 z"
       id="path32"
       inkscape:connector-curvature="0"
       sodipodi:nodetypes="ccccccccccccccc" />
    <path
       style="fill:#ffffff;fill-opacity:1;fill-rule:nonzero;stroke:none;stroke-width:0.24282052"
       d="m -84.123204,337.72775 -0.506246,3.33341 c -0.613942,-0.10894 -1.244539,-0.16033 -1.899379,-0.16632 -0.65484,0.007 -1.28544,0.0573 -1.89937,0.16632 l -0.50624,-3.33341 z"
       id="path3923"
       inkscape:connector-curvature="0"
       sodipodi:nodetypes="cccccc" />
    <path
       style="fill:#ffffff;fill-opacity:1;fill-rule:nonzero;stroke:none;stroke-width:0.24282052"
       id="path3980"
       d="m -99.014599,350.14847 c -0.21061,0.91013 -0.365398,1.869 -0.372158,2.86085 h -4.533863 v -4.27438 l 4.906021,1.41357"
       inkscape:connector-curvature="0"
       sodipodi:nodetypes="ccccc" />
    <path
       style="fill:#ffffff;fill-opacity:1;fill-rule:nonzero;stroke:none;stroke-width:0.24282052"
       id="path3982-1"
       d="m -98.845139,349.50806 c 0.28789,-1.01586 0.69727,-1.96856 1.21804,-2.86085 l -4.026291,-2.35599 -2.2331,3.76953 5.041411,1.44723"
       inkscape:connector-curvature="0"
       sodipodi:nodetypes="ccccc" />
    <path
       style="fill:#ffffff;fill-opacity:1;fill-rule:nonzero;stroke:none;stroke-width:0.24282052"
       id="path3984"
       d="m -97.288079,346.075 c 0.66965,-1.01028 1.47576,-1.92714 2.40227,-2.72623 l -3.58652,-4.47637 -2.875931,4.81283 4.060181,2.38961"
       inkscape:connector-curvature="0"
       sodipodi:nodetypes="ccccc" />
    <path
       style="fill:#ffffff;fill-opacity:1;fill-rule:nonzero;stroke:none;stroke-width:0.24282052"
       id="path3986"
       d="m -94.378569,342.94619 c 0.59914,-0.46781 1.25412,-0.88655 1.96246,-1.24529 l -1.75945,-3.36568 h -3.82327 l 3.62026,4.61099"
       inkscape:connector-curvature="0"
       sodipodi:nodetypes="ccccc" />
    <path
       style="fill:#ffffff;fill-opacity:1;fill-rule:nonzero;stroke:none;stroke-width:0.24282052"
       id="path3988"
       d="m -91.841569,341.43119 c 0.82557,-0.39042 1.70158,-0.68098 2.60528,-0.87509 l -0.33834,-2.22137 h -3.85716 l 1.59021,3.09646"
       inkscape:connector-curvature="0"
       sodipodi:nodetypes="ccccc" />
    <path
       style="fill:#ffffff;fill-opacity:1;fill-rule:nonzero;stroke:none;stroke-width:0.24282052"
       id="path3990-7"
       d="m -103.92075,356.67689 h 4.533853 v -3.02907 h -4.533853 z"
       inkscape:connector-curvature="0"
       sodipodi:nodetypes="ccccc" />
    <path
       style="fill:#ffffff;fill-opacity:1;fill-rule:nonzero;stroke:none;stroke-width:0.24282052"
       id="path3992"
       d="m -103.92075,360.34574 h 4.533853 v -3.02906 h -4.533853 z"
       inkscape:connector-curvature="0"
       sodipodi:nodetypes="ccccc" />
    <path
       style="fill:#ffffff;fill-opacity:1;fill-rule:nonzero;stroke:none;stroke-width:0.24282052"
       id="path3994"
       d="m -103.92075,363.98065 h 4.533853 v -3.02908 h -4.533853 z"
       inkscape:connector-curvature="0"
       sodipodi:nodetypes="ccccc" />
    <path
       style="fill:#ffffff;fill-opacity:1;fill-rule:nonzero;stroke:none;stroke-width:0.24282052"
       id="path3996"
       d="m -103.92075,367.64934 h 4.533853 v -3.02906 h -4.533853 z"
       inkscape:connector-curvature="0"
       sodipodi:nodetypes="ccccc" />
    <path
       sodipodi:nodetypes="ccccc"
       inkscape:connector-curvature="0"
       d="m -74.043061,350.14847 c 0.210619,0.91013 0.365409,1.869 0.372173,2.86085 h 4.53386 v -4.27438 l -4.906024,1.41357"
       id="path3085"
       style="fill:#ffffff;fill-opacity:1;fill-rule:nonzero;stroke:none;stroke-width:0.24282052" />
    <path
       sodipodi:nodetypes="ccccc"
       inkscape:connector-curvature="0"
       d="m -74.212517,349.50806 c -0.287877,-1.01586 -0.697273,-1.96856 -1.218032,-2.86085 l 4.026297,-2.35599 2.233109,3.76953 -5.041431,1.44723"
       id="path3087"
       style="fill:#ffffff;fill-opacity:1;fill-rule:nonzero;stroke:none;stroke-width:0.24282052" />
    <path
       sodipodi:nodetypes="ccccc"
       inkscape:connector-curvature="0"
       d="m -75.769574,346.075 c -0.669648,-1.01028 -1.475763,-1.92714 -2.402271,-2.72623 l 3.586519,-4.47637 2.875937,4.81283 -4.060185,2.38961"
       id="path3089"
       style="fill:#ffffff;fill-opacity:1;fill-rule:nonzero;stroke:none;stroke-width:0.24282052" />
    <path
       sodipodi:nodetypes="ccccc"
       inkscape:connector-curvature="0"
       d="m -78.679075,342.94619 c -0.599154,-0.46781 -1.254136,-0.88655 -1.962465,-1.24529 l 1.759443,-3.36568 h 3.823277 l -3.620255,4.61099"
       id="path3091"
       style="fill:#ffffff;fill-opacity:1;fill-rule:nonzero;stroke:none;stroke-width:0.24282052" />
    <path
       sodipodi:nodetypes="ccccc"
       inkscape:connector-curvature="0"
       d="m -81.21609,341.43119 c -0.825566,-0.39042 -1.701579,-0.68098 -2.605283,-0.87509 l 0.338343,-2.22137 h 3.857164 l -1.590215,3.09646"
       id="path3093"
       style="fill:#ffffff;fill-opacity:1;fill-rule:nonzero;stroke:none;stroke-width:0.24282052" />
    <path
       sodipodi:nodetypes="ccccc"
       inkscape:connector-curvature="0"
       d="m -69.136895,356.67689 h -4.53385 v -3.02907 h 4.53385 z"
       id="path3095"
       style="fill:#ffffff;fill-opacity:1;fill-rule:nonzero;stroke:none;stroke-width:0.24282052" />
    <path
       sodipodi:nodetypes="ccccc"
       inkscape:connector-curvature="0"
       d="m -69.136895,360.34574 h -4.53385 v -3.02906 h 4.53385 z"
       id="path3097"
       style="fill:#ffffff;fill-opacity:1;fill-rule:nonzero;stroke:none;stroke-width:0.24282052" />
    <path
       sodipodi:nodetypes="ccccc"
       inkscape:connector-curvature="0"
       d="m -69.136895,363.98065 h -4.53385 v -3.02908 h 4.53385 z"
       id="path3099"
       style="fill:#ffffff;fill-opacity:1;fill-rule:nonzero;stroke:none;stroke-width:0.24282052" />
    <path
       sodipodi:nodetypes="ccccc"
       inkscape:connector-curvature="0"
       d="m -69.136895,367.64934 h -4.53385 v -3.02906 h 4.53385 z"
       id="path3102"
       style="fill:#ffffff;fill-opacity:1;fill-rule:nonzero;stroke:none;stroke-width:0.24282052" />
  </g>
</svg>
