<?xml version="1.0" encoding="UTF-8" standalone="no"?>
<!-- Created with Inkscape (http://www.inkscape.org/) -->

<svg
   xmlns:dc="http://purl.org/dc/elements/1.1/"
   xmlns:cc="http://creativecommons.org/ns#"
   xmlns:rdf="http://www.w3.org/1999/02/22-rdf-syntax-ns#"
   xmlns:svg="http://www.w3.org/2000/svg"
   xmlns="http://www.w3.org/2000/svg"
   xmlns:sodipodi="http://sodipodi.sourceforge.net/DTD/sodipodi-0.dtd"
   xmlns:inkscape="http://www.inkscape.org/namespaces/inkscape"
   width="91mm"
   height="80.537003mm"
   viewBox="0 0 91.000001 80.537004"
   version="1.1"
   id="svg863"
   inkscape:version="0.92.2 (5c3e80d, 2017-08-06)"
   sodipodi:docname="Vienna_Convention_road_sign_Aa-10a-V1.svg">
  <defs
     id="defs857" />
  <sodipodi:namedview
     id="base"
     pagecolor="#ffffff"
     bordercolor="#666666"
     borderopacity="1.0"
     inkscape:pageopacity="0.0"
     inkscape:pageshadow="2"
     inkscape:zoom="1.4142136"
     inkscape:cx="151.25728"
     inkscape:cy="106.328"
     inkscape:document-units="mm"
     inkscape:current-layer="layer1"
     showgrid="false"
     inkscape:window-width="1920"
     inkscape:window-height="1057"
     inkscape:window-x="-8"
     inkscape:window-y="-8"
     inkscape:window-maximized="1"
     inkscape:snap-global="false"
     fit-margin-top="0"
     fit-margin-left="0"
     fit-margin-right="0"
     fit-margin-bottom="0"
     showguides="false" />
  <metadata
     id="metadata860">
    <rdf:RDF>
      <cc:Work
         rdf:about="">
        <dc:format>image/svg+xml</dc:format>
        <dc:type
           rdf:resource="http://purl.org/dc/dcmitype/StillImage" />
        <dc:title></dc:title>
      </cc:Work>
    </rdf:RDF>
  </metadata>
  <g
     inkscape:label="Layer 1"
     inkscape:groupmode="layer"
     id="layer1"
     transform="translate(-41.799512,-202.963)">
    <path
       inkscape:connector-curvature="0"
       id="path814"
       d="m 126.34992,277.04996 -39.050467,-67.63735 -39.05034,67.6373 z"
       inkscape:transform-center-y="4.393997"
       inkscape:transform-center-x="27.135595"
       style="opacity:1;fill:none;fill-opacity:1;stroke:#dc0a14;stroke-width:11.9000721;stroke-linecap:butt;stroke-linejoin:round;stroke-miterlimit:4;stroke-dasharray:none;stroke-dashoffset:0;stroke-opacity:1"
       sodipodi:nodetypes="cccc" />
    <path
       sodipodi:nodetypes="cccc"
       inkscape:connector-curvature="0"
       id="path818"
       d="M 122.97253,275.09998 87.299493,213.31247 51.626463,275.09994 Z"
       style="opacity:1;fill:#fad20a;fill-opacity:1;stroke:none;stroke-width:11.93114281;stroke-linecap:butt;stroke-linejoin:round;stroke-miterlimit:4;stroke-dasharray:none;stroke-dashoffset:0;stroke-opacity:1" />
    <path
       sodipodi:nodetypes="ccccc"
       d="M 117.29952,271.99999 H 57.299523 v -1.1 h 59.999997 z"
       style="fill:#003c82;fill-opacity:1;fill-rule:nonzero;stroke:none;stroke-width:0.08908726"
       id="path2026"
       inkscape:connector-curvature="0" />
    <path
       style="fill:#003c82;fill-opacity:1;fill-rule:evenodd;stroke:none;stroke-width:0.21463642"
       d="m 103.14109,245.15082 12.77287,22.1232 c -3.15806,0.10739 -7.84216,0.15507 -8.61756,0.14934 -0.98136,0.007 -8.267534,-0.0687 -10.730099,-0.24649 v 3.82302 h -3.823022 v -3.86023 c -0.843169,-0.4991 -1.239094,-1.78342 -1.356506,-2.87372 l -0.493509,-5.82136 c 0.02849,-2.01605 1.084265,-3.23075 1.874303,-3.57704 l 1.578716,-6.11694 c 0.497015,-1.98135 2.170375,-3.04071 3.626652,-3.19412 1.342898,-0.12941 3.072665,-0.31589 5.168155,-0.40566 z"
       id="path2944-7"
       inkscape:connector-curvature="0"
       sodipodi:nodetypes="ccccccccccccc" />
    <path
       style="fill:#fad20a;fill-opacity:1;fill-rule:evenodd;stroke:none;stroke-width:0.21463646"
       d="m 104.21183,247.00497 2.08769,2e-5 4,6.995 -2.04918,-9e-5 c -0.31058,-0.006 -0.67302,-0.0151 -0.95394,-0.0202 -2.89693,0.0524 -7.438224,0.14727 -12.234398,0.5674 l 1.171504,-5.50095 c 0.233,-0.91851 1.02212,-1.46276 1.738913,-1.57819 l 3.133141,-0.29611 c 0.6994,-0.0769 1.88753,-0.13083 3.10627,-0.16692 z"
       id="path2986-1"
       inkscape:connector-curvature="0"
       sodipodi:nodetypes="cccccccccc" />
    <rect
       style="opacity:1;fill:#fad20a;fill-opacity:1;fill-rule:nonzero;stroke:none;stroke-width:13.87851524;stroke-linecap:square;stroke-linejoin:round;stroke-miterlimit:4;stroke-dasharray:none;stroke-opacity:1;paint-order:stroke fill markers"
       id="rect3037-3"
       width="17.076115"
       height="1.1099858"
       x="-112.03935"
       y="257.30994"
       transform="scale(-1,1)" />
    <rect
       y="259.52991"
       x="-113.11422"
       height="1.1099858"
       width="18.150986"
       id="rect3048-8"
       style="opacity:1;fill:#fad20a;fill-opacity:1;fill-rule:nonzero;stroke:none;stroke-width:14.30864716;stroke-linecap:square;stroke-linejoin:round;stroke-miterlimit:4;stroke-dasharray:none;stroke-opacity:1;paint-order:stroke fill markers"
       transform="scale(-1,1)" />
    <circle
       style="opacity:1;fill:#003c82;fill-opacity:1;fill-rule:nonzero;stroke:none;stroke-width:17.03752327;stroke-linecap:square;stroke-linejoin:round;stroke-miterlimit:4;stroke-dasharray:none;stroke-opacity:1;paint-order:stroke fill markers"
       id="circle3087-1"
       cx="-94.531693"
       cy="258.728"
       r="3.0832937"
       transform="scale(-1,1)" />
    <circle
       r="2.0349739"
       cy="258.728"
       cx="-94.531693"
       id="circle3089-8"
       style="opacity:1;fill:#fad20a;fill-opacity:1;fill-rule:nonzero;stroke:none;stroke-width:11.24476528;stroke-linecap:square;stroke-linejoin:round;stroke-miterlimit:4;stroke-dasharray:none;stroke-opacity:1;paint-order:stroke fill markers"
       transform="scale(-1,1)" />
    <path
       sodipodi:nodetypes="ccc"
       d="m 90.500009,268.20151 -19.373296,-10.31857 -0.31164,0.96953"
       style="fill:#003c82;fill-opacity:1;fill-rule:nonzero;stroke:none;stroke-width:0.08069648"
       id="path876"
       inkscape:connector-curvature="0" />
    <path
       sodipodi:nodetypes="ccc"
       d="m 89.37466,268.85941 -14.542958,-5.33242 -0.605959,0.81371"
       style="fill:#003c82;fill-opacity:1;fill-rule:nonzero;stroke:none;stroke-width:0.08069648"
       id="path878"
       inkscape:connector-curvature="0" />
    <path
       sodipodi:nodetypes="ccc"
       d="M 90.500009,267.42242 77.09971,256.25551 v 0.81371"
       style="fill:#003c82;fill-opacity:1;fill-rule:nonzero;stroke:none;stroke-width:0.08069648"
       id="path880"
       inkscape:connector-curvature="0" />
    <path
       sodipodi:nodetypes="ccc"
       d="m 88.768703,269.49999 -19.73687,-3.0644 v 0.8137"
       style="fill:#003c82;fill-opacity:1;fill-rule:nonzero;stroke:none;stroke-width:0.08069648"
       id="path882"
       inkscape:connector-curvature="0" />
    <path
       sodipodi:nodetypes="ccccccc"
       d="m 74.745137,252.09999 -2.259354,0.64963 0.15582,2.25935 1.134,1.28982 0.80545,-1.28982 h 1.462562 v -2.10353"
       style="fill:#003c82;fill-opacity:1;fill-rule:nonzero;stroke:none;stroke-width:0.08069648"
       id="path884"
       inkscape:connector-curvature="0" />
    <path
       sodipodi:nodetypes="cccccc"
       d="m 64.894293,264.4968 v 1.12507 l 0.81372,1.13442 -1.13401,0.96911 -1.77441,-1.61011 0.1643,-1.45429"
       style="fill:#003c82;fill-opacity:1;fill-rule:nonzero;stroke:none;stroke-width:0.08069648"
       id="path886"
       inkscape:connector-curvature="0" />
    <path
       sodipodi:nodetypes="cccccc"
       d="m 69.741663,256.09969 -0.80944,0.97303 0.1602,1.77975 -2.25935,-0.16448 -1.12535,-3.06441 1.4543,-1.134"
       style="fill:#003c82;fill-opacity:1;fill-rule:nonzero;stroke:none;stroke-width:0.08069648"
       id="path888"
       inkscape:connector-curvature="0" />
    <path
       sodipodi:nodetypes="ccccccc"
       d="m 73.446653,262.55746 -1.61011,-1.77458 -1.61011,1.13399 -0.48477,1.61012 1.4543,0.32029 0.64058,1.29848 1.61011,-0.96953"
       style="fill:#003c82;fill-opacity:1;fill-rule:nonzero;stroke:none;stroke-width:0.08069648"
       id="path890"
       inkscape:connector-curvature="0" />
    <path
       sodipodi:nodetypes="ccccccc"
       d="m 67.162023,261.7524 -1.13401,-1.45429 -1.28982,0.80506 -0.32029,1.13413 0.96087,0.32016 0.48477,0.96953 1.29848,-0.64059"
       style="fill:#003c82;fill-opacity:1;fill-rule:nonzero;stroke:none;stroke-width:0.08069648"
       id="path892"
       inkscape:connector-curvature="0" />
  </g>
</svg>
