<?xml version="1.0" encoding="UTF-8" standalone="no"?>
<!-- Created with Inkscape (http://www.inkscape.org/) -->

<svg
   xmlns:dc="http://purl.org/dc/elements/1.1/"
   xmlns:cc="http://creativecommons.org/ns#"
   xmlns:rdf="http://www.w3.org/1999/02/22-rdf-syntax-ns#"
   xmlns:svg="http://www.w3.org/2000/svg"
   xmlns="http://www.w3.org/2000/svg"
   xmlns:sodipodi="http://sodipodi.sourceforge.net/DTD/sodipodi-0.dtd"
   xmlns:inkscape="http://www.inkscape.org/namespaces/inkscape"
   width="61mm"
   height="61mm"
   viewBox="0 0 61 61"
   version="1.1"
   id="svg8"
   inkscape:version="0.92.2 (5c3e80d, 2017-08-06)"
   sodipodi:docname="44.svg">
  <defs
     id="defs2" />
  <sodipodi:namedview
     id="base"
     pagecolor="#ffffff"
     bordercolor="#666666"
     borderopacity="1.0"
     inkscape:pageopacity="0.0"
     inkscape:pageshadow="2"
     inkscape:zoom="1.979899"
     inkscape:cx="174.66232"
     inkscape:cy="79.258428"
     inkscape:document-units="mm"
     inkscape:current-layer="layer1"
     showgrid="false"
     inkscape:window-width="1920"
     inkscape:window-height="1057"
     inkscape:window-x="-8"
     inkscape:window-y="-8"
     inkscape:window-maximized="1" />
  <metadata
     id="metadata5">
    <rdf:RDF>
      <cc:Work
         rdf:about="">
        <dc:format>image/svg+xml</dc:format>
        <dc:type
           rdf:resource="http://purl.org/dc/dcmitype/StillImage" />
        <dc:title></dc:title>
      </cc:Work>
    </rdf:RDF>
  </metadata>
  <g
     inkscape:label="Layer 1"
     inkscape:groupmode="layer"
     id="layer1"
     transform="translate(0,-236)">
    <circle
       style="opacity:1;fill:#dc0a14;fill-opacity:1;fill-rule:nonzero;stroke:none;stroke-width:0.20430708;stroke-linecap:square;stroke-linejoin:round;stroke-miterlimit:4;stroke-dasharray:none;stroke-opacity:1;paint-order:stroke fill markers"
       id="path815"
       cx="30.5"
       cy="266.5"
       r="30" />
    <circle
       r="24"
       cy="266.5"
       cx="30.5"
       id="circle817"
       style="opacity:1;fill:#fad20a;fill-opacity:1;fill-rule:nonzero;stroke:none;stroke-width:0.16344567;stroke-linecap:square;stroke-linejoin:round;stroke-miterlimit:4;stroke-dasharray:none;stroke-opacity:1;paint-order:stroke fill markers" />
    <path
       inkscape:connector-curvature="0"
       id="path20"
       style="fill:#000000;fill-opacity:1;fill-rule:nonzero;stroke:none;stroke-width:0.06326083"
       d="m 23.403529,249.79587 c 0,0 -0.703584,-0.70643 0.123268,-0.8273 0.826403,-0.11838 0.741911,0 0.917283,-0.59893 0.17766,-0.59918 0.366624,-0.89304 0.650965,-0.8681 0.287064,0.0296 1.015881,0.0823 1.21845,0.0959 0.204528,0.0108 0.801169,-0.0797 0.93556,0 0.134401,0.0774 0.407604,0.1844 0.407604,0.47826 0,0.29392 -0.09783,1.1981 0.10941,1.29403 0.200168,0.0956 0.619155,0.26869 0.56426,0.54648 -0.05458,0.28032 -0.200355,0.26868 -0.484698,0.26868 -0.28681,0 -0.462184,0.0662 -0.446121,0.2395 0.01344,0.17308 0.134383,0.46694 0.122748,0.78359 -0.01802,0.32359 -0.26189,0.97738 -0.475779,1.28264 -0.21642,0.30525 -0.120865,0.42562 -0.109213,0.53293 0.01362,0.1069 0.147738,0.19799 0.257147,0.29386 0.109213,0.0935 2.031002,1.31649 2.328941,1.5333 0.298383,0.21406 0.81521,0.49406 0.906406,1.45318 0.09783,0.95929 0.01362,1.53323 0.243551,2.00015 0.230269,0.46694 0.393818,1.71965 0.542059,2.70838 0.150213,0.982 0.27296,1.81355 0.284786,2.10717 0.01362,0.29391 0.243362,0.77249 0.297686,0.90442 0.05489,0.1322 1.21845,2.57663 1.477874,2.94788 0,0 0.134131,0.22767 0.02468,0.29393 -0.108657,0.0658 -0.163551,0.21406 0.02965,0.28007 0.188971,0.066 0.378008,0.38486 0.457758,0.53311 0.08449,0.14332 0.205033,0.49192 0.109212,0.67879 -0.09758,0.18908 -0.35252,0.39871 -0.147487,0.62634 0.202569,0.22792 0.348345,0.34853 0.487165,0.55843 0.134131,0.21626 0.596132,0.94966 0.650964,1.10711 0.05014,0.16144 0.170436,0.30942 0.334749,0.33493 0.163801,0.0244 0.760376,0.0956 1.044971,0.19826 0.282382,0.10869 0.701117,0.34846 0.908683,0.34846 0.200102,0 0.552621,0 0.892302,0.10708 0.336708,0.10673 0.352773,0.0108 0.352773,-0.096 0,-0.1026 0.02517,-0.22292 -0.120544,-0.27558 -0.152416,-0.055 -0.462498,-0.16197 -0.560083,-0.38934 -0.0914,-0.22787 -0.295916,-0.57445 -0.161776,-1.0003 0,0 -0.134132,-0.64 0.09555,-0.97019 0.229763,-0.33492 0.650965,-0.57419 0.796743,-0.57419 0.152669,0 0.353278,0.10709 0.517078,0.0523 0.163551,-0.0523 0.229763,-0.11839 0.407604,-0.0523 0.175436,0.066 0.389137,0.1844 0.541554,0.19795 0.145713,0.0161 0.334748,0.0412 0.444159,0.11855 0.109213,0.0841 0.353278,0.20274 0.448396,0.37575 0.09386,0.17543 0.09386,0.25286 0.07957,0.61278 -0.01111,0.35988 -0.01111,0.74746 0.0551,0.86781 0.06793,0.12089 0.06793,0.40068 -0.04078,0.50325 -0.104982,0.10781 -0.421202,0.28253 -0.581271,0.28253 -0.16355,0 -0.190743,0.0524 -0.190743,0.14835 0,0.0915 -0.05262,0.37125 -0.02713,0.45112 0.02713,0.0823 0.02713,0.18907 0.188972,0.25505 0.163551,0.0662 0.784852,0.45113 0.989887,0.67881 0.202569,0.2254 0.566977,0.54424 0.596638,0.62633 0.02542,0.0798 -0.05439,0.13218 -0.05439,0.13218 0,0 0,0.096 0.108711,0.26894 0.104983,0.17561 0.392299,0.69011 0.487166,1.05472 0.09341,0.35968 0.403431,1.36023 0.403431,1.55797 0,0.19851 0.205034,0.92246 0.205034,1.02505 0,0.10709 -0.121045,0.0823 -0.121045,0.0823 0,0 0.07981,0.31888 0.07981,0.46721 0,0.14582 -0.0138,0.2526 -0.134132,0.31884 -0.122747,0.066 -0.122747,0.17309 -0.2574,0.17309 -0.136606,0 -0.09588,-0.0662 -0.229764,-0.13219 -0.134652,-0.0662 -0.259423,-0.096 -0.229763,-0.21381 0.02473,-0.12108 0.01111,-0.45112 0.01111,-0.52231 0,-0.066 -0.0255,-0.13148 -0.07981,-0.13148 -0.05484,0 -0.188971,-0.0662 -0.188971,-0.26452 0,-0.20268 -0.07038,-0.62904 -0.109213,-0.77243 -0.04073,-0.14996 0.02524,-0.40118 -0.04073,-0.52154 -0.06867,-0.12072 -0.608466,-0.73587 -0.706049,-0.90913 -0.09144,-0.17308 -0.175437,-0.0108 -0.175437,0.0823 0,0.0909 0.01613,0.95912 0.09588,1.12098 0.07957,0.15695 0,0.37081 0.152418,0.69011 0.145785,0.32088 0.484951,1.72161 0.539783,1.92011 0.05014,0.20073 0.202568,0.51047 0.213698,0.80212 0.01362,0.29342 0.163802,0.71978 -0.229762,0.70814 -0.391542,-0.0181 -0.608212,0.14332 -0.960986,0.0253 -0.352518,-0.12089 -0.378006,0 -0.366116,0.1478 0.01362,0.14386 0.06793,0.6765 0.163551,0.92937 0.09335,0.25508 -0.120345,1.04112 0.01362,1.31005 0.134652,0.2645 0.298383,0.31442 0.339174,0.39675 0.05484,0.10672 0.09386,0.37567 -0.150212,0.80136 -0.243361,0.42637 -0.985712,0.62904 -1.120358,0.1866 -0.138829,-0.43675 0.02542,-0.52154 0.121044,-0.66493 0.0934,-0.14995 0.0934,-0.34847 -0.07091,-0.49185 -0.159301,-0.14834 -0.486656,-0.94968 -0.555338,-1.13706 -0.06595,-0.18659 -0.378008,-1.14564 -0.443968,-1.34585 -0.06793,-0.20071 -0.175384,-0.36017 -0.284851,-0.1322 -0.10916,0.22565 -0.366117,0.75833 -0.322858,0.99985 0.03631,0.23926 0.104228,0.47826 0.104228,0.70643 0,0.22788 -0.122747,1.1074 -0.202569,1.34639 -0.07957,0.23925 0,0.30525 0.04326,0.45553 0.03655,0.14331 0.244057,0.4375 0.0551,0.569 -0.19346,0.13722 -1.234006,0.54951 -1.39825,0.60387 -0.159372,0.0499 -0.391603,-0.22737 -0.286618,-0.50794 0.109213,-0.28253 0.461993,-0.49185 0.516825,-0.59892 0.05439,-0.10673 0.05439,-0.15085 -0.02517,-0.42638 -0.08398,-0.27981 -0.150194,-1.50779 -0.09588,-1.6944 0.0551,-0.18718 0.09588,-0.53318 -0.07957,-0.65385 -0.177337,-0.11856 -0.218633,-0.49433 -0.177337,-0.69259 0.03826,-0.19848 0.134132,-0.85645 0.109411,-0.95904 -0.02965,-0.10708 0.02473,-0.22817 -0.150715,-0.28253 -0.177337,-0.0524 -1.028909,-0.47832 -1.095126,-0.75882 -0.06793,-0.2823 0,-0.53269 0.214395,-0.80137 0.218697,-0.2645 1.031438,-1.50608 1.204347,-2.08002 0.175437,-0.57419 0.338985,-1.28042 0.338985,-1.68084 0,-0.39671 0.02966,-0.67898 -0.109213,-0.74525 -0.134131,-0.066 -1.582289,-0.76085 -1.837476,-0.74723 -0.259425,0.0108 -1.208583,-0.52155 -1.356825,-0.71981 -0.145714,-0.20267 -0.364346,-0.34599 -0.662792,-1.37136 -0.297688,-1.02972 -0.229763,-1.08187 -0.473061,-1.09573 -0.243868,-0.0108 -0.826404,-0.21431 -0.99071,-0.53318 -0.159301,-0.32081 0.193461,-0.71978 -0.122746,-0.61474 -0.309517,0.10709 -0.334751,0.20275 -0.553383,-0.17076 -0.213698,-0.37594 -1.381995,-3.05269 -1.732491,-4.2144 -0.353088,-1.16179 -0.337025,-0.53293 -0.337025,-0.33494 0,0.20269 0.12307,1.43041 0.214205,1.68105 0.09783,0.25313 0.08424,0.62412 0.109213,1.01372 0.02492,0.38733 0.163802,1.74731 0.272959,2.28024 0.104982,0.53338 -0.09537,0.37149 -0.272959,0.43971 -0.175436,0.0662 -0.218632,0.20047 -0.200355,0.30993 0.01129,0.1026 -0.218632,1.9822 -0.261891,2.37124 -0.03655,0.3851 -0.377942,2.54498 -0.418987,2.73134 -0.03877,0.1866 -0.03877,0.28006 0,0.45552 0.04104,0.1731 0.637619,3.49272 0.637619,3.81328 0,0.31886 0.286811,1.62473 0.298195,1.82741 0.01362,0.19774 -0.04098,0.18661 -0.07957,0.30525 -0.04098,0.12036 0.02499,0.16109 0.09315,0.33492 0.06621,0.1731 0.350559,0.23902 0.309768,0.57148 -0.03877,0.33493 -0.200356,0.41233 -0.377944,0.64026 -0.175436,0.22735 -0.54206,1.25067 -1.163616,1.54437 -0.623772,0.29411 -1.110936,0.12519 -1.220411,-0.1688 -0.10916,-0.29342 -0.05457,-0.72422 0.309831,-0.86762 0,0 0.193651,-0.10691 0.218633,-0.2143 0.02965,-0.10942 0,-0.25287 -0.145785,-0.26648 -0.152668,-0.0161 -0.177589,-0.48249 -0.341642,-1.57378 -0.161328,-1.09378 -0.430119,-2.30568 -0.594174,-2.87967 -0.163801,-0.57419 -0.772011,-3.06627 -0.840189,-3.25287 -0.06594,-0.18661 -0.120793,-0.72005 -0.07957,-1.05498 0.03859,-0.33494 -0.04123,-2.57365 -0.273464,-1.57381 -0.229763,0.99988 -0.705545,2.63992 -0.796741,2.94763 -0.09555,0.30526 -0.122748,0.47833 -0.122748,0.61501 0,0.1322 0.134384,5.03928 0.05459,7.31951 0,0 0.01362,0.1322 -0.107205,0.14332 -0.12275,0.0185 0.06621,0.25761 0.09115,0.37822 0.02965,0.11857 0.243613,0.57394 -0.120794,0.73093 -0.366369,0.15946 -0.919499,0.22564 -1.297441,0.44193 -0.382687,0.21008 -1.368399,0.42636 -1.976358,0.19826 -0.61245,-0.22742 0.01129,-1.18647 0.906406,-1.13212 0,0 0.363902,-0.0407 0.0657,-0.12036 0,0 -0.120597,-0.0125 -0.108961,-0.29412 0.01362,-0.28006 0.01362,-4.30544 -0.132179,-5.93435 -0.152668,-1.6289 -0.396219,-3.43752 -0.02967,-5.07757 0.364408,-1.64249 0.48944,-3.48054 0.259677,-3.52154 -0.230016,-0.0412 -0.517079,-0.0662 -0.462246,-0.46744 0.05464,-0.40067 0.323172,-2.69477 0.446183,-3.4143 0.120794,-0.71785 0.527957,-1.34663 0.502975,-1.76117 -0.02967,-0.41232 -0.0432,-2.41222 -0.39622,-1.73122 -0.350369,0.67872 -0.57811,0.98398 -0.594173,1.8405 -0.01362,0.84976 -0.31179,2.31681 -0.421202,2.66534 -0.104533,0.34626 -0.309325,1.72206 -0.323173,2.09585 -0.01166,0.37124 -0.200544,0.17327 -0.339175,0.15964 -0.1344,-0.0161 -0.309768,-0.13686 -0.353026,0.0907 -0.03631,0.22813 0.05484,0.22813 0.0981,0.44219 0.04098,0.2116 0.145785,0.62412 -0.243866,0.93165 -0.395968,0.30968 -0.516764,0.64018 -1.069953,0.57394 -0.555595,-0.066 -0.719395,-0.53293 -0.664752,-1.03865 0.05459,-0.50794 0.202569,-0.85451 0.391541,-1.04086 0.193715,-0.18466 0.125275,-0.26894 0.01613,-0.30552 -0.109412,-0.0411 -0.353027,0.0108 -0.328046,-0.30974 0.02959,-0.31887 0.437265,-3.09146 0.487418,-3.74525 0.05457,-0.65132 -0.01129,-2.14805 0.316471,-3.06581 0.320896,-0.92052 0.972113,-3.37622 1.136105,-4.54737 0.159375,-1.17312 0.796741,-1.86772 1.193026,-2.09312 0.389326,-0.22793 2.950434,-1.17558 3.084827,-1.30759 0.132176,-0.13451 0.339427,-0.38757 0.175382,-0.71782 -0.164,-0.33468 -0.473567,-0.72423 -0.473567,-1.20254 0,-0.48073 0.05458,-0.90444 -0.109411,-0.9729 -0.159373,-0.0686 -0.4212,-0.18908 -0.446182,-0.25483 v 0"
       sodipodi:nodetypes="ccccccsccscccccccccccccccccccccscsccccsccccccccsscccccccsscscsccssscccsccccccccccccccccccscccccccccccccccscccccccccsccccccccsccccccccccccccccsccccccccccccccccccccccccccccccccccsccc" />
  </g>
</svg>
