<?xml version="1.0" encoding="UTF-8" standalone="no"?>
<!-- Created with Inkscape (http://www.inkscape.org/) -->

<svg
   xmlns:dc="http://purl.org/dc/elements/1.1/"
   xmlns:cc="http://creativecommons.org/ns#"
   xmlns:rdf="http://www.w3.org/1999/02/22-rdf-syntax-ns#"
   xmlns:svg="http://www.w3.org/2000/svg"
   xmlns="http://www.w3.org/2000/svg"
   xmlns:sodipodi="http://sodipodi.sourceforge.net/DTD/sodipodi-0.dtd"
   xmlns:inkscape="http://www.inkscape.org/namespaces/inkscape"
   width="61.599998mm"
   height="61.599998mm"
   viewBox="0 0 61.599998 61.599998"
   version="1.1"
   id="svg8"
   inkscape:version="0.92.2 (5c3e80d, 2017-08-06)"
   sodipodi:docname="11.svg">
  <defs
     id="defs2" />
  <sodipodi:namedview
     id="base"
     pagecolor="#ffffff"
     bordercolor="#666666"
     borderopacity="1.0"
     inkscape:pageopacity="0.0"
     inkscape:pageshadow="2"
     inkscape:zoom="1.979899"
     inkscape:cx="152.93677"
     inkscape:cy="94.620642"
     inkscape:document-units="mm"
     inkscape:current-layer="layer1"
     showgrid="false"
     inkscape:window-width="1920"
     inkscape:window-height="1057"
     inkscape:window-x="-8"
     inkscape:window-y="-8"
     inkscape:window-maximized="1" />
  <metadata
     id="metadata5">
    <rdf:RDF>
      <cc:Work
         rdf:about="">
        <dc:format>image/svg+xml</dc:format>
        <dc:type
           rdf:resource="http://purl.org/dc/dcmitype/StillImage" />
        <dc:title></dc:title>
      </cc:Work>
    </rdf:RDF>
  </metadata>
  <g
     inkscape:label="Layer 1"
     inkscape:groupmode="layer"
     id="layer1"
     transform="translate(0,-235.4)">
    <circle
       style="opacity:1;fill:#000000;fill-opacity:1;fill-rule:nonzero;stroke:none;stroke-width:0.20635015;stroke-linecap:square;stroke-linejoin:round;stroke-miterlimit:4;stroke-dasharray:none;stroke-opacity:1;paint-order:stroke fill markers"
       id="path815"
       cx="30.799999"
       cy="266.20001"
       r="30.299999" />
    <circle
       r="30"
       cy="266.20001"
       cx="30.799999"
       id="circle819"
       style="opacity:1;fill:#ffffff;fill-opacity:1;fill-rule:nonzero;stroke:none;stroke-width:0.20430708;stroke-linecap:square;stroke-linejoin:round;stroke-miterlimit:4;stroke-dasharray:none;stroke-opacity:1;paint-order:stroke fill markers" />
    <circle
       style="opacity:1;fill:#003c82;fill-opacity:1;fill-rule:nonzero;stroke:none;stroke-width:0.19068664;stroke-linecap:square;stroke-linejoin:round;stroke-miterlimit:4;stroke-dasharray:none;stroke-opacity:1;paint-order:stroke fill markers"
       id="circle821"
       cx="30.799999"
       cy="266.20001"
       r="28" />
    <path
       inkscape:connector-curvature="0"
       id="path20"
       style="fill:#ffffff;fill-opacity:1;fill-rule:nonzero;stroke:none;stroke-width:0.06658908"
       d="m 23.330316,248.61675 c 0,0 -0.740585,-0.74361 0.129751,-0.87084 0.869863,-0.12461 0.780928,0 0.965522,-0.63046 0.187003,-0.63071 0.385905,-0.94004 0.685199,-0.91379 0.30216,0.0312 1.069305,0.0866 1.282527,0.10095 0.215284,0.0114 0.843302,-0.0839 0.984761,0 0.141469,0.0815 0.429039,0.1941 0.429039,0.50343 0,0.30939 -0.102974,1.26116 0.115165,1.36214 0.210694,0.10063 0.651715,0.28283 0.593934,0.57524 -0.05745,0.29508 -0.210894,0.28283 -0.510189,0.28283 -0.301892,0 -0.486489,0.0697 -0.469582,0.2521 0.01415,0.18219 0.14145,0.49152 0.129203,0.82484 -0.01897,0.34062 -0.275662,1.02882 -0.500799,1.35015 -0.227802,0.32131 -0.127221,0.44802 -0.114957,0.56098 0.01434,0.11252 0.155508,0.20841 0.27067,0.30932 0.114957,0.0984 2.137811,1.38578 2.451419,1.61401 0.314073,0.22532 0.858081,0.52006 0.954073,1.52966 0.102975,1.00978 0.01434,1.61393 0.25636,2.10543 0.242377,0.49151 0.414528,1.81016 0.570565,2.85093 0.158112,1.03369 0.287314,1.909 0.299762,2.21808 0.01434,0.30938 0.25616,0.81315 0.313342,0.95202 0.05778,0.13916 1.282527,2.71225 1.555594,3.10304 0,0 0.141184,0.23965 0.02598,0.3094 -0.114371,0.0693 -0.172153,0.22532 0.03121,0.29481 0.198908,0.0695 0.397887,0.40512 0.481831,0.56117 0.08894,0.15086 0.215815,0.51781 0.114956,0.71452 -0.102712,0.19903 -0.371059,0.41969 -0.155244,0.6593 0.213222,0.23992 0.366665,0.36688 0.512785,0.58782 0.141185,0.22765 0.627482,0.99965 0.685198,1.16539 0.05278,0.16993 0.179399,0.3257 0.352353,0.35255 0.172416,0.0257 0.800364,0.10064 1.099925,0.2087 0.297233,0.11441 0.737988,0.3668 0.95647,0.3668 0.210625,0 0.581684,0 0.939228,0.11272 0.354415,0.11234 0.371325,0.0114 0.371325,-0.10106 0,-0.108 0.02649,-0.23465 -0.126884,-0.29008 -0.160431,-0.0579 -0.48682,-0.1705 -0.589537,-0.40983 -0.09621,-0.23987 -0.311478,-0.60469 -0.170284,-1.05295 0,0 -0.141186,-0.67369 0.100575,-1.02126 0.241847,-0.35255 0.685199,-0.60441 0.838644,-0.60441 0.160697,0 0.371856,0.11273 0.544271,0.055 0.172152,-0.055 0.241846,-0.12462 0.429039,-0.055 0.184662,0.0695 0.409601,0.19411 0.570034,0.20837 0.153376,0.017 0.352352,0.0434 0.467517,0.12479 0.114956,0.0885 0.371856,0.21341 0.471977,0.39553 0.0988,0.18466 0.0988,0.26617 0.08376,0.64503 -0.01169,0.37882 -0.01169,0.7868 0.058,0.91349 0.07151,0.12725 0.07151,0.42176 -0.04293,0.52973 -0.110502,0.11349 -0.443352,0.2974 -0.611839,0.2974 -0.172151,0 -0.200774,0.0552 -0.200774,0.15616 0,0.0963 -0.05539,0.39079 -0.02856,0.47487 0.02856,0.0866 0.02856,0.19902 0.19891,0.26847 0.172152,0.0697 0.826127,0.47487 1.041944,0.71454 0.213222,0.23726 0.596794,0.57288 0.628016,0.65929 0.02676,0.084 -0.05725,0.13915 -0.05725,0.13915 0,0 0,0.10106 0.114428,0.28309 0.110504,0.18485 0.41293,0.72643 0.512786,1.11023 0.09833,0.37862 0.424647,1.43182 0.424647,1.63998 0,0.20895 0.215817,0.971 0.215817,1.07899 0,0.11273 -0.127411,0.0866 -0.127411,0.0866 0,0 0.08401,0.33565 0.08401,0.49179 0,0.15349 -0.01453,0.2659 -0.141186,0.33562 -0.129201,0.0695 -0.129201,0.1822 -0.270935,0.1822 -0.14379,0 -0.100923,-0.0697 -0.241848,-0.13914 -0.141733,-0.0697 -0.273065,-0.10105 -0.241846,-0.22507 0.02603,-0.12746 0.01169,-0.47487 0.01169,-0.5498 0,-0.0695 -0.02684,-0.13839 -0.08401,-0.13839 -0.05773,0 -0.198908,-0.0697 -0.198908,-0.27845 0,-0.21335 -0.07409,-0.66216 -0.114957,-0.81308 -0.04287,-0.15787 0.02657,-0.4223 -0.04287,-0.549 -0.07229,-0.12707 -0.640465,-0.7746 -0.743179,-0.95698 -0.09625,-0.18219 -0.184664,-0.0114 -0.184664,0.0866 0,0.0957 0.01698,1.00961 0.100922,1.17998 0.08376,0.16522 0,0.39034 0.160434,0.72643 0.153452,0.33777 0.510455,1.81223 0.56817,2.02117 0.05278,0.2113 0.21322,0.53734 0.224936,0.84434 0.01434,0.30887 0.172417,0.75767 -0.241845,0.74543 -0.412132,-0.0191 -0.640197,0.15085 -1.011523,0.0266 -0.371058,-0.12726 -0.397885,0 -0.38537,0.15558 0.01434,0.15143 0.07151,0.7121 0.172152,0.97828 0.09826,0.26851 -0.126674,1.09592 0.01434,1.37901 0.141733,0.27842 0.314075,0.33096 0.357011,0.41763 0.05773,0.11234 0.0988,0.39544 -0.158111,0.84354 -0.256159,0.44881 -1.037551,0.66215 -1.179278,0.19642 -0.146129,-0.45974 0.02676,-0.54899 0.12741,-0.69993 0.09832,-0.15784 0.09832,-0.36681 -0.07464,-0.51774 -0.167679,-0.15615 -0.512249,-0.99966 -0.584543,-1.19691 -0.06942,-0.19641 -0.397887,-1.20593 -0.467315,-1.41668 -0.07151,-0.21128 -0.184608,-0.37913 -0.299832,-0.13916 -0.114901,0.23753 -0.385371,0.79824 -0.339836,1.05248 0.03822,0.25185 0.109709,0.50343 0.109709,0.74361 0,0.23987 -0.129203,1.16568 -0.213222,1.41725 -0.08376,0.25185 0,0.32132 0.04554,0.47951 0.03847,0.15085 0.256891,0.46053 0.058,0.59895 -0.203635,0.14444 -1.298902,0.57843 -1.471783,0.63565 -0.167754,0.0525 -0.412198,-0.23934 -0.301692,-0.53467 0.114956,-0.2974 0.486289,-0.51774 0.544004,-0.63045 0.05725,-0.11234 0.05725,-0.15879 -0.02649,-0.44882 -0.0884,-0.29454 -0.158093,-1.58715 -0.100922,-1.78358 0.058,-0.19703 0.100922,-0.56124 -0.08376,-0.68827 -0.186663,-0.1248 -0.230129,-0.52034 -0.186663,-0.72904 0.04027,-0.20893 0.141187,-0.90153 0.115165,-1.00952 -0.03121,-0.11271 0.02603,-0.24018 -0.158641,-0.2974 -0.186663,-0.0552 -1.083017,-0.50349 -1.152716,-0.79876 -0.07151,-0.29716 0,-0.56072 0.225668,-0.84355 0.230199,-0.27842 1.085681,-1.58535 1.267683,-2.1895 0.184663,-0.60441 0.356812,-1.34781 0.356812,-1.7693 0,-0.41759 0.03122,-0.71472 -0.114956,-0.78448 -0.141186,-0.0695 -1.665501,-0.8009 -1.934108,-0.78656 -0.273069,0.0114 -1.27214,-0.549 -1.42818,-0.75769 -0.153376,-0.21334 -0.383507,-0.36421 -0.697648,-1.44354 -0.313342,-1.08392 -0.241845,-1.13882 -0.497939,-1.15341 -0.256693,-0.0114 -0.869864,-0.22559 -1.042811,-0.56124 -0.167678,-0.3377 0.203637,-0.75766 -0.1292,-0.6471 -0.325794,0.11273 -0.352355,0.21343 -0.582486,-0.17974 -0.224935,-0.39573 -1.454672,-3.21337 -1.823601,-4.43622 -0.371656,-1.22294 -0.35475,-0.56098 -0.35475,-0.35257 0,0.21336 0.129544,1.5057 0.225471,1.76953 0.102975,0.26645 0.08867,0.65697 0.114957,1.06707 0.02623,0.40772 0.172416,1.83928 0.287314,2.40026 0.110502,0.56145 -0.100386,0.39104 -0.287314,0.46285 -0.184663,0.0697 -0.23013,0.21103 -0.210893,0.32625 0.01188,0.108 -0.230129,2.08653 -0.275663,2.49604 -0.03847,0.40537 -0.397817,2.67894 -0.441021,2.8751 -0.04081,0.19643 -0.04081,0.29481 0,0.4795 0.0432,0.18221 0.671151,3.67657 0.671151,4.01399 0,0.33564 0.301894,1.71024 0.313877,1.92359 0.01434,0.20815 -0.04314,0.19644 -0.08376,0.32132 -0.04314,0.12669 0.02631,0.16957 0.09805,0.35255 0.0697,0.18221 0.368993,0.2516 0.326059,0.60155 -0.04081,0.35256 -0.210893,0.43405 -0.39782,0.67396 -0.184662,0.23932 -0.570567,1.3165 -1.22481,1.62566 -0.656576,0.30959 -1.169359,0.13178 -1.284591,-0.17767 -0.114902,-0.30888 -0.05744,-0.76235 0.326124,-0.9133 0,0 0.203835,-0.11254 0.230131,-0.22558 0.03121,-0.11517 0,-0.26618 -0.153451,-0.28051 -0.160698,-0.0169 -0.186929,-0.50788 -0.359609,-1.6566 -0.169813,-1.15135 -0.452739,-2.42704 -0.625422,-3.03124 -0.172415,-0.60442 -0.812611,-3.22767 -0.884374,-3.42409 -0.06941,-0.19642 -0.127145,-0.75795 -0.08376,-1.11051 0.04062,-0.35257 -0.0434,-2.70911 -0.287845,-1.65664 -0.241847,1.05251 -0.74265,2.77887 -0.838642,3.10277 -0.100574,0.32134 -0.129203,0.50351 -0.129203,0.64739 0,0.13915 0.141452,5.30451 0.05746,7.70477 0,0 0.01434,0.13914 -0.112843,0.15086 -0.129205,0.0195 0.06969,0.27116 0.09595,0.39812 0.03121,0.12481 0.256424,0.60415 -0.127146,0.7694 -0.385636,0.16785 -0.967856,0.23751 -1.365673,0.4652 -0.402812,0.22113 -1.440362,0.4488 -2.080293,0.20869 -0.644659,-0.23939 0.01188,-1.24892 0.954073,-1.1917 0,0 0.383039,-0.0428 0.06916,-0.12671 0,0 -0.126939,-0.0132 -0.114692,-0.3096 0.01434,-0.2948 0.01434,-4.53205 -0.13913,-6.2467 -0.160696,-1.71462 -0.417055,-3.61843 -0.03123,-5.34482 0.383571,-1.72894 0.515179,-3.66373 0.273332,-3.70689 -0.242112,-0.0434 -0.544271,-0.0697 -0.486554,-0.49204 0.05752,-0.42176 0.340166,-2.83661 0.469647,-3.59401 0.127146,-0.75563 0.555721,-1.41751 0.529425,-1.85387 -0.03123,-0.43402 -0.04547,-2.53918 -0.417056,-1.82234 -0.368794,0.71445 -0.608513,1.03577 -0.625421,1.93738 -0.01434,0.89448 -0.328186,2.43875 -0.443352,2.80562 -0.11003,0.36449 -0.325592,1.8127 -0.340169,2.20616 -0.01227,0.39078 -0.21109,0.18239 -0.357012,0.16805 -0.141468,-0.0169 -0.326058,-0.14407 -0.371591,0.0955 -0.03822,0.24014 0.05773,0.24014 0.103259,0.46547 0.04314,0.22273 0.153452,0.65697 -0.25669,0.98068 -0.416792,0.32598 -0.54394,0.67388 -1.126222,0.60415 -0.584813,-0.0695 -0.757227,-0.56098 -0.69971,-1.09332 0.05746,-0.53467 0.213222,-0.89948 0.412131,-1.09564 0.203903,-0.19438 0.131864,-0.2831 0.01698,-0.3216 -0.115166,-0.0433 -0.371592,0.0114 -0.345297,-0.32605 0.03115,-0.33565 0.460261,-3.25417 0.51305,-3.94237 0.05744,-0.6856 -0.01188,-2.26111 0.333115,-3.22718 0.337771,-0.96897 1.023235,-3.55392 1.195852,-4.78671 0.167756,-1.23487 0.838641,-1.96603 1.255766,-2.20329 0.409801,-0.23993 3.105595,-1.23746 3.247056,-1.37641 0.139127,-0.14159 0.357277,-0.40797 0.184605,-0.7556 -0.172624,-0.3523 -0.498472,-0.76235 -0.498472,-1.26584 0,-0.50603 0.05745,-0.95204 -0.115164,-1.02411 -0.167755,-0.0722 -0.443351,-0.19903 -0.469646,-0.26824 v 0"
       sodipodi:nodetypes="ccccccsccscccccccccccccccccccccscsccccsccccccccsscccccccsscscsccssscccsccccccccccccccccccscccccccccccccccscccccccccsccccccccsccccccccccccccccsccccccccccccccccccccccccccccccccccsccc" />
  </g>
</svg>
