<?xml version="1.0" encoding="UTF-8" standalone="no"?>
<!-- Created with Inkscape (http://www.inkscape.org/) -->

<svg
   xmlns:dc="http://purl.org/dc/elements/1.1/"
   xmlns:cc="http://creativecommons.org/ns#"
   xmlns:rdf="http://www.w3.org/1999/02/22-rdf-syntax-ns#"
   xmlns:svg="http://www.w3.org/2000/svg"
   xmlns="http://www.w3.org/2000/svg"
   xmlns:sodipodi="http://sodipodi.sourceforge.net/DTD/sodipodi-0.dtd"
   xmlns:inkscape="http://www.inkscape.org/namespaces/inkscape"
   width="83.372002mm"
   height="83.372002mm"
   viewBox="0 0 83.372002 83.372002"
   version="1.1"
   id="svg8"
   inkscape:version="0.92.2 (5c3e80d, 2017-08-06)"
   sodipodi:docname="94.svg">
  <defs
     id="defs2" />
  <sodipodi:namedview
     id="base"
     pagecolor="#ffffff"
     bordercolor="#666666"
     borderopacity="1.0"
     inkscape:pageopacity="0.0"
     inkscape:pageshadow="2"
     inkscape:zoom="1.0543933"
     inkscape:cx="96.15909"
     inkscape:cy="51.051183"
     inkscape:document-units="mm"
     inkscape:current-layer="layer1"
     showgrid="false"
     fit-margin-top="0"
     fit-margin-left="0"
     fit-margin-right="0"
     fit-margin-bottom="0"
     inkscape:window-width="1920"
     inkscape:window-height="1057"
     inkscape:window-x="-8"
     inkscape:window-y="-8"
     inkscape:window-maximized="1"
     inkscape:snap-global="true"
     showguides="false" />
  <metadata
     id="metadata5">
    <rdf:RDF>
      <cc:Work
         rdf:about="">
        <dc:format>image/svg+xml</dc:format>
        <dc:type
           rdf:resource="http://purl.org/dc/dcmitype/StillImage" />
        <dc:title></dc:title>
      </cc:Work>
    </rdf:RDF>
  </metadata>
  <g
     inkscape:label="Layer 1"
     inkscape:groupmode="layer"
     id="layer1"
     transform="translate(-34.093563,-213.62759)">
    <rect
       style="opacity:1;fill:#000000;fill-opacity:1;fill-rule:nonzero;stroke:none;stroke-width:21.49853706;stroke-linecap:square;stroke-linejoin:round;stroke-miterlimit:4;stroke-dasharray:none;stroke-opacity:1;paint-order:stroke fill markers"
       id="rect815"
       width="60"
       height="60"
       x="-264.11819"
       y="96.949608"
       rx="3.0009999"
       ry="3.0009999"
       transform="matrix(-0.70710678,-0.70710678,-0.70710678,0.70710678,0,0)" />
    <rect
       ry="1.5"
       rx="1.5"
       y="98.449608"
       x="-262.61823"
       height="57"
       width="57"
       id="rect817"
       style="opacity:1;fill:#fad20a;fill-opacity:1;fill-rule:nonzero;stroke:none;stroke-width:20.42361069;stroke-linecap:square;stroke-linejoin:round;stroke-miterlimit:4;stroke-dasharray:none;stroke-opacity:1;paint-order:stroke fill markers"
       transform="matrix(-0.70710678,-0.70710678,-0.70710678,0.70710678,0,0)" />
    <path
       sodipodi:nodetypes="ccccccccccccccccccccc"
       inkscape:connector-curvature="0"
       id="path5048"
       d="m 73.292738,236.87714 c -2.174841,-0.99847 -4.00812,-0.99815 -6.716691,2.07604 -2.782174,-0.19171 -5.116378,2.14544 -6.337825,4.15037 l 26.28291,12.25589 1.817289,-3.89708 c 0.672511,-1.45639 0.187778,-2.10031 -0.60485,-2.48881 l -5.43785,-2.5357 -0.677943,-4.50898 c -0.098,-0.62794 -0.409208,-1.35636 -1.255851,-1.75531 z m 2.384529,2.45821 -1.538345,3.29892 -5.52847,-2.57794 1.690969,-1.96995 c 0.594281,-0.71447 1.107778,-0.70369 2.294389,-0.18798 z m 0.996913,0.46486 3.625231,1.69049 0.636829,4.31323 -5.80038,-2.70475 z"
       style="fill:#000000;fill-opacity:1;fill-rule:nonzero;stroke:none;stroke-width:0.72893918" />
    <circle
       cy="194.86877"
       cx="163.8344"
       id="circle5050"
       style="opacity:1;fill:#fad20a;fill-opacity:1;fill-rule:nonzero;stroke:none;stroke-width:9.88638592;stroke-linecap:square;stroke-linejoin:round;stroke-miterlimit:4;stroke-dasharray:none;stroke-opacity:1;paint-order:stroke fill markers"
       r="3.4000001"
       transform="rotate(25)" />
    <circle
       style="opacity:1;fill:#000000;fill-opacity:1;fill-rule:nonzero;stroke:none;stroke-width:7.85095358;stroke-linecap:square;stroke-linejoin:round;stroke-miterlimit:4;stroke-dasharray:none;stroke-opacity:1;paint-order:stroke fill markers"
       id="circle5052"
       cx="163.8344"
       cy="194.86877"
       r="2.7"
       transform="rotate(25)" />
    <circle
       style="opacity:1;fill:#fad20a;fill-opacity:1;fill-rule:nonzero;stroke:none;stroke-width:3.05314898;stroke-linecap:square;stroke-linejoin:round;stroke-miterlimit:4;stroke-dasharray:none;stroke-opacity:1;paint-order:stroke fill markers"
       id="circle5054"
       cx="163.8344"
       cy="194.86877"
       r="1.05"
       transform="rotate(25)" />
    <circle
       style="opacity:1;fill:#fad20a;fill-opacity:1;fill-rule:nonzero;stroke:none;stroke-width:9.88638592;stroke-linecap:square;stroke-linejoin:round;stroke-miterlimit:4;stroke-dasharray:none;stroke-opacity:1;paint-order:stroke fill markers"
       id="circle5056"
       cx="181.93443"
       cy="194.86877"
       r="3.4000001"
       transform="rotate(25)" />
    <circle
       cy="194.86877"
       cx="181.93443"
       id="circle5058"
       style="opacity:1;fill:#000000;fill-opacity:1;fill-rule:nonzero;stroke:none;stroke-width:7.85095358;stroke-linecap:square;stroke-linejoin:round;stroke-miterlimit:4;stroke-dasharray:none;stroke-opacity:1;paint-order:stroke fill markers"
       r="2.7"
       transform="rotate(25)" />
    <circle
       cy="194.86877"
       cx="181.93443"
       id="circle5060"
       style="opacity:1;fill:#fad20a;fill-opacity:1;fill-rule:nonzero;stroke:none;stroke-width:3.05314898;stroke-linecap:square;stroke-linejoin:round;stroke-miterlimit:4;stroke-dasharray:none;stroke-opacity:1;paint-order:stroke fill markers"
       r="1.05"
       transform="rotate(25)" />
    <path
       style="clip-rule:evenodd;fill:#000000;fill-opacity:1;fill-rule:nonzero;stroke:none;stroke-width:0.13457936"
       d="m 108.84796,259.29793 -2.39232,2.39232 c -0.088,0.004 -0.17467,0.01 -0.2704,0.01 -2.20221,0 -2.2781,-1.22638 -3.94969,-1.30048 -1.67159,0.074 -1.74857,1.30012 -3.950783,1.30012 -2.20221,-10e-6 -2.279173,-1.22612 -3.950781,-1.30012 -1.671592,0.0741 -1.747108,1.30011 -3.949328,1.30012 -2.202433,-10e-6 -2.277552,-1.22576 -3.949685,-1.29976 -1.67212,0.0738 -1.747984,1.29976 -3.950423,1.29976 -2.202255,0 -2.278393,-1.22612 -3.950059,-1.30012 -1.671659,0.0741 -1.747804,1.30011 -3.95005,1.30012 -2.20245,0 -2.277943,-1.22632 -3.950058,-1.30012 -1.672155,0.074 -1.747249,1.30048 -3.949694,1.30049 -2.202446,-2e-5 -2.278286,-1.22669 -3.950415,-1.30049 l 3.6e-4,1.30049 c 2.202446,-1e-5 2.202306,1.30012 3.950059,1.30012 1.747721,-5e-5 1.747239,-1.30049 3.949694,-1.30049 2.202425,0 2.202305,1.30012 3.950058,1.30012 1.7476,-3e-5 1.748099,-1.29996 3.95005,-1.30012 2.201966,1.6e-4 2.202792,1.30048 3.950422,1.30048 1.747748,1e-5 1.747615,-1.30011 3.950055,-1.30011 2.20244,0 2.201582,1.30012 3.949324,1.30012 1.747606,2e-5 1.747804,-1.30028 3.949693,-1.30049 2.201894,2e-4 2.203181,1.30012 3.950782,1.30012 1.747599,0 1.748899,-1.29991 3.950779,-1.30012 1.74632,1.6e-4 2.11004,0.81596 3.05664,1.15432 l -0.99135,0.99135 c -0.64167,-0.35767 -1.07758,-0.80218 -2.06565,-0.84592 -1.67159,0.074 -1.7482,1.3005 -3.950414,1.30049 -2.202225,0 -2.278825,-1.22648 -3.950427,-1.30049 -1.671607,0.074 -1.747837,1.30012 -3.950051,1.30012 -2.202445,1e-5 -2.277194,-1.22539 -3.949327,-1.29939 -1.67213,0.0738 -1.747608,1.2994 -3.950058,1.29939 -2.202235,1e-5 -2.278388,-1.22611 -3.950053,-1.30011 -1.671685,0.074 -1.748182,1.30048 -3.950422,1.30048 -2.202452,0 -2.277935,-1.22631 -3.950058,-1.30012 -1.672159,0.074 -1.747251,1.29976 -3.949684,1.29975 -2.202471,1e-5 -2.277929,-1.22632 -3.950058,-1.30012 l -3e-6,1.30013 c 2.20244,0 2.202309,1.30011 3.95006,1.30012 1.747722,-5e-5 1.74723,-1.29975 3.949689,-1.29976 2.202425,0 2.202312,1.30013 3.950058,1.30012 1.747598,-2e-5 1.748081,-1.29992 3.95005,-1.30012 2.201964,1.9e-4 2.202435,1.30011 3.950059,1.30012 1.747752,10e-6 1.747976,-1.30049 3.950417,-1.30049 2.202439,0 2.201956,1.30048 3.949691,1.30049 1.747623,10e-6 1.747793,-1.30025 3.949694,-1.30049 2.201886,2.4e-4 2.202826,1.30049 3.950416,1.30049 1.747601,0 1.748911,-1.29989 3.950781,-1.30012 0.59421,7e-5 1.02499,0.0963 1.37613,0.23459 l -1.09111,1.09111 c -0.0899,-0.0123 -0.18428,-0.0211 -0.28502,-0.0256 -1.67161,0.074 -1.74856,1.29938 -3.950776,1.29939 -2.202222,-1e-5 -2.279177,-1.22539 -3.950786,-1.29939 -1.671633,0.074 -1.747121,1.29939 -3.949335,1.29939 -2.202439,0 -2.277541,-1.22576 -3.949684,-1.29976 -1.672119,0.0738 -1.747978,1.29978 -3.950424,1.29976 -2.202241,3e-5 -2.278386,-1.22539 -3.950052,-1.29939 -1.671695,0.0739 -1.747826,1.29942 -3.950057,1.29939 -2.202448,2e-5 -2.277922,-1.22559 -3.950051,-1.29939 -1.672155,0.074 -1.747245,1.29975 -3.949695,1.29975 -2.202451,-1e-5 -2.277922,-1.22632 -3.950052,-1.30012 l -3.7e-4,1.30049 c 2.20244,0 2.202662,1.29977 3.95042,1.29976 1.747764,5e-5 1.747229,-1.29975 3.94969,-1.29976 2.202438,-10e-6 2.202316,1.30012 3.950058,1.30012 1.747609,-2e-5 1.748103,-1.29995 3.95005,-1.30012 2.20197,1.7e-4 2.202446,1.30011 3.950059,1.30012 1.74776,1e-5 1.747982,-1.30048 3.950422,-1.30048 2.20244,0 2.201944,1.30048 3.949694,1.30048 1.747612,2e-5 1.747423,-1.2999 3.94932,-1.30012 2.201886,2.1e-4 2.203192,1.30012 3.95079,1.30012 1.374523,1e-5 1.672399,-0.80209 2.806699,-1.14555 l -2.431791,2.43178 c -0.118016,0.008 -0.242312,0.0132 -0.374908,0.0132 -2.202219,10e-6 -2.279175,-1.22612 -3.950784,-1.30012 -1.671609,0.0741 -1.747478,1.30049 -3.949691,1.30048 -2.20244,0 -2.277559,-1.22575 -3.949691,-1.29975 -1.672127,0.0738 -1.747234,1.29976 -3.949696,1.29976 -2.202228,-10e-6 -2.27875,-1.22649 -3.950416,-1.30049 -1.671691,0.074 -1.747815,1.30013 -3.950054,1.30012 -2.202452,0 -2.277942,-1.22559 -3.950059,-1.29939 -1.672145,0.074 -1.747253,1.29977 -3.949687,1.29975 -2.202463,2e-5 -2.277931,-1.22631 -3.950061,-1.30011 l 6e-6,1.30011 -9.821063,-3.6e-4 -14.186182,-14.18625 5.213957,-5.21396 h 18.792913 l -3e-6,8.99999 c 2.202439,0 2.202668,1.3005 3.950428,1.30048 1.747713,-3e-5 1.747244,-1.3005 3.94968,-1.30048 2.202443,-10e-6 2.202318,1.30012 3.950059,1.30012 1.747605,-1e-5 1.748101,-1.29995 3.950063,-1.30013 2.201955,1.8e-4 2.202435,1.30011 3.950046,1.30013 1.747754,0 1.747623,-1.30013 3.950063,-1.30013 2.202444,0 2.202318,1.30013 3.950062,1.30012 1.747612,3e-5 1.747435,-1.29991 3.949323,-1.30012 2.201886,2.2e-4 2.203186,1.30012 3.950785,1.30012 1.747601,0 1.748901,-1.29991 3.950781,-1.30012 2.2019,2.2e-4 2.20172,1.30016 3.94933,1.30012 1.31647,0 1.64183,-0.73727 2.66309,-1.10134 z"
       id="path837"
       inkscape:connector-curvature="0"
       sodipodi:nodetypes="ccccccccccscccccscccsccsccccccscccsccccccccccsccccccccscccccccccsccscccscccccccccccccccccccccccsccscccc" />
  </g>
</svg>
