<?xml version="1.0" encoding="UTF-8" standalone="no"?>
<!-- Created with Inkscape (http://www.inkscape.org/) -->

<svg
   xmlns:dc="http://purl.org/dc/elements/1.1/"
   xmlns:cc="http://creativecommons.org/ns#"
   xmlns:rdf="http://www.w3.org/1999/02/22-rdf-syntax-ns#"
   xmlns:svg="http://www.w3.org/2000/svg"
   xmlns="http://www.w3.org/2000/svg"
   xmlns:sodipodi="http://sodipodi.sourceforge.net/DTD/sodipodi-0.dtd"
   xmlns:inkscape="http://www.inkscape.org/namespaces/inkscape"
   width="91mm"
   height="80.537003mm"
   viewBox="0 0 91 80.537003"
   version="1.1"
   id="svg863"
   inkscape:version="0.92.2 (5c3e80d, 2017-08-06)"
   sodipodi:docname="22.svg">
  <defs
     id="defs857" />
  <sodipodi:namedview
     id="base"
     pagecolor="#ffffff"
     bordercolor="#666666"
     borderopacity="1.0"
     inkscape:pageopacity="0.0"
     inkscape:pageshadow="2"
     inkscape:zoom="1.4"
     inkscape:cx="172.39737"
     inkscape:cy="129.97668"
     inkscape:document-units="mm"
     inkscape:current-layer="layer1"
     showgrid="false"
     inkscape:window-width="1920"
     inkscape:window-height="1057"
     inkscape:window-x="-8"
     inkscape:window-y="-8"
     inkscape:window-maximized="1" />
  <metadata
     id="metadata860">
    <rdf:RDF>
      <cc:Work
         rdf:about="">
        <dc:format>image/svg+xml</dc:format>
        <dc:type
           rdf:resource="http://purl.org/dc/dcmitype/StillImage" />
        <dc:title></dc:title>
      </cc:Work>
    </rdf:RDF>
  </metadata>
  <g
     inkscape:label="Layer 1"
     inkscape:groupmode="layer"
     id="layer1"
     transform="translate(0,-216.463)">
    <path
       inkscape:connector-curvature="0"
       id="path814"
       d="M 84.550414,290.54997 45.499941,222.91262 6.4496006,290.54992 Z"
       inkscape:transform-center-y="4.393997"
       inkscape:transform-center-x="27.135595"
       style="opacity:1;fill:none;fill-opacity:1;stroke:#dc0a14;stroke-width:11.9000721;stroke-linecap:butt;stroke-linejoin:round;stroke-miterlimit:4;stroke-dasharray:none;stroke-dashoffset:0;stroke-opacity:1"
       sodipodi:nodetypes="cccc" />
    <path
       sodipodi:nodetypes="cccc"
       inkscape:connector-curvature="0"
       id="path818"
       d="M 81.173022,288.59999 45.499989,226.81248 9.8269506,288.59995 Z"
       style="opacity:1;fill:#ffffff;fill-opacity:1;stroke:none;stroke-width:11.93114281;stroke-linecap:butt;stroke-linejoin:round;stroke-miterlimit:4;stroke-dasharray:none;stroke-dashoffset:0;stroke-opacity:1" />
    <path
       style="fill:#003c82;fill-rule:nonzero;stroke:none;stroke-width:0.22375549;fill-opacity:1"
       d="m 58.061334,271.48313 c 1.03605,-2.92751 1.622952,-5.34087 2.077012,-7.09728 0.368886,-1.48132 -0.07262,-3.49818 -1.836382,-4.69153 l -5.429625,-3.72758 c -0.05735,-0.89738 -0.870478,-2.36469 -2.835407,-3.11146 l -5.878508,-1.59233 c -1.110175,-0.27384 -2.509495,-0.34349 -3.299024,0.30457 l -3.781689,-1.37643 -1.363225,3.74543 3.745258,1.36317 c -1.052037,2.34904 -3.724337,9.45901 -4.067148,10.42291 -0.355539,0.9593 -2.880451,8.12362 -3.584345,10.59939 l -3.745259,-1.36316 -1.362992,3.74479 3.781692,1.37642 c 0.188258,1.00393 1.304968,1.85004 2.331426,2.35389 l 5.526725,2.55884 c 1.985275,0.69087 3.551307,0.0896 4.172057,-0.56097 l 6.555379,0.63461 c 2.118187,0.21957 3.752816,-1.04164 4.422404,-2.41351 0.781163,-1.63734 1.883565,-3.86308 2.97096,-6.77191 z"
       id="path2944"
       inkscape:connector-curvature="0"
       sodipodi:nodetypes="cccccccccccccccccccccc" />
    <path
       style="fill:#ffffff;fill-opacity:1;fill-rule:nonzero;stroke:none;stroke-width:0.22375551"
       d="m 52.368645,258.32878 4.971031,3.10888 c 0.816742,0.55574 1.068279,1.52317 0.925759,2.26651 l -0.826735,3.17424 c -0.334679,1.3698 -1.395073,4.48734 -1.990004,6.14403 -0.607687,1.65207 -1.800118,4.72153 -2.424875,5.98575 l -1.407278,2.96366 c -0.368573,0.66106 -1.18294,1.23981 -2.165825,1.14054 l -5.806381,-0.81377 c 2.121567,-4.54866 3.83359,-8.9635 4.917849,-11.78266 0.980283,-2.85704 2.507851,-7.33898 3.806459,-12.18718 z"
       id="path2986"
       inkscape:connector-curvature="0" />
  </g>
</svg>
