<?xml version="1.0" encoding="UTF-8" standalone="no"?>
<!-- Created with Inkscape (http://www.inkscape.org/) -->

<svg
   xmlns:dc="http://purl.org/dc/elements/1.1/"
   xmlns:cc="http://creativecommons.org/ns#"
   xmlns:rdf="http://www.w3.org/1999/02/22-rdf-syntax-ns#"
   xmlns:svg="http://www.w3.org/2000/svg"
   xmlns="http://www.w3.org/2000/svg"
   xmlns:sodipodi="http://sodipodi.sourceforge.net/DTD/sodipodi-0.dtd"
   xmlns:inkscape="http://www.inkscape.org/namespaces/inkscape"
   width="61mm"
   height="61mm"
   viewBox="0 0 61 61"
   version="1.1"
   id="svg2000"
   inkscape:version="0.92.2 (5c3e80d, 2017-08-06)"
   sodipodi:docname="11.svg">
  <defs
     id="defs1994" />
  <sodipodi:namedview
     id="base"
     pagecolor="#ffffff"
     bordercolor="#666666"
     borderopacity="1.0"
     inkscape:pageopacity="0.0"
     inkscape:pageshadow="2"
     inkscape:zoom="1.979899"
     inkscape:cx="195.25321"
     inkscape:cy="72.296927"
     inkscape:document-units="mm"
     inkscape:current-layer="layer1"
     showgrid="false"
     inkscape:window-width="1920"
     inkscape:window-height="1057"
     inkscape:window-x="-8"
     inkscape:window-y="-8"
     inkscape:window-maximized="1" />
  <metadata
     id="metadata1997">
    <rdf:RDF>
      <cc:Work
         rdf:about="">
        <dc:format>image/svg+xml</dc:format>
        <dc:type
           rdf:resource="http://purl.org/dc/dcmitype/StillImage" />
        <dc:title></dc:title>
      </cc:Work>
    </rdf:RDF>
  </metadata>
  <g
     inkscape:label="Layer 1"
     inkscape:groupmode="layer"
     id="layer1"
     transform="translate(0,-236)">
    <circle
       style="opacity:1;fill:#dc0a14;fill-opacity:1;fill-rule:nonzero;stroke:none;stroke-width:0.18410923;stroke-linecap:square;stroke-linejoin:round;stroke-miterlimit:4;stroke-dasharray:none;stroke-opacity:1;paint-order:stroke fill markers"
       id="path17"
       cx="30.500002"
       cy="266.5"
       r="30.000002" />
    <circle
       r="24"
       cy="266.5"
       cx="30.500002"
       id="circle1748"
       style="opacity:1;fill:#ffffff;fill-opacity:1;fill-rule:nonzero;stroke:none;stroke-width:0.14728737;stroke-linecap:square;stroke-linejoin:round;stroke-miterlimit:4;stroke-dasharray:none;stroke-opacity:1;paint-order:stroke fill markers" />
    <path
       style="opacity:1;fill:#000000;fill-opacity:1;fill-rule:nonzero;stroke:none;stroke-width:1.83756912;stroke-linecap:square;stroke-linejoin:round;stroke-miterlimit:4;stroke-dasharray:none;stroke-opacity:1;paint-order:stroke fill markers"
       d="m 22.752634,253.40527 v 11.20009 h 23.74738 v -11.20009 z m -6.40011,3.62106 -1.85252,4.54752 v 6.31562 h 32.00001 v -2.77899 h -24.25268 v -8.08415 z"
       id="rect841"
       inkscape:connector-curvature="0"
       sodipodi:nodetypes="ccccccccccccc" />
    <path
       sodipodi:nodetypes="ccccc"
       style="clip-rule:evenodd;fill:#ffffff;fill-opacity:1;fill-rule:evenodd;stroke:none;stroke-width:0.09725568"
       d="m 21.236844,258.28957 h -4.21052 l -1.17895,3.03158 h 5.38947 z"
       id="path869"
       inkscape:connector-curvature="0" />
    <circle
       style="opacity:1;fill:#ffffff;fill-opacity:1;fill-rule:nonzero;stroke:none;stroke-width:1.046224;stroke-linecap:square;stroke-linejoin:round;stroke-miterlimit:4;stroke-dasharray:none;stroke-opacity:1;paint-order:stroke fill markers"
       id="path889"
       cx="19.047373"
       cy="267.72104"
       r="2.7789469" />
    <circle
       r="2.5263155"
       cy="267.72104"
       cx="19.047373"
       id="circle891"
       style="opacity:1;fill:#000000;fill-opacity:1;fill-rule:nonzero;stroke:none;stroke-width:0.95111281;stroke-linecap:square;stroke-linejoin:round;stroke-miterlimit:4;stroke-dasharray:none;stroke-opacity:1;paint-order:stroke fill markers" />
    <circle
       style="opacity:1;fill:#ffffff;fill-opacity:1;fill-rule:nonzero;stroke:none;stroke-width:0.47555634;stroke-linecap:square;stroke-linejoin:round;stroke-miterlimit:4;stroke-dasharray:none;stroke-opacity:1;paint-order:stroke fill markers"
       id="circle893"
       cx="19.047373"
       cy="267.72104"
       r="1.2631577" />
    <circle
       r="2.7789469"
       cy="267.72104"
       cx="39.763153"
       id="circle895"
       style="opacity:1;fill:#ffffff;fill-opacity:1;fill-rule:nonzero;stroke:none;stroke-width:1.046224;stroke-linecap:square;stroke-linejoin:round;stroke-miterlimit:4;stroke-dasharray:none;stroke-opacity:1;paint-order:stroke fill markers" />
    <circle
       style="opacity:1;fill:#000000;fill-opacity:1;fill-rule:nonzero;stroke:none;stroke-width:0.95111281;stroke-linecap:square;stroke-linejoin:round;stroke-miterlimit:4;stroke-dasharray:none;stroke-opacity:1;paint-order:stroke fill markers"
       id="circle897"
       cx="39.763153"
       cy="267.72104"
       r="2.5263155" />
    <circle
       r="1.2631577"
       cy="267.72104"
       cx="39.763153"
       id="circle899"
       style="opacity:1;fill:#ffffff;fill-opacity:1;fill-rule:nonzero;stroke:none;stroke-width:0.47555634;stroke-linecap:square;stroke-linejoin:round;stroke-miterlimit:4;stroke-dasharray:none;stroke-opacity:1;paint-order:stroke fill markers" />
    <path
       inkscape:connector-curvature="0"
       id="path1869"
       style="fill:#000000;fill-opacity:1;fill-rule:evenodd;stroke:none;stroke-width:0.07521893"
       d="m 16.2,279.69999 -2.7,-2.7 2.7,-2.69997 v 1.2 h 5.9 V 278.5 h -5.9"
       sodipodi:nodetypes="ccccccc" />
    <path
       sodipodi:nodetypes="ccccccc"
       d="m 44.8,279.69999 2.7,-2.7 -2.7,-2.69997 v 1.2 H 38.9 V 278.5 h 5.9"
       style="fill:#000000;fill-opacity:1;fill-rule:evenodd;stroke:none;stroke-width:0.07521893"
       id="path1877"
       inkscape:connector-curvature="0" />
    <g
       aria-label="10m"
       style="font-style:normal;font-variant:normal;font-weight:normal;font-stretch:normal;font-size:8.01511478px;line-height:1.25;font-family:'DIN 1451 Mittelschrift';-inkscape-font-specification:'DIN 1451 Mittelschrift';letter-spacing:0px;word-spacing:0px;fill:#000000;fill-opacity:1;stroke:none;stroke-width:0.20037787"
       id="text1890"
       transform="translate(13.5,5.5280242)">
      <path
         d="m 12.314035,273.53675 v -4.84899 L 11.5,269.28264 v -0.86883 l 0.814035,-0.59096 h 0.821863 v 5.7139 z"
         style="fill:#000000;fill-opacity:1;stroke:none;stroke-width:0.20037787"
         id="path1910"
         inkscape:connector-curvature="0" />
      <path
         d="m 16.407692,271.8852 v -2.42254 q 0,-0.41093 -0.223076,-0.64183 -0.219164,-0.23091 -0.579218,-0.23091 -0.363967,0 -0.583131,0.23091 -0.219163,0.2309 -0.219163,0.64183 v 2.42254 q 0,0.41484 0.219163,0.64575 0.219164,0.22699 0.583131,0.22699 0.360054,0 0.579218,-0.22699 0.223076,-0.23091 0.223076,-0.64575 z m -2.422537,0.047 v -2.51646 q 0,-0.78664 0.493118,-1.21323 0.493117,-0.43054 1.127125,-0.43054 0.630095,0 1.123212,0.4305 0.497031,0.42659 0.497031,1.21323 v 2.51646 q 0,0.78664 -0.497031,1.21323 -0.493117,0.42658 -1.123212,0.42658 -0.634008,0 -1.127125,-0.42658 -0.493118,-0.42659 -0.493118,-1.21323 z"
         style="fill:#000000;fill-opacity:1;stroke:none;stroke-width:0.20037787"
         id="path1912"
         inkscape:connector-curvature="0" />
      <path
         d="m 18.495,273.57197 v -2.86686 h 0.577238 v 0.30658 h 0.01105 q 0.273429,-0.33972 0.745715,-0.33972 0.301048,0 0.47781,0.10771 0.176762,0.10772 0.331428,0.26515 0.339715,-0.37286 0.905905,-0.37286 0.334191,0 0.643525,0.25409 0.312095,0.2541 0.312095,0.7402 v 1.90571 h -0.577238 v -1.70686 q 0,-0.28999 -0.162953,-0.45295 -0.162952,-0.16295 -0.403238,-0.16295 -0.248571,0 -0.411524,0.16295 -0.160191,0.16296 -0.160191,0.45295 v 1.70686 h -0.574476 v -1.70686 q 0,-0.28999 -0.162953,-0.45295 -0.162952,-0.16295 -0.403238,-0.16295 -0.248571,0 -0.411524,0.16295 -0.160191,0.16296 -0.160191,0.45295 v 1.70686 z"
         style="fill:#000000;fill-opacity:1;stroke:none;stroke-width:0.14140958"
         id="path1914"
         inkscape:connector-curvature="0" />
    </g>
  </g>
</svg>
