<?xml version="1.0" encoding="UTF-8" standalone="no"?>
<!-- Created with Inkscape (http://www.inkscape.org/) -->

<svg
   xmlns:dc="http://purl.org/dc/elements/1.1/"
   xmlns:cc="http://creativecommons.org/ns#"
   xmlns:rdf="http://www.w3.org/1999/02/22-rdf-syntax-ns#"
   xmlns:svg="http://www.w3.org/2000/svg"
   xmlns="http://www.w3.org/2000/svg"
   xmlns:sodipodi="http://sodipodi.sourceforge.net/DTD/sodipodi-0.dtd"
   xmlns:inkscape="http://www.inkscape.org/namespaces/inkscape"
   width="80.152mm"
   height="136.09599mm"
   viewBox="0 0 80.152 136.09599"
   version="1.1"
   id="svg4868"
   inkscape:version="0.92.2 (5c3e80d, 2017-08-06)"
   sodipodi:docname="33.svg">
  <defs
     id="defs4862" />
  <sodipodi:namedview
     id="base"
     pagecolor="#ffffff"
     bordercolor="#666666"
     borderopacity="1.0"
     inkscape:pageopacity="0.0"
     inkscape:pageshadow="2"
     inkscape:zoom="0.7"
     inkscape:cx="544.40929"
     inkscape:cy="121.92532"
     inkscape:document-units="mm"
     inkscape:current-layer="layer1"
     showgrid="false"
     inkscape:window-width="1920"
     inkscape:window-height="1057"
     inkscape:window-x="-8"
     inkscape:window-y="-8"
     inkscape:window-maximized="1" />
  <metadata
     id="metadata4865">
    <rdf:RDF>
      <cc:Work
         rdf:about="">
        <dc:format>image/svg+xml</dc:format>
        <dc:type
           rdf:resource="http://purl.org/dc/dcmitype/StillImage" />
        <dc:title></dc:title>
      </cc:Work>
    </rdf:RDF>
  </metadata>
  <g
     inkscape:label="Layer 1"
     inkscape:groupmode="layer"
     id="layer1"
     transform="translate(0,-160.90398)">
    <path
       sodipodi:nodetypes="ccccc"
       id="path834"
       d="M 19.552401,276.49999 79.652141,172.4036 60.599851,161.40374 0.5,265.49975 Z"
       style="fill:#000000;fill-rule:nonzero;stroke:none;stroke-width:0.64903224;stroke-linecap:butt;stroke-linejoin:miter;stroke-miterlimit:4;stroke-dasharray:none;stroke-opacity:1"
       inkscape:connector-curvature="0" />
    <path
       inkscape:connector-curvature="0"
       style="fill:#000000;fill-rule:nonzero;stroke:none;stroke-width:0.64903224;stroke-linecap:butt;stroke-linejoin:miter;stroke-miterlimit:4;stroke-dasharray:none;stroke-opacity:1"
       d="M 19.552406,161.40374 79.652147,265.50013 60.599856,276.5 0.500005,172.40399 Z"
       id="path836"
       sodipodi:nodetypes="ccccc" />
    <path
       sodipodi:nodetypes="ccccc"
       id="path838"
       d="M 19.113186,274.86075 78.012936,172.84281 61.039096,163.04296 2.139245,265.06045 Z"
       style="fill:#ffffff;fill-opacity:1;fill-rule:nonzero;stroke:none;stroke-width:0.60646111;stroke-linecap:butt;stroke-linejoin:miter;stroke-miterlimit:4;stroke-dasharray:none;stroke-opacity:1"
       inkscape:connector-curvature="0" />
    <path
       inkscape:connector-curvature="0"
       style="fill:#ffffff;fill-opacity:1;fill-rule:nonzero;stroke:none;stroke-width:0.60646111;stroke-linecap:butt;stroke-linejoin:miter;stroke-miterlimit:4;stroke-dasharray:none;stroke-opacity:1"
       d="M 19.113156,163.04296 78.012906,265.0609 61.039065,274.86075 2.139215,172.84322 Z"
       id="path840"
       sodipodi:nodetypes="ccccc" />
    <path
       inkscape:connector-curvature="0"
       id="path898"
       style="font-style:normal;font-variant:normal;font-weight:normal;font-stretch:normal;font-size:21.58920479px;line-height:1.25;font-family:'DIN 1451 Engschrift';-inkscape-font-specification:'DIN 1451 Engschrift';letter-spacing:2.81516671px;word-spacing:0px;fill:#000000;fill-opacity:1;stroke:none;stroke-width:0.53973013"
       d="m 7.3909,176.7394 12.47076,-7.20001 1.802701,3.12237 q 0.712439,1.23398 0.338149,2.57189 -0.374299,1.33791 -1.60828,2.05036 l -1.15921,0.66926 q -1.7201,0.99311 -3.478229,0.0637 l -4.630961,5.19153 -1.09026,-1.88839 4.375781,-4.76996 -0.64768,-1.12181 -5.34729,3.08725 z m 9.5989,-0.25698 q 0.30282,0.0495 0.596961,-0.0455 0.30496,-0.0763 0.62281,-0.25981 l 1.15919,-0.66927 q 0.5796,-0.33462 0.75133,-0.85758 0.17173,-0.52294 -0.16291,-1.10253 l -0.73402,-1.27139 -3.88894,2.24527 0.72324,1.25269 q 0.32384,0.5609 0.93236,0.70815 z" />
    <path
       inkscape:connector-curvature="0"
       id="path900"
       style="font-style:normal;font-variant:normal;font-weight:normal;font-stretch:normal;font-size:21.58920479px;line-height:1.25;font-family:'DIN 1451 Engschrift';-inkscape-font-specification:'DIN 1451 Engschrift';letter-spacing:2.81516671px;word-spacing:0px;fill:#000000;fill-opacity:1;stroke:none;stroke-width:0.53973013"
       d="m 12.707301,185.94769 14.07916,-4.41418 0.895959,1.55183 -10.862369,9.98582 -1.10105,-1.90707 2.3822,-2.04844 -1.33854,-2.31841 -2.9651,1.03882 z m 5.902879,0.20667 0.97152,1.68273 4.057561,-3.46445 z" />
    <path
       inkscape:connector-curvature="0"
       id="path902"
       style="font-style:normal;font-variant:normal;font-weight:normal;font-stretch:normal;font-size:21.58920479px;line-height:1.25;font-family:'DIN 1451 Engschrift';-inkscape-font-specification:'DIN 1451 Engschrift';letter-spacing:2.81516671px;word-spacing:0px;fill:#000000;fill-opacity:1;stroke:none;stroke-width:0.53973013"
       d="m 18.75556,196.42357 12.47077,-7.20001 1.01468,1.75749 -12.47077,7.20001 z" />
    <path
       inkscape:connector-curvature="0"
       id="path904"
       style="font-style:normal;font-variant:normal;font-weight:normal;font-stretch:normal;font-size:21.58920479px;line-height:1.25;font-family:'DIN 1451 Engschrift';-inkscape-font-specification:'DIN 1451 Engschrift';letter-spacing:2.81516671px;word-spacing:0px;fill:#000000;fill-opacity:1;stroke:none;stroke-width:0.53973013"
       d="m 25.39106,207.91659 -3.06567,-5.30988 12.47077,-7.20001 1.025481,1.7762 -10.67586,6.16371 2.040189,3.5337 z" />
    <path
       inkscape:connector-curvature="0"
       id="path906"
       style="font-style:normal;font-variant:normal;font-weight:normal;font-stretch:normal;font-size:21.58920479px;line-height:1.25;font-family:'DIN 1451 Engschrift';-inkscape-font-specification:'DIN 1451 Engschrift';letter-spacing:4.39737511px;word-spacing:0px;fill:#000000;fill-opacity:1;stroke:none;stroke-width:0.53973013"
       d="m 45.96105,243.54486 6.748911,-5.84097 -8.422071,2.94297 -0.94993,-1.64532 11.42368,-9.0136 1.10106,1.90708 -7.027469,5.22897 8.36599,-2.91057 0.766419,1.32748 -6.69283,5.80857 8.05296,-3.45277 1.09024,1.88837 -13.48545,5.4425 z" />
    <path
       inkscape:connector-curvature="0"
       id="path908"
       style="font-style:normal;font-variant:normal;font-weight:normal;font-stretch:normal;font-size:21.58920479px;line-height:1.25;font-family:'DIN 1451 Engschrift';-inkscape-font-specification:'DIN 1451 Engschrift';letter-spacing:4.39737511px;word-spacing:0px;fill:#000000;fill-opacity:1;stroke:none;stroke-width:0.53973013"
       d="m 50.212391,250.90841 14.07916,-4.41418 0.89595,1.55183 -10.86237,9.98583 -1.10104,-1.90707 2.38219,-2.04844 -1.338541,-2.31841 -2.965089,1.03882 z m 5.90287,0.20668 0.971529,1.68272 4.057561,-3.46445 z" />
    <path
       inkscape:connector-curvature="0"
       id="path910"
       style="font-style:normal;font-variant:normal;font-weight:normal;font-stretch:normal;font-size:21.58920479px;line-height:1.25;font-family:'DIN 1451 Engschrift';-inkscape-font-specification:'DIN 1451 Engschrift';letter-spacing:4.39737511px;word-spacing:0px;fill:#000000;fill-opacity:1;stroke:none;stroke-width:0.53973013"
       d="m 57.84039,264.12049 5.365971,-3.09806 5.71228,-6.51383 1.07946,1.86968 -4.048671,4.25704 5.73264,-1.34034 1.07946,1.86968 -8.52967,1.63397 -5.36598,3.09805 z" />
    <path
       inkscape:connector-curvature="0"
       d="m 19.9319,260.86296 q 0.58772,0.33932 0.96775,0.65665 0.37227,0.28836 0.68787,0.88691 0.32585,0.58039 0.34856,1.47464 0.0146,0.8655 -0.37778,1.54506 -0.46657,0.80812 -1.20788,1.2862 -0.73067,0.45973 -1.44357,0.46443 -0.71289,0.005 -1.20671,-0.15794 -0.50156,-0.19166 -1.03418,-0.49917 l -6.31804,-3.64772 q -0.51425,-0.2969 -0.8653,-0.62201 -0.34044,-0.34349 -0.6271,-0.94977 -0.28666,-0.60631 -0.27794,-1.38489 9.7e-4,-0.80756 0.3827,-1.46875 0.73167,-1.26728 2.05369,-1.60599 1.31428,-0.36769 2.59991,0.37458 l 0.6612,0.38174 -0.99676,1.72644 -0.6612,-0.38174 q -0.51424,-0.2969 -1.01451,-0.19391 -0.50802,0.074 -0.82614,0.62501 -0.2969,0.51426 -0.11761,1.00959 0.17157,0.46636 0.68581,0.76327 l 6.31804,3.64773 q 0.23876,0.13784 0.47752,0.27569 0.24937,0.1195 0.75454,0.0928 0.50517,-0.0267 0.8551,-0.63278 0.37114,-0.64282 0.16495,-1.00675 -0.21401,-0.39287 -0.33965,-0.51448 -0.14409,-0.13217 -0.41959,-0.29121 l -0.22039,-0.12725 -0.40406,-0.23328 0.99676,-1.72644 z"
       style="font-style:normal;font-variant:normal;font-weight:normal;font-stretch:normal;font-size:21.20765877px;line-height:1.25;font-family:'DIN 1451 Engschrift';-inkscape-font-specification:'DIN 1451 Engschrift';letter-spacing:6.21770811px;word-spacing:0px;fill:#000000;fill-opacity:1;stroke:none;stroke-width:0.53019142"
       id="path923" />
    <path
       inkscape:connector-curvature="0"
       d="m 26.99333,255.75797 -12.25037,-7.07275 1.77084,-3.06718 q 0.69985,-1.21218 2.02188,-1.55089 1.32202,-0.33871 2.5342,0.36114 l 1.13872,0.65744 q 1.6897,0.97555 1.76259,2.92769 l 6.69109,1.38977 -1.07098,1.85501 -6.20713,-1.37972 -0.63623,1.10198 5.25278,3.03269 z m -4.93324,-8.03976 q -0.10656,-0.28197 -0.33191,-0.48549 -0.21472,-0.2219 -0.52696,-0.40216 l -1.13872,-0.65744 q -0.56936,-0.32872 -1.09858,-0.21796 -0.52923,0.11076 -0.85795,0.68012 l -0.72105,1.24891 3.82019,2.20559 0.71047,-1.23054 q 0.31811,-0.551 0.14448,-1.141 z"
       style="font-style:normal;font-variant:normal;font-weight:normal;font-stretch:normal;font-size:21.20765877px;line-height:1.25;font-family:'DIN 1451 Engschrift';-inkscape-font-specification:'DIN 1451 Engschrift';letter-spacing:6.21770811px;word-spacing:0px;fill:#000000;fill-opacity:1;stroke:none;stroke-width:0.53019142"
       id="path925" />
    <path
       inkscape:connector-curvature="0"
       d="m 23.62272,235.97719 q -0.34383,-0.76175 -0.3033,-1.59545 0.0222,-0.84428 0.42513,-1.54221 0.39234,-0.67956 1.00715,-1.10822 0.62545,-0.44701 1.32564,-0.55703 0.71081,-0.12836 1.29152,0.011 0.58073,0.13938 1.16846,0.47871 l 6.24456,3.6053 q 0.55099,0.31811 0.9098,0.6722 0.35103,0.32512 0.67443,0.95261 0.32338,0.62751 0.31958,1.48241 -0.004,0.8549 -0.43857,1.60791 -0.49838,0.86322 -1.36331,1.34339 -0.85438,0.46175 -1.575,0.43754 -0.72842,-0.0532 -1.09083,-0.18899 -0.38076,-0.14639 -0.83991,-0.41149 l -6.24457,-3.6053 q -0.551,-0.31812 -0.90981,-0.6722 -0.34819,-0.37245 -0.60092,-0.91022 z m 2.91677,-2.84638 q -0.70798,0.081 -1.0473,0.66875 -0.18026,0.31223 -0.17686,0.73049 -0.004,0.38929 0.1418,0.64511 0.13803,0.22706 0.33763,0.39079 0.19918,0.16398 0.34614,0.24881 l 6.24456,3.60529 q 0.18367,0.10605 0.41467,0.21493 0.24159,0.0905 0.77575,0.0561 0.52638,-0.0634 0.89751,-0.70624 0.19088,-0.3306 0.19239,-0.67255 -0.006,-0.37094 -0.14463,-0.59778 -0.12782,-0.24519 -0.29027,-0.38796 -0.16245,-0.14277 -0.45633,-0.31242 l -6.24456,-3.6053 q -0.36734,-0.21209 -0.53547,-0.2602 -0.15753,-0.0665 -0.45499,-0.0178 z"
       style="font-style:normal;font-variant:normal;font-weight:normal;font-stretch:normal;font-size:21.20765877px;line-height:1.25;font-family:'DIN 1451 Engschrift';-inkscape-font-specification:'DIN 1451 Engschrift';letter-spacing:6.21770811px;word-spacing:0px;fill:#000000;fill-opacity:1;stroke:none;stroke-width:0.53019142"
       id="path927" />
    <path
       inkscape:connector-curvature="0"
       d="m 39.63426,226.82231 q 0.34896,0.20147 0.54322,0.28914 0.1865,0.0587 0.69169,0.032 0.49741,-0.0557 0.87914,-0.71685 0.21208,-0.36733 0.24542,-0.76439 0.015,-0.40766 -0.13897,-0.69244 -0.17271,-0.29515 -0.42942,-0.44383 -0.2649,-0.17742 -0.35674,-0.23045 l -0.86321,-0.49838 q -0.36733,-0.21207 -0.5722,-0.28139 -0.19426,-0.0877 -0.51294,-0.002 -0.32643,0.0564 -0.70381,0.32829 -0.38514,0.24291 -1.23532,0.952 -0.83959,0.69072 -1.88743,0.89386 -1.06621,0.19255 -2.29676,-0.51792 l -0.55099,-0.31811 q -1.24891,-0.72106 -1.6717,-2.06713 -0.43054,-1.37505 0.29053,-2.62396 0.73166,-1.26727 2.11938,-1.59254 1.37997,-0.35425 2.66562,0.38802 l 0.55099,0.31812 -1.00736,1.74481 -0.55099,-0.31811 q -0.25713,-0.14846 -0.462,-0.21778 -0.20486,-0.0693 -0.70228,-0.0136 -0.49741,0.0557 -0.84734,0.66174 -0.30752,0.53263 -0.12329,1.10427 0.17646,0.54267 0.74582,0.87138 l 0.55099,0.31812 q 0.34895,0.20147 0.52485,0.27854 0.16813,0.0481 0.46561,-5.6e-4 0.29746,-0.0487 0.62468,-0.27601 0.32721,-0.22737 1.16677,-0.91811 0.83182,-0.71969 1.95882,-0.97509 1.10863,-0.26602 2.35754,0.45504 l 0.99179,0.57261 q 0.60608,0.34992 0.99102,0.7436 0.39553,0.37529 0.86182,1.47672 0.44759,1.09102 -0.43253,2.61543 -0.91193,1.57951 -2.354,1.702 -1.46044,0.11186 -2.54404,-0.51376 l -0.44079,-0.25449 1.01796,-1.76317 z"
       style="font-style:normal;font-variant:normal;font-weight:normal;font-stretch:normal;font-size:21.20765877px;line-height:1.25;font-family:'DIN 1451 Engschrift';-inkscape-font-specification:'DIN 1451 Engschrift';letter-spacing:6.21770811px;word-spacing:0px;fill:#000000;fill-opacity:1;stroke:none;stroke-width:0.53019142"
       id="path929" />
    <path
       d="m 46.84711,214.32927 q 0.34898,0.20148 0.54323,0.28915 0.18649,0.0587 0.69169,0.032 0.49741,-0.0557 0.87914,-0.71684 0.21209,-0.36733 0.24541,-0.76439 0.015,-0.40766 -0.13896,-0.69245 -0.17185,-0.29565 -0.42943,-0.44383 -0.2649,-0.17742 -0.35673,-0.23044 l -0.86322,-0.49838 q -0.36732,-0.21208 -0.57219,-0.28139 -0.19426,-0.0877 -0.51294,-0.002 -0.32643,0.0564 -0.70382,0.32829 -0.38513,0.24291 -1.23531,0.95201 -0.83958,0.69071 -1.88743,0.89385 -1.06622,0.19254 -2.29676,-0.51791 l -0.55099,-0.31811 q -1.24892,-0.72107 -1.67169,-2.06714 -0.43055,-1.37504 0.29051,-2.62396 0.73166,-1.26727 2.11939,-1.59256 1.37997,-0.35422 2.66562,0.38805 l 0.551,0.31811 -1.00738,1.7448 -0.55099,-0.31811 q -0.25713,-0.14846 -0.462,-0.21778 -0.20485,-0.0693 -0.70228,-0.0136 -0.4974,0.0557 -0.84733,0.66175 -0.30752,0.53262 -0.1233,1.10427 0.17646,0.54268 0.74582,0.87139 l 0.551,0.31812 q 0.34895,0.20147 0.52484,0.27854 0.16813,0.0481 0.46561,-5.6e-4 0.29746,-0.0487 0.62468,-0.27602 0.32721,-0.22737 1.16677,-0.91811 0.83183,-0.71968 1.95882,-0.97508 1.10863,-0.26601 2.35754,0.45505 l 0.99179,0.57261 q 0.60608,0.34992 0.99102,0.74359 0.39554,0.37528 0.86182,1.47672 0.44759,1.09103 -0.43252,2.61543 -0.91193,1.57951 -2.354,1.702 -1.46044,0.11186 -2.54404,-0.51376 l -0.44079,-0.25449 1.01796,-1.76317 z"
       style="font-style:normal;font-variant:normal;font-weight:normal;font-stretch:normal;font-size:21.20765877px;line-height:1.25;font-family:'DIN 1451 Engschrift';-inkscape-font-specification:'DIN 1451 Engschrift';letter-spacing:6.21770811px;word-spacing:0px;fill:#000000;fill-opacity:1;stroke:none;stroke-width:0.53019142"
       id="path931"
       inkscape:connector-curvature="0" />
    <path
       d="m 56.36321,204.88784 -12.25037,-7.07275 0.99676,-1.72644 12.25037,7.07275 z"
       style="font-style:normal;font-variant:normal;font-weight:normal;font-stretch:normal;font-size:21.20765877px;line-height:1.25;font-family:'DIN 1451 Engschrift';-inkscape-font-specification:'DIN 1451 Engschrift';letter-spacing:6.21770811px;word-spacing:0px;fill:#000000;fill-opacity:1;stroke:none;stroke-width:0.53019142"
       id="path933"
       inkscape:connector-curvature="0" />
    <path
       d="m 64.17188,191.36283 -9.01835,-1.55796 7.43838,4.29455 -1.00736,1.74481 -12.25037,-7.07276 0.95435,-1.65298 8.98938,1.56573 -7.42002,-4.28395 1.00736,-1.7448 12.25037,7.07275 z"
       style="font-style:normal;font-variant:normal;font-weight:normal;font-stretch:normal;font-size:21.20765877px;line-height:1.25;font-family:'DIN 1451 Engschrift';-inkscape-font-specification:'DIN 1451 Engschrift';letter-spacing:6.21770811px;word-spacing:0px;fill:#000000;fill-opacity:1;stroke:none;stroke-width:0.53019142"
       id="path935"
       inkscape:connector-curvature="0" />
    <path
       d="m 71.12205,176.35573 q 0.42792,0.78579 0.41349,1.65907 -0.0144,0.87326 -0.47038,1.66301 -0.40294,0.69793 -1.10467,1.14988 -0.70175,0.45192 -1.39134,0.54358 -0.69735,0.0627 -1.24911,-0.0845 -0.55952,-0.17611 -1.18397,-0.53664 l -6.13437,-3.54168 q -0.49589,-0.2863 -0.84693,-0.61142 -0.3588,-0.35409 -0.91166,-1.43244 -0.5712,-1.08896 0.38312,-2.74191 0.42415,-0.73466 1.14424,-1.17601 0.72009,-0.44137 1.42522,-0.47504 0.68677,-0.0443 1.18058,0.11837 0.50441,0.1443 1.01867,0.4412 l 0.51426,0.29691 -0.99676,1.72644 -0.51426,-0.29691 q -0.31223,-0.18026 -0.49874,-0.23896 -0.19426,-0.0877 -0.69167,-0.032 -0.48682,0.0373 -0.84734,0.66174 -0.41355,0.71629 -0.16571,1.17773 0.24036,0.43231 0.40256,0.57524 0.16245,0.14278 0.4012,0.28063 l 6.13437,3.54168 q 0.34897,0.20147 0.54323,0.28914 0.1865,0.0587 0.71005,0.0426 0.53414,-0.0344 0.92649,-0.714 0.42415,-0.73465 0.1445,-1.14101 -0.26909,-0.42468 -0.43155,-0.56745 -0.16245,-0.14277 -0.49305,-0.33364 l -2.14886,-1.24065 -0.8165,1.41421 -1.52441,-0.88012 1.81326,-3.14065 3.67327,2.12077 q 0.77139,0.44536 1.06733,0.73867 0.27763,0.28267 0.52546,0.74412 z"
       style="font-style:normal;font-variant:normal;font-weight:normal;font-stretch:normal;font-size:21.20765877px;line-height:1.25;font-family:'DIN 1451 Engschrift';-inkscape-font-specification:'DIN 1451 Engschrift';letter-spacing:6.21770811px;word-spacing:0px;fill:#000000;fill-opacity:1;stroke:none;stroke-width:0.53019142"
       id="path937"
       inkscape:connector-curvature="0" />
    <path
       style="fill:#000000;fill-rule:nonzero;stroke:none;stroke-width:0.3018567;stroke-linecap:butt;stroke-linejoin:miter;stroke-miterlimit:4;stroke-dasharray:none;stroke-opacity:1"
       d="m 33.57588,272.49992 v 13.00023 H 14.076 V 296.5 H 66.07592 V 285.49964 H 46.57585 v -12.99972 z"
       id="path834-4"
       inkscape:connector-curvature="0"
       sodipodi:nodetypes="ccccccccc" />
    <path
       style="fill:#ffffff;fill-opacity:1;fill-rule:nonzero;stroke:none;stroke-width:0.2850278;stroke-linecap:butt;stroke-linejoin:miter;stroke-miterlimit:4;stroke-dasharray:none;stroke-opacity:1"
       d="m 34.07559,272.99963 5.3e-4,13.00024 h -19.4999 v 9.9999 H 65.5757 l 5.2e-4,-9.9999 H 46.07615 v -13.00024 z"
       id="path836-7"
       inkscape:connector-curvature="0"
       sodipodi:nodetypes="ccccccccc" />
    <g
       aria-label="TRACKS"
       style="font-style:normal;font-variant:normal;font-weight:normal;font-stretch:normal;font-size:10.77894783px;line-height:1.25;font-family:'DIN 1451 Mittelschrift';-inkscape-font-specification:'DIN 1451 Mittelschrift';letter-spacing:1.75418746px;word-spacing:0px;fill:#ff0000;fill-opacity:1;stroke:none;stroke-width:0.2694737"
       id="text899"
       transform="translate(11.36687,0.80416414)">
      <path
         d="m 7.6091234,294.13268 v -6.63685 h -2.1 v -1.03158 h 5.3631576 v 1.03158 H 8.7722814 v 6.63685 z"
         style="letter-spacing:1.75418746px;fill:#000000;stroke:none;stroke-width:0.2694737"
         id="path902-6"
         inkscape:connector-curvature="0" />
      <path
         d="m 14.609679,287.49583 v 2.32632 h 1.757895 q 0.652632,0 0.978948,-0.36316 0.326315,-0.36316 0.326315,-0.85263 0,-0.58421 -0.389473,-0.87368 -0.326316,-0.23685 -0.847369,-0.23685 z m -1.163157,6.63685 v -7.66843 h 3 q 0.98421,0 1.557894,0.50527 0.321053,0.27894 0.542106,0.7 0.226316,0.42105 0.226316,0.93684 0,0.7421 -0.4,1.31579 -0.394737,0.56842 -1.089474,0.80526 l 1.778947,3.40527 h -1.378947 l -1.584211,-3.27369 h -1.489474 v 3.27369 z"
         style="letter-spacing:1.75418746px;fill:#000000;stroke:none;stroke-width:0.2694737"
         id="path904-4"
         inkscape:connector-curvature="0" />
      <path
         d="m 20.967123,294.12741 2.8,-7.67368 h 0.957895 l 2.8,7.67368 h -1.221052 l -0.589474,-1.73158 h -2.910527 l -0.610526,1.73158 z m 2.178948,-2.75789 h 2.221052 q -0.242105,-0.71053 -0.38421,-1.11053 -0.136842,-0.40526 -0.242105,-0.71579 -0.1,-0.31052 -0.205264,-0.63158 -0.105263,-0.32105 -0.278947,-0.86842 -0.18421,0.56842 -0.294737,0.91053 -0.110526,0.33684 -0.215789,0.65263 -0.1,0.31579 -0.236842,0.70526 -0.131579,0.38948 -0.363158,1.0579 z"
         style="letter-spacing:1.75418746px;fill:#000000;stroke:none;stroke-width:0.2694737"
         id="path906-6"
         inkscape:connector-curvature="0" />
      <path
         d="m 34.189731,291.99057 h 1.226316 q -0.226315,1.07368 -0.968421,1.64211 -0.742105,0.56315 -1.726316,0.56315 -0.905263,0 -1.521052,-0.43158 -0.610527,-0.43684 -0.878948,-0.9421 -0.189473,-0.33684 -0.263158,-0.73684 -0.07368,-0.4 -0.07368,-1.78421 0,-1.38421 0.07368,-1.78421 0.07369,-0.4 0.263158,-0.73685 0.268421,-0.5 0.878948,-0.9421 0.615789,-0.44211 1.521052,-0.44211 1.089474,0 1.8,0.67369 0.71579,0.66842 0.894737,1.6 h -1.226316 q -0.142105,-0.44211 -0.531578,-0.77369 -0.384211,-0.33158 -0.936843,-0.33158 -0.410526,0 -0.710526,0.16843 -0.3,0.16842 -0.473684,0.38947 -0.226316,0.29474 -0.310527,0.64737 -0.07895,0.35263 -0.07895,1.53158 0,1.18421 0.07895,1.53684 0.08421,0.35263 0.310527,0.63684 0.173684,0.23158 0.473684,0.4 0.3,0.16316 0.710526,0.16316 0.968421,0 1.468421,-1.04737 z"
         style="letter-spacing:1.75418746px;fill:#000000;stroke:none;stroke-width:0.2694737"
         id="path908-2"
         inkscape:connector-curvature="0" />
      <path
         d="m 37.996551,294.13268 v -7.66843 h 1.163158 v 3.95264 h 0.02632 l 3.152632,-3.95264 h 1.38421 l -2.457894,3.02632 2.715789,4.64211 h -1.378947 l -2.094737,-3.74737 -1.347369,1.41052 v 2.33685 z"
         style="letter-spacing:1.75418746px;fill:#000000;stroke:none;stroke-width:0.2694737"
         id="path910-2"
         inkscape:connector-curvature="0" />
      <path
         d="m 45.882316,293.1432 0.768421,-0.87368 q 0.431579,0.34737 0.994737,0.55789 0.563158,0.21053 1.178948,0.21053 0.710526,0 1.115789,-0.29474 0.405263,-0.29474 0.405263,-0.77368 0,-0.90527 -1,-1.03684 -0.263158,-0.0316 -0.489473,-0.0632 -0.226316,-0.0316 -0.526316,-0.0737 -0.994737,-0.13684 -1.51579,-0.72631 -0.521052,-0.59474 -0.521052,-1.43158 0,-0.97895 0.652631,-1.61053 0.657895,-0.63158 1.847369,-0.63158 0.710526,0 1.336842,0.22632 0.626316,0.22631 1.152631,0.57368 l -0.647368,0.9579 q -0.421053,-0.26316 -0.905263,-0.42632 -0.484211,-0.16316 -0.989474,-0.16316 -0.536842,0 -0.910526,0.27369 -0.373684,0.27368 -0.373684,0.82105 0,0.32632 0.252631,0.61053 0.252632,0.28421 0.836842,0.37368 0.152632,0.0263 0.368421,0.0579 0.21579,0.0263 0.494737,0.0579 1.073684,0.13158 1.584211,0.77895 0.515789,0.64737 0.515789,1.43158 0,1.05789 -0.731579,1.6421 -0.731579,0.58421 -1.963158,0.58421 -1.731579,0 -2.931579,-1.05263 z"
         style="letter-spacing:1.75418746px;fill:#000000;stroke:none;stroke-width:0.2694737"
         id="path912"
         inkscape:connector-curvature="0" />
    </g>
    <rect
       style="opacity:1;fill:none;fill-opacity:1;fill-rule:nonzero;stroke:#000000;stroke-width:0.19992851;stroke-linecap:square;stroke-linejoin:round;stroke-miterlimit:4;stroke-dasharray:1.59942812, 1.59942812;stroke-dashoffset:1.15958536;stroke-opacity:1;paint-order:stroke fill markers"
       id="rect915"
       width="9.8000717"
       height="10.800072"
       x="35.175953"
       y="-284.89987"
       transform="scale(1,-1)" />
  </g>
</svg>
