<?xml version="1.0" encoding="UTF-8" standalone="no"?>
<!-- Created with Inkscape (http://www.inkscape.org/) -->

<svg
   xmlns:dc="http://purl.org/dc/elements/1.1/"
   xmlns:cc="http://creativecommons.org/ns#"
   xmlns:rdf="http://www.w3.org/1999/02/22-rdf-syntax-ns#"
   xmlns:svg="http://www.w3.org/2000/svg"
   xmlns="http://www.w3.org/2000/svg"
   xmlns:sodipodi="http://sodipodi.sourceforge.net/DTD/sodipodi-0.dtd"
   xmlns:inkscape="http://www.inkscape.org/namespaces/inkscape"
   width="116.096mm"
   height="96.152mm"
   viewBox="0 0 116.096 96.152"
   version="1.1"
   id="svg4868"
   inkscape:version="0.92.2 (5c3e80d, 2017-08-06)"
   sodipodi:docname="11.svg">
  <defs
     id="defs4862" />
  <sodipodi:namedview
     id="base"
     pagecolor="#ffffff"
     bordercolor="#666666"
     borderopacity="1.0"
     inkscape:pageopacity="0.0"
     inkscape:pageshadow="2"
     inkscape:zoom="1.4660377"
     inkscape:cx="173.56738"
     inkscape:cy="113.40305"
     inkscape:document-units="mm"
     inkscape:current-layer="layer1"
     showgrid="false"
     inkscape:window-width="1920"
     inkscape:window-height="1057"
     inkscape:window-x="-8"
     inkscape:window-y="-8"
     inkscape:window-maximized="1" />
  <metadata
     id="metadata4865">
    <rdf:RDF>
      <cc:Work
         rdf:about="">
        <dc:format>image/svg+xml</dc:format>
        <dc:type
           rdf:resource="http://purl.org/dc/dcmitype/StillImage" />
        <dc:title></dc:title>
      </cc:Work>
    </rdf:RDF>
  </metadata>
  <g
     inkscape:label="Layer 1"
     inkscape:groupmode="layer"
     id="layer1"
     transform="translate(0,-200.848)">
    <path
       inkscape:connector-curvature="0"
       style="fill:#000000;fill-rule:nonzero;stroke:none;stroke-width:0.64903224;stroke-linecap:butt;stroke-linejoin:miter;stroke-miterlimit:4;stroke-dasharray:none;stroke-opacity:1"
       d="M 115.59626,261.4476 11.49985,201.34786 0.5,220.40015 104.59602,280.5 Z"
       id="path2388"
       sodipodi:nodetypes="ccccc" />
    <path
       sodipodi:nodetypes="ccccc"
       id="path2396"
       d="M 0.5,261.4476 104.5964,201.34786 115.59627,220.40015 11.50025,280.5 Z"
       style="fill:#000000;fill-rule:nonzero;stroke:none;stroke-width:0.64903224;stroke-linecap:butt;stroke-linejoin:miter;stroke-miterlimit:4;stroke-dasharray:none;stroke-opacity:1"
       inkscape:connector-curvature="0" />
    <path
       inkscape:connector-curvature="0"
       style="fill:#ffffff;fill-opacity:1;fill-rule:nonzero;stroke:none;stroke-width:0.60646111;stroke-linecap:butt;stroke-linejoin:miter;stroke-miterlimit:4;stroke-dasharray:none;stroke-opacity:1"
       d="M 113.95705,261.88682 11.9391,202.98707 l -9.79985,16.97384 102.0175,58.89985 z"
       id="path2400"
       sodipodi:nodetypes="ccccc" />
    <path
       sodipodi:nodetypes="ccccc"
       id="path2402"
       d="m 2.13922,261.88682 102.01795,-58.89975 9.79985,16.97384 -102.01754,58.89985 z"
       style="fill:#ffffff;fill-opacity:1;fill-rule:nonzero;stroke:none;stroke-width:0.60646111;stroke-linecap:butt;stroke-linejoin:miter;stroke-miterlimit:4;stroke-dasharray:none;stroke-opacity:1"
       inkscape:connector-curvature="0" />
    <path
       id="path897"
       style="font-style:normal;font-variant:normal;font-weight:normal;font-stretch:normal;font-size:21.20765877px;line-height:1.25;font-family:'DIN 1451 Engschrift';-inkscape-font-specification:'DIN 1451 Engschrift';letter-spacing:6.21770811px;word-spacing:0px;fill:#000000;fill-opacity:1;stroke:none;stroke-width:0.53019142"
       d="m 19.647174,267.14753 q 0.33932,0.58772 0.50977,1.05255 0.17821,0.43586 0.15226,1.11202 -0.008,0.66556 -0.43546,1.45136 -0.42014,0.75682 -1.0997,1.14917 -0.80812,0.46657 -1.689154,0.50994 -0.86265,0.0328 -1.48239,-0.31958 -0.61974,-0.35236 -0.96607,-0.74013 -0.33853,-0.41676 -0.64604,-0.94938 l -3.64772,-6.31804 q -0.29691,-0.51425 -0.43837,-0.97133 -0.12308,-0.46769 -0.0682,-1.13608 0.0549,-0.6684 0.45174,-1.33832 0.40462,-0.69888 1.06581,-1.08062 1.26728,-0.73166 2.58154,-0.36398 1.32204,0.33871 2.0643,1.62435 l 0.38174,0.66119 -1.72644,0.99676 -0.38174,-0.66119 q -0.2969,-0.51425 -0.78164,-0.67519 -0.47697,-0.1899 -1.02796,0.12821 -0.51426,0.29691 -0.60665,0.81553 -0.0846,0.48966 0.21229,1.00391 l 3.64772,6.31804 q 0.13785,0.23876 0.2757,0.47752 0.15621,0.22817 0.60705,0.45764 0.45083,0.22948 1.05693,-0.12045 0.642824,-0.37113 0.646224,-0.7894 0.0111,-0.44724 -0.0369,-0.61538 -0.0587,-0.1865 -0.21777,-0.46199 l -0.12724,-0.22039 -0.233294,-0.40406 1.726444,-0.99676 z"
       inkscape:connector-curvature="0" />
    <path
       id="path899"
       style="font-style:normal;font-variant:normal;font-weight:normal;font-stretch:normal;font-size:21.20765877px;line-height:1.25;font-family:'DIN 1451 Engschrift';-inkscape-font-specification:'DIN 1451 Engschrift';letter-spacing:6.21770811px;word-spacing:0px;fill:#000000;fill-opacity:1;stroke:none;stroke-width:0.53019142"
       d="m 28.315044,266.2572 -7.07276,-12.25037 3.06719,-1.77084 q 1.21217,-0.69985 2.52644,-0.33217 1.31426,0.36768 2.01411,1.57986 l 0.65744,1.13872 q 0.97555,1.6897 0.0626,3.41675 l 5.09977,4.54912 -1.855,1.07099 -4.68567,-4.29844 -1.10198,0.63623 3.03269,5.25278 z m -0.25243,-9.42926 q 0.0487,-0.29747 -0.0447,-0.58641 -0.075,-0.29953 -0.25528,-0.61176 l -0.65744,-1.13872 q -0.32872,-0.56935 -0.84242,-0.73805 -0.5137,-0.16869 -1.08306,0.16003 l -1.24891,0.72106 2.20559,3.8202 1.23055,-0.71045 q 0.55099,-0.31812 0.69563,-0.91589 z"
       inkscape:connector-curvature="0" />
    <path
       id="path901"
       style="font-style:normal;font-variant:normal;font-weight:normal;font-stretch:normal;font-size:21.20765877px;line-height:1.25;font-family:'DIN 1451 Engschrift';-inkscape-font-specification:'DIN 1451 Engschrift';letter-spacing:6.21770811px;word-spacing:0px;fill:#000000;fill-opacity:1;stroke:none;stroke-width:0.53019142"
       d="m 35.286404,247.44123 q 0.0831,-0.83161 0.53506,-1.53335 0.44135,-0.72008 1.13927,-1.12303 0.67956,-0.39234 1.42633,-0.45617 0.76516,-0.0744 1.42655,0.18042 0.67976,0.24424 1.11299,0.65529 0.43324,0.41107 0.77256,0.9988 l 3.6053,6.24456 q 0.31812,0.55099 0.45181,1.03705 0.14144,0.45707 0.10777,1.1622 -0.0337,0.70512 -0.46444,1.44359 -0.43075,0.73846 -1.18377,1.17321 -0.86322,0.49838 -1.85236,0.48175 -0.97079,-0.0273 -1.58276,-0.40858 -0.60422,-0.4103 -0.85019,-0.70908 -0.25655,-0.31716 -0.52164,-0.77632 l -3.6053,-6.24456 q -0.31812,-0.551 -0.45182,-1.03705 -0.11532,-0.49665 -0.0653,-1.08874 z m 3.94918,-1.00665 q -0.65364,-0.28382 -1.24136,0.0555 -0.31222,0.18027 -0.51841,0.5442 -0.19843,0.33495 -0.19975,0.62958 0.006,0.26565 0.097,0.50725 0.0905,0.2416 0.17536,0.38854 l 3.6053,6.24456 q 0.10604,0.18367 0.25165,0.39346 0.16396,0.1992 0.64379,0.43642 0.48757,0.20827 1.13039,-0.16286 0.3306,-0.19087 0.50289,-0.48625 0.18007,-0.32436 0.17363,-0.59001 0.0119,-0.27625 -0.0574,-0.48112 -0.0693,-0.20487 -0.23898,-0.49873 l -3.6053,-6.24456 q -0.21208,-0.36734 -0.33363,-0.49307 -0.10319,-0.13633 -0.38513,-0.24292 z"
       inkscape:connector-curvature="0" />
    <path
       id="path903"
       style="font-style:normal;font-variant:normal;font-weight:normal;font-stretch:normal;font-size:21.20765877px;line-height:1.25;font-family:'DIN 1451 Engschrift';-inkscape-font-specification:'DIN 1451 Engschrift';letter-spacing:6.21770811px;word-spacing:0px;fill:#000000;fill-opacity:1;stroke:none;stroke-width:0.53019142"
       d="m 53.730244,247.51864 q 0.20147,0.34896 0.32587,0.52202 0.13215,0.1441 0.583,0.37358 0.45861,0.2005 1.11979,-0.18124 0.36733,-0.21208 0.59473,-0.53927 0.21679,-0.34557 0.22587,-0.66916 -0.002,-0.34196 -0.14997,-0.59908 -0.1407,-0.2861 -0.19372,-0.37794 l -0.49838,-0.86322 q -0.21208,-0.36732 -0.35484,-0.52979 -0.12439,-0.17306 -0.44307,-0.25845 -0.31091,-0.11435 -0.77367,-0.0676 -0.45499,0.0178 -1.54582,0.2068 -1.07246,0.17839 -2.08149,-0.16961 -1.01964,-0.36636 -1.73009,-1.59691 l -0.31812,-0.55099 q -0.72106,-1.24891 -0.41417,-2.62604 0.31467,-1.40609 1.56359,-2.12715 1.26727,-0.73166 2.63171,-0.31949 1.37221,0.3832 2.11448,1.66885 l 0.31811,0.55099 -1.7448,1.00737 -0.31812,-0.55099 q -0.14845,-0.25713 -0.29121,-0.4196 -0.14276,-0.16246 -0.60137,-0.36296 -0.4586,-0.2005 -1.06469,0.14942 -0.53263,0.30751 -0.65891,0.89468 -0.11851,0.55819 0.21021,1.12755 l 0.31811,0.55099 q 0.20147,0.34896 0.31527,0.50365 0.12155,0.12573 0.40351,0.23232 0.28193,0.1066 0.67899,0.0733 0.39706,-0.0333 1.46951,-0.21172 1.08022,-0.20736 2.18393,0.13496 1.09311,0.32394 1.81417,1.57285 l 0.57261,0.99179 q 0.34992,0.60608 0.48645,1.13948 0.1549,0.52278 0.008,1.70979 -0.15789,1.16865 -1.6823,2.04877 -1.57951,0.91193 -2.88962,0.29697 -1.32071,-0.63334 -1.94633,-1.71695 l -0.25449,-0.44079 1.76317,-1.01797 z"
       inkscape:connector-curvature="0" />
    <path
       inkscape:connector-curvature="0"
       id="path905"
       style="font-style:normal;font-variant:normal;font-weight:normal;font-stretch:normal;font-size:21.20765877px;line-height:1.25;font-family:'DIN 1451 Engschrift';-inkscape-font-specification:'DIN 1451 Engschrift';letter-spacing:6.21770811px;word-spacing:0px;fill:#000000;fill-opacity:1;stroke:none;stroke-width:0.53019142"
       d="m 66.223274,240.30578 q 0.20148,0.34897 0.32587,0.52202 0.13215,0.1441 0.58301,0.37358 0.4586,0.2005 1.11978,-0.18123 0.36734,-0.21208 0.59473,-0.53928 0.2168,-0.34556 0.22588,-0.66916 -10e-4,-0.34196 -0.14998,-0.59908 -0.1407,-0.2861 -0.19372,-0.37793 l -0.49838,-0.86322 q -0.21207,-0.36733 -0.35483,-0.52979 -0.1244,-0.17306 -0.44308,-0.25845 -0.31091,-0.11436 -0.77367,-0.0676 -0.45499,0.0178 -1.54582,0.20681 -1.07245,0.17838 -2.08149,-0.16962 -1.01964,-0.36636 -1.73009,-1.5969 l -0.31812,-0.55099 q -0.72106,-1.24892 -0.41416,-2.62604 0.31466,-1.40609 1.56357,-2.12716 1.26728,-0.73166 2.63173,-0.3195 1.3722,0.38322 2.11447,1.66887 l 0.31812,0.55099 -1.74481,1.00735 -0.31812,-0.55099 q -0.14845,-0.25713 -0.29121,-0.4196 -0.14276,-0.16244 -0.60137,-0.36296 -0.4586,-0.20049 -1.06469,0.14943 -0.53262,0.3075 -0.65891,0.89468 -0.11852,0.5582 0.2102,1.12755 l 0.31812,0.551 q 0.20147,0.34895 0.31526,0.50364 0.12155,0.12573 0.40351,0.23232 0.28194,0.10659 0.679,0.0733 0.39705,-0.0333 1.4695,-0.21172 1.08023,-0.20735 2.18393,0.13497 1.09311,0.32394 1.81417,1.57285 l 0.57261,0.99179 q 0.34992,0.60608 0.48645,1.13948 0.15491,0.52277 0.008,1.70979 -0.15789,1.16865 -1.68229,2.04876 -1.57951,0.91194 -2.88962,0.29698 -1.32071,-0.63335 -1.94633,-1.71695 l -0.25449,-0.44079 1.76317,-1.01797 z" />
    <path
       inkscape:connector-curvature="0"
       id="path907"
       style="font-style:normal;font-variant:normal;font-weight:normal;font-stretch:normal;font-size:21.20765877px;line-height:1.25;font-family:'DIN 1451 Engschrift';-inkscape-font-specification:'DIN 1451 Engschrift';letter-spacing:6.21770811px;word-spacing:0px;fill:#000000;fill-opacity:1;stroke:none;stroke-width:0.53019142"
       d="m 79.185174,236.88731 -7.07276,-12.25037 1.72644,-0.99676 7.07276,12.25037 z" />
    <path
       inkscape:connector-curvature="0"
       id="path909"
       style="font-style:normal;font-variant:normal;font-weight:normal;font-stretch:normal;font-size:21.20765877px;line-height:1.25;font-family:'DIN 1451 Engschrift';-inkscape-font-specification:'DIN 1451 Engschrift';letter-spacing:6.21770811px;word-spacing:0px;fill:#000000;fill-opacity:1;stroke:none;stroke-width:0.53019142"
       d="m 92.710184,229.07864 -7.03114,-5.85841 4.29455,7.43838 -1.7448,1.00737 -7.07276,-12.25037 1.65298,-0.95435 7.00217,5.85065 -4.28395,-7.42002 1.7448,-1.00736 7.07276,12.25037 z" />
    <path
       inkscape:connector-curvature="0"
       id="path911"
       style="font-style:normal;font-variant:normal;font-weight:normal;font-stretch:normal;font-size:21.20765877px;line-height:1.25;font-family:'DIN 1451 Engschrift';-inkscape-font-specification:'DIN 1451 Engschrift';letter-spacing:6.21770811px;word-spacing:0px;fill:#000000;fill-opacity:1;stroke:none;stroke-width:0.53019142"
       d="m 106.23276,219.5572 q -0.0223,0.89447 -0.47144,1.64354 -0.44911,0.74906 -1.23887,1.20502 -0.69792,0.40295 -1.53161,0.44349 -0.83369,0.0405 -1.47672,-0.22492 -0.63526,-0.29441 -1.03953,-0.69771 -0.3965,-0.43227 -0.757033,-1.05673 l -3.54168,-6.13437 q -0.2863,-0.49588 -0.42775,-0.95296 -0.13369,-0.48606 -0.0733,-1.69636 0.0498,-1.22867 1.70274,-2.18301 0.73466,-0.42416 1.57895,-0.44633 0.8443,-0.0222 1.471803,0.30121 0.6169,0.30503 0.96322,0.6928 0.36469,0.37717 0.6616,0.89143 l 0.29691,0.51426 -1.72644,0.99676 -0.29691,-0.51426 q -0.18027,-0.31223 -0.31244,-0.45632 -0.124403,-0.17305 -0.583003,-0.37356 -0.44024,-0.21111 -1.06469,0.14942 -0.71629,0.41355 -0.73237,0.93709 -0.008,0.49457 0.061,0.69945 0.0693,0.20487 0.20714,0.44363 l 3.541683,6.13437 q 0.20148,0.34896 0.32588,0.52202 0.13217,0.14408 0.59361,0.39193 0.47981,0.23724 1.15937,-0.1551 0.73465,-0.42415 0.69564,-0.91589 -0.0207,-0.50233 -0.09,-0.7072 -0.0693,-0.20487 -0.26018,-0.53547 l -1.24064,-2.14886 -1.41421,0.81649 -0.88012,-1.52441 3.14065,-1.81325 2.12076,3.67327 q 0.44536,0.77139 0.555,1.17337 0.0991,0.38362 0.083,0.90716 z" />
    <path
       d="m 8.63539,220.70927 7.2,-12.47077 3.122364,1.8027 q 1.23399,0.71244 1.5788,2.05825 0.3448,1.34581 -0.36764,2.5798 l -0.66927,1.1592 q -0.9931,1.72011 -2.980394,1.79427 l -1.41477,6.81148 -1.88838,-1.09026 1.40455,-6.3188 -1.12181,-0.64768 -3.08726,5.34729 z m 8.18441,-5.022 q 0.28701,-0.10851 0.49423,-0.33788 0.22595,-0.21856 0.40946,-0.53641 l 0.669264,-1.1592 q 0.33463,-0.57959 0.22188,-1.11835 -0.11275,-0.53874 -0.69235,-0.87337 l -1.271384,-0.73404 -2.24528,3.88893 1.25269,0.72324 q 0.5609,0.32384 1.16152,0.1471 z"
       style="font-style:normal;font-variant:normal;font-weight:normal;font-stretch:normal;font-size:21.58920479px;line-height:1.25;font-family:'DIN 1451 Engschrift';-inkscape-font-specification:'DIN 1451 Engschrift';letter-spacing:2.81516671px;word-spacing:0px;fill:#000000;fill-opacity:1;stroke:none;stroke-width:0.53973013"
       id="path4732"
       inkscape:connector-curvature="0" />
    <path
       d="m 17.843684,226.02568 9.98582,-10.86237 1.55184,0.89595 -4.41418,14.07916 -1.90707,-1.10105 1.03882,-2.9651 -2.31841,-1.33853 -2.04844,2.38219 z m 5.21538,-2.77245 1.68272,0.97152 1.78173,-5.02908 z"
       style="font-style:normal;font-variant:normal;font-weight:normal;font-stretch:normal;font-size:21.58920479px;line-height:1.25;font-family:'DIN 1451 Engschrift';-inkscape-font-specification:'DIN 1451 Engschrift';letter-spacing:2.81516671px;word-spacing:0px;fill:#000000;fill-opacity:1;stroke:none;stroke-width:0.53973013"
       id="path4734"
       inkscape:connector-curvature="0" />
    <path
       d="m 28.319564,232.07393 7.2,-12.47077 1.75749,1.01469 -7.2,12.47077 z"
       style="font-style:normal;font-variant:normal;font-weight:normal;font-stretch:normal;font-size:21.58920479px;line-height:1.25;font-family:'DIN 1451 Engschrift';-inkscape-font-specification:'DIN 1451 Engschrift';letter-spacing:2.81516671px;word-spacing:0px;fill:#000000;fill-opacity:1;stroke:none;stroke-width:0.53973013"
       id="path4736"
       inkscape:connector-curvature="0" />
    <path
       d="m 39.812594,238.70943 -5.30989,-3.06566 7.2,-12.47077 1.77619,1.02549 -6.16371,10.67586 3.5337,2.04018 z"
       style="font-style:normal;font-variant:normal;font-weight:normal;font-stretch:normal;font-size:21.58920479px;line-height:1.25;font-family:'DIN 1451 Engschrift';-inkscape-font-specification:'DIN 1451 Engschrift';letter-spacing:2.81516671px;word-spacing:0px;fill:#000000;fill-opacity:1;stroke:none;stroke-width:0.53973013"
       id="path4738"
       inkscape:connector-curvature="0" />
    <path
       d="m 75.440854,259.27942 2.92425,-8.43288 -5.82225,6.75972 -1.64532,-0.94992 5.3864,-13.51785 1.90708,1.10105 -3.47148,8.04216 5.78988,-6.70363 1.32748,0.76642 -2.89188,8.37679 5.24768,-7.01667 1.88837,1.09026 -8.9575,11.45607 z"
       style="font-style:normal;font-variant:normal;font-weight:normal;font-stretch:normal;font-size:21.58920479px;line-height:1.25;font-family:'DIN 1451 Engschrift';-inkscape-font-specification:'DIN 1451 Engschrift';letter-spacing:4.39737511px;word-spacing:0px;fill:#000000;fill-opacity:1;stroke:none;stroke-width:0.53973013"
       id="path4787"
       inkscape:connector-curvature="0" />
    <path
       d="m 82.804404,263.53077 9.98582,-10.86237 1.55183,0.89595 -4.41417,14.07917 -1.90707,-1.10105 1.03882,-2.9651 -2.31841,-1.33853 -2.04844,2.38219 z m 5.21538,-2.77244 1.68272,0.97151 1.78173,-5.02908 z"
       style="font-style:normal;font-variant:normal;font-weight:normal;font-stretch:normal;font-size:21.58920479px;line-height:1.25;font-family:'DIN 1451 Engschrift';-inkscape-font-specification:'DIN 1451 Engschrift';letter-spacing:4.39737511px;word-spacing:0px;fill:#000000;fill-opacity:1;stroke:none;stroke-width:0.53973013"
       id="path4789"
       inkscape:connector-curvature="0" />
    <path
       d="m 96.016487,271.15877 3.09804,-5.36598 1.690063,-8.49729 1.86968,1.07946 -1.37773,5.71104 4.29444,-4.02708 1.86968,1.07946 -6.56993,5.67989 -3.098053,5.36598 z"
       style="font-style:normal;font-variant:normal;font-weight:normal;font-stretch:normal;font-size:21.58920479px;line-height:1.25;font-family:'DIN 1451 Engschrift';-inkscape-font-specification:'DIN 1451 Engschrift';letter-spacing:4.39737511px;word-spacing:0px;fill:#000000;fill-opacity:1;stroke:none;stroke-width:0.53973013"
       id="path4791"
       inkscape:connector-curvature="0" />
    <path
       style="fill:#000000;fill-rule:nonzero;stroke:none;stroke-width:0.3018567;stroke-linecap:butt;stroke-linejoin:miter;stroke-miterlimit:4;stroke-dasharray:none;stroke-opacity:1"
       d="m 51.547879,272.49992 v 13.00023 H 32.048 V 296.5 H 84.047926 V 285.49964 H 64.547849 v -12.99972 z"
       id="path834"
       inkscape:connector-curvature="0"
       sodipodi:nodetypes="ccccccccc" />
    <path
       style="fill:#ffffff;fill-opacity:1;fill-rule:nonzero;stroke:none;stroke-width:0.28502777;stroke-linecap:butt;stroke-linejoin:miter;stroke-miterlimit:4;stroke-dasharray:none;stroke-opacity:1"
       d="m 52.04759,272.99963 5.29e-4,13.00024 H 32.548228 v 9.9999 h 50.999469 l 5.29e-4,-9.9999 H 64.048152 v -13.00024 z"
       id="path836"
       inkscape:connector-curvature="0"
       sodipodi:nodetypes="ccccccccc" />
    <g
       aria-label="TRACKS"
       style="font-style:normal;font-variant:normal;font-weight:normal;font-stretch:normal;font-size:10.77894783px;line-height:1.25;font-family:'DIN 1451 Mittelschrift';-inkscape-font-specification:'DIN 1451 Mittelschrift';letter-spacing:1.75418746px;word-spacing:0px;fill:#ff0000;fill-opacity:1;stroke:none;stroke-width:0.2694737"
       id="text899"
       transform="translate(29.338877,0.80417432)">
      <path
         d="m 7.6091234,294.13268 v -6.63685 h -2.1 v -1.03158 h 5.3631576 v 1.03158 H 8.7722814 v 6.63685 z"
         style="letter-spacing:1.75418746px;fill:#000000;stroke:none;stroke-width:0.2694737"
         id="path902"
         inkscape:connector-curvature="0" />
      <path
         d="m 14.609679,287.49583 v 2.32632 h 1.757895 q 0.652632,0 0.978948,-0.36316 0.326315,-0.36316 0.326315,-0.85263 0,-0.58421 -0.389473,-0.87368 -0.326316,-0.23685 -0.847369,-0.23685 z m -1.163157,6.63685 v -7.66843 h 3 q 0.98421,0 1.557894,0.50527 0.321053,0.27894 0.542106,0.7 0.226316,0.42105 0.226316,0.93684 0,0.7421 -0.4,1.31579 -0.394737,0.56842 -1.089474,0.80526 l 1.778947,3.40527 h -1.378947 l -1.584211,-3.27369 h -1.489474 v 3.27369 z"
         style="letter-spacing:1.75418746px;fill:#000000;stroke:none;stroke-width:0.2694737"
         id="path904"
         inkscape:connector-curvature="0" />
      <path
         d="m 20.967123,294.12741 2.8,-7.67368 h 0.957895 l 2.8,7.67368 h -1.221052 l -0.589474,-1.73158 h -2.910527 l -0.610526,1.73158 z m 2.178948,-2.75789 h 2.221052 q -0.242105,-0.71053 -0.38421,-1.11053 -0.136842,-0.40526 -0.242105,-0.71579 -0.1,-0.31052 -0.205264,-0.63158 -0.105263,-0.32105 -0.278947,-0.86842 -0.18421,0.56842 -0.294737,0.91053 -0.110526,0.33684 -0.215789,0.65263 -0.1,0.31579 -0.236842,0.70526 -0.131579,0.38948 -0.363158,1.0579 z"
         style="letter-spacing:1.75418746px;fill:#000000;stroke:none;stroke-width:0.2694737"
         id="path906"
         inkscape:connector-curvature="0" />
      <path
         d="m 34.189731,291.99057 h 1.226316 q -0.226315,1.07368 -0.968421,1.64211 -0.742105,0.56315 -1.726316,0.56315 -0.905263,0 -1.521052,-0.43158 -0.610527,-0.43684 -0.878948,-0.9421 -0.189473,-0.33684 -0.263158,-0.73684 -0.07368,-0.4 -0.07368,-1.78421 0,-1.38421 0.07368,-1.78421 0.07369,-0.4 0.263158,-0.73685 0.268421,-0.5 0.878948,-0.9421 0.615789,-0.44211 1.521052,-0.44211 1.089474,0 1.8,0.67369 0.71579,0.66842 0.894737,1.6 h -1.226316 q -0.142105,-0.44211 -0.531578,-0.77369 -0.384211,-0.33158 -0.936843,-0.33158 -0.410526,0 -0.710526,0.16843 -0.3,0.16842 -0.473684,0.38947 -0.226316,0.29474 -0.310527,0.64737 -0.07895,0.35263 -0.07895,1.53158 0,1.18421 0.07895,1.53684 0.08421,0.35263 0.310527,0.63684 0.173684,0.23158 0.473684,0.4 0.3,0.16316 0.710526,0.16316 0.968421,0 1.468421,-1.04737 z"
         style="letter-spacing:1.75418746px;fill:#000000;stroke:none;stroke-width:0.2694737"
         id="path908"
         inkscape:connector-curvature="0" />
      <path
         d="m 37.996551,294.13268 v -7.66843 h 1.163158 v 3.95264 h 0.02632 l 3.152632,-3.95264 h 1.38421 l -2.457894,3.02632 2.715789,4.64211 h -1.378947 l -2.094737,-3.74737 -1.347369,1.41052 v 2.33685 z"
         style="letter-spacing:1.75418746px;fill:#000000;stroke:none;stroke-width:0.2694737"
         id="path910"
         inkscape:connector-curvature="0" />
      <path
         d="m 45.882316,293.1432 0.768421,-0.87368 q 0.431579,0.34737 0.994737,0.55789 0.563158,0.21053 1.178948,0.21053 0.710526,0 1.115789,-0.29474 0.405263,-0.29474 0.405263,-0.77368 0,-0.90527 -1,-1.03684 -0.263158,-0.0316 -0.489473,-0.0632 -0.226316,-0.0316 -0.526316,-0.0737 -0.994737,-0.13684 -1.51579,-0.72631 -0.521052,-0.59474 -0.521052,-1.43158 0,-0.97895 0.652631,-1.61053 0.657895,-0.63158 1.847369,-0.63158 0.710526,0 1.336842,0.22632 0.626316,0.22631 1.152631,0.57368 l -0.647368,0.9579 q -0.421053,-0.26316 -0.905263,-0.42632 -0.484211,-0.16316 -0.989474,-0.16316 -0.536842,0 -0.910526,0.27369 -0.373684,0.27368 -0.373684,0.82105 0,0.32632 0.252631,0.61053 0.252632,0.28421 0.836842,0.37368 0.152632,0.0263 0.368421,0.0579 0.21579,0.0263 0.494737,0.0579 1.073684,0.13158 1.584211,0.77895 0.515789,0.64737 0.515789,1.43158 0,1.05789 -0.731579,1.6421 -0.731579,0.58421 -1.963158,0.58421 -1.731579,0 -2.931579,-1.05263 z"
         style="letter-spacing:1.75418746px;fill:#000000;stroke:none;stroke-width:0.2694737"
         id="path912"
         inkscape:connector-curvature="0" />
    </g>
    <rect
       style="opacity:1;fill:none;fill-opacity:1;fill-rule:nonzero;stroke:#000000;stroke-width:0.19992851;stroke-linecap:square;stroke-linejoin:round;stroke-miterlimit:4;stroke-dasharray:1.5994281, 1.5994281;stroke-dashoffset:1.15958536;stroke-opacity:1;paint-order:stroke fill markers"
       id="rect915"
       width="9.8000717"
       height="10.800072"
       x="53.147957"
       y="-284.8999"
       transform="scale(1,-1)" />
  </g>
</svg>
