<?xml version="1.0" encoding="UTF-8" standalone="no"?>
<!-- Created with Inkscape (http://www.inkscape.org/) -->

<svg
   xmlns:dc="http://purl.org/dc/elements/1.1/"
   xmlns:cc="http://creativecommons.org/ns#"
   xmlns:rdf="http://www.w3.org/1999/02/22-rdf-syntax-ns#"
   xmlns:svg="http://www.w3.org/2000/svg"
   xmlns="http://www.w3.org/2000/svg"
   xmlns:sodipodi="http://sodipodi.sourceforge.net/DTD/sodipodi-0.dtd"
   xmlns:inkscape="http://www.inkscape.org/namespaces/inkscape"
   width="91mm"
   height="80.537003mm"
   viewBox="0 0 91 80.537003"
   version="1.1"
   id="svg863"
   inkscape:version="0.92.2 (5c3e80d, 2017-08-06)"
   sodipodi:docname="94.svg">
  <defs
     id="defs857" />
  <sodipodi:namedview
     id="base"
     pagecolor="#ffffff"
     bordercolor="#666666"
     borderopacity="1.0"
     inkscape:pageopacity="0.0"
     inkscape:pageshadow="2"
     inkscape:zoom="1.2416316"
     inkscape:cx="154.13019"
     inkscape:cy="75.956295"
     inkscape:document-units="mm"
     inkscape:current-layer="layer1"
     showgrid="false"
     inkscape:window-width="1920"
     inkscape:window-height="1057"
     inkscape:window-x="-8"
     inkscape:window-y="-8"
     inkscape:window-maximized="1"
     inkscape:snap-global="false"
     inkscape:measure-start="0,0"
     inkscape:measure-end="0,0" />
  <metadata
     id="metadata860">
    <rdf:RDF>
      <cc:Work
         rdf:about="">
        <dc:format>image/svg+xml</dc:format>
        <dc:type
           rdf:resource="http://purl.org/dc/dcmitype/StillImage" />
        <dc:title></dc:title>
      </cc:Work>
    </rdf:RDF>
  </metadata>
  <g
     inkscape:label="Layer 1"
     inkscape:groupmode="layer"
     id="layer1"
     transform="translate(0,-216.463)">
    <path
       inkscape:connector-curvature="0"
       id="path814"
       d="M 84.550423,290.54997 45.499941,222.91262 6.4496006,290.54992 Z"
       inkscape:transform-center-y="4.393997"
       inkscape:transform-center-x="27.135595"
       style="opacity:1;fill:none;fill-opacity:1;stroke:#dc0a14;stroke-width:11.9000721;stroke-linecap:butt;stroke-linejoin:round;stroke-miterlimit:4;stroke-dasharray:none;stroke-dashoffset:0;stroke-opacity:1"
       sodipodi:nodetypes="cccc" />
    <path
       sodipodi:nodetypes="cccc"
       inkscape:connector-curvature="0"
       id="path818"
       d="M 81.173021,288.59999 45.499991,226.81248 9.8269506,288.59995 Z"
       style="opacity:1;fill:#fad20a;fill-opacity:1;fill-rule:nonzero;stroke:none;stroke-width:11.93114281;stroke-linecap:butt;stroke-linejoin:round;stroke-miterlimit:4;stroke-dasharray:none;stroke-dashoffset:0;stroke-opacity:1" />
    <path
       sodipodi:nodetypes="cccccccccccccccccccccc"
       inkscape:connector-curvature="0"
       id="path844"
       d="m 47.626293,252.44 c -2.08836,0.018 -3.7485,0.20292 -4.96291,0.31994 -1.02098,0.10755 -2.194,0.8504 -2.54245,2.2395 l -1.1068,4.28863 c -0.55388,0.24279 -1.29415,1.09418 -1.31411,2.5076 l 0.34585,4.08133 c 0.0823,0.7644 0.36016,1.66483 0.95129,2.01475 V 270.6 h 2.68052 v -2.68236 c 1.72646,0.12464 6.83432,0.17801 7.52234,0.17293 0.68801,0.005 5.79632,-0.0484 7.52279,-0.17293 V 270.6 h 2.68007 v -2.70825 c 0.59113,-0.34992 0.86898,-1.25035 0.95129,-2.01475 l 0.34585,-4.08133 c -0.02,-1.41342 -0.76024,-2.26481 -1.31412,-2.5076 l -1.10679,-4.28863 c -0.34845,-1.3891 -1.52147,-2.13195 -2.54245,-2.2395 -1.21441,-0.11702 -2.87455,-0.30187 -4.96291,-0.31994 z"
       style="fill:#003c82;fill-opacity:1;fill-rule:nonzero;stroke:none;stroke-width:0.15047894" />
    <path
       style="fill:none;fill-rule:evenodd;stroke:#fad20a;stroke-width:1.20000005;stroke-miterlimit:4;stroke-dasharray:none;stroke-opacity:1"
       d="m 39.826283,260.14 c -2.08836,0.018 -3.74849,0.20292 -4.9629,0.31994 -1.02098,0.10755 -2.194,0.8504 -2.54245,2.2395 l -1.10679,4.28863 c -0.55389,0.24279 -1.29416,1.09418 -1.31412,2.5076 l 0.34585,4.08133 c 0.0823,0.7644 0.36016,1.66483 0.95129,2.01475 V 278.3 h 2.68052 v -2.68236 c 1.72646,0.12464 6.83432,0.17801 7.52234,0.17293 0.68801,0.005 5.79632,-0.0484 7.52279,-0.17293 V 278.3 h 2.68007 v -2.70825 c 0.59113,-0.34992 0.86898,-1.25035 0.95129,-2.01475 l 0.34585,-4.08133 c -0.02,-1.41342 -0.76024,-2.26481 -1.31412,-2.5076 l -1.10679,-4.28863 c -0.34845,-1.3891 -1.52147,-2.13195 -2.54245,-2.2395 -1.21441,-0.11702 -2.87454,-0.30187 -4.96291,-0.31994 z"
       id="path848"
       inkscape:connector-curvature="0"
       sodipodi:nodetypes="cccccccccccccccccccccc" />
    <path
       sodipodi:nodetypes="cccccccccccccccccccccc"
       inkscape:connector-curvature="0"
       id="path884"
       d="m 39.826283,260.14 c -2.08836,0.018 -3.74849,0.20292 -4.9629,0.31994 -1.02098,0.10755 -2.194,0.8504 -2.54245,2.2395 l -1.10679,4.28863 c -0.55389,0.24279 -1.29416,1.09418 -1.31412,2.5076 l 0.34585,4.08133 c 0.0823,0.7644 0.36016,1.66483 0.95129,2.01475 V 278.3 h 2.68052 v -2.68236 c 1.72646,0.12464 6.83432,0.17801 7.52234,0.17293 0.68801,0.005 5.79632,-0.0484 7.52279,-0.17293 V 278.3 h 2.68007 v -2.70825 c 0.59113,-0.34992 0.86898,-1.25035 0.95129,-2.01475 l 0.34585,-4.08133 c -0.02,-1.41342 -0.76024,-2.26481 -1.31412,-2.5076 l -1.10679,-4.28863 c -0.34845,-1.3891 -1.52147,-2.13195 -2.54245,-2.2395 -1.21441,-0.11702 -2.87454,-0.30187 -4.96291,-0.31994 z"
       style="fill:#003c82;fill-opacity:1;fill-rule:nonzero;stroke:none;stroke-width:0.15047894" />
    <path
       style="fill:none;fill-rule:evenodd;stroke:#fad20a;stroke-width:1.20000005;stroke-miterlimit:4;stroke-dasharray:none;stroke-opacity:1"
       d="m 32.026293,267.84 c -2.08836,0.018 -3.7485,0.20292 -4.96291,0.31994 -1.02098,0.10755 -2.194,0.8504 -2.54245,2.2395 l -1.10679,4.28863 c -0.55389,0.24279 -1.29416,1.09418 -1.31412,2.5076 l 0.34585,4.08133 c 0.0823,0.7644 0.36016,1.66483 0.95129,2.01475 V 286 h 2.68052 v -2.68236 c 1.72646,0.12464 6.83432,0.17801 7.52234,0.17293 0.68801,0.005 5.79631,-0.0484 7.52279,-0.17293 V 286 h 2.68007 v -2.70825 c 0.59113,-0.34992 0.86897,-1.25035 0.95129,-2.01475 l 0.34585,-4.08133 c -0.02,-1.41342 -0.76024,-2.26481 -1.31413,-2.5076 l -1.10678,-4.28863 c -0.34845,-1.3891 -1.52147,-2.13195 -2.54245,-2.2395 -1.21441,-0.11702 -2.87455,-0.30187 -4.96291,-0.31994 z"
       id="path907"
       inkscape:connector-curvature="0"
       sodipodi:nodetypes="cccccccccccccccccccccc" />
    <path
       sodipodi:nodetypes="cccccccccccccccccccccc"
       inkscape:connector-curvature="0"
       id="path931"
       d="m 32.026293,267.84 c -2.08836,0.018 -3.7485,0.20292 -4.96291,0.31994 -1.02098,0.10755 -2.194,0.8504 -2.54245,2.2395 l -1.10679,4.28863 c -0.55389,0.24279 -1.29416,1.09418 -1.31412,2.5076 l 0.34585,4.08133 c 0.0823,0.7644 0.36016,1.66483 0.95129,2.01475 V 286 h 2.68052 v -2.68236 c 1.72646,0.12464 6.83432,0.17801 7.52234,0.17293 0.68801,0.005 5.79631,-0.0484 7.52279,-0.17293 V 286 h 2.68007 v -2.70825 c 0.59113,-0.34992 0.86897,-1.25035 0.95129,-2.01475 l 0.34585,-4.08133 c -0.02,-1.41342 -0.76024,-2.26481 -1.31413,-2.5076 l -1.10678,-4.28863 c -0.34845,-1.3891 -1.52147,-2.13195 -2.54245,-2.2395 -1.21441,-0.11702 -2.87455,-0.30187 -4.96291,-0.31994 z"
       style="fill:#003c82;fill-opacity:1;fill-rule:nonzero;stroke:none;stroke-width:0.15047894" />
    <path
       style="fill:#fad20a;fill-opacity:1;fill-rule:nonzero;stroke:none;stroke-width:0.15052633"
       d="m 25.104857,274.06991 0.73639,-3.45974 c 0.1634,-0.64417 0.71688,-1.02586 1.21957,-1.10691 l 2.19728,-0.20774 c 0.94291,-0.10362 3.15768,-0.15054 4.34185,-0.15554 1.18417,0.005 3.39894,0.0519 4.34186,0.15554 l 2.19676,0.20774 c 0.5027,0.0809 1.05616,0.46274 1.21956,1.10691 l 0.73691,3.45974 z"
       id="path975"
       inkscape:connector-curvature="0"
       sodipodi:nodetypes="cccccccccc" />
    <path
       sodipodi:nodetypes="cccccccccc"
       inkscape:connector-curvature="0"
       id="path994"
       d="m 32.904864,266.36991 0.73639,-3.45974 c 0.1634,-0.64417 0.71688,-1.02586 1.21957,-1.10691 l 2.19728,-0.20774 c 0.94291,-0.10362 3.15768,-0.15054 4.34185,-0.15554 1.18417,0.005 3.39894,0.0519 4.34186,0.15554 l 2.19676,0.20774 c 0.5027,0.0809 1.05616,0.46274 1.21956,1.10691 l 0.73691,3.45974 z"
       style="fill:#fad20a;fill-opacity:1;fill-rule:nonzero;stroke:none;stroke-width:0.15052633" />
    <path
       style="fill:#fad20a;fill-opacity:1;fill-rule:nonzero;stroke:none;stroke-width:0.15052633"
       d="m 40.704869,258.66991 0.73639,-3.45974 c 0.1634,-0.64417 0.71688,-1.02586 1.21957,-1.10691 l 2.19728,-0.20774 c 0.94291,-0.10362 3.15768,-0.15054 4.34185,-0.15554 1.18417,0.005 3.398935,0.0519 4.341855,0.15554 l 2.19676,0.20774 c 0.5027,0.0809 1.05616,0.46274 1.21956,1.10691 l 0.73691,3.45974 z"
       id="path1007"
       inkscape:connector-curvature="0"
       sodipodi:nodetypes="cccccccccc" />
  </g>
</svg>
