<?xml version="1.0" encoding="UTF-8" standalone="no"?>
<!-- Created with Inkscape (http://www.inkscape.org/) -->

<svg
   xmlns:dc="http://purl.org/dc/elements/1.1/"
   xmlns:cc="http://creativecommons.org/ns#"
   xmlns:rdf="http://www.w3.org/1999/02/22-rdf-syntax-ns#"
   xmlns:svg="http://www.w3.org/2000/svg"
   xmlns="http://www.w3.org/2000/svg"
   xmlns:sodipodi="http://sodipodi.sourceforge.net/DTD/sodipodi-0.dtd"
   xmlns:inkscape="http://www.inkscape.org/namespaces/inkscape"
   width="83.372002mm"
   height="83.372002mm"
   viewBox="0 0 83.372002 83.372002"
   version="1.1"
   id="svg8"
   inkscape:version="0.92.2 (5c3e80d, 2017-08-06)"
   sodipodi:docname="95.svg">
  <defs
     id="defs2" />
  <sodipodi:namedview
     id="base"
     pagecolor="#ffffff"
     bordercolor="#666666"
     borderopacity="1.0"
     inkscape:pageopacity="0.0"
     inkscape:pageshadow="2"
     inkscape:zoom="1.4"
     inkscape:cx="186.97325"
     inkscape:cy="106.97988"
     inkscape:document-units="mm"
     inkscape:current-layer="layer1"
     showgrid="false"
     fit-margin-top="0"
     fit-margin-left="0"
     fit-margin-right="0"
     fit-margin-bottom="0"
     inkscape:window-width="1920"
     inkscape:window-height="1057"
     inkscape:window-x="-8"
     inkscape:window-y="-8"
     inkscape:window-maximized="1" />
  <metadata
     id="metadata5">
    <rdf:RDF>
      <cc:Work
         rdf:about="">
        <dc:format>image/svg+xml</dc:format>
        <dc:type
           rdf:resource="http://purl.org/dc/dcmitype/StillImage" />
        <dc:title></dc:title>
      </cc:Work>
    </rdf:RDF>
  </metadata>
  <g
     inkscape:label="Layer 1"
     inkscape:groupmode="layer"
     id="layer1"
     transform="translate(-4.1733084e-4,-213.62758)">
    <rect
       style="opacity:1;fill:#000000;fill-opacity:1;fill-rule:nonzero;stroke:none;stroke-width:21.49853706;stroke-linecap:square;stroke-linejoin:round;stroke-miterlimit:4;stroke-dasharray:none;stroke-opacity:1;paint-order:stroke fill markers"
       id="rect815"
       width="60"
       height="60"
       x="-181.05711"
       y="180.01071"
       rx="3.0009999"
       ry="3.0009999"
       transform="rotate(-45)" />
    <rect
       ry="1.5"
       rx="1.5"
       y="181.51071"
       x="-179.55711"
       height="57"
       width="57"
       id="rect817"
       style="opacity:1;fill:#fad20a;fill-opacity:1;fill-rule:nonzero;stroke:none;stroke-width:20.42361069;stroke-linecap:square;stroke-linejoin:round;stroke-miterlimit:4;stroke-dasharray:none;stroke-opacity:1;paint-order:stroke fill markers"
       transform="rotate(-45)" />
    <path
       sodipodi:nodetypes="cccccccccccccccccccccc"
       inkscape:connector-curvature="0"
       id="path844"
       d="m 47.912811,238.53355 c -2.088361,0.018 -3.748501,0.20292 -4.962911,0.31994 -1.02098,0.10755 -2.193999,0.8504 -2.54245,2.2395 l -1.1068,4.28863 c -0.55388,0.24279 -1.294149,1.09418 -1.31411,2.5076 l 0.34585,4.08133 c 0.0823,0.7644 0.36016,1.66483 0.951291,2.01475 v 2.70825 H 41.9642 v -2.68236 c 1.72646,0.12464 6.834321,0.17801 7.522341,0.17293 0.688009,0.005 5.79632,-0.0484 7.52279,-0.17293 v 2.68236 h 2.68007 v -2.70825 c 0.59113,-0.34992 0.86898,-1.25035 0.95129,-2.01475 l 0.34585,-4.08133 c -0.02,-1.41342 -0.76024,-2.26481 -1.31412,-2.5076 l -1.10679,-4.28863 c -0.34845,-1.3891 -1.52147,-2.13195 -2.54245,-2.2395 -1.21441,-0.11702 -2.87455,-0.30187 -4.96291,-0.31994 z"
       style="fill:#000000;fill-opacity:1;fill-rule:nonzero;stroke:none;stroke-width:0.15047894" />
    <path
       sodipodi:nodetypes="cccccccccccccccccccccc"
       inkscape:connector-curvature="0"
       id="path884"
       d="m 40.112801,246.23355 c -2.088361,0.018 -3.748491,0.20292 -4.962901,0.31994 -1.020981,0.10755 -2.194,0.8504 -2.542449,2.2395 l -1.106791,4.28863 c -0.55389,0.24279 -1.294159,1.09418 -1.31412,2.5076 l 0.34585,4.08133 c 0.0823,0.7644 0.360159,1.66483 0.951291,2.01475 v 2.70825 h 2.680521 v -2.68236 c 1.726458,0.12464 6.834319,0.17801 7.522338,0.17293 0.68801,0.005 5.796321,-0.0484 7.522791,-0.17293 v 2.68236 h 2.68007 v -2.70825 c 0.59113,-0.34992 0.86898,-1.25035 0.95129,-2.01475 l 0.34585,-4.08133 c -0.02,-1.41342 -0.76024,-2.26481 -1.31412,-2.5076 l -1.10679,-4.28863 c -0.34845,-1.3891 -1.52147,-2.13195 -2.54245,-2.2395 -1.214411,-0.11702 -2.874541,-0.30187 -4.962911,-0.31994 z"
       style="fill:none;fill-opacity:1;fill-rule:nonzero;stroke:#fad20a;stroke-width:1.20000005;stroke-miterlimit:4;stroke-dasharray:none;stroke-opacity:1" />
    <path
       style="fill:#fad20a;fill-opacity:1;fill-rule:nonzero;stroke:none;stroke-width:0.15052633"
       d="m 40.991387,244.76346 0.736389,-3.45974 c 0.163401,-0.64417 0.716881,-1.02586 1.21957,-1.10691 l 2.197281,-0.20774 c 0.942909,-0.10362 3.15768,-0.15054 4.34185,-0.15554 1.18417,0.005 3.398935,0.0519 4.341855,0.15554 l 2.19676,0.20774 c 0.5027,0.0809 1.05616,0.46274 1.21956,1.10691 l 0.73691,3.45974 z"
       id="path1007"
       inkscape:connector-curvature="0"
       sodipodi:nodetypes="cccccccccc" />
    <path
       style="fill:#000000;fill-opacity:1;fill-rule:nonzero;stroke:none;stroke-width:0.15047894"
       d="m 40.112801,246.23355 c -2.088361,0.018 -3.748491,0.20292 -4.962901,0.31994 -1.020981,0.10755 -2.194,0.8504 -2.542449,2.2395 l -1.106791,4.28863 c -0.55389,0.24279 -1.294159,1.09418 -1.31412,2.5076 l 0.34585,4.08133 c 0.0823,0.7644 0.360159,1.66483 0.951291,2.01475 v 2.70825 h 2.680521 v -2.68236 c 1.726458,0.12464 6.834319,0.17801 7.522338,0.17293 0.68801,0.005 5.796321,-0.0484 7.522791,-0.17293 v 2.68236 h 2.68007 v -2.70825 c 0.59113,-0.34992 0.86898,-1.25035 0.95129,-2.01475 l 0.34585,-4.08133 c -0.02,-1.41342 -0.76024,-2.26481 -1.31412,-2.5076 l -1.10679,-4.28863 c -0.34845,-1.3891 -1.52147,-2.13195 -2.54245,-2.2395 -1.214411,-0.11702 -2.874541,-0.30187 -4.962911,-0.31994 z"
       id="path830"
       inkscape:connector-curvature="0"
       sodipodi:nodetypes="cccccccccccccccccccccc" />
    <path
       style="fill:#fad20a;fill-opacity:1;fill-rule:nonzero;stroke:none;stroke-width:0.15052633"
       d="m 33.191382,252.46346 0.736391,-3.45974 c 0.163398,-0.64417 0.716878,-1.02586 1.219568,-1.10691 l 2.197281,-0.20774 c 0.942909,-0.10362 3.157679,-0.15054 4.34185,-0.15554 1.18417,0.005 3.398939,0.0519 4.341859,0.15554 l 2.19676,0.20774 c 0.502701,0.0809 1.056161,0.46274 1.219561,1.10691 l 0.73691,3.45974 z"
       id="path832"
       inkscape:connector-curvature="0"
       sodipodi:nodetypes="cccccccccc" />
    <path
       style="fill:none;fill-opacity:1;fill-rule:nonzero;stroke:#fad20a;stroke-width:1.20000005;stroke-miterlimit:4;stroke-dasharray:none;stroke-opacity:1"
       d="m 32.312811,253.93355 c -2.088361,0.018 -3.7485,0.20292 -4.962911,0.31994 -1.020979,0.10755 -2.193999,0.8504 -2.54245,2.2395 l -1.106789,4.28863 c -0.553892,0.24279 -1.294162,1.09418 -1.314122,2.5076 l 0.34585,4.08133 c 0.0823,0.7644 0.360162,1.66483 0.951291,2.01475 v 2.70825 h 2.68052 v -2.68236 c 1.726459,0.12464 6.83432,0.17801 7.52234,0.17293 0.68801,0.005 5.796311,-0.0484 7.52279,-0.17293 v 2.68236 h 2.68007 v -2.70825 c 0.59113,-0.34992 0.86897,-1.25035 0.951291,-2.01475 l 0.345849,-4.08133 c -0.02,-1.41342 -0.76024,-2.26481 -1.314129,-2.5076 l -1.106781,-4.28863 c -0.348449,-1.3891 -1.52147,-2.13195 -2.54245,-2.2395 -1.21441,-0.11702 -2.87455,-0.30187 -4.96291,-0.31994 z"
       id="path853"
       inkscape:connector-curvature="0"
       sodipodi:nodetypes="cccccccccccccccccccccc" />
    <path
       sodipodi:nodetypes="cccccccccccccccccccccc"
       inkscape:connector-curvature="0"
       id="path877"
       d="m 32.312811,253.93355 c -2.088361,0.018 -3.7485,0.20292 -4.962911,0.31994 -1.020979,0.10755 -2.193999,0.8504 -2.54245,2.2395 l -1.106789,4.28863 c -0.553892,0.24279 -1.294162,1.09418 -1.314122,2.5076 l 0.34585,4.08133 c 0.0823,0.7644 0.360162,1.66483 0.951291,2.01475 v 2.70825 h 2.68052 v -2.68236 c 1.726459,0.12464 6.83432,0.17801 7.52234,0.17293 0.68801,0.005 5.796311,-0.0484 7.52279,-0.17293 v 2.68236 h 2.68007 v -2.70825 c 0.59113,-0.34992 0.86897,-1.25035 0.951291,-2.01475 l 0.345849,-4.08133 c -0.02,-1.41342 -0.76024,-2.26481 -1.314129,-2.5076 l -1.106781,-4.28863 c -0.348449,-1.3891 -1.52147,-2.13195 -2.54245,-2.2395 -1.21441,-0.11702 -2.87455,-0.30187 -4.96291,-0.31994 z"
       style="fill:#000000;fill-opacity:1;fill-rule:nonzero;stroke:none;stroke-width:0.15047894" />
    <path
       style="fill:#fad20a;fill-opacity:1;fill-rule:nonzero;stroke:none;stroke-width:0.15052633"
       d="m 25.391375,260.16346 0.736388,-3.45974 c 0.163402,-0.64417 0.716881,-1.02586 1.219571,-1.10691 l 2.19728,-0.20774 c 0.942911,-0.10362 3.15768,-0.15054 4.341849,-0.15554 1.184171,0.005 3.398941,0.0519 4.341862,0.15554 l 2.19676,0.20774 c 0.502699,0.0809 1.056159,0.46274 1.219559,1.10691 l 0.73691,3.45974 z"
       id="path879"
       inkscape:connector-curvature="0"
       sodipodi:nodetypes="cccccccccc" />
  </g>
</svg>
