<?xml version="1.0" encoding="UTF-8" standalone="no"?>
<!-- Created with Inkscape (http://www.inkscape.org/) -->

<svg
   xmlns:dc="http://purl.org/dc/elements/1.1/"
   xmlns:cc="http://creativecommons.org/ns#"
   xmlns:rdf="http://www.w3.org/1999/02/22-rdf-syntax-ns#"
   xmlns:svg="http://www.w3.org/2000/svg"
   xmlns="http://www.w3.org/2000/svg"
   xmlns:sodipodi="http://sodipodi.sourceforge.net/DTD/sodipodi-0.dtd"
   xmlns:inkscape="http://www.inkscape.org/namespaces/inkscape"
   width="83.372002mm"
   height="83.372002mm"
   viewBox="0 0 83.372002 83.372002"
   version="1.1"
   id="svg8"
   inkscape:version="0.92.2 (5c3e80d, 2017-08-06)"
   sodipodi:docname="66.svg">
  <defs
     id="defs2" />
  <sodipodi:namedview
     id="base"
     pagecolor="#ffffff"
     bordercolor="#666666"
     borderopacity="1.0"
     inkscape:pageopacity="0.0"
     inkscape:pageshadow="2"
     inkscape:zoom="1.4"
     inkscape:cx="215.21038"
     inkscape:cy="138.41213"
     inkscape:document-units="mm"
     inkscape:current-layer="layer1"
     showgrid="false"
     fit-margin-top="0"
     fit-margin-left="0"
     fit-margin-right="0"
     fit-margin-bottom="0"
     inkscape:window-width="1920"
     inkscape:window-height="1057"
     inkscape:window-x="-8"
     inkscape:window-y="-8"
     inkscape:window-maximized="1" />
  <metadata
     id="metadata5">
    <rdf:RDF>
      <cc:Work
         rdf:about="">
        <dc:format>image/svg+xml</dc:format>
        <dc:type
           rdf:resource="http://purl.org/dc/dcmitype/StillImage" />
        <dc:title></dc:title>
      </cc:Work>
    </rdf:RDF>
  </metadata>
  <g
     inkscape:label="Layer 1"
     inkscape:groupmode="layer"
     id="layer1"
     transform="translate(-4.1733084e-4,-213.62758)">
    <rect
       style="opacity:1;fill:#000000;fill-opacity:1;fill-rule:nonzero;stroke:none;stroke-width:21.49853706;stroke-linecap:square;stroke-linejoin:round;stroke-miterlimit:4;stroke-dasharray:none;stroke-opacity:1;paint-order:stroke fill markers"
       id="rect815"
       width="60"
       height="60"
       x="-181.05711"
       y="180.01071"
       rx="3.0009999"
       ry="3.0009999"
       transform="rotate(-45)" />
    <rect
       ry="1.5"
       rx="1.5"
       y="181.51071"
       x="-179.55711"
       height="57"
       width="57"
       id="rect817"
       style="opacity:1;fill:#fad20a;fill-opacity:1;fill-rule:nonzero;stroke:none;stroke-width:20.42361069;stroke-linecap:square;stroke-linejoin:round;stroke-miterlimit:4;stroke-dasharray:none;stroke-opacity:1;paint-order:stroke fill markers"
       transform="rotate(-45)" />
    <path
       id="path962"
       d="m 36.413723,262.23417 c 0.101453,-0.26402 3.58109,-7.50757 3.668905,-8.12414 0.08782,-0.60307 -0.641801,-5.67139 -0.756681,-5.77981 -0.121582,-0.12193 -5.39809,3.90287 -5.6143,3.91641 -0.22308,0 -0.45251,-0.27092 -0.57424,-0.26405 -0.0946,0.006 -0.70265,0.60302 -1.00667,0.7453 -0.10145,0.054 -0.2162,0.088 -0.34465,0.0947 -0.473106,0.0196 -0.878266,-0.41352 -0.898556,-0.95538 -0.0147,-0.3186 0.12157,-0.64372 0.24316,-0.77924 0.12846,-0.13571 0.324066,-0.31173 0.479476,-0.35253 0.15541,-0.0493 0.3579,-0.054 0.47312,-0.12196 0.10146,-0.054 0.0946,-0.52852 0.0946,-0.52852 0,0 4.600866,-3.30659 4.810354,-3.51664 0.216212,-0.20996 1.945745,-4.85151 2.270043,-5.19029 0.317684,-0.3319 1.661958,-1.64652 1.661958,-1.64652 l 0.01968,-0.56919 c 0,0 -1.202593,-0.38649 -1.290387,-0.5827 -0.08092,-0.20307 -0.770209,-2.60192 -0.770209,-2.60192 l -1.351226,-0.41992 -0.05395,-0.40665 1.668712,-0.75887 0.03437,-0.96891 c 0,0 1.31745,-0.68438 2.216015,-0.60306 0.89179,0.088 1.776819,0.51495 1.790366,0.7521 0.005,0.24389 0.03447,1.07736 0.03447,1.07736 l 1.844384,0.76568 -0.01979,0.39975 -1.736329,1.00962 0.189238,2.71029 c 0,0 3.34426,1.53812 3.54017,1.76849 0.189249,0.23701 4.205529,4.8583 4.333926,5.10218 0.114739,0.2306 1.229585,6.36928 1.10795,6.36928 -0.101491,0.006 -0.533696,0.39287 -0.533696,0.39287 0,0 0.162272,1.28065 -0.148545,1.73462 -0.01468,0.0245 -0.03437,0.0394 -0.04905,0.054 -0.155424,0.28471 -0.432427,0.48087 -0.77021,0.49465 -0.513458,0.0196 -0.959358,-0.41991 -0.979646,-0.98931 0,-0.12881 0.01469,-0.25076 0.04895,-0.36584 l 0.06074,-0.49463 -0.378484,-0.34566 c 0,0 -0.689125,-4.93958 -0.844486,-5.05474 -0.155428,-0.10816 -3.057034,-2.7781 -3.057034,-2.7781 l 1.094476,8.93735 c 0.01969,0.48087 -0.270129,0.89436 -0.675587,1.02311 l 5.056195,16.30262 c 0.128447,0.33189 0.01468,0.71823 -0.283863,0.88083 l -4.33064,2.19541 c -0.243154,0.12882 -0.533744,0.006 -0.655338,-0.26406 -0.114718,-0.26405 0.344667,-0.87405 0.250039,-0.7521 0.06074,-0.088 0.263276,-0.35895 0.520229,-0.75211 0.357905,-0.54885 0.236302,-0.99603 -0.07453,-1.69395 0,0 -3.644189,-11.80346 -3.799589,-11.80346 -0.155422,0 -2.925771,5.07509 -3.081122,5.24446 l -0.01469,0.0146 -3.053798,8.55787 c -0.128436,0.33878 -0.378476,0.58948 -0.702594,0.53531 l -4.688702,-0.96221 c -0.277006,-0.054 -0.452516,-0.33189 -0.405446,-0.63017 0.0489,-0.29158 0.27013,-0.35253 0.574306,-0.44056 0.30395,-0.088 0.40544,-0.12193 1.12147,-0.29796 0.68235,-0.0948 1.03367,-0.54885 1.19586,-1.179 0,0 2.43217,-7.84636 2.540267,-8.10388"
       style="fill:#003c82;fill-opacity:1;fill-rule:nonzero;stroke:none;stroke-width:0.03122282"
       inkscape:connector-curvature="0"
       sodipodi:nodetypes="cccccccccccccccccccccccccccccccccccccccccccccccccccscccccccccc" />
  </g>
</svg>
