<?xml version="1.0" encoding="UTF-8" standalone="no"?>
<!-- Created with Inkscape (http://www.inkscape.org/) -->

<svg
   xmlns:dc="http://purl.org/dc/elements/1.1/"
   xmlns:cc="http://creativecommons.org/ns#"
   xmlns:rdf="http://www.w3.org/1999/02/22-rdf-syntax-ns#"
   xmlns:svg="http://www.w3.org/2000/svg"
   xmlns="http://www.w3.org/2000/svg"
   xmlns:sodipodi="http://sodipodi.sourceforge.net/DTD/sodipodi-0.dtd"
   xmlns:inkscape="http://www.inkscape.org/namespaces/inkscape"
   width="61mm"
   height="61mm"
   viewBox="0 0 61 61"
   version="1.1"
   id="svg2000"
   inkscape:version="0.92.2 (5c3e80d, 2017-08-06)"
   sodipodi:docname="22.svg">
  <defs
     id="defs1994" />
  <sodipodi:namedview
     id="base"
     pagecolor="#ffffff"
     bordercolor="#666666"
     borderopacity="1.0"
     inkscape:pageopacity="0.0"
     inkscape:pageshadow="2"
     inkscape:zoom="1.979899"
     inkscape:cx="146.7011"
     inkscape:cy="102.69471"
     inkscape:document-units="mm"
     inkscape:current-layer="layer1"
     showgrid="false"
     inkscape:window-width="1920"
     inkscape:window-height="1057"
     inkscape:window-x="-8"
     inkscape:window-y="-8"
     inkscape:window-maximized="1"
     fit-margin-top="0"
     fit-margin-left="0"
     fit-margin-right="0"
     fit-margin-bottom="0"
     showborder="true" />
  <metadata
     id="metadata1997">
    <rdf:RDF>
      <cc:Work
         rdf:about="">
        <dc:format>image/svg+xml</dc:format>
        <dc:type
           rdf:resource="http://purl.org/dc/dcmitype/StillImage" />
        <dc:title></dc:title>
      </cc:Work>
    </rdf:RDF>
  </metadata>
  <g
     inkscape:label="Layer 1"
     inkscape:groupmode="layer"
     id="layer1"
     transform="translate(-11,-209.40001)">
    <circle
       style="opacity:1;fill:#dc0a14;fill-opacity:1;fill-rule:nonzero;stroke:none;stroke-width:0.18410923;stroke-linecap:square;stroke-linejoin:round;stroke-miterlimit:4;stroke-dasharray:none;stroke-opacity:1;paint-order:stroke fill markers"
       id="path17"
       cx="41.5"
       cy="239.90001"
       r="30.000002" />
    <circle
       r="24"
       cy="239.90001"
       cx="41.5"
       id="circle1748"
       style="opacity:1;fill:#ffffff;fill-opacity:1;fill-rule:nonzero;stroke:none;stroke-width:0.14728737;stroke-linecap:square;stroke-linejoin:round;stroke-miterlimit:4;stroke-dasharray:none;stroke-opacity:1;paint-order:stroke fill markers" />
    <rect
       style="opacity:1;fill:#003c82;fill-opacity:1;fill-rule:nonzero;stroke:none;stroke-width:0.83758694;stroke-linecap:square;stroke-linejoin:round;stroke-miterlimit:4;stroke-dasharray:none;stroke-opacity:1;paint-order:stroke fill markers"
       id="rect824"
       width="38"
       height="6.8000002"
       x="22.500027"
       y="236.50002"
       rx="3.4000001"
       ry="3.4000001" />
    <text
       xml:space="preserve"
       style="font-style:normal;font-variant:normal;font-weight:normal;font-stretch:normal;font-size:7.05555534px;line-height:1.25;font-family:'DIN 1451 Mittelschrift';-inkscape-font-specification:'DIN 1451 Mittelschrift';letter-spacing:0px;word-spacing:0px;fill:#000000;fill-opacity:1;stroke:none;stroke-width:0.26458332"
       x="-43.030396"
       y="259.98318"
       id="text821"><tspan
         sodipodi:role="line"
         id="tspan819"
         x="-43.030396"
         y="266.53735"
         style="stroke-width:0.26458332" /></text>
    <g
       aria-label="POLICE"
       style="font-style:normal;font-variant:normal;font-weight:normal;font-stretch:normal;font-size:11.78203201px;line-height:1.25;font-family:'DIN 1451 Engschrift';-inkscape-font-specification:'DIN 1451 Engschrift';letter-spacing:0.00529167px;word-spacing:0px;fill:#000000;fill-opacity:1;stroke:none;stroke-width:0.2209131"
       id="text952"
       transform="translate(0.38507173,-20.949405)">
      <path
         d="m 29.239934,254.77872 v -7.85862 h 1.837996 q 0.341679,0 0.683358,0.14139 0.341679,0.14138 0.565538,0.37702 0.235641,0.22386 0.388807,0.54197 0.164948,0.31812 0.164948,0.61267 v 1.14286 q 0,0.43593 -0.11782,0.77761 -0.11782,0.34168 -0.412371,0.63623 -0.282769,0.28277 -0.624448,0.41237 -0.329897,0.11782 -0.777614,0.11782 h -0.589101 v 3.09868 z m 2.37997,-4.38292 q 0.106038,-0.10604 0.129602,-0.22386 0.03535,-0.11782 0.03535,-0.29455 v -0.14138 -1.02504 q 0,-0.3299 -0.200294,-0.54197 -0.200295,-0.21208 -0.541974,-0.21208 h -0.683357 v 2.66274 h 0.589101 q 0.235641,0 0.377025,-0.0354 0.153167,-0.0471 0.294551,-0.18851 z"
         style="letter-spacing:0.00529167px;fill:#003c82;stroke:none;stroke-width:0.2209131;fill-opacity:1"
         id="path954"
         inkscape:connector-curvature="0" />
      <path
         d="m 33.945703,247.66237 q 0.270987,-0.37703 0.683358,-0.5891 0.412371,-0.22386 0.860089,-0.22386 0.435935,0 0.81296,0.17673 0.388807,0.17673 0.636229,0.48306 0.259205,0.30634 0.353461,0.62445 0.09426,0.31812 0.09426,0.69514 v 4.00589 q 0,0.35346 -0.07069,0.62445 -0.05891,0.2592 -0.270987,0.5891 -0.212077,0.3299 -0.624448,0.56554 -0.412371,0.23564 -0.895434,0.23564 -0.553756,0 -1.025037,-0.28277 -0.459499,-0.28277 -0.648012,-0.63623 -0.17673,-0.36524 -0.212076,-0.57732 -0.03535,-0.22386 -0.03535,-0.51841 v -4.00589 q 0,-0.35346 0.07069,-0.62445 0.08247,-0.27098 0.270986,-0.54197 z m 2.179676,0.61267 q -0.23564,-0.31812 -0.612665,-0.31812 -0.200295,0 -0.400589,0.11782 -0.188513,0.10604 -0.270987,0.24742 -0.07069,0.12961 -0.09426,0.27099 -0.02356,0.14138 -0.02356,0.23564 v 4.00589 q 0,0.11782 0.01178,0.25921 0.02356,0.14138 0.188512,0.3888 0.17673,0.23564 0.589102,0.23564 0.212076,0 0.377025,-0.0943 0.17673,-0.10604 0.247422,-0.23564 0.08248,-0.12961 0.106039,-0.24743 0.02356,-0.11782 0.02356,-0.30633 v -4.00589 q 0,-0.23564 -0.02356,-0.3299 -0.01178,-0.0942 -0.117821,-0.22385 z"
         style="letter-spacing:0.00529167px;fill:#003c82;stroke:none;stroke-width:0.2209131;fill-opacity:1"
         id="path956"
         inkscape:connector-curvature="0" />
      <path
         d="m 41.882144,254.77872 h -3.346097 v -7.85862 h 1.119293 v 6.72754 h 2.226804 z"
         style="letter-spacing:0.00529167px;fill:#003c82;stroke:none;stroke-width:0.2209131;fill-opacity:1"
         id="path958"
         inkscape:connector-curvature="0" />
      <path
         d="m 42.740713,254.77872 v -7.85862 h 1.107511 v 7.85862 z"
         style="letter-spacing:0.00529167px;fill:#003c82;stroke:none;stroke-width:0.2209131;fill-opacity:1"
         id="path960"
         inkscape:connector-curvature="0" />
      <path
         d="m 48.65138,252.79934 q 0,0.37702 -0.04713,0.64801 -0.03535,0.2592 -0.23564,0.57732 -0.188513,0.31811 -0.612666,0.57732 -0.412371,0.24742 -0.848306,0.24742 -0.51841,0 -0.954345,-0.22386 -0.424153,-0.22386 -0.624447,-0.56554 -0.200295,-0.34168 -0.259205,-0.62444 -0.04713,-0.29456 -0.04713,-0.63623 v -4.05302 q 0,-0.3299 0.05891,-0.5891 0.07069,-0.25921 0.282769,-0.56554 0.212076,-0.30634 0.589101,-0.51841 0.388807,-0.22386 0.81296,-0.22386 0.812961,0 1.343152,0.54197 0.541974,0.53019 0.541974,1.35494 v 0.42415 h -1.107511 v -0.42415 q 0,-0.3299 -0.188513,-0.54198 -0.17673,-0.22386 -0.530191,-0.22386 -0.329897,0 -0.51841,0.22386 -0.17673,0.21208 -0.17673,0.54198 v 4.05302 q 0,0.15316 0,0.30633 0.01178,0.15316 0.164948,0.38881 0.153167,0.23564 0.541974,0.23564 0.412371,0 0.530191,-0.2003 0.129602,-0.21207 0.153167,-0.30633 0.02356,-0.10604 0.02356,-0.28277 v -0.14138 -0.25921 h 1.107511 z"
         style="letter-spacing:0.00529167px;fill:#003c82;stroke:none;stroke-width:0.2209131;fill-opacity:1"
         id="path962"
         inkscape:connector-curvature="0" />
      <path
         d="m 52.989696,253.64764 v 1.13108 h -3.357879 v -7.85862 h 3.357879 v 1.03682 h -2.250368 v 2.32106 h 1.979382 v 1.06038 h -1.979382 v 2.30928 z"
         style="letter-spacing:0.00529167px;fill:#003c82;stroke:none;stroke-width:0.2209131;fill-opacity:1"
         id="path964"
         inkscape:connector-curvature="0" />
    </g>
    <g
       aria-label="POLIZEI"
       style="font-style:normal;font-variant:normal;font-weight:normal;font-stretch:normal;font-size:11.78203201px;line-height:1.25;font-family:'DIN 1451 Engschrift';-inkscape-font-specification:'DIN 1451 Engschrift';letter-spacing:0px;word-spacing:0px;fill:#000000;fill-opacity:1;stroke:none;stroke-width:0.2209131"
       id="text831"
       transform="translate(0.89241991,-40.505295)">
      <path
         d="m 27.903582,294.33461 v -7.85862 h 1.837997 q 0.341679,0 0.683358,0.14139 0.341679,0.14138 0.565537,0.37702 0.235641,0.22386 0.388807,0.54198 0.164949,0.31811 0.164949,0.61266 v 1.14286 q 0,0.43593 -0.117821,0.77761 -0.11782,0.34168 -0.412371,0.63623 -0.282768,0.28277 -0.624447,0.41237 -0.329897,0.11782 -0.777614,0.11782 h -0.589102 v 3.09868 z m 2.37997,-4.38292 q 0.106039,-0.10604 0.129603,-0.22386 0.03535,-0.11782 0.03535,-0.29455 v -0.14138 -1.02504 q 0,-0.3299 -0.200295,-0.54197 -0.200294,-0.21208 -0.541973,-0.21208 h -0.683358 v 2.66274 h 0.589102 q 0.23564,0 0.377025,-0.0354 0.153166,-0.0471 0.29455,-0.18851 z"
         style="fill:#003c82;stroke:none;stroke-width:0.2209131;fill-opacity:1"
         id="path846"
         inkscape:connector-curvature="0" />
      <path
         d="m 32.60406,287.21826 q 0.270987,-0.37702 0.683358,-0.5891 0.412371,-0.22386 0.860088,-0.22386 0.435936,0 0.812961,0.17673 0.388807,0.17673 0.636229,0.48306 0.259205,0.30634 0.353461,0.62445 0.09426,0.31812 0.09426,0.69514 v 4.00589 q 0,0.35346 -0.07069,0.62445 -0.05891,0.25921 -0.270986,0.5891 -0.212077,0.3299 -0.624448,0.56554 -0.412371,0.23564 -0.895434,0.23564 -0.553756,0 -1.025037,-0.28277 -0.459499,-0.28277 -0.648012,-0.63623 -0.17673,-0.36524 -0.212077,-0.57732 -0.03535,-0.22386 -0.03535,-0.51841 v -4.00589 q 0,-0.35346 0.07069,-0.62445 0.08247,-0.27098 0.270986,-0.54197 z m 2.179676,0.61267 q -0.23564,-0.31812 -0.612665,-0.31812 -0.200295,0 -0.40059,0.11782 -0.188512,0.10604 -0.270986,0.24742 -0.07069,0.12961 -0.09426,0.27099 -0.02356,0.14139 -0.02356,0.23564 v 4.00589 q 0,0.11782 0.01178,0.25921 0.02356,0.14138 0.188513,0.3888 0.17673,0.23565 0.589102,0.23565 0.212076,0 0.377025,-0.0943 0.17673,-0.10604 0.247422,-0.23564 0.08247,-0.1296 0.106039,-0.24742 0.02356,-0.11782 0.02356,-0.30634 v -4.00589 q 0,-0.23564 -0.02356,-0.3299 -0.01178,-0.0942 -0.117821,-0.22385 z"
         style="fill:#003c82;stroke:none;stroke-width:0.2209131;fill-opacity:1"
         id="path848"
         inkscape:connector-curvature="0" />
      <path
         d="m 40.535209,294.33461 h -3.346097 v -7.85862 h 1.119293 v 6.72754 h 2.226804 z"
         style="fill:#003c82;stroke:none;stroke-width:0.2209131;fill-opacity:1"
         id="path850"
         inkscape:connector-curvature="0" />
      <path
         d="m 41.388485,294.33461 v -7.85862 h 1.107511 v 7.85862 z"
         style="fill:#003c82;stroke:none;stroke-width:0.2209131;fill-opacity:1"
         id="path852"
         inkscape:connector-curvature="0" />
      <path
         d="m 43.500047,294.33461 v -1.01326 l 2.108984,-5.79676 h -1.955818 v -1.0486 h 3.216495 v 0.90722 l -2.108984,5.82032 h 2.108984 v 1.13108 z"
         style="fill:#003c82;stroke:none;stroke-width:0.2209131;fill-opacity:1"
         id="path854"
         inkscape:connector-curvature="0" />
      <path
         d="m 51.166652,293.20353 v 1.13108 h -3.357879 v -7.85862 h 3.357879 v 1.03682 h -2.250368 v 2.32106 h 1.979382 v 1.06038 h -1.979382 v 2.30928 z"
         style="fill:#003c82;stroke:none;stroke-width:0.2209131;fill-opacity:1"
         id="path856"
         inkscape:connector-curvature="0" />
      <path
         d="m 52.204024,294.33461 v -7.85862 h 1.107511 v 7.85862 z"
         style="fill:#003c82;stroke:none;stroke-width:0.2209131;fill-opacity:1"
         id="path858"
         inkscape:connector-curvature="0" />
    </g>
  </g>
</svg>
