<?xml version="1.0" encoding="UTF-8" standalone="no"?>
<!-- Created with Inkscape (http://www.inkscape.org/) -->

<svg
   xmlns:dc="http://purl.org/dc/elements/1.1/"
   xmlns:cc="http://creativecommons.org/ns#"
   xmlns:rdf="http://www.w3.org/1999/02/22-rdf-syntax-ns#"
   xmlns:svg="http://www.w3.org/2000/svg"
   xmlns="http://www.w3.org/2000/svg"
   xmlns:sodipodi="http://sodipodi.sourceforge.net/DTD/sodipodi-0.dtd"
   xmlns:inkscape="http://www.inkscape.org/namespaces/inkscape"
   width="61mm"
   height="61mm"
   viewBox="0 0 61 61"
   version="1.1"
   id="svg2000"
   inkscape:version="0.92.2 (5c3e80d, 2017-08-06)"
   sodipodi:docname="11.svg">
  <defs
     id="defs1994" />
  <sodipodi:namedview
     id="base"
     pagecolor="#ffffff"
     bordercolor="#666666"
     borderopacity="1.0"
     inkscape:pageopacity="0.0"
     inkscape:pageshadow="2"
     inkscape:zoom="1.979899"
     inkscape:cx="124.72157"
     inkscape:cy="88.686826"
     inkscape:document-units="mm"
     inkscape:current-layer="layer1"
     showgrid="false"
     inkscape:window-width="1920"
     inkscape:window-height="1057"
     inkscape:window-x="-8"
     inkscape:window-y="-8"
     inkscape:window-maximized="1"
     fit-margin-top="0"
     fit-margin-left="0"
     fit-margin-right="0"
     fit-margin-bottom="0"
     showborder="true" />
  <metadata
     id="metadata1997">
    <rdf:RDF>
      <cc:Work
         rdf:about="">
        <dc:format>image/svg+xml</dc:format>
        <dc:type
           rdf:resource="http://purl.org/dc/dcmitype/StillImage" />
        <dc:title></dc:title>
      </cc:Work>
    </rdf:RDF>
  </metadata>
  <g
     inkscape:label="Layer 1"
     inkscape:groupmode="layer"
     id="layer1"
     transform="translate(-11,-209.40001)">
    <circle
       style="opacity:1;fill:#dc0a14;fill-opacity:1;fill-rule:nonzero;stroke:none;stroke-width:0.18410923;stroke-linecap:square;stroke-linejoin:round;stroke-miterlimit:4;stroke-dasharray:none;stroke-opacity:1;paint-order:stroke fill markers"
       id="path17"
       cx="41.5"
       cy="239.90001"
       r="30.000002" />
    <circle
       r="24"
       cy="239.90001"
       cx="41.5"
       id="circle1748"
       style="opacity:1;fill:#ffffff;fill-opacity:1;fill-rule:nonzero;stroke:none;stroke-width:0.14728737;stroke-linecap:square;stroke-linejoin:round;stroke-miterlimit:4;stroke-dasharray:none;stroke-opacity:1;paint-order:stroke fill markers" />
    <rect
       style="opacity:1;fill:#000000;fill-opacity:1;fill-rule:nonzero;stroke:none;stroke-width:0.83758694;stroke-linecap:square;stroke-linejoin:round;stroke-miterlimit:4;stroke-dasharray:none;stroke-opacity:1;paint-order:stroke fill markers"
       id="rect824"
       width="38"
       height="6.8000002"
       x="22.500023"
       y="236.50002"
       rx="3.4000001"
       ry="3.4000001" />
    <text
       xml:space="preserve"
       style="font-style:normal;font-variant:normal;font-weight:normal;font-stretch:normal;font-size:7.05555534px;line-height:1.25;font-family:'DIN 1451 Mittelschrift';-inkscape-font-specification:'DIN 1451 Mittelschrift';letter-spacing:0px;word-spacing:0px;fill:#000000;fill-opacity:1;stroke:none;stroke-width:0.26458332"
       x="-43.030396"
       y="259.98318"
       id="text821"><tspan
         sodipodi:role="line"
         id="tspan819"
         x="-43.030396"
         y="266.53735"
         style="stroke-width:0.26458332" /></text>
    <g
       aria-label="شرطة"
       style="font-style:normal;font-variant:normal;font-weight:normal;font-stretch:normal;font-size:14.0227499px;line-height:1.25;font-family:'DIN 1451 Engschrift';-inkscape-font-specification:'DIN 1451 Engschrift';letter-spacing:0px;word-spacing:0px;fill:#000000;fill-opacity:1;stroke:#000000;stroke-width:0.10068741;stroke-miterlimit:4;stroke-dasharray:none;stroke-opacity:1"
       id="text914"
       transform="matrix(0.9931728,0,0,0.9931728,1.4498845,0.99285403)">
      <path
         d="m 54.211238,232.58773 h -0.527222 q -0.438211,0 -0.753175,-0.1164 -0.314964,-0.12324 -0.575152,-0.34235 -0.321811,0.25334 -0.561458,0.33551 -0.349199,0.12324 -0.958586,0.12324 h -0.445058 q -0.356047,0 -0.712093,-0.13694 -0.2328,-0.089 -0.575152,-0.29442 -0.328658,0.24649 -0.60254,0.34235 -0.273882,0.089 -0.890116,0.089 h -1.32148 v -1.19138 h 1.32148 q 0.554611,0 0.794257,-0.0959 0.397129,-0.15748 0.397129,-0.62993 0,-0.19856 -0.02054,-0.39713 -0.02054,-0.19856 -0.07532,-0.44506 l 0.280729,-0.41082 q 0.191718,0.62993 0.314964,0.91751 0.219106,0.49983 0.479294,0.75317 0.314964,0.30812 0.753175,0.30812 h 0.458752 q 0.513528,0 0.760022,-0.15748 0.273882,-0.17803 0.273882,-0.56831 0,-0.21226 -0.02739,-0.41082 -0.02739,-0.19857 -0.07532,-0.43137 l 0.287576,-0.41082 0.143788,0.64362 q 0.18487,0.76003 0.451905,1.05445 0.232799,0.26019 0.629928,0.26019 0.18487,0 0.294423,-0.10956 0.1164,-0.1164 0.1164,-0.29442 0,-0.38343 -0.280729,-0.80795 -0.04793,-0.0685 -0.335505,-0.44506 l 0.445058,-0.74633 q 0.280729,0.42452 0.383434,0.73264 0.150635,0.4656 0.150635,1.23931 z m -1.958255,-7.43589 -0.527222,0.99967 -1.095528,-0.58885 0.506682,-0.99966 z m 1.348868,1.21878 -0.534069,0.98597 -1.109222,-0.58885 0.513529,-0.97912 z m -1.57482,0.61623 -0.520376,0.99282 -1.109221,-0.57515 0.506681,-0.99282 z"
         style="fill:#000000;stroke:#000000;stroke-width:0.10068741;stroke-miterlimit:4;stroke-dasharray:none;stroke-opacity:1;fill-opacity:1"
         id="path967"
         inkscape:connector-curvature="0" />
      <path
         d="m 46.775346,232.58773 q 0,0.75318 -0.643622,1.56113 -0.561458,0.71209 -1.396797,1.22562 -0.794258,0.49299 -1.307786,0.49299 -0.472446,0 -1.02021,-0.13694 -0.41767,-0.10271 -0.999669,-0.32181 -0.492987,-0.18487 -0.979127,-0.36974 l 0.1164,-0.27389 q 0.451905,0.089 0.938045,0.17803 0.492987,0.0959 0.890116,0.0959 0.876422,0 1.828161,-0.56146 0.862728,-0.51353 1.472115,-1.29409 0.609387,-0.78741 0.609387,-1.41734 0,-0.54092 -0.314964,-1.13661 -0.253341,-0.47929 -0.712093,-0.98598 l 0.390282,-1.07498 q 0.561458,0.52037 0.828492,1.04075 0.30127,0.58884 0.30127,1.31463 z"
         style="fill:#000000;stroke:#000000;stroke-width:0.10068741;stroke-miterlimit:4;stroke-dasharray:none;stroke-opacity:1;fill-opacity:1"
         id="path969"
         inkscape:connector-curvature="0" />
      <path
         d="m 39.914606,232.58773 h -8.634125 v -1.19138 l 1.047598,-0.007 q 0.4656,0 0.869575,-0.12325 0.465599,-0.14378 1.054445,-0.50668 0.123247,-0.30127 0.198565,-0.64362 0.07532,-0.3492 0.07532,-0.67101 0,-0.73263 -0.136941,-1.6159 -0.102705,-0.64363 -0.308117,-1.5132 -0.109553,-0.45191 -0.287576,-1.10237 l -0.424517,-0.21226 q 0.04793,-0.41083 0.136941,-0.79426 0.09586,-0.38344 0.260188,-0.73948 0.109553,0.32181 0.499834,0.49983 0.321812,0.14379 0.821646,0.19172 -0.06847,0.70525 -0.102706,0.89696 -0.03423,0.19172 -0.130094,0.47245 -0.04793,-0.007 -0.25334,-0.0685 l -0.08901,-0.0274 q 0.239647,0.8011 0.390282,1.65014 0.157482,0.84219 0.157482,1.41734 0,0.48614 -0.09586,1.08183 -0.03423,0.21226 -0.123247,0.65732 1.198233,-0.69155 1.533739,-0.84904 1.013362,-0.47929 1.739149,-0.47929 0.924351,0 1.383103,0.54092 0.41767,0.49298 0.41767,1.40364 z m -1.081833,-1.71861 q 0,-0.34919 -0.362893,-0.52722 -0.356047,-0.18487 -1.027057,-0.18487 -0.499835,0 -1.150304,0.21911 -0.53407,0.17802 -1.13661,0.49298 -0.445058,0.2328 -0.917504,0.52723 h 2.978465 q 1.615903,0 1.615903,-0.52723 z"
         style="fill:#000000;stroke:#000000;stroke-width:0.10068741;stroke-miterlimit:4;stroke-dasharray:none;stroke-opacity:1;fill-opacity:1"
         id="path971"
         inkscape:connector-curvature="0" />
      <path
         d="m 31.759775,232.58773 h -0.979127 q -0.492988,0 -0.869575,-0.84218 -0.280729,-0.62993 -0.451905,-1.62275 -0.205412,0.38343 -0.520376,0.59569 -0.314964,0.21226 -0.664163,0.21226 -0.78741,0 -1.314633,-0.10271 -0.520375,-0.10955 -0.520375,-0.27388 0,-0.58885 0.766869,-1.30094 0.766869,-0.71894 1.917173,-1.25301 -0.0137,-0.0548 -0.06162,-0.28757 -0.04108,-0.2328 -0.04108,-0.28758 0,-0.2328 0.157482,-0.52037 0.130094,-0.2328 0.342352,-0.4793 0.06847,0.42452 0.136941,0.82165 0.07532,0.39713 0.171176,0.82164 l 0.205412,1.1777 q 0.171176,0.97228 0.308117,1.43787 0.212258,0.7121 0.438211,0.7121 h 0.979127 z m -2.389619,-3.06063 -0.130094,-0.74632 q -0.595693,0.21225 -0.938045,0.44505 -0.342352,0.22596 -0.575152,0.60254 0.143788,0.0616 0.335505,0.0959 0.191718,0.0342 0.527223,0.0342 0.410823,0 0.780563,-0.43137 z m 0.643622,-5.12843 -0.506681,0.99282 -1.122915,-0.57515 0.520375,-0.99283 z m -1.561126,0.63677 -0.513528,0.97913 -1.129763,-0.582 0.53407,-0.98597 z"
         style="fill:#000000;stroke:#000000;stroke-width:0.10068741;stroke-miterlimit:4;stroke-dasharray:none;stroke-opacity:1;fill-opacity:1"
         id="path973"
         inkscape:connector-curvature="0" />
    </g>
    <g
       aria-label="POLICE"
       style="font-style:normal;font-variant:normal;font-weight:normal;font-stretch:normal;font-size:11.78203201px;line-height:1.25;font-family:'DIN 1451 Engschrift';-inkscape-font-specification:'DIN 1451 Engschrift';letter-spacing:0.00529167px;word-spacing:0px;fill:#000000;fill-opacity:1;stroke:none;stroke-width:0.2209131"
       id="text952"
       transform="translate(0.38506791,-0.94940531)">
      <path
         d="m 29.239934,254.77872 v -7.85862 h 1.837996 q 0.341679,0 0.683358,0.14139 0.341679,0.14138 0.565538,0.37702 0.235641,0.22386 0.388807,0.54197 0.164948,0.31812 0.164948,0.61267 v 1.14286 q 0,0.43593 -0.11782,0.77761 -0.11782,0.34168 -0.412371,0.63623 -0.282769,0.28277 -0.624448,0.41237 -0.329897,0.11782 -0.777614,0.11782 h -0.589101 v 3.09868 z m 2.37997,-4.38292 q 0.106038,-0.10604 0.129602,-0.22386 0.03535,-0.11782 0.03535,-0.29455 v -0.14138 -1.02504 q 0,-0.3299 -0.200294,-0.54197 -0.200295,-0.21208 -0.541974,-0.21208 h -0.683357 v 2.66274 h 0.589101 q 0.235641,0 0.377025,-0.0354 0.153167,-0.0471 0.294551,-0.18851 z"
         style="letter-spacing:0.00529167px;fill:#000000;stroke:none;stroke-width:0.2209131;fill-opacity:1"
         id="path954"
         inkscape:connector-curvature="0" />
      <path
         d="m 33.945703,247.66237 q 0.270987,-0.37703 0.683358,-0.5891 0.412371,-0.22386 0.860089,-0.22386 0.435935,0 0.81296,0.17673 0.388807,0.17673 0.636229,0.48306 0.259205,0.30634 0.353461,0.62445 0.09426,0.31812 0.09426,0.69514 v 4.00589 q 0,0.35346 -0.07069,0.62445 -0.05891,0.2592 -0.270987,0.5891 -0.212077,0.3299 -0.624448,0.56554 -0.412371,0.23564 -0.895434,0.23564 -0.553756,0 -1.025037,-0.28277 -0.459499,-0.28277 -0.648012,-0.63623 -0.17673,-0.36524 -0.212076,-0.57732 -0.03535,-0.22386 -0.03535,-0.51841 v -4.00589 q 0,-0.35346 0.07069,-0.62445 0.08247,-0.27098 0.270986,-0.54197 z m 2.179676,0.61267 q -0.23564,-0.31812 -0.612665,-0.31812 -0.200295,0 -0.400589,0.11782 -0.188513,0.10604 -0.270987,0.24742 -0.07069,0.12961 -0.09426,0.27099 -0.02356,0.14138 -0.02356,0.23564 v 4.00589 q 0,0.11782 0.01178,0.25921 0.02356,0.14138 0.188512,0.3888 0.17673,0.23564 0.589102,0.23564 0.212076,0 0.377025,-0.0943 0.17673,-0.10604 0.247422,-0.23564 0.08248,-0.12961 0.106039,-0.24743 0.02356,-0.11782 0.02356,-0.30633 v -4.00589 q 0,-0.23564 -0.02356,-0.3299 -0.01178,-0.0942 -0.117821,-0.22385 z"
         style="letter-spacing:0.00529167px;fill:#000000;stroke:none;stroke-width:0.2209131;fill-opacity:1"
         id="path956"
         inkscape:connector-curvature="0" />
      <path
         d="m 41.882144,254.77872 h -3.346097 v -7.85862 h 1.119293 v 6.72754 h 2.226804 z"
         style="letter-spacing:0.00529167px;fill:#000000;stroke:none;stroke-width:0.2209131;fill-opacity:1"
         id="path958"
         inkscape:connector-curvature="0" />
      <path
         d="m 42.740713,254.77872 v -7.85862 h 1.107511 v 7.85862 z"
         style="letter-spacing:0.00529167px;fill:#000000;stroke:none;stroke-width:0.2209131;fill-opacity:1"
         id="path960"
         inkscape:connector-curvature="0" />
      <path
         d="m 48.65138,252.79934 q 0,0.37702 -0.04713,0.64801 -0.03535,0.2592 -0.23564,0.57732 -0.188513,0.31811 -0.612666,0.57732 -0.412371,0.24742 -0.848306,0.24742 -0.51841,0 -0.954345,-0.22386 -0.424153,-0.22386 -0.624447,-0.56554 -0.200295,-0.34168 -0.259205,-0.62444 -0.04713,-0.29456 -0.04713,-0.63623 v -4.05302 q 0,-0.3299 0.05891,-0.5891 0.07069,-0.25921 0.282769,-0.56554 0.212076,-0.30634 0.589101,-0.51841 0.388807,-0.22386 0.81296,-0.22386 0.812961,0 1.343152,0.54197 0.541974,0.53019 0.541974,1.35494 v 0.42415 h -1.107511 v -0.42415 q 0,-0.3299 -0.188513,-0.54198 -0.17673,-0.22386 -0.530191,-0.22386 -0.329897,0 -0.51841,0.22386 -0.17673,0.21208 -0.17673,0.54198 v 4.05302 q 0,0.15316 0,0.30633 0.01178,0.15316 0.164948,0.38881 0.153167,0.23564 0.541974,0.23564 0.412371,0 0.530191,-0.2003 0.129602,-0.21207 0.153167,-0.30633 0.02356,-0.10604 0.02356,-0.28277 v -0.14138 -0.25921 h 1.107511 z"
         style="letter-spacing:0.00529167px;fill:#000000;stroke:none;stroke-width:0.2209131;fill-opacity:1"
         id="path962"
         inkscape:connector-curvature="0" />
      <path
         d="m 52.989696,253.64764 v 1.13108 h -3.357879 v -7.85862 h 3.357879 v 1.03682 h -2.250368 v 2.32106 h 1.979382 v 1.06038 h -1.979382 v 2.30928 z"
         style="letter-spacing:0.00529167px;fill:#000000;stroke:none;stroke-width:0.2209131;fill-opacity:1"
         id="path964"
         inkscape:connector-curvature="0" />
    </g>
  </g>
</svg>
