<?xml version="1.0" encoding="UTF-8" standalone="no"?>
<!-- Created with Inkscape (http://www.inkscape.org/) -->

<svg
   xmlns:dc="http://purl.org/dc/elements/1.1/"
   xmlns:cc="http://creativecommons.org/ns#"
   xmlns:rdf="http://www.w3.org/1999/02/22-rdf-syntax-ns#"
   xmlns:svg="http://www.w3.org/2000/svg"
   xmlns="http://www.w3.org/2000/svg"
   xmlns:sodipodi="http://sodipodi.sourceforge.net/DTD/sodipodi-0.dtd"
   xmlns:inkscape="http://www.inkscape.org/namespaces/inkscape"
   width="61mm"
   height="61mm"
   viewBox="0 0 61 61"
   version="1.1"
   id="svg2000"
   inkscape:version="0.92.2 (5c3e80d, 2017-08-06)"
   sodipodi:docname="11.svg">
  <defs
     id="defs1994" />
  <sodipodi:namedview
     id="base"
     pagecolor="#ffffff"
     bordercolor="#666666"
     borderopacity="1.0"
     inkscape:pageopacity="0.0"
     inkscape:pageshadow="2"
     inkscape:zoom="1.979899"
     inkscape:cx="105.27987"
     inkscape:cy="68.483775"
     inkscape:document-units="mm"
     inkscape:current-layer="layer1"
     showgrid="false"
     inkscape:window-width="1920"
     inkscape:window-height="1057"
     inkscape:window-x="-8"
     inkscape:window-y="-8"
     inkscape:window-maximized="1"
     fit-margin-top="0"
     fit-margin-left="0"
     fit-margin-right="0"
     fit-margin-bottom="0"
     showborder="true" />
  <metadata
     id="metadata1997">
    <rdf:RDF>
      <cc:Work
         rdf:about="">
        <dc:format>image/svg+xml</dc:format>
        <dc:type
           rdf:resource="http://purl.org/dc/dcmitype/StillImage" />
        <dc:title></dc:title>
      </cc:Work>
    </rdf:RDF>
  </metadata>
  <g
     inkscape:label="Layer 1"
     inkscape:groupmode="layer"
     id="layer1"
     transform="translate(-11,-209.40001)">
    <circle
       style="opacity:1;fill:#dc0a14;fill-opacity:1;fill-rule:nonzero;stroke:none;stroke-width:0.18410923;stroke-linecap:square;stroke-linejoin:round;stroke-miterlimit:4;stroke-dasharray:none;stroke-opacity:1;paint-order:stroke fill markers"
       id="path17"
       cx="41.5"
       cy="239.90001"
       r="30.000002" />
    <circle
       r="24"
       cy="239.90001"
       cx="41.5"
       id="circle1748"
       style="opacity:1;fill:#ffffff;fill-opacity:1;fill-rule:nonzero;stroke:none;stroke-width:0.14728737;stroke-linecap:square;stroke-linejoin:round;stroke-miterlimit:4;stroke-dasharray:none;stroke-opacity:1;paint-order:stroke fill markers" />
    <rect
       style="opacity:1;fill:#000000;fill-opacity:1;fill-rule:nonzero;stroke:none;stroke-width:0.83758694;stroke-linecap:square;stroke-linejoin:round;stroke-miterlimit:4;stroke-dasharray:none;stroke-opacity:1;paint-order:stroke fill markers"
       id="rect824"
       width="38"
       height="6.8000002"
       x="22.500019"
       y="236.50002"
       rx="3.4000001"
       ry="3.4000001" />
    <text
       xml:space="preserve"
       style="font-style:normal;font-variant:normal;font-weight:normal;font-stretch:normal;font-size:7.05555534px;line-height:1.25;font-family:'DIN 1451 Mittelschrift';-inkscape-font-specification:'DIN 1451 Mittelschrift';letter-spacing:0px;word-spacing:0px;fill:#000000;fill-opacity:1;stroke:none;stroke-width:0.26458332"
       x="-43.030396"
       y="259.98318"
       id="text821"><tspan
         sodipodi:role="line"
         id="tspan819"
         x="-43.030396"
         y="266.53735"
         style="stroke-width:0.26458332" /></text>
    <g
       aria-label="DOUANE"
       style="font-style:normal;font-variant:normal;font-weight:normal;font-stretch:normal;font-size:13.25478649px;line-height:1.25;font-family:'DIN 1451 Engschrift';-inkscape-font-specification:'DIN 1451 Engschrift';letter-spacing:0.00264583px;word-spacing:0px;fill:#000000;fill-opacity:1;stroke:none;stroke-width:0.24852724"
       id="text855"
       transform="matrix(0.88888889,0,0,0.88888889,5.0555612,25.188879)">
      <path
         d="m 27.566473,225.87956 q 0.848306,0 1.458027,0.60972 0.622975,0.59647 0.622975,1.44477 v 4.59941 q 0,0.95435 -0.596466,1.57732 -0.58321,0.60972 -1.5243,0.60972 H 25.565 v -8.84094 z m 0.835052,6.6539 v -4.59941 q 0,-0.37113 -0.278351,-0.60972 -0.265096,-0.25184 -0.649484,-0.25184 h -0.66274 v 6.46834 h 0.622975 q 0.9676,0 0.9676,-1.00737 z"
         style="letter-spacing:0.00264583px;fill:#000000;fill-opacity:1;stroke:none;stroke-width:0.24852724;stroke-opacity:1"
         id="path861"
         inkscape:connector-curvature="0" />
      <path
         d="m 31.21812,226.71461 q 0.30486,-0.42415 0.768778,-0.66274 0.463917,-0.25184 0.967599,-0.25184 0.490427,0 0.914581,0.19883 0.437408,0.19882 0.715758,0.54344 0.291605,0.34463 0.397644,0.70251 0.106038,0.35787 0.106038,0.78203 v 4.50662 q 0,0.39765 -0.07953,0.70251 -0.06627,0.2916 -0.30486,0.66274 -0.238586,0.37113 -0.702504,0.63623 -0.463917,0.26509 -1.007363,0.26509 -0.622975,0 -1.153167,-0.31811 -0.516936,-0.31812 -0.729013,-0.71576 -0.198822,-0.4109 -0.238586,-0.64948 -0.03976,-0.25185 -0.03976,-0.58322 v -4.50662 q 0,-0.39765 0.07953,-0.70251 0.09278,-0.30486 0.30486,-0.60972 z m 2.452136,0.68925 q -0.265096,-0.35788 -0.689249,-0.35788 -0.225332,0 -0.450663,0.13255 -0.212076,0.11929 -0.30486,0.27835 -0.07953,0.1458 -0.106038,0.30486 -0.02651,0.15906 -0.02651,0.2651 v 4.50662 q 0,0.13255 0.01326,0.29161 0.02651,0.15906 0.212077,0.43741 0.198821,0.26509 0.662739,0.26509 0.238586,0 0.424153,-0.10603 0.198822,-0.1193 0.278351,-0.2651 0.09278,-0.1458 0.119293,-0.27835 0.02651,-0.13255 0.02651,-0.34463 v -4.50662 q 0,-0.2651 -0.02651,-0.37114 -0.01326,-0.10603 -0.132548,-0.25184 z"
         style="letter-spacing:0.00264583px;fill:#000000;fill-opacity:1;stroke:none;stroke-width:0.24852724;stroke-opacity:1"
         id="path863"
         inkscape:connector-curvature="0" />
      <path
         d="m 40.183072,233.79267 q -0.27835,0.45066 -0.742268,0.72901 -0.463917,0.27835 -1.007363,0.27835 -0.556701,0 -1.060383,-0.27835 -0.490427,-0.2916 -0.689249,-0.64948 -0.198822,-0.37114 -0.265096,-0.63623 -0.05302,-0.27835 -0.05302,-0.59647 v -6.75994 h 1.259205 v 6.75994 q 0,0.17232 0.02651,0.30486 0.02651,0.1193 0.198822,0.35788 0.185567,0.23859 0.596465,0.23859 0.384389,0 0.569956,-0.27835 0.198822,-0.27835 0.198822,-0.62298 v -6.75994 h 1.259205 v 6.75994 q 0,0.31812 -0.06627,0.60972 -0.06627,0.27835 -0.225332,0.54345 z"
         style="letter-spacing:0.00264583px;fill:#000000;fill-opacity:1;stroke:none;stroke-width:0.24852724;stroke-opacity:1"
         id="path865"
         inkscape:connector-curvature="0" />
      <path
         d="m 41.154769,234.7205 1.974963,-8.84094 h 1.100147 l 1.974963,8.84094 h -1.351988 l -0.357879,-1.89543 h -1.643594 l -0.357879,1.89543 z m 1.921944,-3.07511 h 1.19293 l -0.596465,-3.22091 z"
         style="letter-spacing:0.00264583px;fill:#000000;fill-opacity:1;stroke:none;stroke-width:0.24852724;stroke-opacity:1"
         id="path867"
         inkscape:connector-curvature="0" />
      <path
         d="m 50.089896,234.7205 -1.974963,-5.36818 v 5.36818 h -1.259205 v -8.84094 h 1.192931 l 1.961708,5.35494 v -5.35494 h 1.259205 v 8.84094 z"
         style="letter-spacing:0.00264583px;fill:#000000;fill-opacity:1;stroke:none;stroke-width:0.24852724;stroke-opacity:1"
         id="path869"
         inkscape:connector-curvature="0" />
      <path
         d="m 56.434959,233.44805 v 1.27245 h -3.777614 v -8.84094 h 3.777614 v 1.16642 h -2.531664 v 2.6112 h 2.226804 v 1.19293 h -2.226804 v 2.59794 z"
         style="letter-spacing:0.00264583px;fill:#000000;fill-opacity:1;stroke:none;stroke-width:0.24852724;stroke-opacity:1"
         id="path871"
         inkscape:connector-curvature="0" />
    </g>
    <path
       d="m 33.113002,253.82932 v -1.01327 l 2.108984,-5.79675 h -1.955818 v -1.04861 h 3.216495 v 0.90722 l -2.108984,5.82033 h 2.108984 v 1.13108 z"
       style="font-style:normal;font-variant:normal;font-weight:normal;font-stretch:normal;font-size:13.25478649px;line-height:1.25;font-family:'DIN 1451 Engschrift';-inkscape-font-specification:'DIN 1451 Engschrift';letter-spacing:0.0238125px;word-spacing:0px;fill:#000000;fill-opacity:1;stroke:none;stroke-width:0.22091311"
       id="path874"
       inkscape:connector-curvature="0" />
    <path
       d="m 37.702099,246.71297 q 0.270987,-0.37703 0.683358,-0.5891 0.412371,-0.22386 0.860088,-0.22386 0.435935,0 0.81296,0.17673 0.388807,0.17673 0.63623,0.48306 0.259205,0.30633 0.353462,0.62445 0.09426,0.31812 0.09426,0.69514 v 4.00589 q 0,0.35346 -0.07069,0.62445 -0.05891,0.2592 -0.270986,0.5891 -0.212077,0.32989 -0.624448,0.56554 -0.412371,0.23564 -0.895434,0.23564 -0.553756,0 -1.025037,-0.28277 -0.4595,-0.28277 -0.648012,-0.63623 -0.176731,-0.36525 -0.212076,-0.57732 -0.03535,-0.22386 -0.03535,-0.51841 v -4.00589 q 0,-0.35346 0.07069,-0.62445 0.08247,-0.27098 0.270985,-0.54197 z m 2.179676,0.61266 q -0.235641,-0.31811 -0.612665,-0.31811 -0.200296,0 -0.40059,0.11781 -0.188513,0.10605 -0.270986,0.24743 -0.07069,0.12961 -0.09426,0.27098 -0.02357,0.14139 -0.02357,0.23565 v 4.00589 q 0,0.11781 0.01179,0.2592 0.02356,0.14139 0.188512,0.38881 0.17673,0.23564 0.589102,0.23564 0.212076,0 0.377025,-0.0942 0.176731,-0.10605 0.247422,-0.23565 0.08247,-0.1296 0.106039,-0.24742 0.02356,-0.11782 0.02356,-0.30633 v -4.00589 q 0,-0.23565 -0.02356,-0.3299 -0.01179,-0.0942 -0.11782,-0.22386 z"
       style="font-style:normal;font-variant:normal;font-weight:normal;font-stretch:normal;font-size:13.25478649px;line-height:1.25;font-family:'DIN 1451 Engschrift';-inkscape-font-specification:'DIN 1451 Engschrift';letter-spacing:0.0238125px;word-spacing:0px;fill:#000000;fill-opacity:1;stroke:none;stroke-width:0.22091311"
       id="path876"
       inkscape:connector-curvature="0" />
    <path
       d="m 45.654414,253.82932 h -3.346096 v -7.85863 h 1.119293 v 6.72755 h 2.226803 z"
       style="font-style:normal;font-variant:normal;font-weight:normal;font-stretch:normal;font-size:13.25478649px;line-height:1.25;font-family:'DIN 1451 Engschrift';-inkscape-font-specification:'DIN 1451 Engschrift';letter-spacing:0.0238125px;word-spacing:0px;fill:#000000;fill-opacity:1;stroke:none;stroke-width:0.22091311"
       id="path878"
       inkscape:connector-curvature="0" />
    <path
       d="M 49.886737,253.82932 H 46.54064 v -7.85863 h 1.119294 v 6.72755 h 2.226803 z"
       style="font-style:normal;font-variant:normal;font-weight:normal;font-stretch:normal;font-size:13.25478649px;line-height:1.25;font-family:'DIN 1451 Engschrift';-inkscape-font-specification:'DIN 1451 Engschrift';letter-spacing:0.0238125px;word-spacing:0px;fill:#000000;fill-opacity:1;stroke:none;stroke-width:0.22091311"
       id="path880"
       inkscape:connector-curvature="0" />
  </g>
</svg>
