<?xml version="1.0" encoding="UTF-8" standalone="no"?>
<!-- Created with Inkscape (http://www.inkscape.org/) -->

<svg
   xmlns:dc="http://purl.org/dc/elements/1.1/"
   xmlns:cc="http://creativecommons.org/ns#"
   xmlns:rdf="http://www.w3.org/1999/02/22-rdf-syntax-ns#"
   xmlns:svg="http://www.w3.org/2000/svg"
   xmlns="http://www.w3.org/2000/svg"
   xmlns:sodipodi="http://sodipodi.sourceforge.net/DTD/sodipodi-0.dtd"
   xmlns:inkscape="http://www.inkscape.org/namespaces/inkscape"
   width="61mm"
   height="61mm"
   viewBox="0 0 61 61"
   version="1.1"
   id="svg2000"
   inkscape:version="0.92.2 (5c3e80d, 2017-08-06)"
   sodipodi:docname="11.svg">
  <defs
     id="defs1994" />
  <sodipodi:namedview
     id="base"
     pagecolor="#ffffff"
     bordercolor="#666666"
     borderopacity="1.0"
     inkscape:pageopacity="0.0"
     inkscape:pageshadow="2"
     inkscape:zoom="1.979899"
     inkscape:cx="163.44468"
     inkscape:cy="105.99906"
     inkscape:document-units="mm"
     inkscape:current-layer="layer1"
     showgrid="false"
     inkscape:window-width="1920"
     inkscape:window-height="1057"
     inkscape:window-x="-8"
     inkscape:window-y="-8"
     inkscape:window-maximized="1"
     fit-margin-top="0"
     fit-margin-left="0"
     fit-margin-right="0"
     fit-margin-bottom="0"
     showborder="true" />
  <metadata
     id="metadata1997">
    <rdf:RDF>
      <cc:Work
         rdf:about="">
        <dc:format>image/svg+xml</dc:format>
        <dc:type
           rdf:resource="http://purl.org/dc/dcmitype/StillImage" />
        <dc:title></dc:title>
      </cc:Work>
    </rdf:RDF>
  </metadata>
  <g
     inkscape:label="Layer 1"
     inkscape:groupmode="layer"
     id="layer1"
     transform="translate(-11,-209.40001)">
    <circle
       style="opacity:1;fill:#dc0a14;fill-opacity:1;fill-rule:nonzero;stroke:none;stroke-width:0.18410923;stroke-linecap:square;stroke-linejoin:round;stroke-miterlimit:4;stroke-dasharray:none;stroke-opacity:1;paint-order:stroke fill markers"
       id="path17"
       cx="41.5"
       cy="239.90001"
       r="30.000002" />
    <circle
       r="24"
       cy="239.90001"
       cx="41.5"
       id="circle1748"
       style="opacity:1;fill:#ffffff;fill-opacity:1;fill-rule:nonzero;stroke:none;stroke-width:0.14728737;stroke-linecap:square;stroke-linejoin:round;stroke-miterlimit:4;stroke-dasharray:none;stroke-opacity:1;paint-order:stroke fill markers" />
    <rect
       style="opacity:1;fill:#000000;fill-opacity:1;fill-rule:nonzero;stroke:none;stroke-width:0.83758694;stroke-linecap:square;stroke-linejoin:round;stroke-miterlimit:4;stroke-dasharray:none;stroke-opacity:1;paint-order:stroke fill markers"
       id="rect824"
       width="38"
       height="6.8000002"
       x="22.500013"
       y="236.50002"
       rx="3.4000001"
       ry="3.4000001" />
    <text
       xml:space="preserve"
       style="font-style:normal;font-variant:normal;font-weight:normal;font-stretch:normal;font-size:7.05555534px;line-height:1.25;font-family:'DIN 1451 Mittelschrift';-inkscape-font-specification:'DIN 1451 Mittelschrift';letter-spacing:0px;word-spacing:0px;fill:#000000;fill-opacity:1;stroke:none;stroke-width:0.26458332"
       x="-43.030396"
       y="259.98318"
       id="text821"><tspan
         sodipodi:role="line"
         id="tspan819"
         x="-43.030396"
         y="266.53735"
         style="stroke-width:0.26458332" /></text>
    <g
       aria-label="ADUANA"
       style="font-style:normal;font-variant:normal;font-weight:normal;font-stretch:normal;font-size:13.37295723px;line-height:1.25;font-family:'DIN 1451 Engschrift';-inkscape-font-specification:'DIN 1451 Engschrift';letter-spacing:0px;word-spacing:0px;fill:#000000;fill-opacity:1;stroke:none;stroke-width:0.25074294"
       id="text831"
       transform="matrix(0.88888889,0,0,0.88888889,5.282416,24.185564)">
      <path
         d="m 24.746159,235.84851 1.992571,-8.91976 h 1.109955 l 1.992571,8.91976 h -1.364042 l -0.36107,-1.91233 h -1.658246 l -0.36107,1.91233 z m 1.939079,-3.10253 h 1.203566 l -0.601783,-3.24963 z"
         style="fill:#000000;fill-opacity:1;stroke:none;stroke-width:0.25074294"
         id="path893"
         inkscape:connector-curvature="0" />
      <path
         d="m 32.514594,226.92875 q 0.855869,0 1.471025,0.61515 0.628529,0.60179 0.628529,1.45765 v 4.64042 q 0,0.96285 -0.601783,1.59138 -0.58841,0.61516 -1.53789,0.61516 h -1.979198 v -8.91976 z m 0.842496,6.71322 v -4.64042 q 0,-0.37444 -0.280832,-0.61515 -0.267459,-0.25409 -0.655275,-0.25409 h -0.668648 v 6.52601 h 0.628529 q 0.976226,0 0.976226,-1.01635 z"
         style="fill:#000000;fill-opacity:1;stroke:none;stroke-width:0.25074294"
         id="path895"
         inkscape:connector-curvature="0" />
      <path
         d="m 39.753333,234.9124 q -0.280832,0.45468 -0.748886,0.73551 -0.468053,0.28084 -1.016344,0.28084 -0.561665,0 -1.069837,-0.28084 -0.494799,-0.2942 -0.695394,-0.65527 -0.200594,-0.37444 -0.267459,-0.6419 -0.05349,-0.28083 -0.05349,-0.60179 v -6.8202 h 1.270431 v 6.8202 q 0,0.17385 0.02675,0.30758 0.02675,0.12036 0.200595,0.36107 0.187221,0.24072 0.601783,0.24072 0.387815,0 0.575037,-0.28084 0.200594,-0.28083 0.200594,-0.62853 v -6.8202 h 1.270431 v 6.8202 q 0,0.32096 -0.06686,0.61516 -0.06686,0.28083 -0.22734,0.54829 z"
         style="fill:#000000;fill-opacity:1;stroke:none;stroke-width:0.25074294"
         id="path897"
         inkscape:connector-curvature="0" />
      <path
         d="m 40.731022,235.84851 1.992571,-8.91976 h 1.109955 l 1.992571,8.91976 h -1.364042 l -0.36107,-1.91233 h -1.658246 l -0.36107,1.91233 z m 1.939079,-3.10253 h 1.203566 l -0.601783,-3.24963 z"
         style="fill:#000000;fill-opacity:1;stroke:none;stroke-width:0.25074294"
         id="path899"
         inkscape:connector-curvature="0" />
      <path
         d="m 49.743141,235.84851 -1.99257,-5.41605 v 5.41605 H 46.48014 v -8.91976 h 1.203566 l 1.979198,5.40267 v -5.40267 h 1.270431 v 8.91976 z"
         style="fill:#000000;fill-opacity:1;stroke:none;stroke-width:0.25074294"
         id="path901"
         inkscape:connector-curvature="0" />
      <path
         d="m 51.648789,235.84851 1.99257,-8.91976 h 1.109956 l 1.992571,8.91976 h -1.364042 l -0.36107,-1.91233 h -1.658247 l -0.361069,1.91233 z m 1.939079,-3.10253 h 1.203566 l -0.601783,-3.24963 z"
         style="fill:#000000;fill-opacity:1;stroke:none;stroke-width:0.25074294"
         id="path903"
         inkscape:connector-curvature="0" />
    </g>
    <g
       aria-label="ALFÂNDEGA"
       style="font-style:normal;font-variant:normal;font-weight:normal;font-stretch:normal;font-size:10.30928516px;line-height:1.25;font-family:'DIN 1451 Engschrift';-inkscape-font-specification:'DIN 1451 Engschrift';letter-spacing:0.00264583px;word-spacing:0px;fill:#000000;fill-opacity:1;stroke:none;stroke-width:0.19329908"
       id="text839"
       transform="translate(0.50000572,-0.50001169)">
      <path
         d="m 23.018,254.03816 1.536084,-6.87629 h 0.85567 l 1.536084,6.87629 h -1.051547 l -0.278351,-1.47423 h -1.278351 l -0.278351,1.47423 z m 1.494847,-2.39176 h 0.927835 l -0.463918,-2.50515 z"
         style="letter-spacing:0.00264583px;fill:#000000;fill-opacity:1;stroke:none;stroke-width:0.19329908"
         id="path906"
         inkscape:connector-curvature="0" />
      <path
         d="m 30.390818,254.03816 h -2.927837 v -6.87629 h 0.979383 v 5.8866 h 1.948454 z"
         style="letter-spacing:0.00264583px;fill:#000000;fill-opacity:1;stroke:none;stroke-width:0.19329908"
         id="path908"
         inkscape:connector-curvature="0" />
      <path
         d="m 31.140082,254.03816 v -6.87629 h 2.927837 v 0.92783 h -1.958764 v 2.06186 h 1.72165 v 0.91752 h -1.72165 v 2.96908 z"
         style="letter-spacing:0.00264583px;fill:#000000;fill-opacity:1;stroke:none;stroke-width:0.19329908"
         id="path910"
         inkscape:connector-curvature="0" />
      <path
         d="m 34.402395,254.03816 1.536083,-6.87629 h 0.855671 l 1.536084,6.87629 h -1.051548 l -0.27835,-1.47423 h -1.278352 l -0.27835,1.47423 z m 1.494846,-2.39176 h 0.927836 l -0.463918,-2.50515 z m 0.4433,-6.03093 -0.72165,0.97938 h -0.742269 l 1.072166,-1.40206 h 0.824743 l 1.061856,1.40206 h -0.752578 z"
         style="letter-spacing:0.00264583px;fill:#000000;fill-opacity:1;stroke:none;stroke-width:0.19329908"
         id="path912"
         inkscape:connector-curvature="0" />
      <path
         d="m 41.352532,254.03816 -1.536083,-4.17526 v 4.17526 h -0.979382 v -6.87629 h 0.927835 l 1.525775,4.16495 v -4.16495 h 0.979382 v 6.87629 z"
         style="letter-spacing:0.00264583px;fill:#000000;fill-opacity:1;stroke:none;stroke-width:0.19329908"
         id="path914"
         inkscape:connector-curvature="0" />
      <path
         d="m 44.906727,247.16187 q 0.659795,0 1.134022,0.47422 0.484536,0.46392 0.484536,1.12371 v 3.57733 q 0,0.74226 -0.463918,1.2268 -0.453608,0.47423 -1.185567,0.47423 h -1.525775 v -6.87629 z m 0.649485,5.17526 v -3.57733 q 0,-0.28866 -0.216495,-0.47422 -0.206185,-0.19588 -0.505155,-0.19588 h -0.515464 v 5.03093 h 0.484537 q 0.752577,0 0.752577,-0.7835 z"
         style="letter-spacing:0.00264583px;fill:#000000;fill-opacity:1;stroke:none;stroke-width:0.19329908"
         id="path916"
         inkscape:connector-curvature="0" />
      <path
         d="m 50.45883,253.04847 v 0.98969 h -2.938147 v -6.87629 h 2.938147 v 0.90721 h -1.969074 v 2.03093 h 1.73196 v 0.92784 h -1.73196 v 2.02062 z"
         style="letter-spacing:0.00264583px;fill:#000000;fill-opacity:1;stroke:none;stroke-width:0.19329908"
         id="path918"
         inkscape:connector-curvature="0" />
      <path
         d="m 54.358868,253.31651 q -0.226804,0.37113 -0.597939,0.57732 -0.371134,0.20618 -0.814433,0.20618 -0.391753,0 -0.752578,-0.18556 -0.360825,-0.18557 -0.567011,-0.45361 -0.195876,-0.27835 -0.268041,-0.54639 -0.06186,-0.27835 -0.06186,-0.62887 v -3.4433 q 0,-0.27835 0.05155,-0.50516 0.06186,-0.23711 0.381443,-0.73196 0.319588,-0.50515 1.247424,-0.50515 0.412371,0 0.773196,0.19588 0.360825,0.19587 0.546392,0.48453 0.185567,0.27835 0.237114,0.52578 0.06185,0.24742 0.06185,0.53608 v 0.28866 h -0.969072 v -0.28866 q 0,-0.17526 -0.02062,-0.26804 -0.01031,-0.1031 -0.154639,-0.29897 -0.134021,-0.19588 -0.484537,-0.19588 -0.402062,0 -0.536083,0.2165 -0.123711,0.20618 -0.144329,0.30928 -0.02062,0.10309 -0.02062,0.23711 v 3.4433 q 0,0.19588 0.01031,0.29897 0.02062,0.0928 0.154639,0.30928 0.14433,0.21649 0.525774,0.21649 0.412371,0 0.515464,-0.21649 0.113402,-0.2165 0.134021,-0.31959 0.02062,-0.10309 0.02062,-0.28866 v -1.20619 h -0.793815 v -0.85567 h 1.762887 v 2.06186 q 0,0.43299 -0.05155,0.62887 -0.05155,0.18556 -0.185567,0.40206 z"
         style="letter-spacing:0.00264583px;fill:#000000;fill-opacity:1;stroke:none;stroke-width:0.19329908"
         id="path920"
         inkscape:connector-curvature="0" />
      <path
         d="m 55.054331,254.03816 1.536084,-6.87629 h 0.855671 l 1.536083,6.87629 h -1.051547 l -0.278351,-1.47423 H 56.37392 l -0.278351,1.47423 z m 1.494847,-2.39176 h 0.927835 l -0.463917,-2.50515 z"
         style="letter-spacing:0.00264583px;fill:#000000;fill-opacity:1;stroke:none;stroke-width:0.19329908"
         id="path922"
         inkscape:connector-curvature="0" />
    </g>
  </g>
</svg>
