<?xml version="1.0" encoding="UTF-8" standalone="no"?>
<!-- Created with Inkscape (http://www.inkscape.org/) -->

<svg
   xmlns:dc="http://purl.org/dc/elements/1.1/"
   xmlns:cc="http://creativecommons.org/ns#"
   xmlns:rdf="http://www.w3.org/1999/02/22-rdf-syntax-ns#"
   xmlns:svg="http://www.w3.org/2000/svg"
   xmlns="http://www.w3.org/2000/svg"
   xmlns:sodipodi="http://sodipodi.sourceforge.net/DTD/sodipodi-0.dtd"
   xmlns:inkscape="http://www.inkscape.org/namespaces/inkscape"
   width="61mm"
   height="61mm"
   viewBox="0 0 61 61"
   version="1.1"
   id="svg2000"
   inkscape:version="0.92.2 (5c3e80d, 2017-08-06)"
   sodipodi:docname="22.svg">
  <defs
     id="defs1994" />
  <sodipodi:namedview
     id="base"
     pagecolor="#ffffff"
     bordercolor="#666666"
     borderopacity="1.0"
     inkscape:pageopacity="0.0"
     inkscape:pageshadow="2"
     inkscape:zoom="1.4"
     inkscape:cx="63.363711"
     inkscape:cy="140.80754"
     inkscape:document-units="mm"
     inkscape:current-layer="layer1"
     showgrid="false"
     inkscape:window-width="1920"
     inkscape:window-height="1057"
     inkscape:window-x="-8"
     inkscape:window-y="-8"
     inkscape:window-maximized="1" />
  <metadata
     id="metadata1997">
    <rdf:RDF>
      <cc:Work
         rdf:about="">
        <dc:format>image/svg+xml</dc:format>
        <dc:type
           rdf:resource="http://purl.org/dc/dcmitype/StillImage" />
        <dc:title></dc:title>
      </cc:Work>
    </rdf:RDF>
  </metadata>
  <g
     inkscape:label="Layer 1"
     inkscape:groupmode="layer"
     id="layer1"
     transform="translate(0,-236)">
    <circle
       style="opacity:1;fill:#dc0a14;fill-opacity:1;fill-rule:nonzero;stroke:none;stroke-width:0.18410923;stroke-linecap:square;stroke-linejoin:round;stroke-miterlimit:4;stroke-dasharray:none;stroke-opacity:1;paint-order:stroke fill markers"
       id="path17"
       cx="30.500002"
       cy="266.5"
       r="30.000002" />
    <circle
       r="24"
       cy="266.5"
       cx="30.500002"
       id="circle1748"
       style="opacity:1;fill:#ffffff;fill-opacity:1;fill-rule:nonzero;stroke:none;stroke-width:0.14728737;stroke-linecap:square;stroke-linejoin:round;stroke-miterlimit:4;stroke-dasharray:none;stroke-opacity:1;paint-order:stroke fill markers" />
    <rect
       style="opacity:1;fill:#003c82;fill-opacity:1;fill-rule:nonzero;stroke:none;stroke-width:0.83758694;stroke-linecap:square;stroke-linejoin:round;stroke-miterlimit:4;stroke-dasharray:none;stroke-opacity:1;paint-order:stroke fill markers"
       id="rect824"
       width="38.000004"
       height="6.8000002"
       x="11.500029"
       y="263.10001"
       rx="3.4000001"
       ry="3.4000001" />
    <path
       d="m 19.959004,280.42929 v -7.85862 h 1.837997 q 0.341679,0 0.683358,0.14138 0.341679,0.14139 0.565537,0.37703 0.235641,0.22386 0.388807,0.54197 0.164949,0.31812 0.164949,0.61267 v 1.14286 q 0,0.43593 -0.117821,0.77761 -0.11782,0.34168 -0.412371,0.63623 -0.282769,0.28277 -0.624447,0.41237 -0.329897,0.11782 -0.777615,0.11782 h -0.589101 v 3.09868 z m 2.37997,-4.38292 q 0.106039,-0.10604 0.129603,-0.22386 0.03535,-0.11782 0.03535,-0.29455 v -0.14138 -1.02504 q 0,-0.3299 -0.200295,-0.54197 -0.200294,-0.21208 -0.541973,-0.21208 h -0.683358 v 2.66274 h 0.589101 q 0.235641,0 0.377025,-0.0353 0.153167,-0.0471 0.294551,-0.18851 z"
       style="font-style:normal;font-variant:normal;font-weight:normal;font-stretch:normal;font-size:11.78203201px;line-height:1.25;font-family:'DIN 1451 Engschrift';-inkscape-font-specification:'DIN 1451 Engschrift';letter-spacing:0px;word-spacing:0px;fill:#003c82;fill-opacity:1;stroke:none;stroke-width:0.22091311"
       id="path945"
       inkscape:connector-curvature="0" />
    <path
       d="m 24.659482,273.31294 q 0.270987,-0.37703 0.683358,-0.5891 0.412371,-0.22386 0.860088,-0.22386 0.435936,0 0.812961,0.17673 0.388807,0.17673 0.636229,0.48306 0.259205,0.30633 0.353461,0.62445 0.09426,0.31811 0.09426,0.69514 v 4.00589 q 0,0.35346 -0.07069,0.62445 -0.05891,0.2592 -0.270986,0.5891 -0.212077,0.3299 -0.624448,0.56554 -0.412371,0.23564 -0.895435,0.23564 -0.553755,0 -1.025036,-0.28277 -0.4595,-0.28277 -0.648012,-0.63623 -0.176731,-0.36524 -0.212077,-0.57732 -0.03535,-0.22386 -0.03535,-0.51841 v -4.00589 q 0,-0.35346 0.07069,-0.62445 0.08247,-0.27098 0.270987,-0.54197 z m 2.179676,0.61266 q -0.235641,-0.31811 -0.612666,-0.31811 -0.200294,0 -0.400589,0.11782 -0.188512,0.10604 -0.270986,0.24742 -0.07069,0.1296 -0.09426,0.27099 -0.02356,0.14138 -0.02356,0.23564 v 4.00589 q 0,0.11782 0.01178,0.25921 0.02356,0.14138 0.188513,0.3888 0.17673,0.23564 0.589101,0.23564 0.212077,0 0.377025,-0.0942 0.176731,-0.10604 0.247423,-0.23564 0.08247,-0.12961 0.106038,-0.24743 0.02356,-0.11782 0.02356,-0.30633 v -4.00589 q 0,-0.23564 -0.02356,-0.3299 -0.01178,-0.0943 -0.11782,-0.22386 z"
       style="font-style:normal;font-variant:normal;font-weight:normal;font-stretch:normal;font-size:11.78203201px;line-height:1.25;font-family:'DIN 1451 Engschrift';-inkscape-font-specification:'DIN 1451 Engschrift';letter-spacing:0px;word-spacing:0px;fill:#003c82;fill-opacity:1;stroke:none;stroke-width:0.22091311"
       id="path947"
       inkscape:connector-curvature="0" />
    <path
       d="m 32.590631,280.42929 h -3.346097 v -7.85862 h 1.119293 v 6.72754 h 2.226804 z"
       style="font-style:normal;font-variant:normal;font-weight:normal;font-stretch:normal;font-size:11.78203201px;line-height:1.25;font-family:'DIN 1451 Engschrift';-inkscape-font-specification:'DIN 1451 Engschrift';letter-spacing:0px;word-spacing:0px;fill:#003c82;fill-opacity:1;stroke:none;stroke-width:0.22091311"
       id="path949"
       inkscape:connector-curvature="0" />
    <path
       d="m 33.443907,280.42929 v -7.85862 h 1.107511 v 7.85862 z"
       style="font-style:normal;font-variant:normal;font-weight:normal;font-stretch:normal;font-size:11.78203201px;line-height:1.25;font-family:'DIN 1451 Engschrift';-inkscape-font-specification:'DIN 1451 Engschrift';letter-spacing:0px;word-spacing:0px;fill:#003c82;fill-opacity:1;stroke:none;stroke-width:0.22091311"
       id="path951"
       inkscape:connector-curvature="0" />
    <path
       d="m 36.686544,280.42929 v -6.81002 h -1.319588 v -1.0486 h 3.782033 v 1.0486 h -1.343152 v 6.81002 z"
       style="font-style:normal;font-variant:normal;font-weight:normal;font-stretch:normal;font-size:11.78203201px;line-height:1.25;font-family:'DIN 1451 Engschrift';-inkscape-font-specification:'DIN 1451 Engschrift';letter-spacing:0px;word-spacing:0px;fill:#003c82;fill-opacity:1;stroke:none;stroke-width:0.22091311"
       id="path953"
       inkscape:connector-curvature="0" />
    <path
       d="m 39.93323,280.42929 v -7.85862 h 1.107511 v 7.85862 z"
       style="font-style:normal;font-variant:normal;font-weight:normal;font-stretch:normal;font-size:11.78203201px;line-height:1.25;font-family:'DIN 1451 Engschrift';-inkscape-font-specification:'DIN 1451 Engschrift';letter-spacing:0px;word-spacing:0px;fill:#003c82;fill-opacity:1;stroke:none;stroke-width:0.22091311"
       id="path955"
       inkscape:connector-curvature="0" />
    <path
       d="m 20.805004,260.42929 v -7.85862 h 1.837997 q 0.341679,0 0.683358,0.14139 0.341679,0.14138 0.565537,0.37702 0.235641,0.22386 0.388807,0.54197 0.164949,0.31812 0.164949,0.61267 v 1.14286 q 0,0.43593 -0.117821,0.77761 -0.11782,0.34168 -0.412371,0.63623 -0.282769,0.28277 -0.624447,0.41237 -0.329897,0.11782 -0.777615,0.11782 h -0.589101 v 3.09868 z m 2.37997,-4.38292 q 0.106039,-0.10604 0.129603,-0.22386 0.03535,-0.11782 0.03535,-0.29455 v -0.14138 -1.02504 q 0,-0.3299 -0.200295,-0.54197 -0.200294,-0.21208 -0.541973,-0.21208 h -0.683358 v 2.66274 h 0.589101 q 0.235641,0 0.377025,-0.0353 0.153167,-0.0471 0.294551,-0.18851 z"
       style="font-style:normal;font-variant:normal;font-weight:normal;font-stretch:normal;font-size:11.78203201px;line-height:1.25;font-family:'DIN 1451 Engschrift';-inkscape-font-specification:'DIN 1451 Engschrift';letter-spacing:0px;word-spacing:0px;fill:#003c82;fill-opacity:1;stroke:none;stroke-width:0.22091311"
       id="path934"
       inkscape:connector-curvature="0" />
    <path
       d="m 25.505482,253.31294 q 0.270987,-0.37703 0.683358,-0.5891 0.412371,-0.22386 0.860088,-0.22386 0.435936,0 0.812961,0.17673 0.388807,0.17673 0.636229,0.48306 0.259205,0.30634 0.353461,0.62445 0.09426,0.31812 0.09426,0.69514 v 4.00589 q 0,0.35346 -0.07069,0.62445 -0.05891,0.2592 -0.270986,0.5891 -0.212077,0.3299 -0.624448,0.56554 -0.412371,0.23564 -0.895435,0.23564 -0.553755,0 -1.025036,-0.28277 -0.4595,-0.28277 -0.648012,-0.63623 -0.176731,-0.36524 -0.212077,-0.57732 -0.03535,-0.22386 -0.03535,-0.51841 v -4.00589 q 0,-0.35346 0.07069,-0.62445 0.08248,-0.27098 0.270987,-0.54197 z m 2.179676,0.61266 q -0.235641,-0.31811 -0.612666,-0.31811 -0.200294,0 -0.400589,0.11782 -0.188512,0.10604 -0.270986,0.24742 -0.07069,0.12961 -0.09426,0.27099 -0.02356,0.14138 -0.02356,0.23564 v 4.00589 q 0,0.11782 0.01178,0.25921 0.02356,0.14138 0.188513,0.3888 0.17673,0.23564 0.589101,0.23564 0.212077,0 0.377025,-0.0942 0.176731,-0.10604 0.247423,-0.23564 0.08247,-0.12961 0.106038,-0.24743 0.02356,-0.11782 0.02356,-0.30633 v -4.00589 q 0,-0.23564 -0.02356,-0.3299 -0.01178,-0.0942 -0.11782,-0.22386 z"
       style="font-style:normal;font-variant:normal;font-weight:normal;font-stretch:normal;font-size:11.78203201px;line-height:1.25;font-family:'DIN 1451 Engschrift';-inkscape-font-specification:'DIN 1451 Engschrift';letter-spacing:0px;word-spacing:0px;fill:#003c82;fill-opacity:1;stroke:none;stroke-width:0.22091311"
       id="path936"
       inkscape:connector-curvature="0" />
    <path
       d="m 33.436631,260.42929 h -3.346097 v -7.85862 h 1.119293 v 6.72754 h 2.226804 z"
       style="font-style:normal;font-variant:normal;font-weight:normal;font-stretch:normal;font-size:11.78203201px;line-height:1.25;font-family:'DIN 1451 Engschrift';-inkscape-font-specification:'DIN 1451 Engschrift';letter-spacing:0px;word-spacing:0px;fill:#003c82;fill-opacity:1;stroke:none;stroke-width:0.22091311"
       id="path938"
       inkscape:connector-curvature="0" />
    <path
       d="m 34.289907,260.42929 v -7.85862 h 1.107511 v 7.85862 z"
       style="font-style:normal;font-variant:normal;font-weight:normal;font-stretch:normal;font-size:11.78203201px;line-height:1.25;font-family:'DIN 1451 Engschrift';-inkscape-font-specification:'DIN 1451 Engschrift';letter-spacing:0px;word-spacing:0px;fill:#003c82;fill-opacity:1;stroke:none;stroke-width:0.22091311"
       id="path940"
       inkscape:connector-curvature="0" />
    <path
       d="m 37.461852,258.47347 q 0,0.22386 0.01178,0.34168 0.02356,0.10604 0.17673,0.34168 0.164949,0.22386 0.589102,0.22386 0.23564,0 0.435935,-0.0943 0.200295,-0.10604 0.294551,-0.25921 0.09426,-0.16494 0.09426,-0.32989 0.01178,-0.17673 0.01178,-0.23564 v -0.55376 q 0,-0.23564 -0.02356,-0.35346 -0.01178,-0.11782 -0.141384,-0.24742 -0.117821,-0.14139 -0.353461,-0.24742 -0.223859,-0.11783 -0.801179,-0.3299 -0.565537,-0.21208 -0.954344,-0.6598 -0.388807,-0.45949 -0.388807,-1.24889 v -0.35346 q 0,-0.80118 0.530191,-1.3785 0.541974,-0.5891 1.343152,-0.5891 0.81296,0 1.354934,0.57732 0.553755,0.56554 0.553755,1.39028 v 0.35346 h -1.119293 v -0.35346 q 0,-0.16495 -0.02356,-0.28277 -0.02356,-0.11782 -0.188513,-0.34168 -0.164948,-0.22386 -0.553756,-0.22386 -0.341678,0 -0.565537,0.24742 -0.212076,0.23565 -0.212076,0.60089 v 0.35346 q 0,0.22386 0.01178,0.3299 0.02356,0.0943 0.129602,0.22385 0.106039,0.12961 0.306333,0.22386 0.200295,0.0943 0.765832,0.30634 0.57732,0.20029 1.013255,0.67157 0.435935,0.4595 0.435935,1.26068 v 0.63623 q 0,0.38881 -0.08247,0.68336 -0.07069,0.29455 -0.471281,0.82474 -0.400589,0.51841 -1.378497,0.51841 -1.013255,0 -1.472754,-0.6598 -0.459499,-0.67157 -0.459499,-1.36671 v -0.28277 h 1.131075 z"
       style="font-style:normal;font-variant:normal;font-weight:normal;font-stretch:normal;font-size:11.78203201px;line-height:1.25;font-family:'DIN 1451 Engschrift';-inkscape-font-specification:'DIN 1451 Engschrift';letter-spacing:0px;word-spacing:0px;fill:#003c82;fill-opacity:1;stroke:none;stroke-width:0.22091311"
       id="path942"
       inkscape:connector-curvature="0" />
  </g>
</svg>
