<?xml version="1.0" encoding="UTF-8" standalone="no"?>
<!-- Created with Inkscape (http://www.inkscape.org/) -->

<svg
   xmlns:dc="http://purl.org/dc/elements/1.1/"
   xmlns:cc="http://creativecommons.org/ns#"
   xmlns:rdf="http://www.w3.org/1999/02/22-rdf-syntax-ns#"
   xmlns:svg="http://www.w3.org/2000/svg"
   xmlns="http://www.w3.org/2000/svg"
   xmlns:sodipodi="http://sodipodi.sourceforge.net/DTD/sodipodi-0.dtd"
   xmlns:inkscape="http://www.inkscape.org/namespaces/inkscape"
   width="61mm"
   height="61mm"
   viewBox="0 0 61 61"
   version="1.1"
   id="svg2000"
   inkscape:version="0.92.2 (5c3e80d, 2017-08-06)"
   sodipodi:docname="11.svg">
  <defs
     id="defs1994" />
  <sodipodi:namedview
     id="base"
     pagecolor="#ffffff"
     bordercolor="#666666"
     borderopacity="1.0"
     inkscape:pageopacity="0.0"
     inkscape:pageshadow="2"
     inkscape:zoom="1.979899"
     inkscape:cx="138.63952"
     inkscape:cy="51.177188"
     inkscape:document-units="mm"
     inkscape:current-layer="layer1"
     showgrid="false"
     inkscape:window-width="1920"
     inkscape:window-height="1057"
     inkscape:window-x="-8"
     inkscape:window-y="-8"
     inkscape:window-maximized="1"
     fit-margin-top="0"
     fit-margin-left="0"
     fit-margin-right="0"
     fit-margin-bottom="0"
     showborder="true" />
  <metadata
     id="metadata1997">
    <rdf:RDF>
      <cc:Work
         rdf:about="">
        <dc:format>image/svg+xml</dc:format>
        <dc:type
           rdf:resource="http://purl.org/dc/dcmitype/StillImage" />
        <dc:title></dc:title>
      </cc:Work>
    </rdf:RDF>
  </metadata>
  <g
     inkscape:label="Layer 1"
     inkscape:groupmode="layer"
     id="layer1"
     transform="translate(-11,-209.40001)">
    <circle
       style="opacity:1;fill:#dc0a14;fill-opacity:1;fill-rule:nonzero;stroke:none;stroke-width:0.18410923;stroke-linecap:square;stroke-linejoin:round;stroke-miterlimit:4;stroke-dasharray:none;stroke-opacity:1;paint-order:stroke fill markers"
       id="path17"
       cx="41.5"
       cy="239.90001"
       r="30.000002" />
    <circle
       r="24"
       cy="239.90001"
       cx="41.5"
       id="circle1748"
       style="opacity:1;fill:#ffffff;fill-opacity:1;fill-rule:nonzero;stroke:none;stroke-width:0.14728737;stroke-linecap:square;stroke-linejoin:round;stroke-miterlimit:4;stroke-dasharray:none;stroke-opacity:1;paint-order:stroke fill markers" />
    <rect
       style="opacity:1;fill:#000000;fill-opacity:1;fill-rule:nonzero;stroke:none;stroke-width:0.83758694;stroke-linecap:square;stroke-linejoin:round;stroke-miterlimit:4;stroke-dasharray:none;stroke-opacity:1;paint-order:stroke fill markers"
       id="rect824"
       width="38"
       height="6.8000002"
       x="22.500015"
       y="236.50002"
       rx="3.4000001"
       ry="3.4000001" />
    <text
       xml:space="preserve"
       style="font-style:normal;font-variant:normal;font-weight:normal;font-stretch:normal;font-size:7.05555534px;line-height:1.25;font-family:'DIN 1451 Mittelschrift';-inkscape-font-specification:'DIN 1451 Mittelschrift';letter-spacing:0px;word-spacing:0px;fill:#000000;fill-opacity:1;stroke:none;stroke-width:0.26458332"
       x="-43.030396"
       y="259.98318"
       id="text821"><tspan
         sodipodi:role="line"
         id="tspan819"
         x="-43.030396"
         y="266.53735"
         style="stroke-width:0.26458332" /></text>
    <g
       aria-label="DOUANE"
       style="font-style:normal;font-variant:normal;font-weight:normal;font-stretch:normal;font-size:13.25478649px;line-height:1.25;font-family:'DIN 1451 Engschrift';-inkscape-font-specification:'DIN 1451 Engschrift';letter-spacing:0.00264583px;word-spacing:0px;fill:#000000;fill-opacity:1;stroke:none;stroke-width:0.24852724"
       id="text855"
       transform="matrix(0.88888889,0,0,0.88888889,5.0555574,45.188863)">
      <path
         d="m 27.566473,225.87956 q 0.848306,0 1.458027,0.60972 0.622975,0.59647 0.622975,1.44477 v 4.59941 q 0,0.95435 -0.596466,1.57732 -0.58321,0.60972 -1.5243,0.60972 H 25.565 v -8.84094 z m 0.835052,6.6539 v -4.59941 q 0,-0.37113 -0.278351,-0.60972 -0.265096,-0.25184 -0.649484,-0.25184 h -0.66274 v 6.46834 h 0.622975 q 0.9676,0 0.9676,-1.00737 z"
         style="letter-spacing:0.00264583px;fill:#000000;fill-opacity:1;stroke:none;stroke-width:0.24852724;stroke-opacity:1"
         id="path861"
         inkscape:connector-curvature="0" />
      <path
         d="m 31.21812,226.71461 q 0.30486,-0.42415 0.768778,-0.66274 0.463917,-0.25184 0.967599,-0.25184 0.490427,0 0.914581,0.19883 0.437408,0.19882 0.715758,0.54344 0.291605,0.34463 0.397644,0.70251 0.106038,0.35787 0.106038,0.78203 v 4.50662 q 0,0.39765 -0.07953,0.70251 -0.06627,0.2916 -0.30486,0.66274 -0.238586,0.37113 -0.702504,0.63623 -0.463917,0.26509 -1.007363,0.26509 -0.622975,0 -1.153167,-0.31811 -0.516936,-0.31812 -0.729013,-0.71576 -0.198822,-0.4109 -0.238586,-0.64948 -0.03976,-0.25185 -0.03976,-0.58322 v -4.50662 q 0,-0.39765 0.07953,-0.70251 0.09278,-0.30486 0.30486,-0.60972 z m 2.452136,0.68925 q -0.265096,-0.35788 -0.689249,-0.35788 -0.225332,0 -0.450663,0.13255 -0.212076,0.11929 -0.30486,0.27835 -0.07953,0.1458 -0.106038,0.30486 -0.02651,0.15906 -0.02651,0.2651 v 4.50662 q 0,0.13255 0.01326,0.29161 0.02651,0.15906 0.212077,0.43741 0.198821,0.26509 0.662739,0.26509 0.238586,0 0.424153,-0.10603 0.198822,-0.1193 0.278351,-0.2651 0.09278,-0.1458 0.119293,-0.27835 0.02651,-0.13255 0.02651,-0.34463 v -4.50662 q 0,-0.2651 -0.02651,-0.37114 -0.01326,-0.10603 -0.132548,-0.25184 z"
         style="letter-spacing:0.00264583px;fill:#000000;fill-opacity:1;stroke:none;stroke-width:0.24852724;stroke-opacity:1"
         id="path863"
         inkscape:connector-curvature="0" />
      <path
         d="m 40.183072,233.79267 q -0.27835,0.45066 -0.742268,0.72901 -0.463917,0.27835 -1.007363,0.27835 -0.556701,0 -1.060383,-0.27835 -0.490427,-0.2916 -0.689249,-0.64948 -0.198822,-0.37114 -0.265096,-0.63623 -0.05302,-0.27835 -0.05302,-0.59647 v -6.75994 h 1.259205 v 6.75994 q 0,0.17232 0.02651,0.30486 0.02651,0.1193 0.198822,0.35788 0.185567,0.23859 0.596465,0.23859 0.384389,0 0.569956,-0.27835 0.198822,-0.27835 0.198822,-0.62298 v -6.75994 h 1.259205 v 6.75994 q 0,0.31812 -0.06627,0.60972 -0.06627,0.27835 -0.225332,0.54345 z"
         style="letter-spacing:0.00264583px;fill:#000000;fill-opacity:1;stroke:none;stroke-width:0.24852724;stroke-opacity:1"
         id="path865"
         inkscape:connector-curvature="0" />
      <path
         d="m 41.154769,234.7205 1.974963,-8.84094 h 1.100147 l 1.974963,8.84094 h -1.351988 l -0.357879,-1.89543 h -1.643594 l -0.357879,1.89543 z m 1.921944,-3.07511 h 1.19293 l -0.596465,-3.22091 z"
         style="letter-spacing:0.00264583px;fill:#000000;fill-opacity:1;stroke:none;stroke-width:0.24852724;stroke-opacity:1"
         id="path867"
         inkscape:connector-curvature="0" />
      <path
         d="m 50.089896,234.7205 -1.974963,-5.36818 v 5.36818 h -1.259205 v -8.84094 h 1.192931 l 1.961708,5.35494 v -5.35494 h 1.259205 v 8.84094 z"
         style="letter-spacing:0.00264583px;fill:#000000;fill-opacity:1;stroke:none;stroke-width:0.24852724;stroke-opacity:1"
         id="path869"
         inkscape:connector-curvature="0" />
      <path
         d="m 56.434959,233.44805 v 1.27245 h -3.777614 v -8.84094 h 3.777614 v 1.16642 h -2.531664 v 2.6112 h 2.226804 v 1.19293 h -2.226804 v 2.59794 z"
         style="letter-spacing:0.00264583px;fill:#000000;fill-opacity:1;stroke:none;stroke-width:0.24852724;stroke-opacity:1"
         id="path871"
         inkscape:connector-curvature="0" />
    </g>
    <g
       aria-label="CUSTOMS"
       style="font-style:normal;font-variant:normal;font-weight:normal;font-stretch:normal;font-size:13.25478649px;line-height:1.25;font-family:'DIN 1451 Engschrift';-inkscape-font-specification:'DIN 1451 Engschrift';letter-spacing:0.0079375px;word-spacing:0px;fill:#000000;fill-opacity:1;stroke:none;stroke-width:0.24852724"
       id="text831"
       transform="matrix(0.88888889,0,0,0.88888889,5.0554481,24.655553)">
      <path
         d="m 26.604474,233.09368 q 0,0.42415 -0.05302,0.72901 -0.03976,0.29161 -0.265095,0.64949 -0.212077,0.35788 -0.689249,0.64948 -0.463918,0.27835 -0.954345,0.27835 -0.58321,0 -1.073638,-0.25184 -0.477172,-0.25184 -0.702503,-0.63623 -0.225332,-0.38439 -0.291606,-0.7025 -0.05302,-0.33137 -0.05302,-0.71576 v -4.55965 q 0,-0.37113 0.06627,-0.66274 0.07953,-0.2916 0.318115,-0.63623 0.238586,-0.34462 0.662739,-0.58321 0.437408,-0.25184 0.914581,-0.25184 0.91458,0 1.511045,0.60972 0.609721,0.59647 0.609721,1.5243 v 0.47718 h -1.24595 v -0.47718 q 0,-0.37113 -0.212077,-0.60972 -0.198822,-0.25184 -0.596465,-0.25184 -0.371134,0 -0.583211,0.25184 -0.198822,0.23859 -0.198822,0.60972 v 4.55965 q 0,0.17231 0,0.34462 0.01325,0.17232 0.185567,0.43741 0.172312,0.2651 0.60972,0.2651 0.463918,0 0.596466,-0.22533 0.145802,-0.23859 0.172312,-0.34463 0.02651,-0.11929 0.02651,-0.31811 v -0.15906 -0.29161 h 1.24595 z"
         style="letter-spacing:0.0079375px;fill:#000000;fill-opacity:1;stroke:none;stroke-width:0.24852724;stroke-opacity:1"
         id="path846"
         inkscape:connector-curvature="0" />
      <path
         d="m 31.52683,234.39265 q -0.27835,0.45066 -0.742268,0.72901 -0.463918,0.27835 -1.007364,0.27835 -0.556701,0 -1.060383,-0.27835 -0.490427,-0.2916 -0.689249,-0.64948 -0.198821,-0.37114 -0.265095,-0.63623 -0.05302,-0.27835 -0.05302,-0.59647 v -6.75994 h 1.259204 v 6.75994 q 0,0.17231 0.02651,0.30486 0.02651,0.1193 0.198822,0.35788 0.185567,0.23859 0.596465,0.23859 0.384389,0 0.569956,-0.27835 0.198822,-0.27835 0.198822,-0.62298 v -6.75994 h 1.259204 v 6.75994 q 0,0.31812 -0.06627,0.60972 -0.06627,0.27835 -0.225331,0.54345 z"
         style="letter-spacing:0.0079375px;fill:#000000;fill-opacity:1;stroke:none;stroke-width:0.24852724;stroke-opacity:1"
         id="path848"
         inkscape:connector-curvature="0" />
      <path
         d="m 34.107646,233.12019 q 0,0.25184 0.01326,0.38439 0.02651,0.11929 0.198822,0.38439 0.185567,0.25184 0.662739,0.25184 0.265096,0 0.490427,-0.10604 0.225332,-0.11929 0.33137,-0.29161 0.106038,-0.18556 0.106038,-0.37113 0.01326,-0.19882 0.01326,-0.2651 v -0.62297 q 0,-0.2651 -0.02651,-0.39764 -0.01325,-0.13255 -0.159058,-0.27835 -0.132548,-0.15906 -0.397643,-0.27835 -0.251841,-0.13255 -0.901326,-0.37114 -0.63623,-0.23858 -1.073638,-0.74227 -0.437408,-0.51693 -0.437408,-1.405 v -0.39765 q 0,-0.90132 0.596466,-1.55081 0.60972,-0.66274 1.511045,-0.66274 0.914581,0 1.524301,0.64949 0.622975,0.63623 0.622975,1.56406 v 0.39765 h -1.259205 v -0.39765 q 0,-0.18556 -0.02651,-0.31811 -0.02651,-0.13255 -0.212077,-0.38439 -0.185567,-0.25184 -0.622975,-0.25184 -0.384389,0 -0.63623,0.27835 -0.238586,0.26509 -0.238586,0.67599 v 0.39765 q 0,0.25184 0.01325,0.37113 0.02651,0.10604 0.145803,0.25184 0.119293,0.1458 0.344624,0.25184 0.225331,0.10604 0.861561,0.34463 0.649485,0.22533 1.139912,0.75552 0.490427,0.51694 0.490427,1.41826 v 0.71576 q 0,0.43741 -0.09278,0.76878 -0.07953,0.33137 -0.530191,0.92783 -0.450663,0.58321 -1.55081,0.58321 -1.139912,0 -1.656848,-0.74227 -0.516937,-0.75552 -0.516937,-1.53755 v -0.31812 h 1.272459 z"
         style="letter-spacing:0.0079375px;fill:#000000;fill-opacity:1;stroke:none;stroke-width:0.24852724;stroke-opacity:1"
         id="path850"
         inkscape:connector-curvature="0" />
      <path
         d="m 39.320987,235.32048 v -7.66126 h -1.484536 v -1.17968 h 4.254786 v 1.17968 h -1.511045 v 7.66126 z"
         style="letter-spacing:0.0079375px;fill:#000000;fill-opacity:1;stroke:none;stroke-width:0.24852724;stroke-opacity:1"
         id="path852"
         inkscape:connector-curvature="0" />
      <path
         d="m 43.273052,227.31459 q 0.30486,-0.42415 0.768778,-0.66274 0.463918,-0.25184 0.967599,-0.25184 0.490428,0 0.914581,0.19882 0.437408,0.19883 0.715758,0.54345 0.291605,0.34463 0.397644,0.7025 0.106038,0.35788 0.106038,0.78204 v 4.50662 q 0,0.39765 -0.07953,0.70251 -0.06627,0.2916 -0.30486,0.66274 -0.238586,0.37113 -0.702503,0.63623 -0.463917,0.26509 -1.007363,0.26509 -0.622975,0 -1.153167,-0.31811 -0.516936,-0.31812 -0.729013,-0.71576 -0.198822,-0.4109 -0.238586,-0.64948 -0.03976,-0.25185 -0.03976,-0.58322 v -4.50662 q 0,-0.39765 0.07953,-0.70251 0.09278,-0.30486 0.30486,-0.60972 z m 2.452136,0.68925 q -0.265096,-0.35788 -0.689249,-0.35788 -0.225331,0 -0.450663,0.13255 -0.212076,0.11929 -0.30486,0.27835 -0.07953,0.1458 -0.106038,0.30486 -0.02651,0.15906 -0.02651,0.2651 v 4.50662 q 0,0.13255 0.01326,0.29161 0.02651,0.15906 0.212077,0.43741 0.198821,0.26509 0.662739,0.26509 0.238586,0 0.424153,-0.10603 0.198822,-0.1193 0.278351,-0.2651 0.09278,-0.1458 0.119293,-0.27835 0.02651,-0.13255 0.02651,-0.34463 v -4.50662 q 0,-0.2651 -0.02651,-0.37114 -0.01326,-0.10604 -0.132548,-0.25184 z"
         style="letter-spacing:0.0079375px;fill:#000000;fill-opacity:1;stroke:none;stroke-width:0.24852724;stroke-opacity:1"
         id="path854"
         inkscape:connector-curvature="0" />
      <path
         d="m 52.83976,235.32048 v -5.38144 l -1.259204,3.77762 h -0.63623 l -1.259205,-3.77762 v 5.38144 h -1.259204 v -8.84094 h 1.179676 l 1.683357,4.70545 1.643594,-4.70545 h 1.166421 v 8.84094 z"
         style="letter-spacing:0.0079375px;fill:#000000;fill-opacity:1;stroke:none;stroke-width:0.24852724;stroke-opacity:1"
         id="path856"
         inkscape:connector-curvature="0" />
      <path
         d="m 56.403295,233.12019 q 0,0.25184 0.01326,0.38439 0.02651,0.11929 0.198822,0.38439 0.185567,0.25184 0.662739,0.25184 0.265096,0 0.490427,-0.10604 0.225331,-0.11929 0.33137,-0.29161 0.106038,-0.18556 0.106038,-0.37113 0.01326,-0.19882 0.01326,-0.2651 v -0.62297 q 0,-0.2651 -0.02651,-0.39764 -0.01326,-0.13255 -0.159057,-0.27835 -0.132548,-0.15906 -0.397644,-0.27835 -0.251841,-0.13255 -0.901325,-0.37114 -0.63623,-0.23858 -1.073638,-0.74227 -0.437408,-0.51693 -0.437408,-1.405 v -0.39765 q 0,-0.90132 0.596465,-1.55081 0.609711,-0.66274 1.511036,-0.66274 0.91458,0 1.5243,0.64949 0.622975,0.63623 0.622975,1.56406 v 0.39765 h -1.259204 v -0.39765 q 0,-0.18556 -0.02651,-0.31811 -0.02651,-0.13255 -0.212076,-0.38439 -0.185567,-0.25184 -0.622975,-0.25184 -0.384389,0 -0.63623,0.27835 -0.238586,0.26509 -0.238586,0.67599 v 0.39765 q 0,0.25184 0.01325,0.37113 0.02651,0.10604 0.145803,0.25184 0.119293,0.1458 0.344625,0.25184 0.225331,0.10604 0.861561,0.34463 0.649484,0.22533 1.139911,0.75552 0.490427,0.51694 0.490427,1.41826 v 0.71576 q 0,0.43741 -0.09278,0.76878 -0.07953,0.33137 -0.530192,0.92783 -0.450662,0.58321 -1.55081,0.58321 -1.139911,0 -1.656848,-0.74227 -0.516937,-0.75552 -0.516937,-1.53755 v -0.31812 h 1.27246 z"
         style="letter-spacing:0.0079375px;fill:#000000;fill-opacity:1;stroke:none;stroke-width:0.24852724;stroke-opacity:1"
         id="path858"
         inkscape:connector-curvature="0" />
    </g>
  </g>
</svg>
