<?xml version="1.0" encoding="UTF-8" standalone="no"?>
<!-- Created with Inkscape (http://www.inkscape.org/) -->

<svg
   xmlns:dc="http://purl.org/dc/elements/1.1/"
   xmlns:cc="http://creativecommons.org/ns#"
   xmlns:rdf="http://www.w3.org/1999/02/22-rdf-syntax-ns#"
   xmlns:svg="http://www.w3.org/2000/svg"
   xmlns="http://www.w3.org/2000/svg"
   xmlns:sodipodi="http://sodipodi.sourceforge.net/DTD/sodipodi-0.dtd"
   xmlns:inkscape="http://www.inkscape.org/namespaces/inkscape"
   width="61mm"
   height="61mm"
   viewBox="0 0 61 61"
   version="1.1"
   id="svg2000"
   inkscape:version="0.92.2 (5c3e80d, 2017-08-06)"
   sodipodi:docname="33.svg">
  <defs
     id="defs1994" />
  <sodipodi:namedview
     id="base"
     pagecolor="#ffffff"
     bordercolor="#666666"
     borderopacity="1.0"
     inkscape:pageopacity="0.0"
     inkscape:pageshadow="2"
     inkscape:zoom="1.979899"
     inkscape:cx="191.16912"
     inkscape:cy="80.399303"
     inkscape:document-units="mm"
     inkscape:current-layer="layer1"
     showgrid="false"
     inkscape:window-width="1920"
     inkscape:window-height="1057"
     inkscape:window-x="-8"
     inkscape:window-y="-8"
     inkscape:window-maximized="1" />
  <metadata
     id="metadata1997">
    <rdf:RDF>
      <cc:Work
         rdf:about="">
        <dc:format>image/svg+xml</dc:format>
        <dc:type
           rdf:resource="http://purl.org/dc/dcmitype/StillImage" />
        <dc:title></dc:title>
      </cc:Work>
    </rdf:RDF>
  </metadata>
  <g
     inkscape:label="Layer 1"
     inkscape:groupmode="layer"
     id="layer1"
     transform="translate(0,-236)">
    <circle
       style="opacity:1;fill:#dc0a14;fill-opacity:1;fill-rule:nonzero;stroke:none;stroke-width:0.18410923;stroke-linecap:square;stroke-linejoin:round;stroke-miterlimit:4;stroke-dasharray:none;stroke-opacity:1;paint-order:stroke fill markers"
       id="path17"
       cx="30.500002"
       cy="266.5"
       r="30.000002" />
    <circle
       r="24"
       cy="266.5"
       cx="30.500002"
       id="circle1748"
       style="opacity:1;fill:#fad20a;fill-opacity:1;fill-rule:nonzero;stroke:none;stroke-width:0.14728737;stroke-linecap:square;stroke-linejoin:round;stroke-miterlimit:4;stroke-dasharray:none;stroke-opacity:1;paint-order:stroke fill markers" />
    <rect
       style="opacity:1;fill:#000000;fill-opacity:1;fill-rule:nonzero;stroke:none;stroke-width:0.83758694;stroke-linecap:square;stroke-linejoin:round;stroke-miterlimit:4;stroke-dasharray:none;stroke-opacity:1;paint-order:stroke fill markers"
       id="rect824"
       width="38"
       height="6.8000002"
       x="11.5"
       y="263.10001"
       rx="3.4000001"
       ry="3.4000001" />
    <g
       aria-label="MAUT"
       style="font-style:normal;font-variant:normal;font-weight:normal;font-stretch:normal;font-size:11.88707256px;line-height:1.25;font-family:'DIN 1451 Engschrift';-inkscape-font-specification:'DIN 1451 Engschrift';letter-spacing:0px;word-spacing:0px;fill:#000000;fill-opacity:1;stroke:none;stroke-width:0.22288261"
       id="text817"
       transform="translate(0.5,-1.0830495)">
      <path
         d="m 24.405395,281.51172 v -4.82615 l -1.129272,3.38781 h -0.570579 l -1.129272,-3.38781 v 4.82615 H 20.447 v -7.92868 h 1.057949 l 1.509659,4.21991 1.473997,-4.21991 h 1.046062 v 7.92868 z"
         style="fill:#000000;stroke:none;stroke-width:0.22288261"
         id="path819"
         inkscape:connector-curvature="0" />
      <path
         d="m 26.155766,281.51172 1.771174,-7.92868 h 0.986627 l 1.771174,7.92868 H 29.47226 l -0.320951,-1.69985 h -1.473997 l -0.320951,1.69985 z m 1.723626,-2.7578 h 1.069837 l -0.534919,-2.88856 z"
         style="fill:#000000;stroke:none;stroke-width:0.22288261"
         id="path821"
         inkscape:connector-curvature="0" />
      <path
         d="m 34.689571,280.67962 q -0.249629,0.40416 -0.665676,0.65379 -0.416048,0.24963 -0.903418,0.24963 -0.499257,0 -0.950966,-0.24963 -0.439821,-0.26151 -0.618128,-0.58246 -0.178306,-0.33284 -0.237741,-0.57058 -0.04755,-0.24963 -0.04755,-0.53492 v -6.06241 h 1.129272 v 6.06241 q 0,0.15453 0.02377,0.2734 0.02377,0.10698 0.178306,0.32095 0.166419,0.21397 0.534918,0.21397 0.344725,0 0.511144,-0.24963 0.178306,-0.24963 0.178306,-0.55869 v -6.06241 h 1.129272 v 6.06241 q 0,0.28529 -0.05944,0.5468 -0.05944,0.24963 -0.20208,0.48737 z"
         style="fill:#000000;stroke:none;stroke-width:0.22288261"
         id="path823"
         inkscape:connector-curvature="0" />
      <path
         d="m 37.068284,281.51172 v -6.87073 h -1.331352 v -1.05795 h 3.815751 v 1.05795 h -1.355127 v 6.87073 z"
         style="fill:#000000;stroke:none;stroke-width:0.22288261"
         id="path825"
         inkscape:connector-curvature="0" />
    </g>
    <g
       aria-label="PÉAGE"
       style="font-style:normal;font-variant:normal;font-weight:normal;font-stretch:normal;font-size:11.78195px;line-height:1.25;font-family:'DIN 1451 Engschrift';-inkscape-font-specification:'DIN 1451 Engschrift';letter-spacing:0px;word-spacing:0px;fill:#000000;fill-opacity:1;stroke:none;stroke-width:0.22091155"
       id="text830"
       transform="translate(54.488444,24.35278)">
      <path
         d="m -34.722444,236.07652 v -7.85856 h 1.837984 q 0.341677,0 0.683353,0.14139 0.341677,0.14138 0.565534,0.37702 0.235639,0.22386 0.388804,0.54197 0.164948,0.31811 0.164948,0.61266 v 1.14285 q 0,0.43593 -0.11782,0.77761 -0.117819,0.34167 -0.412368,0.63622 -0.282767,0.28277 -0.624443,0.41237 -0.329895,0.11782 -0.777609,0.11782 h -0.589098 v 3.09865 z m 2.379954,-4.38288 q 0.106038,-0.10604 0.129601,-0.22386 0.03535,-0.11782 0.03535,-0.29455 v -0.14138 -1.02503 q 0,-0.3299 -0.200293,-0.54197 -0.200293,-0.21208 -0.54197,-0.21208 h -0.683353 v 2.66272 h 0.589098 q 0.235639,0 0.377022,-0.0353 0.153166,-0.0471 0.294549,-0.18851 z"
         style="fill:#000000;stroke:none;stroke-width:0.22091155"
         id="path846"
         inkscape:connector-curvature="0" />
      <path
         d="m -26.923345,234.94546 v 1.13106 h -3.357856 v -7.85856 h 3.357856 v 1.03681 h -2.250353 v 2.32105 h 1.979368 v 1.06037 h -1.979368 v 2.30927 z m -2.368172,-7.30481 1.21354,-1.60235 h 1.107504 l -1.614127,1.60235 z"
         style="fill:#000000;stroke:none;stroke-width:0.22091155"
         id="path848"
         inkscape:connector-curvature="0" />
      <path
         d="m -26.486861,236.07652 1.75551,-7.85856 h 0.977902 l 1.755511,7.85856 h -1.201759 l -0.318113,-1.68482 h -1.460962 l -0.318112,1.68482 z m 1.708382,-2.73341 h 1.060376 l -0.530188,-2.86301 z"
         style="fill:#000000;stroke:none;stroke-width:0.22091155"
         id="path850"
         inkscape:connector-curvature="0" />
      <path
         d="m -18.004962,235.25179 q -0.259203,0.42415 -0.683353,0.65979 -0.42415,0.23563 -0.930774,0.23563 -0.447714,0 -0.860082,-0.21207 -0.412369,-0.21208 -0.648008,-0.51841 -0.223857,-0.31811 -0.30633,-0.62444 -0.07069,-0.31811 -0.07069,-0.7187 v -3.93517 q 0,-0.31811 0.05891,-0.57732 0.07069,-0.27098 0.435932,-0.83651 0.36524,-0.57732 1.425616,-0.57732 0.471278,0 0.883646,0.22386 0.412368,0.22385 0.624443,0.55375 0.212075,0.31811 0.270985,0.60088 0.07069,0.28277 0.07069,0.61266 v 0.32989 h -1.107503 v -0.32989 q 0,-0.20029 -0.02356,-0.30633 -0.01178,-0.11782 -0.17673,-0.34168 -0.153165,-0.22385 -0.553751,-0.22385 -0.459496,0 -0.612662,0.24742 -0.141383,0.23564 -0.164947,0.35346 -0.02356,0.11781 -0.02356,0.27098 v 3.93517 q 0,0.22386 0.01178,0.34168 0.02356,0.10604 0.176729,0.35346 0.164948,0.24742 0.60088,0.24742 0.471278,0 0.589097,-0.24742 0.129602,-0.24742 0.153166,-0.36524 0.02356,-0.11782 0.02356,-0.3299 v -1.37849 h -0.907211 v -0.9779 h 2.014714 v 2.35639 q 0,0.49484 -0.05891,0.7187 -0.05891,0.21208 -0.212075,0.4595 z"
         style="fill:#000000;stroke:none;stroke-width:0.22091155"
         id="path852"
         inkscape:connector-curvature="0" />
      <path
         d="m -13.254443,234.94546 v 1.13106 h -3.357855 v -7.85856 h 3.357855 v 1.03681 h -2.250352 v 2.32105 h 1.979368 v 1.06037 h -1.979368 v 2.30927 z"
         style="fill:#000000;stroke:none;stroke-width:0.22091155"
         id="path854"
         inkscape:connector-curvature="0" />
    </g>
  </g>
</svg>
