<?xml version="1.0" encoding="UTF-8" standalone="no"?>
<!-- Created with Inkscape (http://www.inkscape.org/) -->

<svg
   xmlns:dc="http://purl.org/dc/elements/1.1/"
   xmlns:cc="http://creativecommons.org/ns#"
   xmlns:rdf="http://www.w3.org/1999/02/22-rdf-syntax-ns#"
   xmlns:svg="http://www.w3.org/2000/svg"
   xmlns="http://www.w3.org/2000/svg"
   xmlns:sodipodi="http://sodipodi.sourceforge.net/DTD/sodipodi-0.dtd"
   xmlns:inkscape="http://www.inkscape.org/namespaces/inkscape"
   width="91mm"
   height="80.537003mm"
   viewBox="0 0 91 80.537003"
   version="1.1"
   id="svg863"
   inkscape:version="0.92.2 (5c3e80d, 2017-08-06)"
   sodipodi:docname="11.svg">
  <defs
     id="defs857" />
  <sodipodi:namedview
     id="base"
     pagecolor="#ffffff"
     bordercolor="#666666"
     borderopacity="1.0"
     inkscape:pageopacity="0.0"
     inkscape:pageshadow="2"
     inkscape:zoom="1.4"
     inkscape:cx="271.07255"
     inkscape:cy="63.908485"
     inkscape:document-units="mm"
     inkscape:current-layer="layer1"
     showgrid="false"
     inkscape:window-width="1920"
     inkscape:window-height="1057"
     inkscape:window-x="-8"
     inkscape:window-y="-8"
     inkscape:window-maximized="1" />
  <metadata
     id="metadata860">
    <rdf:RDF>
      <cc:Work
         rdf:about="">
        <dc:format>image/svg+xml</dc:format>
        <dc:type
           rdf:resource="http://purl.org/dc/dcmitype/StillImage" />
        <dc:title></dc:title>
      </cc:Work>
    </rdf:RDF>
  </metadata>
  <g
     inkscape:label="Layer 1"
     inkscape:groupmode="layer"
     id="layer1"
     transform="translate(0,-216.463)">
    <path
       inkscape:connector-curvature="0"
       id="path814"
       d="M 84.550414,290.54997 45.499941,222.91262 6.4496006,290.54992 Z"
       inkscape:transform-center-y="4.393997"
       inkscape:transform-center-x="27.135595"
       style="opacity:1;fill:none;fill-opacity:1;stroke:#dc0a14;stroke-width:11.9000721;stroke-linecap:butt;stroke-linejoin:round;stroke-miterlimit:4;stroke-dasharray:none;stroke-dashoffset:0;stroke-opacity:1"
       sodipodi:nodetypes="cccc" />
    <path
       sodipodi:nodetypes="cccc"
       inkscape:connector-curvature="0"
       id="path818"
       d="M 81.173022,288.59999 45.499989,226.81248 9.8269506,288.59995 Z"
       style="opacity:1;fill:#ffffff;fill-opacity:1;stroke:none;stroke-width:11.93114281;stroke-linecap:butt;stroke-linejoin:round;stroke-miterlimit:4;stroke-dasharray:none;stroke-dashoffset:0;stroke-opacity:1" />
    <path
       style="fill:#000000;fill-rule:nonzero;stroke:none;stroke-width:0.17938623;fill-opacity:1"
       d="m 43.044512,249.5002 0.760677,0.0537 0.245464,0.0755 0.459403,0.24598 0.202572,0.15089 0.310575,0.39429 0.125057,0.35347 0.0021,0.37517 -0.116789,0.57413 -0.09508,0.39636 -0.02119,0.24597 0.04289,0.36433 -0.0217,0.17053 -0.107487,0.25631 -0.129191,0.35347 -0.127124,0.524 -0.04341,0.24546 -0.137976,0.23513 -0.575676,0.0522 -0.301273,0.0966 -0.383956,0.27853 -0.150379,0.29921 0.04289,0.33228 1.099674,1.70067 1.465027,2.94091 2.021582,0.81235 1.176156,0.33228 1.915645,0.37465 c 0.452869,0.11888 1.024464,0.44966 1.313098,0.81132 l 0.460954,-0.0108 c 1.299049,0.0578 1.359787,1.60924 0.694015,1.96628 l -0.213424,0.10749 0.342615,0.97255 0.125573,-0.0538 c 0.426764,-0.92087 1.671733,-0.87695 1.671733,-0.87695 l -0.07958,2.14044 c 0,0 0.03347,0.55294 -0.377755,0.55294 -0.260052,0 -0.46421,-0.0867 -0.626318,-0.22066 l 1.402498,3.80649 0.0036,-0.004 0.577743,-0.20257 0.586527,-0.16174 0.607715,-0.10387 0.610299,-0.0646 0.609782,-0.0109 0.609782,0.0434 0.609781,0.0842 0.588078,0.16123 -0.09508,0.40359 0.853694,0.29973 0.577743,0.26716 0.556038,0.32143 0.523482,0.36432 0.480591,0.40721 0.450102,0.45941 0.416512,0.48059 0.363802,0.52399 0.321427,0.55449 0.267168,0.57775 0.223759,0.59892 0.170532,0.62116 0.105936,0.63148 0.05374,0.62942 0.01086,0.64234 -0.05374,0.62994 -0.116788,0.63148 -0.161231,0.61909 -0.213423,0.59945 -0.265617,0.57722 -0.320911,0.55655 -0.364319,0.524 -0.405143,0.493 -0.450102,0.4594 -0.48059,0.41651 -0.524,0.36225 -0.546736,0.32092 -0.577743,0.27853 -0.595312,0.22428 -0.620634,0.17208 -0.631486,0.11679 -0.631486,0.0537 -0.641821,0.0108 -0.631486,-0.0543 -0.629419,-0.10542 -0.618567,-0.1509 -0.599447,-0.21342 -0.588077,-0.26717 -0.556039,-0.31057 -0.525549,-0.36432 -0.491443,-0.4036 -0.458887,-0.45061 -0.418062,-0.48059 -0.374654,-0.51315 -0.330213,-0.55604 -0.269234,-0.57774 -0.381889,0.12713 -0.213424,-0.5886 -0.182934,-0.60823 -0.116789,-0.62942 -0.07493,-0.63148 -0.01085,-0.63149 0.03204,-0.62994 0.08423,-0.63148 0.129191,-0.62063 0.192237,-0.60824 0.234611,-0.58859 0.278019,-0.56534 0.330212,-0.54726 0.364319,-0.524 0.417546,-0.48058 0.448551,-0.44856 0.482658,-0.40721 0.51108,-0.37517 0.566374,-0.33021 -0.233061,-0.55397 -6.354651,5.2927 0.05219,0.32091 0.107487,0.30851 0.148828,0.27802 0.215491,0.25838 0.245463,0.21394 0.278019,0.15968 0.974101,0.17932 0.09302,0.78238 -0.789099,0.11627 0.0093,0.32143 -1.314648,0.16123 -0.116789,-0.4501 -0.545186,-0.0646 -0.09663,0.33176 -0.149345,0.31058 -0.19327,0.28887 -0.224275,0.25632 -0.267168,0.22427 -0.288871,0.18138 -0.310575,0.13798 -0.421163,0.14366 -0.240296,0.007 h -0.342614 l -0.341065,-0.0429 -0.331763,-0.0966 -0.32091,-0.1385 -0.288871,-0.19378 -0.267168,-0.21343 -0.225825,-0.25476 -0.192237,-0.28887 -0.146761,-0.31058 -0.107487,-0.33176 h -0.717785 l -0.07338,0.64234 -0.129191,0.63148 -0.19172,0.6103 -0.233577,0.59531 -0.288355,0.57775 -0.342614,0.54725 -0.385507,0.51315 -0.428914,0.4811 -0.469739,0.4377 -0.502295,0.40515 -0.532783,0.35346 -0.566891,0.29973 -0.59893,0.25683 -0.609782,0.19172 -0.631487,0.14883 -0.630967,0.0971 -0.64234,0.032 -0.64027,-0.0212 -0.641821,-0.0754 -0.629936,-0.13798 -0.620633,-0.18138 -0.59893,-0.24753 -0.566891,-0.28887 -0.545187,-0.34107 -0.51263,-0.3855 -0.482658,-0.42685 -0.4377,-0.47026 -0.396357,-0.50229 -0.351401,-0.54571 -0.299723,-0.56689 -0.256315,-0.58859 -0.20257,-0.62064 -0.140044,-0.61908 -0.09509,-0.64234 -0.03204,-0.65267 -0.386022,0.0104 0.04341,-0.64234 0.08578,-0.62942 0.12764,-0.62994 0.193786,-0.60978 0.234611,-0.59944 0.288873,-0.57775 0.33021,-0.54518 0.373105,-0.524 0.417544,-0.49145 0.459404,-0.45062 0.492993,-0.40565 0.523999,-0.37466 0.556038,-0.33021 0.575678,-0.27802 0.598929,-0.23513 0.609783,-0.18138 0.631483,-0.12919 0.640274,-0.0842 0.652671,-0.0196 0.631486,0.0196 0.62942,0.0734 0.631487,0.14005 0.620633,0.18138 0.598929,0.22428 1.657264,-3.03754 -0.331762,-0.24598 -0.502296,-0.0212 -0.493509,-0.0434 -0.349334,-0.0842 -0.556038,-0.17208 -0.331764,-0.23358 -0.224274,-0.45888 -0.05374,-0.29973 -0.07545,-0.63149 -0.0863,-0.64233 v -0.5023 l 0.04341,-0.87746 0.09663,-0.68162 0.278019,-1.15548 0.385505,-0.89917 0.256834,-0.40514 0.213424,-0.42892 0.213423,-0.71623 0.150379,-0.76068 0.243911,-1.08882 0.159681,-0.45941 0.236678,-0.43976 0.297656,-0.39429 0.52555,-0.524 0.516764,-0.44132 0.476974,-0.48989 0.288871,-0.24598 0.31936,-0.21343 0.161231,-0.17208 0.09508,-0.20309 0.0646,-0.23306 0.0217,-0.28887 -0.04341,-0.31057 -0.116272,-0.33177 -0.131258,-0.42323 -0.04134,-0.26044 -0.03204,-0.35141 0.01085,-0.35346 0.05374,-0.34262 0.0863,-0.34261 0.127124,-0.29817 0.396358,-0.50385 0.245463,-0.20102 0.276469,-0.14883 0.392741,-0.108 z"
       id="path1822"
       inkscape:connector-curvature="0"
       sodipodi:nodetypes="ccccccccccccccccccccccccccccccccccccsccccccccccccccccccccccccccccccccccccccccccccccccccccccccccccccccccccccccccccccccccccccccccccccccccccccccccccccccccccccccccccccccccccccccccccccccccccccccccccccccccccccccccccccccccccccccccccccccccccccccccccccccccccccccccc" />
    <path
       inkscape:connector-curvature="0"
       id="path1824"
       d="m 42.626735,268.97971 -0.694107,-0.47007 -0.706661,0.10586 0.547034,1.49813 0.853734,-1.13392"
       style="fill:#ffffff;fill-opacity:1;fill-rule:nonzero;stroke:none;stroke-width:0.17938623" />
    <path
       inkscape:connector-curvature="0"
       id="path1826"
       d="m 53.045506,267.3219 -0.493226,-1.412 0.139898,-0.0431 -0.631333,-1.787 0.118375,-0.0215 -0.03229,-0.14712 0.426866,-0.12737 0.07533,0.15967 0.139898,-0.12917 0.05202,-0.15969 -0.0843,-0.2781 -0.129135,-0.0861 -0.202673,-0.0412 -0.213432,0.0412 -0.08609,0.13995 -0.179355,0.25656 -0.288764,0.21352 -0.360504,0.14174 -0.548829,0.11482 -0.299524,-0.0431 -0.172181,-0.15969 -0.08609,-0.13993 -0.351538,0.0753 -0.204467,-0.67459 0.385617,-0.11663 -0.01076,-0.18301 -0.3623,-0.17941 -0.127341,0.052 -0.224196,0.39651 -3.276828,-0.58669 -0.573938,-0.16147 -0.342569,-0.15969 -1.144291,-0.83428 -1.230381,-1.18774 -0.425072,1.04779 -0.471705,0.97423 -0.3623,0.90068 -0.118375,0.37138 0.118375,0.24581 0.159627,0.11842 0.545242,0.42522 0.875256,0.62078 0.502195,0.34268 1.165814,0.94194 0.557796,0.5562 0.469912,0.53465 7.305155,-0.0108"
       style="fill:#ffffff;fill-opacity:1;fill-rule:nonzero;stroke:none;stroke-width:0.17938623" />
    <path
       inkscape:connector-curvature="0"
       id="path1828"
       d="m 44.210446,271.46105 -1.346961,1.63628 1.058198,2.93168 0.566765,-0.17225 0.437628,-0.0412 0.426866,0.0305 -1.144291,-4.38495"
       style="fill:#ffffff;fill-opacity:1;fill-rule:nonzero;stroke:none;stroke-width:0.17938623" />
    <path
       inkscape:connector-curvature="0"
       id="path1832"
       d="m 53.890273,269.61126 -0.396375,-1.10162 h -7.357172 l -0.204466,0.40549 0.225989,0.22427 0.181149,0.23682 0.159627,0.26734 0.118374,0.2458 0.07534,0.26733 0.972107,4.64151 6.225436,-5.18694"
       style="fill:#ffffff;fill-opacity:1;fill-rule:nonzero;stroke:none;stroke-width:0.17938623" />
    <path
       inkscape:connector-curvature="0"
       id="path1834"
       d="m 40.210813,277.6007 h -4.738577 l 2.277817,-4.19297 0.460945,0.34268 0.425073,0.38575 0.364091,0.44855 -0.147072,0.62076 0.853734,0.56696 0.224194,0.59927 0.181149,0.60821 0.09686,0.62079"
       style="fill:#ffffff;fill-opacity:1;fill-rule:nonzero;stroke:none;stroke-width:0.17938623" />
    <path
       inkscape:connector-curvature="0"
       id="path1836"
       d="m 36.713377,272.85152 -0.523717,-0.23503 -0.545242,-0.13995 -0.568558,-0.0951 -0.566764,-0.0305 -0.577526,0.0215 -0.554208,0.0735 -0.556002,0.12739 -0.545244,0.18121 -0.512956,0.24759 -0.491434,0.2781 -0.460945,0.34089 -0.426866,0.37498 -0.396376,0.41805 -0.342569,0.44853 -0.299525,0.49161 -0.245716,0.51313 -0.20088,0.53466 -0.139896,0.54363 -0.08609,0.56697 -0.04124,0.62077 0.03228,0.52389 0.07355,0.55621 0.138104,0.55617 0.181149,0.54723 0.234956,0.51314 0.299523,0.49159 0.331809,0.45752 0.374854,0.4288 0.426866,0.38396 0.450183,0.34268 0.491433,0.29964 0.512958,0.24579 0.534481,0.19198 0.556002,0.13995 0.556002,0.0861 0.599049,0.0305 0.545241,-0.0215 0.566765,-0.0843 0.54524,-0.13994 0.545242,-0.18121 0.512957,-0.24581 0.493229,-0.28886 0.457357,-0.34269 0.417897,-0.38393 0.383823,-0.41805 0.342569,-0.45931 0.299523,-0.48981 0.234957,-0.51493 0.193704,-0.53466 0.234956,-1.12315 h -4.706293 l -0.148866,0.21351 -0.182942,0.17224 -0.224195,0.12559 -0.245718,0.0754 -0.211639,0.0215 -0.288762,-0.0412 -0.236749,-0.0951 -0.213434,-0.13995 -0.170389,-0.18121 -0.129135,-0.22428 -0.08609,-0.23682 -0.01973,-0.23504 0.03049,-0.26734 0.08609,-0.24579 0.139898,-0.21351 0.18115,-0.17224 0.224193,-0.13636 0.234956,-0.0861 0.247513,-0.0215 2.232977,-4.16068"
       style="fill:#ffffff;fill-opacity:1;fill-rule:nonzero;stroke:none;stroke-width:0.17938623" />
    <path
       inkscape:connector-curvature="0"
       id="path1838"
       d="m 55.9977,272.84077 0.545246,-0.2135 0.545241,-0.13995 0.556002,-0.0825 0.62954,-0.0431 0.502195,0.0215 0.56676,0.0825 0.545247,0.12916 0.545238,0.19198 0.514749,0.23503 0.480678,0.28887 0.459148,0.33192 0.426868,0.37498 0.38561,0.41625 0.342574,0.46109 0.288764,0.47905 0.245718,0.51313 0.191907,0.53467 0.148863,0.54542 0.0843,0.56876 0.03226,0.58669 -0.03226,0.54542 -0.07534,0.5562 -0.136307,0.5544 -0.191908,0.53646 -0.236749,0.51313 -0.299529,0.48084 -0.330013,0.4593 -0.385618,0.41804 -0.417899,0.38395 -0.459148,0.34269 -0.480671,0.28707 -0.512959,0.2458 -0.534481,0.19377 -0.556003,0.13816 -0.556005,0.0753 -0.555996,0.0323 -0.575737,-0.0323 -0.566763,-0.0861 -0.545238,-0.13816 -0.536277,-0.19376 -0.512958,-0.24401 -0.480673,-0.28886 -0.460943,-0.34269 -0.416104,-0.38395 -0.374854,-0.41804 -0.340776,-0.45931 -0.288764,-0.49159 -0.234955,-0.51493 -0.191909,-0.53467 -0.129137,-0.5544 -0.0843,-0.55619 -0.02152,-0.56695 0.03049,-0.56696 0.08609,-0.56696 0.150658,-0.54364 0.19191,-0.53645 0.245716,-0.50236 0.299528,-0.48981 0.342567,-0.44855 0.385618,-0.41804 0.425071,-0.37497 0.45018,-0.3409 0.81248,1.65781 0.631336,1.19671 0.726389,1.28283 0.02155,0.0215 -0.138104,0.19198 -0.09685,0.22426 -0.04304,0.23505 0.01078,0.23682 0.06461,0.22428 0.107615,0.21349 0.147064,0.18122 0.191915,0.13995 0.225985,0.0969 0.224195,0.0394 0.23496,-0.009 0.234953,-0.052 0.213438,-0.11842 0.172181,-0.14891 0.148863,-0.19378 0.09506,-0.2135 0.05383,-0.32115 -0.01078,-0.14713 -0.06277,-0.22607 -0.107614,-0.21349 -0.148863,-0.18123 -0.181149,-0.1507 -0.225985,-0.0951 -0.224195,-0.0431 h -0.23496 l -0.875252,-1.6901 -0.747918,-1.7224 -0.342567,-0.86658"
       style="fill:#ffffff;fill-opacity:1;fill-rule:nonzero;stroke:none;stroke-width:0.17938623" />
  </g>
</svg>
