<?xml version="1.0" encoding="UTF-8" standalone="no"?>
<!-- Created with Inkscape (http://www.inkscape.org/) -->

<svg
   xmlns:dc="http://purl.org/dc/elements/1.1/"
   xmlns:cc="http://creativecommons.org/ns#"
   xmlns:rdf="http://www.w3.org/1999/02/22-rdf-syntax-ns#"
   xmlns:svg="http://www.w3.org/2000/svg"
   xmlns="http://www.w3.org/2000/svg"
   xmlns:sodipodi="http://sodipodi.sourceforge.net/DTD/sodipodi-0.dtd"
   xmlns:inkscape="http://www.inkscape.org/namespaces/inkscape"
   width="91mm"
   height="80.537003mm"
   viewBox="0 0 91 80.537003"
   version="1.1"
   id="svg863"
   inkscape:version="0.92.2 (5c3e80d, 2017-08-06)"
   sodipodi:docname="97.svg">
  <defs
     id="defs857" />
  <sodipodi:namedview
     id="base"
     pagecolor="#ffffff"
     bordercolor="#666666"
     borderopacity="1.0"
     inkscape:pageopacity="0.0"
     inkscape:pageshadow="2"
     inkscape:zoom="1.4"
     inkscape:cx="159.84331"
     inkscape:cy="80.458214"
     inkscape:document-units="mm"
     inkscape:current-layer="layer1"
     showgrid="false"
     inkscape:window-width="1920"
     inkscape:window-height="1057"
     inkscape:window-x="-8"
     inkscape:window-y="-8"
     inkscape:window-maximized="1" />
  <metadata
     id="metadata860">
    <rdf:RDF>
      <cc:Work
         rdf:about="">
        <dc:format>image/svg+xml</dc:format>
        <dc:type
           rdf:resource="http://purl.org/dc/dcmitype/StillImage" />
        <dc:title></dc:title>
      </cc:Work>
    </rdf:RDF>
  </metadata>
  <g
     inkscape:label="Layer 1"
     inkscape:groupmode="layer"
     id="layer1"
     transform="translate(0,-216.463)">
    <path
       inkscape:connector-curvature="0"
       id="path814"
       d="M 84.550414,290.54997 45.499941,222.91262 6.4496006,290.54992 Z"
       inkscape:transform-center-y="4.393997"
       inkscape:transform-center-x="27.135595"
       style="opacity:1;fill:none;fill-opacity:1;stroke:#dc0a14;stroke-width:11.9000721;stroke-linecap:butt;stroke-linejoin:round;stroke-miterlimit:4;stroke-dasharray:none;stroke-dashoffset:0;stroke-opacity:1"
       sodipodi:nodetypes="cccc" />
    <path
       sodipodi:nodetypes="cccc"
       inkscape:connector-curvature="0"
       id="path818"
       d="M 81.173022,288.59999 45.499989,226.81248 9.8269506,288.59995 Z"
       style="opacity:1;fill:#ffffff;fill-opacity:1;stroke:none;stroke-width:11.93114281;stroke-linecap:butt;stroke-linejoin:round;stroke-miterlimit:4;stroke-dasharray:none;stroke-dashoffset:0;stroke-opacity:1" />
    <path
       d="m 64.59847,268.78512 c 0.158659,-0.38988 0.635596,-1.03708 0.261841,-1.43964 -0.420485,-0.57803 -1.12908,-0.91041 -1.646898,-1.39095 -0.590822,-0.54779 -1.042453,-1.16184 -1.523283,-1.80126 -0.362087,-0.58095 -1.022987,-0.88504 -1.563194,-1.26325 1.146602,-0.0389 2.81686,0.44252 3.064088,-1.14725 -0.04185,-0.50391 -0.823448,0.19098 -1.102798,0.23695 -0.628779,0.1005 -1.294548,-0.0837 -1.898995,-0.23872 -0.459418,-0.11612 -1.007412,-0.34797 -1.478507,-0.18508 -0.56454,0.19481 -0.553833,0.66574 -0.913971,1.03322 -0.345538,0.35284 -1.266322,-0.25257 -1.618673,-0.37918 -0.636567,-0.46689 -0.674526,0.85386 -0.226789,1.13457 0.13432,0.0849 0.968479,0.32361 0.408803,0.54974 -0.581085,0.19481 -1.17677,0.35287 -1.785111,0.43085 -0.82345,0.10522 -1.596285,-0.003 -2.398321,-0.1842 -0.730979,-0.16475 -1.348082,-0.13557 -2.081983,0.003 -1.588495,0.3012 -3.123461,0.5897 -4.742131,0.65501 -3.011526,0.12084 -6.032785,-0.15119 -9.038475,-0.3236 -1.203053,-0.0681 -2.403186,-0.34214 -3.604293,-0.36748 -0.570381,-0.0118 -1.100853,0.15679 -1.663444,0.19982 -0.558701,0.0439 -1.214734,-0.11406 -1.631325,0.33727 -1.866875,1.36263 -1.839623,3.76924 -1.743259,5.85219 0.04965,1.08683 0.48278,2.48262 -0.370845,3.33745 -0.672581,0.67546 -1.755911,1.32853 -1.09501,2.47286 0.298814,0.51366 -0.366955,2.16193 0.234588,2.1668 0.872118,0.009 0.91397,-1.04392 0.965559,-1.64727 0.07007,-0.83046 0.712486,-1.43578 1.075543,-2.13951 0.291036,-0.56338 0.07787,-1.35193 0.06133,-1.96309 -0.01942,-0.68914 -0.0019,-1.38116 0.0477,-2.06933 0.05257,-0.73299 0.140176,-1.46696 0.290064,-2.18728 0.08564,-0.40547 0.240417,-1.58196 0.647275,-1.80907 0.07399,-0.0419 -0.253071,1.47574 -0.292978,1.64532 -0.279353,0.75348 -0.372794,1.5537 -0.352351,2.35395 0.03308,1.30321 0.474021,2.70389 0.348457,3.99635 -0.05742,0.59654 -0.511977,0.86264 -0.809821,1.32366 -0.365005,0.56339 -0.0837,1.07514 0.104154,1.64144 0.478887,1.42797 0.220963,2.86566 0.03114,4.318 -0.05353,0.39769 -0.450659,1.2886 -0.05353,1.59172 0.541181,0.41522 -0.02325,1.02055 0.281294,1.55956 0.261812,0.46397 3.393077,0.6355 3.167259,-0.0236 -0.426321,-0.41717 -1.047316,-0.6131 -1.34224,-1.16284 -0.287121,-0.53318 -0.330936,-1.33051 -0.374737,-1.92507 -0.102212,-1.37825 0.271552,-3.16784 1.277999,-4.19325 0.670636,1.19305 1.172883,2.23797 1.398695,3.59963 0.08567,0.5098 0.09732,1.21256 0.353328,1.66969 0.245272,0.43961 0.721247,0.24374 0.819554,0.8831 0.03405,0.21161 0.0321,0.42401 0.04185,0.63747 0.346512,0.0837 0.69594,0.14707 1.04732,0.19098 0.470124,0.0566 1.378254,0.28175 1.818206,0.0799 0.359164,-0.1677 -1.160226,-1.37922 -1.335427,-1.6112 -0.622941,-0.83534 -0.894505,-1.88413 -1.362682,-2.81208 -0.22776,-0.45811 -0.347486,-1.25249 -0.155745,-1.74181 0.153803,-0.39183 0.779649,-0.0858 0.876009,0.19687 0.437033,1.24666 0.783543,-0.16269 1.595311,-0.0312 0.30563,-0.0584 0.3689,0.50488 0.70373,0.5429 0.254042,0.0295 0.411723,-0.19393 0.438976,-0.41523 0.03797,-0.30801 0.332882,-0.4396 0.570379,-0.59554 0.389338,-0.25522 0.824423,-0.53609 1.147573,-0.87531 0.287151,-0.30214 0.842918,-0.10227 1.216682,-0.0984 1.130054,0.0118 2.173479,-0.31291 3.26849,-0.50881 0.71054,-0.12584 1.745204,-0.20188 2.416812,0.12172 1.058997,0.51075 0.91689,2.53134 0.938303,3.49436 0.01354,0.6131 0.0983,1.31978 -0.02619,1.92312 -0.09247,0.44741 -0.495431,0.94841 -0.274495,1.41822 0.10221,0.22221 0.413674,0.0878 0.539235,0.30314 0.09539,0.16563 0.103182,0.41815 0.13432,0.60335 0.123607,0.73299 1.13297,0.55949 1.739365,0.62967 0.10901,0.0118 1.796794,0.25935 1.309146,-0.26614 -0.423404,-0.37526 -0.923703,-0.6589 -1.255614,-1.12773 -0.548966,-0.77296 -0.612233,-1.97382 -0.517817,-2.87834 0.07593,-0.71351 0.310494,-1.38022 0.51879,-2.0635 0.508087,0.67452 0.895477,1.77594 1.001573,2.62883 0.07007,0.56046 -0.04379,1.62192 0.230674,2.07517 0.08859,0.14706 0.417566,-0.006 0.528527,0.26112 0.09247,0.22222 0.03893,0.57508 0.171313,0.77293 0.180083,0.2679 2.137462,0.12584 2.492732,0.14028 0.121666,-0.82559 -0.767967,-0.94548 -1.280918,-1.35877 -0.750448,-0.60529 -0.814688,-2.55084 -0.628783,-3.41734 0.186881,-0.87532 0.376686,-1.5196 0.33094,-2.43387 -0.02619,-0.5371 1.096956,-0.17536 1.481427,-0.38992 0.664794,-0.37526 0.675501,-1.21155 0.872118,-1.86267 0.288122,-0.95913 0.913968,-1.80032 1.503815,-2.59276 0.912025,-1.2262 1.803609,-3.11909 3.487493,-3.3579 0.816636,-0.11612 1.676099,0.0584 2.498574,0.0457 0.680369,-0.0118 2.119943,-0.0118 2.432386,-0.77879"
       style="fill:#003c82;fill-opacity:1;fill-rule:nonzero;stroke:none;stroke-width:0.27610335"
       id="path5759"
       inkscape:connector-curvature="0" />
  </g>
</svg>
