<?xml version="1.0" encoding="UTF-8" standalone="no"?>
<!-- Created with Inkscape (http://www.inkscape.org/) -->

<svg
   xmlns:dc="http://purl.org/dc/elements/1.1/"
   xmlns:cc="http://creativecommons.org/ns#"
   xmlns:rdf="http://www.w3.org/1999/02/22-rdf-syntax-ns#"
   xmlns:svg="http://www.w3.org/2000/svg"
   xmlns="http://www.w3.org/2000/svg"
   xmlns:sodipodi="http://sodipodi.sourceforge.net/DTD/sodipodi-0.dtd"
   xmlns:inkscape="http://www.inkscape.org/namespaces/inkscape"
   width="83.372002mm"
   height="83.372002mm"
   viewBox="0 0 83.372002 83.372002"
   version="1.1"
   id="svg8"
   inkscape:version="0.92.2 (5c3e80d, 2017-08-06)"
   sodipodi:docname="95.svg">
  <defs
     id="defs2" />
  <sodipodi:namedview
     id="base"
     pagecolor="#ffffff"
     bordercolor="#666666"
     borderopacity="1.0"
     inkscape:pageopacity="0.0"
     inkscape:pageshadow="2"
     inkscape:zoom="1.4"
     inkscape:cx="155.29761"
     inkscape:cy="157.17167"
     inkscape:document-units="mm"
     inkscape:current-layer="layer1"
     showgrid="false"
     fit-margin-top="0"
     fit-margin-left="0"
     fit-margin-right="0"
     fit-margin-bottom="0"
     inkscape:window-width="1920"
     inkscape:window-height="1057"
     inkscape:window-x="-8"
     inkscape:window-y="-8"
     inkscape:window-maximized="1" />
  <metadata
     id="metadata5">
    <rdf:RDF>
      <cc:Work
         rdf:about="">
        <dc:format>image/svg+xml</dc:format>
        <dc:type
           rdf:resource="http://purl.org/dc/dcmitype/StillImage" />
        <dc:title></dc:title>
      </cc:Work>
    </rdf:RDF>
  </metadata>
  <g
     inkscape:label="Layer 1"
     inkscape:groupmode="layer"
     id="layer1"
     transform="translate(-4.1733084e-4,-213.62758)">
    <rect
       style="opacity:1;fill:#000000;fill-opacity:1;fill-rule:nonzero;stroke:none;stroke-width:21.49853706;stroke-linecap:square;stroke-linejoin:round;stroke-miterlimit:4;stroke-dasharray:none;stroke-opacity:1;paint-order:stroke fill markers"
       id="rect815"
       width="60"
       height="60"
       x="-181.05711"
       y="180.01071"
       rx="3.0009999"
       ry="3.0009999"
       transform="rotate(-45)" />
    <rect
       ry="1.5"
       rx="1.5"
       y="181.51071"
       x="-179.55711"
       height="57"
       width="57"
       id="rect817"
       style="opacity:1;fill:#fad20a;fill-opacity:1;fill-rule:nonzero;stroke:none;stroke-width:20.42361069;stroke-linecap:square;stroke-linejoin:round;stroke-miterlimit:4;stroke-dasharray:none;stroke-opacity:1;paint-order:stroke fill markers"
       transform="rotate(-45)" />
    <path
       d="m 22.587983,250.59884 c -0.158659,-0.38988 -0.635596,-1.03708 -0.261841,-1.43964 0.420485,-0.57803 1.12908,-0.91041 1.646898,-1.39095 0.590822,-0.54779 1.042453,-1.16184 1.523283,-1.80126 0.362087,-0.58095 1.022987,-0.88504 1.563194,-1.26325 -1.146602,-0.0389 -2.81686,0.44252 -3.064088,-1.14725 0.04185,-0.50391 0.823448,0.19098 1.102798,0.23695 0.628779,0.1005 1.294548,-0.0837 1.898995,-0.23872 0.459418,-0.11612 1.007412,-0.34797 1.478507,-0.18508 0.56454,0.19481 0.553833,0.66574 0.913971,1.03322 0.345538,0.35284 1.266322,-0.25257 1.618673,-0.37918 0.636567,-0.46689 0.674526,0.85386 0.226789,1.13457 -0.13432,0.0849 -0.968479,0.32361 -0.408803,0.54974 0.581085,0.19481 1.17677,0.35287 1.785112,0.43085 0.82345,0.10522 1.596285,-0.003 2.398321,-0.1842 0.730979,-0.16475 1.348082,-0.13557 2.081982,0.003 1.588495,0.3012 3.123461,0.5897 4.742131,0.65501 3.011526,0.12084 6.032785,-0.15119 9.038475,-0.3236 1.203052,-0.0681 2.403186,-0.34214 3.604294,-0.36748 0.570381,-0.0118 1.100852,0.15679 1.663444,0.19982 0.558699,0.0439 1.214734,-0.11406 1.631326,0.33727 1.866874,1.36263 1.839622,3.76924 1.743258,5.85219 -0.04965,1.08683 -0.48278,2.48262 0.370845,3.33745 0.672581,0.67546 1.75591,1.32853 1.09501,2.47286 -0.298815,0.51366 0.366956,2.16193 -0.234588,2.1668 -0.872119,0.009 -0.913971,-1.04392 -0.96556,-1.64727 -0.07007,-0.83046 -0.712485,-1.43578 -1.075541,-2.13951 -0.291037,-0.56338 -0.07787,-1.35193 -0.06133,-1.96309 0.01942,-0.68914 0.0019,-1.38116 -0.0477,-2.06933 -0.05257,-0.73299 -0.140176,-1.46696 -0.290065,-2.18728 -0.08564,-0.40547 -0.240417,-1.58196 -0.647274,-1.80907 -0.07399,-0.0419 0.253071,1.47574 0.292978,1.64532 0.279353,0.75348 0.372793,1.5537 0.352351,2.35395 -0.03308,1.30321 -0.474022,2.70389 -0.348459,3.99635 0.05742,0.59654 0.511977,0.86264 0.809821,1.32366 0.365006,0.56339 0.0837,1.07514 -0.104153,1.64144 -0.478888,1.42797 -0.220962,2.86566 -0.03114,4.318 0.05353,0.39769 0.450657,1.2886 0.05353,1.59172 -0.541179,0.41522 0.02326,1.02055 -0.281292,1.55956 -0.261813,0.46397 -3.393078,0.6355 -3.167262,-0.0236 0.426323,-0.41717 1.047316,-0.6131 1.342242,-1.16284 0.28712,-0.53318 0.330935,-1.33051 0.374737,-1.92507 0.102212,-1.37825 -0.271552,-3.16784 -1.278001,-4.19325 -0.670634,1.19305 -1.172882,2.23797 -1.398693,3.59963 -0.08567,0.5098 -0.09732,1.21256 -0.35333,1.66969 -0.245271,0.43961 -0.721246,0.24374 -0.819552,0.8831 -0.03405,0.21161 -0.0321,0.42401 -0.04185,0.63747 -0.346511,0.0837 -0.695939,0.14707 -1.047319,0.19098 -0.470125,0.0566 -1.378254,0.28175 -1.818206,0.0799 -0.359164,-0.1677 1.160225,-1.37922 1.335426,-1.6112 0.622941,-0.83534 0.894506,-1.88413 1.362684,-2.81208 0.227759,-0.45811 0.347485,-1.25249 0.155744,-1.74181 -0.153802,-0.39183 -0.77965,-0.0858 -0.876009,0.19687 -0.437033,1.24666 -0.783542,-0.16269 -1.59531,-0.0312 -0.305631,-0.0584 -0.368901,0.50488 -0.703731,0.5429 -0.254042,0.0295 -0.411723,-0.19393 -0.438975,-0.41523 -0.03797,-0.30801 -0.332883,-0.4396 -0.570381,-0.59554 -0.389337,-0.25522 -0.824422,-0.53609 -1.147572,-0.87531 -0.287151,-0.30214 -0.842918,-0.10227 -1.216682,-0.0984 -1.130054,0.0118 -2.173479,-0.31291 -3.26849,-0.50881 -0.71054,-0.12584 -1.745204,-0.20188 -2.416812,0.12172 -1.058997,0.51075 -0.91689,2.53134 -0.938303,3.49436 -0.01354,0.6131 -0.0983,1.31978 0.02619,1.92312 0.09247,0.44741 0.495431,0.94841 0.274495,1.41822 -0.10221,0.22221 -0.413674,0.0878 -0.539235,0.30314 -0.09539,0.16563 -0.103182,0.41815 -0.13432,0.60335 -0.123607,0.73299 -1.13297,0.55949 -1.739365,0.62967 -0.10901,0.0118 -1.796793,0.25935 -1.309145,-0.26614 0.423404,-0.37526 0.923702,-0.6589 1.255613,-1.12773 0.548966,-0.77296 0.612233,-1.97382 0.517817,-2.87834 -0.07593,-0.71351 -0.310494,-1.38022 -0.51879,-2.0635 -0.508087,0.67452 -0.895476,1.77594 -1.001572,2.62883 -0.07007,0.56046 0.04379,1.62192 -0.230674,2.07517 -0.08859,0.14706 -0.417566,-0.006 -0.528527,0.26112 -0.09247,0.22222 -0.03893,0.57508 -0.171313,0.77293 -0.180083,0.2679 -2.137462,0.12584 -2.492732,0.14028 -0.121666,-0.82559 0.767967,-0.94548 1.280918,-1.35877 0.750448,-0.60529 0.814688,-2.55084 0.628783,-3.41734 -0.186881,-0.87532 -0.376686,-1.5196 -0.33094,-2.43387 0.02619,-0.5371 -1.096956,-0.17536 -1.481427,-0.38992 -0.664794,-0.37526 -0.675501,-1.21155 -0.872118,-1.86267 -0.288122,-0.95913 -0.913969,-1.80032 -1.503816,-2.59276 -0.912025,-1.2262 -1.803609,-3.11909 -3.487493,-3.3579 -0.816636,-0.11612 -1.676099,0.0584 -2.498574,0.0457 -0.680369,-0.0118 -2.119943,-0.0118 -2.432386,-0.77879"
       style="fill:#003c82;fill-opacity:1;fill-rule:nonzero;stroke:none;stroke-width:0.27610335"
       id="path5759"
       inkscape:connector-curvature="0" />
  </g>
</svg>
