<?xml version="1.0" encoding="UTF-8" standalone="no"?>
<!-- Created with Inkscape (http://www.inkscape.org/) -->

<svg
   xmlns:dc="http://purl.org/dc/elements/1.1/"
   xmlns:cc="http://creativecommons.org/ns#"
   xmlns:rdf="http://www.w3.org/1999/02/22-rdf-syntax-ns#"
   xmlns:svg="http://www.w3.org/2000/svg"
   xmlns="http://www.w3.org/2000/svg"
   xmlns:sodipodi="http://sodipodi.sourceforge.net/DTD/sodipodi-0.dtd"
   xmlns:inkscape="http://www.inkscape.org/namespaces/inkscape"
   width="61.400002mm"
   height="69.400002mm"
   viewBox="0 0 61.400002 69.400002"
   version="1.1"
   id="svg843"
   inkscape:version="0.92.2 (5c3e80d, 2017-08-06)"
   sodipodi:docname="11.svg">
  <defs
     id="defs837" />
  <sodipodi:namedview
     id="base"
     pagecolor="#ffffff"
     bordercolor="#666666"
     borderopacity="1.0"
     inkscape:pageopacity="0.0"
     inkscape:pageshadow="2"
     inkscape:zoom="1.979899"
     inkscape:cx="134.97281"
     inkscape:cy="111.7044"
     inkscape:document-units="mm"
     inkscape:current-layer="layer1"
     showgrid="false"
     inkscape:snap-global="false"
     inkscape:window-width="1920"
     inkscape:window-height="1057"
     inkscape:window-x="-8"
     inkscape:window-y="-8"
     inkscape:window-maximized="1" />
  <metadata
     id="metadata840">
    <rdf:RDF>
      <cc:Work
         rdf:about="">
        <dc:format>image/svg+xml</dc:format>
        <dc:type
           rdf:resource="http://purl.org/dc/dcmitype/StillImage" />
        <dc:title></dc:title>
      </cc:Work>
    </rdf:RDF>
  </metadata>
  <g
     inkscape:label="Layer 1"
     inkscape:groupmode="layer"
     id="layer1"
     transform="translate(0,-227.6)">
    <path
       style="opacity:1;fill:none;fill-opacity:1;fill-rule:nonzero;stroke:#000000;stroke-width:7.5999999;stroke-linecap:square;stroke-linejoin:round;stroke-miterlimit:4;stroke-dasharray:none;stroke-opacity:1;paint-order:stroke fill markers"
       d="m 4.3,281.3 26.4,-49.4 26.4,49.4 v 11.4 H 4.3 Z"
       id="rect1491"
       inkscape:connector-curvature="0"
       sodipodi:nodetypes="cccccc" />
    <path
       sodipodi:nodetypes="cccccc"
       inkscape:connector-curvature="0"
       id="path1494"
       d="m 4.2999999,281.3 26.3999961,-49.4 26.400002,49.4 v 11.4 H 4.2999999 Z"
       style="opacity:1;fill:none;fill-opacity:1;fill-rule:nonzero;stroke:#ffffff;stroke-width:7.19999981;stroke-linecap:square;stroke-linejoin:round;stroke-miterlimit:4;stroke-dasharray:none;stroke-opacity:1;paint-order:stroke fill markers" />
    <path
       sodipodi:nodetypes="cccccc"
       inkscape:connector-curvature="0"
       id="path1496"
       d="m 4.2999999,281.3 26.3999991,-49.4 26.4,49.4 v 11.4 H 4.2999999 Z"
       style="opacity:1;fill:#003c82;fill-opacity:1;fill-rule:nonzero;stroke:#003c82;stroke-width:4.19999981;stroke-linecap:square;stroke-linejoin:round;stroke-miterlimit:4;stroke-dasharray:none;stroke-opacity:1;paint-order:stroke fill markers" />
    <path
       id="path1085-0"
       style="fill:#ffffff;fill-opacity:1;fill-rule:nonzero;stroke:none;stroke-width:0.12201922px;stroke-linecap:butt;stroke-linejoin:miter;stroke-opacity:1"
       d="m 5.593,289.3 h 6.6952 l 4.318404,-11.21446 h -5.18878 z"
       inkscape:connector-curvature="0"
       sodipodi:nodetypes="ccccc" />
    <path
       id="path1089-9"
       style="fill:#ffffff;fill-opacity:1;fill-rule:nonzero;stroke:none;stroke-width:0.12170936px;stroke-linecap:butt;stroke-linejoin:miter;stroke-opacity:1"
       d="m 34.089443,289.3 h -6.778889 l 0.970803,-11.21446 h 4.837283 z"
       inkscape:connector-curvature="0"
       sodipodi:nodetypes="ccccc" />
    <path
       sodipodi:nodetypes="ccccc"
       inkscape:connector-curvature="0"
       d="m 16.422486,289.3 h 6.644985 l 1.941608,-11.21446 H 20.07137 Z"
       style="fill:#ffffff;fill-opacity:1;fill-rule:nonzero;stroke:none;stroke-width:0.12201922px;stroke-linecap:butt;stroke-linejoin:miter;stroke-opacity:1"
       id="path1121-9" />
    <path
       sodipodi:nodetypes="ccccc"
       inkscape:connector-curvature="0"
       d="m 55.807,289.3 h -6.6952 l -4.318405,-11.21446 h 5.18878 z"
       style="fill:#ffffff;fill-opacity:1;fill-rule:nonzero;stroke:none;stroke-width:0.12201922px;stroke-linecap:butt;stroke-linejoin:miter;stroke-opacity:1"
       id="path846-8" />
    <path
       id="path848-9"
       style="fill:#ffffff;fill-opacity:1;fill-rule:nonzero;stroke:none;stroke-width:0.12201922px;stroke-linecap:butt;stroke-linejoin:miter;stroke-opacity:1"
       d="M 44.977514,289.3 H 38.332527 L 36.390921,278.08554 H 41.32863 Z"
       inkscape:connector-curvature="0"
       sodipodi:nodetypes="ccccc" />
    <path
       id="path962"
       d="m 25.734914,274.92244 c 0.0849,-0.22096 2.997016,-6.28309 3.07051,-6.7991 0.07348,-0.50471 -0.537121,-4.74638 -0.633264,-4.83712 -0.101758,-0.10204 -4.517662,3.26631 -4.698608,3.27764 -0.186696,0 -0.378714,-0.22673 -0.480581,-0.22098 -0.07917,0.005 -0.588048,0.50467 -0.842483,0.62374 -0.0849,0.0452 -0.180937,0.0736 -0.288437,0.0793 -0.395946,0.0164 -0.735024,-0.34608 -0.752005,-0.79956 -0.0123,-0.26664 0.101742,-0.53873 0.203492,-0.65215 0.107517,-0.11357 0.271223,-0.26088 0.401285,-0.29503 0.130063,-0.0413 0.299527,-0.0452 0.395946,-0.10207 0.08492,-0.0452 0.07917,-0.44232 0.07917,-0.44232 0,0 3.850468,-2.76728 4.02579,-2.94307 0.180946,-0.17572 1.628391,-4.06023 1.899797,-4.34376 0.265875,-0.27776 1.390895,-1.37797 1.390895,-1.37797 l 0.01647,-0.47635 c 0,0 -1.006447,-0.32346 -1.079927,-0.48767 -0.0677,-0.16994 -0.644579,-2.17754 -0.644579,-2.17754 l -1.130846,-0.35143 -0.04519,-0.34033 1.396542,-0.6351 0.02879,-0.81088 c 0,0 1.102575,-0.57276 1.854588,-0.5047 0.746336,0.0737 1.487014,0.43096 1.498353,0.62943 0.0042,0.20412 0.02887,0.90165 0.02887,0.90165 l 1.543561,0.64079 -0.01656,0.33455 -1.453133,0.84496 0.158373,2.26824 c 0,0 2.798813,1.28725 2.962768,1.48005 0.158384,0.19835 3.519609,4.06591 3.627069,4.27001 0.09602,0.19299 1.029033,5.33045 0.927241,5.33045 -0.08494,0.005 -0.446652,0.32879 -0.446652,0.32879 0,0 0.135809,1.07178 -0.124316,1.45171 -0.01231,0.0205 -0.02879,0.033 -0.04101,0.0452 -0.130079,0.23827 -0.3619,0.40244 -0.644589,0.41397 -0.429713,0.0164 -0.802887,-0.35142 -0.819868,-0.82795 0,-0.1078 0.01231,-0.20986 0.04092,-0.30617 l 0.0508,-0.41396 -0.316751,-0.28928 c 0,0 -0.576734,-4.13394 -0.706753,-4.23031 -0.130081,-0.0905 -2.55843,-2.32499 -2.55843,-2.32499 l 0.915962,7.47966 c 0.01649,0.40244 -0.226071,0.74849 -0.565392,0.85624 l 4.231525,13.64367 c 0.1075,0.27775 0.01231,0.60108 -0.237566,0.73716 l -3.624309,1.83734 c -0.203501,0.10781 -0.446695,0.005 -0.548456,-0.22099 -0.09601,-0.22098 0.288455,-0.73149 0.20926,-0.62943 0.0508,-0.0736 0.22033,-0.30041 0.43538,-0.62944 0.299526,-0.45934 0.197757,-0.83358 -0.06235,-1.41767 0,0 -3.049823,-9.87832 -3.179878,-9.87832 -0.130075,0 -2.448579,4.24735 -2.578592,4.38909 l -0.01231,0.0122 -2.555725,7.16208 c -0.107492,0.28353 -0.31675,0.49334 -0.587998,0.448 l -3.92398,-0.80526 c -0.23183,-0.0452 -0.378714,-0.27776 -0.339313,-0.52739 0.04093,-0.24402 0.226064,-0.29503 0.480632,-0.36871 0.254384,-0.0736 0.339312,-0.10204 0.938557,-0.24936 0.57106,-0.0793 0.865087,-0.45933 1.000825,-0.9867 0,0 2.035483,-6.56662 2.125943,-6.78214"
       style="fill:none;fill-opacity:1;fill-rule:nonzero;stroke:#003c82;stroke-width:1.33903992;stroke-linecap:round;stroke-linejoin:round;stroke-miterlimit:4;stroke-dasharray:none;stroke-opacity:1"
       inkscape:connector-curvature="0"
       sodipodi:nodetypes="cccccccccccccccccccccccccccccccccccccccccccccccccccscccccccccc" />
    <path
       sodipodi:nodetypes="cccccccccccccccccccccccccccccccccccccccccccccccccccscccccccccc"
       inkscape:connector-curvature="0"
       style="fill:#ffffff;fill-opacity:1;fill-rule:nonzero;stroke:none;stroke-width:0.02613038"
       d="m 25.734914,274.92244 c 0.0849,-0.22096 2.997016,-6.28309 3.07051,-6.7991 0.07348,-0.50471 -0.537121,-4.74638 -0.633264,-4.83712 -0.101758,-0.10204 -4.517662,3.26631 -4.698608,3.27764 -0.186696,0 -0.378714,-0.22673 -0.480581,-0.22098 -0.07917,0.005 -0.588048,0.50467 -0.842483,0.62374 -0.0849,0.0452 -0.180937,0.0736 -0.288437,0.0793 -0.395946,0.0164 -0.735024,-0.34608 -0.752005,-0.79956 -0.0123,-0.26664 0.101742,-0.53873 0.203492,-0.65215 0.107517,-0.11357 0.271223,-0.26088 0.401285,-0.29503 0.130063,-0.0413 0.299527,-0.0452 0.395946,-0.10207 0.08492,-0.0452 0.07917,-0.44232 0.07917,-0.44232 0,0 3.850468,-2.76728 4.02579,-2.94307 0.180946,-0.17572 1.628391,-4.06023 1.899797,-4.34376 0.265875,-0.27776 1.390895,-1.37797 1.390895,-1.37797 l 0.01647,-0.47635 c 0,0 -1.006447,-0.32346 -1.079927,-0.48767 -0.0677,-0.16994 -0.644579,-2.17754 -0.644579,-2.17754 l -1.130846,-0.35143 -0.04519,-0.34033 1.396542,-0.6351 0.02879,-0.81088 c 0,0 1.102575,-0.57276 1.854588,-0.5047 0.746336,0.0737 1.487014,0.43096 1.498353,0.62943 0.0042,0.20412 0.02887,0.90165 0.02887,0.90165 l 1.543561,0.64079 -0.01656,0.33455 -1.453133,0.84496 0.158373,2.26824 c 0,0 2.798813,1.28725 2.962768,1.48005 0.158384,0.19835 3.519609,4.06591 3.627069,4.27001 0.09602,0.19299 1.029033,5.33045 0.927241,5.33045 -0.08494,0.005 -0.446652,0.32879 -0.446652,0.32879 0,0 0.135809,1.07178 -0.124316,1.45171 -0.01231,0.0205 -0.02879,0.033 -0.04101,0.0452 -0.130079,0.23827 -0.3619,0.40244 -0.644589,0.41397 -0.429713,0.0164 -0.802887,-0.35142 -0.819868,-0.82795 0,-0.1078 0.01231,-0.20986 0.04092,-0.30617 l 0.0508,-0.41396 -0.316751,-0.28928 c 0,0 -0.576734,-4.13394 -0.706753,-4.23031 -0.130081,-0.0905 -2.55843,-2.32499 -2.55843,-2.32499 l 0.915962,7.47966 c 0.01649,0.40244 -0.226071,0.74849 -0.565392,0.85624 l 4.231525,13.64367 c 0.1075,0.27775 0.01231,0.60108 -0.237566,0.73716 l -3.624309,1.83734 c -0.203501,0.10781 -0.446695,0.005 -0.548456,-0.22099 -0.09601,-0.22098 0.288455,-0.73149 0.20926,-0.62943 0.0508,-0.0736 0.22033,-0.30041 0.43538,-0.62944 0.299526,-0.45934 0.197757,-0.83358 -0.06235,-1.41767 0,0 -3.049823,-9.87832 -3.179878,-9.87832 -0.130075,0 -2.448579,4.24735 -2.578592,4.38909 l -0.01231,0.0122 -2.555725,7.16208 c -0.107492,0.28353 -0.31675,0.49334 -0.587998,0.448 l -3.92398,-0.80526 c -0.23183,-0.0452 -0.378714,-0.27776 -0.339313,-0.52739 0.04093,-0.24402 0.226064,-0.29503 0.480632,-0.36871 0.254384,-0.0736 0.339312,-0.10204 0.938557,-0.24936 0.57106,-0.0793 0.865087,-0.45933 1.000825,-0.9867 0,0 2.035483,-6.56662 2.125943,-6.78214"
       id="path856-4" />
  </g>
</svg>
