<?xml version="1.0" encoding="UTF-8" standalone="no"?>
<!-- Created with Inkscape (http://www.inkscape.org/) -->

<svg
   xmlns:dc="http://purl.org/dc/elements/1.1/"
   xmlns:cc="http://creativecommons.org/ns#"
   xmlns:rdf="http://www.w3.org/1999/02/22-rdf-syntax-ns#"
   xmlns:svg="http://www.w3.org/2000/svg"
   xmlns="http://www.w3.org/2000/svg"
   xmlns:sodipodi="http://sodipodi.sourceforge.net/DTD/sodipodi-0.dtd"
   xmlns:inkscape="http://www.inkscape.org/namespaces/inkscape"
   width="61.400002mm"
   height="69.400002mm"
   viewBox="0 0 61.400002 69.400002"
   version="1.1"
   id="svg843"
   inkscape:version="0.92.2 (5c3e80d, 2017-08-06)"
   sodipodi:docname="11.svg">
  <defs
     id="defs837" />
  <sodipodi:namedview
     id="base"
     pagecolor="#ffffff"
     bordercolor="#666666"
     borderopacity="1.0"
     inkscape:pageopacity="0.0"
     inkscape:pageshadow="2"
     inkscape:zoom="1.4"
     inkscape:cx="229.45499"
     inkscape:cy="161.00148"
     inkscape:document-units="mm"
     inkscape:current-layer="layer1"
     showgrid="false"
     inkscape:snap-global="false"
     inkscape:window-width="1920"
     inkscape:window-height="1057"
     inkscape:window-x="-8"
     inkscape:window-y="-8"
     inkscape:window-maximized="1" />
  <metadata
     id="metadata840">
    <rdf:RDF>
      <cc:Work
         rdf:about="">
        <dc:format>image/svg+xml</dc:format>
        <dc:type
           rdf:resource="http://purl.org/dc/dcmitype/StillImage" />
        <dc:title></dc:title>
      </cc:Work>
    </rdf:RDF>
  </metadata>
  <g
     inkscape:label="Layer 1"
     inkscape:groupmode="layer"
     id="layer1"
     transform="translate(0,-227.6)">
    <path
       style="opacity:1;fill:none;fill-opacity:1;fill-rule:nonzero;stroke:#000000;stroke-width:7.5999999;stroke-linecap:square;stroke-linejoin:round;stroke-miterlimit:4;stroke-dasharray:none;stroke-opacity:1;paint-order:stroke fill markers"
       d="m 4.3,281.3 26.4,-49.4 26.4,49.4 v 11.4 H 4.3 Z"
       id="rect1491"
       inkscape:connector-curvature="0"
       sodipodi:nodetypes="cccccc" />
    <path
       sodipodi:nodetypes="cccccc"
       inkscape:connector-curvature="0"
       id="path1494"
       d="m 4.3,281.3 26.399996,-49.4 26.400002,49.4 v 11.4 H 4.3 Z"
       style="opacity:1;fill:none;fill-opacity:1;fill-rule:nonzero;stroke:#ffffff;stroke-width:7.19999981;stroke-linecap:square;stroke-linejoin:round;stroke-miterlimit:4;stroke-dasharray:none;stroke-opacity:1;paint-order:stroke fill markers" />
    <path
       sodipodi:nodetypes="cccccc"
       inkscape:connector-curvature="0"
       id="path1496"
       d="m 4.3,281.3 26.399999,-49.4 26.4,49.4 v 11.4 H 4.3 Z"
       style="opacity:1;fill:#003c82;fill-opacity:1;fill-rule:nonzero;stroke:#003c82;stroke-width:4.19999981;stroke-linecap:square;stroke-linejoin:round;stroke-miterlimit:4;stroke-dasharray:none;stroke-opacity:1;paint-order:stroke fill markers" />
    <path
       style="opacity:1;fill:#ffffff;fill-opacity:1;fill-rule:nonzero;stroke:none;stroke-width:0.35629773;stroke-linecap:square;stroke-linejoin:round;stroke-miterlimit:22.9260006;stroke-dasharray:none;stroke-opacity:1;paint-order:stroke fill markers"
       d="M 10.780875,289.3 H 7.768 v -1.0043 h 3.012875 z"
       id="rect2031"
       inkscape:connector-curvature="0"
       sodipodi:nodetypes="ccccc" />
    <path
       sodipodi:nodetypes="ccccc"
       inkscape:connector-curvature="0"
       id="path888-0"
       d="m 53.630646,289.3 h -3.012872 v -1.0043 h 3.012872 z"
       style="opacity:1;fill:#ffffff;fill-opacity:1;fill-rule:nonzero;stroke:none;stroke-width:0.35629773;stroke-linecap:square;stroke-linejoin:round;stroke-miterlimit:22.9260006;stroke-dasharray:none;stroke-opacity:1;paint-order:stroke fill markers" />
    <path
       sodipodi:nodetypes="ccccc"
       inkscape:connector-curvature="0"
       id="path890"
       d="m 15.065852,289.3 h -3.012875 v -1.0043 h 3.012875 z"
       style="opacity:1;fill:#ffffff;fill-opacity:1;fill-rule:nonzero;stroke:none;stroke-width:0.35629773;stroke-linecap:square;stroke-linejoin:round;stroke-miterlimit:22.9260006;stroke-dasharray:none;stroke-opacity:1;paint-order:stroke fill markers" />
    <path
       style="opacity:1;fill:#ffffff;fill-opacity:1;fill-rule:nonzero;stroke:none;stroke-width:0.35629773;stroke-linecap:square;stroke-linejoin:round;stroke-miterlimit:22.9260006;stroke-dasharray:none;stroke-opacity:1;paint-order:stroke fill markers"
       d="m 19.350829,289.3 h -3.012874 v -1.0043 h 3.012874 z"
       id="path892"
       inkscape:connector-curvature="0"
       sodipodi:nodetypes="ccccc" />
    <path
       sodipodi:nodetypes="ccccc"
       inkscape:connector-curvature="0"
       id="path894"
       d="m 23.635805,289.3 h -3.012873 v -1.0043 h 3.012873 z"
       style="opacity:1;fill:#ffffff;fill-opacity:1;fill-rule:nonzero;stroke:none;stroke-width:0.35629773;stroke-linecap:square;stroke-linejoin:round;stroke-miterlimit:22.9260006;stroke-dasharray:none;stroke-opacity:1;paint-order:stroke fill markers" />
    <path
       style="opacity:1;fill:#ffffff;fill-opacity:1;fill-rule:nonzero;stroke:none;stroke-width:0.35629773;stroke-linecap:square;stroke-linejoin:round;stroke-miterlimit:22.9260006;stroke-dasharray:none;stroke-opacity:1;paint-order:stroke fill markers"
       d="m 27.920783,289.3 h -3.012875 v -1.0043 h 3.012875 z"
       id="path896"
       inkscape:connector-curvature="0"
       sodipodi:nodetypes="ccccc" />
    <path
       sodipodi:nodetypes="ccccc"
       inkscape:connector-curvature="0"
       id="path898"
       d="m 32.205761,289.3 h -3.012876 v -1.0043 h 3.012876 z"
       style="opacity:1;fill:#ffffff;fill-opacity:1;fill-rule:nonzero;stroke:none;stroke-width:0.35629773;stroke-linecap:square;stroke-linejoin:round;stroke-miterlimit:22.9260006;stroke-dasharray:none;stroke-opacity:1;paint-order:stroke fill markers" />
    <path
       style="opacity:1;fill:#ffffff;fill-opacity:1;fill-rule:nonzero;stroke:none;stroke-width:0.35629773;stroke-linecap:square;stroke-linejoin:round;stroke-miterlimit:22.9260006;stroke-dasharray:none;stroke-opacity:1;paint-order:stroke fill markers"
       d="m 36.490737,289.3 h -3.012874 v -1.0043 h 3.012874 z"
       id="path900"
       inkscape:connector-curvature="0"
       sodipodi:nodetypes="ccccc" />
    <path
       sodipodi:nodetypes="ccccc"
       inkscape:connector-curvature="0"
       id="path902"
       d="m 40.775715,289.3 h -3.012873 v -1.0043 h 3.012873 z"
       style="opacity:1;fill:#ffffff;fill-opacity:1;fill-rule:nonzero;stroke:none;stroke-width:0.35629773;stroke-linecap:square;stroke-linejoin:round;stroke-miterlimit:22.9260006;stroke-dasharray:none;stroke-opacity:1;paint-order:stroke fill markers" />
    <path
       style="opacity:1;fill:#ffffff;fill-opacity:1;fill-rule:nonzero;stroke:none;stroke-width:0.35629773;stroke-linecap:square;stroke-linejoin:round;stroke-miterlimit:22.9260006;stroke-dasharray:none;stroke-opacity:1;paint-order:stroke fill markers"
       d="m 45.060695,289.3 h -3.012878 v -1.0043 h 3.012878 z"
       id="path904"
       inkscape:connector-curvature="0"
       sodipodi:nodetypes="ccccc" />
    <path
       sodipodi:nodetypes="ccccc"
       inkscape:connector-curvature="0"
       id="path906"
       d="m 49.345669,289.3 h -3.012875 v -1.0043 h 3.012875 z"
       style="opacity:1;fill:#ffffff;fill-opacity:1;fill-rule:nonzero;stroke:none;stroke-width:0.35629773;stroke-linecap:square;stroke-linejoin:round;stroke-miterlimit:22.9260006;stroke-dasharray:none;stroke-opacity:1;paint-order:stroke fill markers" />
    <path
       id="path962"
       d="m 25.734179,274.92239 c 0.08491,-0.22096 2.997049,-6.28316 3.070542,-6.79917 0.0735,-0.50472 -0.537129,-4.74645 -0.633273,-4.83718 -0.101753,-0.10205 -4.517712,3.26635 -4.698662,3.27768 -0.186694,0 -0.378713,-0.22674 -0.480584,-0.22099 -0.07918,0.005 -0.588058,0.50468 -0.842492,0.62375 -0.08491,0.0452 -0.180942,0.0736 -0.28844,0.0793 -0.395953,0.0164 -0.735035,-0.34608 -0.752016,-0.79957 -0.01229,-0.26664 0.101745,-0.53874 0.203499,-0.65215 0.107515,-0.11358 0.271223,-0.26089 0.401288,-0.29504 0.130064,-0.0413 0.299526,-0.0452 0.395954,-0.10207 0.08491,-0.0452 0.07918,-0.44232 0.07918,-0.44232 0,0 3.85051,-2.76732 4.025833,-2.94311 0.180949,-0.17572 1.628412,-4.06028 1.89982,-4.34381 0.265873,-0.27777 1.390909,-1.37799 1.390909,-1.37799 l 0.01647,-0.47636 c 0,0 -1.00646,-0.32345 -1.079936,-0.48766 -0.06772,-0.16995 -0.644595,-2.17757 -0.644595,-2.17757 l -1.130855,-0.35144 -0.04515,-0.34033 1.396562,-0.6351 0.02876,-0.8109 c 0,0 1.102587,-0.57276 1.854605,-0.5047 0.746346,0.0737 1.487037,0.43096 1.498375,0.62944 0.0042,0.20411 0.02885,0.90165 0.02885,0.90165 l 1.543583,0.64081 -0.01656,0.33455 -1.45315,0.84496 0.158375,2.26827 c 0,0 2.798843,1.28727 2.962802,1.48007 0.158384,0.19835 3.519647,4.06595 3.627104,4.27006 0.09603,0.19299 1.029052,5.33051 0.927255,5.33051 -0.08494,0.005 -0.446656,0.3288 -0.446656,0.3288 0,0 0.135807,1.07179 -0.124319,1.45172 -0.01229,0.0205 -0.02876,0.033 -0.04105,0.0452 -0.130074,0.23828 -0.361903,0.40245 -0.644597,0.41398 -0.429716,0.0164 -0.802896,-0.35143 -0.819872,-0.82796 0,-0.10781 0.01229,-0.20987 0.04097,-0.30618 l 0.05083,-0.41396 -0.316757,-0.28929 c 0,0 -0.576736,-4.13398 -0.706758,-4.23036 -0.130081,-0.0905 -2.558463,-2.32502 -2.558463,-2.32502 l 0.915977,7.47976 c 0.01647,0.40244 -0.226074,0.7485 -0.565406,0.85625 l 4.23158,13.64382 c 0.107498,0.27777 0.01228,0.60109 -0.237569,0.73717 l -3.624353,1.83736 c -0.203499,0.10781 -0.446696,0.005 -0.548459,-0.22099 -0.09601,-0.22098 0.288455,-0.7315 0.20926,-0.62943 0.05083,-0.0736 0.220338,-0.30041 0.435385,-0.62945 0.299533,-0.45935 0.197763,-0.8336 -0.06237,-1.41768 0,0 -3.049856,-9.87844 -3.179912,-9.87844 -0.130074,0 -2.448606,4.2474 -2.57862,4.38915 l -0.01229,0.0122 -2.555755,7.16216 c -0.107488,0.28353 -0.316748,0.49334 -0.588006,0.44801 l -3.924021,-0.80527 c -0.231833,-0.0452 -0.378721,-0.27776 -0.339324,-0.5274 0.04088,-0.24402 0.226074,-0.29503 0.480644,-0.3687 0.254384,-0.0736 0.339315,-0.10205 0.938568,-0.24937 0.571068,-0.0793 0.865093,-0.45934 1.000834,-0.98672 0,0 2.035502,-6.56669 2.12597,-6.78221"
       style="fill:#ffffff;fill-opacity:1;fill-rule:nonzero;stroke:none;stroke-width:0.02613068"
       inkscape:connector-curvature="0"
       sodipodi:nodetypes="cccccccccccccccccccccccccccccccccccccccccccccccccccscccccccccc" />
    <path
       sodipodi:nodetypes="ccccc"
       inkscape:connector-curvature="0"
       id="path839"
       d="m 15.065852,279.08981 h -3.012875 v -1.00428 h 3.012875 z"
       style="opacity:1;fill:#ffffff;fill-opacity:1;fill-rule:nonzero;stroke:none;stroke-width:0.35629773;stroke-linecap:square;stroke-linejoin:round;stroke-miterlimit:22.9260006;stroke-dasharray:none;stroke-opacity:1;paint-order:stroke fill markers" />
    <path
       style="opacity:1;fill:#ffffff;fill-opacity:1;fill-rule:nonzero;stroke:none;stroke-width:0.35629773;stroke-linecap:square;stroke-linejoin:round;stroke-miterlimit:22.9260006;stroke-dasharray:none;stroke-opacity:1;paint-order:stroke fill markers"
       d="m 19.350829,279.08981 h -3.012874 v -1.00428 h 3.012874 z"
       id="path841"
       inkscape:connector-curvature="0"
       sodipodi:nodetypes="ccccc" />
    <path
       sodipodi:nodetypes="ccccc"
       inkscape:connector-curvature="0"
       id="path843-6"
       d="m 23.635806,279.08981 h -3.012874 v -1.00428 h 3.012874 z"
       style="opacity:1;fill:#ffffff;fill-opacity:1;fill-rule:nonzero;stroke:none;stroke-width:0.35629773;stroke-linecap:square;stroke-linejoin:round;stroke-miterlimit:22.9260006;stroke-dasharray:none;stroke-opacity:1;paint-order:stroke fill markers" />
    <path
       sodipodi:nodetypes="ccccc"
       inkscape:connector-curvature="0"
       id="path847-6"
       d="m 32.205761,279.08981 h -3.012875 v -1.00428 h 3.012875 z"
       style="opacity:1;fill:#ffffff;fill-opacity:1;fill-rule:nonzero;stroke:none;stroke-width:0.35629773;stroke-linecap:square;stroke-linejoin:round;stroke-miterlimit:22.9260006;stroke-dasharray:none;stroke-opacity:1;paint-order:stroke fill markers" />
    <path
       sodipodi:nodetypes="ccccc"
       inkscape:connector-curvature="0"
       id="path851"
       d="m 40.775715,279.08981 h -3.012873 v -1.00428 h 3.012873 z"
       style="opacity:1;fill:#ffffff;fill-opacity:1;fill-rule:nonzero;stroke:none;stroke-width:0.35629773;stroke-linecap:square;stroke-linejoin:round;stroke-miterlimit:22.9260006;stroke-dasharray:none;stroke-opacity:1;paint-order:stroke fill markers" />
    <path
       style="opacity:1;fill:#ffffff;fill-opacity:1;fill-rule:nonzero;stroke:none;stroke-width:0.35629773;stroke-linecap:square;stroke-linejoin:round;stroke-miterlimit:22.9260006;stroke-dasharray:none;stroke-opacity:1;paint-order:stroke fill markers"
       d="m 45.060695,279.08981 h -3.012878 v -1.00428 h 3.012878 z"
       id="path853"
       inkscape:connector-curvature="0"
       sodipodi:nodetypes="ccccc" />
    <path
       sodipodi:nodetypes="ccccc"
       inkscape:connector-curvature="0"
       id="path855-7"
       d="m 49.345669,279.08981 h -3.01287 v -1.00428 h 3.01287 z"
       style="opacity:1;fill:#ffffff;fill-opacity:1;fill-rule:nonzero;stroke:none;stroke-width:0.35629773;stroke-linecap:square;stroke-linejoin:round;stroke-miterlimit:22.9260006;stroke-dasharray:none;stroke-opacity:1;paint-order:stroke fill markers" />
  </g>
</svg>
