<?xml version="1.0" encoding="UTF-8" standalone="no"?>
<!-- Created with Inkscape (http://www.inkscape.org/) -->

<svg
   xmlns:dc="http://purl.org/dc/elements/1.1/"
   xmlns:cc="http://creativecommons.org/ns#"
   xmlns:rdf="http://www.w3.org/1999/02/22-rdf-syntax-ns#"
   xmlns:svg="http://www.w3.org/2000/svg"
   xmlns="http://www.w3.org/2000/svg"
   xmlns:sodipodi="http://sodipodi.sourceforge.net/DTD/sodipodi-0.dtd"
   xmlns:inkscape="http://www.inkscape.org/namespaces/inkscape"
   width="61.400002mm"
   height="69.400002mm"
   viewBox="0 0 61.400002 69.400002"
   version="1.1"
   id="svg843"
   inkscape:version="0.92.2 (5c3e80d, 2017-08-06)"
   sodipodi:docname="11.svg">
  <defs
     id="defs837" />
  <sodipodi:namedview
     id="base"
     pagecolor="#ffffff"
     bordercolor="#666666"
     borderopacity="1.0"
     inkscape:pageopacity="0.0"
     inkscape:pageshadow="2"
     inkscape:zoom="1.979899"
     inkscape:cx="122.49094"
     inkscape:cy="105.92775"
     inkscape:document-units="mm"
     inkscape:current-layer="layer1"
     showgrid="false"
     inkscape:snap-global="false"
     inkscape:window-width="1920"
     inkscape:window-height="1057"
     inkscape:window-x="-8"
     inkscape:window-y="-8"
     inkscape:window-maximized="1" />
  <metadata
     id="metadata840">
    <rdf:RDF>
      <cc:Work
         rdf:about="">
        <dc:format>image/svg+xml</dc:format>
        <dc:type
           rdf:resource="http://purl.org/dc/dcmitype/StillImage" />
        <dc:title></dc:title>
      </cc:Work>
    </rdf:RDF>
  </metadata>
  <g
     inkscape:label="Layer 1"
     inkscape:groupmode="layer"
     id="layer1"
     transform="translate(0,-227.6)">
    <path
       style="opacity:1;fill:none;fill-opacity:1;fill-rule:nonzero;stroke:#000000;stroke-width:7.5999999;stroke-linecap:square;stroke-linejoin:round;stroke-miterlimit:4;stroke-dasharray:none;stroke-opacity:1;paint-order:stroke fill markers"
       d="m 4.3,281.3 26.4,-49.4 26.4,49.4 v 11.4 H 4.3 Z"
       id="rect1491"
       inkscape:connector-curvature="0"
       sodipodi:nodetypes="cccccc" />
    <path
       sodipodi:nodetypes="cccccc"
       inkscape:connector-curvature="0"
       id="path1494"
       d="m 4.2999999,281.3 26.3999961,-49.4 26.400002,49.4 v 11.4 H 4.2999999 Z"
       style="opacity:1;fill:none;fill-opacity:1;fill-rule:nonzero;stroke:#ffffff;stroke-width:7.19999981;stroke-linecap:square;stroke-linejoin:round;stroke-miterlimit:4;stroke-dasharray:none;stroke-opacity:1;paint-order:stroke fill markers" />
    <path
       sodipodi:nodetypes="cccccc"
       inkscape:connector-curvature="0"
       id="path1496"
       d="m 4.2999999,281.3 26.3999991,-49.4 26.4,49.4 v 11.4 H 4.2999999 Z"
       style="opacity:1;fill:#003c82;fill-opacity:1;fill-rule:nonzero;stroke:#003c82;stroke-width:4.19999981;stroke-linecap:square;stroke-linejoin:round;stroke-miterlimit:4;stroke-dasharray:none;stroke-opacity:1;paint-order:stroke fill markers" />
    <path
       sodipodi:nodetypes="ccccc"
       inkscape:connector-curvature="0"
       id="path888"
       d="M 53.630651,289.3 H 7.768 v -1.0043 h 45.862651 z"
       style="opacity:1;fill:#ffffff;fill-opacity:1;fill-rule:nonzero;stroke:none;stroke-width:0.35629773;stroke-linecap:square;stroke-linejoin:round;stroke-miterlimit:22.9260006;stroke-dasharray:none;stroke-opacity:1;paint-order:stroke fill markers" />
    <path
       id="path962-7"
       d="m 25.734182,274.92239 c 0.0849,-0.22096 2.997049,-6.28316 3.070546,-6.79917 0.07348,-0.50472 -0.537128,-4.74645 -0.633273,-4.83718 -0.101759,-0.10205 -4.517713,3.26635 -4.698661,3.27768 -0.186698,0 -0.378719,-0.22674 -0.480587,-0.22099 -0.07917,0.005 -0.588055,0.50468 -0.842492,0.62375 -0.08491,0.0452 -0.18094,0.0737 -0.288441,0.0793 -0.39595,0.0164 -0.735033,-0.34608 -0.752014,-0.79957 -0.0123,-0.26664 0.101743,-0.53874 0.203495,-0.65215 0.107518,-0.11358 0.271226,-0.26089 0.40129,-0.29504 0.130064,-0.0413 0.29953,-0.0452 0.39595,-0.10207 0.08492,-0.0452 0.07917,-0.44232 0.07917,-0.44232 0,0 3.850512,-2.76732 4.025836,-2.94311 0.180949,-0.17572 1.628409,-4.06028 1.899819,-4.34381 0.265878,-0.27777 1.39091,-1.37799 1.39091,-1.37799 l 0.01649,-0.47636 c 0,0 -1.006459,-0.32345 -1.07994,-0.48766 -0.06771,-0.16995 -0.644587,-2.17757 -0.644587,-2.17757 l -1.130859,-0.35144 -0.04519,-0.34033 1.39656,-0.6351 0.02879,-0.8109 c 0,0 1.102587,-0.57276 1.854609,-0.5047 0.746345,0.0736 1.487032,0.43096 1.498372,0.62944 0.0042,0.20411 0.02887,0.90165 0.02887,0.90165 l 1.543581,0.64081 -0.01656,0.33455 -1.45315,0.84496 0.158376,2.26827 c 0,0 2.798845,1.28727 2.962802,1.48007 0.158386,0.19835 3.519649,4.06595 3.627108,4.27006 0.09603,0.19299 1.029047,5.33051 0.927255,5.33051 -0.08494,0.005 -0.446658,0.3288 -0.446658,0.3288 0,0 0.135813,1.07179 -0.124316,1.45172 -0.0123,0.0205 -0.02879,0.033 -0.04101,0.0452 -0.130081,0.23828 -0.361905,0.40245 -0.644596,0.41398 -0.429721,0.0164 -0.802899,-0.35143 -0.81988,-0.82796 0,-0.10781 0.01231,-0.20987 0.04092,-0.30618 l 0.0508,-0.41396 -0.316754,-0.28929 c 0,0 -0.576739,-4.13398 -0.706761,-4.23036 -0.130081,-0.0905 -2.558459,-2.32502 -2.558459,-2.32502 l 0.915973,7.47976 c 0.0165,0.40244 -0.226073,0.7485 -0.565399,0.85625 l 4.231575,13.64382 c 0.107501,0.27777 0.01231,0.60109 -0.237566,0.73717 l -3.624354,1.83736 c -0.203503,0.10781 -0.446702,0.005 -0.548462,-0.22099 -0.09601,-0.22098 0.288458,-0.7315 0.209261,-0.62943 0.0508,-0.0737 0.220334,-0.30041 0.435386,-0.62945 0.29953,-0.45935 0.197762,-0.8336 -0.06235,-1.41768 0,0 -3.049856,-9.87844 -3.179913,-9.87844 -0.130076,0 -2.448607,4.2474 -2.578621,4.38915 l -0.0123,0.0122 -2.555756,7.16216 c -0.107492,0.28353 -0.316753,0.49334 -0.588003,0.44801 l -3.924028,-0.80527 c -0.231832,-0.0452 -0.378718,-0.27776 -0.339316,-0.5274 0.04093,-0.24402 0.226066,-0.29503 0.480637,-0.3687 0.254387,-0.0737 0.339317,-0.10205 0.938569,-0.24937 0.571066,-0.0793 0.865097,-0.45934 1.000836,-0.98672 0,0 2.035505,-6.56669 2.125968,-6.78221"
       style="fill:#ffffff;fill-opacity:1;fill-rule:nonzero;stroke:none;stroke-width:0.02613068"
       inkscape:connector-curvature="0"
       sodipodi:nodetypes="cccccccccccccccccccccccccccccccccccccccccccccccccccscccccccccc" />
    <path
       sodipodi:nodetypes="ccccc"
       inkscape:connector-curvature="0"
       id="path843"
       d="M 23.635807,279.08981 H 12.044608 v -1.00428 h 11.591199 z"
       style="opacity:1;fill:#ffffff;fill-opacity:1;fill-rule:nonzero;stroke:none;stroke-width:0.35629773;stroke-linecap:square;stroke-linejoin:round;stroke-miterlimit:22.9260006;stroke-dasharray:none;stroke-opacity:1;paint-order:stroke fill markers" />
    <path
       sodipodi:nodetypes="ccccc"
       inkscape:connector-curvature="0"
       id="path855"
       d="m 49.345674,279.08981 h -11.58283 v -1.00428 h 11.58283 z"
       style="opacity:1;fill:#ffffff;fill-opacity:1;fill-rule:nonzero;stroke:none;stroke-width:0.35629773;stroke-linecap:square;stroke-linejoin:round;stroke-miterlimit:22.9260006;stroke-dasharray:none;stroke-opacity:1;paint-order:stroke fill markers" />
    <path
       sodipodi:nodetypes="ccccc"
       inkscape:connector-curvature="0"
       id="path847"
       d="m 32.205762,279.08983 h -3.012875 v -1.0043 h 3.012875 z"
       style="opacity:1;fill:#ffffff;fill-opacity:1;fill-rule:nonzero;stroke:none;stroke-width:0.35629773;stroke-linecap:square;stroke-linejoin:round;stroke-miterlimit:22.9260006;stroke-dasharray:none;stroke-opacity:1;paint-order:stroke fill markers" />
  </g>
</svg>
