<?xml version="1.0" encoding="UTF-8" standalone="no"?>
<!-- Created with Inkscape (http://www.inkscape.org/) -->

<svg
   xmlns:dc="http://purl.org/dc/elements/1.1/"
   xmlns:cc="http://creativecommons.org/ns#"
   xmlns:rdf="http://www.w3.org/1999/02/22-rdf-syntax-ns#"
   xmlns:svg="http://www.w3.org/2000/svg"
   xmlns="http://www.w3.org/2000/svg"
   xmlns:sodipodi="http://sodipodi.sourceforge.net/DTD/sodipodi-0.dtd"
   xmlns:inkscape="http://www.inkscape.org/namespaces/inkscape"
   width="61mm"
   height="61mm"
   viewBox="0 0 61 61"
   version="1.1"
   id="svg8"
   inkscape:version="0.92.2 (5c3e80d, 2017-08-06)"
   sodipodi:docname="22.svg">
  <defs
     id="defs2" />
  <sodipodi:namedview
     id="base"
     pagecolor="#ffffff"
     bordercolor="#666666"
     borderopacity="1.0"
     inkscape:pageopacity="0.0"
     inkscape:pageshadow="2"
     inkscape:zoom="1.4"
     inkscape:cx="145.99854"
     inkscape:cy="79.072967"
     inkscape:document-units="mm"
     inkscape:current-layer="layer1"
     showgrid="false"
     inkscape:window-width="1920"
     inkscape:window-height="1057"
     inkscape:window-x="-8"
     inkscape:window-y="-8"
     inkscape:window-maximized="1" />
  <metadata
     id="metadata5">
    <rdf:RDF>
      <cc:Work
         rdf:about="">
        <dc:format>image/svg+xml</dc:format>
        <dc:type
           rdf:resource="http://purl.org/dc/dcmitype/StillImage" />
        <dc:title></dc:title>
      </cc:Work>
    </rdf:RDF>
  </metadata>
  <g
     inkscape:label="Layer 1"
     inkscape:groupmode="layer"
     id="layer1"
     transform="translate(0,-236)">
    <circle
       style="opacity:1;fill:#dc0a14;fill-opacity:1;fill-rule:nonzero;stroke:none;stroke-width:0.20430708;stroke-linecap:square;stroke-linejoin:round;stroke-miterlimit:4;stroke-dasharray:none;stroke-opacity:1;paint-order:stroke fill markers"
       id="path815"
       cx="30.5"
       cy="266.5"
       r="30" />
    <circle
       r="24"
       cy="266.5"
       cx="30.5"
       id="circle817"
       style="opacity:1;fill:#ffffff;fill-opacity:1;fill-rule:nonzero;stroke:none;stroke-width:0.16344567;stroke-linecap:square;stroke-linejoin:round;stroke-miterlimit:4;stroke-dasharray:none;stroke-opacity:1;paint-order:stroke fill markers" />
    <path
       inkscape:connector-curvature="0"
       d="m 34.53304,247.71727 c 3.048873,1.09341 4.811192,5.78993 5.729208,8.59113 1.946586,7.35214 2.172741,15.80258 0.13739,23.16308 -0.919694,2.49309 -2.15767,5.35622 -5.087609,5.77478 h -8.828337 c -4.038929,-0.45689 -5.705755,-7.56131 -6.446199,-10.74596 -1.279854,-7.49611 -1.576371,-16.08552 1.472511,-23.16307 0.871103,-1.60737 1.874556,-3.45749 3.847949,-3.66679 3.001968,-0.002 6.213338,-0.11391 9.175109,0.0442 m -0.37191,-0.91752 c 2.889728,-0.16078 8.134797,6.6204 8.505019,19.61004 0.370204,12.98965 -3.000297,19.51966 -7.290497,19.75407 -0.24794,0.0123 -8.667518,0 -8.965704,0 -4.119339,0 -7.67748,-7.95488 -8.159939,-19.18312 -0.520955,-12.43544 3.285081,-20.20442 7.020792,-20.20442 0.226162,0 8.64072,0.0505 8.890329,0.0253 z"
       id="path12"
       style="clip-rule:evenodd;fill:#000000;fill-opacity:1;fill-rule:evenodd;stroke:none;stroke-width:1.67478085" />
    <path
       inkscape:connector-curvature="0"
       d="m 36.293682,279.83476 c 2.269903,2.31568 4.377314,-4.10381 3.919983,-13.31276 -0.457323,-9.20898 -2.702111,-16.10231 -5.132837,-12.71509 1.995173,-1.11676 4.03055,5.73468 4.290204,13.0382 0.271367,7.33535 -0.966588,13.6075 -3.07735,12.98965"
       id="path14"
       style="clip-rule:evenodd;fill:#000000;fill-opacity:1;fill-rule:evenodd;stroke:none;stroke-width:1.67478085" />
    <path
       inkscape:connector-curvature="0"
       d="m 34.893205,258.897 c -0.38527,4.80873 -0.06206,10.44797 0.644958,15.322 1.053706,-0.22591 1.303307,-4.67311 1.216197,-7.46426 -0.162468,-4.35168 -1.030254,-7.81755 -1.861155,-7.85774"
       id="path16"
       style="clip-rule:evenodd;fill:#000000;fill-opacity:1;fill-rule:evenodd;stroke:none;stroke-width:1.67478085" />
    <path
       inkscape:connector-curvature="0"
       d="m 25.49697,249.86548 c -0.36349,0.13727 -0.638253,0.20945 -0.958214,0.45878 -2.018626,1.56049 -2.849531,4.95442 -3.28341,7.33537 -0.780647,5.35625 -0.844305,11.17966 0.118966,16.54429 0.572936,2.86311 2.17442,8.19596 5.039021,9.43497 0.232871,0.0968 0.346775,0.0968 0.507593,0.112 l -0.04875,0.53093 c -0.981673,0 -1.946593,-0.96443 -2.727234,-1.78482 -3.846278,-5.0197 -4.080804,-13.03819 -3.983648,-19.13455 0.201026,-4.56261 1.191073,-12.90259 5.310411,-14.04445 z"
       id="path18"
       style="clip-rule:evenodd;fill:#000000;fill-opacity:1;fill-rule:evenodd;stroke:none;stroke-width:1.67478085" />
    <path
       inkscape:connector-curvature="0"
       d="m 34.757517,251.19998 c -1.794149,1.9138 -2.413976,4.39181 -2.881356,6.94857 -0.723688,4.99294 -0.789023,10.41615 0.105549,15.41074 0.57965,2.85481 1.857798,7.59151 4.764289,8.87078 l -0.298212,0.3702 c -1.135795,-0.4974 -1.216204,-0.73169 -1.946592,-1.49519 -3.581593,-4.67316 -3.734036,-12.16253 -3.645256,-17.84027 0.192669,-4.24614 0.789024,-10.62379 4.119339,-13.0382 l 0.298212,0.41008 z"
       id="path20"
       style="clip-rule:evenodd;fill:#000000;fill-opacity:1;fill-rule:evenodd;stroke:none;stroke-width:1.67478085" />
    <path
       inkscape:connector-curvature="0"
       d="m 30.65326,263.70573 h 2.204569 c 0.137388,0 0.274724,0.0903 0.274724,0.20946 v 0.16272 c 0,0.11198 -0.13739,0.20124 -0.274724,0.20124 H 30.65326 c -0.137388,0 -0.247939,-0.0886 -0.247939,-0.20124 v -0.16272 c -0.0016,-0.12024 0.110554,-0.20946 0.247939,-0.20946"
       id="path22"
       style="clip-rule:evenodd;fill:#000000;fill-opacity:1;fill-rule:evenodd;stroke:none;stroke-width:1.67478085" />
    <path
       inkscape:connector-curvature="0"
       d="m 33.437451,266.18375 v -1.68107 c 0,-0.10567 0.08213,-0.20944 0.175889,-0.20944 h 0.130681 c 0.0955,0 0.175888,0.10567 0.175888,0.20944 v 1.68107 c 0,0.10567 -0.08205,0.18414 -0.175888,0.18414 H 33.61334 c -0.09383,0.002 -0.175889,-0.0785 -0.175889,-0.18414"
       id="path24"
       style="clip-rule:evenodd;fill:#000000;fill-opacity:1;fill-rule:evenodd;stroke:none;stroke-width:1.67478085" />
    <path
       inkscape:connector-curvature="0"
       d="m 35.41587,278.20898 -0.490815,-1.60068 c -0.03357,-0.10566 0.01019,-0.2259 0.10555,-0.24932 l 0.128975,-0.0379 c 0.08877,-0.0316 0.192668,0.0505 0.226161,0.14429 l 0.490818,1.60909 c 0.03167,0.0968 -0.01702,0.20947 -0.112258,0.23414 l -0.128979,0.0379 c -0.08876,0.0316 -0.194311,-0.0379 -0.219448,-0.1392"
       id="path26"
       style="clip-rule:evenodd;fill:#000000;fill-opacity:1;fill-rule:evenodd;stroke:none;stroke-width:1.67478085" />
    <path
       inkscape:connector-curvature="0"
       d="m 34.450952,275.1449 -0.321641,-1.64922 c -0.0153,-0.10373 0.04052,-0.22464 0.137391,-0.2411 l 0.128977,-0.0253 c 0.09718,-0.0188 0.192667,0.0722 0.209379,0.16888 l 0.319932,1.64756 c 0.01702,0.10568 -0.03862,0.20947 -0.137387,0.22592 l -0.127329,0.0253 c -0.09549,0.0122 -0.184245,-0.0505 -0.209381,-0.15253"
       id="path28"
       style="clip-rule:evenodd;fill:#000000;fill-opacity:1;fill-rule:evenodd;stroke:none;stroke-width:1.67478085" />
    <path
       inkscape:connector-curvature="0"
       d="m 33.89478,272.1746 -0.175889,-1.671 c -0.0071,-0.10566 0.05702,-0.21958 0.154112,-0.22589 l 0.127323,-0.0189 c 0.09886,-0.008 0.185958,0.0886 0.194313,0.19238 l 0.175892,1.66433 c 0.01702,0.1057 -0.05698,0.20062 -0.152461,0.20948 l -0.128976,0.019 c -0.09549,0.0123 -0.184247,-0.0641 -0.194314,-0.16903"
       id="path30"
       style="clip-rule:evenodd;fill:#000000;fill-opacity:1;fill-rule:evenodd;stroke:none;stroke-width:1.67478085" />
    <path
       inkscape:connector-curvature="0"
       d="m 33.519537,269.19259 -0.05698,-1.67433 c -0.0082,-0.10567 0.06363,-0.21581 0.162469,-0.21581 l 0.135686,-0.0122 c 0.09719,0 0.177597,0.0986 0.177597,0.2025 l 0.06206,1.68101 c 0,0.10567 -0.07205,0.19241 -0.167526,0.20064 h -0.137336 c -0.09719,0.008 -0.175892,-0.0785 -0.175892,-0.18417"
       id="path32"
       style="clip-rule:evenodd;fill:#000000;fill-opacity:1;fill-rule:evenodd;stroke:none;stroke-width:1.67478085" />
    <path
       inkscape:connector-curvature="0"
       d="m 26.709825,263.70573 h 2.204568 c 0.137389,0 0.273076,0.0903 0.273076,0.20946 v 0.16272 c 0,0.11198 -0.135686,0.20124 -0.273076,0.20124 h -2.204568 c -0.137387,0 -0.247939,-0.0886 -0.247939,-0.20124 v -0.16272 c 0,-0.12024 0.110555,-0.20946 0.247939,-0.20946"
       id="path34"
       style="clip-rule:evenodd;fill:#000000;fill-opacity:1;fill-rule:evenodd;stroke:none;stroke-width:1.67478085" />
    <path
       inkscape:connector-curvature="0"
       d="m 19.106059,263.70573 h 1.648402 c 0.112259,0 0.201026,0.0903 0.201026,0.20946 v 0.16272 c 0,0.11198 -0.08876,0.20124 -0.201026,0.20124 h -1.648402 c -0.120618,0 -0.185956,-0.0886 -0.185956,-0.20124 v -0.16272 c 0,-0.12024 0.06536,-0.20946 0.185956,-0.20946"
       id="path36"
       style="clip-rule:evenodd;fill:#000000;fill-opacity:1;fill-rule:evenodd;stroke:none;stroke-width:1.67478085" />
    <path
       inkscape:connector-curvature="0"
       d="m 22.590487,263.70573 h 2.196198 c 0.137392,0 0.274725,0.0903 0.274725,0.20946 v 0.16272 c 0,0.11198 -0.137391,0.20124 -0.274725,0.20124 h -2.196198 c -0.145749,0 -0.258007,-0.0886 -0.258007,-0.20124 v -0.16272 c 0,-0.12024 0.112258,-0.20946 0.258007,-0.20946"
       id="path38"
       style="clip-rule:evenodd;fill:#000000;fill-opacity:1;fill-rule:evenodd;stroke:none;stroke-width:1.67478085" />
    <path
       inkscape:connector-curvature="0"
       d="m 20.915282,263.47296 h 1.489256 c 0.185955,0 0.274723,0.12026 0.274723,0.29807 v 0.37022 c 0,0.18604 -0.08875,0.29803 -0.274723,0.29803 h -1.489256 c -0.184245,0 -0.281433,-0.11074 -0.281433,-0.29803 v -0.37022 c 0,-0.17781 0.09718,-0.29807 0.281433,-0.29807 m -0.09549,-0.54611 h 1.673527 c 0.412116,0 0.733742,0.29806 0.733742,0.69148 v 0.68314 c 0,0.38538 -0.31993,0.68314 -0.733742,0.68314 h -1.673532 c -0.410407,0 -0.732066,-0.29808 -0.732066,-0.68314 v -0.68314 c 0,-0.39362 0.321638,-0.69148 0.732066,-0.69148 z"
       id="path40"
       style="clip-rule:evenodd;fill:#000000;fill-opacity:1;fill-rule:evenodd;stroke:none;stroke-width:1.67478085" />
    <path
       inkscape:connector-curvature="0"
       d="m 29.140546,263.47296 h 1.489263 c 0.182598,0 0.281435,0.12026 0.281435,0.29807 v 0.37022 c 0,0.18604 -0.09884,0.29803 -0.281435,0.29803 h -1.489263 c -0.185955,0 -0.274722,-0.11074 -0.274722,-0.29803 v -0.37022 c 0,-0.17781 0.08876,-0.29807 0.274722,-0.29807 m -0.08713,-0.54611 h 1.671857 c 0.412116,0 0.733745,0.29806 0.733745,0.69148 v 0.68314 c 0,0.38538 -0.319997,0.68314 -0.733745,0.68314 h -1.671857 c -0.412115,0 -0.733743,-0.29808 -0.733743,-0.68314 v -0.68314 c 0,-0.39362 0.319995,-0.69148 0.733743,-0.69148 z"
       id="path42"
       style="clip-rule:evenodd;fill:#000000;fill-opacity:1;fill-rule:evenodd;stroke:none;stroke-width:1.67478085" />
    <path
       inkscape:connector-curvature="0"
       d="m 33.259878,264.41564 v -1.21553 c 0,-0.14553 0.08876,-0.21772 0.242877,-0.21772 h 0.298213 c 0.144044,0 0.242875,0.0722 0.242875,0.21772 v 1.21553 c 0,0.14428 -0.09884,0.21578 -0.242875,0.21578 h -0.298213 c -0.154109,-0.002 -0.242877,-0.0733 -0.242877,-0.21578 m -0.450611,0.0722 v -1.36129 c 0,-0.33665 0.24294,-0.59422 0.556159,-0.59422 h 0.562869 c 0.314927,0 0.556158,0.25757 0.556158,0.59422 v 1.36129 c 0,0.3297 -0.242941,0.59423 -0.556158,0.59423 h -0.562869 c -0.314929,0 -0.556159,-0.26453 -0.556159,-0.59423 z"
       id="path44"
       style="clip-rule:evenodd;fill:#000000;fill-opacity:1;fill-rule:evenodd;stroke:none;stroke-width:1.67478085" />
    <path
       inkscape:connector-curvature="0"
       d="m 36.141237,281.75528 0.433897,-1.12688 c 0.05889,-0.13725 0.170882,-0.17593 0.308218,-0.12023 l 0.273078,0.10567 c 0.145748,0.0568 0.201024,0.16254 0.152459,0.29805 l -0.433899,1.12682 c -0.05698,0.14554 -0.169177,0.17781 -0.30657,0.12094 l -0.281436,-0.10568 c -0.13739,-0.0505 -0.202736,-0.15251 -0.14575,-0.29806 m -0.443963,-0.0886 0.484105,-1.2642 c 0.120619,-0.31325 0.442255,-0.474 0.738765,-0.35313 l 0.515954,0.19241 c 0.29821,0.11197 0.433896,0.44361 0.314928,0.75514 l -0.492528,1.27253 c -0.118913,0.31453 -0.433895,0.46513 -0.732065,0.35314 l -0.522664,-0.19934 c -0.289793,-0.11392 -0.425477,-0.44234 -0.306571,-0.7568 z"
       id="path46"
       style="clip-rule:evenodd;fill:#000000;fill-opacity:1;fill-rule:evenodd;stroke:none;stroke-width:1.67478085" />
    <path
       inkscape:connector-curvature="0"
       d="m 35.762639,279.55347 -0.452321,-1.11844 c -0.05509,-0.13726 0,-0.243 0.137389,-0.29807 l 0.281437,-0.11393 c 0.137388,-0.0568 0.249585,-0.0252 0.308215,0.12023 l 0.450614,1.11847 c 0.05509,0.13729 0,0.24303 -0.137393,0.29808 l -0.281432,0.11198 c -0.137389,0.057 -0.249586,0.019 -0.306572,-0.11903 m -0.38527,0.23924 -0.507597,-1.26414 c -0.128975,-0.30504 0,-0.64295 0.289791,-0.75515 l 0.522666,-0.20946 c 0.291501,-0.12026 0.611433,0.0316 0.740444,0.33791 l 0.509243,1.2625 c 0.127326,0.30628 0,0.64294 -0.298214,0.75677 l -0.517664,0.20949 c -0.286436,0.12025 -0.611431,-0.0316 -0.738764,-0.33792 z"
       id="path48"
       style="clip-rule:evenodd;fill:#000000;fill-opacity:1;fill-rule:evenodd;stroke:none;stroke-width:1.67478085" />
    <path
       inkscape:connector-curvature="0"
       d="m 34.643601,276.46264 -0.314931,-1.16535 c -0.03862,-0.14553 0.03357,-0.24113 0.175891,-0.28162 l 0.291504,-0.0733 c 0.137387,-0.0379 0.247938,0.0122 0.289792,0.15377 l 0.313281,1.167 c 0.03357,0.14429 -0.03166,0.24112 -0.17589,0.28096 l -0.288147,0.0722 c -0.147399,0.0379 -0.249586,-0.008 -0.2915,-0.15375 m -0.408762,0.18604 -0.355134,-1.31103 c -0.08875,-0.32148 0.08043,-0.63625 0.385273,-0.71661 l 0.537734,-0.14428 c 0.308214,-0.0823 0.604718,0.10567 0.693538,0.43348 l 0.353487,1.31102 c 0.08043,0.3215 -0.08212,0.63626 -0.385272,0.71497 l -0.539443,0.14553 c -0.303214,0.0804 -0.611429,-0.10568 -0.69019,-0.43348 z"
       id="path50"
       style="clip-rule:evenodd;fill:#000000;fill-opacity:1;fill-rule:evenodd;stroke:none;stroke-width:1.67478085" />
    <path
       inkscape:connector-curvature="0"
       d="m 33.88808,273.39182 -0.128975,-1.20045 c -0.0153,-0.15256 0.07369,-0.2329 0.217805,-0.24808 l 0.298211,-0.0316 c 0.144046,-0.0191 0.247943,0.0507 0.264657,0.20125 l 0.128976,1.19881 c 0.0082,0.1443 -0.07368,0.23416 -0.217802,0.24934 l -0.298215,0.0316 c -0.152459,0.0188 -0.24794,-0.0442 -0.264657,-0.19933 m -0.433895,0.11902 -0.144046,-1.35287 c -0.03357,-0.32843 0.175887,-0.60938 0.490816,-0.64293 l 0.554514,-0.0642 c 0.314927,-0.0316 0.588003,0.20061 0.619854,0.53916 l 0.144043,1.3428 c 0.03357,0.33792 -0.175888,0.61953 -0.497527,0.65301 l -0.556159,0.057 c -0.314928,0.0379 -0.579649,-0.19239 -0.611431,-0.53093 z"
       id="path52"
       style="clip-rule:evenodd;fill:#000000;fill-opacity:1;fill-rule:evenodd;stroke:none;stroke-width:1.67478085" />
    <path
       inkscape:connector-curvature="0"
       d="m 34.467705,255.07612 -0.346776,1.63914 c -0.02344,0.10566 0.02534,0.2177 0.120617,0.243 l 0.137391,0.0254 c 0.08876,0.0253 0.184246,-0.0632 0.20938,-0.16904 l 0.346775,-1.64084 c 0.02345,-0.10374 -0.03357,-0.20062 -0.130679,-0.22466 l -0.127327,-0.0253 c -0.09884,-0.0254 -0.184246,0.0505 -0.209382,0.15253"
       id="path54"
       style="clip-rule:evenodd;fill:#000000;fill-opacity:1;fill-rule:evenodd;stroke:none;stroke-width:1.67478085" />
    <path
       inkscape:connector-curvature="0"
       d="m 33.775845,258.1988 -0.169177,1.66427 c -0.01651,0.10567 0.04686,0.21579 0.144046,0.23288 l 0.137389,0.008 c 0.09719,0.019 0.184246,-0.0804 0.192666,-0.18415 l 0.175891,-1.6727 c 0.0082,-0.10567 -0.05508,-0.2006 -0.154108,-0.20945 l -0.135688,-0.019 c -0.09383,-0.0122 -0.174236,0.0722 -0.190958,0.17783"
       id="path56"
       style="clip-rule:evenodd;fill:#000000;fill-opacity:1;fill-rule:evenodd;stroke:none;stroke-width:1.67478085" />
    <path
       inkscape:connector-curvature="0"
       d="m 33.486031,261.21265 -0.02534,1.68101 c 0,0.10569 0.07205,0.20949 0.169178,0.20949 l 0.137389,0.008 c 0.09719,0 0.170881,-0.10566 0.175888,-0.20946 l 0.02534,-1.68104 c 0,-0.10567 -0.07371,-0.19238 -0.169178,-0.19238 h -0.135685 c -0.09719,-0.008 -0.169177,0.0804 -0.177599,0.18416"
       id="path58"
       style="clip-rule:evenodd;fill:#000000;fill-opacity:1;fill-rule:evenodd;stroke:none;stroke-width:1.67478085" />
    <path
       inkscape:connector-curvature="0"
       d="m 35.030575,251.52981 0.531023,1.08496 c 0.06363,0.1292 0.184243,0.15256 0.314928,0.0886 l 0.264655,-0.12901 c 0.137391,-0.0651 0.184248,-0.16903 0.120619,-0.30629 l -0.531022,-1.08498 c -0.06363,-0.13726 -0.17589,-0.16077 -0.314929,-0.0968 l -0.264654,0.12902 c -0.13739,0.0733 -0.184248,0.1772 -0.120618,0.31452 m -0.435544,0.12901 0.594717,1.21396 c 0.145749,0.30628 0.484106,0.43349 0.765573,0.28984 l 0.499237,-0.24111 c 0.289792,-0.13727 0.385272,-0.48223 0.241228,-0.78027 L 36.101073,250.919 c -0.144046,-0.29806 -0.474102,-0.42714 -0.763895,-0.28982 l -0.499238,0.24807 c -0.281436,0.13725 -0.38698,0.47525 -0.242875,0.78191 z"
       id="path60"
       style="clip-rule:evenodd;fill:#000000;fill-opacity:1;fill-rule:evenodd;stroke:none;stroke-width:1.67478085" />
    <path
       inkscape:connector-curvature="0"
       d="m 34.710607,253.69307 -0.355133,1.1503 c -0.04686,0.1455 0.02534,0.24299 0.162521,0.28983 l 0.288148,0.0804 c 0.137388,0.0505 0.249585,0 0.291499,-0.13727 l 0.353487,-1.15865 c 0.04877,-0.14429 -0.02343,-0.24112 -0.160817,-0.28097 l -0.291502,-0.0886 c -0.137388,-0.0505 -0.249586,0 -0.288144,0.14551 m -0.413765,-0.20947 -0.391983,1.3026 c -0.09884,0.32149 0.05509,0.63461 0.361846,0.7334 l 0.531022,0.16079 c 0.298214,0.0955 0.611431,-0.0886 0.706944,-0.40183 l 0.395338,-1.30264 c 0.09549,-0.31449 -0.05699,-0.63456 -0.363492,-0.73337 L 35.0072,253.08232 c -0.296502,-0.0886 -0.611433,0.0886 -0.710299,0.40183 z"
       id="path62"
       style="clip-rule:evenodd;fill:#000000;fill-opacity:1;fill-rule:evenodd;stroke:none;stroke-width:1.67478085" />
    <path
       inkscape:connector-curvature="0"
       d="m 33.856253,256.87099 -0.209384,1.19048 c -0.02344,0.14429 0.04874,0.23289 0.201027,0.25628 l 0.289793,0.0569 c 0.145748,0.0253 0.249587,-0.0316 0.274724,-0.17591 l 0.216094,-1.19221 c 0.02533,-0.14428 -0.05508,-0.2411 -0.201026,-0.26452 l -0.298213,-0.0442 c -0.144044,-0.0253 -0.249589,0.0316 -0.273078,0.17595 m -0.425476,-0.15378 -0.234518,1.33614 c -0.06363,0.32846 0.128979,0.6265 0.443963,0.68315 l 0.546094,0.0968 c 0.314928,0.0568 0.594715,-0.16078 0.661703,-0.49045 l 0.232872,-1.33616 c 0.05509,-0.32843 -0.137392,-0.6265 -0.452321,-0.68141 l -0.546091,-0.0986 c -0.314927,-0.0568 -0.596364,0.1608 -0.651657,0.49045 z"
       id="path64"
       style="clip-rule:evenodd;fill:#000000;fill-opacity:1;fill-rule:evenodd;stroke:none;stroke-width:1.67478085" />
    <path
       inkscape:connector-curvature="0"
       d="m 33.373796,260.00709 -0.02534,1.20719 c 0,0.15378 0.08874,0.22593 0.242875,0.23289 h 0.289793 c 0.152459,0.0122 0.24794,-0.0632 0.24794,-0.2158 l 0.02532,-1.20726 c 0,-0.15376 -0.08876,-0.22589 -0.242876,-0.22589 l -0.298214,-0.008 c -0.144045,0 -0.239581,0.0733 -0.239581,0.2177 m -0.450614,-0.0804 -0.02534,1.35959 c 0,0.3297 0.234519,0.59421 0.546092,0.60244 l 0.564579,0.008 c 0.314927,0.008 0.562866,-0.24807 0.562866,-0.58787 l 0.02345,-1.35289 c 0.01019,-0.33664 -0.224451,-0.60117 -0.546094,-0.6113 l -0.554509,-0.008 c -0.314929,-0.008 -0.564517,0.24933 -0.571227,0.5879 z"
       id="path66"
       style="clip-rule:evenodd;fill:#000000;fill-opacity:1;fill-rule:evenodd;stroke:none;stroke-width:1.67478085" />
    <path
       inkscape:connector-curvature="0"
       d="m 33.454204,270.49354 -0.08041,-1.20716 c -0.0082,-0.14428 0.07205,-0.22466 0.226161,-0.23288 l 0.296501,-0.0254 c 0.147401,-0.008 0.242877,0.0568 0.258011,0.20945 l 0.08212,1.20727 c 0.0071,0.1455 -0.07371,0.2259 -0.226162,0.23413 l -0.29821,0.0253 c -0.14575,0.0122 -0.242878,-0.0569 -0.25801,-0.20947 m -0.435544,0.10568 -0.09548,-1.35123 c -0.02534,-0.32969 0.199313,-0.61132 0.514307,-0.63458 l 0.556156,-0.0316 c 0.314929,-0.0254 0.579649,0.21582 0.594717,0.55437 l 0.0972,1.35283 c 0.02532,0.32845 -0.201025,0.61132 -0.515955,0.63463 l -0.556157,0.0316 c -0.311573,0.0253 -0.569581,-0.2177 -0.594717,-0.55562 z"
       id="path68"
       style="clip-rule:evenodd;fill:#000000;fill-opacity:1;fill-rule:evenodd;stroke:none;stroke-width:1.67478085" />
    <path
       inkscape:connector-curvature="0"
       d="m 33.251502,267.42947 -0.01702,-1.21391 c -0.0082,-0.14551 0.09047,-0.22589 0.234517,-0.22589 l 0.298215,-0.008 c 0.154109,0 0.242876,0.0733 0.247941,0.22591 l 0.01702,1.20554 c 0.01019,0.14552 -0.08876,0.22593 -0.232873,0.22593 l -0.298215,0.008 c -0.152458,0 -0.241227,-0.0722 -0.249586,-0.21769 m -0.442254,0.0823 -0.02345,-1.36126 c -0.0082,-0.33666 0.232871,-0.59421 0.546091,-0.6012 l 0.556158,-0.0123 c 0.31993,-0.008 0.562871,0.24935 0.571227,0.57904 l 0.02532,1.36126 c 0.0082,0.33668 -0.232873,0.60248 -0.546093,0.60248 l -0.556156,0.0123 c -0.323286,0 -0.562869,-0.25756 -0.572937,-0.58601 z"
       id="path70"
       style="clip-rule:evenodd;fill:#000000;fill-opacity:1;fill-rule:evenodd;stroke:none;stroke-width:1.67478085" />
    <path
       inkscape:connector-curvature="0"
       d="m 24.996085,263.47296 h 1.489256 c 0.185956,0 0.274725,0.12026 0.274725,0.29807 v 0.37022 c 0,0.18604 -0.08876,0.29803 -0.274725,0.29803 h -1.489256 c -0.182599,0 -0.281432,-0.11074 -0.281432,-0.29803 v -0.37022 c 0,-0.17781 0.09718,-0.29807 0.281432,-0.29807 m -0.0955,-0.54611 h 1.671858 c 0.412116,0 0.733737,0.29806 0.733737,0.69148 v 0.68314 c 0,0.38538 -0.319993,0.68314 -0.733737,0.68314 h -1.671858 c -0.412114,0 -0.733742,-0.29808 -0.733742,-0.68314 v -0.68314 c 0.0016,-0.39362 0.321641,-0.69148 0.733742,-0.69148 z"
       id="path72"
       style="clip-rule:evenodd;fill:#000000;fill-opacity:1;fill-rule:evenodd;stroke:none;stroke-width:1.67478085" />
    <path
       inkscape:connector-curvature="0"
       d="m 31.15917,257.47212 h 2.199549 c 0.135687,0 0.281434,0.0986 0.281434,0.20946 v 0.16273 c 0,0.11197 -0.145749,0.20123 -0.281434,0.20123 H 31.15917 c -0.137388,0 -0.247938,-0.0886 -0.247938,-0.20123 v -0.16273 c 0,-0.11075 0.110553,-0.20946 0.247938,-0.20946"
       id="path74"
       style="clip-rule:evenodd;fill:#000000;fill-opacity:1;fill-rule:evenodd;stroke:none;stroke-width:1.67478085" />
    <path
       inkscape:connector-curvature="0"
       d="m 27.217409,257.47212 h 2.197874 c 0.145751,0 0.281434,0.0986 0.281434,0.20946 v 0.16273 c 0,0.11197 -0.135685,0.20123 -0.281434,0.20123 h -2.197874 c -0.137392,0 -0.247943,-0.0886 -0.247943,-0.20123 v -0.16273 c -0.0016,-0.11075 0.110553,-0.20946 0.247943,-0.20946"
       id="path76"
       style="clip-rule:evenodd;fill:#000000;fill-opacity:1;fill-rule:evenodd;stroke:none;stroke-width:1.67478085" />
    <path
       inkscape:connector-curvature="0"
       d="m 19.603594,257.47212 h 1.650081 c 0.118965,0 0.209382,0.0986 0.209382,0.20946 v 0.16273 c 0,0.11197 -0.09048,0.20123 -0.209382,0.20123 h -1.650081 c -0.112258,0 -0.184247,-0.0886 -0.184247,-0.20123 v -0.16273 c 0,-0.11075 0.07371,-0.20946 0.184247,-0.20946"
       id="path78"
       style="clip-rule:evenodd;fill:#000000;fill-opacity:1;fill-rule:evenodd;stroke:none;stroke-width:1.67478085" />
    <path
       inkscape:connector-curvature="0"
       d="m 23.088022,257.47212 h 2.204575 c 0.137388,0 0.274723,0.0986 0.274723,0.20946 v 0.16273 c 0,0.11197 -0.137391,0.20123 -0.274723,0.20123 h -2.204575 c -0.135685,0 -0.247941,-0.0886 -0.247941,-0.20123 v -0.16273 c 0,-0.11075 0.112258,-0.20946 0.247941,-0.20946"
       id="path80"
       style="clip-rule:evenodd;fill:#000000;fill-opacity:1;fill-rule:evenodd;stroke:none;stroke-width:1.67478085" />
    <path
       inkscape:connector-curvature="0"
       d="m 21.416164,257.24772 h 1.489263 c 0.1826,0 0.281436,0.112 0.281436,0.29806 v 0.36198 c 0,0.18606 -0.09885,0.29806 -0.281436,0.29806 h -1.489263 c -0.185954,0 -0.274721,-0.11076 -0.274721,-0.29806 v -0.36198 c 0,-0.18414 0.08875,-0.29806 0.274721,-0.29806 m -0.08874,-0.55437 h 1.671862 c 0.412115,0 0.733738,0.29808 0.733738,0.68984 v 0.68316 c 0,0.39487 -0.319932,0.69319 -0.733738,0.69319 h -1.671862 c -0.41212,0 -0.733739,-0.29806 -0.733739,-0.69319 v -0.68316 c 0.0016,-0.39171 0.321639,-0.68984 0.733739,-0.68984 z"
       id="path82"
       style="clip-rule:evenodd;fill:#000000;fill-opacity:1;fill-rule:evenodd;stroke:none;stroke-width:1.67478085" />
    <path
       inkscape:connector-curvature="0"
       d="m 29.648136,257.24772 h 1.489255 c 0.1826,0 0.271369,0.112 0.271369,0.29806 v 0.36198 c 0,0.18606 -0.08877,0.29806 -0.271369,0.29806 h -1.489255 c -0.185956,0 -0.274721,-0.11076 -0.274721,-0.29806 v -0.36198 c 0,-0.18414 0.08876,-0.29806 0.274721,-0.29806 m -0.08876,-0.55437 h 1.665158 c 0.418828,0 0.738765,0.29808 0.738765,0.68984 v 0.68316 c 0,0.39487 -0.319994,0.69319 -0.738765,0.69319 h -1.665157 c -0.418827,0 -0.740443,-0.29806 -0.740443,-0.69319 v -0.68316 c 0,-0.39171 0.32164,-0.68984 0.740442,-0.68984 z"
       id="path84"
       style="clip-rule:evenodd;fill:#000000;fill-opacity:1;fill-rule:evenodd;stroke:none;stroke-width:1.67478085" />
    <path
       inkscape:connector-curvature="0"
       d="m 25.49697,257.24772 h 1.489264 c 0.182598,0 0.281434,0.112 0.281434,0.29806 v 0.36198 c 0,0.18606 -0.09884,0.29806 -0.281434,0.29806 H 25.49697 c -0.1776,0 -0.274723,-0.11076 -0.274723,-0.29806 v -0.36198 c -0.0016,-0.18414 0.09549,-0.29806 0.274723,-0.29806 m -0.08876,-0.55437 h 1.671854 c 0.412119,0 0.733746,0.29808 0.733746,0.68984 v 0.68316 c 0,0.39487 -0.319931,0.69319 -0.733746,0.69319 H 25.40821 c -0.412117,0 -0.733737,-0.29806 -0.733737,-0.69319 v -0.68316 c 0,-0.39171 0.32164,-0.68984 0.733737,-0.68984 z"
       id="path86"
       style="clip-rule:evenodd;fill:#000000;fill-opacity:1;fill-rule:evenodd;stroke:none;stroke-width:1.67478085" />
    <path
       inkscape:connector-curvature="0"
       d="m 25.245694,269.34497 h 1.489254 c 0.184247,0 0.273077,0.11198 0.273077,0.29806 v 0.36196 c 0,0.18607 -0.08876,0.2981 -0.273077,0.2981 h -1.489254 c -0.184249,0 -0.273078,-0.11077 -0.273078,-0.2981 v -0.36196 c 0,-0.18604 0.08876,-0.29806 0.273078,-0.29806 m -0.09049,-0.55436 h 1.675205 c 0.408759,0 0.733743,0.29806 0.733743,0.68984 v 0.68316 c 0,0.39486 -0.32335,0.69317 -0.733743,0.69317 h -1.6752 c -0.417121,0 -0.738764,-0.29804 -0.738764,-0.69317 v -0.68316 c 0,-0.39172 0.321639,-0.68984 0.738764,-0.68984 z"
       id="path88"
       style="clip-rule:evenodd;fill:#000000;fill-opacity:1;fill-rule:evenodd;stroke:none;stroke-width:1.67478085" />
    <path
       inkscape:connector-curvature="0"
       d="m 26.210612,275.4329 h 1.489255 c 0.184246,0 0.273077,0.12095 0.273077,0.29805 v 0.37147 c 0,0.18414 -0.08876,0.29805 -0.273077,0.29805 h -1.489255 c -0.184245,0 -0.281436,-0.11197 -0.281436,-0.29805 v -0.37147 c 0,-0.17718 0.09719,-0.29805 0.281436,-0.29805 m -0.0955,-0.54741 h 1.675205 c 0.408761,0 0.732067,0.29807 0.732067,0.69156 v 0.68479 c 0,0.38475 -0.321641,0.68313 -0.732067,0.68313 h -1.675201 c -0.408761,0 -0.733744,-0.29807 -0.733744,-0.68313 v -0.68479 c 0,-0.39361 0.324996,-0.69156 0.733744,-0.69156 z"
       id="path90"
       style="clip-rule:evenodd;fill:#000000;fill-opacity:1;fill-rule:evenodd;stroke:none;stroke-width:1.67478085" />
    <path
       inkscape:connector-curvature="0"
       d="m 27.949473,280.06584 h 1.489262 c 0.1826,0 0.273076,0.11197 0.273076,0.29803 v 0.36326 c 0,0.18226 -0.09047,0.29805 -0.273076,0.29805 h -1.489262 c -0.185955,0 -0.274722,-0.11392 -0.274722,-0.29805 v -0.36326 c 0,-0.18414 0.08875,-0.29803 0.274722,-0.29803 m -0.08713,-0.55564 h 1.671854 c 0.41212,0 0.733743,0.30818 0.733743,0.6932 v 0.68312 c 0,0.39363 -0.319989,0.69151 -0.733743,0.69151 H 27.86234 c -0.418828,0 -0.733745,-0.29805 -0.733745,-0.69151 v -0.68312 c 0,-0.38478 0.314929,-0.6932 0.733745,-0.6932 z"
       id="path92"
       style="clip-rule:evenodd;fill:#000000;fill-opacity:1;fill-rule:evenodd;stroke:none;stroke-width:1.67478085" />
    <path
       inkscape:connector-curvature="0"
       d="m 29.39853,269.34497 h 1.489255 c 0.184247,0 0.273077,0.11198 0.273077,0.29806 v 0.36196 c 0,0.18607 -0.08875,0.2981 -0.273077,0.2981 H 29.39853 c -0.184245,0 -0.281434,-0.11077 -0.281434,-0.2981 v -0.36196 c 0,-0.18604 0.09549,-0.29806 0.281434,-0.29806 m -0.09719,-0.55436 h 1.673533 c 0.410409,0 0.733738,0.29806 0.733738,0.68984 v 0.68316 c 0,0.39486 -0.32164,0.69317 -0.733738,0.69317 H 29.30134 c -0.410407,0 -0.733737,-0.29804 -0.733737,-0.69317 v -0.68316 c 0.0016,-0.39172 0.323287,-0.68984 0.733737,-0.68984 z"
       id="path94"
       style="clip-rule:evenodd;fill:#000000;fill-opacity:1;fill-rule:evenodd;stroke:none;stroke-width:1.67478085" />
    <path
       inkscape:connector-curvature="0"
       d="m 30.355071,275.4329 h 1.489263 c 0.185957,0 0.281435,0.12095 0.281435,0.29805 v 0.37147 c 0,0.18414 -0.09549,0.29805 -0.281435,0.29805 h -1.489263 c -0.182596,0 -0.273075,-0.11197 -0.273075,-0.29805 v -0.37147 c 0,-0.17718 0.09048,-0.29805 0.273075,-0.29805 m -0.08875,-0.54741 h 1.675205 c 0.408761,0 0.732065,0.29807 0.732065,0.69156 v 0.68479 c 0,0.38475 -0.321639,0.68313 -0.732065,0.68313 h -1.675205 c -0.408763,0 -0.733738,-0.29807 -0.733738,-0.68313 v -0.68479 c 0.0016,-0.39361 0.324994,-0.69156 0.733738,-0.69156 z"
       id="path96"
       style="clip-rule:evenodd;fill:#000000;fill-opacity:1;fill-rule:evenodd;stroke:none;stroke-width:1.67478085" />
    <path
       inkscape:connector-curvature="0"
       d="m 32.102311,280.06584 h 1.489263 c 0.184243,0 0.273076,0.11197 0.273076,0.29803 v 0.36326 c 0,0.18226 -0.08875,0.29805 -0.273076,0.29805 h -1.489263 c -0.185955,0 -0.274723,-0.11392 -0.274723,-0.29805 v -0.36326 c 0,-0.18414 0.08876,-0.29803 0.274723,-0.29803 m -0.09718,-0.55564 h 1.67353 c 0.41883,0 0.73374,0.30818 0.73374,0.6932 v 0.68312 c 0,0.39363 -0.31493,0.69151 -0.73374,0.69151 h -1.673523 c -0.41041,0 -0.733745,-0.29805 -0.733745,-0.69151 v -0.68312 c 0.0016,-0.38478 0.323348,-0.6932 0.733738,-0.6932 z"
       id="path98"
       style="clip-rule:evenodd;fill:#000000;fill-opacity:1;fill-rule:evenodd;stroke:none;stroke-width:1.67478085" />
    <path
       inkscape:connector-curvature="0"
       d="m 21.166563,269.34497 h 1.489259 c 0.184247,0 0.273076,0.11198 0.273076,0.29806 v 0.36196 c 0,0.18607 -0.08875,0.2981 -0.273076,0.2981 h -1.489259 c -0.18425,0 -0.27308,-0.11077 -0.27308,-0.2981 v -0.36196 c -0.0016,-0.18604 0.08713,-0.29806 0.27308,-0.29806 m -0.09049,-0.55436 H 22.7429 c 0.418829,0 0.740445,0.29806 0.740445,0.68984 v 0.68316 c 0,0.39486 -0.321642,0.69317 -0.740445,0.69317 h -1.666827 c -0.417121,0 -0.738765,-0.29804 -0.738765,-0.69317 v -0.68316 c -0.0016,-0.39172 0.32164,-0.68984 0.738765,-0.68984 z"
       id="path100"
       style="clip-rule:evenodd;fill:#000000;fill-opacity:1;fill-rule:evenodd;stroke:none;stroke-width:1.67478085" />
    <path
       inkscape:connector-curvature="0"
       d="m 22.131479,275.4329 h 1.489261 c 0.184247,0 0.273078,0.12095 0.273078,0.29805 v 0.37147 c 0,0.18414 -0.08875,0.29805 -0.273078,0.29805 h -1.489261 c -0.184247,0 -0.281434,-0.11197 -0.281434,-0.29805 v -0.37147 c 0,-0.17718 0.09549,-0.29805 0.281434,-0.29805 m -0.09711,-0.54741 h 1.675202 c 0.408762,0 0.732068,0.29807 0.732068,0.69156 v 0.68479 c 0,0.38475 -0.32164,0.68313 -0.732068,0.68313 h -1.675202 c -0.408762,0 -0.733745,-0.29807 -0.733745,-0.68313 v -0.68479 c 0.0016,-0.39361 0.324996,-0.69156 0.733745,-0.69156 z"
       id="path102"
       style="clip-rule:evenodd;fill:#000000;fill-opacity:1;fill-rule:evenodd;stroke:none;stroke-width:1.67478085" />
    <path
       inkscape:connector-curvature="0"
       d="m 23.870346,280.06584 h 1.489257 c 0.184246,0 0.273077,0.11197 0.273077,0.29803 v 0.36326 c 0,0.18226 -0.08876,0.29805 -0.273077,0.29805 h -1.489257 c -0.185955,0 -0.274724,-0.11392 -0.274724,-0.29805 v -0.36326 c 0,-0.18414 0.08876,-0.29803 0.274724,-0.29803 m -0.08876,-0.55564 h 1.671857 c 0.412117,0 0.733741,0.30818 0.733741,0.6932 v 0.68312 c 0,0.39363 -0.319994,0.69151 -0.733741,0.69151 h -1.671857 c -0.41883,0 -0.733743,-0.29805 -0.733743,-0.69151 v -0.68312 c 0.0016,-0.38478 0.314929,-0.6932 0.733743,-0.6932 z"
       id="path104"
       style="clip-rule:evenodd;fill:#000000;fill-opacity:1;fill-rule:evenodd;stroke:none;stroke-width:1.67478085" />
    <path
       inkscape:connector-curvature="0"
       d="m 22.840094,269.57101 h 2.197871 c 0.135684,0 0.28143,0.0968 0.28143,0.20946 v 0.16078 c 0,0.11202 -0.145748,0.20129 -0.28143,0.20129 h -2.197871 c -0.137389,0 -0.247942,-0.0886 -0.247942,-0.20129 v -0.16078 c -0.0016,-0.11392 0.110554,-0.20946 0.247942,-0.20946"
       id="path106"
       style="clip-rule:evenodd;fill:#000000;fill-opacity:1;fill-rule:evenodd;stroke:none;stroke-width:1.67478085" />
    <path
       inkscape:connector-curvature="0"
       d="m 23.805013,275.6673 h 2.199547 c 0.135684,0 0.271367,0.0886 0.271367,0.20755 v 0.15255 c 0,0.12076 -0.135687,0.20947 -0.271367,0.20947 h -2.199547 c -0.144046,0 -0.256299,-0.0886 -0.256299,-0.20947 v -0.15255 c -0.0016,-0.119 0.112257,-0.20755 0.256299,-0.20755"
       id="path108"
       style="clip-rule:evenodd;fill:#000000;fill-opacity:1;fill-rule:evenodd;stroke:none;stroke-width:1.67478085" />
    <path
       inkscape:connector-curvature="0"
       d="m 25.54388,280.29186 h 2.197869 c 0.144048,0 0.281435,0.0974 0.281435,0.20947 v 0.16079 c 0,0.112 -0.137389,0.20949 -0.281435,0.20949 H 25.54388 c -0.135685,0 -0.249587,-0.0974 -0.249587,-0.20949 v -0.16079 c -0.0016,-0.11199 0.113909,-0.20947 0.249587,-0.20947"
       id="path110"
       style="clip-rule:evenodd;fill:#000000;fill-opacity:1;fill-rule:evenodd;stroke:none;stroke-width:1.67478085" />
    <path
       inkscape:connector-curvature="0"
       d="m 19.355667,269.57101 h 1.650073 c 0.113908,0 0.209383,0.0968 0.209383,0.20946 v 0.16078 c 0,0.11202 -0.0955,0.20129 -0.209383,0.20129 h -1.650073 c -0.112258,0 -0.184249,-0.0886 -0.184249,-0.20129 v -0.16078 c -0.0016,-0.11392 0.07206,-0.20946 0.184249,-0.20946"
       id="path112"
       style="clip-rule:evenodd;fill:#000000;fill-opacity:1;fill-rule:evenodd;stroke:none;stroke-width:1.67478085" />
    <path
       inkscape:connector-curvature="0"
       d="m 20.320586,275.6673 h 1.648402 c 0.113909,0 0.20267,0.0886 0.20267,0.20755 v 0.15255 c 0,0.12076 -0.08876,0.20947 -0.20267,0.20947 h -1.648402 c -0.12062,0 -0.184247,-0.0886 -0.184247,-0.20947 v -0.15255 c 0,-0.119 0.06363,-0.20755 0.184247,-0.20755"
       id="path114"
       style="clip-rule:evenodd;fill:#000000;fill-opacity:1;fill-rule:evenodd;stroke:none;stroke-width:1.67478085" />
    <path
       inkscape:connector-curvature="0"
       d="m 21.824921,280.29186 h 1.836025 c 0.127327,0 0.232872,0.0974 0.232872,0.20947 v 0.16079 c 0,0.112 -0.105548,0.20949 -0.232872,0.20949 h -1.836025 c -0.127327,0 -0.199379,-0.0974 -0.199379,-0.20949 v -0.16079 c 0,-0.11199 0.07206,-0.20947 0.199379,-0.20947"
       id="path116"
       style="clip-rule:evenodd;fill:#000000;fill-opacity:1;fill-rule:evenodd;stroke:none;stroke-width:1.67478085" />
    <path
       inkscape:connector-curvature="0"
       d="m 26.9678,269.57101 h 2.196199 c 0.137389,0 0.274724,0.0968 0.274724,0.20946 v 0.16078 c 0,0.11202 -0.137391,0.20129 -0.274724,0.20129 H 26.9678 c -0.137389,0 -0.258007,-0.0886 -0.258007,-0.20129 v -0.16078 c 0,-0.11392 0.120618,-0.20946 0.258007,-0.20946"
       id="path118"
       style="clip-rule:evenodd;fill:#000000;fill-opacity:1;fill-rule:evenodd;stroke:none;stroke-width:1.67478085" />
    <path
       inkscape:connector-curvature="0"
       d="m 27.926021,275.6673 h 2.202898 c 0.137387,0 0.274723,0.0886 0.274723,0.20755 v 0.15255 c 0,0.12076 -0.137392,0.20947 -0.274723,0.20947 h -2.202898 c -0.135687,0 -0.249586,-0.0886 -0.249586,-0.20947 v -0.15255 c -0.0016,-0.119 0.113907,-0.20755 0.249586,-0.20755"
       id="path120"
       style="clip-rule:evenodd;fill:#000000;fill-opacity:1;fill-rule:evenodd;stroke:none;stroke-width:1.67478085" />
    <path
       inkscape:connector-curvature="0"
       d="m 29.671588,280.29186 h 2.19787 c 0.13739,0 0.273077,0.0974 0.273077,0.20947 v 0.16079 c 0,0.112 -0.135687,0.20949 -0.273077,0.20949 h -2.19787 c -0.137391,0 -0.2563,-0.0974 -0.2563,-0.20949 v -0.16079 c -0.0016,-0.11199 0.118915,-0.20947 0.2563,-0.20947"
       id="path122"
       style="clip-rule:evenodd;fill:#000000;fill-opacity:1;fill-rule:evenodd;stroke:none;stroke-width:1.67478085" />
    <path
       inkscape:connector-curvature="0"
       d="m 30.911244,269.57101 h 2.196192 c 0.137388,0 0.274723,0.0968 0.274723,0.20946 v 0.16078 c 0,0.11202 -0.137392,0.20129 -0.274723,0.20129 h -2.196192 c -0.13739,0 -0.258007,-0.0886 -0.258007,-0.20129 v -0.16078 c 0,-0.11392 0.120617,-0.20946 0.258007,-0.20946"
       id="path124"
       style="clip-rule:evenodd;fill:#000000;fill-opacity:1;fill-rule:evenodd;stroke:none;stroke-width:1.67478085" />
    <path
       inkscape:connector-curvature="0"
       d="m 31.867786,275.6673 h 2.204567 c 0.135688,0 0.273078,0.0886 0.273078,0.20755 v 0.15255 c 0,0.12076 -0.137389,0.20947 -0.273078,0.20947 h -2.204567 c -0.135685,0 -0.249586,-0.0886 -0.249586,-0.20947 v -0.15255 c 0,-0.119 0.113908,-0.20755 0.249586,-0.20755"
       id="path126"
       style="clip-rule:evenodd;fill:#000000;fill-opacity:1;fill-rule:evenodd;stroke:none;stroke-width:1.67478085" />
    <path
       inkscape:connector-curvature="0"
       d="m 33.519537,280.38898 1.648404,-1.44661 c 0.105552,-0.0986 0.264659,-0.12026 0.33671,-0.0316 l 0.11391,0.12025 c 0.07206,0.0886 0.03167,0.24806 -0.07371,0.33664 l -1.650084,1.45501 c -0.103847,0.0886 -0.247939,0.0986 -0.32835,0.0123 l -0.105549,-0.12024 c -0.07206,-0.0823 -0.04687,-0.22591 0.05888,-0.32148"
       id="path128"
       style="clip-rule:evenodd;fill:#000000;fill-opacity:1;fill-rule:evenodd;stroke:none;stroke-width:1.67478085" />
    <path
       inkscape:connector-curvature="0"
       d="M 26.870644,253.5072 H 28.3599 c 0.185954,0 0.281435,-0.11197 0.281435,-0.29806 v -0.36133 c 0,-0.18416 -0.09549,-0.29615 -0.281435,-0.29615 h -1.489256 c -0.1826,0 -0.271367,0.11197 -0.271367,0.29615 v 0.36133 c 0,0.18605 0.08713,0.29806 0.271367,0.29806 m -0.08875,0.55564 h 1.675202 c 0.408765,0 0.73207,-0.29808 0.73207,-0.69149 v -0.68316 c 0,-0.39362 -0.321641,-0.69319 -0.73207,-0.69319 h -1.675203 c -0.408762,0 -0.733744,0.29807 -0.733744,0.69319 v 0.68316 c 0.0016,0.39359 0.324994,0.69149 0.733745,0.69149 z"
       id="path130"
       style="clip-rule:evenodd;fill:#000000;fill-opacity:1;fill-rule:evenodd;stroke:none;stroke-width:1.67478085" />
    <path
       inkscape:connector-curvature="0"
       d="m 31.021804,253.5072 h 1.489262 c 0.185956,0 0.274722,-0.11197 0.274722,-0.29806 v -0.36133 c 0,-0.18416 -0.08876,-0.29615 -0.274722,-0.29615 h -1.489262 c -0.1826,0 -0.271368,0.11197 -0.271368,0.29615 v 0.36133 c 0,0.18605 0.08877,0.29806 0.271368,0.29806 m -0.09382,0.55564 h 1.673533 c 0.417119,0 0.740442,-0.29808 0.740442,-0.69149 v -0.68316 c 0,-0.39362 -0.323285,-0.69319 -0.740442,-0.69319 h -1.673533 c -0.412114,0 -0.733737,0.29807 -0.733737,0.69319 v 0.68316 c 0,0.39359 0.32164,0.69149 0.733737,0.69149 z"
       id="path132"
       style="clip-rule:evenodd;fill:#000000;fill-opacity:1;fill-rule:evenodd;stroke:none;stroke-width:1.67478085" />
    <path
       inkscape:connector-curvature="0"
       d="m 22.78984,253.5072 h 1.489255 c 0.185957,0 0.281434,-0.11197 0.281434,-0.29806 v -0.36133 c 0,-0.18416 -0.09549,-0.29615 -0.281434,-0.29615 H 22.78984 c -0.182599,0 -0.271367,0.11197 -0.271367,0.29615 v 0.36133 c 0,0.18605 0.08875,0.29806 0.271367,0.29806 m -0.08713,0.55564 h 1.675214 c 0.408758,0 0.733736,-0.29808 0.733736,-0.69149 v -0.68316 c 0,-0.39362 -0.323349,-0.69319 -0.733736,-0.69319 H 22.70271 c -0.408759,0 -0.733738,0.29807 -0.733738,0.69319 v 0.68316 c 0,0.39359 0.32329,0.69149 0.733738,0.69149 z"
       id="path134"
       style="clip-rule:evenodd;fill:#000000;fill-opacity:1;fill-rule:evenodd;stroke:none;stroke-width:1.67478085" />
    <path
       inkscape:connector-curvature="0"
       d="m 24.465045,253.28287 h 2.204574 c 0.135687,0 0.271368,-0.0968 0.271368,-0.20946 v -0.16081 c 0,-0.11198 -0.135685,-0.20058 -0.271368,-0.20058 h -2.204574 c -0.13739,0 -0.249587,0.0867 -0.249587,0.20058 v 0.16081 c 0,0.11199 0.112257,0.20946 0.249587,0.20946"
       id="path136"
       style="clip-rule:evenodd;fill:#000000;fill-opacity:1;fill-rule:evenodd;stroke:none;stroke-width:1.67478085" />
    <path
       inkscape:connector-curvature="0"
       d="m 20.747764,253.28287 h 1.834345 c 0.130681,0 0.236228,-0.0968 0.236228,-0.20946 v -0.16081 c 0,-0.11198 -0.105549,-0.20058 -0.236228,-0.20058 h -1.834345 c -0.128977,0 -0.201025,0.0867 -0.201025,0.20058 v 0.16081 c -0.0016,0.11199 0.07206,0.20946 0.201025,0.20946"
       id="path138"
       style="clip-rule:evenodd;fill:#000000;fill-opacity:1;fill-rule:evenodd;stroke:none;stroke-width:1.67478085" />
    <path
       inkscape:connector-curvature="0"
       d="m 28.592753,253.28287 h 2.197875 c 0.137391,0 0.281435,-0.0968 0.281435,-0.20946 v -0.16081 c 0,-0.11198 -0.144046,-0.20058 -0.281435,-0.20058 h -2.197875 c -0.135687,0 -0.24959,0.0867 -0.24959,0.20058 v 0.16081 c 0,0.11199 0.113909,0.20946 0.24959,0.20946"
       id="path140"
       style="clip-rule:evenodd;fill:#000000;fill-opacity:1;fill-rule:evenodd;stroke:none;stroke-width:1.67478085" />
    <path
       inkscape:connector-curvature="0"
       d="m 32.439033,253.18574 1.650073,1.45506 c 0.105551,0.0886 0.264658,0.11198 0.345066,0.0254 l 0.10555,-0.12095 c 0.07205,-0.0886 0.03357,-0.24111 -0.07206,-0.33795 l -1.648404,-1.45669 c -0.105549,-0.0886 -0.249585,-0.0968 -0.329997,-0.008 l -0.105549,0.12023 c -0.07206,0.0905 -0.04877,0.22782 0.05509,0.32338"
       id="path142"
       style="clip-rule:evenodd;fill:#000000;fill-opacity:1;fill-rule:evenodd;stroke:none;stroke-width:1.67478085" />
    <path
       inkscape:connector-curvature="0"
       d="m 29.494017,250.115 h 1.246353 c 0.154109,0 0.226161,-0.0974 0.226161,-0.24934 v -0.31452 c 0,-0.15254 -0.07206,-0.24932 -0.226161,-0.24932 h -1.246353 c -0.15411,0 -0.232874,0.0974 -0.232874,0.24932 v 0.31452 c 0.0016,0.15255 0.07878,0.24934 0.232874,0.24934 m -0.08043,0.46512 h 1.398801 c 0.346776,0 0.611433,-0.25629 0.611433,-0.58791 v -0.579 c 0,-0.32972 -0.264657,-0.57968 -0.611433,-0.57968 h -1.398799 c -0.338416,0 -0.61143,0.24806 -0.61143,0.57968 v 0.579 c 0,0.33162 0.273077,0.58791 0.61143,0.58791 z"
       id="path144"
       style="clip-rule:evenodd;fill:#000000;fill-opacity:1;fill-rule:evenodd;stroke:none;stroke-width:1.67478085" />
    <path
       inkscape:connector-curvature="0"
       d="m 32.95499,250.115 h 1.248035 c 0.152457,0 0.22445,-0.0974 0.22445,-0.24934 v -0.31452 c 0,-0.15254 -0.07205,-0.24932 -0.22445,-0.24932 H 32.95499 c -0.152456,0 -0.224451,0.0974 -0.224451,0.24932 v 0.31452 c 0,0.15255 0.07206,0.24934 0.224451,0.24934 m -0.07206,0.46512 h 1.392097 c 0.346777,0 0.611432,-0.25629 0.611432,-0.58791 v -0.579 c 0,-0.32972 -0.264655,-0.57968 -0.611432,-0.57968 H 32.88293 c -0.345069,0 -0.619855,0.24806 -0.619855,0.57968 v 0.579 c 0,0.33162 0.274723,0.58791 0.619855,0.58791 z"
       id="path146"
       style="clip-rule:evenodd;fill:#000000;fill-opacity:1;fill-rule:evenodd;stroke:none;stroke-width:1.67478085" />
    <path
       inkscape:connector-curvature="0"
       d="m 26.098373,250.115 h 1.248026 c 0.152459,0 0.234516,-0.0974 0.234516,-0.24934 v -0.31452 c 0,-0.15254 -0.08204,-0.24932 -0.234516,-0.24932 h -1.248026 c -0.152458,0 -0.22616,0.0974 -0.22616,0.24932 v 0.31452 c 0,0.15255 0.0737,0.24934 0.22616,0.24934 m -0.07206,0.46512 h 1.400468 c 0.336708,0 0.611433,-0.25629 0.611433,-0.58791 v -0.579 c 0,-0.32972 -0.274725,-0.57968 -0.611433,-0.57968 h -1.400468 c -0.346778,0 -0.611434,0.24806 -0.611434,0.57968 v 0.579 c 0,0.33162 0.264656,0.58791 0.611434,0.58791 z"
       id="path148"
       style="clip-rule:evenodd;fill:#000000;fill-opacity:1;fill-rule:evenodd;stroke:none;stroke-width:1.67478085" />
    <path
       inkscape:connector-curvature="0"
       d="m 27.465342,249.9375 h 1.836023 c 0.120619,0 0.232874,-0.0804 0.232874,-0.1772 v -0.13728 c 0,-0.0973 -0.110553,-0.17591 -0.232874,-0.17591 h -1.836023 c -0.110554,0 -0.209383,0.0804 -0.209383,0.17591 v 0.13728 c 0,0.0968 0.09883,0.1772 0.209383,0.1772"
       id="path150"
       style="clip-rule:evenodd;fill:#000000;fill-opacity:1;fill-rule:evenodd;stroke:none;stroke-width:1.67478085" />
    <path
       inkscape:connector-curvature="0"
       d="m 30.911244,249.9375 h 1.842723 c 0.112259,0 0.226162,-0.0804 0.226162,-0.1772 v -0.13728 c 0,-0.0973 -0.112258,-0.17591 -0.226162,-0.17591 h -1.842723 c -0.112257,0 -0.209383,0.0804 -0.209383,0.17591 v 0.13728 c 0,0.0968 0.09718,0.1772 0.209383,0.1772"
       id="path152"
       style="clip-rule:evenodd;fill:#000000;fill-opacity:1;fill-rule:evenodd;stroke:none;stroke-width:1.67478085" />
    <path
       inkscape:connector-curvature="0"
       d="m 34.137689,249.8973 0.981672,1.56891 c 0.05698,0.0968 0.185956,0.15254 0.266366,0.10568 l 0.11226,-0.0804 c 0.08043,-0.0505 0.08875,-0.18415 0.02344,-0.28984 l -0.981645,-1.56054 c -0.05509,-0.0968 -0.17589,-0.13728 -0.256302,-0.0886 l -0.112258,0.0722 c -0.08212,0.057 -0.09719,0.17593 -0.03357,0.27276"
       id="path154"
       style="clip-rule:evenodd;fill:#000000;fill-opacity:1;fill-rule:evenodd;stroke:none;stroke-width:1.67478085" />
    <path
       inkscape:connector-curvature="0"
       d="m 30.822458,283.57365 h 1.246353 c 0.15411,0 0.22616,0.10374 0.22616,0.25631 v 0.30627 c 0,0.16272 -0.07206,0.2563 -0.22616,0.2563 h -1.246353 c -0.15411,0 -0.226162,-0.0955 -0.226162,-0.2563 v -0.30627 c 0,-0.15379 0.07206,-0.25631 0.226162,-0.25631 m -0.07205,-0.45883 h 1.390421 c 0.346776,0 0.619856,0.24935 0.619856,0.57972 v 0.57901 c 0,0.3297 -0.27308,0.57904 -0.619856,0.57904 h -1.390421 c -0.346773,0 -0.621498,-0.24808 -0.621498,-0.57904 v -0.57901 c 0,-0.32971 0.274725,-0.57972 0.621498,-0.57972 z"
       id="path156"
       style="clip-rule:evenodd;fill:#000000;fill-opacity:1;fill-rule:evenodd;stroke:none;stroke-width:1.67478085" />
    <path
       inkscape:connector-curvature="0"
       d="m 34.283432,283.57365 h 1.246354 c 0.152458,0 0.23452,0.10374 0.23452,0.25631 v 0.30627 c 0,0.16272 -0.08213,0.2563 -0.23452,0.2563 h -1.246354 c -0.154109,0 -0.22616,-0.0955 -0.22616,-0.2563 v -0.30627 c 0,-0.15379 0.07205,-0.25631 0.22616,-0.25631 m -0.07368,-0.45883 h 1.400468 c 0.338421,0 0.611433,0.24935 0.611433,0.57972 v 0.57901 c 0,0.3297 -0.273076,0.57904 -0.611433,0.57904 h -1.400464 c -0.345065,0 -0.609783,-0.24808 -0.609783,-0.57904 v -0.57901 c -0.0016,-0.32971 0.264655,-0.57972 0.609783,-0.57972 z"
       id="path158"
       style="clip-rule:evenodd;fill:#000000;fill-opacity:1;fill-rule:evenodd;stroke:none;stroke-width:1.67478085" />
    <path
       inkscape:connector-curvature="0"
       d="m 27.435186,283.57365 h 1.237977 c 0.154109,0 0.234518,0.10374 0.234518,0.25631 v 0.30627 c 0,0.16272 -0.08043,0.2563 -0.234518,0.2563 h -1.237977 c -0.152459,0 -0.234519,-0.0955 -0.234519,-0.2563 v -0.30627 c 0,-0.15379 0.08215,-0.25631 0.234519,-0.25631 m -0.08043,-0.45883 h 1.400476 c 0.345066,0 0.611432,0.24935 0.611432,0.57972 v 0.57901 c 0,0.3297 -0.266366,0.57904 -0.611432,0.57904 h -1.400474 c -0.346774,0 -0.611431,-0.24808 -0.611431,-0.57904 v -0.57901 c 0,-0.32971 0.264657,-0.57972 0.611431,-0.57972 z"
       id="path160"
       style="clip-rule:evenodd;fill:#000000;fill-opacity:1;fill-rule:evenodd;stroke:none;stroke-width:1.67478085" />
    <path
       inkscape:connector-curvature="0"
       d="m 28.793778,283.7578 h 1.842729 c 0.113909,0 0.226159,0.0723 0.226159,0.17079 v 0.13533 c 0,0.0968 -0.110553,0.17593 -0.226159,0.17593 h -1.842729 c -0.110554,0 -0.209383,-0.0804 -0.209383,-0.17593 v -0.13533 c 0,-0.0986 0.09883,-0.17079 0.209383,-0.17079"
       id="path162"
       style="clip-rule:evenodd;fill:#000000;fill-opacity:1;fill-rule:evenodd;stroke:none;stroke-width:1.67478085" />
    <path
       inkscape:connector-curvature="0"
       d="m 32.246384,283.7578 h 1.836025 c 0.112257,0 0.232872,0.0723 0.232872,0.17079 v 0.13533 c 0,0.0968 -0.118967,0.17593 -0.232872,0.17593 h -1.836025 c -0.120618,0 -0.216093,-0.0804 -0.216093,-0.17593 v -0.13533 c 0,-0.0986 0.09549,-0.17079 0.216093,-0.17079"
       id="path164"
       style="clip-rule:evenodd;fill:#000000;fill-opacity:1;fill-rule:evenodd;stroke:none;stroke-width:1.67478085" />
    <path
       inkscape:connector-curvature="0"
       d="m 35.248354,283.54853 1.038623,-1.52703 c 0.06363,-0.0986 0.192666,-0.14549 0.273076,-0.0986 l 0.112258,0.0823 c 0.07206,0.0568 0.07206,0.19239 0.0071,0.28794 l -1.036956,1.52866 c -0.06363,0.0967 -0.175887,0.12901 -0.256298,0.0733 L 35.2739,283.8218 c -0.08203,-0.057 -0.08876,-0.17594 -0.02533,-0.27276"
       id="path166"
       style="clip-rule:evenodd;fill:#000000;fill-opacity:1;fill-rule:evenodd;stroke:none;stroke-width:1.67478085" />
  </g>
</svg>
