<?xml version="1.0" encoding="UTF-8" standalone="no"?>
<!-- Created with Inkscape (http://www.inkscape.org/) -->

<svg
   xmlns:dc="http://purl.org/dc/elements/1.1/"
   xmlns:cc="http://creativecommons.org/ns#"
   xmlns:rdf="http://www.w3.org/1999/02/22-rdf-syntax-ns#"
   xmlns:svg="http://www.w3.org/2000/svg"
   xmlns="http://www.w3.org/2000/svg"
   xmlns:sodipodi="http://sodipodi.sourceforge.net/DTD/sodipodi-0.dtd"
   xmlns:inkscape="http://www.inkscape.org/namespaces/inkscape"
   width="61mm"
   height="61mm"
   viewBox="0 0 61 61"
   version="1.1"
   id="svg2000"
   inkscape:version="0.92.2 (5c3e80d, 2017-08-06)"
   sodipodi:docname="33.svg">
  <defs
     id="defs1994" />
  <sodipodi:namedview
     id="base"
     pagecolor="#ffffff"
     bordercolor="#666666"
     borderopacity="1.0"
     inkscape:pageopacity="0.0"
     inkscape:pageshadow="2"
     inkscape:zoom="1.4177215"
     inkscape:cx="45.727543"
     inkscape:cy="50.303214"
     inkscape:document-units="mm"
     inkscape:current-layer="layer1"
     showgrid="false"
     inkscape:window-width="1920"
     inkscape:window-height="1057"
     inkscape:window-x="-8"
     inkscape:window-y="-8"
     inkscape:window-maximized="1"
     showborder="true" />
  <metadata
     id="metadata1997">
    <rdf:RDF>
      <cc:Work
         rdf:about="">
        <dc:format>image/svg+xml</dc:format>
        <dc:type
           rdf:resource="http://purl.org/dc/dcmitype/StillImage" />
        <dc:title></dc:title>
      </cc:Work>
    </rdf:RDF>
  </metadata>
  <g
     inkscape:label="Layer 1"
     inkscape:groupmode="layer"
     id="layer1"
     transform="translate(0,-236)">
    <circle
       r="26"
       cy="266.50009"
       cx="30.500002"
       id="circle1748"
       style="opacity:1;fill:#fad20a;fill-opacity:1;fill-rule:nonzero;stroke:none;stroke-width:0.15956137;stroke-linecap:square;stroke-linejoin:round;stroke-miterlimit:4;stroke-dasharray:none;stroke-opacity:1;paint-order:stroke fill markers" />
    <path
       style="opacity:1;fill:#000000;fill-opacity:1;fill-rule:nonzero;stroke:none;stroke-width:0.80000001;stroke-linecap:square;stroke-linejoin:round;stroke-miterlimit:4;stroke-dasharray:none;stroke-opacity:1;paint-order:stroke fill markers"
       d="m 4.5,253.50011 13,13 -13,13 z"
       id="rect1927"
       inkscape:connector-curvature="0"
       sodipodi:nodetypes="cccc" />
    <path
       sodipodi:nodetypes="cccc"
       inkscape:connector-curvature="0"
       id="path1968"
       d="m 56.499953,253.50011 -13,13 13,13 z"
       style="opacity:1;fill:#000000;fill-opacity:1;fill-rule:nonzero;stroke:none;stroke-width:0.80000001;stroke-linecap:square;stroke-linejoin:round;stroke-miterlimit:4;stroke-dasharray:none;stroke-opacity:1;paint-order:stroke fill markers" />
    <path
       style="opacity:1;fill:#dc0a14;fill-opacity:1;fill-rule:nonzero;stroke:none;stroke-width:0.18410923;stroke-linecap:square;stroke-linejoin:round;stroke-miterlimit:4;stroke-dasharray:none;stroke-opacity:1;paint-order:stroke fill markers"
       d="M 30.500236,236.50005 A 30,30 0 0 0 0.5,266.50029 30,30 0 0 0 30.500236,296.5 30,30 0 0 0 60.499953,266.50029 30,30 0 0 0 30.500236,236.50005 Z m 0,6.00015 A 24,24 0 0 1 54.499804,266.50029 24,24 0 0 1 30.500236,290.49985 24,24 0 0 1 6.5001504,266.50029 24,24 0 0 1 30.500236,242.5002 Z"
       id="path1981"
       inkscape:connector-curvature="0" />
    <g
       aria-label="2m"
       style="font-style:normal;font-variant:normal;font-weight:normal;font-stretch:normal;font-size:23.77414513px;line-height:1.25;font-family:'DIN 1451 Mittelschrift';-inkscape-font-specification:'DIN 1451 Mittelschrift';letter-spacing:0px;word-spacing:0px;fill:#000000;fill-opacity:1;stroke:none;stroke-width:0.59435362"
       id="text2012">
      <g
         aria-label="2m"
         style="font-style:normal;font-variant:normal;font-weight:normal;font-stretch:normal;font-size:22.29115677px;line-height:1.25;font-family:'DIN 1451 Mittelschrift';-inkscape-font-specification:'DIN 1451 Mittelschrift';letter-spacing:0px;word-spacing:0px;fill:#000000;fill-opacity:1;stroke:none;stroke-width:0.33122072"
         id="text2043">
        <path
           d="m 18.5,274.00011 v -2.26666 l 6.591837,-8.24559 q 0.381633,-0.48571 0.497279,-0.89047 0.115647,-0.40477 0.115647,-0.7864 0,-0.87891 -0.62449,-1.63061 -0.62449,-0.76326 -1.7,-0.76326 -0.982993,0 -1.688436,0.65918 -0.693877,0.64762 -0.77483,1.78095 H 18.5 q 0.01156,-2.04693 1.39932,-3.44626 1.387756,-1.41088 3.295918,-1.41088 2.104763,0 3.504082,1.42244 1.410885,1.4109 1.410885,3.41157 0,1.71156 -1.006123,2.96054 l -5.423809,6.8 h 6.429932 v 2.40545 z"
           style="fill:#000000;fill-opacity:1;stroke:none;stroke-width:0.35192201"
           id="path2045"
           inkscape:connector-curvature="0" />
        <path
           d="m 30.761891,274.00011 v -8.40286 h 1.691905 v 0.89857 h 0.03239 q 0.801429,-0.99571 2.185714,-0.99571 0.882382,0 1.400476,0.31571 0.518096,0.31572 0.971429,0.77715 0.995715,-1.09286 2.655239,-1.09286 0.979524,0 1.88619,0.74476 0.914763,0.74476 0.914763,2.16953 v 5.58571 h -1.691905 v -5.00286 q 0,-0.85 -0.47762,-1.32762 -0.477619,-0.47762 -1.181904,-0.47762 -0.728571,0 -1.206191,0.47762 -0.469524,0.47762 -0.469524,1.32762 v 5.00286 h -1.683809 v -5.00286 q 0,-0.85 -0.47762,-1.32762 -0.477619,-0.47762 -1.181905,-0.47762 -0.728571,0 -1.20619,0.47762 -0.469524,0.47762 -0.469524,1.32762 v 5.00286 z"
           style="fill:#000000;fill-opacity:1;stroke:none;stroke-width:0.24634543"
           id="path2047"
           inkscape:connector-curvature="0" />
      </g>
    </g>
  </g>
</svg>
