<?xml version="1.0" encoding="UTF-8" standalone="no"?>
<!-- Created with Inkscape (http://www.inkscape.org/) -->

<svg
   xmlns:dc="http://purl.org/dc/elements/1.1/"
   xmlns:cc="http://creativecommons.org/ns#"
   xmlns:rdf="http://www.w3.org/1999/02/22-rdf-syntax-ns#"
   xmlns:svg="http://www.w3.org/2000/svg"
   xmlns="http://www.w3.org/2000/svg"
   xmlns:sodipodi="http://sodipodi.sourceforge.net/DTD/sodipodi-0.dtd"
   xmlns:inkscape="http://www.inkscape.org/namespaces/inkscape"
   width="61mm"
   height="61mm"
   viewBox="0 0 61 61"
   version="1.1"
   id="svg8"
   inkscape:version="0.92.2 (5c3e80d, 2017-08-06)"
   sodipodi:docname="55.svg">
  <defs
     id="defs2" />
  <sodipodi:namedview
     id="base"
     pagecolor="#ffffff"
     bordercolor="#666666"
     borderopacity="1.0"
     inkscape:pageopacity="0.0"
     inkscape:pageshadow="2"
     inkscape:zoom="2.25"
     inkscape:cx="119.01454"
     inkscape:cy="117.16296"
     inkscape:document-units="mm"
     inkscape:current-layer="layer1"
     showgrid="false"
     inkscape:window-width="1920"
     inkscape:window-height="1057"
     inkscape:window-x="-8"
     inkscape:window-y="-8"
     inkscape:window-maximized="1"
     showborder="true" />
  <metadata
     id="metadata5">
    <rdf:RDF>
      <cc:Work
         rdf:about="">
        <dc:format>image/svg+xml</dc:format>
        <dc:type
           rdf:resource="http://purl.org/dc/dcmitype/StillImage" />
        <dc:title></dc:title>
      </cc:Work>
    </rdf:RDF>
  </metadata>
  <g
     inkscape:label="Layer 1"
     inkscape:groupmode="layer"
     id="layer1"
     transform="translate(0,-236)">
    <circle
       style="opacity:1;fill:#dc0a14;fill-opacity:1;fill-rule:nonzero;stroke:none;stroke-width:0.20430708;stroke-linecap:square;stroke-linejoin:round;stroke-miterlimit:4;stroke-dasharray:none;stroke-opacity:1;paint-order:stroke fill markers"
       id="path815"
       cx="30.5"
       cy="266.5"
       r="30" />
    <circle
       r="24"
       cy="266.5"
       cx="30.5"
       id="circle817"
       style="opacity:1;fill:#fad20a;fill-opacity:1;fill-rule:nonzero;stroke:none;stroke-width:0.16344567;stroke-linecap:square;stroke-linejoin:round;stroke-miterlimit:4;stroke-dasharray:none;stroke-opacity:1;paint-order:stroke fill markers" />
    <path
       style="fill:#003c82;stroke:none;stroke-width:0.1061727;fill-opacity:1"
       id="path18-3"
       d="m 29.762267,253.67117 c 0,0 0.700251,-0.48189 0.02092,-0.79478 -0.55949,-0.26666 -0.481057,-0.69019 -0.481057,-0.69019 v -0.8366 h -0.585635 c 0,0 -0.06651,-0.0604 0,-0.12549 0.0845,-0.0525 0.439226,-0.35556 0.439226,-0.35556 0,0 0.257889,-1.56821 1.505919,-1.56862 1.197622,4.2e-4 1.380421,1.15033 1.380421,1.15033 l 0.125495,1.19215 -0.230071,0.10458 c 0,0 0.04518,0.81296 -0.250985,1.1294 -0.07425,0.0912 -0.116083,0.32607 0.04182,0.41831 0.144109,0.0924 0.802948,0.42394 1.045776,0.92025 1.028625,2.04633 1.217283,3.57354 1.213101,4.7268 0.0042,1.34902 -0.133232,2.33851 -0.33465,3.13725 -0.03869,0.16147 -0.114197,0.43837 0.230072,0.31372 0.335484,-0.12715 2.261385,-0.70608 3.68113,-0.71111 1.425184,0.005 2.910605,0.38254 4.455008,1.04575 0,0 0.733923,-0.0715 1.171267,-0.0627 1.962795,-0.009 2.717969,0.25977 3.492891,1.12942 0.86996,0.96857 1.570713,2.10049 1.568662,3.6392 0.0021,1.97794 0.652457,3.79483 2.028806,3.78562 0.163562,0.009 0.397395,-0.0836 0.397395,-0.0836 0,0 -0.41005,0.87319 -1.71507,0.87842 -2.401727,-0.005 -3.448757,-3.70802 -3.304651,-5.04052 0.292002,-2.63048 -1.835421,-3.39827 -2.530778,-3.43006 0,0 0.695357,1.42892 0.690212,3.22092 0.0052,1.8081 -0.901167,3.26837 -0.878452,3.95293 0.0276,0.67471 0.313734,1.17123 0.313734,1.17123 0,0 0.796504,0.4729 0.87845,0.5438 0.09429,0.055 0.207525,0.1303 0.18824,0.43922 0,0 -0.142475,3.54279 0,4.37123 0.09485,0.49348 0.245924,0.64452 0.313734,0.71111 0.08324,0.0593 0.133588,0.10335 0.104578,0.18823 -0.02133,0.10401 0.07303,0.40606 0.31373,0.39739 0.237664,0.009 0.773878,-0.23006 0.773878,-0.23006 0,0 0.338641,1.10099 -0.125495,2.23791 0,0 -0.127456,0.0652 -0.397395,0.0628 -0.781236,0.003 -1.500774,-0.44862 -1.86148,-1.15034 -0.09036,-0.2004 -0.09036,-0.49616 -0.02091,-0.7111 0.08152,-0.20049 0.06266,-0.41446 0.04183,-0.60655 -0.01691,-0.21069 -0.239064,-2.30691 -0.250987,-2.42612 -0.0098,-0.12272 -0.01136,-0.28956 -0.146408,-0.41831 -0.569781,-0.51201 -0.544139,-0.54317 -0.752957,-1.31765 -0.05817,-0.21731 -0.209157,-0.66929 -0.209157,-0.66929 0,0 -2.500868,-1.14236 -2.635355,-1.21305 -0.134067,-0.0636 -0.318751,-0.0719 -0.37648,-0.0209 -0.04287,0.0664 -0.143689,0.17547 -0.04183,0.35554 0.116334,0.18907 0.493962,0.81005 0.543805,0.94119 0.121244,0.41621 0.148457,0.52328 -0.18824,1.08757 -0.801693,1.34233 -1.324371,3.20669 -1.380425,4.49673 0.0019,0.1755 -0.03221,0.70988 -0.627464,0.62745 -0.220241,-0.0154 -0.497163,-0.0489 -0.606551,0.0627 -0.09203,0.12328 -0.05835,0.22393 -0.04183,0.33464 2.3e-4,0.10752 -0.04183,0.88798 -0.271902,1.17124 -0.105624,0.0441 -1.5992,0.11952 -1.945143,0.0837 -0.143062,-0.0223 -0.182173,-0.27515 -0.08366,-0.43921 0.726816,-1.26936 1.19637,-1.94005 2.363456,-2.67713 0.406806,-0.26447 0.448429,-0.4928 0.481056,-1.17124 0.02782,-0.8937 0.213549,-1.56233 0.355565,-2.50981 0.03221,-0.15706 0.124657,-0.35847 -0.146408,-0.71111 -0.436089,-0.55341 -0.585636,-1.47576 -0.522888,-2.48888 0.01338,-0.12925 -0.0033,-0.22986 -0.104579,-0.31372 -0.197652,-0.14034 -0.454494,-0.32838 -0.60655,-0.62745 -0.06421,-0.1027 -0.21522,-0.2035 -0.460142,-0.0837 -0.241991,0.13197 -2.633681,1.29004 -6.065499,1.29673 -2.899936,-0.007 -4.643244,-0.71111 -4.643244,-0.71111 0,0 0.09956,1.14886 -0.04183,1.96601 -0.03995,0.21124 0.01025,0.2742 0.06275,0.37646 1.074848,1.83008 1.164367,2.45334 1.171271,3.72288 -0.0069,0.21961 0.03513,0.95809 0.230068,1.23399 0.190958,0.27794 0.417475,0.71428 0.460143,0.85751 0.0414,0.12532 0.142015,0.45262 -0.18824,0.64836 -0.340923,0.20712 -0.39133,0.24062 -0.397395,0.48105 0.006,0.24631 0.0228,0.2295 0.08366,0.31373 0,0 0.308505,0.40253 0.397396,0.60653 0,0 -0.525398,0.28269 -1.234017,0.29281 -0.701296,-0.0101 -1.03699,-0.21151 -1.150352,-0.2719 -0.12152,-0.0571 -0.230699,-0.12418 -0.104579,-0.33462 0.125703,-0.19241 0.797092,-1.24976 0.878452,-1.40132 0.188658,-0.36135 0.237601,-0.4964 0.23007,-0.92027 0.0075,-0.15343 0,-0.64835 0,-0.64835 0,0 0.02426,-0.0925 -0.104577,-0.33464 -0.413917,-0.70735 -1.117515,-2.05784 -1.777819,-2.86536 -0.224841,-0.2744 -0.52707,-0.75273 -0.543803,-1.29673 -0.0025,-0.72534 -0.468926,-1.51675 -0.773874,-1.79869 -0.09893,-0.0908 -0.333811,-0.24199 -0.627465,0.021 -0.27713,0.25747 -2.555457,2.15823 -3.137328,2.7817 -0.736435,0.78056 -1.074848,1.15285 -1.359509,2.04967 -0.07278,0.23456 -0.202879,0.64583 -0.230069,0.8366 -0.04392,0.33056 -0.05543,0.55073 -0.230072,0.77385 -0.0868,0.10947 -0.363719,0.3612 -0.104579,0.50196 0.261235,0.12778 0.437346,0.2201 0.690216,0.50197 0,0 0.113152,0.66535 -0.815706,1.6732 -0.108344,0.10932 -0.231744,0.0261 -0.355565,-0.12549 -0.247015,-0.34291 -0.858792,-1.79304 -0.941199,-2.44706 -0.01173,-0.14616 -0.05374,-0.34755 0.146407,-0.71111 0.202673,-0.37492 1.100784,-2.17077 1.171273,-2.32157 0.06359,-0.13448 0.139087,-0.40303 0.146406,-0.64836 0.03744,-0.42415 0.348037,-1.00266 0.627466,-1.31764 0.145782,-0.15728 2.730521,-2.83441 2.802679,-2.9281 0.243456,-0.30097 0.283406,-0.46119 0.125495,-0.87844 -0.317918,-0.83199 -0.415801,-2.14524 -0.418312,-2.34248 0.0025,-0.19304 0.01924,-0.57914 -0.250985,-0.85751 -0.375644,-0.40931 -1.172107,-1.77674 -1.401339,-3.59739 -0.01527,-0.13553 -0.04079,-0.28967 -0.188241,-0.31372 -0.09558,0.002 -0.145991,0.0607 -0.209155,0.12549 -0.287588,0.28591 -0.581871,0.59294 -1.024861,0.73203 -0.145571,0.0341 -0.531463,0.14305 -0.481059,0.48104 0.03346,0.35012 0.192846,1.23963 -0.460138,1.56863 0,0 -0.161049,-0.26186 -0.230073,-0.31373 0,0 -0.40095,0.32878 -0.564719,0.37648 -0.171719,0.0531 -0.36498,0.0616 -0.481065,-0.14641 -0.101855,-0.21167 -0.269805,-0.68999 -0.31373,-0.77386 -0.03996,-0.0671 -0.132186,-0.24346 -0.04181,-0.62745 0.110852,-0.40492 0.463488,-1.68888 0.460142,-3.07451 0.0035,-0.3932 -0.09747,-1.07294 -0.104578,-1.35947 0.0072,-0.26751 0.477084,-1.46741 0.522887,-1.56863 0.03804,-0.11691 0.0801,-0.34363 -0.250986,-0.35556 -0.340295,-0.005 -0.397396,-0.0209 -0.397396,-0.0209 0,0 0.384428,-0.26081 0.460142,-0.27188 0.05857,-0.0226 0.184478,-0.11482 0.08366,-0.23007 -0.08387,-0.1029 -0.176318,-0.22044 -0.230068,-0.31372 -0.04685,-0.10813 -0.01337,-0.33465 0.271901,-0.23008 0.285498,0.11357 1.401549,0.54149 1.485004,0.58563 0.0845,0.0399 0.210199,0.0818 0.481057,0.0628 0.28319,-0.0314 0.341967,-0.10687 1.150351,-0.10456 1.459484,-0.003 2.848276,0.47602 3.513805,0.92025 1.385863,0.9234 2.517183,1.68304 3.660216,2.82353 0.06128,0.0637 0.249941,0.24011 0.481057,0.10458 0.247222,-0.14139 0.423541,-0.12884 0.60655,-0.1255 0.194724,-0.004 0.433787,-0.0537 0.648381,-0.25098 0.213339,-0.20558 1.283376,-1.08674 1.443171,-1.19215 0.142225,-0.096 0.293445,-0.15875 0.271901,-0.66928 -0.06881,-1.3394 0.31206,-2.76852 0.606551,-3.80653 0.05689,-0.22714 0.06108,-0.49569 0.46014,-0.75295"
       inkscape:connector-curvature="0" />
    <path
       id="path20-7"
       style="fill:#fad20a;fill-opacity:1;stroke:none;stroke-width:0.1061727"
       d="m 28.653746,260.38488 c 0.07843,-0.0392 0.289887,-0.12695 0.376478,-0.0209 0.102277,0.0952 -0.01736,0.32816 -0.06275,0.39739 -0.04267,0.0568 -0.552587,1.08883 -0.606551,1.23398 -0.05918,0.14431 -0.241782,0.42772 -0.585633,0.16733 -0.323355,-0.24325 -0.575177,-0.40053 -0.711129,-0.46014 -0.140762,-0.0664 -0.203926,-0.26144 -0.06275,-0.31372 0.161051,-0.0609 0.25538,-0.1554 0.334649,-0.2719 0.0594,-0.11001 0.23551,-0.2422 0.313733,-0.2719 0.0981,-0.0207 0.947683,-0.44861 1.003946,-0.46012"
       inkscape:connector-curvature="0" />
  </g>
</svg>
