<?xml version="1.0" encoding="UTF-8" standalone="no"?>
<!-- Created with Inkscape (http://www.inkscape.org/) -->

<svg
   xmlns:dc="http://purl.org/dc/elements/1.1/"
   xmlns:cc="http://creativecommons.org/ns#"
   xmlns:rdf="http://www.w3.org/1999/02/22-rdf-syntax-ns#"
   xmlns:svg="http://www.w3.org/2000/svg"
   xmlns="http://www.w3.org/2000/svg"
   xmlns:sodipodi="http://sodipodi.sourceforge.net/DTD/sodipodi-0.dtd"
   xmlns:inkscape="http://www.inkscape.org/namespaces/inkscape"
   width="61.599998mm"
   height="61.599998mm"
   viewBox="0 0 61.599998 61.599998"
   version="1.1"
   id="svg8"
   inkscape:version="0.92.2 (5c3e80d, 2017-08-06)"
   sodipodi:docname="11.svg">
  <defs
     id="defs2" />
  <sodipodi:namedview
     id="base"
     pagecolor="#ffffff"
     bordercolor="#666666"
     borderopacity="1.0"
     inkscape:pageopacity="0.0"
     inkscape:pageshadow="2"
     inkscape:zoom="1.979899"
     inkscape:cx="181.64126"
     inkscape:cy="110.75129"
     inkscape:document-units="mm"
     inkscape:current-layer="layer1"
     showgrid="false"
     inkscape:window-width="1920"
     inkscape:window-height="1057"
     inkscape:window-x="-8"
     inkscape:window-y="-8"
     inkscape:window-maximized="1" />
  <metadata
     id="metadata5">
    <rdf:RDF>
      <cc:Work
         rdf:about="">
        <dc:format>image/svg+xml</dc:format>
        <dc:type
           rdf:resource="http://purl.org/dc/dcmitype/StillImage" />
        <dc:title></dc:title>
      </cc:Work>
    </rdf:RDF>
  </metadata>
  <g
     inkscape:label="Layer 1"
     inkscape:groupmode="layer"
     id="layer1"
     transform="translate(0,-235.4)">
    <circle
       style="opacity:1;fill:#000000;fill-opacity:1;fill-rule:nonzero;stroke:none;stroke-width:0.20635015;stroke-linecap:square;stroke-linejoin:round;stroke-miterlimit:4;stroke-dasharray:none;stroke-opacity:1;paint-order:stroke fill markers"
       id="path815"
       cx="30.799999"
       cy="266.20001"
       r="30.299999" />
    <circle
       r="30"
       cy="266.20001"
       cx="30.799999"
       id="circle819"
       style="opacity:1;fill:#ffffff;fill-opacity:1;fill-rule:nonzero;stroke:none;stroke-width:0.20430708;stroke-linecap:square;stroke-linejoin:round;stroke-miterlimit:4;stroke-dasharray:none;stroke-opacity:1;paint-order:stroke fill markers" />
    <circle
       style="opacity:1;fill:#003c82;fill-opacity:1;fill-rule:nonzero;stroke:none;stroke-width:0.19068664;stroke-linecap:square;stroke-linejoin:round;stroke-miterlimit:4;stroke-dasharray:none;stroke-opacity:1;paint-order:stroke fill markers"
       id="circle821"
       cx="30.799999"
       cy="266.20001"
       r="28" />
    <path
       style="fill:#ffffff;stroke:none;stroke-width:0.11944425"
       id="path18"
       d="m 29.420054,251.91767 c 0,0 0.787782,-0.54212 0.02353,-0.89412 -0.629426,-0.3 -0.541189,-0.77647 -0.541189,-0.77647 v -0.94117 h -0.658839 c 0,0 -0.07482,-0.068 0,-0.14118 0.09506,-0.059 0.494129,-0.4 0.494129,-0.4 0,0 0.290125,-1.76424 1.694158,-1.7647 1.347324,4.7e-4 1.552973,1.29412 1.552973,1.29412 l 0.141182,1.34117 -0.25883,0.11765 c 0,0 0.05083,0.91458 -0.282358,1.27058 -0.08353,0.10258 -0.130593,0.36683 0.04705,0.47059 0.162122,0.104 0.903316,0.47694 1.176498,1.03529 1.157202,2.30212 1.369442,4.02023 1.364738,5.31764 0.0047,1.51765 -0.149886,2.63083 -0.376481,3.52941 -0.04353,0.18165 -0.128472,0.49317 0.258831,0.35294 0.377419,-0.14305 2.544057,-0.79435 4.14127,-0.8 1.603332,0.006 3.274428,0.43035 5.01188,1.17647 0,0 0.825666,-0.0804 1.317677,-0.0706 2.208144,-0.01 3.057716,0.29224 3.929502,1.2706 0.978702,1.08964 1.767051,2.36305 1.764743,4.0941 0.0025,2.22518 0.734016,4.26918 2.282407,4.25882 0.184007,0.0103 0.44707,-0.0941 0.44707,-0.0941 0,0 -0.461306,0.98234 -1.929454,0.98823 -2.701944,-0.006 -3.879853,-4.17153 -3.717732,-5.67059 0.328502,-2.95929 -2.064848,-3.82305 -2.847124,-3.85882 0,0 0.782276,1.60754 0.776487,3.62354 0.0058,2.03411 -1.013811,3.67692 -0.988257,4.44704 0.03105,0.75905 0.35295,1.31764 0.35295,1.31764 0,0 0.896067,0.53201 0.988257,0.61177 0.106073,0.0619 0.233465,0.14659 0.21177,0.49412 0,0 -0.160285,3.98564 0,4.91764 0.106709,0.55516 0.276664,0.72508 0.35295,0.8 0.09365,0.0667 0.150286,0.11626 0.11765,0.21176 -0.024,0.11701 0.08216,0.45681 0.352948,0.44706 0.267372,0.01 0.870609,-0.25882 0.870609,-0.25882 0,0 0.380973,1.23861 -0.14118,2.51765 0,0 -0.14339,0.0733 -0.447069,0.0706 -0.87889,0.003 -1.688369,-0.50469 -2.094165,-1.29413 -0.10165,-0.22545 -0.10165,-0.55818 -0.02353,-0.79999 0.09171,-0.22555 0.07049,-0.46626 0.04706,-0.68236 -0.01903,-0.23703 -0.268946,-2.59528 -0.28236,-2.72939 -0.01104,-0.13806 -0.01278,-0.32575 -0.16471,-0.4706 -0.641003,-0.57601 -0.612154,-0.61106 -0.847077,-1.48235 -0.06544,-0.24448 -0.2353,-0.75295 -0.2353,-0.75295 0,0 -2.813476,-1.28516 -2.964773,-1.36469 -0.150827,-0.0715 -0.358596,-0.0809 -0.423539,-0.0235 -0.04823,0.0747 -0.16165,0.19741 -0.04706,0.39999 0.130876,0.2127 0.555707,0.9113 0.61178,1.05883 0.136402,0.46824 0.167015,0.5887 -0.21177,1.22352 -0.901903,1.51012 -1.489917,3.60753 -1.552976,5.05882 0.0021,0.19744 -0.03624,0.79862 -0.705897,0.70588 -0.247771,-0.0173 -0.559308,-0.055 -0.68237,0.0706 -0.103532,0.13869 -0.06564,0.25192 -0.04706,0.37646 2.59e-4,0.12097 -0.04706,0.99898 -0.305889,1.31765 -0.118827,0.0496 -1.7991,0.13446 -2.188286,0.0942 -0.160944,-0.0251 -0.204944,-0.30955 -0.09412,-0.49412 0.817667,-1.42803 1.345916,-2.18255 2.658887,-3.01176 0.457657,-0.29753 0.504482,-0.5544 0.541188,-1.31765 0.0313,-1.00541 0.240242,-1.75762 0.400009,-2.82353 0.03624,-0.1767 0.14024,-0.40328 -0.164708,-0.8 -0.4906,-0.62259 -0.65884,-1.66023 -0.588249,-2.79999 0.01505,-0.14541 -0.0037,-0.25859 -0.117651,-0.35294 -0.222358,-0.15788 -0.511306,-0.36942 -0.682368,-0.70588 -0.07224,-0.11554 -0.242123,-0.22894 -0.51766,-0.0942 -0.27224,0.14847 -2.96289,1.4513 -6.823684,1.45883 -3.262428,-0.008 -5.223649,-0.8 -5.223649,-0.8 0,0 0.112001,1.29246 -0.04706,2.21176 -0.04494,0.23764 0.01153,0.30847 0.07059,0.42352 1.209203,2.05883 1.309912,2.76 1.317679,4.18823 -0.0078,0.24707 0.03952,1.07786 0.258827,1.38824 0.214828,0.31268 0.469659,0.80357 0.51766,0.9647 0.04658,0.14099 0.159767,0.5092 -0.211769,0.72941 -0.383539,0.233 -0.440247,0.27069 -0.44707,0.54118 0.0068,0.2771 0.02565,0.25818 0.09412,0.35294 0,0 0.347068,0.45285 0.44707,0.68235 0,0 -0.591072,0.31802 -1.388268,0.32941 -0.788958,-0.0114 -1.166614,-0.23795 -1.294146,-0.30589 -0.13671,-0.0642 -0.259536,-0.1397 -0.117651,-0.37645 0.141415,-0.21646 0.896728,-1.40598 0.988258,-1.57648 0.21224,-0.40652 0.267301,-0.55845 0.258829,-1.0353 0.0084,-0.17261 0,-0.7294 0,-0.7294 0,0 0.02729,-0.10405 -0.11765,-0.37647 -0.465656,-0.79576 -1.257204,-2.31507 -2.000045,-3.22353 -0.252946,-0.3087 -0.592954,-0.84682 -0.611778,-1.45882 -0.0028,-0.816 -0.527542,-1.70634 -0.870608,-2.02352 -0.111296,-0.10212 -0.375538,-0.27224 -0.705899,0.0236 -0.311771,0.28965 -2.874888,2.42801 -3.529492,3.12941 -0.82849,0.87813 -1.209204,1.29696 -1.529448,2.30588 -0.08188,0.26388 -0.228239,0.72656 -0.258827,0.94118 -0.04941,0.37188 -0.06236,0.61957 -0.258831,0.87058 -0.09765,0.12315 -0.409184,0.40635 -0.117651,0.5647 0.293889,0.14375 0.492014,0.24761 0.776492,0.56472 0,0 0.127296,0.74851 -0.917669,1.88235 -0.121887,0.12298 -0.260712,0.0294 -0.40001,-0.14118 -0.277892,-0.38577 -0.966141,-2.01717 -1.058849,-2.75294 -0.0132,-0.16443 -0.06046,-0.39099 0.164708,-0.8 0.228007,-0.42179 1.238382,-2.44211 1.317682,-2.61176 0.07154,-0.15129 0.156473,-0.45341 0.164707,-0.72941 0.04212,-0.47717 0.391541,-1.12799 0.705898,-1.48235 0.164005,-0.17694 3.071836,-3.18871 3.153014,-3.29411 0.273888,-0.33859 0.318831,-0.51883 0.141181,-0.98824 -0.357657,-0.93599 -0.467776,-2.4134 -0.470601,-2.63529 0.0028,-0.21717 0.02165,-0.65153 -0.282358,-0.9647 -0.422599,-0.46047 -1.318619,-1.99883 -1.576506,-4.04706 -0.01718,-0.15247 -0.04589,-0.32588 -0.211771,-0.35294 -0.107532,0.002 -0.164239,0.0683 -0.235299,0.14118 -0.323536,0.32165 -0.654604,0.66706 -1.152968,0.82353 -0.163768,0.0384 -0.597896,0.16093 -0.541191,0.54117 0.03764,0.39389 0.216951,1.39459 -0.517655,1.76471 0,0 -0.181181,-0.29459 -0.258832,-0.35294 0,0 -0.451069,0.36987 -0.635309,0.42353 -0.193177,0.0597 -0.410596,0.0693 -0.541191,-0.16471 -0.114587,-0.23812 -0.303531,-0.77624 -0.352946,-0.87059 -0.04495,-0.0755 -0.14871,-0.27389 -0.04704,-0.70588 0.124708,-0.45553 0.521424,-1.89999 0.51766,-3.45882 0.0039,-0.44235 -0.10965,-1.20706 -0.117651,-1.52941 0.0081,-0.30094 0.53672,-1.65083 0.588248,-1.7647 0.0428,-0.13153 0.09011,-0.38659 -0.282359,-0.40001 -0.382832,-0.006 -0.447071,-0.0235 -0.447071,-0.0235 0,0 0.432482,-0.29341 0.51766,-0.30587 0.06589,-0.0254 0.207538,-0.12917 0.09412,-0.25882 -0.09435,-0.11577 -0.198358,-0.248 -0.258827,-0.35294 -0.0527,-0.12165 -0.01504,-0.37648 0.305889,-0.25884 0.321185,0.12777 1.576742,0.60918 1.670629,0.65883 0.09506,0.0449 0.236474,0.092 0.54119,0.0706 0.318589,-0.0353 0.384712,-0.12023 1.294143,-0.11763 1.64192,-0.003 3.20431,0.53552 3.953031,1.03528 1.559095,1.03882 2.83183,1.89342 4.117742,3.17647 0.06894,0.0717 0.281183,0.27012 0.541189,0.11765 0.278124,-0.15906 0.476483,-0.14494 0.682368,-0.14118 0.219065,-0.004 0.488011,-0.0604 0.729429,-0.28236 0.240006,-0.23128 1.443797,-1.22258 1.623567,-1.34117 0.160003,-0.10799 0.330125,-0.17859 0.305888,-0.75293 -0.07741,-1.50683 0.351068,-3.11459 0.68237,-4.28235 0.064,-0.25553 0.06871,-0.55765 0.517657,-0.84707"
       inkscape:connector-curvature="0" />
    <path
       id="path20"
       style="fill:#003c82;fill-opacity:1;stroke:none;stroke-width:0.11944425"
       d="m 28.172968,259.4706 c 0.08824,-0.0441 0.326123,-0.14282 0.423538,-0.0235 0.115062,0.10707 -0.01953,0.36918 -0.07059,0.44707 -0.048,0.0639 -0.621661,1.22493 -0.68237,1.38823 -0.06658,0.16235 -0.272005,0.48118 -0.658837,0.18824 -0.363774,-0.27365 -0.647074,-0.45059 -0.80002,-0.51765 -0.158357,-0.0747 -0.229417,-0.29412 -0.07059,-0.35294 0.181182,-0.0685 0.287302,-0.17482 0.37648,-0.30589 0.06683,-0.12376 0.264948,-0.27247 0.352949,-0.30588 0.110357,-0.0233 1.066143,-0.50469 1.129439,-0.51764"
       inkscape:connector-curvature="0" />
  </g>
</svg>
