<?xml version="1.0" encoding="UTF-8" standalone="no"?>
<!-- Created with Inkscape (http://www.inkscape.org/) -->

<svg
   xmlns:dc="http://purl.org/dc/elements/1.1/"
   xmlns:cc="http://creativecommons.org/ns#"
   xmlns:rdf="http://www.w3.org/1999/02/22-rdf-syntax-ns#"
   xmlns:svg="http://www.w3.org/2000/svg"
   xmlns="http://www.w3.org/2000/svg"
   xmlns:sodipodi="http://sodipodi.sourceforge.net/DTD/sodipodi-0.dtd"
   xmlns:inkscape="http://www.inkscape.org/namespaces/inkscape"
   width="61.400002mm"
   height="91.400002mm"
   viewBox="0 0 61.400002 91.400002"
   version="1.1"
   id="svg825"
   inkscape:version="0.92.2 (5c3e80d, 2017-08-06)"
   sodipodi:docname="22.svg">
  <defs
     id="defs819" />
  <sodipodi:namedview
     id="base"
     pagecolor="#ffffff"
     bordercolor="#666666"
     borderopacity="1.0"
     inkscape:pageopacity="0.0"
     inkscape:pageshadow="2"
     inkscape:zoom="1.61875"
     inkscape:cx="159.07042"
     inkscape:cy="125.11984"
     inkscape:document-units="mm"
     inkscape:current-layer="layer1"
     showgrid="false"
     fit-margin-top="0"
     fit-margin-left="0"
     fit-margin-right="0"
     fit-margin-bottom="0"
     showborder="true"
     inkscape:window-width="1920"
     inkscape:window-height="1057"
     inkscape:window-x="-8"
     inkscape:window-y="-8"
     inkscape:window-maximized="1"
     inkscape:snap-global="false" />
  <metadata
     id="metadata822">
    <rdf:RDF>
      <cc:Work
         rdf:about="">
        <dc:format>image/svg+xml</dc:format>
        <dc:type
           rdf:resource="http://purl.org/dc/dcmitype/StillImage" />
        <dc:title></dc:title>
      </cc:Work>
    </rdf:RDF>
  </metadata>
  <g
     inkscape:label="Layer 1"
     inkscape:groupmode="layer"
     id="layer1"
     transform="translate(207.83315,-289.33649)">
    <rect
       style="opacity:1;fill:#000000;fill-opacity:1;fill-rule:nonzero;stroke:none;stroke-width:0.61239845;stroke-linecap:square;stroke-linejoin:round;stroke-miterlimit:4;stroke-dasharray:none;stroke-opacity:1;paint-order:stroke fill markers"
       id="rect1373"
       width="60.400002"
       height="90.400002"
       x="-207.33315"
       y="289.83649"
       rx="3.8"
       ry="3.8" />
    <rect
       style="opacity:1;fill:#006e3c;fill-opacity:1;fill-rule:nonzero;stroke:none;stroke-width:0.60055453;stroke-linecap:square;stroke-linejoin:round;stroke-miterlimit:4;stroke-dasharray:none;stroke-opacity:1;paint-order:stroke fill markers"
       id="rect1385"
       width="59"
       height="89"
       x="-206.63316"
       y="290.5365"
       rx="3.0999999"
       ry="3.0999999" />
    <path
       style="fill:#ffffff;fill-rule:evenodd;stroke:none;stroke-width:0.29899493"
       d="m -180.25999,316.99694 c -4.14949,0.0367 -7.44819,0.40308 -9.86116,0.63566 -2.02868,0.21379 -4.35942,1.68979 -5.05159,4.44989 l -2.19944,8.52149 c -1.10025,0.48219 -2.57119,2.17379 -2.61096,4.98239 l 0.68705,8.10923 c 0.16364,1.51909 0.71577,3.30801 1.89032,4.00322 v 5.37767 h 5.32591 v -5.32591 c 3.43055,0.24758 13.57971,0.35353 14.94672,0.34353 1.36701,0.01 11.51698,-0.0957 14.94754,-0.34353 v 5.32591 h 5.32509 v -5.37767 c 1.17455,-0.69521 1.72668,-2.48413 1.89032,-4.00322 l 0.68705,-8.10923 c -0.0402,-2.8086 -1.51073,-4.5002 -2.61097,-4.98239 l -2.19943,-8.52149 c -0.69217,-2.7601 -3.02291,-4.2361 -5.05159,-4.44989 -2.41297,-0.23258 -5.71167,-0.5997 -9.86116,-0.63566 z"
       id="path2944"
       inkscape:connector-curvature="0"
       sodipodi:nodetypes="cccccccccccccccccccccc" />
    <path
       style="fill:#006e3c;fill-opacity:1;fill-rule:evenodd;stroke:none;stroke-width:0.29899496"
       d="m -194.17576,330.15702 1.63179,-7.66291 c 0.32456,-1.27952 1.42412,-2.03752 2.42282,-2.19825 l 4.36372,-0.41271 c 1.87301,-0.20581 6.27203,-0.2989 8.62429,-0.30911 2.35227,0.01 6.75128,0.10232 8.62429,0.30911 l 4.36455,0.41271 c 0.9987,0.16073 2.09743,0.91873 2.42199,2.19825 l 1.63179,7.66291 c -6.68122,-0.58522 -13.00713,-0.71724 -17.04262,-0.7902 -4.03551,0.0745 -10.3614,0.20498 -17.04262,0.7902 z"
       id="path2986"
       inkscape:connector-curvature="0" />
    <rect
       style="opacity:1;fill:#006e3c;fill-opacity:1;fill-rule:nonzero;stroke:none;stroke-width:23.23599434;stroke-linecap:square;stroke-linejoin:round;stroke-miterlimit:4;stroke-dasharray:none;stroke-opacity:1;paint-order:stroke fill markers"
       id="rect3037"
       width="34.36097"
       height="1.5462462"
       x="-194.31363"
       y="334.00638" />
    <rect
       y="337.09805"
       x="-194.31363"
       height="1.5462462"
       width="34.36097"
       id="rect3048"
       style="opacity:1;fill:#006e3c;fill-opacity:1;fill-rule:nonzero;stroke:none;stroke-width:23.23599434;stroke-linecap:square;stroke-linejoin:round;stroke-miterlimit:4;stroke-dasharray:none;stroke-opacity:1;paint-order:stroke fill markers" />
    <circle
       r="4.2951212"
       cy="335.98108"
       cx="-194.91479"
       id="circle3061"
       style="opacity:1;fill:#ffffff;fill-opacity:1;fill-rule:nonzero;stroke:none;stroke-width:23.73377037;stroke-linecap:square;stroke-linejoin:round;stroke-miterlimit:4;stroke-dasharray:none;stroke-opacity:1;paint-order:stroke fill markers" />
    <circle
       style="opacity:1;fill:#006e3c;fill-opacity:1;fill-rule:nonzero;stroke:none;stroke-width:15.66429043;stroke-linecap:square;stroke-linejoin:round;stroke-miterlimit:4;stroke-dasharray:none;stroke-opacity:1;paint-order:stroke fill markers"
       id="circle3063"
       cx="-194.91479"
       cy="335.98108"
       r="2.8347781" />
    <circle
       style="opacity:1;fill:#ffffff;fill-opacity:1;fill-rule:nonzero;stroke:none;stroke-width:23.73377037;stroke-linecap:square;stroke-linejoin:round;stroke-miterlimit:4;stroke-dasharray:none;stroke-opacity:1;paint-order:stroke fill markers"
       id="circle3087"
       cx="-159.35129"
       cy="335.98108"
       r="4.2951212" />
    <circle
       r="2.8347781"
       cy="335.98108"
       cx="-159.35129"
       id="circle3089"
       style="opacity:1;fill:#006e3c;fill-opacity:1;fill-rule:nonzero;stroke:none;stroke-width:15.66429043;stroke-linecap:square;stroke-linejoin:round;stroke-miterlimit:4;stroke-dasharray:none;stroke-opacity:1;paint-order:stroke fill markers" />
    <path
       sodipodi:nodetypes="ccccccc"
       inkscape:connector-curvature="0"
       id="path852"
       d="m -153.28406,290.24918 4.77042,1.85824 0.33283,8.51464 -52.80113,79.2019 -4.77042,-1.85824 -0.33283,-8.51465 z"
       style="opacity:1;fill:#dc0a14;fill-opacity:1;fill-rule:nonzero;stroke:none;stroke-width:0.18026449;stroke-linecap:square;stroke-linejoin:round;stroke-miterlimit:4;stroke-dasharray:none;stroke-opacity:1;paint-order:stroke fill markers" />
    <path
       id="path872"
       d="m -203.53337,290.0364 c -1.99441,0 -3.59976,1.6059 -3.59977,3.60029 l -1e-5,82.79961 c 0,1.99439 1.60539,3.60029 3.59978,3.60029 h 52.80039 c 1.99441,0 3.59979,-1.6059 3.59979,-3.6003 V 293.6367 c -10e-6,-1.9944 -1.60538,-3.6003 -3.59978,-3.6003 z m 1e-5,1.50016 52.80039,10e-6 c 1.16339,-10e-6 2.09961,0.93672 2.09962,2.10013 l -1e-5,82.79959 c 0,1.1634 -0.93621,2.10013 -2.09961,2.10013 l -52.8004,10e-6 c -1.1634,-10e-6 -2.09961,-0.93674 -2.09961,-2.10013 v -82.79961 c 0,-1.16339 0.93621,-2.10012 2.09962,-2.10013 z"
       style="opacity:1;fill:#ffffff;fill-opacity:1;fill-rule:nonzero;stroke:none;stroke-width:0.60901546;stroke-linecap:square;stroke-linejoin:round;stroke-miterlimit:4;stroke-dasharray:none;stroke-opacity:1;paint-order:stroke fill markers"
       inkscape:connector-curvature="0" />
  </g>
</svg>
