<?xml version="1.0" encoding="UTF-8" standalone="no"?>
<!-- Created with Inkscape (http://www.inkscape.org/) -->

<svg
   xmlns:dc="http://purl.org/dc/elements/1.1/"
   xmlns:cc="http://creativecommons.org/ns#"
   xmlns:rdf="http://www.w3.org/1999/02/22-rdf-syntax-ns#"
   xmlns:svg="http://www.w3.org/2000/svg"
   xmlns="http://www.w3.org/2000/svg"
   xmlns:sodipodi="http://sodipodi.sourceforge.net/DTD/sodipodi-0.dtd"
   xmlns:inkscape="http://www.inkscape.org/namespaces/inkscape"
   width="61mm"
   height="61mm"
   viewBox="0 0 61 61"
   version="1.1"
   id="svg2000"
   inkscape:version="0.92.2 (5c3e80d, 2017-08-06)"
   sodipodi:docname="33.svg">
  <defs
     id="defs1994" />
  <sodipodi:namedview
     id="base"
     pagecolor="#ffffff"
     bordercolor="#666666"
     borderopacity="1.0"
     inkscape:pageopacity="0.0"
     inkscape:pageshadow="2"
     inkscape:zoom="1.979899"
     inkscape:cx="121.98301"
     inkscape:cy="77.675044"
     inkscape:document-units="mm"
     inkscape:current-layer="layer1"
     showgrid="false"
     inkscape:window-width="1920"
     inkscape:window-height="1057"
     inkscape:window-x="-8"
     inkscape:window-y="-8"
     inkscape:window-maximized="1" />
  <metadata
     id="metadata1997">
    <rdf:RDF>
      <cc:Work
         rdf:about="">
        <dc:format>image/svg+xml</dc:format>
        <dc:type
           rdf:resource="http://purl.org/dc/dcmitype/StillImage" />
        <dc:title></dc:title>
      </cc:Work>
    </rdf:RDF>
  </metadata>
  <g
     inkscape:label="Layer 1"
     inkscape:groupmode="layer"
     id="layer1"
     transform="translate(0,-236)">
    <circle
       style="opacity:1;fill:#dc0a14;fill-opacity:1;fill-rule:nonzero;stroke:none;stroke-width:0.18410923;stroke-linecap:square;stroke-linejoin:round;stroke-miterlimit:4;stroke-dasharray:none;stroke-opacity:1;paint-order:stroke fill markers"
       id="path17"
       cx="30.500002"
       cy="266.5"
       r="30.000002" />
    <circle
       r="24"
       cy="266.5"
       cx="30.500002"
       id="circle1748"
       style="opacity:1;fill:#fad20a;fill-opacity:1;fill-rule:nonzero;stroke:none;stroke-width:0.14728737;stroke-linecap:square;stroke-linejoin:round;stroke-miterlimit:4;stroke-dasharray:none;stroke-opacity:1;paint-order:stroke fill markers" />
    <path
       d="m 17.7,266.10012 h 25.599997 v -2.2 H 17.7 Z"
       style="fill:#000000;fill-opacity:1;fill-rule:nonzero;stroke:none;stroke-width:0.06919187"
       id="path1086"
       inkscape:connector-curvature="0" />
    <path
       style="fill:#000000;fill-opacity:1;fill-rule:nonzero;stroke:none;stroke-width:0.07411904"
       d="m 18.8,267.79995 v 6.30039 h 2.99982 v -2.70009 h 17.399967 v 2.70009 h 3.00033 v -6.30039 h -3.00033 v 2.70009 H 21.79982 v -2.70009 z"
       id="path1088"
       inkscape:connector-curvature="0" />
    <ellipse
       style="opacity:1;fill:#000000;fill-opacity:1;fill-rule:nonzero;stroke:none;stroke-width:1.57871616;stroke-linecap:square;stroke-linejoin:round;stroke-miterlimit:4;stroke-dasharray:none;stroke-opacity:1;paint-order:stroke fill markers"
       id="path1915"
       cx="30.499992"
       cy="270.95016"
       rx="2.4000001"
       ry="2.2" />
    <path
       style="fill:#003c82;fill-opacity:1;fill-rule:nonzero;stroke:none;stroke-width:0.17160568"
       d="m 30.50018,278.89982 c -3.6732,0 -5.66083,1.44837 -7.41609,1.54719 -2.56653,-0.0802 -3.6222,-1.29715 -6.58409,-1.51153 v 1.43815 c 2.78229,0.21741 3.14612,1.40951 6.40633,1.50947 v 0.016 c 0.0638,0 0.11603,0.002 0.17776,0 0.0858,0.002 0.1639,0 0.25374,0 v -0.016 c 2.56027,-0.14912 3.56262,-1.54667 7.16235,-1.54667 3.59973,0 4.60208,1.39755 7.162347,1.54667 v 0.016 c 0.0898,0 0.1679,0.002 0.25373,0 0.0617,0.002 0.11399,0 0.17777,0 v -0.016 c 3.26021,-0.1 3.62404,-1.29206 6.406329,-1.50947 v -1.43815 c -2.961889,0.21438 -4.017559,1.43133 -6.584099,1.51153 -1.755247,-0.0988 -3.742877,-1.54719 -7.416077,-1.54719 z"
       id="rect1981"
       inkscape:connector-curvature="0" />
    <path
       id="path1999"
       d="m 30.50018,275.89965 c -3.6732,0 -5.66083,1.44837 -7.41609,1.54719 -2.56653,-0.0802 -3.6222,-1.29715 -6.58409,-1.51153 v 1.43815 c 2.78229,0.21741 3.14612,1.40951 6.40633,1.50947 v 0.016 c 0.0638,0 0.11603,0.002 0.17776,0 0.0858,0.002 0.1639,0 0.25374,0 v -0.016 c 2.56027,-0.14912 3.56262,-1.54667 7.16235,-1.54667 3.59973,0 4.60208,1.39755 7.162347,1.54667 v 0.016 c 0.0898,0 0.1679,0.002 0.25373,0 0.0617,0.002 0.11399,0 0.17777,0 v -0.016 c 3.26021,-0.1 3.62404,-1.29206 6.406329,-1.50947 v -1.43815 c -2.961889,0.21438 -4.017559,1.43133 -6.584099,1.51153 -1.755247,-0.0988 -3.742877,-1.54719 -7.416077,-1.54719 z"
       style="fill:#003c82;fill-opacity:1;fill-rule:nonzero;stroke:none;stroke-width:0.17160568"
       inkscape:connector-curvature="0" />
    <ellipse
       style="opacity:1;fill:#e15500;fill-opacity:1;fill-rule:nonzero;stroke:#000000;stroke-width:0.80003726;stroke-linecap:square;stroke-linejoin:round;stroke-miterlimit:4;stroke-dasharray:none;stroke-opacity:1;paint-order:stroke fill markers"
       id="path1941-8-9"
       cx="30.5"
       cy="258.5"
       rx="12.199981"
       ry="8.1999817" />
    <rect
       transform="rotate(-45)"
       style="opacity:1;fill:#dc0a14;fill-opacity:1;fill-rule:nonzero;stroke:none;stroke-width:1.7125293;stroke-linecap:square;stroke-linejoin:round;stroke-miterlimit:4;stroke-dasharray:none;stroke-opacity:1;paint-order:stroke fill markers"
       id="rect837"
       width="6"
       height="58"
       x="-169.87718"
       y="181.01068" />
  </g>
</svg>
