<?xml version="1.0" encoding="UTF-8" standalone="no"?>
<!-- Created with Inkscape (http://www.inkscape.org/) -->

<svg
   xmlns:dc="http://purl.org/dc/elements/1.1/"
   xmlns:cc="http://creativecommons.org/ns#"
   xmlns:rdf="http://www.w3.org/1999/02/22-rdf-syntax-ns#"
   xmlns:svg="http://www.w3.org/2000/svg"
   xmlns="http://www.w3.org/2000/svg"
   xmlns:sodipodi="http://sodipodi.sourceforge.net/DTD/sodipodi-0.dtd"
   xmlns:inkscape="http://www.inkscape.org/namespaces/inkscape"
   width="61mm"
   height="61mm"
   viewBox="0 0 61 61"
   version="1.1"
   id="svg2000"
   inkscape:version="0.92.2 (5c3e80d, 2017-08-06)"
   sodipodi:docname="33.svg">
  <defs
     id="defs1994" />
  <sodipodi:namedview
     id="base"
     pagecolor="#ffffff"
     bordercolor="#666666"
     borderopacity="1.0"
     inkscape:pageopacity="0.0"
     inkscape:pageshadow="2"
     inkscape:zoom="1.979899"
     inkscape:cx="188.9672"
     inkscape:cy="96.143528"
     inkscape:document-units="mm"
     inkscape:current-layer="layer1"
     showgrid="false"
     inkscape:window-width="1920"
     inkscape:window-height="1057"
     inkscape:window-x="-8"
     inkscape:window-y="-8"
     inkscape:window-maximized="1" />
  <metadata
     id="metadata1997">
    <rdf:RDF>
      <cc:Work
         rdf:about="">
        <dc:format>image/svg+xml</dc:format>
        <dc:type
           rdf:resource="http://purl.org/dc/dcmitype/StillImage" />
        <dc:title></dc:title>
      </cc:Work>
    </rdf:RDF>
  </metadata>
  <g
     inkscape:label="Layer 1"
     inkscape:groupmode="layer"
     id="layer1"
     transform="translate(0,-236)">
    <circle
       style="opacity:1;fill:#dc0a14;fill-opacity:1;fill-rule:nonzero;stroke:none;stroke-width:0.18410923;stroke-linecap:square;stroke-linejoin:round;stroke-miterlimit:4;stroke-dasharray:none;stroke-opacity:1;paint-order:stroke fill markers"
       id="path17"
       cx="30.500002"
       cy="266.5"
       r="30.000002" />
    <circle
       r="24"
       cy="266.5"
       cx="30.500002"
       id="circle1748"
       style="opacity:1;fill:#fad20a;fill-opacity:1;fill-rule:nonzero;stroke:none;stroke-width:0.14728737;stroke-linecap:square;stroke-linejoin:round;stroke-miterlimit:4;stroke-dasharray:none;stroke-opacity:1;paint-order:stroke fill markers" />
    <path
       sodipodi:nodetypes="ccccccccccccccc"
       inkscape:connector-curvature="0"
       id="path2305"
       style="fill:#e15500;fill-opacity:1;fill-rule:evenodd;stroke:none;stroke-width:0.07217934"
       d="m 20.8,266.39993 c -1.72496,-7e-5 -3.28923,-1.58979 -3.3,-3 0.0264,-1.52666 0.53276,-2.48908 2.3,-2.9 -2.35335,-1.18933 -1.99646,-3.2733 -1.53,-4.6 0.5897,-1.91543 1.91502,-2.39246 4.13,-2.2 -1.24735,-1.20584 -0.50504,-2.52857 0.0111,-3.17022 1.00259,-1.16281 3.31551,-1.15927 4.7689,6e-5 0.73673,-2.30669 1.82863,-3.02112 3.22,-3.02984 1.80305,0.009 2.63011,1.34217 3.1,3.02984 2.20618,-1.39943 4.13237,-1.19187 5.1,1.00986 0.399444,1.13481 0.205361,2.25652 -0.6,3.1703 2.411485,-0.47963 4.098275,0.34306 4.780005,1.44 0.91393,1.60272 0.17582,3.17345 -0.68,4.19035 0.77945,0.38631 1.38761,1.45477 1.39999,2.15965 -0.007,2.94462 -2.29754,3.90823 -3.3,3.9" />
    <path
       inkscape:connector-curvature="0"
       id="path2354"
       style="fill:#000000;stroke:none;stroke-width:0.07217934;stroke-linecap:butt;stroke-linejoin:miter;stroke-miterlimit:10;stroke-dasharray:none;stroke-opacity:1"
       d="m 37.43333,255.33214 -5.48888,5.19382 5.48888,-4.61672 z" />
    <path
       inkscape:connector-curvature="0"
       id="path2374"
       style="fill:#000000;stroke:none;stroke-width:0.07217934;stroke-linecap:butt;stroke-linejoin:miter;stroke-miterlimit:10;stroke-dasharray:none;stroke-opacity:1"
       d="M 35.7,258.50615 32.37778,260.38172 35.7,258.79469 Z" />
    <path
       inkscape:connector-curvature="0"
       id="path2386"
       style="fill:#000000;stroke:none;stroke-width:0.07217934;stroke-linecap:butt;stroke-linejoin:miter;stroke-miterlimit:10;stroke-dasharray:none;stroke-opacity:1"
       d="m 36.56667,263.12288 -4.47778,-0.86562 4.33333,1.44272 z" />
    <path
       inkscape:connector-curvature="0"
       id="path2390"
       style="fill:#000000;stroke:none;stroke-width:0.07217934;stroke-linecap:butt;stroke-linejoin:miter;stroke-miterlimit:10;stroke-dasharray:none;stroke-opacity:1"
       d="m 33.1,253.45661 -2.16667,6.20373 2.45556,-6.05947 z" />
    <path
       inkscape:connector-curvature="0"
       id="path2394"
       style="fill:#000000;stroke:none;stroke-width:0.07217934;stroke-linecap:butt;stroke-linejoin:miter;stroke-miterlimit:10;stroke-dasharray:none;stroke-opacity:1"
       d="m 31.65556,251.72533 -1.3,7.35793 1.58889,-7.35793 z" />
    <path
       inkscape:connector-curvature="0"
       id="path2398"
       style="fill:#000000;stroke:none;stroke-width:0.07217934;stroke-linecap:butt;stroke-linejoin:miter;stroke-miterlimit:10;stroke-dasharray:none;stroke-opacity:1"
       d="m 38.733334,258.50615 -7.077774,2.45265 7.077774,-2.01983 z" />
    <path
       inkscape:connector-curvature="0"
       id="path2402"
       style="fill:#000000;stroke:none;stroke-width:0.07217934;stroke-linecap:butt;stroke-linejoin:miter;stroke-miterlimit:10;stroke-dasharray:none;stroke-opacity:1"
       d="m 38.58889,259.94888 -6.64444,1.29846 6.788884,-0.86562 z" />
    <path
       inkscape:connector-curvature="0"
       id="path2406"
       style="fill:#000000;stroke:none;stroke-width:0.07217934;stroke-linecap:butt;stroke-linejoin:miter;stroke-miterlimit:10;stroke-dasharray:none;stroke-opacity:1"
       d="m 38.15556,261.82442 -5.92223,-0.14432 5.92223,0.57709 z" />
    <path
       inkscape:connector-curvature="0"
       id="path2410"
       style="fill:#000000;stroke:none;stroke-width:0.07217934;stroke-linecap:butt;stroke-linejoin:miter;stroke-miterlimit:10;stroke-dasharray:none;stroke-opacity:1"
       d="m 36.13333,253.88943 -4.04444,5.19383 4.18889,-5.04958 z" />
    <path
       inkscape:connector-curvature="0"
       id="path2414"
       style="fill:#000000;stroke:none;stroke-width:0.07217934;stroke-linecap:butt;stroke-linejoin:miter;stroke-miterlimit:10;stroke-dasharray:none;stroke-opacity:1"
       d="m 22.84444,255.76497 5.48889,5.04956 -5.34444,-4.61675 z" />
    <path
       inkscape:connector-curvature="0"
       id="path2426"
       style="fill:#000000;stroke:none;stroke-width:0.07217934;stroke-linecap:butt;stroke-linejoin:miter;stroke-miterlimit:10;stroke-dasharray:none;stroke-opacity:1"
       d="m 24.28889,258.65042 3.17778,2.01983 -3.17778,-1.73128 z" />
    <path
       inkscape:connector-curvature="0"
       id="path2434"
       style="fill:#000000;stroke:none;stroke-width:0.07217934;stroke-linecap:butt;stroke-linejoin:miter;stroke-miterlimit:10;stroke-dasharray:none;stroke-opacity:1"
       d="m 26.74444,253.60087 1.87778,6.05947 L 26.6,253.74516 Z" />
    <path
       inkscape:connector-curvature="0"
       id="path2438"
       style="fill:#000000;stroke:none;stroke-width:0.07217934;stroke-linecap:butt;stroke-linejoin:miter;stroke-miterlimit:10;stroke-dasharray:none;stroke-opacity:1"
       d="M 28.04444,251.86961 29.2,259.08326 27.9,251.86961 Z" />
    <path
       inkscape:connector-curvature="0"
       id="path2442"
       style="fill:#000000;stroke:none;stroke-width:0.07217934;stroke-linecap:butt;stroke-linejoin:miter;stroke-miterlimit:10;stroke-dasharray:none;stroke-opacity:1"
       d="m 21.97778,259.3718 6.93333,2.45262 -6.93333,-2.16408 z" />
    <path
       inkscape:connector-curvature="0"
       id="path2446"
       style="fill:#000000;stroke:none;stroke-width:0.07217934;stroke-linecap:butt;stroke-linejoin:miter;stroke-miterlimit:10;stroke-dasharray:none;stroke-opacity:1"
       d="m 22.12222,260.67025 6.5,1.44274 -6.64444,-1.00992 z" />
    <path
       inkscape:connector-curvature="0"
       id="path2450"
       style="fill:#000000;stroke:none;stroke-width:0.07217934;stroke-linecap:butt;stroke-linejoin:miter;stroke-miterlimit:10;stroke-dasharray:none;stroke-opacity:1"
       d="m 22.55555,262.69007 5.77778,-0.14434 -5.77778,0.57708 z" />
    <path
       inkscape:connector-curvature="0"
       id="path2454"
       style="fill:#000000;stroke:none;stroke-width:0.07217934;stroke-linecap:butt;stroke-linejoin:miter;stroke-miterlimit:10;stroke-dasharray:none;stroke-opacity:1"
       d="m 25.3,255.76497 2.31111,3.31829 -2.45556,-3.02974 z" />
    <path
       inkscape:connector-curvature="0"
       id="path2358"
       style="fill:#000000;stroke:none;stroke-width:0.07217934;stroke-linecap:butt;stroke-linejoin:miter;stroke-miterlimit:10;stroke-dasharray:none;stroke-opacity:1"
       d="m 35.26667,255.90924 -0.14445,0.43282 0.43333,0.28853 0.43333,-0.28853 0.72223,0.57709 0.14445,-1.00991 -0.57778,-1.00992 -0.28889,0.72138 -0.57778,0.14433 z" />
    <path
       inkscape:connector-curvature="0"
       id="path2362"
       style="fill:#000000;stroke:none;stroke-width:0.07217934;stroke-linecap:butt;stroke-linejoin:miter;stroke-miterlimit:10;stroke-dasharray:none;stroke-opacity:1"
       d="m 35.26667,261.24734 0.14445,0.72137 0.43333,-0.14434 0.28889,0.28857 h 0.72222 l 0.28888,-0.57706 -0.57777,-0.43281 -0.57778,-0.28854 -0.28889,0.43281 z" />
    <path
       inkscape:connector-curvature="0"
       id="path2366"
       style="fill:#000000;stroke:none;stroke-width:0.07217934;stroke-linecap:butt;stroke-linejoin:miter;stroke-miterlimit:10;stroke-dasharray:none;stroke-opacity:1"
       d="m 29.92222,255.47643 0.28889,-0.28854 0.72222,1.00989 -1.15555,-0.14433 0.14445,-0.43282 z" />
    <path
       inkscape:connector-curvature="0"
       id="path2370"
       style="fill:#000000;stroke:none;stroke-width:0.07217934;stroke-linecap:butt;stroke-linejoin:miter;stroke-miterlimit:10;stroke-dasharray:none;stroke-opacity:1"
       d="m 33.1,255.18789 -0.14445,0.72135 0.28889,0.28854 0.14445,0.14434 0.14445,-0.57711 0.14445,-0.43281 -0.14445,-0.57709 -0.14445,0.28855 -0.14445,-0.14434 z" />
    <path
       inkscape:connector-curvature="0"
       id="path2378"
       style="fill:#000000;stroke:none;stroke-width:0.07217934;stroke-linecap:butt;stroke-linejoin:miter;stroke-miterlimit:10;stroke-dasharray:none;stroke-opacity:1"
       d="m 24,257.64051 0.57778,0.57711 -0.14445,0.28853 -0.43334,-0.43281 -0.14445,0.57708 -0.86666,-1.00991 -0.43334,-1.00992 0.72222,0.72138 0.43334,0.14434 z" />
    <path
       inkscape:connector-curvature="0"
       id="path2382"
       style="fill:#000000;stroke:none;stroke-width:0.07217934;stroke-linecap:butt;stroke-linejoin:miter;stroke-miterlimit:10;stroke-dasharray:none;stroke-opacity:1"
       d="m 30.35556,253.45661 0.14445,-0.86563 0.14445,0.14433 0.14445,-0.57709 h 0.28887 l 0.28889,1.0099 -0.43334,0.72137 -0.14445,0.43282 -0.14445,-0.72137 z" />
    <path
       inkscape:connector-curvature="0"
       id="path2418"
       style="fill:#000000;stroke:none;stroke-width:0.07217934;stroke-linecap:butt;stroke-linejoin:miter;stroke-miterlimit:10;stroke-dasharray:none;stroke-opacity:1"
       d="M 37.28889,257.7848 37,257.64046 l -0.43333,0.72137 0.72222,-0.14433 z" />
    <path
       inkscape:connector-curvature="0"
       id="path2422"
       style="fill:#000000;stroke:none;stroke-width:0.07217934;stroke-linecap:butt;stroke-linejoin:miter;stroke-miterlimit:10;stroke-dasharray:none;stroke-opacity:1"
       d="m 26.74444,255.33214 0.14445,0.72138 -0.28889,0.28854 -0.14445,0.14434 -0.14445,-0.57716 v -0.43281 l 0.14445,-0.57711 0.14445,0.28857 v -0.14434 z" />
    <path
       inkscape:connector-curvature="0"
       id="path2430"
       style="fill:#000000;stroke:none;stroke-width:0.07217934;stroke-linecap:butt;stroke-linejoin:miter;stroke-miterlimit:10;stroke-dasharray:none;stroke-opacity:1"
       d="m 25.73333,261.96871 -0.43333,0.43281 -0.57778,0.28855 h -0.57778 v -0.28855 l 0.14445,-0.28853 0.72222,-0.43282 0.14446,0.28854 0.43333,-0.14434 z" />
    <path
       inkscape:connector-curvature="0"
       d="m 29.58117,264.04898 c -0.92077,0.26291 -1.44502,-0.56655 -1.52176,-1.41864 -0.0555,-0.49441 0.16002,-0.69743 -0.007,-1.17486 0.14042,0.0711 0.26127,0.20653 0.32335,0.32159 0.0947,-0.51468 0.15349,-1.0631 0.10777,-1.55069 0.20898,0.0542 0.35269,0.43337 0.44091,0.61279 0.23514,-0.73135 0.29721,-1.39152 0.13063,-1.78433 0.21218,0.0237 0.33633,0.28104 0.48005,0.57221 0.14042,-0.19299 0.11756,-0.5925 0.11756,-1.00556 0.0229,-0.1964 0.0555,-0.4164 0.17308,-0.52151 0.1143,0.92444 0.5519,0.84642 0.79681,1.87579 0.0882,-0.20322 0.10451,-0.42321 0.0816,-0.70092 0.28743,0.17268 0.53892,0.81931 0.67267,1.74376 0.12736,-0.0678 0.18614,-0.32844 0.23513,-0.62293 0.27764,0.40975 0.37564,0.92093 0.23513,1.5304 -0.0718,0.17269 -0.11757,0.34872 -0.0947,0.54511 0.11756,-0.0745 0.15675,-0.25393 0.22535,-0.40294 0.049,0.22 0.098,0.48077 0.0555,0.67034 -0.14043,1.09703 -1.303,1.59144 -1.9986,1.2595 0.49321,-0.32512 1.0026,-0.45034 1.12995,-1.48632 -0.0718,0.0711 -0.1992,0.13543 -0.27106,0.15912 0.10777,-0.35222 0.14042,-0.66699 0.0131,-0.8431 -0.13389,0.36568 -0.31997,0.58234 -0.46368,0.62292 0.16982,-0.29118 0.2024,-0.75516 -0.29062,-1.51012 0.0947,0.90064 0,1.31704 -0.22535,1.62868 -0.14042,-0.17267 -0.29062,-0.4232 -0.36248,-0.76529 -0.14042,0.36569 -0.15349,0.80587 0.0196,1.34084 -0.17634,-0.0508 -0.31676,-0.22682 -0.50299,-1.32738 -0.23513,0.50222 0.0842,1.005 -0.4507,0.74833 0.14043,0.87707 0.49961,1.33752 0.95031,1.48301 z"
       id="path2456"
       style="font-style:normal;font-variant:normal;font-weight:normal;font-stretch:normal;letter-spacing:normal;word-spacing:normal;text-anchor:start;fill:#000000;fill-opacity:1;fill-rule:evenodd;stroke:none;stroke-width:191.53631592" />
    <path
       style="fill:#000000;fill-opacity:1;fill-rule:nonzero;stroke:none;stroke-width:0.16160126"
       d="m 28.80995,263.99968 c -2.24272,0.0195 -4.02556,0.21788 -5.32974,0.34358 -1.09643,0.11552 -2.35616,0.91326 -2.73036,2.40504 l -1.18861,4.60564 c -0.59482,0.2607 -1.38981,1.175 -1.41124,2.69293 l 0.37141,4.38296 c 0.0884,0.82095 0.38678,1.7879 1.02161,2.16366 v 2.90649 h 2.87864 v -2.87862 c 1.85408,0.13384 7.33948,0.19113 8.07834,0.18569 0.73886,0.006 6.22473,-0.0518 8.078818,-0.18569 v 2.87862 h 2.87816 v -2.90649 c 0.634829,-0.37576 0.933209,-1.34271 1.021607,-2.16366 L 42.85,274.04687 c -0.02145,-1.51793 -0.816428,-2.43223 -1.411261,-2.69293 L 40.25015,266.7483 c -0.374211,-1.49178 -1.633926,-2.28952 -2.73037,-2.40504 -1.30417,-0.1257 -3.08702,-0.32417 -5.32974,-0.34358 z"
       id="path2706"
       inkscape:connector-curvature="0"
       sodipodi:nodetypes="cccccccccccccccccccccc" />
    <path
       style="fill:#fad20a;fill-opacity:1;fill-rule:nonzero;stroke:none;stroke-width:0.16159432"
       d="m 21.28912,271.11111 0.88193,-4.14158 c 0.17541,-0.69152 0.76982,-1.10116 1.30947,-1.18805 l 2.35838,-0.22298 c 1.01226,-0.11123 3.38987,-0.16158 4.6611,-0.16713 1.27124,0.006 3.64884,0.0556 4.6611,0.16713 l 2.35886,0.22298 c 0.53966,0.0869 1.133575,0.49653 1.308993,1.18805 l 0.88193,4.14158 C 36.09996,270.7948 32.68102,270.72348 30.5,270.68405 c -2.18103,0.0397 -5.59996,0.11075 -9.21088,0.42706 z"
       id="path2708"
       inkscape:connector-curvature="0" />
    <rect
       style="opacity:1;fill:#fad20a;fill-opacity:1;fill-rule:nonzero;stroke:none;stroke-width:12.55862999;stroke-linecap:square;stroke-linejoin:round;stroke-miterlimit:4;stroke-dasharray:none;stroke-opacity:1;paint-order:stroke fill markers"
       id="rect2710"
       width="18.571466"
       height="0.83571744"
       x="21.214293"
       y="273.19281" />
    <rect
       y="274.86414"
       x="21.214293"
       height="0.83571744"
       width="18.571466"
       id="rect2712"
       style="opacity:1;fill:#fad20a;fill-opacity:1;fill-rule:nonzero;stroke:none;stroke-width:12.55862999;stroke-linecap:square;stroke-linejoin:round;stroke-miterlimit:4;stroke-dasharray:none;stroke-opacity:1;paint-order:stroke fill markers" />
    <circle
       r="2.3214333"
       cy="274.26038"
       cx="20.889296"
       id="circle2714"
       style="opacity:1;fill:#000000;fill-opacity:1;fill-rule:nonzero;stroke:none;stroke-width:12.82766438;stroke-linecap:square;stroke-linejoin:round;stroke-miterlimit:4;stroke-dasharray:none;stroke-opacity:1;paint-order:stroke fill markers" />
    <circle
       style="opacity:1;fill:#fad20a;fill-opacity:1;fill-rule:nonzero;stroke:none;stroke-width:8.46626091;stroke-linecap:square;stroke-linejoin:round;stroke-miterlimit:4;stroke-dasharray:none;stroke-opacity:1;paint-order:stroke fill markers"
       id="circle2716"
       cx="20.889296"
       cy="274.26038"
       r="1.5321463" />
    <circle
       style="opacity:1;fill:#000000;fill-opacity:1;fill-rule:nonzero;stroke:none;stroke-width:12.82766438;stroke-linecap:square;stroke-linejoin:round;stroke-miterlimit:4;stroke-dasharray:none;stroke-opacity:1;paint-order:stroke fill markers"
       id="circle2718"
       cx="40.110664"
       cy="274.26038"
       r="2.3214333" />
    <circle
       r="1.5321463"
       cy="274.26038"
       cx="40.110664"
       id="circle2720"
       style="opacity:1;fill:#fad20a;fill-opacity:1;fill-rule:nonzero;stroke:none;stroke-width:8.46626091;stroke-linecap:square;stroke-linejoin:round;stroke-miterlimit:4;stroke-dasharray:none;stroke-opacity:1;paint-order:stroke fill markers" />
    <rect
       y="181.01068"
       x="-169.87718"
       height="58"
       width="6"
       id="rect851"
       style="opacity:1;fill:#dc0a14;fill-opacity:1;fill-rule:nonzero;stroke:none;stroke-width:1.7125293;stroke-linecap:square;stroke-linejoin:round;stroke-miterlimit:4;stroke-dasharray:none;stroke-opacity:1;paint-order:stroke fill markers"
       transform="rotate(-45)" />
  </g>
</svg>
