<?xml version="1.0" encoding="UTF-8" standalone="no"?>
<!-- Created with Inkscape (http://www.inkscape.org/) -->

<svg
   xmlns:dc="http://purl.org/dc/elements/1.1/"
   xmlns:cc="http://creativecommons.org/ns#"
   xmlns:rdf="http://www.w3.org/1999/02/22-rdf-syntax-ns#"
   xmlns:svg="http://www.w3.org/2000/svg"
   xmlns="http://www.w3.org/2000/svg"
   xmlns:sodipodi="http://sodipodi.sourceforge.net/DTD/sodipodi-0.dtd"
   xmlns:inkscape="http://www.inkscape.org/namespaces/inkscape"
   width="61.400002mm"
   height="81.400002mm"
   viewBox="0 0 61.400002 81.400002"
   version="1.1"
   id="svg825"
   inkscape:version="0.92.2 (5c3e80d, 2017-08-06)"
   sodipodi:docname="22.svg">
  <defs
     id="defs819" />
  <sodipodi:namedview
     id="base"
     pagecolor="#ffffff"
     bordercolor="#666666"
     borderopacity="1.0"
     inkscape:pageopacity="0.0"
     inkscape:pageshadow="2"
     inkscape:zoom="1.2995022"
     inkscape:cx="161.08704"
     inkscape:cy="38.73694"
     inkscape:document-units="mm"
     inkscape:current-layer="layer1"
     showgrid="false"
     fit-margin-top="0"
     fit-margin-left="0"
     fit-margin-right="0"
     fit-margin-bottom="0"
     showborder="true"
     inkscape:window-width="1920"
     inkscape:window-height="1057"
     inkscape:window-x="-8"
     inkscape:window-y="-8"
     inkscape:window-maximized="1" />
  <metadata
     id="metadata822">
    <rdf:RDF>
      <cc:Work
         rdf:about="">
        <dc:format>image/svg+xml</dc:format>
        <dc:type
           rdf:resource="http://purl.org/dc/dcmitype/StillImage" />
        <dc:title></dc:title>
      </cc:Work>
    </rdf:RDF>
  </metadata>
  <g
     inkscape:label="Layer 1"
     inkscape:groupmode="layer"
     id="layer1"
     transform="translate(222.83333,-284.04641)">
    <rect
       style="opacity:1;fill:#000000;fill-opacity:1;fill-rule:nonzero;stroke:none;stroke-width:0.57753444;stroke-linecap:square;stroke-linejoin:round;stroke-miterlimit:4;stroke-dasharray:none;stroke-opacity:1;paint-order:stroke fill markers"
       id="rect1373"
       width="60.400002"
       height="80.400002"
       x="-222.33333"
       y="284.54642"
       rx="3.8"
       ry="3.8" />
    <rect
       y="284.74643"
       x="-222.13333"
       height="80"
       width="60"
       id="rect1375"
       style="opacity:1;fill:#ffffff;fill-opacity:1;fill-rule:nonzero;stroke:none;stroke-width:0.57418531;stroke-linecap:square;stroke-linejoin:round;stroke-miterlimit:4;stroke-dasharray:none;stroke-opacity:1;paint-order:stroke fill markers"
       rx="3.5999999"
       ry="3.5999999" />
    <rect
       style="opacity:1;fill:#003c82;fill-opacity:1;fill-rule:nonzero;stroke:none;stroke-width:0.54905295;stroke-linecap:square;stroke-linejoin:round;stroke-miterlimit:4;stroke-dasharray:none;stroke-opacity:1;paint-order:stroke fill markers"
       id="rect1385"
       width="57"
       height="77"
       x="-220.63333"
       y="286.2464"
       rx="2.0999999"
       ry="2.0999999" />
    <rect
       style="opacity:1;fill:#ffffff;fill-opacity:1;fill-rule:nonzero;stroke:none;stroke-width:1.46507215;stroke-linecap:square;stroke-linejoin:round;stroke-miterlimit:4;stroke-dasharray:none;stroke-opacity:1;paint-order:stroke fill markers"
       id="rect860"
       width="40"
       height="40"
       x="-212.13333"
       y="304.74643" />
    <path
       style="color:#000000;font-style:normal;font-variant:normal;font-weight:normal;font-stretch:normal;font-size:medium;line-height:normal;font-family:Sans;-inkscape-font-specification:Sans;text-indent:0;text-align:start;text-decoration:none;text-decoration-line:none;letter-spacing:normal;word-spacing:normal;text-transform:none;writing-mode:lr-tb;direction:ltr;baseline-shift:baseline;text-anchor:start;display:inline;overflow:visible;visibility:visible;fill:#000000;fill-opacity:1;fill-rule:nonzero;stroke:none;stroke-width:0.15000002;marker:none;enable-background:accumulate"
       d="m -209.76132,319.49592 h 34.2606 c 0.74893,0 1.3674,0.61842 1.3674,1.36739 v 7.3026 l -8.16,1.19401 h -27.84 v -4.96399 l 0.372,-0.37601 z"
       id="path4165"
       inkscape:connector-curvature="0"
       sodipodi:nodetypes="csscccccc" />
    <path
       sodipodi:nodetypes="sssssssss"
       id="path4173"
       style="fill:#ffffff;fill-opacity:1;fill-rule:nonzero;stroke:none;stroke-width:0.05"
       d="m -181.68132,321.34091 c 0,-0.33133 0.26868,-0.59999 0.60001,-0.59999 h 5.45999 c 0.33147,0 0.6,0.26866 0.6,0.59999 v 2.13 c 0,0.33134 -0.26853,0.6 -0.6,0.6 h -5.45999 c -0.33133,0 -0.60001,-0.26866 -0.60001,-0.6 z"
       inkscape:connector-curvature="0" />
    <path
       inkscape:connector-curvature="0"
       d="m -182.80931,321.34091 c 0,-0.33133 -0.26867,-0.59999 -0.60001,-0.59999 h -5.45999 c -0.33147,0 -0.6,0.26866 -0.6,0.59999 v 2.13 c 0,0.33134 0.26853,0.6 0.6,0.6 h 5.45999 c 0.33134,0 0.60001,-0.26866 0.60001,-0.6 z"
       style="fill:#ffffff;fill-opacity:1;fill-rule:nonzero;stroke:none;stroke-width:0.05"
       id="path4175"
       sodipodi:nodetypes="sssssssss" />
    <path
       sodipodi:nodetypes="sssssssss"
       id="path4177"
       style="fill:#ffffff;fill-opacity:1;fill-rule:nonzero;stroke:none;stroke-width:0.05"
       d="m -190.59731,321.34091 c 0,-0.33133 -0.26866,-0.59999 -0.60001,-0.59999 h -5.46 c -0.33146,0 -0.59999,0.26866 -0.59999,0.59999 v 2.13 c 0,0.33134 0.26853,0.6 0.59999,0.6 h 5.46 c 0.33135,0 0.60001,-0.26866 0.60001,-0.6 z"
       inkscape:connector-curvature="0" />
    <path
       inkscape:connector-curvature="0"
       d="m -198.38531,321.34091 c 0,-0.33133 -0.26867,-0.59999 -0.59999,-0.59999 h -5.46002 c -0.33146,0 -0.59999,0.26866 -0.59999,0.59999 v 2.13 c 0,0.33134 0.26853,0.6 0.59999,0.6 h 5.46002 c 0.33132,0 0.59999,-0.26866 0.59999,-0.6 z"
       style="fill:#ffffff;fill-opacity:1;fill-rule:nonzero;stroke:none;stroke-width:0.05"
       id="path4179"
       sodipodi:nodetypes="sssssssss" />
    <path
       sodipodi:nodetypes="sssssssss"
       id="path4181"
       style="fill:#ffffff;fill-opacity:1;fill-rule:nonzero;stroke:none;stroke-width:0.05"
       d="m -208.03333,328.54091 c -0.33133,0 -0.59998,-0.26866 -0.59998,-0.59999 v -6.60001 c 0,-0.33145 0.26865,-0.59999 0.59998,-0.59999 h 1.56002 c 0.33133,0 0.59998,0.26854 0.59998,0.59999 v 6.60001 c 0,0.33133 -0.26865,0.59999 -0.59998,0.59999 z"
       inkscape:connector-curvature="0" />
    <circle
       id="circle4211"
       style="fill:#ffffff;fill-opacity:1;stroke:none;stroke-width:0.05"
       cx="-202.71733"
       cy="328.86243"
       r="2.4840004" />
    <circle
       r="1.8985006"
       cy="328.86243"
       cx="-202.71733"
       style="fill:#000000;fill-opacity:1;stroke:none;stroke-width:0.05"
       id="circle4258" />
    <circle
       r="0.9600001"
       cy="328.86243"
       cx="-202.71733"
       style="fill:#ffffff;fill-opacity:1;stroke:none;stroke-width:0.05"
       id="circle4279" />
    <circle
       r="2.4840004"
       cy="328.86243"
       cx="-183.93382"
       style="fill:#ffffff;fill-opacity:1;stroke:none;stroke-width:0.05"
       id="circle4292" />
    <circle
       id="circle4294"
       style="fill:#000000;fill-opacity:1;stroke:none;stroke-width:0.05"
       cx="-183.93384"
       cy="328.86243"
       r="1.8985006" />
    <circle
       id="circle4296"
       style="fill:#ffffff;fill-opacity:1;stroke:none;stroke-width:0.05"
       cx="-183.93384"
       cy="328.86243"
       r="0.9600001" />
  </g>
</svg>
