<?xml version="1.0" encoding="UTF-8" standalone="no"?>
<!-- Created with Inkscape (http://www.inkscape.org/) -->

<svg
   xmlns:dc="http://purl.org/dc/elements/1.1/"
   xmlns:cc="http://creativecommons.org/ns#"
   xmlns:rdf="http://www.w3.org/1999/02/22-rdf-syntax-ns#"
   xmlns:svg="http://www.w3.org/2000/svg"
   xmlns="http://www.w3.org/2000/svg"
   xmlns:sodipodi="http://sodipodi.sourceforge.net/DTD/sodipodi-0.dtd"
   xmlns:inkscape="http://www.inkscape.org/namespaces/inkscape"
   width="91mm"
   height="127.537mm"
   viewBox="0 0 91 127.537"
   version="1.1"
   id="svg863"
   inkscape:version="0.92.2 (5c3e80d, 2017-08-06)"
   sodipodi:docname="88.svg">
  <defs
     id="defs857" />
  <sodipodi:namedview
     id="base"
     pagecolor="#ffffff"
     bordercolor="#666666"
     borderopacity="1.0"
     inkscape:pageopacity="0.0"
     inkscape:pageshadow="2"
     inkscape:zoom="0.7"
     inkscape:cx="322.68582"
     inkscape:cy="136.81534"
     inkscape:document-units="mm"
     inkscape:current-layer="layer1"
     showgrid="false"
     inkscape:window-width="1920"
     inkscape:window-height="1057"
     inkscape:window-x="-8"
     inkscape:window-y="-8"
     inkscape:window-maximized="1"
     fit-margin-top="0"
     fit-margin-left="0"
     fit-margin-right="0"
     fit-margin-bottom="0"
     inkscape:snap-global="false" />
  <metadata
     id="metadata860">
    <rdf:RDF>
      <cc:Work
         rdf:about="">
        <dc:format>image/svg+xml</dc:format>
        <dc:type
           rdf:resource="http://purl.org/dc/dcmitype/StillImage" />
        <dc:title></dc:title>
      </cc:Work>
    </rdf:RDF>
  </metadata>
  <g
     inkscape:label="Layer 1"
     inkscape:groupmode="layer"
     id="layer1"
     transform="translate(-11.500002,-168.963)">
    <path
       inkscape:connector-curvature="0"
       id="path814"
       d="m 96.050414,175.41321 -39.050471,67.63735 -39.05034,-67.6373 z"
       inkscape:transform-center-y="-4.3939989"
       inkscape:transform-center-x="27.135595"
       style="opacity:1;fill:none;fill-opacity:1;stroke:#dc0a14;stroke-width:11.9000721;stroke-linecap:butt;stroke-linejoin:round;stroke-miterlimit:4;stroke-dasharray:none;stroke-dashoffset:0;stroke-opacity:1"
       sodipodi:nodetypes="cccc" />
    <path
       sodipodi:nodetypes="cccc"
       inkscape:connector-curvature="0"
       id="path818"
       d="M 92.673022,177.36319 56.999993,239.1507 21.326953,177.36323 Z"
       style="opacity:1;fill:#fad20a;fill-opacity:1;stroke:none;stroke-width:11.93114281;stroke-linecap:butt;stroke-linejoin:round;stroke-miterlimit:4;stroke-dasharray:none;stroke-dashoffset:0;stroke-opacity:1" />
    <rect
       style="opacity:1;fill:#000000;fill-opacity:1;fill-rule:nonzero;stroke:none;stroke-width:18.6182785;stroke-linecap:square;stroke-linejoin:round;stroke-miterlimit:4;stroke-dasharray:none;stroke-opacity:1;paint-order:stroke fill markers"
       id="rect832"
       width="60"
       height="45"
       x="27.000004"
       y="251"
       rx="3"
       ry="3" />
    <rect
       ry="1.5"
       rx="1.5"
       y="252.5"
       x="28.500004"
       height="42"
       width="57"
       id="rect834"
       style="opacity:1;fill:#fad20a;fill-opacity:1;fill-rule:nonzero;stroke:none;stroke-width:17.53152657;stroke-linecap:square;stroke-linejoin:round;stroke-miterlimit:4;stroke-dasharray:none;stroke-opacity:1;paint-order:stroke fill markers" />
    <path
       d="m 51.774783,286.55505 v -6.11059 c 0,-2.45541 -1.79835,-3.94444 -3.98391,-3.94444 -2.18451,0 -3.96385,1.48903 -3.96385,3.94444 v 6.11059 c 0,2.45593 1.77934,3.94497 3.96385,3.94497 2.18556,0 3.98391,-1.48904 3.98391,-3.94497 z m -1.97248,-0.058 c 0,1.33433 -0.75396,2.24352 -2.01143,2.24352 -1.25642,0 -1.99084,-0.90919 -1.99084,-2.24352 v -5.99428 c 0,-1.33417 0.73442,-2.24285 1.99084,-2.24285 1.25747,0 2.01143,0.90868 2.01143,2.24285 z"
       style="fill:#000000;fill-opacity:1;fill-rule:nonzero;stroke:none;stroke-width:0.13112296"
       id="path836"
       inkscape:connector-curvature="0" />
    <path
       d="m 61.298113,286.55505 v -6.11059 c 0,-2.45541 -1.79835,-3.94444 -3.98286,-3.94444 -2.18555,0 -3.96398,1.48903 -3.96398,3.94444 v 6.11059 c 0,2.45593 1.77843,3.94497 3.96398,3.94497 2.18451,0 3.98286,-1.48904 3.98286,-3.94497 z m -1.97196,-0.058 c 0,1.33433 -0.75448,2.24352 -2.0109,2.24352 -1.25747,0 -1.99202,-0.90919 -1.99202,-2.24352 v -5.99428 c 0,-1.33417 0.73455,-2.24285 1.99202,-2.24285 1.25642,0 2.0109,0.90868 2.0109,2.24285 z"
       style="fill:#000000;fill-opacity:1;fill-rule:nonzero;stroke:none;stroke-width:0.13112296"
       id="path838"
       inkscape:connector-curvature="0" />
    <path
       d="m 79.199633,290.50002 v -6.26572 c 0,-1.10182 -0.29043,-2.02991 -1.04439,-2.76485 -0.58035,-0.56095 -1.4695,-0.88967 -2.47495,-0.88967 -1.29589,0 -2.2818,0.46457 -3.0747,1.43108 -0.61877,-0.94763 -1.56626,-1.43108 -2.78479,-1.43108 -0.98605,0 -1.95255,0.3872 -2.61066,1.10222 v -0.98605 h -1.93314 v 9.80407 h 1.97195 v -5.97528 c 0,-1.50843 0.92823,-2.18516 2.03045,-2.18516 1.10221,0 1.97248,0.65771 1.97248,2.18516 v 5.97528 h 1.97196 v -6.07219 c 0,-1.41152 0.96703,-2.08825 2.03083,-2.08825 1.10222,0 1.97248,0.65771 1.97248,2.18516 v 5.97528 z"
       style="fill:#000000;fill-opacity:1;fill-rule:nonzero;stroke:none;stroke-width:0.13112296"
       id="path840"
       inkscape:connector-curvature="0" />
    <path
       d="m 34.799993,290.38424 h 7.78543 v -1.9561 h -5.21568 l 4.39105,-5.50309 c 0.54954,-0.67765 0.82463,-1.47672 0.82463,-2.39706 0,-0.53683 -0.10241,-1.04177 -0.30683,-1.51461 -0.19209,-0.47321 -0.47322,-0.88861 -0.84364,-1.24671 -0.35797,-0.37083 -0.78005,-0.65195 -1.2656,-0.84351 -0.48607,-0.20443 -1.01004,-0.30684 -1.57243,-0.30684 -0.49892,0 -0.97831,0.10244 -1.43829,0.30684 -0.4605,0.19156 -0.86921,0.46652 -1.22718,0.82462 -0.34524,0.35797 -0.61981,0.77952 -0.82463,1.2656 -0.20442,0.47284 -0.30683,0.98394 -0.30683,1.534 h 1.9561 c 0.0513,-0.60079 0.26172,-1.08018 0.63253,-1.43815 0.37082,-0.35808 0.82464,-0.53681 1.36145,-0.53681 0.56239,0 1.01621,0.19773 1.36145,0.59412 0.34525,0.38366 0.51781,0.83078 0.51781,1.34244 0,0.22999 -0.0384,0.45381 -0.11473,0.67108 -0.064,0.21714 -0.1921,0.44765 -0.38367,0.69037 l -5.33094,6.67297 z"
       style="fill:#000000;fill-opacity:1;fill-rule:nonzero;stroke:none;stroke-width:0.13112296"
       id="path842"
       inkscape:connector-curvature="0" />
    <g
       aria-label="STOP"
       style="font-style:normal;font-variant:normal;font-weight:normal;font-stretch:normal;font-size:19.34682846px;line-height:1.25;font-family:'DIN 1451 Mittelschrift';-inkscape-font-specification:'DIN 1451 Mittelschrift';letter-spacing:0.01852083px;word-spacing:0px;fill:#000000;fill-opacity:1;stroke:none;stroke-width:0.10076473"
       id="text884"
       transform="translate(-130.39882,-8.0595091)">
      <path
         d="m 165.69881,276.67019 1.37922,-1.56816 q 0.77463,0.62349 1.78542,1.00135 1.0108,0.37787 2.11606,0.37787 1.27531,0 2.0027,-0.52901 0.7274,-0.52902 0.7274,-1.38867 0,-1.62483 -1.79487,-1.861 -0.47234,-0.0567 -0.87855,-0.11336 -0.4062,-0.0567 -0.94466,-0.13225 -1.78543,-0.24561 -2.72065,-1.30364 -0.93523,-1.06748 -0.93523,-2.5695 0,-1.75709 1.17139,-2.89069 1.18084,-1.13361 3.31579,-1.13361 1.27531,0 2.39946,0.40621 1.12416,0.40621 2.06883,1.02969 l -1.16194,1.7193 q -0.75574,-0.47233 -1.62483,-0.76518 -0.8691,-0.29285 -1.77598,-0.29285 -0.96357,0 -1.63428,0.49123 -0.67072,0.49123 -0.67072,1.47368 0,0.5857 0.45345,1.09582 0.45344,0.51012 1.50202,0.67071 0.27395,0.0472 0.66127,0.10392 0.38731,0.0472 0.88799,0.10391 1.92712,0.23617 2.84345,1.39811 0.92578,1.16195 0.92578,2.5695 0,1.89879 -1.31309,2.94737 -1.31309,1.04858 -3.52362,1.04858 -3.10796,0 -5.26181,-1.88933 z"
         style="font-style:normal;font-variant:normal;font-weight:normal;font-stretch:normal;font-family:'DIN 1451 Mittelschrift';-inkscape-font-specification:'DIN 1451 Mittelschrift';letter-spacing:0.01852083px;fill:#000000;fill-opacity:1;stroke:none;stroke-width:0.10076473"
         id="path898"
         inkscape:connector-curvature="0" />
      <path
         d="m 180.36916,278.44616 v -11.91228 h -3.76924 v -1.85155 h 9.62619 v 1.85155 h -3.76924 v 11.91228 z"
         style="font-style:normal;font-variant:normal;font-weight:normal;font-stretch:normal;font-family:'DIN 1451 Mittelschrift';-inkscape-font-specification:'DIN 1451 Mittelschrift';letter-spacing:0.01852083px;fill:#000000;fill-opacity:1;stroke:none;stroke-width:0.10076473"
         id="path900"
         inkscape:connector-curvature="0" />
      <path
         d="m 187.25542,271.56897 q 0,-2.48448 0.13226,-3.20243 0.13225,-0.71795 0.47233,-1.32254 0.48178,-0.89743 1.5776,-1.69095 1.10526,-0.79353 2.73009,-0.79353 1.61539,0 2.7112,0.79353 1.10527,0.79352 1.60594,1.69095 0.33064,0.60459 0.46289,1.32254 0.13225,0.71795 0.13225,3.20243 0,2.48448 -0.13225,3.20243 -0.13225,0.71795 -0.46289,1.32254 -0.50067,0.90688 -1.60594,1.69096 -1.09581,0.77462 -2.7112,0.77462 -1.62483,0 -2.73009,-0.77462 -1.09582,-0.78408 -1.5776,-1.69096 -0.34008,-0.60459 -0.47233,-1.32254 -0.13226,-0.71795 -0.13226,-3.20243 z m 2.08772,0 q 0,2.12551 0.1417,2.75844 0.15115,0.63292 0.55736,1.14305 0.31174,0.41565 0.8502,0.71794 0.53846,0.29285 1.2753,0.29285 0.73684,0 1.27531,-0.29285 0.53846,-0.30229 0.8502,-0.71794 0.40621,-0.51013 0.54791,-1.14305 0.15114,-0.63293 0.15114,-2.75844 0,-2.11606 -0.15114,-2.74899 -0.1417,-0.63293 -0.54791,-1.16194 -0.31174,-0.39676 -0.8502,-0.69906 -0.53847,-0.30229 -1.27531,-0.30229 -0.73684,0 -1.2753,0.30229 -0.53846,0.3023 -0.8502,0.69906 -0.40621,0.52901 -0.55736,1.16194 -0.1417,0.63293 -0.1417,2.74899 z"
         style="font-style:normal;font-variant:normal;font-weight:normal;font-stretch:normal;font-family:'DIN 1451 Mittelschrift';-inkscape-font-specification:'DIN 1451 Mittelschrift';letter-spacing:0.01852083px;fill:#000000;fill-opacity:1;stroke:none;stroke-width:0.10076473"
         id="path902"
         inkscape:connector-curvature="0" />
      <path
         d="m 201.60793,266.65669 v 4.43995 h 3.09852 q 1.16194,0 1.72874,-0.69906 0.57625,-0.69905 0.57625,-1.52092 0,-1.24696 -0.89743,-1.83266 -0.57625,-0.38731 -1.48313,-0.38731 z m -2.08772,11.78947 v -13.76383 h 4.99731 q 0.80296,0 1.53981,0.17004 0.74629,0.17004 1.54925,0.79352 0.62349,0.48179 1.05803,1.33199 0.43455,0.84075 0.43455,1.95546 0,1.47369 -1.10526,2.80567 -1.09582,1.33199 -3.21188,1.33199 h -3.17409 v 5.37516 z"
         style="font-style:normal;font-variant:normal;font-weight:normal;font-stretch:normal;font-family:'DIN 1451 Mittelschrift';-inkscape-font-specification:'DIN 1451 Mittelschrift';letter-spacing:0.01852083px;fill:#000000;fill-opacity:1;stroke:none;stroke-width:0.10076473"
         id="path904"
         inkscape:connector-curvature="0" />
    </g>
  </g>
</svg>
