<?xml version="1.0" encoding="UTF-8" standalone="no"?>
<!-- Created with Inkscape (http://www.inkscape.org/) -->

<svg
   xmlns:dc="http://purl.org/dc/elements/1.1/"
   xmlns:cc="http://creativecommons.org/ns#"
   xmlns:rdf="http://www.w3.org/1999/02/22-rdf-syntax-ns#"
   xmlns:svg="http://www.w3.org/2000/svg"
   xmlns="http://www.w3.org/2000/svg"
   xmlns:sodipodi="http://sodipodi.sourceforge.net/DTD/sodipodi-0.dtd"
   xmlns:inkscape="http://www.inkscape.org/namespaces/inkscape"
   width="83.372002mm"
   height="83.372002mm"
   viewBox="0 0 83.372002 83.372002"
   version="1.1"
   id="svg8"
   inkscape:version="0.92.2 (5c3e80d, 2017-08-06)"
   sodipodi:docname="94.svg">
  <defs
     id="defs2" />
  <sodipodi:namedview
     id="base"
     pagecolor="#ffffff"
     bordercolor="#666666"
     borderopacity="1.0"
     inkscape:pageopacity="0.0"
     inkscape:pageshadow="2"
     inkscape:zoom="1.4"
     inkscape:cx="205.83278"
     inkscape:cy="112.84634"
     inkscape:document-units="mm"
     inkscape:current-layer="layer1"
     showgrid="false"
     fit-margin-top="0"
     fit-margin-left="0"
     fit-margin-right="0"
     fit-margin-bottom="0"
     inkscape:window-width="1920"
     inkscape:window-height="1057"
     inkscape:window-x="-8"
     inkscape:window-y="-8"
     inkscape:window-maximized="1"
     showguides="false" />
  <metadata
     id="metadata5">
    <rdf:RDF>
      <cc:Work
         rdf:about="">
        <dc:format>image/svg+xml</dc:format>
        <dc:type
           rdf:resource="http://purl.org/dc/dcmitype/StillImage" />
        <dc:title></dc:title>
      </cc:Work>
    </rdf:RDF>
  </metadata>
  <g
     inkscape:label="Layer 1"
     inkscape:groupmode="layer"
     id="layer1"
     transform="translate(-4.1733084e-4,-213.62758)">
    <rect
       style="opacity:1;fill:#000000;fill-opacity:1;fill-rule:nonzero;stroke:none;stroke-width:21.49853706;stroke-linecap:square;stroke-linejoin:round;stroke-miterlimit:4;stroke-dasharray:none;stroke-opacity:1;paint-order:stroke fill markers"
       id="rect815"
       width="60"
       height="60"
       x="-181.05711"
       y="180.01071"
       rx="3.0009999"
       ry="3.0009999"
       transform="rotate(-45)" />
    <rect
       ry="1.5"
       rx="1.5"
       y="181.51071"
       x="-179.55711"
       height="57"
       width="57"
       id="rect817"
       style="opacity:1;fill:#fad20a;fill-opacity:1;fill-rule:nonzero;stroke:none;stroke-width:20.42361069;stroke-linecap:square;stroke-linejoin:round;stroke-miterlimit:4;stroke-dasharray:none;stroke-opacity:1;paint-order:stroke fill markers"
       transform="rotate(-45)" />
    <path
       id="path840"
       d="m 16.786477,266.49958 h 49.8 l -49.80006,-22.39989 z"
       style="fill:#000000;fill-opacity:1;fill-rule:nonzero;stroke:none;stroke-width:0.23424408"
       inkscape:connector-curvature="0"
       sodipodi:nodetypes="cccc" />
    <path
       inkscape:connector-curvature="0"
       id="path978"
       style="font-style:normal;font-variant:normal;font-weight:normal;font-stretch:normal;font-size:16.58299637px;line-height:1.25;font-family:'DIN 1451 Mittelschrift';-inkscape-font-specification:'DIN 1451 Mittelschrift';letter-spacing:0px;word-spacing:0px;fill:#000000;fill-opacity:1;stroke:none;stroke-width:0.41380829"
       d="m 32.646367,249.50147 4.1103,-9.13815 -2.0326,0.42348 0.73001,-1.62297 2.03277,-0.42386 1.55038,0.69736 -4.84047,10.7615 z"
       sodipodi:nodetypes="cccccccc" />
    <path
       style="font-style:normal;font-variant:normal;font-weight:normal;font-stretch:normal;font-size:16.58299637px;line-height:1.25;font-family:'DIN 1451 Mittelschrift';-inkscape-font-specification:'DIN 1451 Mittelschrift';letter-spacing:0px;word-spacing:0px;opacity:1;fill:#000000;fill-opacity:1;fill-rule:nonzero;stroke:none;stroke-width:10.85961533;stroke-linecap:square;stroke-linejoin:round;stroke-miterlimit:4;stroke-dasharray:none;stroke-opacity:1;paint-order:stroke fill markers"
       d="m 44.011787,241.54296 c -1.69256,-0.76131 -3.63171,-0.0928 -4.34757,1.49867 l -2.33816,5.19827 c -0.71585,1.59151 0.0705,3.48592 1.7631,4.24723 1.69256,0.76131 3.63125,0.0926 4.34711,-1.49889 l 2.33815,-5.19827 c 0.71586,-1.59151 -0.0701,-3.4857 -1.76263,-4.24701 z m -0.68915,1.53215 c 0.84376,0.37951 1.2537,1.283 0.91964,2.02571 l -2.33816,5.19827 c -0.33407,0.74271 -1.28205,1.03541 -2.12581,0.65589 -0.84376,-0.37951 -1.25417,-1.28322 -0.9201,-2.02593 l 2.33816,-5.19828 c 0.33406,-0.7427 1.28252,-1.03518 2.12627,-0.65566 z"
       id="path980"
       inkscape:connector-curvature="0" />
    <path
       inkscape:connector-curvature="0"
       id="path982"
       style="font-style:normal;font-variant:normal;font-weight:normal;font-stretch:normal;font-size:16.58299637px;line-height:1.25;font-family:'DIN 1451 Mittelschrift';-inkscape-font-specification:'DIN 1451 Mittelschrift';letter-spacing:0px;word-spacing:0px;fill:#000000;fill-opacity:1;stroke:none;stroke-width:0.41412556"
       d="m 43.342657,254.29082 9.94763,-8.46433 1.00318,0.45123 -9.94762,8.46433 z"
       sodipodi:nodetypes="ccccc" />
    <path
       style="font-style:normal;font-variant:normal;font-weight:normal;font-stretch:normal;font-size:16.58299637px;line-height:1.25;font-family:'DIN 1451 Mittelschrift';-inkscape-font-specification:'DIN 1451 Mittelschrift';letter-spacing:0px;word-spacing:0px;fill:#000000;fill-opacity:1;stroke:none;stroke-width:0.41280812"
       d="m 47.741867,248.04567 c 0.36592,0.16371 0.74562,0.19326 1.13905,0.0879 0.39481,-0.10567 0.71072,-0.42237 0.94695,-0.94758 l 0.45964,-1.02188 c 0.23624,-0.52522 0.2636,-0.97168 0.0807,-1.33721 -0.18222,-0.36424 -0.45628,-0.62865 -0.8215,-0.79391 -0.36592,-0.16372 -0.74562,-0.19326 -1.13905,-0.0879 -0.39481,0.10568 -0.71071,0.42237 -0.94695,0.94759 l -0.45964,1.02188 c -0.23624,0.52521 -0.26359,0.97167 -0.0807,1.3372 0.18222,0.36424 0.45628,0.62866 0.8215,0.79392 z m 0.3856,-0.85727 c -0.36855,-0.16797 -0.44616,-0.50059 -0.22394,-0.98864 l 0.36933,-0.82112 c 0.21771,-0.49009 0.51831,-0.65315 0.88851,-0.48883 0.36854,0.16796 0.44594,0.50104 0.22372,0.98911 l -0.36933,0.82111 c -0.2177,0.49009 -0.5181,0.65268 -0.88829,0.48837 z"
       id="path984"
       inkscape:connector-curvature="0"
       sodipodi:nodetypes="ccsscccssccccccccc" />
    <path
       sodipodi:nodetypes="ccsscccssccccccccc"
       inkscape:connector-curvature="0"
       id="path986"
       d="m 48.089847,256.53559 c 0.36591,0.16372 0.74562,0.19327 1.13904,0.0879 0.39482,-0.10568 0.71072,-0.42237 0.94696,-0.94759 l 0.45963,-1.02188 c 0.23624,-0.52522 0.2636,-0.97167 0.0807,-1.33721 -0.18221,-0.36424 -0.45628,-0.62865 -0.8215,-0.79391 -0.36592,-0.16371 -0.74562,-0.19326 -1.13905,-0.0879 -0.39481,0.10567 -0.71071,0.42237 -0.94695,0.94759 l -0.45963,1.02188 c -0.23625,0.52521 -0.2636,0.97167 -0.0807,1.3372 0.18221,0.36425 0.45627,0.62866 0.8215,0.79391 z m 0.38559,-0.85726 c -0.36855,-0.16797 -0.44616,-0.50059 -0.22394,-0.98864 l 0.36934,-0.82112 c 0.2177,-0.49009 0.51831,-0.65315 0.8885,-0.48883 0.36855,0.16796 0.44595,0.50104 0.22372,0.98911 l -0.36933,0.82111 c -0.2177,0.49009 -0.51809,0.65268 -0.88829,0.48837 z"
       style="font-style:normal;font-variant:normal;font-weight:normal;font-stretch:normal;font-size:16.58299637px;line-height:1.25;font-family:'DIN 1451 Mittelschrift';-inkscape-font-specification:'DIN 1451 Mittelschrift';letter-spacing:0px;word-spacing:0px;fill:#000000;fill-opacity:1;stroke:none;stroke-width:0.41280812" />
  </g>
</svg>
