<?xml version="1.0" encoding="UTF-8" standalone="no"?>
<!-- Created with Inkscape (http://www.inkscape.org/) -->

<svg
   xmlns:dc="http://purl.org/dc/elements/1.1/"
   xmlns:cc="http://creativecommons.org/ns#"
   xmlns:rdf="http://www.w3.org/1999/02/22-rdf-syntax-ns#"
   xmlns:svg="http://www.w3.org/2000/svg"
   xmlns="http://www.w3.org/2000/svg"
   xmlns:sodipodi="http://sodipodi.sourceforge.net/DTD/sodipodi-0.dtd"
   xmlns:inkscape="http://www.inkscape.org/namespaces/inkscape"
   width="61.400002mm"
   height="81.400002mm"
   viewBox="0 0 61.400002 81.400002"
   version="1.1"
   id="svg825"
   inkscape:version="0.92.2 (5c3e80d, 2017-08-06)"
   sodipodi:docname="33.svg">
  <defs
     id="defs819" />
  <sodipodi:namedview
     id="base"
     pagecolor="#ffffff"
     bordercolor="#666666"
     borderopacity="1.0"
     inkscape:pageopacity="0.0"
     inkscape:pageshadow="2"
     inkscape:zoom="1.8795412"
     inkscape:cx="207.52648"
     inkscape:cy="180.07862"
     inkscape:document-units="mm"
     inkscape:current-layer="layer1"
     showgrid="false"
     fit-margin-top="0"
     fit-margin-left="0"
     fit-margin-right="0"
     fit-margin-bottom="0"
     showborder="true"
     inkscape:window-width="1920"
     inkscape:window-height="1057"
     inkscape:window-x="-8"
     inkscape:window-y="-8"
     inkscape:window-maximized="1"
     inkscape:snap-global="false" />
  <metadata
     id="metadata822">
    <rdf:RDF>
      <cc:Work
         rdf:about="">
        <dc:format>image/svg+xml</dc:format>
        <dc:type
           rdf:resource="http://purl.org/dc/dcmitype/StillImage" />
        <dc:title></dc:title>
      </cc:Work>
    </rdf:RDF>
  </metadata>
  <g
     inkscape:label="Layer 1"
     inkscape:groupmode="layer"
     id="layer1"
     transform="translate(232.83333,-304.04641)">
    <rect
       style="opacity:1;fill:#000000;fill-opacity:1;fill-rule:nonzero;stroke:none;stroke-width:0.57753444;stroke-linecap:square;stroke-linejoin:round;stroke-miterlimit:4;stroke-dasharray:none;stroke-opacity:1;paint-order:stroke fill markers"
       id="rect1373"
       width="60.400002"
       height="80.400002"
       x="-232.33333"
       y="304.54642"
       rx="3.8"
       ry="3.8" />
    <rect
       y="304.74643"
       x="-232.13333"
       height="80"
       width="60"
       id="rect1375"
       style="opacity:1;fill:#ffffff;fill-opacity:1;fill-rule:nonzero;stroke:none;stroke-width:0.57418531;stroke-linecap:square;stroke-linejoin:round;stroke-miterlimit:4;stroke-dasharray:none;stroke-opacity:1;paint-order:stroke fill markers"
       rx="3.5999999"
       ry="3.5999999" />
    <rect
       style="opacity:1;fill:#006e3c;fill-opacity:1;fill-rule:nonzero;stroke:none;stroke-width:0.54905295;stroke-linecap:square;stroke-linejoin:round;stroke-miterlimit:4;stroke-dasharray:none;stroke-opacity:1;paint-order:stroke fill markers"
       id="rect1385"
       width="57"
       height="77"
       x="-230.63333"
       y="306.2464"
       rx="2.0999999"
       ry="2.0999999" />
    <rect
       style="opacity:1;fill:#ffffff;fill-opacity:1;fill-rule:nonzero;stroke:none;stroke-width:1.46507215;stroke-linecap:square;stroke-linejoin:round;stroke-miterlimit:4;stroke-dasharray:none;stroke-opacity:1;paint-order:stroke fill markers"
       id="rect860"
       width="40"
       height="40"
       x="-222.13333"
       y="324.74643" />
    <path
       style="fill:#000000;stroke:none;stroke-width:0.81662261"
       d="m -202.58814,327.2463 c -0.11387,-0.001 -0.2269,0.005 -0.33796,0.0202 0,0 -3.34658,0.29974 -4.4142,1.63194 -1.78244,2.22452 -4.5846,6.16557 -4.38268,15.39027 0.17673,8.07486 4.84934,14.2741 7.28999,15.83935 0.92118,0.5913 1.7328,0.83001 2.3859,0.90072 0.0912,0.007 0.21889,0.0135 0.36019,0.0155 0.16663,0.32416 0.43367,0.63372 0.86351,1.03508 1.35719,1.23788 5.20538,-0.34105 6.09265,-0.65681 1.85095,-0.60717 4.46511,-0.55912 5.97018,0.4377 0.25918,0.16443 0.76406,-0.0975 0.59235,-0.46199 -0.0493,-0.073 -0.31963,-0.21828 -0.39443,-0.26768 -2.19516,-1.23872 -5.04643,-0.81852 -6.43837,-0.3638 -1.33838,0.52375 -2.76333,0.84509 -3.7486,0.99684 -1.21944,0.14559 -1.6815,-0.19965 -2.02727,-0.80926 0.28678,-0.0703 0.45217,-0.15296 0.45217,-0.15296 l 2.79156,-1.07332 c 0,0 -0.28021,-1.63176 -1.08727,-3.59048 -0.80662,-1.95838 -2.04174,-3.58427 -2.04174,-3.58427 l -1.97404,0.38033 c 0,0 0.0418,1.09651 -0.94568,1.25212 -0.53356,0.0838 -1.9457,-0.62794 -2.28048,-1.65726 -0.70743,-2.17709 -0.0385,-4.41665 -0.15141,-7.13083 -0.1007,-2.41343 -1.65293,-8.68693 -0.9524,-9.80612 0.48424,-1.09442 0.56421,-1.21318 1.63194,-1.13998 1.17959,0.0301 1.18081,0.6444 1.18081,0.6444 1.35323,-0.0687 1.36705,-0.0796 2.58537,-0.0987 -0.54962,-2.3464 0.13239,-5.17737 1.17512,-6.99182 -0.55608,-0.37042 -1.39815,-0.75012 -2.19521,-0.75913 z"
       id="path22"
       inkscape:connector-curvature="0"
       sodipodi:nodetypes="ccccccccccccccccccccccccccccsc" />
  </g>
</svg>
