<?xml version="1.0" encoding="UTF-8" standalone="no"?>
<!-- Created with Inkscape (http://www.inkscape.org/) -->

<svg
   xmlns:dc="http://purl.org/dc/elements/1.1/"
   xmlns:cc="http://creativecommons.org/ns#"
   xmlns:rdf="http://www.w3.org/1999/02/22-rdf-syntax-ns#"
   xmlns:svg="http://www.w3.org/2000/svg"
   xmlns="http://www.w3.org/2000/svg"
   xmlns:sodipodi="http://sodipodi.sourceforge.net/DTD/sodipodi-0.dtd"
   xmlns:inkscape="http://www.inkscape.org/namespaces/inkscape"
   width="61.400002mm"
   height="81.400002mm"
   viewBox="0 0 61.400002 81.400002"
   version="1.1"
   id="svg825"
   inkscape:version="0.92.2 (5c3e80d, 2017-08-06)"
   sodipodi:docname="33.svg">
  <defs
     id="defs819" />
  <sodipodi:namedview
     id="base"
     pagecolor="#ffffff"
     bordercolor="#666666"
     borderopacity="1.0"
     inkscape:pageopacity="0.0"
     inkscape:pageshadow="2"
     inkscape:zoom="2.5990044"
     inkscape:cx="121.62071"
     inkscape:cy="163.89719"
     inkscape:document-units="mm"
     inkscape:current-layer="layer1"
     showgrid="false"
     fit-margin-top="0"
     fit-margin-left="0"
     fit-margin-right="0"
     fit-margin-bottom="0"
     showborder="true"
     inkscape:window-width="1920"
     inkscape:window-height="1057"
     inkscape:window-x="-8"
     inkscape:window-y="-8"
     inkscape:window-maximized="1" />
  <metadata
     id="metadata822">
    <rdf:RDF>
      <cc:Work
         rdf:about="">
        <dc:format>image/svg+xml</dc:format>
        <dc:type
           rdf:resource="http://purl.org/dc/dcmitype/StillImage" />
        <dc:title></dc:title>
      </cc:Work>
    </rdf:RDF>
  </metadata>
  <g
     inkscape:label="Layer 1"
     inkscape:groupmode="layer"
     id="layer1"
     transform="translate(232.83333,-304.04641)">
    <rect
       style="opacity:1;fill:#000000;fill-opacity:1;fill-rule:nonzero;stroke:none;stroke-width:0.57753444;stroke-linecap:square;stroke-linejoin:round;stroke-miterlimit:4;stroke-dasharray:none;stroke-opacity:1;paint-order:stroke fill markers"
       id="rect1373"
       width="60.400002"
       height="80.400002"
       x="-232.33333"
       y="304.54642"
       rx="3.8"
       ry="3.8" />
    <rect
       y="304.74643"
       x="-232.13333"
       height="80"
       width="60"
       id="rect1375"
       style="opacity:1;fill:#ffffff;fill-opacity:1;fill-rule:nonzero;stroke:none;stroke-width:0.57418531;stroke-linecap:square;stroke-linejoin:round;stroke-miterlimit:4;stroke-dasharray:none;stroke-opacity:1;paint-order:stroke fill markers"
       rx="3.5999999"
       ry="3.5999999" />
    <rect
       style="opacity:1;fill:#003c82;fill-opacity:1;fill-rule:nonzero;stroke:none;stroke-width:0.54905295;stroke-linecap:square;stroke-linejoin:round;stroke-miterlimit:4;stroke-dasharray:none;stroke-opacity:1;paint-order:stroke fill markers"
       id="rect1385"
       width="57"
       height="77"
       x="-230.63333"
       y="306.2464"
       rx="2.0999999"
       ry="2.0999999" />
    <rect
       style="opacity:1;fill:#fad20a;fill-opacity:1;fill-rule:nonzero;stroke:none;stroke-width:1.46507215;stroke-linecap:square;stroke-linejoin:round;stroke-miterlimit:4;stroke-dasharray:none;stroke-opacity:1;paint-order:stroke fill markers"
       id="rect860"
       width="40"
       height="40"
       x="-222.13333"
       y="324.74643" />
    <path
       inkscape:connector-curvature="0"
       id="path4562"
       style="fill:#000000;fill-opacity:1;fill-rule:nonzero;stroke:none;stroke-width:0.127288"
       d="m -205.478,329.14635 c -0.0598,9.8e-4 -0.0945,0.003 -0.0945,0.003 0,0 -1.21998,1.59858 -1.57966,1.7985 -0.35956,0.19979 -0.75896,0.31954 -0.87877,0.31954 -0.11981,0 -0.0388,0.15856 -0.0388,0.15856 l 0.77844,0.31967 c 0,0 -0.0194,0.46078 -0.0194,0.60051 0,0.13973 -0.24165,0.85898 -0.24165,0.85898 h 0.30034 c 0,0 -0.0204,0.77843 0.0194,0.99819 0.0397,0.21914 0.30137,0.33799 0.38095,0.35835 0.47146,0.0402 0.94446,-0.0343 1.13735,0.53931 0.10007,0.29981 0.02,0.47925 0,0.65868 -0.0198,0.17943 -0.2377,0.30121 -0.51718,0.70041 -0.27997,0.39971 -0.74062,1.77612 -0.94051,2.33488 -0.19939,0.55917 -0.30035,1.1378 -0.60032,1.53752 -0.20779,0.27639 -0.3938,0.52542 -0.77628,0.74457 -0.1114,0.0239 -0.21784,0.0472 -0.30595,0.0782 -0.3859,0.13514 -1.27613,0.33048 -1.85454,0.55318 -2.00976,0.77244 -2.20825,0.86445 -3.69382,0.87844 -0.54354,0.005 -1.13889,0.0407 -1.19262,0.55572 -0.0538,0.515 -0.19937,0.84409 0.14478,1.00062 l 0.53664,0.34193 2.16942,7.3555 -0.18907,0.52251 c -0.10988,0.31063 -0.2815,0.76595 -0.38146,1.01156 -0.18754,0.46231 -0.53461,1.9297 -0.62565,2.64945 -0.0775,0.61542 -0.28151,1.41433 -0.45606,1.78159 -0.34517,0.72485 -1.27817,1.32027 -2.10231,1.34216 -0.5182,0.0144 -0.55206,0.0338 -0.59829,0.33353 l -0.0358,0.2367 0.63953,0.10282 c 0.84898,0.13528 3.2044,0.16352 3.75456,0.0444 0.64449,-0.13973 0.6818,-0.20679 0.66741,-1.25373 l -0.014,-0.88671 0.28648,-0.51946 c 0.3551,-0.64722 0.38298,-0.68056 0.49247,-0.87297 0.0929,0.20031 1.0653,3.31717 1.25131,3.48858 0.34211,0.31623 0.81956,0.2615 0.82312,-0.095 7.8e-4,-0.071 -1.29561,-4.12728 -1.4046,-4.50319 0.2875,-0.56221 0.54608,-1.10051 1.82184,-3.13762 0.75399,-1.20396 1.22788,-1.85907 1.67401,-2.70214 0.11394,-0.21481 0.24776,-0.38978 0.29793,-0.38927 0.0503,3.8e-4 0.17213,0.17752 0.26953,0.39169 0.39787,0.87793 1.67413,2.67885 2.34754,3.31118 0.42715,0.40163 0.82007,0.49363 1.89681,1.19493 0.77641,0.50559 1.1986,0.88991 1.60692,1.1677 -0.10543,0.61388 -0.13076,1.02708 -0.29195,1.6598 -0.34466,1.35756 -1.33534,1.81288 -2.83377,2.00134 l -0.61177,0.0775 c 0.008,0.18439 -0.0731,0.5225 0.15864,0.54236 0.6436,0.0378 2.8936,0.30872 3.7296,0.1471 0.29741,-0.0577 0.556,-0.10281 0.57548,-0.10281 0.0193,3.8e-4 0.0875,-0.0529 0.15266,-0.11683 0.0851,-0.0826 0.12185,-0.26253 0.12529,-0.62241 0.005,-0.49859 0.192,-1.20243 0.44816,-1.68511 0.15011,-0.28289 0.27196,-0.5687 0.39737,-0.77257 0.19149,0.23721 0.5928,0.82767 0.73158,1.25372 0.26114,0.80183 -0.384,1.94714 -0.74559,2.24034 0.0592,0.11987 0.0373,0.58167 0.28406,0.66465 0.12031,0.002 1.43235,-0.776 1.73525,-1.37895 0.42066,-0.8381 1.16371,-3.05056 1.06528,-3.17145 -0.0433,-0.0538 -0.23974,-0.0651 -0.39239,-0.15003 -0.51629,-0.28786 -0.83102,-0.5971 -1.17071,-0.91473 -0.12644,-0.11783 -0.30442,-0.25056 -0.52024,-0.51996 0.14667,-0.34791 0.14019,-0.4632 0.2004,-0.72816 0.0915,-0.40314 0.15661,-0.67813 0.18106,-1.48137 l 0.0358,-0.81724 1.33483,0.008 c 0.87036,-0.0343 2.22263,0.0671 3.76588,-0.0746 0.302,-0.0279 1.15887,-0.21037 1.2569,-0.0975 0.11434,0.1312 0.7908,1.85271 1.31841,3.19933 0.44906,1.14618 0.71873,1.87104 0.70917,2.78511 -0.005,0.45736 0.0532,1.17075 -0.47044,1.73743 -0.30532,0.33047 -1.56566,0.64314 -1.66854,0.64225 0.0298,0.21965 -0.18652,-0.0194 0.089,0.41397 0.088,9.8e-4 1.89238,-0.17346 2.33952,-0.18885 0.66143,-0.0229 1.47361,-0.10091 1.63225,-0.27284 0.12783,-0.13819 -0.21784,-1.12698 -0.32276,-1.63994 -0.28252,-1.38543 -0.18207,-2.14401 -0.28354,-3.24654 -0.0547,-0.59696 -0.12872,-1.15816 -0.22523,-1.5842 -0.097,-0.42607 -0.17315,-0.83265 -0.17265,-0.90377 0.003,-0.21723 -0.55244,-1.31481 -1.03141,-2.04296 -0.35612,-0.54085 -0.60873,-1.41229 -0.76495,-2.0431 0.0125,-0.49909 0.0294,-0.50354 0.30035,-0.53384 0.28952,-0.0318 0.3029,-0.0682 0.36707,0.0835 0.0632,0.39717 -0.0697,0.59949 0.45007,0.41701 0.19302,-0.0642 0.5471,-0.67407 0.51476,-0.93151 -0.0318,-0.25655 -0.0437,-0.12381 -0.10835,-0.38023 -0.0642,-0.25706 0.13929,-0.5976 0.13929,-0.5976 0,0 0.37789,-0.90021 0.37789,-1.31773 0,-0.41752 -0.089,-0.65918 -0.089,-0.65918 l -1.3179,-0.0334 -0.0309,-1.67023 c 0,0 -0.57791,-2.5063 -1.221,-3.91947 -0.64247,-1.4133 -1.00163,-1.79202 -1.38754,-2.27381 -0.26355,-0.43241 -0.50279,-0.54426 -1.03155,-1.22331 -0.52965,-0.67903 -0.79168,-1.25856 -0.23669,-1.32027 1.29077,-0.56695 0.7193,-3.99021 -1.23489,-3.85789 -0.39939,0.0457 -0.64411,0.0944 -1.10118,0.33851 -0.0467,0.003 -0.10339,0.0285 -0.178,0.0811 9.8e-4,0.002 0.002,0.004 0.003,0.006 -0.23121,0.0845 -0.78225,0.59097 -0.85687,0.81417 -0.0752,0.22614 0.0243,1.368 -0.11394,1.73183 -0.13828,0.36445 -0.17508,0.37832 -0.17508,0.37832 0,0 0.24968,0.38827 0.35014,0.58907 0.10096,0.20081 0.11445,0.48968 0.11445,0.48968 0,0 0.0493,0.0512 0.17507,0.089 0.11586,0.0347 0.77984,-0.0144 0.88972,-0.0229 0.39839,0.29231 0.31232,0.64722 0.35064,1.07022 0.0666,0.41218 -0.34211,1.15777 -0.70624,1.58776 -0.34861,0.39462 -0.95592,0.8838 -1.04594,1.17318 -0.11587,0.37133 -0.0243,0.53383 0.16118,0.71975 0.18602,0.18591 0.41876,0.34791 0.58135,0.60294 0.16272,0.25553 3.8e-4,1.53406 0.11688,1.67379 0.11599,0.13909 0.23083,0.3693 0.23083,0.50852 0,0.13909 -0.27858,0.46473 -0.39494,0.65065 -0.0407,0.0647 -0.15661,0.2988 -0.28393,0.56119 l -0.22778,0.31115 c -0.23134,0.44539 -0.51233,1.0449 -0.62565,1.33172 -0.11395,0.28685 -0.23771,0.58806 -0.27552,0.66962 -0.13088,0.28188 -0.31932,0.74764 -0.51425,1.26811 -0.10746,0.28632 -0.25922,0.6532 -0.33676,0.81672 -0.0775,0.16404 -0.26509,0.63526 -0.41672,1.0454 -0.15228,0.40952 -0.36414,0.97071 -0.46803,1.24813 -0.18156,0.48612 -0.71567,2.828 -0.82861,3.34402 -0.26953,-0.21736 -0.80873,-0.69697 -0.9703,-0.88989 -0.44218,-0.52583 -0.40984,-1.04986 -1.04836,-2.18473 -0.59688,-1.05978 -1.10769,-2.78422 -1.06287,-3.3687 l 0.0726,0.0472 c 0,0 0.57001,-1.11794 0.75947,-1.63446 0.18945,-0.51654 0.11942,-1.22331 0.11942,-1.22331 0,0 0.93097,-0.017 1.39594,-0.017 0.46511,0 0.80925,-0.20831 0.80925,-0.20831 v -3.5801 l 0.21429,-0.19727 c 0,0 0.0244,-0.51804 -0.0446,-0.65624 0,0 -0.16018,-0.56464 -0.53908,-1.05877 -0.37903,-0.4305 -0.74266,-0.47824 -0.74266,-0.47824 l -0.81804,-0.0198 c 0,0 -0.25718,-0.3614 -0.37801,-0.60242 -0.0129,-0.0104 -0.0258,-0.0184 -0.0393,-0.0279 -0.29691,-0.44387 -0.79423,-1.107 -1.05638,-1.4152 -0.33956,-0.39972 -0.56098,-0.45787 -0.6007,-0.5976 -0.0398,-0.1396 -0.0194,-0.43942 -0.0194,-0.43942 0,0 0.10045,-0.18095 0.18053,-0.38074 0.0801,-0.1998 0.0587,-0.79776 0.0587,-0.79776 0,0 0.38056,-0.0205 0.62018,0.0193 0.23974,0.0402 0.31983,-0.15958 0.31983,-0.31967 0,-0.15958 -0.15966,-0.38075 -0.21976,-0.60001 -0.0602,-0.21964 -0.0194,-1.8377 -0.0194,-1.8377 0,0 -1.00011,-0.79878 -1.4796,-0.97821 -0.35956,-0.13476 -0.7629,-0.1447 -0.94294,-0.14176 z m 13.74462,10.4375 c 0.57001,1.17457 0.91008,2.50133 1.03154,3.62233 -0.0249,0.30909 -0.94051,-0.42758 -1.64624,-1.12049 -0.34364,-0.33709 -0.28953,-0.3231 -0.28648,-0.58907 0.21034,-0.61234 0.72713,-1.87548 0.90118,-1.91277 z m -21.46788,4.20338 c 0.003,-0.002 0.004,-9.8e-4 0.006,0 0.41329,0.12432 0.91607,0.34053 1.66854,0.34155 0.51182,7.7e-4 0.93555,-0.0469 1.43236,-0.0249 0.37406,0.017 0.67886,-0.14456 0.70076,-0.12229 0.0219,0.0224 -0.0462,0.26901 -0.15316,0.54783 -0.10695,0.27882 -0.32683,0.85949 -0.4865,1.28948 -0.15953,0.43051 -0.54403,1.28451 -0.85635,1.8984 -0.31283,0.61388 -0.56098,1.24368 -0.76494,1.629 -0.20296,0.38266 -0.5257,1.24265 -0.5257,1.24265 0,0 -1.74672,-5.54249 -1.78249,-6.43238 0.18958,-0.36485 0.71821,-0.34691 0.7615,-0.3693 z"
       sodipodi:nodetypes="cccsccscccccccccccccccccccccccccccccccccccccccccccccccccccccccccccccccccccccccccccccccccccsccccccccccccccccccccccccsccccccccccccccccscccccccccccccccsccccccccccccccccccccccc" />
  </g>
</svg>
