<?xml version="1.0" encoding="UTF-8" standalone="no"?>
<!-- Created with Inkscape (http://www.inkscape.org/) -->

<svg
   xmlns:dc="http://purl.org/dc/elements/1.1/"
   xmlns:cc="http://creativecommons.org/ns#"
   xmlns:rdf="http://www.w3.org/1999/02/22-rdf-syntax-ns#"
   xmlns:svg="http://www.w3.org/2000/svg"
   xmlns="http://www.w3.org/2000/svg"
   xmlns:sodipodi="http://sodipodi.sourceforge.net/DTD/sodipodi-0.dtd"
   xmlns:inkscape="http://www.inkscape.org/namespaces/inkscape"
   width="61.599998mm"
   height="61.599998mm"
   viewBox="0 0 61.599998 61.599998"
   version="1.1"
   id="svg8"
   inkscape:version="0.92.2 (5c3e80d, 2017-08-06)"
   sodipodi:docname="11.svg">
  <defs
     id="defs2" />
  <sodipodi:namedview
     id="base"
     pagecolor="#ffffff"
     bordercolor="#666666"
     borderopacity="1.0"
     inkscape:pageopacity="0.0"
     inkscape:pageshadow="2"
     inkscape:zoom="2.372519"
     inkscape:cx="156.73674"
     inkscape:cy="90.705888"
     inkscape:document-units="mm"
     inkscape:current-layer="layer1"
     showgrid="false"
     inkscape:window-width="1920"
     inkscape:window-height="1057"
     inkscape:window-x="-8"
     inkscape:window-y="-8"
     inkscape:window-maximized="1"
     showborder="true" />
  <metadata
     id="metadata5">
    <rdf:RDF>
      <cc:Work
         rdf:about="">
        <dc:format>image/svg+xml</dc:format>
        <dc:type
           rdf:resource="http://purl.org/dc/dcmitype/StillImage" />
        <dc:title></dc:title>
      </cc:Work>
    </rdf:RDF>
  </metadata>
  <g
     inkscape:label="Layer 1"
     inkscape:groupmode="layer"
     id="layer1"
     transform="translate(0,-235.4)">
    <circle
       style="opacity:1;fill:#000000;fill-opacity:1;fill-rule:nonzero;stroke:none;stroke-width:0.20635015;stroke-linecap:square;stroke-linejoin:round;stroke-miterlimit:4;stroke-dasharray:none;stroke-opacity:1;paint-order:stroke fill markers"
       id="path815"
       cx="30.799999"
       cy="266.20001"
       r="30.299999" />
    <circle
       style="opacity:1;fill:#003c82;fill-opacity:1;fill-rule:nonzero;stroke:none;stroke-width:0.19749688;stroke-linecap:square;stroke-linejoin:round;stroke-miterlimit:4;stroke-dasharray:none;stroke-opacity:1;paint-order:stroke fill markers"
       id="circle821"
       cx="30.799999"
       cy="266.20001"
       r="29" />
    <path
       inkscape:connector-curvature="0"
       style="clip-rule:evenodd;fill:#ffffff;fill-rule:nonzero;stroke:none;stroke-width:0.1165375;image-rendering:optimizeQuality;shape-rendering:geometricPrecision;text-rendering:geometricPrecision"
       class="fil2"
       d="m 18.16442,255.28197 v 6.91808 c 1.22174,-0.57403 2.36983,-0.86106 3.45167,-0.86106 1.51609,0 2.89236,0.44154 4.11411,1.31737 1.78101,1.25849 2.67155,3.1205 2.67155,5.57862 v 5.37251 c 0,1.92089 -0.50052,3.51797 -1.50876,4.78384 -0.84636,1.05237 -1.89141,1.84722 -3.12787,2.37716 -0.93466,0.39008 -1.89142,0.5814 -2.88497,0.5814 -1.73689,0 -3.31187,-0.55194 -4.72488,-1.66327 -1.92089,-1.49401 -2.882558,-3.5253 -2.88502,-6.07913 v -1.08186 h 4.2024 v 1.08186 c 0,0.98623 0.1987,1.81788 0.60346,2.48022 0.5888,0.97885 1.53077,1.46459 2.82613,1.46459 1.11867,0 2.0092,-0.41214 2.67154,-1.22907 0.41952,-0.52985 0.62557,-1.20697 0.62557,-2.03125 v -6.057 c 0,-0.87583 -0.32383,-1.61179 -0.97148,-2.21532 -0.66235,-0.60344 -1.4572,-0.90517 -2.39191,-0.90517 -1.22168,0 -2.11221,0.43423 -2.67154,1.31 h -4.20235 v -14.9401 h 13.8583 v 3.79759 h -9.65591 z m 15.027397,18.41385 v -14.96958 c 0,-1.5676 0.39003,-2.94389 1.16278,-4.13614 0.70654,-1.08185 1.66328,-1.94292 2.87026,-2.59061 1.16285,-0.63295 2.37721,-0.94939 3.64307,-0.94939 1.88409,0 3.54,0.62557 4.960382,1.87671 1.670687,1.47929 2.502328,3.41487 2.502328,5.79943 v 14.96958 c 0,1.78103 -0.49312,3.3339 -1.48668,4.65868 -1.493981,1.99442 -3.532608,2.99536 -6.10112,2.99536 -2.30363,0 -4.20974,-0.85374 -5.7185,-2.56854 -1.2217,-1.39096 -1.83252,-3.09107 -1.83252,-5.0855 z m 10.936411,0 v -15.41849 c 0,-0.90525 -0.33112,-1.7222 -0.99355,-2.43604 -0.603451,-0.66242 -1.376211,-0.99356 -2.310931,-0.99356 -1.25109,0 -2.22263,0.51515 -2.91438,1.55289 -0.34592,0.51514 -0.51521,1.14077 -0.51521,1.87671 v 15.84537 c 0,0.75065 0.2429,1.43515 0.73595,2.06809 0.67712,0.90518 1.56765,1.36151 2.671589,1.36151 1.199621,0 2.112233,-0.50784 2.745171,-1.5308 0.390031,-0.60353 0.581361,-1.38365 0.581361,-2.32564 z"
       id="path11-3"
       sodipodi:nodetypes="ccscssccscsccscscsscscccccccssccscsscscscscscsscscsc" />
    <rect
       transform="rotate(45)"
       y="137.35274"
       x="206.01093"
       height="58.200001"
       width="8"
       id="rect842"
       style="opacity:1;fill:#dc0a14;fill-opacity:1;fill-rule:nonzero;stroke:none;stroke-width:0.92926395;stroke-linecap:square;stroke-linejoin:round;stroke-miterlimit:4;stroke-dasharray:none;stroke-opacity:1;paint-order:stroke fill markers" />
    <path
       inkscape:connector-curvature="0"
       style="opacity:1;fill:#ffffff;fill-opacity:1;fill-rule:nonzero;stroke:none;stroke-width:0.20430708;stroke-linecap:square;stroke-linejoin:round;stroke-miterlimit:4;stroke-dasharray:none;stroke-opacity:1;paint-order:stroke fill markers"
       d="M 30.79996,236.20021 A 30,30 0 0 0 0.80024158,266.19993 30,30 0 0 0 30.79996,296.20016 30,30 0 0 0 60.800196,266.19993 30,30 0 0 0 30.79996,236.20021 Z m 0,1.99988 A 27.999999,27.999999 0 0 1 58.7998,266.19993 27.999999,27.999999 0 0 1 30.79996,294.20028 27.999999,27.999999 0 0 1 2.8001196,266.19993 27.999999,27.999999 0 0 1 30.79996,238.20009 Z"
       id="path862" />
  </g>
</svg>
