<?xml version="1.0" encoding="UTF-8" standalone="no"?>
<!-- Created with Inkscape (http://www.inkscape.org/) -->

<svg
   xmlns:dc="http://purl.org/dc/elements/1.1/"
   xmlns:cc="http://creativecommons.org/ns#"
   xmlns:rdf="http://www.w3.org/1999/02/22-rdf-syntax-ns#"
   xmlns:svg="http://www.w3.org/2000/svg"
   xmlns="http://www.w3.org/2000/svg"
   xmlns:sodipodi="http://sodipodi.sourceforge.net/DTD/sodipodi-0.dtd"
   xmlns:inkscape="http://www.inkscape.org/namespaces/inkscape"
   width="66.400002mm"
   height="151.39999mm"
   viewBox="0 0 66.400002 151.39999"
   version="1.1"
   id="svg845"
   inkscape:version="0.92.2 (5c3e80d, 2017-08-06)"
   sodipodi:docname="44.svg">
  <defs
     id="defs839" />
  <sodipodi:namedview
     id="base"
     pagecolor="#ffffff"
     bordercolor="#666666"
     borderopacity="1.0"
     inkscape:pageopacity="0.0"
     inkscape:pageshadow="2"
     inkscape:zoom="1.4"
     inkscape:cx="72.198661"
     inkscape:cy="275.56097"
     inkscape:document-units="mm"
     inkscape:current-layer="layer1"
     showgrid="false"
     inkscape:window-width="1920"
     inkscape:window-height="1057"
     inkscape:window-x="-8"
     inkscape:window-y="-8"
     inkscape:window-maximized="1" />
  <metadata
     id="metadata842">
    <rdf:RDF>
      <cc:Work
         rdf:about="">
        <dc:format>image/svg+xml</dc:format>
        <dc:type
           rdf:resource="http://purl.org/dc/dcmitype/StillImage" />
        <dc:title></dc:title>
      </cc:Work>
    </rdf:RDF>
  </metadata>
  <g
     inkscape:label="Layer 1"
     inkscape:groupmode="layer"
     id="layer1"
     transform="translate(0,-145.59997)">
    <rect
       style="opacity:1;fill:#000000;fill-opacity:1;fill-rule:nonzero;stroke:none;stroke-width:0.82194763;stroke-linecap:square;stroke-linejoin:round;stroke-miterlimit:4;stroke-dasharray:none;stroke-opacity:1;paint-order:stroke fill markers"
       id="rect1373"
       width="65.400002"
       height="150.39999"
       x="0.5"
       y="146.10001"
       rx="6.4499998"
       ry="6.4499998" />
    <rect
       y="146.29999"
       x="0.70002747"
       height="150"
       width="65"
       id="rect1375"
       style="opacity:1;fill:#ffffff;fill-opacity:1;fill-rule:nonzero;stroke:none;stroke-width:0.81833988;stroke-linecap:square;stroke-linejoin:round;stroke-miterlimit:4;stroke-dasharray:none;stroke-opacity:1;paint-order:stroke fill markers"
       rx="6.25"
       ry="6.25" />
    <rect
       style="opacity:1;fill:#006e3c;fill-opacity:1;fill-rule:nonzero;stroke:none;stroke-width:0.77302051;stroke-linecap:square;stroke-linejoin:round;stroke-miterlimit:4;stroke-dasharray:none;stroke-opacity:1;paint-order:stroke fill markers"
       id="rect1385"
       width="60"
       height="145"
       x="3.2000115"
       y="148.8"
       rx="3.75"
       ry="3.75" />
    <path
       sodipodi:nodetypes="ccccc"
       inkscape:connector-curvature="0"
       id="path1678"
       d="M 2.2,250.7045 64.199623,286.5 64.199798,272.6437 2.200176,236.84819 Z"
       style="opacity:1;fill:#ffffff;fill-opacity:1;fill-rule:nonzero;stroke:none;stroke-width:0.63894069;stroke-linecap:square;stroke-linejoin:round;stroke-miterlimit:4;stroke-dasharray:none;stroke-opacity:1;paint-order:stroke fill markers" />
    <path
       style="opacity:1;fill:#ffffff;fill-opacity:1;fill-rule:nonzero;stroke:none;stroke-width:0.63894069;stroke-linecap:square;stroke-linejoin:round;stroke-miterlimit:4;stroke-dasharray:none;stroke-opacity:1;paint-order:stroke fill markers"
       d="m 2.200352,222.99189 61.999623,35.7955 1.75e-4,-13.8563 -61.999622,-35.79551 z"
       id="path1680"
       inkscape:connector-curvature="0"
       sodipodi:nodetypes="ccccc" />
    <path
       sodipodi:nodetypes="ccccc"
       inkscape:connector-curvature="0"
       id="path1682"
       d="m 2.20034,195.27948 61.999625,35.7955 1.86e-4,-13.85631 -61.99962,-35.7955 z"
       style="opacity:1;fill:#ffffff;fill-opacity:1;fill-rule:nonzero;stroke:none;stroke-width:0.63894069;stroke-linecap:square;stroke-linejoin:round;stroke-miterlimit:4;stroke-dasharray:none;stroke-opacity:1;paint-order:stroke fill markers" />
    <g
       aria-label="300"
       style="font-style:normal;font-variant:normal;font-weight:normal;font-stretch:normal;font-size:26.2564106px;line-height:1.25;font-family:'DIN 1451 Mittelschrift';-inkscape-font-specification:'DIN 1451 Mittelschrift';letter-spacing:0px;word-spacing:0px;fill:#000000;fill-opacity:1;stroke:none;stroke-width:0.27350426"
       id="text1775"
       transform="translate(0.69999998,-0.69999695)">
      <path
         d="m 18.532051,166.39743 v -2.35897 h 0.923077 q 1.333334,0 2.102564,-0.74359 0.782052,-0.75641 0.782052,-1.91026 0,-1.14103 -0.807693,-1.92308 -0.807692,-0.78205 -1.923077,-0.78205 -0.846154,0 -1.602564,0.5641 -0.75641,0.56411 -0.974359,1.69231 h -2.679487 q 0.153846,-1.97436 1.653846,-3.44872 1.5,-1.48718 3.5,-1.48718 2.5,0 4,1.65385 1.512821,1.64103 1.512821,3.67949 0,1.07692 -0.423077,2.10256 -0.423077,1.01282 -1.576923,1.75641 1.179487,0.75641 1.692308,1.85898 0.51282,1.10256 0.51282,2.23077 0,2.61538 -1.641026,4.16666 -1.641025,1.55128 -4.025641,1.55128 -1.897436,0 -3.423077,-1.21794 -1.51282,-1.23077 -1.884615,-3.57693 h 2.679487 q 0.371795,0.96154 1,1.55129 0.628205,0.57692 1.782051,0.57692 1.115385,0 1.974359,-0.78205 0.858975,-0.79487 0.858975,-2.17949 0,-1.39744 -0.858975,-2.17949 -0.846153,-0.79487 -2.025641,-0.79487 z"
         style="font-style:normal;font-variant:normal;font-weight:normal;font-stretch:normal;font-family:'DIN 1451 Mittelschrift';-inkscape-font-specification:'DIN 1451 Mittelschrift';fill:#ffffff;stroke:none;stroke-width:0.27350426;stroke-opacity:1"
         id="path1824"
         inkscape:connector-curvature="0" />
      <path
         d="m 35.455129,169.47435 v -7.93589 q 0,-1.34616 -0.73077,-2.10257 -0.717948,-0.75641 -1.897435,-0.75641 -1.192308,0 -1.910257,0.75641 -0.717949,0.75641 -0.717949,2.10257 v 7.93589 q 0,1.35898 0.717949,2.11539 0.717949,0.74359 1.910257,0.74359 1.179487,0 1.897435,-0.74359 0.73077,-0.75641 0.73077,-2.11539 z m -7.935898,0.15385 v -8.24359 q 0,-2.57692 1.615385,-3.97436 1.615384,-1.41026 3.692308,-1.41026 2.064102,0 3.679487,1.41026 1.628205,1.39744 1.628205,3.97436 v 8.24359 q 0,2.57692 -1.628205,3.97436 -1.615385,1.39743 -3.679487,1.39743 -2.076924,0 -3.692308,-1.39743 -1.615385,-1.39744 -1.615385,-3.97436 z"
         style="font-style:normal;font-variant:normal;font-weight:normal;font-stretch:normal;font-family:'DIN 1451 Mittelschrift';-inkscape-font-specification:'DIN 1451 Mittelschrift';fill:#ffffff;stroke:none;stroke-width:0.27350426;stroke-opacity:1"
         id="path1826"
         inkscape:connector-curvature="0" />
      <path
         d="m 48.070514,169.47435 v -7.93589 q 0,-1.34616 -0.73077,-2.10257 -0.717948,-0.75641 -1.897435,-0.75641 -1.192308,0 -1.910257,0.75641 -0.717949,0.75641 -0.717949,2.10257 v 7.93589 q 0,1.35898 0.717949,2.11539 0.717949,0.74359 1.910257,0.74359 1.179487,0 1.897435,-0.74359 0.73077,-0.75641 0.73077,-2.11539 z m -7.935898,0.15385 v -8.24359 q 0,-2.57692 1.615385,-3.97436 1.615384,-1.41026 3.692308,-1.41026 2.064102,0 3.679487,1.41026 1.628205,1.39744 1.628205,3.97436 v 8.24359 q 0,2.57692 -1.628205,3.97436 -1.615385,1.39743 -3.679487,1.39743 -2.076924,0 -3.692308,-1.39743 -1.615385,-1.39744 -1.615385,-3.97436 z"
         style="font-style:normal;font-variant:normal;font-weight:normal;font-stretch:normal;font-family:'DIN 1451 Mittelschrift';-inkscape-font-specification:'DIN 1451 Mittelschrift';fill:#ffffff;stroke:none;stroke-width:0.27350426;stroke-opacity:1"
         id="path1828"
         inkscape:connector-curvature="0" />
    </g>
    <g
       aria-label="m"
       style="font-style:normal;font-variant:normal;font-weight:normal;font-stretch:normal;font-size:19.50476265px;line-height:1.25;font-family:'DIN 1451 Mittelschrift';-inkscape-font-specification:'DIN 1451 Mittelschrift';letter-spacing:0px;word-spacing:0px;fill:#ffff00;fill-opacity:1;stroke:none;stroke-width:0.20317459"
       id="text1779"
       transform="translate(0.69999998,-0.69999695)">
      <path
         d="m 25.595001,192 v -9.88571 h 1.990476 v 1.05714 h 0.03809 Q 28.566429,182 30.195001,182 q 1.038095,0 1.647619,0.37143 0.609524,0.37143 1.142857,0.91429 Q 34.156906,182 36.109287,182 q 1.152381,0 2.219047,0.87619 1.076191,0.87619 1.076191,2.55238 V 192 h -1.990476 v -5.88571 q 0,-1 -0.561905,-1.56191 -0.561905,-0.5619 -1.390476,-0.5619 -0.857143,0 -1.419048,0.5619 -0.552381,0.56191 -0.552381,1.56191 V 192 h -1.980952 v -5.88571 q 0,-1 -0.561905,-1.56191 -0.561905,-0.5619 -1.390477,-0.5619 -0.857142,0 -1.419047,0.5619 -0.552381,0.56191 -0.552381,1.56191 V 192 Z"
         style="font-style:normal;font-variant:normal;font-weight:normal;font-stretch:normal;font-family:'DIN 1451 Mittelschrift';-inkscape-font-specification:'DIN 1451 Mittelschrift';fill:#ffffff;stroke:none;stroke-width:0.20317459;stroke-opacity:1"
         id="path1821"
         inkscape:connector-curvature="0" />
    </g>
  </g>
</svg>
