<?xml version="1.0" encoding="UTF-8" standalone="no"?>
<!-- Created with Inkscape (http://www.inkscape.org/) -->

<svg
   xmlns:dc="http://purl.org/dc/elements/1.1/"
   xmlns:cc="http://creativecommons.org/ns#"
   xmlns:rdf="http://www.w3.org/1999/02/22-rdf-syntax-ns#"
   xmlns:svg="http://www.w3.org/2000/svg"
   xmlns="http://www.w3.org/2000/svg"
   xmlns:sodipodi="http://sodipodi.sourceforge.net/DTD/sodipodi-0.dtd"
   xmlns:inkscape="http://www.inkscape.org/namespaces/inkscape"
   width="61.400002mm"
   height="61.400002mm"
   viewBox="0 0 61.400002 61.400002"
   version="1.1"
   id="svg825"
   inkscape:version="0.92.2 (5c3e80d, 2017-08-06)"
   sodipodi:docname="22.svg">
  <defs
     id="defs819" />
  <sodipodi:namedview
     id="base"
     pagecolor="#ffffff"
     bordercolor="#666666"
     borderopacity="1.0"
     inkscape:pageopacity="0.0"
     inkscape:pageshadow="2"
     inkscape:zoom="2.2892582"
     inkscape:cx="147.26915"
     inkscape:cy="90.264797"
     inkscape:document-units="mm"
     inkscape:current-layer="layer1"
     showgrid="false"
     fit-margin-top="0"
     fit-margin-left="0"
     fit-margin-right="0"
     fit-margin-bottom="0"
     showborder="true"
     inkscape:window-width="1920"
     inkscape:window-height="1057"
     inkscape:window-x="-8"
     inkscape:window-y="-8"
     inkscape:window-maximized="1" />
  <metadata
     id="metadata822">
    <rdf:RDF>
      <cc:Work
         rdf:about="">
        <dc:format>image/svg+xml</dc:format>
        <dc:type
           rdf:resource="http://purl.org/dc/dcmitype/StillImage" />
        <dc:title></dc:title>
      </cc:Work>
    </rdf:RDF>
  </metadata>
  <g
     inkscape:label="Layer 1"
     inkscape:groupmode="layer"
     id="layer1"
     transform="translate(232.83333,-324.04641)">
    <rect
       style="opacity:1;fill:#000000;fill-opacity:1;fill-rule:nonzero;stroke:none;stroke-width:0.50057405;stroke-linecap:square;stroke-linejoin:round;stroke-miterlimit:4;stroke-dasharray:none;stroke-opacity:1;paint-order:stroke fill markers"
       id="rect1373"
       width="60.400002"
       height="60.400002"
       x="-232.33333"
       y="324.54642"
       rx="3.8"
       ry="3.8" />
    <rect
       y="324.7464"
       x="-232.13333"
       height="60"
       width="60"
       id="rect1375"
       style="opacity:1;fill:#ffffff;fill-opacity:1;fill-rule:nonzero;stroke:none;stroke-width:0.49725902;stroke-linecap:square;stroke-linejoin:round;stroke-miterlimit:4;stroke-dasharray:none;stroke-opacity:1;paint-order:stroke fill markers"
       rx="3.5999999"
       ry="3.5999999" />
    <rect
       style="opacity:1;fill:#003c82;fill-opacity:1;fill-rule:nonzero;stroke:none;stroke-width:0.47239608;stroke-linecap:square;stroke-linejoin:round;stroke-miterlimit:4;stroke-dasharray:none;stroke-opacity:1;paint-order:stroke fill markers"
       id="rect1385"
       width="57"
       height="57"
       x="-230.63333"
       y="326.2464"
       rx="2.0999999"
       ry="2.0999999" />
    <path
       inkscape:connector-curvature="0"
       id="path39"
       style="fill:#ffffff;fill-opacity:1;fill-rule:nonzero;stroke:none;stroke-width:0.08240584"
       d="m -211.16685,334.49459 h -5.95282 v 8.24785 h 6.09071 c 1.41279,0 2.46497,-0.43366 3.16239,-1.2991 0.69413,-0.86533 1.04288,-1.80612 1.04288,-2.82466 0,-1.54282 -0.5467,-2.67807 -1.6368,-3.40541 -0.70122,-0.47882 -1.60243,-0.71868 -2.70636,-0.71868 z m -6.02613,22.25183 h -3.94035 l 0.0366,-25.98484 9.73037,-0.0152 c 0.98916,0 1.94433,0.1054 2.86052,0.31696 0.91628,0.21179 1.86915,0.70991 2.85863,1.49148 0.77008,0.60418 1.42439,1.43281 1.95949,2.49005 0.53568,1.05717 0.80438,2.28338 0.80438,3.67945 0,1.84492 -0.67521,3.60144 -2.02595,5.26767 -1.35109,1.66565 -3.3253,2.4988 -5.92197,2.4988 h -6.28842 z" />
    <g
       aria-label="METRO"
       style="font-style:normal;font-variant:normal;font-weight:normal;font-stretch:normal;font-size:23.56406403px;line-height:1.25;font-family:'DIN 1451 Engschrift';-inkscape-font-specification:'DIN 1451 Engschrift';letter-spacing:0.07408333px;word-spacing:0px;fill:#ffffff;fill-opacity:1;stroke:none;stroke-width:0.24545901"
       id="text867"
       transform="translate(0.6999952,-0.69998893)">
      <path
         d="m -218.48649,379.30502 v -9.56701 l -2.23859,6.71576 h -1.13107 l -2.23859,-6.71576 v 9.56701 h -2.23858 v -15.71723 h 2.0972 l 2.99263,8.36525 2.92195,-8.36525 h 2.07364 v 15.71723 z"
         style="letter-spacing:0.07408333px;fill:#ffffff;stroke:none;stroke-width:0.24545901"
         id="path879"
         inkscape:connector-curvature="0" />
      <path
         d="m -207.02507,377.04287 v 2.26215 h -6.71576 v -15.71723 h 6.71576 v 2.07364 h -4.50074 v 4.64212 h 3.95876 v 2.12077 h -3.95876 v 4.61855 z"
         style="letter-spacing:0.07408333px;fill:#ffffff;stroke:none;stroke-width:0.24545901"
         id="path881"
         inkscape:connector-curvature="0" />
      <path
         d="m -203.08538,379.30502 v -13.62003 h -2.63917 v -2.0972 h 7.56406 v 2.0972 h -2.6863 v 13.62003 z"
         style="letter-spacing:0.07408333px;fill:#ffffff;stroke:none;stroke-width:0.24545901"
         id="path883"
         inkscape:connector-curvature="0" />
      <path
         d="m -196.54149,379.30502 v -15.71723 h 3.9352 q 1.55523,0 2.61561,1.08395 1.06039,1.08395 1.06039,2.63917 v 1.46098 q 0,2.16789 -1.838,3.32253 l 2.37997,7.2106 h -2.37997 l -2.12077,-6.73932 h -1.41384 v 6.73932 z m 4.99559,-9.21355 q 0.21207,-0.2592 0.28276,-0.5891 0.0943,-0.32989 0.0943,-0.73048 v -1.46098 q 0,-0.73048 -0.40059,-1.1782 -0.40059,-0.44772 -1.13107,-0.44772 h -1.60236 v 4.90133 h 1.57879 q 0.70692,0 1.17821,-0.49485 z"
         style="letter-spacing:0.07408333px;fill:#ffffff;stroke:none;stroke-width:0.24545901"
         id="path885"
         inkscape:connector-curvature="0" />
      <path
         d="m -186.21446,365.07233 q 0.54198,-0.75405 1.36672,-1.1782 0.82474,-0.44772 1.72017,-0.44772 0.87187,0 1.62592,0.35346 0.77762,0.35346 1.27246,0.96613 0.51841,0.61266 0.70693,1.24889 0.18851,0.63623 0.18851,1.39028 v 8.01178 q 0,0.70692 -0.14139,1.2489 -0.11782,0.51841 -0.54197,1.1782 -0.42415,0.6598 -1.24889,1.13108 -0.82475,0.47128 -1.79087,0.47128 -1.10751,0 -2.05008,-0.56554 -0.919,-0.56554 -1.29602,-1.27246 -0.35346,-0.73049 -0.42415,-1.15464 -0.0707,-0.44772 -0.0707,-1.03682 v -8.01178 q 0,-0.70692 0.14139,-1.24889 0.16495,-0.54198 0.54197,-1.08395 z m 4.35935,1.22533 q -0.47128,-0.63623 -1.22533,-0.63623 -0.40059,0 -0.80118,0.23564 -0.37702,0.21208 -0.54197,0.49485 -0.14138,0.2592 -0.18851,0.54197 -0.0471,0.28277 -0.0471,0.47128 v 8.01178 q 0,0.23564 0.0236,0.51841 0.0471,0.28277 0.37703,0.77762 0.35346,0.47128 1.1782,0.47128 0.42416,0 0.75405,-0.18852 0.35346,-0.21207 0.49485,-0.47128 0.16495,-0.2592 0.21207,-0.49484 0.0471,-0.23564 0.0471,-0.61267 v -8.01178 q 0,-0.47128 -0.0471,-0.65979 -0.0236,-0.18852 -0.23564,-0.44772 z"
         style="letter-spacing:0.07408333px;fill:#ffffff;stroke:none;stroke-width:0.24545901"
         id="path887"
         inkscape:connector-curvature="0" />
    </g>
    <path
       inkscape:connector-curvature="0"
       d="m -183.13333,342.14642 h -5.4 v -5.4 h -3.2 v 5.4 h -5.4 v 3.2 h 5.4 v 5.4 h 3.2 v -5.4 h 5.4 v -3.2"
       style="fill:#ffffff;fill-rule:evenodd;stroke:none;stroke-width:0.18753351"
       id="path6390"
       sodipodi:nodetypes="ccccccccccccc" />
  </g>
</svg>
