<?xml version="1.0" encoding="UTF-8" standalone="no"?>
<!-- Created with Inkscape (http://www.inkscape.org/) -->

<svg
   xmlns:dc="http://purl.org/dc/elements/1.1/"
   xmlns:cc="http://creativecommons.org/ns#"
   xmlns:rdf="http://www.w3.org/1999/02/22-rdf-syntax-ns#"
   xmlns:svg="http://www.w3.org/2000/svg"
   xmlns="http://www.w3.org/2000/svg"
   xmlns:sodipodi="http://sodipodi.sourceforge.net/DTD/sodipodi-0.dtd"
   xmlns:inkscape="http://www.inkscape.org/namespaces/inkscape"
   width="61mm"
   height="61mm"
   viewBox="0 0 61 61"
   version="1.1"
   id="svg2000"
   inkscape:version="0.92.2 (5c3e80d, 2017-08-06)"
   sodipodi:docname="44.svg">
  <defs
     id="defs1994" />
  <sodipodi:namedview
     id="base"
     pagecolor="#ffffff"
     bordercolor="#666666"
     borderopacity="1.0"
     inkscape:pageopacity="0.0"
     inkscape:pageshadow="2"
     inkscape:zoom="1.4177215"
     inkscape:cx="175.44631"
     inkscape:cy="101.56991"
     inkscape:document-units="mm"
     inkscape:current-layer="layer1"
     showgrid="false"
     inkscape:window-width="1920"
     inkscape:window-height="1057"
     inkscape:window-x="-8"
     inkscape:window-y="-8"
     inkscape:window-maximized="1"
     showborder="true" />
  <metadata
     id="metadata1997">
    <rdf:RDF>
      <cc:Work
         rdf:about="">
        <dc:format>image/svg+xml</dc:format>
        <dc:type
           rdf:resource="http://purl.org/dc/dcmitype/StillImage" />
        <dc:title></dc:title>
      </cc:Work>
    </rdf:RDF>
  </metadata>
  <g
     inkscape:label="Layer 1"
     inkscape:groupmode="layer"
     id="layer1"
     transform="translate(0,-236)">
    <circle
       r="26"
       cy="266.50006"
       cx="30.500008"
       id="circle1748"
       style="opacity:1;fill:#fad20a;fill-opacity:1;fill-rule:nonzero;stroke:none;stroke-width:0.15956137;stroke-linecap:square;stroke-linejoin:round;stroke-miterlimit:4;stroke-dasharray:none;stroke-opacity:1;paint-order:stroke fill markers" />
    <path
       sodipodi:nodetypes="cccc"
       inkscape:connector-curvature="0"
       id="path820"
       d="m 17.500062,292.5 13,-13 13,13 z"
       style="opacity:1;fill:#003c82;fill-opacity:1;fill-rule:nonzero;stroke:none;stroke-width:0.80000001;stroke-linecap:square;stroke-linejoin:round;stroke-miterlimit:4;stroke-dasharray:none;stroke-opacity:1;paint-order:stroke fill markers" />
    <path
       style="opacity:1;fill:#003c82;fill-opacity:1;fill-rule:nonzero;stroke:none;stroke-width:0.80000001;stroke-linecap:square;stroke-linejoin:round;stroke-miterlimit:4;stroke-dasharray:none;stroke-opacity:1;paint-order:stroke fill markers"
       d="m 17.500062,240.50005 13,13 13,-13 z"
       id="path822"
       inkscape:connector-curvature="0"
       sodipodi:nodetypes="cccc" />
    <path
       inkscape:connector-curvature="0"
       id="path845"
       d="M 30.500236,236.50005 A 30,30 0 0 0 0.5,266.50029 30,30 0 0 0 30.500236,296.5 30,30 0 0 0 60.499952,266.50029 30,30 0 0 0 30.500236,236.50005 Z m 0,6.00015 A 24,24 0 0 1 54.499802,266.50029 24,24 0 0 1 30.500236,290.49985 24,24 0 0 1 6.500151,266.50029 24,24 0 0 1 30.500236,242.5002 Z"
       style="opacity:1;fill:#dc0a14;fill-opacity:1;fill-rule:nonzero;stroke:none;stroke-width:0.18410923;stroke-linecap:square;stroke-linejoin:round;stroke-miterlimit:4;stroke-dasharray:none;stroke-opacity:1;paint-order:stroke fill markers" />
    <g
       aria-label="3.5m"
       style="font-style:normal;font-variant:normal;font-weight:normal;font-stretch:normal;font-size:23.49257851px;line-height:1.25;font-family:'DIN 1451 Mittelschrift';-inkscape-font-specification:'DIN 1451 Mittelschrift';letter-spacing:0px;word-spacing:0px;fill:#000000;fill-opacity:1;stroke:none;stroke-width:0.58731443"
       id="text876"
       transform="translate(-111.704,33.48771)">
      <path
         d="m 129.03531,232.81526 v -2.11066 h 0.82591 q 1.19298,0 1.88124,-0.66532 0.69973,-0.67678 0.69973,-1.70917 0,-1.02092 -0.72267,-1.72065 -0.72267,-0.69973 -1.72065,-0.69973 -0.75708,0 -1.43387,0.50472 -0.67679,0.50473 -0.8718,1.51417 h -2.39743 q 0.13765,-1.76653 1.47975,-3.08569 1.34211,-1.33064 3.13158,-1.33064 2.23684,0 3.57895,1.47976 1.35358,1.46829 1.35358,3.29217 0,0.96357 -0.37855,1.88124 -0.37854,0.90621 -1.41093,1.57153 1.05533,0.67679 1.51417,1.66329 0.45884,0.98651 0.45884,1.99595 0,2.34009 -1.46828,3.72807 -1.46829,1.38799 -3.60189,1.38799 -1.69771,0 -3.06276,-1.08974 -1.35357,-1.10121 -1.68623,-3.2004 h 2.39743 q 0.33266,0.86032 0.89474,1.38798 0.56208,0.5162 1.59447,0.5162 0.99797,0 1.76653,-0.69973 0.76856,-0.7112 0.76856,-1.95007 0,-1.25034 -0.76856,-1.95007 -0.75708,-0.7112 -1.81242,-0.7112 z"
         style="fill:#003c82;fill-rule:nonzero;stroke:none;stroke-width:0.58731443;fill-opacity:1"
         id="path878"
         inkscape:connector-curvature="0" />
      <path
         d="m 140.62456,234.94932 v -6.43703 h 6.33901 v 1.70728 h -4.72976 v 2.68755 q 0.81689,-0.65351 1.90334,-0.65351 0.67801,0 1.23349,0.2614 0.56365,0.26141 0.89041,0.61266 0.49013,0.53098 0.71068,1.15998 0.22873,0.62083 0.22873,2.09939 0,1.20081 -0.17971,1.78897 -0.17155,0.57998 -0.55548,1.07011 -0.3676,0.46563 -1.02927,0.8659 -0.66168,0.40027 -1.55208,0.40027 -1.15181,0 -2.22192,-0.71069 -1.07012,-0.71069 -1.258,-2.37713 h 1.70728 q 0.30225,1.3887 1.70729,1.3887 1.24983,0 1.46222,-0.85772 0.21239,-0.85772 0.21239,-1.69912 0,-0.98842 -0.33493,-1.64193 -0.33492,-0.65351 -1.3887,-0.65351 -0.98842,0 -1.53574,0.98843 z"
         style="fill:#003c82;fill-rule:nonzero;stroke:none;stroke-width:0.41824386;fill-opacity:1"
         id="path882"
         inkscape:connector-curvature="0" />
      <path
         d="m 149.466,240.51228 v -8.40286 h 1.6919 v 0.89857 h 0.0324 q 0.80143,-0.99571 2.18572,-0.99571 0.88238,0 1.40048,0.31572 0.51809,0.3157 0.97142,0.77714 0.99572,-1.09286 2.65524,-1.09286 0.97953,0 1.88619,0.74476 0.91477,0.74476 0.91477,2.16952 v 5.58572 h -1.69191 v -5.00286 q 0,-0.85 -0.47762,-1.32762 -0.47762,-0.47762 -1.1819,-0.47762 -0.72857,0 -1.20619,0.47762 -0.46953,0.47762 -0.46953,1.32762 v 5.00286 h -1.68381 v -5.00286 q 0,-0.85 -0.47762,-1.32762 -0.47762,-0.47762 -1.1819,-0.47762 -0.72857,0 -1.20619,0.47762 -0.46953,0.47762 -0.46953,1.32762 v 5.00286 z"
         style="fill:#003c82;fill-rule:nonzero;stroke:none;stroke-width:0.41447634;fill-opacity:1"
         id="path884"
         inkscape:connector-curvature="0" />
      <circle
         style="opacity:1;fill:#003c82;fill-opacity:1;fill-rule:nonzero;stroke:none;stroke-width:0.45769536;stroke-linecap:square;stroke-linejoin:round;stroke-miterlimit:4;stroke-dasharray:none;stroke-opacity:1;paint-order:stroke fill markers"
         id="path887"
         cx="137.40402"
         cy="239.31224"
         r="1.2" />
    </g>
  </g>
</svg>
