<?xml version="1.0" encoding="UTF-8" standalone="no"?>
<!-- Created with Inkscape (http://www.inkscape.org/) -->

<svg
   xmlns:dc="http://purl.org/dc/elements/1.1/"
   xmlns:cc="http://creativecommons.org/ns#"
   xmlns:rdf="http://www.w3.org/1999/02/22-rdf-syntax-ns#"
   xmlns:svg="http://www.w3.org/2000/svg"
   xmlns="http://www.w3.org/2000/svg"
   xmlns:sodipodi="http://sodipodi.sourceforge.net/DTD/sodipodi-0.dtd"
   xmlns:inkscape="http://www.inkscape.org/namespaces/inkscape"
   width="61.400002mm"
   height="81.400002mm"
   viewBox="0 0 61.400002 81.400002"
   version="1.1"
   id="svg825"
   inkscape:version="0.92.2 (5c3e80d, 2017-08-06)"
   sodipodi:docname="44.svg">
  <defs
     id="defs819" />
  <sodipodi:namedview
     id="base"
     pagecolor="#ffffff"
     bordercolor="#666666"
     borderopacity="1.0"
     inkscape:pageopacity="0.0"
     inkscape:pageshadow="2"
     inkscape:zoom="1.8377736"
     inkscape:cx="137.49962"
     inkscape:cy="196.70164"
     inkscape:document-units="mm"
     inkscape:current-layer="layer1"
     showgrid="false"
     fit-margin-top="0"
     fit-margin-left="0"
     fit-margin-right="0"
     fit-margin-bottom="0"
     showborder="true"
     inkscape:window-width="1920"
     inkscape:window-height="1057"
     inkscape:window-x="-8"
     inkscape:window-y="-8"
     inkscape:window-maximized="1" />
  <metadata
     id="metadata822">
    <rdf:RDF>
      <cc:Work
         rdf:about="">
        <dc:format>image/svg+xml</dc:format>
        <dc:type
           rdf:resource="http://purl.org/dc/dcmitype/StillImage" />
        <dc:title></dc:title>
      </cc:Work>
    </rdf:RDF>
  </metadata>
  <g
     inkscape:label="Layer 1"
     inkscape:groupmode="layer"
     id="layer1"
     transform="translate(232.83333,-304.04641)">
    <rect
       style="opacity:1;fill:#000000;fill-opacity:1;fill-rule:nonzero;stroke:none;stroke-width:0.57753444;stroke-linecap:square;stroke-linejoin:round;stroke-miterlimit:4;stroke-dasharray:none;stroke-opacity:1;paint-order:stroke fill markers"
       id="rect1373"
       width="60.400002"
       height="80.400002"
       x="-232.33333"
       y="304.54642"
       rx="3.8"
       ry="3.8" />
    <rect
       y="304.74643"
       x="-232.13333"
       height="80"
       width="60"
       id="rect1375"
       style="opacity:1;fill:#ffffff;fill-opacity:1;fill-rule:nonzero;stroke:none;stroke-width:0.57418531;stroke-linecap:square;stroke-linejoin:round;stroke-miterlimit:4;stroke-dasharray:none;stroke-opacity:1;paint-order:stroke fill markers"
       rx="3.5999999"
       ry="3.5999999" />
    <rect
       style="opacity:1;fill:#006e3c;fill-opacity:1;fill-rule:nonzero;stroke:none;stroke-width:0.54905295;stroke-linecap:square;stroke-linejoin:round;stroke-miterlimit:4;stroke-dasharray:none;stroke-opacity:1;paint-order:stroke fill markers"
       id="rect1385"
       width="57"
       height="77"
       x="-230.63333"
       y="306.2464"
       rx="2.0999999"
       ry="2.0999999" />
    <rect
       style="opacity:1;fill:#fad20a;fill-opacity:1;fill-rule:nonzero;stroke:none;stroke-width:1.46507215;stroke-linecap:square;stroke-linejoin:round;stroke-miterlimit:4;stroke-dasharray:none;stroke-opacity:1;paint-order:stroke fill markers"
       id="rect860"
       width="40"
       height="40"
       x="-222.13333"
       y="324.74643" />
    <path
       inkscape:connector-curvature="0"
       d="m -202.65139,347.57507 -10.53669,11.34688 c -0.7673,0.76594 -2.01077,0.76594 -2.77808,0 -0.76961,-0.76593 -0.76961,-2.00918 0,-2.77511 l 11.30168,-10.69195 -2.66919,-2.79064 c -0.65841,0.35076 -1.41022,0.55058 -2.20866,0.55058 -1.57038,0 -3.4299,-1.22106 -4.7289,-3.36788 l -1.37249,-2.14905 c -1.66824,-2.73959 -1.48353,-3.55436 -1.48353,-3.92289 0,-0.76816 0.30696,-1.46526 0.80733,-1.97145 0.50715,-0.49952 1.26572,-0.80366 2.03534,-0.80366 0.36924,0 1.18547,-0.1865 3.93029,1.48079 l 2.151,1.36979 c 2.15314,1.29432 3.37651,3.15253 3.37651,4.71991 0,0.79702 -0.24698,1.60069 -0.59843,2.25783 l 2.84712,2.65523 2.88059,-2.69518 c -0.76748,-1.34759 -0.79631,-2.90832 -0.0374,-3.66537 l 6.96443,-6.89559 c 0.14592,-0.1421 0.35144,-0.23091 0.57387,-0.23091 0.4559,0 0.82514,0.36855 0.82514,0.82366 0,0.23311 -0.11389,0.42404 -0.26906,0.57501 l -5.46079,5.45032 c -0.10854,0.11757 -0.14946,0.28193 -0.14946,0.4529 0,0.36408 0.29574,0.65715 0.65839,0.65715 0.13702,0 0.27581,-0.001 0.38026,-0.0734 l 5.61864,-5.60795 c 0.14591,-0.13977 0.3671,-0.24199 0.58508,-0.24199 0.44485,0 0.80734,0.36188 0.80734,0.8059 0,0.21757 -0.08,0.45068 -0.22012,0.59721 l -5.60974,5.59906 c -0.073,0.10431 -0.0765,0.24198 -0.0765,0.37963 0,0.36188 0.29576,0.65714 0.6584,0.65714 0.17262,0 0.3381,-0.04 0.4559,-0.14865 l 5.46079,-5.45254 c 0.15125,-0.15309 0.34254,-0.26639 0.57387,-0.26639 0.4559,0 0.82513,0.36851 0.82513,0.82363 0,0.22202 -0.0872,0.42404 -0.23132,0.57278 l -6.90642,6.95111 c -0.75859,0.75705 -2.30885,0.73707 -3.65908,-0.0288 l -2.66242,2.8306 11.562,10.78299 c 0.7673,0.76592 0.7673,2.00697 0,2.7751 -0.76749,0.76593 -2.0131,0.76593 -2.78041,0 l -10.84132,-11.33578"
       style="fill:#000000;fill-opacity:1;fill-rule:nonzero;stroke:none;stroke-width:0.08834174"
       id="path9177" />
  </g>
</svg>
