<?xml version="1.0" encoding="UTF-8" standalone="no"?>
<!-- Created with Inkscape (http://www.inkscape.org/) -->

<svg
   xmlns:dc="http://purl.org/dc/elements/1.1/"
   xmlns:cc="http://creativecommons.org/ns#"
   xmlns:rdf="http://www.w3.org/1999/02/22-rdf-syntax-ns#"
   xmlns:svg="http://www.w3.org/2000/svg"
   xmlns="http://www.w3.org/2000/svg"
   xmlns:sodipodi="http://sodipodi.sourceforge.net/DTD/sodipodi-0.dtd"
   xmlns:inkscape="http://www.inkscape.org/namespaces/inkscape"
   width="61.400002mm"
   height="81.400002mm"
   viewBox="0 0 61.400002 81.400002"
   version="1.1"
   id="svg825"
   inkscape:version="0.92.2 (5c3e80d, 2017-08-06)"
   sodipodi:docname="44.svg">
  <defs
     id="defs819" />
  <sodipodi:namedview
     id="base"
     pagecolor="#ffffff"
     bordercolor="#666666"
     borderopacity="1.0"
     inkscape:pageopacity="0.0"
     inkscape:pageshadow="2"
     inkscape:zoom="2"
     inkscape:cx="113.20805"
     inkscape:cy="160.67297"
     inkscape:document-units="mm"
     inkscape:current-layer="layer1"
     showgrid="false"
     fit-margin-top="0"
     fit-margin-left="0"
     fit-margin-right="0"
     fit-margin-bottom="0"
     showborder="true"
     inkscape:window-width="1920"
     inkscape:window-height="1057"
     inkscape:window-x="-8"
     inkscape:window-y="-8"
     inkscape:window-maximized="1"
     inkscape:snap-global="true" />
  <metadata
     id="metadata822">
    <rdf:RDF>
      <cc:Work
         rdf:about="">
        <dc:format>image/svg+xml</dc:format>
        <dc:type
           rdf:resource="http://purl.org/dc/dcmitype/StillImage" />
        <dc:title></dc:title>
      </cc:Work>
    </rdf:RDF>
  </metadata>
  <g
     inkscape:label="Layer 1"
     inkscape:groupmode="layer"
     id="layer1"
     transform="translate(232.83333,-304.04641)">
    <rect
       style="opacity:1;fill:#000000;fill-opacity:1;fill-rule:nonzero;stroke:none;stroke-width:0.57753444;stroke-linecap:square;stroke-linejoin:round;stroke-miterlimit:4;stroke-dasharray:none;stroke-opacity:1;paint-order:stroke fill markers"
       id="rect1373"
       width="60.400002"
       height="80.400002"
       x="-232.33333"
       y="304.54642"
       rx="3.8"
       ry="3.8" />
    <rect
       y="304.74643"
       x="-232.13333"
       height="80"
       width="60"
       id="rect1375"
       style="opacity:1;fill:#ffffff;fill-opacity:1;fill-rule:nonzero;stroke:none;stroke-width:0.57418531;stroke-linecap:square;stroke-linejoin:round;stroke-miterlimit:4;stroke-dasharray:none;stroke-opacity:1;paint-order:stroke fill markers"
       rx="3.5999999"
       ry="3.5999999" />
    <rect
       style="opacity:1;fill:#003c82;fill-opacity:1;fill-rule:nonzero;stroke:none;stroke-width:0.54905295;stroke-linecap:square;stroke-linejoin:round;stroke-miterlimit:4;stroke-dasharray:none;stroke-opacity:1;paint-order:stroke fill markers"
       id="rect1385"
       width="57"
       height="77"
       x="-230.63333"
       y="306.2464"
       rx="2.0999999"
       ry="2.0999999" />
    <rect
       style="opacity:1;fill:#fad20a;fill-opacity:1;fill-rule:nonzero;stroke:none;stroke-width:1.46507215;stroke-linecap:square;stroke-linejoin:round;stroke-miterlimit:4;stroke-dasharray:none;stroke-opacity:1;paint-order:stroke fill markers"
       id="rect860"
       width="40"
       height="40"
       x="-222.13333"
       y="324.74643" />
    <path
       id="path1718"
       d="m -213.13331,336.57638 c -3.49062,0.4315 -5.46,2.08 -5.46,2.08 -0.72445,0.56919 -1.53027,1.17702 -1.54,2.19 v 6.3 c -0.003,0.30766 1.30115,0.29469 1.3,0 v -1.63 l 21.6,5.57 v 2.36 c -0.003,0.38196 1.90636,0.56733 1.9,-0.50049 l 0.13,-1.56951 9.53043,-2.66 v 1.65 c 0.007,0.19183 1.53111,0.32209 1.53944,-0.42 v -5.09 c 0.005,-1.03667 -0.41126,-1.93331 -1.29987,-2.23 -0.95103,-0.23828 -1.99759,-0.31723 -2.85,-0.12 0,0 -3.43497,0.54553 -4.67,1.83 -5.93846,-2.4772 -11.59617,-3.16521 -15.08,-3.48 v -2.4 c 0.0122,-0.59796 -1.56177,-1.44446 -2.2,-1.6 -0.76494,-0.27566 -1.88274,-0.36242 -2.9,-0.28 z m 3.3,3.86 c 0.62094,0.15437 0.67689,0.62849 0,0.83 -0.93502,0.21488 -2.6345,0.69983 -3.14,1.06047 -0.48751,0.38457 -0.59327,1.03668 -0.28999,1.77953 -0.17482,0.0773 -0.57765,0.0618 -0.77,0 -0.73903,-0.24293 -1.58213,-0.64005 -2.2,-1.15 -0.37052,-0.3228 -0.4178,-0.66058 -0.29001,-0.92 0.27597,-0.54097 1.24874,-0.94101 2.67,-1.31 0.84229,-0.24388 3.40027,-0.4075 4.02,-0.29 z m 6.88,2.02 c 2.22838,0.44892 6.52287,1.80951 8.46,2.77 -0.51201,0.22562 -1.81554,2.09485 -1.72001,3.25 l -0.24,0.01 -13.13999,-3.26 c -1.18911,-0.37469 -1.73299,-0.82366 -2.25,-1.3 -0.35502,-0.3088 -0.63113,-0.7477 -0.49,-1.13 0.15984,-0.33822 0.83715,-0.53638 1.19996,-0.59 3.95401,-0.75195 6.63751,-0.0307 8.18004,0.25 z"
       style="fill:#000000;fill-opacity:1;fill-rule:nonzero;stroke:none;stroke-width:0.05918731"
       inkscape:connector-curvature="0"
       sodipodi:nodetypes="ccccccccccccccccccccccccccccccccccccccc" />
  </g>
</svg>
