<?xml version="1.0" encoding="UTF-8" standalone="no"?>
<!-- Created with Inkscape (http://www.inkscape.org/) -->

<svg
   xmlns:dc="http://purl.org/dc/elements/1.1/"
   xmlns:cc="http://creativecommons.org/ns#"
   xmlns:rdf="http://www.w3.org/1999/02/22-rdf-syntax-ns#"
   xmlns:svg="http://www.w3.org/2000/svg"
   xmlns="http://www.w3.org/2000/svg"
   xmlns:sodipodi="http://sodipodi.sourceforge.net/DTD/sodipodi-0.dtd"
   xmlns:inkscape="http://www.inkscape.org/namespaces/inkscape"
   width="61.400002mm"
   height="61.400002mm"
   viewBox="0 0 61.400002 61.400002"
   version="1.1"
   id="svg825"
   inkscape:version="0.92.2 (5c3e80d, 2017-08-06)"
   sodipodi:docname="11.svg">
  <defs
     id="defs819" />
  <sodipodi:namedview
     id="base"
     pagecolor="#ffffff"
     bordercolor="#666666"
     borderopacity="1.0"
     inkscape:pageopacity="0.0"
     inkscape:pageshadow="2"
     inkscape:zoom="2.2892582"
     inkscape:cx="118.15126"
     inkscape:cy="110.02492"
     inkscape:document-units="mm"
     inkscape:current-layer="layer1"
     showgrid="false"
     fit-margin-top="0"
     fit-margin-left="0"
     fit-margin-right="0"
     fit-margin-bottom="0"
     showborder="true"
     inkscape:window-width="1920"
     inkscape:window-height="1057"
     inkscape:window-x="-8"
     inkscape:window-y="-8"
     inkscape:window-maximized="1" />
  <metadata
     id="metadata822">
    <rdf:RDF>
      <cc:Work
         rdf:about="">
        <dc:format>image/svg+xml</dc:format>
        <dc:type
           rdf:resource="http://purl.org/dc/dcmitype/StillImage" />
        <dc:title></dc:title>
      </cc:Work>
    </rdf:RDF>
  </metadata>
  <g
     inkscape:label="Layer 1"
     inkscape:groupmode="layer"
     id="layer1"
     transform="translate(232.83333,-324.04641)">
    <rect
       style="opacity:1;fill:#000000;fill-opacity:1;fill-rule:nonzero;stroke:none;stroke-width:0.50057405;stroke-linecap:square;stroke-linejoin:round;stroke-miterlimit:4;stroke-dasharray:none;stroke-opacity:1;paint-order:stroke fill markers"
       id="rect1373"
       width="60.400002"
       height="60.400002"
       x="-232.33333"
       y="324.54642"
       rx="3.8"
       ry="3.8" />
    <rect
       y="324.7464"
       x="-232.13333"
       height="60"
       width="60"
       id="rect1375"
       style="opacity:1;fill:#ffffff;fill-opacity:1;fill-rule:nonzero;stroke:none;stroke-width:0.49725902;stroke-linecap:square;stroke-linejoin:round;stroke-miterlimit:4;stroke-dasharray:none;stroke-opacity:1;paint-order:stroke fill markers"
       rx="3.5999999"
       ry="3.5999999" />
    <rect
       style="opacity:1;fill:#003c82;fill-opacity:1;fill-rule:nonzero;stroke:none;stroke-width:0.47239608;stroke-linecap:square;stroke-linejoin:round;stroke-miterlimit:4;stroke-dasharray:none;stroke-opacity:1;paint-order:stroke fill markers"
       id="rect1385"
       width="57"
       height="57"
       x="-230.63333"
       y="326.2464"
       rx="2.0999999"
       ry="2.0999999" />
    <path
       inkscape:connector-curvature="0"
       id="path5410"
       style="fill:#ffffff;fill-opacity:1;fill-rule:nonzero;stroke:none;stroke-width:0.13198861"
       d="m -226.9333,374.94639 h 49.6 l -24.8,-43"
       sodipodi:nodetypes="ccc" />
    <path
       style="opacity:1;fill:#000000;fill-opacity:1;fill-rule:nonzero;stroke:none;stroke-width:0.29596892;stroke-linecap:square;stroke-linejoin:round;stroke-miterlimit:22.9260006;stroke-dasharray:none;stroke-opacity:1;paint-order:stroke fill markers"
       d="m -218.67912,372.79116 h -2.50273 v -0.83424 h 2.50273 z"
       id="rect2031"
       inkscape:connector-curvature="0"
       sodipodi:nodetypes="ccccc" />
    <path
       sodipodi:nodetypes="ccccc"
       inkscape:connector-curvature="0"
       id="path888"
       d="m -183.08473,372.79116 h -2.50273 v -0.83424 h 2.50273 z"
       style="opacity:1;fill:#000000;fill-opacity:1;fill-rule:nonzero;stroke:none;stroke-width:0.29596892;stroke-linecap:square;stroke-linejoin:round;stroke-miterlimit:22.9260006;stroke-dasharray:none;stroke-opacity:1;paint-order:stroke fill markers" />
    <path
       sodipodi:nodetypes="ccccc"
       inkscape:connector-curvature="0"
       id="path890"
       d="m -215.11968,372.79116 h -2.50273 v -0.83424 h 2.50273 z"
       style="opacity:1;fill:#000000;fill-opacity:1;fill-rule:nonzero;stroke:none;stroke-width:0.29596892;stroke-linecap:square;stroke-linejoin:round;stroke-miterlimit:22.9260006;stroke-dasharray:none;stroke-opacity:1;paint-order:stroke fill markers" />
    <path
       style="opacity:1;fill:#000000;fill-opacity:1;fill-rule:nonzero;stroke:none;stroke-width:0.29596892;stroke-linecap:square;stroke-linejoin:round;stroke-miterlimit:22.9260006;stroke-dasharray:none;stroke-opacity:1;paint-order:stroke fill markers"
       d="m -211.56024,372.79116 h -2.50273 v -0.83424 h 2.50273 z"
       id="path892"
       inkscape:connector-curvature="0"
       sodipodi:nodetypes="ccccc" />
    <path
       sodipodi:nodetypes="ccccc"
       inkscape:connector-curvature="0"
       id="path894"
       d="m -208.0008,372.79116 h -2.50273 v -0.83424 h 2.50273 z"
       style="opacity:1;fill:#000000;fill-opacity:1;fill-rule:nonzero;stroke:none;stroke-width:0.29596892;stroke-linecap:square;stroke-linejoin:round;stroke-miterlimit:22.9260006;stroke-dasharray:none;stroke-opacity:1;paint-order:stroke fill markers" />
    <path
       style="opacity:1;fill:#000000;fill-opacity:1;fill-rule:nonzero;stroke:none;stroke-width:0.29596892;stroke-linecap:square;stroke-linejoin:round;stroke-miterlimit:22.9260006;stroke-dasharray:none;stroke-opacity:1;paint-order:stroke fill markers"
       d="m -204.44136,372.79116 h -2.50273 v -0.83424 h 2.50273 z"
       id="path896"
       inkscape:connector-curvature="0"
       sodipodi:nodetypes="ccccc" />
    <path
       sodipodi:nodetypes="ccccc"
       inkscape:connector-curvature="0"
       id="path898"
       d="m -200.88192,372.79116 h -2.50273 v -0.83424 h 2.50273 z"
       style="opacity:1;fill:#000000;fill-opacity:1;fill-rule:nonzero;stroke:none;stroke-width:0.29596892;stroke-linecap:square;stroke-linejoin:round;stroke-miterlimit:22.9260006;stroke-dasharray:none;stroke-opacity:1;paint-order:stroke fill markers" />
    <path
       style="opacity:1;fill:#000000;fill-opacity:1;fill-rule:nonzero;stroke:none;stroke-width:0.29596892;stroke-linecap:square;stroke-linejoin:round;stroke-miterlimit:22.9260006;stroke-dasharray:none;stroke-opacity:1;paint-order:stroke fill markers"
       d="m -197.32248,372.79116 h -2.50274 v -0.83424 h 2.50274 z"
       id="path900"
       inkscape:connector-curvature="0"
       sodipodi:nodetypes="ccccc" />
    <path
       sodipodi:nodetypes="ccccc"
       inkscape:connector-curvature="0"
       id="path902"
       d="m -193.76305,372.79116 h -2.50273 v -0.83424 h 2.50273 z"
       style="opacity:1;fill:#000000;fill-opacity:1;fill-rule:nonzero;stroke:none;stroke-width:0.29596892;stroke-linecap:square;stroke-linejoin:round;stroke-miterlimit:22.9260006;stroke-dasharray:none;stroke-opacity:1;paint-order:stroke fill markers" />
    <path
       style="opacity:1;fill:#000000;fill-opacity:1;fill-rule:nonzero;stroke:none;stroke-width:0.29596892;stroke-linecap:square;stroke-linejoin:round;stroke-miterlimit:22.9260006;stroke-dasharray:none;stroke-opacity:1;paint-order:stroke fill markers"
       d="m -190.20361,372.79116 h -2.50273 v -0.83424 h 2.50273 z"
       id="path904"
       inkscape:connector-curvature="0"
       sodipodi:nodetypes="ccccc" />
    <path
       sodipodi:nodetypes="ccccc"
       inkscape:connector-curvature="0"
       id="path906"
       d="m -186.64417,372.79116 h -2.50273 v -0.83424 h 2.50273 z"
       style="opacity:1;fill:#000000;fill-opacity:1;fill-rule:nonzero;stroke:none;stroke-width:0.29596892;stroke-linecap:square;stroke-linejoin:round;stroke-miterlimit:22.9260006;stroke-dasharray:none;stroke-opacity:1;paint-order:stroke fill markers" />
    <path
       id="path962"
       d="m -206.25773,360.84799 c 0.0705,-0.18354 2.48959,-5.21928 2.55063,-5.64792 0.061,-0.41926 -0.44618,-3.94277 -0.52604,-4.01814 -0.0845,-0.0848 -3.75277,2.71328 -3.90308,2.7227 -0.15509,0 -0.31459,-0.18835 -0.39921,-0.18357 -0.0658,0.004 -0.48849,0.41922 -0.69984,0.51813 -0.0705,0.0375 -0.15031,0.0612 -0.2396,0.0658 -0.32891,0.0136 -0.61058,-0.28748 -0.62469,-0.66418 -0.0102,-0.2215 0.0845,-0.44752 0.16905,-0.54173 0.0893,-0.0943 0.22529,-0.21672 0.33334,-0.24508 0.10804,-0.0343 0.24881,-0.0376 0.32891,-0.0848 0.0705,-0.0375 0.0658,-0.36743 0.0658,-0.36743 0,0 3.19854,-2.29875 3.34418,-2.44478 0.15031,-0.14596 1.35269,-3.37278 1.57814,-3.6083 0.22085,-0.23074 1.15539,-1.14467 1.15539,-1.14467 l 0.0137,-0.3957 c 0,0 -0.83605,-0.26869 -0.89709,-0.4051 -0.0562,-0.14117 -0.53544,-1.80886 -0.53544,-1.80886 l -0.93938,-0.29193 -0.0375,-0.2827 1.16009,-0.52757 0.0239,-0.67359 c 0,0 0.91589,-0.47578 1.54058,-0.41925 0.61997,0.0612 1.23524,0.35799 1.24466,0.52286 0.003,0.16955 0.024,0.74899 0.024,0.74899 l 1.28222,0.5323 -0.0138,0.27791 -1.2071,0.70189 0.13156,1.8842 c 0,0 2.32494,1.0693 2.46113,1.22946 0.13156,0.16477 2.92369,3.3775 3.01296,3.54705 0.0798,0.16031 0.85481,4.42794 0.77025,4.42794 -0.0706,0.004 -0.37103,0.27313 -0.37103,0.27313 0,0 0.11281,0.89031 -0.10327,1.20591 -0.0102,0.017 -0.0239,0.0274 -0.0341,0.0375 -0.10805,0.19793 -0.30063,0.3343 -0.53546,0.34388 -0.35695,0.0136 -0.66695,-0.29192 -0.68105,-0.68777 0,-0.0895 0.0102,-0.17433 0.034,-0.25433 l 0.0422,-0.34387 -0.26312,-0.2403 c 0,0 -0.47908,-3.43402 -0.58709,-3.51407 -0.10805,-0.0752 -2.12526,-1.93135 -2.12526,-1.93135 l 0.76088,6.21327 c 0.0137,0.33431 -0.18779,0.62177 -0.46966,0.71127 l 3.51508,11.33363 c 0.0893,0.23073 0.0102,0.49932 -0.19734,0.61236 l -3.01068,1.52625 c -0.16904,0.0896 -0.37106,0.004 -0.45559,-0.18357 -0.0798,-0.18357 0.23961,-0.60764 0.17383,-0.52286 0.0422,-0.0612 0.18303,-0.24955 0.36166,-0.52287 0.24882,-0.38156 0.16428,-0.69245 -0.0518,-1.17764 0,0 -2.53345,-8.2058 -2.64149,-8.2058 -0.10805,0 -2.034,3.52822 -2.142,3.64596 l -0.0102,0.0102 -2.12301,5.94947 c -0.0893,0.23552 -0.26312,0.4098 -0.48845,0.37214 l -3.25961,-0.66892 c -0.19257,-0.0375 -0.31459,-0.23073 -0.28187,-0.4381 0.0339,-0.2027 0.1878,-0.24508 0.39927,-0.30627 0.2113,-0.0612 0.28186,-0.0848 0.77965,-0.20715 0.47437,-0.0659 0.71861,-0.38156 0.83136,-0.81964 0,0 1.69085,-5.45481 1.766,-5.63384"
       style="fill:#000000;fill-opacity:1;fill-rule:nonzero;stroke:none;stroke-width:0.0217062"
       inkscape:connector-curvature="0"
       sodipodi:nodetypes="cccccccccccccccccccccccccccccccccccccccccccccccccccscccccccccc" />
    <path
       sodipodi:nodetypes="ccccc"
       inkscape:connector-curvature="0"
       id="path839"
       d="m -215.11968,364.30978 h -2.50273 v -0.83424 h 2.50273 z"
       style="opacity:1;fill:#000000;fill-opacity:1;fill-rule:nonzero;stroke:none;stroke-width:0.29596892;stroke-linecap:square;stroke-linejoin:round;stroke-miterlimit:22.9260006;stroke-dasharray:none;stroke-opacity:1;paint-order:stroke fill markers" />
    <path
       style="opacity:1;fill:#000000;fill-opacity:1;fill-rule:nonzero;stroke:none;stroke-width:0.29596892;stroke-linecap:square;stroke-linejoin:round;stroke-miterlimit:22.9260006;stroke-dasharray:none;stroke-opacity:1;paint-order:stroke fill markers"
       d="m -211.56024,364.30978 h -2.50273 v -0.83424 h 2.50273 z"
       id="path841"
       inkscape:connector-curvature="0"
       sodipodi:nodetypes="ccccc" />
    <path
       sodipodi:nodetypes="ccccc"
       inkscape:connector-curvature="0"
       id="path843"
       d="m -208.0008,364.30978 h -2.50273 v -0.83424 h 2.50273 z"
       style="opacity:1;fill:#000000;fill-opacity:1;fill-rule:nonzero;stroke:none;stroke-width:0.29596892;stroke-linecap:square;stroke-linejoin:round;stroke-miterlimit:22.9260006;stroke-dasharray:none;stroke-opacity:1;paint-order:stroke fill markers" />
    <path
       sodipodi:nodetypes="ccccc"
       inkscape:connector-curvature="0"
       id="path847"
       d="m -200.88192,364.30978 h -2.50273 v -0.83424 h 2.50273 z"
       style="opacity:1;fill:#000000;fill-opacity:1;fill-rule:nonzero;stroke:none;stroke-width:0.29596892;stroke-linecap:square;stroke-linejoin:round;stroke-miterlimit:22.9260006;stroke-dasharray:none;stroke-opacity:1;paint-order:stroke fill markers" />
    <path
       sodipodi:nodetypes="ccccc"
       inkscape:connector-curvature="0"
       id="path851"
       d="m -193.76305,364.30978 h -2.50273 v -0.83424 h 2.50273 z"
       style="opacity:1;fill:#000000;fill-opacity:1;fill-rule:nonzero;stroke:none;stroke-width:0.29596892;stroke-linecap:square;stroke-linejoin:round;stroke-miterlimit:22.9260006;stroke-dasharray:none;stroke-opacity:1;paint-order:stroke fill markers" />
    <path
       style="opacity:1;fill:#000000;fill-opacity:1;fill-rule:nonzero;stroke:none;stroke-width:0.29596892;stroke-linecap:square;stroke-linejoin:round;stroke-miterlimit:22.9260006;stroke-dasharray:none;stroke-opacity:1;paint-order:stroke fill markers"
       d="m -190.20361,364.30978 h -2.50273 v -0.83424 h 2.50273 z"
       id="path853"
       inkscape:connector-curvature="0"
       sodipodi:nodetypes="ccccc" />
    <path
       sodipodi:nodetypes="ccccc"
       inkscape:connector-curvature="0"
       id="path855"
       d="m -186.64417,364.30978 h -2.50273 v -0.83424 h 2.50273 z"
       style="opacity:1;fill:#000000;fill-opacity:1;fill-rule:nonzero;stroke:none;stroke-width:0.29596892;stroke-linecap:square;stroke-linejoin:round;stroke-miterlimit:22.9260006;stroke-dasharray:none;stroke-opacity:1;paint-order:stroke fill markers" />
  </g>
</svg>
