<?xml version="1.0" encoding="UTF-8" standalone="no"?>
<!-- Created with Inkscape (http://www.inkscape.org/) -->

<svg
   xmlns:dc="http://purl.org/dc/elements/1.1/"
   xmlns:cc="http://creativecommons.org/ns#"
   xmlns:rdf="http://www.w3.org/1999/02/22-rdf-syntax-ns#"
   xmlns:svg="http://www.w3.org/2000/svg"
   xmlns="http://www.w3.org/2000/svg"
   xmlns:sodipodi="http://sodipodi.sourceforge.net/DTD/sodipodi-0.dtd"
   xmlns:inkscape="http://www.inkscape.org/namespaces/inkscape"
   width="61.400002mm"
   height="61.400002mm"
   viewBox="0 0 61.400002 61.400002"
   version="1.1"
   id="svg825"
   inkscape:version="0.92.2 (5c3e80d, 2017-08-06)"
   sodipodi:docname="11.svg">
  <defs
     id="defs819" />
  <sodipodi:namedview
     id="base"
     pagecolor="#ffffff"
     bordercolor="#666666"
     borderopacity="1.0"
     inkscape:pageopacity="0.0"
     inkscape:pageshadow="2"
     inkscape:zoom="2.2892582"
     inkscape:cx="86.251668"
     inkscape:cy="142.84582"
     inkscape:document-units="mm"
     inkscape:current-layer="layer1"
     showgrid="false"
     fit-margin-top="0"
     fit-margin-left="0"
     fit-margin-right="0"
     fit-margin-bottom="0"
     showborder="true"
     inkscape:window-width="1920"
     inkscape:window-height="1057"
     inkscape:window-x="-8"
     inkscape:window-y="-8"
     inkscape:window-maximized="1" />
  <metadata
     id="metadata822">
    <rdf:RDF>
      <cc:Work
         rdf:about="">
        <dc:format>image/svg+xml</dc:format>
        <dc:type
           rdf:resource="http://purl.org/dc/dcmitype/StillImage" />
        <dc:title></dc:title>
      </cc:Work>
    </rdf:RDF>
  </metadata>
  <g
     inkscape:label="Layer 1"
     inkscape:groupmode="layer"
     id="layer1"
     transform="translate(232.83333,-324.04641)">
    <rect
       style="opacity:1;fill:#000000;fill-opacity:1;fill-rule:nonzero;stroke:none;stroke-width:0.50057405;stroke-linecap:square;stroke-linejoin:round;stroke-miterlimit:4;stroke-dasharray:none;stroke-opacity:1;paint-order:stroke fill markers"
       id="rect1373"
       width="60.400002"
       height="60.400002"
       x="-232.33333"
       y="324.54642"
       rx="3.8"
       ry="3.8" />
    <rect
       y="324.7464"
       x="-232.13333"
       height="60"
       width="60"
       id="rect1375"
       style="opacity:1;fill:#ffffff;fill-opacity:1;fill-rule:nonzero;stroke:none;stroke-width:0.49725902;stroke-linecap:square;stroke-linejoin:round;stroke-miterlimit:4;stroke-dasharray:none;stroke-opacity:1;paint-order:stroke fill markers"
       rx="3.5999999"
       ry="3.5999999" />
    <rect
       style="opacity:1;fill:#003c82;fill-opacity:1;fill-rule:nonzero;stroke:none;stroke-width:0.47239608;stroke-linecap:square;stroke-linejoin:round;stroke-miterlimit:4;stroke-dasharray:none;stroke-opacity:1;paint-order:stroke fill markers"
       id="rect1385"
       width="57"
       height="57"
       x="-230.63333"
       y="326.2464"
       rx="2.0999999"
       ry="2.0999999" />
    <path
       id="path1085-9"
       style="fill:#ffffff;fill-opacity:1;fill-rule:evenodd;stroke:none;stroke-width:0.12757418px;stroke-linecap:butt;stroke-linejoin:miter;stroke-opacity:1"
       d="m -175.88333,374.54641 h -7 l -4.515,-11.725 h 5.425 z"
       inkscape:connector-curvature="0"
       sodipodi:nodetypes="ccccc" />
    <path
       id="path1089-0"
       style="fill:#ffffff;fill-opacity:1;fill-rule:evenodd;stroke:none;stroke-width:0.12725019px;stroke-linecap:butt;stroke-linejoin:miter;stroke-opacity:1"
       d="m -205.67708,374.54641 h 7.0875 l -1.015,-11.725 h -5.0575 z"
       inkscape:connector-curvature="0"
       sodipodi:nodetypes="ccccc" />
    <path
       sodipodi:nodetypes="ccccc"
       inkscape:connector-curvature="0"
       d="m -187.20583,374.54641 h -6.9475 l -2.03,-11.725 h 5.1625 z"
       style="fill:#ffffff;fill-opacity:1;fill-rule:evenodd;stroke:none;stroke-width:0.12757418px;stroke-linecap:butt;stroke-linejoin:miter;stroke-opacity:1"
       id="path1121-1" />
    <path
       sodipodi:nodetypes="ccccc"
       inkscape:connector-curvature="0"
       d="m -228.38333,374.54641 h 7 l 4.515,-11.725 h -5.425 z"
       style="fill:#ffffff;fill-opacity:1;fill-rule:evenodd;stroke:none;stroke-width:0.12757418px;stroke-linecap:butt;stroke-linejoin:miter;stroke-opacity:1"
       id="path846-6" />
    <path
       id="path848-5"
       style="fill:#ffffff;fill-opacity:1;fill-rule:evenodd;stroke:none;stroke-width:0.12757418px;stroke-linecap:butt;stroke-linejoin:miter;stroke-opacity:1"
       d="m -217.06083,374.54641 h 6.9475 l 2.03,-11.725 h -5.1625 z"
       inkscape:connector-curvature="0"
       sodipodi:nodetypes="ccccc" />
    <path
       id="path962-8"
       d="m -196.94221,359.5143 c -0.0888,-0.23101 -3.13345,-6.56912 -3.21029,-7.10862 -0.0768,-0.52768 0.56157,-4.96246 0.66209,-5.05733 0.10639,-0.10669 4.72333,3.41501 4.91251,3.42686 0.1952,0 0.39596,-0.23706 0.50246,-0.23105 0.0828,0.005 0.61482,0.52765 0.88084,0.65214 0.0888,0.0472 0.18917,0.077 0.30157,0.0829 0.41397,0.0171 0.76848,-0.36183 0.78624,-0.83595 0.0129,-0.27878 -0.10638,-0.56326 -0.21276,-0.68184 -0.11241,-0.11875 -0.28357,-0.27276 -0.41955,-0.30846 -0.13599,-0.0431 -0.31316,-0.0472 -0.41397,-0.10672 -0.0888,-0.0472 -0.0828,-0.46245 -0.0828,-0.46245 0,0 -4.02576,-2.89327 -4.20907,-3.07706 -0.18918,-0.18372 -1.70252,-4.24507 -1.98628,-4.54151 -0.27798,-0.29041 -1.45422,-1.4407 -1.45422,-1.4407 l -0.0172,-0.49804 c 0,0 1.05227,-0.33818 1.12909,-0.50986 0.0708,-0.17769 0.67392,-2.27668 0.67392,-2.27668 l 1.18233,-0.36743 0.0472,-0.35582 -1.46012,-0.66401 -0.0301,-0.8478 c 0,0 -1.15277,-0.59883 -1.93902,-0.52768 -0.78031,0.077 -1.5547,0.45058 -1.56657,0.65809 -0.004,0.2134 -0.0302,0.94269 -0.0302,0.94269 l -1.61384,0.66997 0.0173,0.34978 1.51929,0.88342 -0.16558,2.3715 c 0,0 -2.92623,1.34586 -3.09765,1.54743 -0.1656,0.20738 -3.67984,4.25101 -3.79219,4.46441 -0.1004,0.20177 -1.07588,5.57312 -0.96946,5.57312 0.0888,0.005 0.46699,0.34376 0.46699,0.34376 0,0 -0.14199,1.12057 0.12997,1.51779 0.0129,0.0214 0.0301,0.0345 0.0429,0.0473 0.136,0.24912 0.37837,0.42076 0.67393,0.43282 0.44927,0.0172 0.83944,-0.36742 0.85719,-0.86565 0,-0.11271 -0.0129,-0.21941 -0.0428,-0.32011 l -0.0531,-0.4328 0.33117,-0.30245 c 0,0 0.60299,-4.32213 0.73893,-4.4229 0.136,-0.0946 2.6749,-2.43084 2.6749,-2.43084 l -0.95766,7.82019 c -0.0172,0.42076 0.23637,0.78256 0.59113,0.89522 l -4.42416,14.26481 c -0.1124,0.29038 -0.0129,0.62843 0.24838,0.77071 l 3.7893,1.92098 c 0.21277,0.11272 0.46703,0.005 0.57343,-0.23105 0.10038,-0.23105 -0.30159,-0.76478 -0.21879,-0.65809 -0.0531,-0.077 -0.23036,-0.31406 -0.4552,-0.65809 -0.31316,-0.48025 -0.20676,-0.87153 0.0652,-1.48221 0,0 3.18867,-10.32803 3.32464,-10.32803 0.136,0 2.56005,4.4407 2.69599,4.5889 l 0.0129,0.0128 2.67207,7.48813 c 0.11239,0.29644 0.33117,0.5158 0.61477,0.4684 l 4.10262,-0.84193 c 0.24238,-0.0472 0.39595,-0.2904 0.35476,-0.55139 -0.0428,-0.25514 -0.23636,-0.30847 -0.50252,-0.38549 -0.26596,-0.077 -0.35476,-0.10669 -0.98128,-0.26072 -0.59706,-0.0829 -0.90447,-0.48024 -1.04639,-1.03162 0,0 -2.12815,-6.86557 -2.22273,-7.0909"
       style="fill:none;fill-opacity:1;fill-rule:nonzero;stroke:#003c82;stroke-width:1.39999998;stroke-linecap:round;stroke-linejoin:round;stroke-miterlimit:4;stroke-dasharray:none;stroke-opacity:1"
       inkscape:connector-curvature="0"
       sodipodi:nodetypes="cccccccccccccccccccccccccccccccccccccccccccccccccccscccccccccc" />
    <path
       sodipodi:nodetypes="cccccccccccccccccccccccccccccccccccccccccccccccccccscccccccccc"
       inkscape:connector-curvature="0"
       style="fill:#ffffff;fill-opacity:1;fill-rule:nonzero;stroke:none;stroke-width:0.02731997"
       d="m -196.94221,359.5143 c -0.0888,-0.23101 -3.13345,-6.56912 -3.21029,-7.10862 -0.0768,-0.52768 0.56157,-4.96246 0.66209,-5.05733 0.10639,-0.10669 4.72333,3.41501 4.91251,3.42686 0.1952,0 0.39596,-0.23706 0.50246,-0.23105 0.0828,0.005 0.61482,0.52765 0.88084,0.65214 0.0888,0.0472 0.18917,0.077 0.30157,0.0829 0.41397,0.0171 0.76848,-0.36183 0.78624,-0.83595 0.0129,-0.27878 -0.10638,-0.56326 -0.21276,-0.68184 -0.11241,-0.11875 -0.28357,-0.27276 -0.41955,-0.30846 -0.13599,-0.0431 -0.31316,-0.0472 -0.41397,-0.10672 -0.0888,-0.0472 -0.0828,-0.46245 -0.0828,-0.46245 0,0 -4.02576,-2.89327 -4.20907,-3.07706 -0.18918,-0.18372 -1.70252,-4.24507 -1.98628,-4.54151 -0.27798,-0.29041 -1.45422,-1.4407 -1.45422,-1.4407 l -0.0172,-0.49804 c 0,0 1.05227,-0.33818 1.12909,-0.50986 0.0708,-0.17769 0.67392,-2.27668 0.67392,-2.27668 l 1.18233,-0.36743 0.0472,-0.35582 -1.46012,-0.66401 -0.0301,-0.8478 c 0,0 -1.15277,-0.59883 -1.93902,-0.52768 -0.78031,0.077 -1.5547,0.45058 -1.56657,0.65809 -0.004,0.2134 -0.0302,0.94269 -0.0302,0.94269 l -1.61384,0.66997 0.0173,0.34978 1.51929,0.88342 -0.16558,2.3715 c 0,0 -2.92623,1.34586 -3.09765,1.54743 -0.1656,0.20738 -3.67984,4.25101 -3.79219,4.46441 -0.1004,0.20177 -1.07588,5.57312 -0.96946,5.57312 0.0888,0.005 0.46699,0.34376 0.46699,0.34376 0,0 -0.14199,1.12057 0.12997,1.51779 0.0129,0.0214 0.0301,0.0345 0.0429,0.0473 0.136,0.24912 0.37837,0.42076 0.67393,0.43282 0.44927,0.0172 0.83944,-0.36742 0.85719,-0.86565 0,-0.11271 -0.0129,-0.21941 -0.0428,-0.32011 l -0.0531,-0.4328 0.33117,-0.30245 c 0,0 0.60299,-4.32213 0.73893,-4.4229 0.136,-0.0946 2.6749,-2.43084 2.6749,-2.43084 l -0.95766,7.82019 c -0.0172,0.42076 0.23637,0.78256 0.59113,0.89522 l -4.42416,14.26481 c -0.1124,0.29038 -0.0129,0.62843 0.24838,0.77071 l 3.7893,1.92098 c 0.21277,0.11272 0.46703,0.005 0.57343,-0.23105 0.10038,-0.23105 -0.30159,-0.76478 -0.21879,-0.65809 -0.0531,-0.077 -0.23036,-0.31406 -0.4552,-0.65809 -0.31316,-0.48025 -0.20676,-0.87153 0.0652,-1.48221 0,0 3.18867,-10.32803 3.32464,-10.32803 0.136,0 2.56005,4.4407 2.69599,4.5889 l 0.0129,0.0128 2.67207,7.48813 c 0.11239,0.29644 0.33117,0.5158 0.61477,0.4684 l 4.10262,-0.84193 c 0.24238,-0.0472 0.39595,-0.2904 0.35476,-0.55139 -0.0428,-0.25514 -0.23636,-0.30847 -0.50252,-0.38549 -0.26596,-0.077 -0.35476,-0.10669 -0.98128,-0.26072 -0.59706,-0.0829 -0.90447,-0.48024 -1.04639,-1.03162 0,0 -2.12815,-6.86557 -2.22273,-7.0909"
       id="path856-1" />
  </g>
</svg>
