<?xml version="1.0" encoding="UTF-8" standalone="no"?>
<!-- Created with Inkscape (http://www.inkscape.org/) -->

<svg
   xmlns:dc="http://purl.org/dc/elements/1.1/"
   xmlns:cc="http://creativecommons.org/ns#"
   xmlns:rdf="http://www.w3.org/1999/02/22-rdf-syntax-ns#"
   xmlns:svg="http://www.w3.org/2000/svg"
   xmlns="http://www.w3.org/2000/svg"
   xmlns:sodipodi="http://sodipodi.sourceforge.net/DTD/sodipodi-0.dtd"
   xmlns:inkscape="http://www.inkscape.org/namespaces/inkscape"
   width="61.400002mm"
   height="61.400002mm"
   viewBox="0 0 61.400002 61.400002"
   version="1.1"
   id="svg825"
   inkscape:version="0.92.2 (5c3e80d, 2017-08-06)"
   sodipodi:docname="11.svg">
  <defs
     id="defs819" />
  <sodipodi:namedview
     id="base"
     pagecolor="#ffffff"
     bordercolor="#666666"
     borderopacity="1.0"
     inkscape:pageopacity="0.0"
     inkscape:pageshadow="2"
     inkscape:zoom="2.2892582"
     inkscape:cx="86.251668"
     inkscape:cy="143.97057"
     inkscape:document-units="mm"
     inkscape:current-layer="layer1"
     showgrid="false"
     fit-margin-top="0"
     fit-margin-left="0"
     fit-margin-right="0"
     fit-margin-bottom="0"
     showborder="true"
     inkscape:window-width="1920"
     inkscape:window-height="1057"
     inkscape:window-x="-8"
     inkscape:window-y="-8"
     inkscape:window-maximized="1" />
  <metadata
     id="metadata822">
    <rdf:RDF>
      <cc:Work
         rdf:about="">
        <dc:format>image/svg+xml</dc:format>
        <dc:type
           rdf:resource="http://purl.org/dc/dcmitype/StillImage" />
        <dc:title></dc:title>
      </cc:Work>
    </rdf:RDF>
  </metadata>
  <g
     inkscape:label="Layer 1"
     inkscape:groupmode="layer"
     id="layer1"
     transform="translate(232.83333,-324.04641)">
    <rect
       style="opacity:1;fill:#000000;fill-opacity:1;fill-rule:nonzero;stroke:none;stroke-width:0.50057405;stroke-linecap:square;stroke-linejoin:round;stroke-miterlimit:4;stroke-dasharray:none;stroke-opacity:1;paint-order:stroke fill markers"
       id="rect1373"
       width="60.400002"
       height="60.400002"
       x="-232.33333"
       y="324.54642"
       rx="3.8"
       ry="3.8" />
    <rect
       y="324.7464"
       x="-232.13333"
       height="60"
       width="60"
       id="rect1375"
       style="opacity:1;fill:#ffffff;fill-opacity:1;fill-rule:nonzero;stroke:none;stroke-width:0.49725902;stroke-linecap:square;stroke-linejoin:round;stroke-miterlimit:4;stroke-dasharray:none;stroke-opacity:1;paint-order:stroke fill markers"
       rx="3.5999999"
       ry="3.5999999" />
    <rect
       style="opacity:1;fill:#003c82;fill-opacity:1;fill-rule:nonzero;stroke:none;stroke-width:0.47239608;stroke-linecap:square;stroke-linejoin:round;stroke-miterlimit:4;stroke-dasharray:none;stroke-opacity:1;paint-order:stroke fill markers"
       id="rect1385"
       width="57"
       height="57"
       x="-230.63333"
       y="326.2464"
       rx="2.0999999"
       ry="2.0999999" />
    <path
       style="opacity:1;fill:#ffffff;fill-opacity:1;fill-rule:nonzero;stroke:none;stroke-width:0.37251353;stroke-linecap:square;stroke-linejoin:round;stroke-miterlimit:22.9260006;stroke-dasharray:none;stroke-opacity:1;paint-order:stroke fill markers"
       d="m -222.95832,374.54639 h -3.14999 v -1.04999 h 3.14999 z"
       id="rect2031-1"
       inkscape:connector-curvature="0"
       sodipodi:nodetypes="ccccc" />
    <path
       sodipodi:nodetypes="ccccc"
       inkscape:connector-curvature="0"
       id="path888-2"
       d="m -178.15837,374.54639 h -3.14999 v -1.04999 h 3.14999 z"
       style="opacity:1;fill:#ffffff;fill-opacity:1;fill-rule:nonzero;stroke:none;stroke-width:0.37251353;stroke-linecap:square;stroke-linejoin:round;stroke-miterlimit:22.9260006;stroke-dasharray:none;stroke-opacity:1;paint-order:stroke fill markers" />
    <path
       sodipodi:nodetypes="ccccc"
       inkscape:connector-curvature="0"
       id="path890-5"
       d="m -218.47832,374.54639 h -3.15 v -1.04999 h 3.15 z"
       style="opacity:1;fill:#ffffff;fill-opacity:1;fill-rule:nonzero;stroke:none;stroke-width:0.37251353;stroke-linecap:square;stroke-linejoin:round;stroke-miterlimit:22.9260006;stroke-dasharray:none;stroke-opacity:1;paint-order:stroke fill markers" />
    <path
       style="opacity:1;fill:#ffffff;fill-opacity:1;fill-rule:nonzero;stroke:none;stroke-width:0.37251353;stroke-linecap:square;stroke-linejoin:round;stroke-miterlimit:22.9260006;stroke-dasharray:none;stroke-opacity:1;paint-order:stroke fill markers"
       d="m -213.99833,374.54639 h -3.14999 v -1.04999 h 3.14999 z"
       id="path892-8"
       inkscape:connector-curvature="0"
       sodipodi:nodetypes="ccccc" />
    <path
       sodipodi:nodetypes="ccccc"
       inkscape:connector-curvature="0"
       id="path894-4"
       d="m -209.51833,374.54639 h -3.15 v -1.04999 h 3.15 z"
       style="opacity:1;fill:#ffffff;fill-opacity:1;fill-rule:nonzero;stroke:none;stroke-width:0.37251353;stroke-linecap:square;stroke-linejoin:round;stroke-miterlimit:22.9260006;stroke-dasharray:none;stroke-opacity:1;paint-order:stroke fill markers" />
    <path
       style="opacity:1;fill:#ffffff;fill-opacity:1;fill-rule:nonzero;stroke:none;stroke-width:0.37251353;stroke-linecap:square;stroke-linejoin:round;stroke-miterlimit:22.9260006;stroke-dasharray:none;stroke-opacity:1;paint-order:stroke fill markers"
       d="m -205.03834,374.54639 h -3.14999 v -1.04999 h 3.14999 z"
       id="path896-3"
       inkscape:connector-curvature="0"
       sodipodi:nodetypes="ccccc" />
    <path
       sodipodi:nodetypes="ccccc"
       inkscape:connector-curvature="0"
       id="path898-7"
       d="m -200.55834,374.54639 h -3.15 v -1.04999 h 3.15 z"
       style="opacity:1;fill:#ffffff;fill-opacity:1;fill-rule:nonzero;stroke:none;stroke-width:0.37251353;stroke-linecap:square;stroke-linejoin:round;stroke-miterlimit:22.9260006;stroke-dasharray:none;stroke-opacity:1;paint-order:stroke fill markers" />
    <path
       style="opacity:1;fill:#ffffff;fill-opacity:1;fill-rule:nonzero;stroke:none;stroke-width:0.37251353;stroke-linecap:square;stroke-linejoin:round;stroke-miterlimit:22.9260006;stroke-dasharray:none;stroke-opacity:1;paint-order:stroke fill markers"
       d="m -196.07835,374.54639 h -3.14999 v -1.04999 h 3.14999 z"
       id="path900-9"
       inkscape:connector-curvature="0"
       sodipodi:nodetypes="ccccc" />
    <path
       sodipodi:nodetypes="ccccc"
       inkscape:connector-curvature="0"
       id="path902-3"
       d="m -191.59835,374.54639 h -3.15 v -1.04999 h 3.15 z"
       style="opacity:1;fill:#ffffff;fill-opacity:1;fill-rule:nonzero;stroke:none;stroke-width:0.37251353;stroke-linecap:square;stroke-linejoin:round;stroke-miterlimit:22.9260006;stroke-dasharray:none;stroke-opacity:1;paint-order:stroke fill markers" />
    <path
       style="opacity:1;fill:#ffffff;fill-opacity:1;fill-rule:nonzero;stroke:none;stroke-width:0.37251353;stroke-linecap:square;stroke-linejoin:round;stroke-miterlimit:22.9260006;stroke-dasharray:none;stroke-opacity:1;paint-order:stroke fill markers"
       d="m -187.11836,374.54639 h -3.14999 v -1.04999 h 3.14999 z"
       id="path904-5"
       inkscape:connector-curvature="0"
       sodipodi:nodetypes="ccccc" />
    <path
       sodipodi:nodetypes="ccccc"
       inkscape:connector-curvature="0"
       id="path906-5"
       d="m -182.63836,374.54639 h -3.15 v -1.04999 h 3.15 z"
       style="opacity:1;fill:#ffffff;fill-opacity:1;fill-rule:nonzero;stroke:none;stroke-width:0.37251353;stroke-linecap:square;stroke-linejoin:round;stroke-miterlimit:22.9260006;stroke-dasharray:none;stroke-opacity:1;paint-order:stroke fill markers" />
    <path
       id="path962-8"
       d="m -207.32446,359.51443 c 0.0888,-0.23102 3.13345,-6.56912 3.21029,-7.1086 0.0769,-0.5277 -0.56157,-4.96247 -0.6621,-5.05733 -0.10638,-0.10669 -4.72332,3.41499 -4.9125,3.42685 -0.19519,0 -0.39595,-0.23707 -0.50246,-0.23105 -0.0828,0.005 -0.61482,0.52765 -0.88083,0.65214 -0.0888,0.0472 -0.18918,0.077 -0.30157,0.0828 -0.41397,0.0171 -0.76849,-0.36182 -0.78624,-0.83595 -0.0129,-0.27878 0.10637,-0.56326 0.21276,-0.68184 0.11241,-0.11874 0.28356,-0.27276 0.41955,-0.30846 0.13598,-0.0431 0.31316,-0.0473 0.41397,-0.10672 0.0888,-0.0473 0.0828,-0.46245 0.0828,-0.46245 0,0 4.02576,-2.89327 4.20906,-3.07706 0.18918,-0.18371 1.70252,-4.24507 1.98629,-4.54149 0.27797,-0.29042 1.45421,-1.44071 1.45421,-1.44071 l 0.0172,-0.49804 c 0,0 -1.05226,-0.33818 -1.12908,-0.50986 -0.0708,-0.17768 -0.67393,-2.27668 -0.67393,-2.27668 l -1.18232,-0.36743 -0.0472,-0.35583 1.46012,-0.66399 0.0301,-0.8478 c 0,0 1.15277,-0.59883 1.93901,-0.52768 0.78031,0.077 1.55471,0.45058 1.56657,0.65809 0.004,0.21339 0.0302,0.94268 0.0302,0.94268 l 1.61383,0.66997 -0.0173,0.34978 -1.51928,0.88343 0.16558,2.37149 c 0,0 2.92622,1.34585 3.09764,1.54743 0.1656,0.20738 3.67984,4.25101 3.79218,4.4644 0.1004,0.20177 1.07589,5.57312 0.96946,5.57312 -0.0888,0.005 -0.46698,0.34376 -0.46698,0.34376 0,0 0.14198,1.12057 -0.12998,1.51778 -0.0129,0.0215 -0.0301,0.0345 -0.0429,0.0473 -0.136,0.24912 -0.37838,0.42076 -0.67394,0.43283 -0.44927,0.0171 -0.83943,-0.36743 -0.85719,-0.86565 0,-0.11271 0.0129,-0.21942 0.0428,-0.32011 l 0.0532,-0.4328 -0.33118,-0.30244 c 0,0 -0.60298,-4.32214 -0.73892,-4.4229 -0.136,-0.0946 -2.6749,-2.43084 -2.6749,-2.43084 l 0.95766,7.82018 c 0.0172,0.42076 -0.23636,0.78256 -0.59114,0.89521 l 4.42417,14.26478 c 0.11239,0.2904 0.0129,0.62844 -0.24838,0.77072 l -3.78931,1.92099 c -0.21276,0.11271 -0.46702,0.005 -0.57342,-0.23106 -0.10037,-0.23104 0.30159,-0.76479 0.21879,-0.65808 0.0531,-0.077 0.23036,-0.31408 0.4552,-0.65811 0.31316,-0.48023 0.20676,-0.87151 -0.0652,-1.4822 0,0 -3.18867,-10.32801 -3.32464,-10.32801 -0.13599,0 -2.56005,4.4407 -2.69598,4.5889 l -0.0129,0.0128 -2.67207,7.48812 c -0.11238,0.29644 -0.33117,0.5158 -0.61477,0.4684 l -4.10262,-0.84191 c -0.24239,-0.0473 -0.39596,-0.29039 -0.35477,-0.55138 0.0427,-0.25514 0.23636,-0.30847 0.50252,-0.3855 0.26596,-0.077 0.35475,-0.10669 0.98128,-0.26072 0.59706,-0.083 0.90446,-0.48024 1.04638,-1.03162 0,0 2.12815,-6.86555 2.22273,-7.09089"
       style="fill:#ffffff;fill-opacity:1;fill-rule:nonzero;stroke:none;stroke-width:0.02731994"
       inkscape:connector-curvature="0"
       sodipodi:nodetypes="cccccccccccccccccccccccccccccccccccccccccccccccccccscccccccccc" />
    <path
       sodipodi:nodetypes="ccccc"
       inkscape:connector-curvature="0"
       id="path839-5"
       d="m -218.47832,363.87152 h -3.15 v -1.04999 h 3.15 z"
       style="opacity:1;fill:#ffffff;fill-opacity:1;fill-rule:nonzero;stroke:none;stroke-width:0.37251353;stroke-linecap:square;stroke-linejoin:round;stroke-miterlimit:22.9260006;stroke-dasharray:none;stroke-opacity:1;paint-order:stroke fill markers" />
    <path
       style="opacity:1;fill:#ffffff;fill-opacity:1;fill-rule:nonzero;stroke:none;stroke-width:0.37251353;stroke-linecap:square;stroke-linejoin:round;stroke-miterlimit:22.9260006;stroke-dasharray:none;stroke-opacity:1;paint-order:stroke fill markers"
       d="m -213.99833,363.87152 h -3.14999 v -1.04999 h 3.14999 z"
       id="path841-9"
       inkscape:connector-curvature="0"
       sodipodi:nodetypes="ccccc" />
    <path
       sodipodi:nodetypes="ccccc"
       inkscape:connector-curvature="0"
       id="path843-9"
       d="m -209.51833,363.87152 h -3.15 v -1.04999 h 3.15 z"
       style="opacity:1;fill:#ffffff;fill-opacity:1;fill-rule:nonzero;stroke:none;stroke-width:0.37251353;stroke-linecap:square;stroke-linejoin:round;stroke-miterlimit:22.9260006;stroke-dasharray:none;stroke-opacity:1;paint-order:stroke fill markers" />
    <path
       sodipodi:nodetypes="ccccc"
       inkscape:connector-curvature="0"
       id="path847-4"
       d="m -200.55834,363.87152 h -3.15 v -1.04999 h 3.15 z"
       style="opacity:1;fill:#ffffff;fill-opacity:1;fill-rule:nonzero;stroke:none;stroke-width:0.37251353;stroke-linecap:square;stroke-linejoin:round;stroke-miterlimit:22.9260006;stroke-dasharray:none;stroke-opacity:1;paint-order:stroke fill markers" />
    <path
       sodipodi:nodetypes="ccccc"
       inkscape:connector-curvature="0"
       id="path851-2"
       d="m -191.59835,363.87152 h -3.15 v -1.04999 h 3.15 z"
       style="opacity:1;fill:#ffffff;fill-opacity:1;fill-rule:nonzero;stroke:none;stroke-width:0.37251353;stroke-linecap:square;stroke-linejoin:round;stroke-miterlimit:22.9260006;stroke-dasharray:none;stroke-opacity:1;paint-order:stroke fill markers" />
    <path
       style="opacity:1;fill:#ffffff;fill-opacity:1;fill-rule:nonzero;stroke:none;stroke-width:0.37251353;stroke-linecap:square;stroke-linejoin:round;stroke-miterlimit:22.9260006;stroke-dasharray:none;stroke-opacity:1;paint-order:stroke fill markers"
       d="m -187.11836,363.87152 h -3.14999 v -1.04999 h 3.14999 z"
       id="path853-2"
       inkscape:connector-curvature="0"
       sodipodi:nodetypes="ccccc" />
    <path
       sodipodi:nodetypes="ccccc"
       inkscape:connector-curvature="0"
       id="path855-4"
       d="m -182.63836,363.87152 h -3.15 v -1.04999 h 3.15 z"
       style="opacity:1;fill:#ffffff;fill-opacity:1;fill-rule:nonzero;stroke:none;stroke-width:0.37251353;stroke-linecap:square;stroke-linejoin:round;stroke-miterlimit:22.9260006;stroke-dasharray:none;stroke-opacity:1;paint-order:stroke fill markers" />
  </g>
</svg>
