<?xml version="1.0" encoding="UTF-8" standalone="no"?>
<!-- Created with Inkscape (http://www.inkscape.org/) -->

<svg
   xmlns:dc="http://purl.org/dc/elements/1.1/"
   xmlns:cc="http://creativecommons.org/ns#"
   xmlns:rdf="http://www.w3.org/1999/02/22-rdf-syntax-ns#"
   xmlns:svg="http://www.w3.org/2000/svg"
   xmlns="http://www.w3.org/2000/svg"
   xmlns:sodipodi="http://sodipodi.sourceforge.net/DTD/sodipodi-0.dtd"
   xmlns:inkscape="http://www.inkscape.org/namespaces/inkscape"
   width="61mm"
   height="61mm"
   viewBox="0 0 61 61"
   version="1.1"
   id="svg2000"
   inkscape:version="0.92.2 (5c3e80d, 2017-08-06)"
   sodipodi:docname="22.svg">
  <defs
     id="defs1994" />
  <sodipodi:namedview
     id="base"
     pagecolor="#ffffff"
     bordercolor="#666666"
     borderopacity="1.0"
     inkscape:pageopacity="0.0"
     inkscape:pageshadow="2"
     inkscape:zoom="1.979899"
     inkscape:cx="152.76644"
     inkscape:cy="89.228228"
     inkscape:document-units="mm"
     inkscape:current-layer="layer1"
     showgrid="false"
     inkscape:window-width="1920"
     inkscape:window-height="1057"
     inkscape:window-x="-8"
     inkscape:window-y="-8"
     inkscape:window-maximized="1" />
  <metadata
     id="metadata1997">
    <rdf:RDF>
      <cc:Work
         rdf:about="">
        <dc:format>image/svg+xml</dc:format>
        <dc:type
           rdf:resource="http://purl.org/dc/dcmitype/StillImage" />
        <dc:title></dc:title>
      </cc:Work>
    </rdf:RDF>
  </metadata>
  <g
     inkscape:label="Layer 1"
     inkscape:groupmode="layer"
     id="layer1"
     transform="translate(0,-236)">
    <circle
       style="opacity:1;fill:#dc0a14;fill-opacity:1;fill-rule:nonzero;stroke:none;stroke-width:0.18410923;stroke-linecap:square;stroke-linejoin:round;stroke-miterlimit:4;stroke-dasharray:none;stroke-opacity:1;paint-order:stroke fill markers"
       id="path17"
       cx="30.500002"
       cy="266.5"
       r="30.000002" />
    <circle
       r="24"
       cy="266.5"
       cx="30.500002"
       id="circle1748"
       style="opacity:1;fill:#003c82;fill-opacity:1;fill-rule:nonzero;stroke:none;stroke-width:0.14728737;stroke-linecap:square;stroke-linejoin:round;stroke-miterlimit:4;stroke-dasharray:none;stroke-opacity:1;paint-order:stroke fill markers" />
    <rect
       y="181.01065"
       x="-169.87715"
       height="58"
       width="6"
       id="rect817"
       style="opacity:1;fill:#dc0a14;fill-opacity:1;fill-rule:nonzero;stroke:none;stroke-width:1.7125293;stroke-linecap:square;stroke-linejoin:round;stroke-miterlimit:4;stroke-dasharray:none;stroke-opacity:1;paint-order:stroke fill markers"
       transform="rotate(-45)" />
    <g
       aria-label="16-31"
       style="font-style:normal;font-variant:normal;font-weight:normal;font-stretch:normal;font-size:11.78203201px;line-height:1.25;font-family:'DIN 1451 Engschrift';-inkscape-font-specification:'DIN 1451 Engschrift';letter-spacing:0px;word-spacing:0px;fill:#ffffff;fill-opacity:1;stroke:none;stroke-width:0.22091311"
       id="text834"
       transform="translate(0.5,-0.50000953)">
      <path
         d="m 15.119293,283.92932 v -6.68041 L 14,278.08543 v -1.18998 l 1.119293,-0.82474 h 1.119293 v 7.85861 z"
         style="fill:#ffffff;stroke:none;stroke-width:0.22091311"
         id="path836"
         inkscape:connector-curvature="0" />
      <path
         d="m 21.028718,279.91165 q 0.09426,0.15316 0.117821,0.3299 0.03535,0.17673 0.03535,0.43593 v 1.5081 q 0,0.29455 -0.05891,0.54197 -0.04713,0.23564 -0.353461,0.71871 -0.294551,0.48306 -1.154639,0.55375 -0.530192,0 -0.954345,-0.22386 -0.424153,-0.23564 -0.600884,-0.55375 -0.164948,-0.3299 -0.212076,-0.54197 -0.03535,-0.22386 -0.03535,-0.49485 v -1.23711 q 0,-0.25921 0.01178,-0.36525 0.01178,-0.11782 0.08247,-0.30633 l 1.555228,-4.20618 h 1.27246 l -1.27246,3.29896 q 0.235641,-0.0825 0.506627,-0.0825 h 0.106039 q 0.636229,0.0825 0.954344,0.62445 z m -1.072165,0.5891 q -0.17673,-0.23564 -0.471281,-0.23564 -0.153166,0 -0.294551,0.0943 -0.129602,0.0942 -0.188512,0.22385 -0.05891,0.12961 -0.05891,0.36525 v 1.23711 q 0,0.25921 0.141384,0.48306 0.141384,0.22386 0.483063,0.18852 0.306333,0 0.400589,-0.2003 0.09426,-0.21207 0.09426,-0.47128 v -1.23711 q 0,-0.15317 -0.02356,-0.24743 -0.01178,-0.10603 -0.08247,-0.20029 z"
         style="fill:#ffffff;stroke:none;stroke-width:0.22091311"
         id="path838"
         inkscape:connector-curvature="0" />
      <path
         d="m 22.201767,281.39618 v -1.11929 h 3.357879 v 1.11929 z"
         style="fill:#ffffff;stroke:none;stroke-width:0.22091311"
         id="path840"
         inkscape:connector-curvature="0" />
      <path
         d="m 29.962812,282.12667 v 0.14138 q 0,0.0825 -0.01178,0.18852 0,0.0942 -0.03535,0.27098 -0.164948,0.56554 -0.624447,0.919 -0.4595,0.35346 -1.048601,0.35346 -0.471282,0 -0.883653,-0.28277 -0.412371,-0.28276 -0.541973,-0.57731 -0.129602,-0.30634 -0.176731,-0.48307 -0.03535,-0.18851 -0.03535,-0.53019 v -0.4595 h 1.119293 v 0.36524 q 0,0.14139 0,0.28277 0.01178,0.12961 0.129603,0.34168 0.11782,0.2003 0.424153,0.2003 0.306333,0 0.435935,-0.2003 0.129602,-0.21207 0.129602,-0.53019 v -1.21355 q 0,-0.29455 -0.141384,-0.41237 -0.141384,-0.11782 -0.282769,-0.14138 -0.129602,-0.0236 -0.282769,-0.0236 h -0.200294 v -0.98969 h 0.200294 q 0.706922,0 0.706922,-0.65979 v -0.94257 q 0,-0.16494 -0.02356,-0.23564 -0.01178,-0.0825 -0.141384,-0.23564 -0.11782,-0.16495 -0.377025,-0.16495 -0.294551,0 -0.435935,0.17674 -0.141385,0.17673 -0.141385,0.45949 v 0.57732 h -1.119293 v -0.57732 q 0,-0.74226 0.471282,-1.23711 0.483063,-0.50663 1.225331,-0.50663 0.412371,0 0.789396,0.21208 0.388807,0.21208 0.565538,0.49485 0.188512,0.28276 0.247422,0.53019 0.05891,0.23564 0.05891,0.50662 v 0.919 q 0,0.76584 -0.671575,1.16642 0.377025,0.25921 0.518409,0.5302 0.153166,0.2592 0.153166,0.70692 z"
         style="fill:#ffffff;stroke:none;stroke-width:0.22091311"
         id="path842"
         inkscape:connector-curvature="0" />
      <path
         d="m 32.101987,283.92932 v -6.68041 l -1.119293,0.83652 v -1.18998 l 1.119293,-0.82474 h 1.119293 v 7.85861 z"
         style="fill:#ffffff;stroke:none;stroke-width:0.22091311"
         id="path844"
         inkscape:connector-curvature="0" />
    </g>
  </g>
</svg>
