<?xml version="1.0" encoding="UTF-8" standalone="no"?>
<!-- Created with Inkscape (http://www.inkscape.org/) -->

<svg
   xmlns:dc="http://purl.org/dc/elements/1.1/"
   xmlns:cc="http://creativecommons.org/ns#"
   xmlns:rdf="http://www.w3.org/1999/02/22-rdf-syntax-ns#"
   xmlns:svg="http://www.w3.org/2000/svg"
   xmlns="http://www.w3.org/2000/svg"
   xmlns:sodipodi="http://sodipodi.sourceforge.net/DTD/sodipodi-0.dtd"
   xmlns:inkscape="http://www.inkscape.org/namespaces/inkscape"
   width="61.599998mm"
   height="61.599998mm"
   viewBox="0 0 61.599998 61.599998"
   version="1.1"
   id="svg8"
   inkscape:version="0.92.2 (5c3e80d, 2017-08-06)"
   sodipodi:docname="11.svg">
  <defs
     id="defs2" />
  <sodipodi:namedview
     id="base"
     pagecolor="#ffffff"
     bordercolor="#666666"
     borderopacity="1.0"
     inkscape:pageopacity="0.0"
     inkscape:pageshadow="2"
     inkscape:zoom="1.4"
     inkscape:cx="145.40593"
     inkscape:cy="24.127701"
     inkscape:document-units="mm"
     inkscape:current-layer="layer1"
     showgrid="false"
     inkscape:window-width="1920"
     inkscape:window-height="1057"
     inkscape:window-x="-8"
     inkscape:window-y="-8"
     inkscape:window-maximized="1" />
  <metadata
     id="metadata5">
    <rdf:RDF>
      <cc:Work
         rdf:about="">
        <dc:format>image/svg+xml</dc:format>
        <dc:type
           rdf:resource="http://purl.org/dc/dcmitype/StillImage" />
        <dc:title></dc:title>
      </cc:Work>
    </rdf:RDF>
  </metadata>
  <g
     inkscape:label="Layer 1"
     inkscape:groupmode="layer"
     id="layer1"
     transform="translate(0,-235.4)">
    <circle
       style="opacity:1;fill:#000000;fill-opacity:1;fill-rule:nonzero;stroke:none;stroke-width:0.20635015;stroke-linecap:square;stroke-linejoin:round;stroke-miterlimit:4;stroke-dasharray:none;stroke-opacity:1;paint-order:stroke fill markers"
       id="path815"
       cx="30.799999"
       cy="266.20001"
       r="30.299999" />
    <circle
       r="30"
       cy="266.20001"
       cx="30.799999"
       id="circle819"
       style="opacity:1;fill:#ffffff;fill-opacity:1;fill-rule:nonzero;stroke:none;stroke-width:0.20430708;stroke-linecap:square;stroke-linejoin:round;stroke-miterlimit:4;stroke-dasharray:none;stroke-opacity:1;paint-order:stroke fill markers" />
    <circle
       style="opacity:1;fill:#003c82;fill-opacity:1;fill-rule:nonzero;stroke:none;stroke-width:0.19068664;stroke-linecap:square;stroke-linejoin:round;stroke-miterlimit:4;stroke-dasharray:none;stroke-opacity:1;paint-order:stroke fill markers"
       id="circle821"
       cx="30.799999"
       cy="266.20001"
       r="28" />
    <path
       inkscape:connector-curvature="0"
       id="path819"
       d="m 26.061847,251.90131 c -0.709809,0.0196 -1.393188,0.32851 -1.879275,0.87481 -0.648621,0.728 -0.838776,1.75663 -0.493977,2.66878 l -2.780826,6.88936 c -1.249931,-0.76074 -2.680934,-1.17287 -4.143952,-1.19312 v 0.34502 c -3.717568,-0.0537 -6.9629748,2.51061 -7.7740328,6.14245 -0.8108784,3.63204 1.0350578,7.33536 4.4219208,8.8709 3.386887,1.53537 7.385709,0.48183 9.578272,-2.52382 l 0.278538,0.20236 c 2.621963,-3.59449 1.900806,-8.62614 -1.624612,-11.33845 l 0.476356,-1.18006 8.60794,7.49018 c -0.387282,0.80048 -0.309197,1.7487 0.203503,2.47494 0.513031,0.72629 1.379257,1.11603 2.262404,1.01806 l 0.511031,1.67288 h -0.536042 v 0.87254 h 2.222613 v -0.87254 h -0.774787 l -0.587203,-1.92242 c 0.736906,-0.37446 1.234413,-1.09659 1.3222,-1.91902 h 5.82e-4 l 1.472269,-0.0967 c 0.53236,4.00698 4.015282,6.95622 8.051435,6.81717 4.03617,-0.13904 7.308024,-3.3207 7.563708,-7.35489 l 0.343341,0.0256 c 0.144587,-2.26138 -0.651907,-4.48204 -2.201014,-6.13506 -1.548936,-1.65269 -3.712018,-2.59033 -5.976048,-2.59033 -1.272091,0 -2.527487,0.29725 -3.665323,0.86686 l -2.240234,-3.88464 0.831065,-1.86787 2.274342,-1.03795 c 0.325979,-0.14867 0.505031,-0.50425 0.429741,-0.85491 -0.0753,-0.35056 -0.384671,-0.60156 -0.742967,-0.6031 -1.881405,-0.0631 -3.763954,-0.0909 -5.64635,-0.0847 -0.259026,-0.0118 -0.490918,0.15919 -0.558212,0.40984 -0.06718,0.25072 0.04885,0.51456 0.278536,0.63493 0.987264,0.54245 1.998463,1.03997 3.030373,1.49156 l -0.815149,1.83261 H 23.58059 l 1.060148,-2.62615 c -0.363784,-0.60589 -0.326437,-1.3714 0.09436,-1.9389 0.421046,-0.56755 1.142538,-0.82511 1.826977,-0.65199 l 0.0063,0.002 1.536503,0.39108 0.422353,0.10747 0.214872,-0.84583 -0.422354,-0.10747 -1.542755,-0.39278 h -0.0029 c -0.236127,-0.0596 -0.475671,-0.0856 -0.712273,-0.079 z m -2.833691,7.01442 h 14.16561 l -3.962619,8.90899 c -0.265009,-0.0561 -0.537776,-0.0674 -0.806621,-0.0341 l -0.485451,-1.58933 h 0.681563 v -0.87311 h -2.222613 v 0.87311 h 0.629267 l 0.565034,1.84967 c -0.199709,0.10516 -0.383841,0.23686 -0.547412,0.39222 l -8.779041,-7.63912 z m 15.034193,0.19213 1.920771,3.32985 c -1.924886,1.23553 -3.245924,3.22032 -3.644861,5.47397 -0.09464,0.53423 -0.136435,1.07599 -0.123921,1.61832 l -1.125518,0.0739 c -0.154579,-0.59875 -0.529957,-1.11672 -1.050483,-1.4495 l 3.927378,-8.8294 z m -21.565609,3.65955 c 1.238259,0.008 2.487489,0.36511 3.592563,1.10104 l -1.555261,3.85224 c -0.387799,0.78533 -1.20741,1.26112 -2.081072,1.21019 -0.155364,-6.1e-4 -0.2988,0.0821 -0.376878,0.21658 -0.07818,0.1343 -0.07866,0.29992 -0.0011,0.43483 0.07744,0.13469 0.220964,0.21828 0.37631,0.21828 1.281159,0.0522 2.458537,-0.70309 2.946243,-1.89002 v 10e-4 l 1.408608,-3.49072 c 2.649634,2.34912 2.963053,6.37719 0.70885,9.1085 -2.254358,2.73133 -6.265383,3.18355 -9.070079,1.02258 -2.8048388,-2.16076 -3.3943818,-6.15778 -1.333567,-9.03801 1.288014,-1.80026 3.32167,-2.75934 5.385433,-2.74665 z m 28.064624,0.002 c 1.693914,0.0405 3.350246,0.73581 4.57995,2.01623 1.967684,2.04874 2.397325,5.13099 1.065262,7.64081 -1.332225,2.50953 -4.124396,3.87894 -6.921937,3.39353 -2.79738,-0.485 -4.966891,-2.71481 -5.377473,-5.52685 l 5.757763,-0.37743 c 0.266513,0.34501 0.735491,0.46079 1.13177,0.27909 0.396065,-0.18163 0.614679,-0.6129 0.527515,-1.04023 -0.08711,-0.42762 -0.456881,-0.73834 -0.892457,-0.75033 l -2.875753,-4.98512 c 0.959118,-0.46249 1.989012,-0.67402 3.00536,-0.64972 z m -3.764235,1.07945 2.850748,4.94192 -0.132449,0.26035 -5.677045,0.37232 c -0.02765,-2.24155 1.087832,-4.34278 2.958746,-5.57459 z"
       style="fill:#ffffff;fill-opacity:1;fill-rule:nonzero;stroke:none;stroke-width:0.56686521" />
  </g>
</svg>
