<?xml version="1.0" encoding="UTF-8" standalone="no"?>
<!-- Created with Inkscape (http://www.inkscape.org/) -->

<svg
   xmlns:dc="http://purl.org/dc/elements/1.1/"
   xmlns:cc="http://creativecommons.org/ns#"
   xmlns:rdf="http://www.w3.org/1999/02/22-rdf-syntax-ns#"
   xmlns:svg="http://www.w3.org/2000/svg"
   xmlns="http://www.w3.org/2000/svg"
   xmlns:sodipodi="http://sodipodi.sourceforge.net/DTD/sodipodi-0.dtd"
   xmlns:inkscape="http://www.inkscape.org/namespaces/inkscape"
   width="91mm"
   height="80.537003mm"
   viewBox="0 0 91 80.537006"
   version="1.1"
   id="svg863"
   inkscape:version="0.92.2 (5c3e80d, 2017-08-06)"
   sodipodi:docname="96.svg">
  <defs
     id="defs857" />
  <sodipodi:namedview
     id="base"
     pagecolor="#ffffff"
     bordercolor="#666666"
     borderopacity="1.0"
     inkscape:pageopacity="0.0"
     inkscape:pageshadow="2"
     inkscape:zoom="1.8226729"
     inkscape:cx="215.72307"
     inkscape:cy="138.43473"
     inkscape:document-units="mm"
     inkscape:current-layer="layer1"
     showgrid="false"
     inkscape:window-width="1920"
     inkscape:window-height="1057"
     inkscape:window-x="-8"
     inkscape:window-y="-8"
     inkscape:window-maximized="1"
     inkscape:snap-global="false"
     fit-margin-top="0"
     fit-margin-left="0"
     fit-margin-right="0"
     fit-margin-bottom="0" />
  <metadata
     id="metadata860">
    <rdf:RDF>
      <cc:Work
         rdf:about="">
        <dc:format>image/svg+xml</dc:format>
        <dc:type
           rdf:resource="http://purl.org/dc/dcmitype/StillImage" />
        <dc:title></dc:title>
      </cc:Work>
    </rdf:RDF>
  </metadata>
  <g
     inkscape:label="Layer 1"
     inkscape:groupmode="layer"
     id="layer1"
     transform="translate(0,-213.94686)">
    <path
       inkscape:connector-curvature="0"
       id="path814"
       d="M 84.550409,288.03383 45.499941,220.39648 6.4496006,288.03378 Z"
       inkscape:transform-center-y="4.393997"
       inkscape:transform-center-x="27.135595"
       style="opacity:1;fill:none;fill-opacity:1;stroke:#dc0a14;stroke-width:11.9000721;stroke-linecap:butt;stroke-linejoin:round;stroke-miterlimit:4;stroke-dasharray:none;stroke-dashoffset:0;stroke-opacity:1"
       sodipodi:nodetypes="cccc" />
    <path
       sodipodi:nodetypes="cccc"
       inkscape:connector-curvature="0"
       id="path818"
       d="M 81.173019,286.08385 45.499981,224.29634 9.8269506,286.08381 Z"
       style="opacity:1;fill:#ffffff;fill-opacity:1;stroke:none;stroke-width:11.93114281;stroke-linecap:butt;stroke-linejoin:round;stroke-miterlimit:4;stroke-dasharray:none;stroke-dashoffset:0;stroke-opacity:1" />
    <g
       aria-label="10%"
       style="font-style:normal;font-variant:normal;font-weight:normal;font-stretch:normal;font-size:20.72874451px;line-height:1.25;font-family:'DIN 1451 Mittelschrift';-inkscape-font-specification:'DIN 1451 Mittelschrift';letter-spacing:0px;word-spacing:0px;fill:#003c82;fill-opacity:1;fill-rule:nonzero;stroke:none;stroke-width:0.51821858"
       id="g885"
       transform="matrix(0.86664124,1.6782609e-8,1.6782609e-8,-0.86664124,-20.120525,507.16141)" />
    <path
       d="m 28.05001,257.88383 50.19998,26.50003 -65.49999,-2e-5"
       style="fill:#000000;fill-opacity:1;fill-rule:nonzero;stroke:none;stroke-width:0.11177473"
       id="path976"
       inkscape:connector-curvature="0"
       sodipodi:nodetypes="ccc" />
    <g
       transform="translate(-33.559002,-118.052)"
       aria-label="10%"
       style="font-style:normal;font-variant:normal;font-weight:normal;font-stretch:normal;font-size:16.58299637px;line-height:1.25;font-family:'DIN 1451 Mittelschrift';-inkscape-font-specification:'DIN 1451 Mittelschrift';letter-spacing:0px;word-spacing:0px;fill:#000000;fill-opacity:1;stroke:none;stroke-width:0.41457486"
       id="g988">
      <path
         inkscape:connector-curvature="0"
         id="path978"
         style="font-style:normal;font-variant:normal;font-weight:normal;font-stretch:normal;font-family:'DIN 1451 Mittelschrift';-inkscape-font-specification:'DIN 1451 Mittelschrift';fill:#000000;stroke-width:0.41380826;fill-opacity:1"
         d="m 69.278234,377.85812 4.677679,-8.86113 -2.055237,0.29462 0.830774,-1.57377 2.055428,-0.29499 1.503387,0.79362 -5.508645,10.43527 z"
         sodipodi:nodetypes="cccccccc" />
      <path
         style="opacity:1;fill:#000000;fill-opacity:1;fill-rule:nonzero;stroke:none;stroke-width:10.85961533;stroke-linecap:square;stroke-linejoin:round;stroke-miterlimit:4;stroke-dasharray:none;stroke-opacity:1;paint-order:stroke fill markers"
         d="m 81.122335,370.63123 c -1.641255,-0.8664 -3.618661,-0.3214 -4.433334,1.22187 l -2.660913,5.04069 c -0.814673,1.54327 -0.14916,3.48344 1.492095,4.34984 1.641256,0.8664 3.61821,0.32115 4.432882,-1.22212 l 2.660914,-5.04069 c 0.814673,-1.54327 0.149612,-3.48319 -1.491644,-4.34959 z m -0.784281,1.4857 c 0.818178,0.4319 1.170405,1.35942 0.790225,2.07961 l -2.660914,5.04069 c -0.38018,0.72019 -1.344722,0.95261 -2.1629,0.5207 -0.818178,-0.4319 -1.170858,-1.35967 -0.790677,-2.07986 l 2.660913,-5.04069 c 0.380181,-0.72019 1.345174,-0.95236 2.163353,-0.52045 z"
         id="path980"
         inkscape:connector-curvature="0" />
      <path
         inkscape:connector-curvature="0"
         id="path982"
         style="font-style:normal;font-variant:normal;font-weight:normal;font-stretch:normal;font-family:'DIN 1451 Mittelschrift';-inkscape-font-specification:'DIN 1451 Mittelschrift';fill:#000000;stroke-width:0.41412556;fill-opacity:1"
         d="m 79.651639,383.31163 10.460976,-7.82099 0.972779,0.51351 -10.460975,7.821 z"
         sodipodi:nodetypes="ccccc" />
      <path
         style="font-style:normal;font-variant:normal;font-weight:normal;font-stretch:normal;font-family:'DIN 1451 Mittelschrift';-inkscape-font-specification:'DIN 1451 Mittelschrift';fill:#000000;stroke-width:0.41280812;fill-opacity:1"
         d="m 84.435451,377.35595 c 0.354882,0.18644 0.731971,0.23984 1.131248,0.1595 0.400688,-0.0806 0.735906,-0.37677 1.004756,-0.88607 l 0.523083,-0.9909 c 0.26885,-0.50929 0.324269,-0.95314 0.164795,-1.32947 -0.158909,-0.37499 -0.415774,-0.65614 -0.769867,-0.84407 -0.354878,-0.18644 -0.731971,-0.23983 -1.131244,-0.1595 -0.400688,0.0806 -0.735906,0.37677 -1.004756,0.88607 l -0.523083,0.9909 c -0.26885,0.50929 -0.324269,0.95314 -0.164795,1.32946 0.158905,0.37501 0.415774,0.65615 0.769863,0.84408 z m 0.438824,-0.83128 c -0.357239,-0.19084 -0.413745,-0.52769 -0.161229,-1.00078 l 0.420314,-0.79622 c 0.248138,-0.47542 0.558422,-0.61922 0.917529,-0.43191 0.35724,0.19084 0.413507,0.52814 0.160986,1.00124 l -0.420314,0.79622 c -0.248134,0.47541 -0.558179,0.61876 -0.917286,0.43145 z"
         id="path984"
         inkscape:connector-curvature="0"
         sodipodi:nodetypes="ccsscccssccccccccc" />
      <path
         sodipodi:nodetypes="ccsscccssccccccccc"
         inkscape:connector-curvature="0"
         id="path986"
         d="m 84.24802,385.85094 c 0.354883,0.18644 0.731971,0.23984 1.131249,0.1595 0.400687,-0.0806 0.735906,-0.37677 1.004756,-0.88607 l 0.523083,-0.9909 c 0.26885,-0.50929 0.324269,-0.95314 0.164795,-1.32946 -0.15891,-0.375 -0.415774,-0.65615 -0.769868,-0.84408 -0.354878,-0.18644 -0.731971,-0.23983 -1.131244,-0.1595 -0.400687,0.0806 -0.735906,0.37677 -1.004756,0.88607 l -0.523083,0.9909 c -0.26885,0.50929 -0.324269,0.95314 -0.164795,1.32946 0.158905,0.37501 0.415774,0.65615 0.769863,0.84408 z m 0.438824,-0.83128 c -0.357239,-0.19084 -0.413744,-0.52769 -0.161229,-1.00078 l 0.420315,-0.79622 c 0.248138,-0.47542 0.558422,-0.61922 0.917528,-0.43191 0.35724,0.19084 0.413508,0.52814 0.160987,1.00124 l -0.420315,0.79622 c -0.248133,0.47541 -0.558178,0.61876 -0.917286,0.43145 z"
         style="font-style:normal;font-variant:normal;font-weight:normal;font-stretch:normal;font-family:'DIN 1451 Mittelschrift';-inkscape-font-specification:'DIN 1451 Mittelschrift';fill:#000000;stroke-width:0.41280812;fill-opacity:1" />
    </g>
  </g>
</svg>
