<?xml version="1.0" encoding="UTF-8" standalone="no"?>
<!-- Created with Inkscape (http://www.inkscape.org/) -->

<svg
   xmlns:dc="http://purl.org/dc/elements/1.1/"
   xmlns:cc="http://creativecommons.org/ns#"
   xmlns:rdf="http://www.w3.org/1999/02/22-rdf-syntax-ns#"
   xmlns:svg="http://www.w3.org/2000/svg"
   xmlns="http://www.w3.org/2000/svg"
   xmlns:sodipodi="http://sodipodi.sourceforge.net/DTD/sodipodi-0.dtd"
   xmlns:inkscape="http://www.inkscape.org/namespaces/inkscape"
   width="61.400002mm"
   height="61.400002mm"
   viewBox="0 0 61.400002 61.400002"
   version="1.1"
   id="svg825"
   inkscape:version="0.92.2 (5c3e80d, 2017-08-06)"
   sodipodi:docname="22.svg">
  <defs
     id="defs819" />
  <sodipodi:namedview
     id="base"
     pagecolor="#ffffff"
     bordercolor="#666666"
     borderopacity="1.0"
     inkscape:pageopacity="0.0"
     inkscape:pageshadow="2"
     inkscape:zoom="3.2375"
     inkscape:cx="167.98404"
     inkscape:cy="137.56395"
     inkscape:document-units="mm"
     inkscape:current-layer="layer1"
     showgrid="false"
     fit-margin-top="0"
     fit-margin-left="0"
     fit-margin-right="0"
     fit-margin-bottom="0"
     showborder="true"
     inkscape:window-width="1920"
     inkscape:window-height="1057"
     inkscape:window-x="-8"
     inkscape:window-y="-8"
     inkscape:window-maximized="1" />
  <metadata
     id="metadata822">
    <rdf:RDF>
      <cc:Work
         rdf:about="">
        <dc:format>image/svg+xml</dc:format>
        <dc:type
           rdf:resource="http://purl.org/dc/dcmitype/StillImage" />
        <dc:title></dc:title>
      </cc:Work>
    </rdf:RDF>
  </metadata>
  <g
     inkscape:label="Layer 1"
     inkscape:groupmode="layer"
     id="layer1"
     transform="translate(232.83333,-324.04641)">
    <rect
       style="opacity:1;fill:#000000;fill-opacity:1;fill-rule:nonzero;stroke:none;stroke-width:0.50057405;stroke-linecap:square;stroke-linejoin:round;stroke-miterlimit:4;stroke-dasharray:none;stroke-opacity:1;paint-order:stroke fill markers"
       id="rect1373"
       width="60.400002"
       height="60.400002"
       x="-232.33333"
       y="324.54642"
       rx="3.8"
       ry="3.8" />
    <rect
       y="324.7464"
       x="-232.13335"
       height="60"
       width="60"
       id="rect1375"
       style="opacity:1;fill:#ffffff;fill-opacity:1;fill-rule:nonzero;stroke:none;stroke-width:0.49725902;stroke-linecap:square;stroke-linejoin:round;stroke-miterlimit:4;stroke-dasharray:none;stroke-opacity:1;paint-order:stroke fill markers"
       rx="3.5999999"
       ry="3.5999999" />
    <rect
       style="opacity:1;fill:#003c82;fill-opacity:1;fill-rule:nonzero;stroke:none;stroke-width:0.47239608;stroke-linecap:square;stroke-linejoin:round;stroke-miterlimit:4;stroke-dasharray:none;stroke-opacity:1;paint-order:stroke fill markers"
       id="rect1385"
       width="57"
       height="57"
       x="-230.63335"
       y="326.2464"
       rx="2.0999999"
       ry="2.0999999" />
    <path
       d="m -226.63332,359.1464 v 20 h 49 v -1.5"
       inkscape:connector-curvature="0"
       id="path32"
       style="fill:#ffffff;stroke:none;stroke-width:0.04373435"
       sodipodi:nodetypes="cccc" />
    <path
       d="m -196.64652,330.48044 c 1.93679,0 3.50677,1.56995 3.50677,3.5067 0,1.93676 -1.56998,3.50669 -3.50677,3.50669 -1.93697,0 -3.50697,-1.56993 -3.50697,-3.50669 0,-1.93675 1.57,-3.5067 3.50697,-3.5067"
       inkscape:connector-curvature="0"
       id="path32-7"
       style="fill:#ffffff;stroke:none;stroke-width:0.04387748" />
    <path
       d="m -197.05238,337.88258 c -1.07536,0 -2.54561,0.30714 -3.33541,1.47033 l -5.24467,8.55919 c 0,0 -0.85579,1.75545 0.96549,3.07191 l 3.37943,-5.44213 v 4.67383 h 8.04977 v -2.56719 l 2.19813,1.05307 c 0,0 1.64593,0.72414 3.00631,-1.14099 l -5.20431,-2.78693 v -3.11613 c 0,-1.75511 -1.75185,-3.77435 -3.81462,-3.77435"
       inkscape:connector-curvature="0"
       id="path34"
       style="fill:#ffffff;stroke:none;stroke-width:0.04387748" />
    <path
       d="m -193.23769,351.04934 h -8.04976 v 7.32973 l -3.3246,3.32424 c 0,0 -0.47168,0.31848 -0.47168,0.97663 v 4.34523 l 7.4719,-7.47189 c 0,0 0.86676,-0.55962 0.86676,-2.1618 v 9.74343 c 0,0 -0.0548,0.73478 0.30731,1.09694 0.36199,0.36199 3.20016,3.21456 3.20016,3.21456 v -20.3969"
       inkscape:connector-curvature="0"
       id="path36-7"
       style="fill:#ffffff;stroke:none;stroke-width:0.04387748" />
  </g>
</svg>
