<?xml version="1.0" encoding="UTF-8" standalone="no"?>
<!-- Created with Inkscape (http://www.inkscape.org/) -->

<svg
   xmlns:dc="http://purl.org/dc/elements/1.1/"
   xmlns:cc="http://creativecommons.org/ns#"
   xmlns:rdf="http://www.w3.org/1999/02/22-rdf-syntax-ns#"
   xmlns:svg="http://www.w3.org/2000/svg"
   xmlns="http://www.w3.org/2000/svg"
   xmlns:sodipodi="http://sodipodi.sourceforge.net/DTD/sodipodi-0.dtd"
   xmlns:inkscape="http://www.inkscape.org/namespaces/inkscape"
   width="61.400002mm"
   height="61.400002mm"
   viewBox="0 0 61.400002 61.400002"
   version="1.1"
   id="svg825"
   inkscape:version="0.92.2 (5c3e80d, 2017-08-06)"
   sodipodi:docname="33.svg">
  <defs
     id="defs819" />
  <sodipodi:namedview
     id="base"
     pagecolor="#ffffff"
     bordercolor="#666666"
     borderopacity="1.0"
     inkscape:pageopacity="0.0"
     inkscape:pageshadow="2"
     inkscape:zoom="2.2892582"
     inkscape:cx="156.81936"
     inkscape:cy="117.87718"
     inkscape:document-units="mm"
     inkscape:current-layer="layer1"
     showgrid="false"
     fit-margin-top="0"
     fit-margin-left="0"
     fit-margin-right="0"
     fit-margin-bottom="0"
     showborder="true"
     inkscape:window-width="1920"
     inkscape:window-height="1057"
     inkscape:window-x="-8"
     inkscape:window-y="-8"
     inkscape:window-maximized="1" />
  <metadata
     id="metadata822">
    <rdf:RDF>
      <cc:Work
         rdf:about="">
        <dc:format>image/svg+xml</dc:format>
        <dc:type
           rdf:resource="http://purl.org/dc/dcmitype/StillImage" />
        <dc:title></dc:title>
      </cc:Work>
    </rdf:RDF>
  </metadata>
  <g
     inkscape:label="Layer 1"
     inkscape:groupmode="layer"
     id="layer1"
     transform="translate(232.83333,-324.04641)">
    <rect
       style="opacity:1;fill:#000000;fill-opacity:1;fill-rule:nonzero;stroke:none;stroke-width:0.50057405;stroke-linecap:square;stroke-linejoin:round;stroke-miterlimit:4;stroke-dasharray:none;stroke-opacity:1;paint-order:stroke fill markers"
       id="rect1373"
       width="60.400002"
       height="60.400002"
       x="-232.33333"
       y="324.54642"
       rx="3.8"
       ry="3.8" />
    <rect
       y="324.7464"
       x="-232.13335"
       height="60"
       width="60"
       id="rect1375"
       style="opacity:1;fill:#ffffff;fill-opacity:1;fill-rule:nonzero;stroke:none;stroke-width:0.49725902;stroke-linecap:square;stroke-linejoin:round;stroke-miterlimit:4;stroke-dasharray:none;stroke-opacity:1;paint-order:stroke fill markers"
       rx="3.5999999"
       ry="3.5999999" />
    <rect
       style="opacity:1;fill:#003c82;fill-opacity:1;fill-rule:nonzero;stroke:none;stroke-width:0.47239608;stroke-linecap:square;stroke-linejoin:round;stroke-miterlimit:4;stroke-dasharray:none;stroke-opacity:1;paint-order:stroke fill markers"
       id="rect1385"
       width="57"
       height="57"
       x="-230.63335"
       y="326.2464"
       rx="2.0999999"
       ry="2.0999999" />
    <path
       d="m -177.63332,359.1464 v 20 h -49 v -1.5"
       inkscape:connector-curvature="0"
       id="path32"
       style="fill:#ffffff;stroke:none;stroke-width:0.04373435"
       sodipodi:nodetypes="cccc" />
    <path
       d="m -211.42904,339.23725 c 0.0776,0.005 0.19941,0.0176 0.27851,0.0176 1.88015,0 3.4041,-1.52432 3.4041,-3.4045 0,-1.88001 -1.52395,-3.40392 -3.4041,-3.40392 -1.84576,0 -3.34842,1.46871 -3.40261,3.30152 l 1.37705,17.61282 h 11.88893 l 4.72642,10.86181 6.15282,-2.63986 -0.99441,-2.28498 -3.43225,1.473 -4.47204,-10.27754 h -11.24445 l -0.19092,-2.46766 h 8.60375 v -2.79599 h -8.8241 l -0.46649,-5.99224"
       inkscape:connector-curvature="0"
       id="path28"
       style="fill:#ffffff;stroke-width:0.04363392;stroke:none" />
    <path
       d="m -201.26146,356.82477 c -0.30133,4.35777 -3.92841,7.79914 -8.36245,7.79914 -4.6313,0 -8.38599,-3.75457 -8.38599,-8.38645 0,-2.65246 1.24326,-5.01746 3.16584,-6.55381 l -0.25359,-3.23389 c -3.42657,1.91729 -5.73568,5.58253 -5.73568,9.78753 0,6.19079 5.01878,11.20912 11.20912,11.20912 4.48601,0 8.38949,-2.63509 10.18066,-6.44254 l -1.81848,-4.17931"
       inkscape:connector-curvature="0"
       id="path30"
       style="fill:#ffffff;stroke-width:0.04363392;stroke:none" />
  </g>
</svg>
