<?xml version="1.0" encoding="UTF-8" standalone="no"?>
<!-- Created with Inkscape (http://www.inkscape.org/) -->

<svg
   xmlns:dc="http://purl.org/dc/elements/1.1/"
   xmlns:cc="http://creativecommons.org/ns#"
   xmlns:rdf="http://www.w3.org/1999/02/22-rdf-syntax-ns#"
   xmlns:svg="http://www.w3.org/2000/svg"
   xmlns="http://www.w3.org/2000/svg"
   xmlns:sodipodi="http://sodipodi.sourceforge.net/DTD/sodipodi-0.dtd"
   xmlns:inkscape="http://www.inkscape.org/namespaces/inkscape"
   width="61.400002mm"
   height="61.400002mm"
   viewBox="0 0 61.400002 61.400002"
   version="1.1"
   id="svg825"
   inkscape:version="0.92.2 (5c3e80d, 2017-08-06)"
   sodipodi:docname="22.svg">
  <defs
     id="defs819" />
  <sodipodi:namedview
     id="base"
     pagecolor="#ffffff"
     bordercolor="#666666"
     borderopacity="1.0"
     inkscape:pageopacity="0.0"
     inkscape:pageshadow="2"
     inkscape:zoom="2.2892582"
     inkscape:cx="156.81936"
     inkscape:cy="117.87718"
     inkscape:document-units="mm"
     inkscape:current-layer="layer1"
     showgrid="false"
     fit-margin-top="0"
     fit-margin-left="0"
     fit-margin-right="0"
     fit-margin-bottom="0"
     showborder="true"
     inkscape:window-width="1920"
     inkscape:window-height="1057"
     inkscape:window-x="-8"
     inkscape:window-y="-8"
     inkscape:window-maximized="1" />
  <metadata
     id="metadata822">
    <rdf:RDF>
      <cc:Work
         rdf:about="">
        <dc:format>image/svg+xml</dc:format>
        <dc:type
           rdf:resource="http://purl.org/dc/dcmitype/StillImage" />
        <dc:title></dc:title>
      </cc:Work>
    </rdf:RDF>
  </metadata>
  <g
     inkscape:label="Layer 1"
     inkscape:groupmode="layer"
     id="layer1"
     transform="translate(232.83333,-324.04641)">
    <rect
       style="opacity:1;fill:#000000;fill-opacity:1;fill-rule:nonzero;stroke:none;stroke-width:0.50057405;stroke-linecap:square;stroke-linejoin:round;stroke-miterlimit:4;stroke-dasharray:none;stroke-opacity:1;paint-order:stroke fill markers"
       id="rect1373"
       width="60.400002"
       height="60.400002"
       x="-232.33333"
       y="324.54642"
       rx="3.8"
       ry="3.8" />
    <rect
       y="324.7464"
       x="-232.13335"
       height="60"
       width="60"
       id="rect1375"
       style="opacity:1;fill:#ffffff;fill-opacity:1;fill-rule:nonzero;stroke:none;stroke-width:0.49725902;stroke-linecap:square;stroke-linejoin:round;stroke-miterlimit:4;stroke-dasharray:none;stroke-opacity:1;paint-order:stroke fill markers"
       rx="3.5999999"
       ry="3.5999999" />
    <rect
       style="opacity:1;fill:#003c82;fill-opacity:1;fill-rule:nonzero;stroke:none;stroke-width:0.47239608;stroke-linecap:square;stroke-linejoin:round;stroke-miterlimit:4;stroke-dasharray:none;stroke-opacity:1;paint-order:stroke fill markers"
       id="rect1385"
       width="57"
       height="57"
       x="-230.63335"
       y="326.2464"
       rx="2.0999999"
       ry="2.0999999" />
    <path
       d="m -177.63332,359.1464 v 20 h -49 v -1.5"
       inkscape:connector-curvature="0"
       id="path32"
       style="fill:#ffffff;stroke:none;stroke-width:0.04373435"
       sodipodi:nodetypes="cccc" />
    <path
       d="m -207.87566,330.34672 c 1.937,0 3.50662,1.57006 3.50662,3.50706 0,1.93656 -1.56962,3.50661 -3.50662,3.50661 -1.937,0 -3.50705,-1.57005 -3.50705,-3.50661 0,-1.937 1.57005,-3.50706 3.50705,-3.50706"
       inkscape:connector-curvature="0"
       id="path34-8"
       style="fill:#ffffff;stroke:none;stroke-width:0.04373435" />
    <path
       d="m -208.28239,337.73621 c -1.07543,0 -2.54576,0.30746 -3.33605,1.47036 l -5.24462,8.55882 c 0,0 -0.8559,1.75548 0.96564,3.07233 l 3.37936,-5.44274 v 4.67434 h 8.05019 v -2.5677 l 2.19807,1.05337 c 0,0 1.64617,0.7242 3.0063,-1.14101 l -5.20437,-2.78702 v -3.11607 c 0,-1.75559 -1.75156,-3.7748 -3.81452,-3.7748"
       inkscape:connector-curvature="0"
       id="path36"
       style="fill:#ffffff;stroke:none;stroke-width:0.04373435" />
    <path
       d="m -204.46438,350.91804 h -8.05019 v 15.68359 c 0,0 -0.066,0.7021 0.35121,1.11929 0.41677,0.41686 3.10513,3.10548 3.10513,3.10548 v -15.37306 c 0,-0.30906 0.0569,-0.46608 0.25278,-0.61433 0.17886,-0.13584 0.41416,-0.0849 0.64203,0.14261 l 3.30061,3.60262 c 0,0 0.32189,0.34599 0.32189,0.9217 v 3.24794 c 0,0 -0.0586,0.71719 0.38006,1.15624 l 3.09464,3.09421 v -10.05847 c 0,0 0.007,-0.20516 -0.15352,-0.48295 l -3.24464,-5.54509"
       inkscape:connector-curvature="0"
       id="path38"
       style="fill:#ffffff;stroke:none;stroke-width:0.04373435" />
  </g>
</svg>
